<svg id="cloud01" xmlns="http://www.w3.org/2000/svg" viewBox="0 0 2500 300"><defs><style>.cls-1{fill:#710045;}.cls-2{fill:#7f0453;}.cls-3{fill:#660242;}</style></defs><title>Artboard 1</title><g id="Page-1"><g id="cloud-big-foreground-01"><g id="Page-1-2" data-name="Page-1"><g id="Group-3"><path id="Fill-1" class="cls-1" d="M840.2,277.36c75,5.4,152.1,30.11,223.9,7.2,14.7-4.7,28.7-11.3,43.8-14.7,22.9-5.3,46.7-2.89,70.1-1.1a1540.83,1540.83,0,0,0,244-.5l-49.2-11.9c-10.2-2.5-22-6.2-25.9-16.1-1.5-3.8-1.8-8.1-3.8-11.6-6.6-11.1-23.4-4.8-33.9,2.7-.3-15.4-14.5-29.1-29.7-28.5a38.26,38.26,0,0,0-12.7-38.7,36.76,36.76,0,0,0-39.9-4.4c6.3-7.5-4-21.1-12.7-16.8-3.7-15.7-23.9-24.7-37.7-16.7.4-23.4-14.8-46.3-36.3-54.8-7.2-2.8-15.6-4-22.8-1.3-7.2,2.9-12.8,10.8-11.3,18.6-11.1-9.1-30.7-2.4-34.2,11.8-.8,3.3-.9,6.8-2.7,9.7-3.7,5.7-11.9,5.3-18.6,6.1s-14.5,7.2-11,13.2a49.3,49.3,0,0,0-29.4-16.3c3-15.4-11.5-31.6-26.9-29.9,3.7-13.5-8.9-27.2-22.5-29.9-13.7-2.5-27.5,2.7-40.4,7.7a58.6,58.6,0,0,0-29-41.1c-4.3-2.4-9.2-4.2-13.9-3.2s-8.9,5.9-7.6,10.8c-13.4-6.7-31.4-1.3-39,11.8s-3.5,31.8,8.7,40.4c-22-1.3-42.5,20.5-40.2,42.8a23.69,23.69,0,0,0-24.8,11.1,24.64,24.64,0,0,0,1.6,27.5,79,79,0,0,0-59.5,33c-4,5.7-7.3,12.8-4.9,19.4-13.7-1.5-27.7,7-32.9,19.7-10.8-6.3-18.1-17.1-26.8-26.1s-20.1-17.1-32.5-15.6S597.2,209,604.7,219c-12.6-.39-24.6,11.51-24.5,24.51a105.61,105.61,0,0,1-43.9,38c46.7-.31,93.5,1.6,140.2.1,54.5-1.71,109-8.1,163.7-4.21"/></g><g id="Group-10"><path id="Fill-4" class="cls-2" d="M793.1,165.77c0-15.3-.1-41.2,22.6-38.2-7.8-27.81,16.8-42.7,41.6-41.9-33.4-18.2-12.9-52.31,22-44.2-2.2-15.21,15.3-4.9,20.4.1,8.2,8.2,12.1,20.1,17.5,30.1,20.1-6.3,32.6,14.2,34.2,31.5,2.3,24.89-5.8,52.2-24.7,68.9-15.6,13.9-39.7,29.2-61.4,27.8-19.6-1.1-15.4-11.9-28.5-22.1-11.5-9.11-40.9-10.8-43.7-12"/><path id="Fill-6" class="cls-2" d="M1052.5,141.77c-3.7-14.8,23.5-14.3,29.7-24,4.2-6.6.5-13,7.6-18.3,6.2-4.8,16.6-3.4,23.3-2,5.8-33.8,39.9-2.2,47.9,11.6,17.2,29.2-17.8,43-40.2,26.9-5.8,14.7-16.7,20.9-32.5,18.5-11.5-1.7-28.7-16-35.8-12.7"/><path id="Fill-8" class="cls-3" d="M1172.7,136.66c14.2-6.8,32,11.1,30.6,26.31,7.3,1.9,9.4,9.5,8.9,16.59,18.5-6.19,58.3-1.5,46.7,27.71,24.9,2.39,36.6,7.2,38.1,33,9.1.39,20.6-4.9,27.6-2,4.6,1.89,32.8,18.6,36.7,22.5-22.8,1.6-63.9,2.7-87.5.3-24.9-2.5-51.1-3.5-76.2-8.2-26.7-4.9-65.3-7.1-92-2.5-41.1,7-70.2,36.1-113.6,31-28.5-3.3-53.1-15.3-80.6-22.1-24-5.9-48.8-1.9-72.4-7,14.2-7.3,31.6-7.2,46.9-11.8,16.7-4.9,31-12.81,46.3-20.61,16.8-8.5,29.4-15.6,41.4-30,7.7-9.2,13.8-18.6,24.5-24.4,27.6-14.8,47.6,2.2,73.5,8.2,13.7,3.3,46.2-.8,52-16.6,22.1-1.29,31.3-1.4,49.1-20.4"/></g></g><g id="Page-1-3" data-name="Page-1"><g id="Group-3-2" data-name="Group-3"><path id="Fill-1-2" data-name="Fill-1" class="cls-1" d="M1982.7,222.3c50.6,3.6,102.5,20.3,150.9,4.9,9.8-3.2,19.4-7.6,29.5-9.8,15.5-3.5,31.5-2,47.3-.8a1038.4,1038.4,0,0,0,164.5-.4l-33.1-8c-6.9-1.6-14.9-4.1-17.6-10.8-1.1-2.6-1.2-5.5-2.6-7.8-4.4-7.5-15.8-3.2-22.8,1.8-.2-10.4-9.8-19.5-20-19.1a25.63,25.63,0,0,0-8.5-26.1,24.89,24.89,0,0,0-26.9-3c4.2-5-2.7-14.2-8.5-11.4-2.6-10.5-16.3-16.6-25.6-11.3.1-15.7-10.1-31.1-24.6-36.8-4.8-1.9-10.4-2.7-15.3-.8s-8.7,7.3-7.6,12.5c-7.5-6.1-20.7-1.5-22.9,8-.6,2.2-.6,4.7-1.9,6.6-2.5,3.9-8,3.5-12.5,4.1s-9.8,4.9-7.5,8.8a33.13,33.13,0,0,0-19.8-11c2-10.4-7.7-21.2-18.1-20.1,2.5-9.1-6-18.3-15.2-20s-18.6,1.7-27.2,5.1a39.11,39.11,0,0,0-19.3-27.7c-2.9-1.6-6.2-2.8-9.4-2.1s-6,4-5.2,7.3c-9-4.6-21.2-.9-26.2,8-5.2,8.8-2.3,21.3,5.9,27.2-14.9-.8-28.7,13.8-27.2,28.8a15.72,15.72,0,0,0-16.7,7.5,16.28,16.28,0,0,0,1.2,18.5,53.26,53.26,0,0,0-40.1,22.2c-2.7,3.7-4.9,8.7-3.4,13-9.1-1.1-18.6,4.7-22.1,13.3-7.3-4.3-12.2-11.5-18-17.6s-13.6-11.5-21.9-10.4-15.1,11.6-10.1,18.4c-8.7-.2-16.7,7.7-16.7,16.5a70.27,70.27,0,0,1-29.6,25.5c31.5-.1,63.1,1.1,94.5.1,36.7-1.4,73.4-5.7,110.3-3.1"/></g><g id="Group-10-2" data-name="Group-10"><path id="Fill-4-2" data-name="Fill-4" class="cls-2" d="M1951.1,147.9c0-10.4-.1-27.9,15.2-25.8-5.3-18.7,11.2-28.8,28-28.1-22.5-12.4-8.7-35.4,14.9-30-1.5-10.2,10.3-3.3,13.7.1,5.5,5.5,8.2,13.5,11.7,20.3,13.7-4.2,22,9.6,23.1,21.2,1.5,16.7-4,35.1-16.6,46.4-10.5,9.4-26.8,19.7-41.4,18.7-13.2-.8-10.4-8-19.2-15-7.7-5.9-27.5-7.1-29.4-7.8"/><path id="Fill-6-2" data-name="Fill-6" class="cls-2" d="M2125.9,131.7c-2.5-9.9,15.9-9.6,20-16.2,2.8-4.4.4-8.8,5.2-12.4,4.2-3.2,11.2-2.2,15.7-1.4,3.9-22.7,26.8-1.4,32.3,7.8,11.6,19.7-11.9,28.9-27,18.1-4,9.9-11.2,14-22,12.4-7.8-1-19.4-10.6-24.2-8.3"/><path id="Fill-8-2" data-name="Fill-8" class="cls-3" d="M2206.9,128.3c9.6-4.6,21.5,7.5,20.6,17.7,4.9,1.3,6.3,6.4,6,11.1,12.5-4.1,39.3-1.1,31.5,18.6,16.9,1.6,24.6,4.8,25.6,22.1,6.2.2,13.9-3.4,18.6-1.4,3,1.3,22,12.5,24.7,15.1-15.3,1.2-43.1,1.9-59,.2-16.9-1.6-34.4-2.3-51.4-5.5-18-3.4-44-4.8-62-1.8-27.6,4.7-47.3,24.3-76.6,20.8-19.2-2.2-35.8-10.3-54.3-14.9-16.3-4-32.9-1.3-48.7-4.7,9.6-4.9,21.3-4.8,31.6-7.8,11.2-3.4,20.8-8.7,31.3-13.8,11.4-5.7,19.8-10.4,27.9-20.3,5.3-6.2,9.4-12.5,16.5-16.4,18.6-9.9,32.1,1.4,49.5,5.6,9.1,2.2,31.1-.5,35-11.1,15-.6,21.2-.8,33.2-13.5"/></g></g></g></g></svg>