<?xml version="1.0" encoding="utf-8"?>
<!-- Generator: Adobe Illustrator 22.0.1, SVG Export Plug-In . SVG Version: 6.00 Build 0)  -->
<svg version="1.1" xmlns="http://www.w3.org/2000/svg" xmlns:xlink="http://www.w3.org/1999/xlink" x="0px" y="0px"
	 viewBox="0 0 1230 300" style="enable-background:new 0 0 1230 300;" xml:space="preserve">
<style type="text/css">
	.st0{fill:#710045;}
	.st1{fill:#AD1777;}
	.st2{fill:#540538;}
</style>
<g id="Layer_1">
	<title>cloud-big-foreground</title>
	<desc>Created with Sketch.</desc>
	<g id="Page-1">
		<g id="cloud-big-foreground">
			<g id="cloud-big" transform="translate(35.000000, 40.000000)">
				<path id="Shape" class="st0" d="M240.2,206.2c59.3,4.3,120.2,23.8,177,5.7c11.6-3.7,22.7-8.9,34.6-11.6
					c18.1-4.2,36.9-2.3,55.4-0.9c64.2,5,128.7,4.8,192.9-0.4l-38.9-9.4c-8.1-2-17.4-4.9-20.6-12.7c-1.2-3-1.4-6.4-3-9.2
					c-5.2-8.8-18.5-3.8-26.8,2.1c-0.2-12.2-11.5-23-23.5-22.5c2.8-11.3-1.1-23.3-10-30.6c-8.9-7.3-21.2-8.7-31.5-3.5
					c5-5.9-3.2-16.7-10.1-13.3c-2.9-12.4-18.9-19.5-29.8-13.2c0.3-18.5-11.7-36.6-28.7-43.3c-5.7-2.2-12.3-3.2-18-1
					c-5.7,2.3-10.1,8.5-8.9,14.7c-8.8-7.2-24.3-1.9-27,9.3c-0.6,2.6-0.7,5.4-2.1,7.7c-2.9,4.5-9.4,4.2-14.7,4.8
					c-5.3,0.6-11.5,5.7-8.7,10.4c-6-6.9-14.2-11.5-23.2-12.9c2.4-12.2-9.1-25-21.3-23.6c2.9-10.7-7-21.5-17.8-23.6
					c-10.8-2-21.7,2.1-31.9,6.1C301.4,21.5,293,9.5,280.9,2.7c-3.4-1.9-7.3-3.3-11-2.5s-7,4.7-6,8.5c-10.6-5.3-24.8-1-30.8,9.3
					c-6,10.3-2.8,25.1,6.9,31.9c-17.4-1-33.6,16.2-31.8,33.8c-7.7-1.5-15.5,2-19.6,8.8c-4.1,6.8-3.5,15.5,1.3,21.7
					c-18.7,1.1-36,10.7-47,26.1c-3.2,4.5-5.8,10.1-3.9,15.3c-10.8-1.2-21.9,5.5-26,15.6c-8.5-5-14.3-13.5-21.2-20.6
					c-6.8-7.1-15.9-13.5-25.7-12.3S48.4,152.1,54.3,160c-10.2-0.3-19.7,9.1-19.6,19.4c-8.5,13.1-20.6,23.5-34.7,30
					c36.9-0.2,73.9,1.3,110.8,0.1C153.9,208.2,197,203.1,240.2,206.2z"/>
			</g>
		</g>
	</g>
</g>
<g id="Layer_2">
	<path class="st1" d="M238,158c0-12.1-0.1-32.6,17.9-30.2c-6.2-22,13.2-33.8,32.8-33.1c-26.4-14.5-10.2-41.5,17.4-35.1
		c-1.7-12,12.1-3.9,16.1,0.1c6.5,6.5,9.6,15.9,13.8,23.8c15.9-5,25.8,11.2,27,24.9c1.8,19.7-4.6,41.3-19.5,54.5
		c-12.3,11-31.4,23.1-48.5,22c-15.5-0.9-12.2-9.4-22.5-17.5C263.4,160.2,240.2,158.9,238,158z"/>
	<path class="st1" d="M443,139c-2.9-11.7,18.6-11.3,23.5-19c3.3-5.2,0.4-10.3,6-14.5c4.9-3.8,13.1-2.7,18.4-1.6
		c4.6-26.7,31.5-1.7,37.9,9.2c13.6,23.1-14.1,34-31.8,21.3c-4.6,11.6-13.2,16.5-25.8,14.6C462.2,147.7,448.6,136.4,443,139z"/>
	<path class="st2" d="M538,135c11.2-5.4,25.3,8.8,24.2,20.8c5.8,1.5,7.4,7.5,7,13.1c14.6-4.9,46.1-1.2,36.9,21.9
		c19.7,1.9,28.9,5.7,30.1,26.1c7.2,0.3,16.3-3.9,21.8-1.6c3.6,1.5,25.9,14.7,29,17.8c-18,1.3-50.5,2.1-69.2,0.2
		c-19.7-2-40.4-2.8-60.2-6.5c-21.1-3.9-51.6-5.6-72.7-2c-32.5,5.5-55.5,28.5-89.8,24.5c-22.5-2.6-42-12.1-63.7-17.5
		c-19-4.7-38.6-1.5-57.2-5.5c11.2-5.8,25-5.7,37.1-9.3c13.2-3.9,24.5-10.1,36.6-16.3c13.3-6.7,23.2-12.3,32.7-23.7
		c6.1-7.3,10.9-14.7,19.4-19.3c21.8-11.7,37.6,1.7,58.1,6.5c10.8,2.6,36.5-0.6,41.1-13.1C516.7,150,524,150,538,135z"/>
</g>
</svg>
