<?xml version="1.0" encoding="utf-8"?>
<!-- Generator: Adobe Illustrator 22.1.0, SVG Export Plug-In . SVG Version: 6.00 Build 0)  -->
<svg version="1.1" id="cloud01" xmlns="http://www.w3.org/2000/svg" xmlns:xlink="http://www.w3.org/1999/xlink" x="0px" y="0px"
	 viewBox="0 0 2500 300" style="enable-background:new 0 0 2500 300;" xml:space="preserve">
<style type="text/css">
	.st0{fill:#710045;}
	.st1{fill:#7F0453;}
	.st2{fill:#660242;}
</style>
<title>cloud-big-foreground-01</title>
<desc>Created with Sketch.</desc>
<g id="Page-1_2_">
	<g id="cloud-big-foreground-01">
		<g id="Page-1" transform="translate(53.000000, 39.000000)">
			<g id="Group-3" transform="translate(0.000000, 0.465000)">
				<g id="Clip-2">
				</g>
				<path id="Fill-1" class="st0" d="M303.9,237.9c75,5.4,152.1,30.1,223.9,7.2c14.7-4.7,28.7-11.3,43.8-14.7
					c22.9-5.3,46.7-2.9,70.1-1.1c81.2,6.3,162.8,6.1,244-0.5l-49.2-11.9c-10.2-2.5-22-6.2-25.9-16.1c-1.5-3.8-1.8-8.1-3.8-11.6
					c-6.6-11.1-23.4-4.8-33.9,2.7c-0.3-15.4-14.5-29.1-29.7-28.5c3.5-14.3-1.4-29.5-12.7-38.7c-11.3-9.2-26.8-11-39.9-4.4
					c6.3-7.5-4-21.1-12.7-16.8c-3.7-15.7-23.9-24.7-37.7-16.7c0.4-23.4-14.8-46.3-36.3-54.8c-7.2-2.8-15.6-4-22.8-1.3
					c-7.2,2.9-12.8,10.8-11.3,18.6c-11.1-9.1-30.7-2.4-34.2,11.8c-0.8,3.3-0.9,6.8-2.7,9.7c-3.7,5.7-11.9,5.3-18.6,6.1
					c-6.7,0.8-14.5,7.2-11,13.2c-7.6-8.7-18-14.5-29.4-16.3c3-15.4-11.5-31.6-26.9-29.9c3.7-13.5-8.9-27.2-22.5-29.9
					c-13.7-2.5-27.5,2.7-40.4,7.7c-3-17.3-13.7-32.6-29-41.1c-4.3-2.4-9.2-4.2-13.9-3.2c-4.8,1-8.9,5.9-7.6,10.8
					c-13.4-6.7-31.4-1.3-39,11.8c-7.6,13-3.5,31.8,8.7,40.4c-22-1.3-42.5,20.5-40.2,42.8c-9.7-1.9-19.6,2.5-24.8,11.1
					s-4.4,19.6,1.6,27.5c-23.7,1.4-45.5,13.5-59.5,33c-4,5.7-7.3,12.8-4.9,19.4c-13.7-1.5-27.7,7-32.9,19.7
					c-10.8-6.3-18.1-17.1-26.8-26.1c-8.6-9-20.1-17.1-32.5-15.6c-12.3,1.5-22.4,17.3-14.9,27.3C55.8,179.1,43.8,191,43.9,204
					C33.1,220.6,17.8,233.7,0,242c46.7-0.3,93.5,1.6,140.2,0.1C194.7,240.4,249.2,234,303.9,237.9"/>
			</g>
			<g id="Group-10" transform="translate(203.000000, 13.465000)">
				<path id="Fill-4" class="st1" d="M53.8,113.3c0-15.3-0.1-41.2,22.6-38.2C68.6,47.3,93.2,32.4,118,33.2
					C84.6,15,105.1-19.1,140-11c-2.2-15.2,15.3-4.9,20.4,0.1c8.2,8.2,12.1,20.1,17.5,30.1c20.1-6.3,32.6,14.2,34.2,31.5
					c2.3,24.9-5.8,52.2-24.7,68.9c-15.6,13.9-39.7,29.2-61.4,27.8c-19.6-1.1-15.4-11.9-28.5-22.1C86,116.2,56.6,114.5,53.8,113.3"/>
				<path id="Fill-6" class="st1" d="M313.2,89.3c-3.7-14.8,23.5-14.3,29.7-24c4.2-6.6,0.5-13,7.6-18.3c6.2-4.8,16.6-3.4,23.3-2
					c5.8-33.8,39.9-2.2,47.9,11.6c17.2,29.2-17.8,43-40.2,26.9c-5.8,14.7-16.7,20.9-32.5,18.5C337.5,100.3,320.3,86,313.2,89.3"/>
				<path id="Fill-8" class="st2" d="M433.4,84.2c14.2-6.8,32,11.1,30.6,26.3c7.3,1.9,9.4,9.5,8.9,16.6c18.5-6.2,58.3-1.5,46.7,27.7
					c24.9,2.4,36.6,7.2,38.1,33c9.1,0.4,20.6-4.9,27.6-2c4.6,1.9,32.8,18.6,36.7,22.5c-22.8,1.6-63.9,2.7-87.5,0.3
					c-24.9-2.5-51.1-3.5-76.2-8.2c-26.7-4.9-65.3-7.1-92-2.5c-41.1,7-70.2,36.1-113.6,31c-28.5-3.3-53.1-15.3-80.6-22.1
					c-24-5.9-48.8-1.9-72.4-7c14.2-7.3,31.6-7.2,46.9-11.8c16.7-4.9,31-12.8,46.3-20.6c16.8-8.5,29.4-15.6,41.4-30
					c7.7-9.2,13.8-18.6,24.5-24.4c27.6-14.8,47.6,2.2,73.5,8.2c13.7,3.3,46.2-0.8,52-16.6C406.4,103.3,415.6,103.2,433.4,84.2"/>
			</g>
		</g>
		<g id="Page-1_1_" transform="translate(1250.000000, 70.000000)">
			<g id="Group-3_1_">
				<g id="Clip-2_1_">
				</g>
				<path id="Fill-1_1_" class="st0" d="M249.4,152.3c50.6,3.6,102.5,20.3,150.9,4.9c9.8-3.2,19.4-7.6,29.5-9.8
					c15.5-3.5,31.5-2,47.3-0.8c54.8,4.2,109.8,4.1,164.5-0.4l-33.1-8c-6.9-1.6-14.9-4.1-17.6-10.8c-1.1-2.6-1.2-5.5-2.6-7.8
					c-4.4-7.5-15.8-3.2-22.8,1.8c-0.2-10.4-9.8-19.5-20-19.1c2.5-9.6-0.9-19.8-8.5-26.1c-7.6-6.2-18.1-7.4-26.9-3
					c4.2-5-2.7-14.2-8.5-11.4C499,51.3,485.3,45.2,476,50.5c0.1-15.7-10.1-31.1-24.6-36.8c-4.8-1.9-10.4-2.7-15.3-0.8
					s-8.7,7.3-7.6,12.5c-7.5-6.1-20.7-1.5-22.9,8c-0.6,2.2-0.6,4.7-1.9,6.6c-2.5,3.9-8,3.5-12.5,4.1s-9.8,4.9-7.5,8.8
					c-5.2-5.9-12.1-9.8-19.8-11c2-10.4-7.7-21.2-18.1-20.1c2.5-9.1-6-18.3-15.2-20C321.3,0,312,3.5,303.4,6.9
					c-2-11.8-9.1-22-19.3-27.7c-2.9-1.6-6.2-2.8-9.4-2.1s-6,4-5.2,7.3c-9-4.6-21.2-0.9-26.2,8c-5.2,8.8-2.3,21.3,5.9,27.2
					c-14.9-0.8-28.7,13.8-27.2,28.8c-6.6-1.3-13.2,1.6-16.7,7.5c-3.5,5.9-3,13.2,1.2,18.5c-15.9,0.9-30.7,9.1-40.1,22.2
					c-2.7,3.7-4.9,8.7-3.4,13c-9.1-1.1-18.6,4.7-22.1,13.3c-7.3-4.3-12.2-11.5-18-17.6c-5.9-6.1-13.6-11.5-21.9-10.4
					s-15.1,11.6-10.1,18.4c-8.7-0.2-16.7,7.7-16.7,16.5c-7.3,11.2-17.6,20-29.6,25.5c31.5-0.1,63.1,1.1,94.5,0.1
					C175.8,154,212.5,149.7,249.4,152.3"/>
			</g>
			<g id="Group-10_1_" transform="translate(148.000000, 10.000000)">
				<path id="Fill-4_1_" class="st1" d="M69.8,67.9c0-10.4-0.1-27.9,15.2-25.8c-5.3-18.7,11.2-28.8,28-28.1
					c-22.5-12.4-8.7-35.4,14.9-30c-1.5-10.2,10.3-3.3,13.7,0.1c5.5,5.5,8.2,13.5,11.7,20.3c13.7-4.2,22,9.6,23.1,21.2
					c1.5,16.7-4,35.1-16.6,46.4c-10.5,9.4-26.8,19.7-41.4,18.7c-13.2-0.8-10.4-8-19.2-15C91.5,69.8,71.7,68.6,69.8,67.9"/>
				<path id="Fill-6_1_" class="st1" d="M244.6,51.7c-2.5-9.9,15.9-9.6,20-16.2c2.8-4.4,0.4-8.8,5.2-12.4c4.2-3.2,11.2-2.2,15.7-1.4
					c3.9-22.7,26.8-1.4,32.3,7.8c11.6,19.7-11.9,28.9-27,18.1c-4,9.9-11.2,14-22,12.4C261,59,249.4,49.4,244.6,51.7"/>
				<path id="Fill-8_1_" class="st2" d="M325.6,48.3c9.6-4.6,21.5,7.5,20.6,17.7c4.9,1.3,6.3,6.4,6,11.1
					c12.5-4.1,39.3-1.1,31.5,18.6c16.9,1.6,24.6,4.8,25.6,22.1c6.2,0.2,13.9-3.4,18.6-1.4c3,1.3,22,12.5,24.7,15.1
					c-15.3,1.2-43.1,1.9-59,0.2c-16.9-1.6-34.4-2.3-51.4-5.5c-18-3.4-44-4.8-62-1.8c-27.6,4.7-47.3,24.3-76.6,20.8
					c-19.2-2.2-35.8-10.3-54.3-14.9c-16.3-4-32.9-1.3-48.7-4.7c9.6-4.9,21.3-4.8,31.6-7.8c11.2-3.4,20.8-8.7,31.3-13.8
					c11.4-5.7,19.8-10.4,27.9-20.3c5.3-6.2,9.4-12.5,16.5-16.4c18.6-9.9,32.1,1.4,49.5,5.6c9.1,2.2,31.1-0.5,35-11.1
					C307.4,61.2,313.6,61,325.6,48.3"/>
			</g>
		</g>
	</g>
</g>
</svg>
