<?xml version="1.0" encoding="UTF-8"?>
<svg width="2750px" height="300px" viewBox="0 0 2750 300" version="1.1" xmlns="http://www.w3.org/2000/svg" xmlns:xlink="http://www.w3.org/1999/xlink">
    <!-- Generator: Sketch 47.1 (45422) - http://www.bohemiancoding.com/sketch -->
    <title>cloud-smaller-background-02</title>
    <desc>Created with Sketch.</desc>
    <defs></defs>
    <g id="Page-1" stroke="none" stroke-width="1" fill="none" fill-rule="evenodd">
        <g id="cloud-smaller-background-02" fill-rule="nonzero">
            <g id="Asset-1" transform="translate(59.000000, 67.000000)">
                <g id="Layer_3" fill="#710045">
                    <path d="M27.2645012,37.72 C34.5800464,35.97 43.0440835,37.98 50.4153132,38.22 C61.900232,38.625 73.5382831,38.22 85.037123,38.22 C97.2529002,38.22 103.941995,36.31 114.61949,32.105 C119.387471,30.23 124.218097,28.53 129.459397,27.48 C135.535963,26.265 140.5058,27.635 145.851508,27.265 C149.756381,26.99 151.322506,25.315 155.018561,24.535 C160.517401,23.37 165.703016,25.795 170.916473,24.96 C174.160093,24.46 176.777262,22.96 180.438515,22.64 C182.269142,22.475 185.039443,23.825 186.431555,23.6 C189.306265,23.14 191.784223,20.26 194.401392,19.4 C197.296984,18.445 200.477958,18.4 203.617169,18.005 C203.728538,13.235 209.429234,11.225 214.364269,9.33 C215.867749,8.75 217.761021,9.71 219.236659,9.26 C222.257541,8.355 223.50348,5.88 227.665893,5.105 C234.487239,3.83 238.259861,6.605 243.341067,7.605 C248.276102,8.605 261.194896,4.405 260.477958,11.315 C269.415313,11.145 275.095128,13.97 283.12065,15.52 C286.99768,16.275 289.023202,15.52 294.097448,15.52 C299.951276,15.52 302.394432,17.57 306.62645,17.985 C313.030162,18.61 318.529002,15.335 325.802784,18.07 C326.081206,9 328.538283,12.255 338.046404,8.775 C340.468677,7.89 339.709977,6.7 342.013921,5.44 C348.090487,2.12 351.020882,3.405 357.403712,2.635 C361.412993,2.135 364.580046,0.285 369.034803,0.52 C374.00464,0.785 376.461717,3.71 380.116009,4.605 C385.684455,5.97 402.661253,3.905 400.809745,11.255 C409.907193,13 419.025522,14.595 423.605568,21.105 C427.962877,19.32 433.761021,16.365 439.00232,16.755 C443.610209,17.1 447.835267,20.41 452.415313,21.255 C456.417633,21.97 460.969838,21.055 464.825986,22.025 C467.150812,22.615 468.668213,24.47 470.846868,24.85 C476.512761,25.85 485.993039,23.975 492.320186,23.785 C499.698376,23.565 505.774942,23.515 513.201856,24.455 C527.958237,26.34 543.445476,24.455 558.445476,24.785 C572.418427,25.1274456 586.322912,26.3470926 600,28.43 C594.160093,28.36 589.350348,30.665 584.081206,32.185 C575.338747,34.685 566.679814,35.785 557.394432,36.685 C548.638051,37.5 538.7471,36.6 530.338747,38.21 C521.686775,39.86 515.37355,42.48 505.781903,42.945 C510.034803,50.035 486.828306,50.565 482.116009,52.56 C475.698376,55.26 470.756381,62.025 463.399072,65.06 C455.185615,68.43 445.232019,68.06 436.190255,67.44 C432.445476,67.18 431.881671,66.625 428.290023,66.77 C422.338747,67.005 417.034803,69.15 410.972158,67.77 C410.805523,67.3047422 410.770025,66.8202524 410.867749,66.345 C400.7471,66.765 397.524362,64.845 390.758701,60.62 C387.849188,58.8 383.756381,57.56 384.911833,53.49 C376.788863,52.49 374.540603,53.3 367.795824,50.11 C366.911833,55.11 356.074246,56.61 350.324826,58.345 C354.076566,63.69 345.452436,66.845 339.285383,67.71 C344.784223,75.745 327.591647,77.31 321.243619,78.35 C313.698376,79.59 291.696056,87.63 289.461717,77.505 C285.932715,77.74 265.962877,77.825 272.102088,71.135 C262.802784,72.595 251.317865,74.4 247.837587,66.545 C240.821346,67.975 227.394432,71.895 220.851508,68.59 C220.568557,67.7218425 220.685808,66.8111546 221.185615,65.995 C215.49884,67.465 193.531323,74.855 192.111369,66.185 C185.944316,67.145 168.800464,69.92 170.422274,61.685 C167.857378,61.4803815 165.274802,61.4135292 162.696056,61.485 C162.772622,60.705 162.041763,59.79 162.299304,58.84 C153.946636,62.165 145.830626,64.3 136.705336,60.045 C134.276102,58.915 132.146172,55 130.524362,54.365 C127.740139,53.265 124.440835,54.975 121.329466,55.09 C116.728538,55.265 112.517401,54.545 108.800464,52.59 C97.8932715,57.985 92.2204176,56 81.9466357,52.895 C75.7656613,51.025 72.2018561,52.155 65.7285383,52.485 C58.5104408,52.86 55.4756381,50.105 49.0719258,48.89 C33.5011601,45.89 15.7587007,46.5 0,44.075 C4.17633411,43.11 24.9396752,38.165 27.2645012,37.72 Z" id="Shape"></path>
                </g>
                <g id="Layer_4" transform="translate(120.000000, 5.000000)">
                    <path d="M14.4202247,43.175 C14.7058427,53.535 36.5660674,51.365 45.4132584,48.13 C46.1586517,51.21 51.5993258,49.9 55.0755056,49.765 C54.3370787,53.43 56.6359551,54.945 61.1292135,56.025 C66.1937079,57.24 68.652809,56.065 73.3411236,55.115 C80.3910112,53.68 75.2498876,54.46 80.3074157,56.01 C89.1824719,58.74 95.9397753,56.51 104.424719,54.385 C112.477753,52.355 121.422472,54.175 130.408989,51.885 C127.573708,59.935 142.948315,57.15 148.660674,57.555 C152.840449,57.855 155.842921,58.775 160.245618,59.245 C156.065843,63.745 161.68764,66.16 167.58809,67.135 C171.733034,67.82 175.508764,66.715 179.430787,67.085 C182.482022,67.375 184.307191,69.045 188.605393,68.9 C195.453258,68.665 202.454382,66.22 208.340899,64.49 C211.385169,63.595 212.221124,65.42 213.551685,61.905 C213.774607,61.32 211.900674,58.87 211.691685,58.075 C216.979101,57.41 217.794157,53.71 220.016404,51.86 C221.737079,50.43 225.422247,51.465 224.509663,47.575 C226.365673,47.7468916 228.252029,47.5995031 230.013034,47.145 C231.580449,46.68 231.82427,45.23 233.196629,44.79 C235.070562,44.185 237.062921,44.855 239.013483,44.415 C240.448539,44.085 252.667416,40.835 252.980899,40.135 C253.879551,38 247.150112,34.685 245.213483,34.095 C237.313708,31.745 228.870562,36.645 220.211461,35.27 C218.079775,40.27 209.594831,40.115 203.715281,41.045 C199.026966,41.785 195.54382,43.925 190.562921,43.77 C185.965169,43.63 182.684045,41.64 178.462472,40.97 C171.55191,39.865 164.320899,40.375 157.340674,38.84 C151.384494,37.53 142.147191,34.55 136.15618,35.73 C134.156854,36.12 132.352584,38.07 130.638876,38.3 C128.925169,38.53 127.66427,37.325 126.041124,37.45 C120.391461,37.885 120.14764,39.19 115.145843,41 C103.797753,45.095 95.4382022,37.695 84.5080899,38.345 C79.4575281,38.645 78.6982022,38.765 74.3024719,38.51 C69.4678652,38.23 67.4894382,37.01 62.7244944,38.08 C59.2413483,38.86 60.711236,39.615 57.6321348,39.995 C54.845618,40.34 50.5125843,39.65 47.3429213,39.91 C42.6894382,40.295 39.3386517,39.855 34.7408989,39.76 C28.4294382,39.63 23.9779775,42.67 17.478427,42.34 C18.4885393,42.215 19.505618,42.055 14.4202247,43.175 Z" id="Shape" fill="#660242"></path>
                    <path d="M268.675955,41.435 C272.31236,43.9 269.7,48.16 273.977303,51.125 C279.898652,55.235 288.92,55.125 296.54809,55.44 C296.408764,56.055 296.771011,56.855 296.631685,57.48 C301.180674,57.98 303.8,55.33 307.638427,55.025 C310.348315,54.815 314.71618,55.8 317.767416,55.81 C328.216854,55.81 336.235056,55.535 345.228539,51.2 C351.003596,48.41 352.59191,42.955 358.764045,40.815 C366.963371,37.97 377.315281,40.76 379.231011,32.78 C383.355056,32.905 386.893933,30.78 390.73236,30.005 C394.382697,29.24 397.824045,28.585 401.481348,27.755 C411.673034,25.455 424.400449,26.135 433.839775,23.575 C426.964045,19.625 409.137303,21.685 401.293258,23.345 C391.631011,25.39 383.633708,24.845 373.553483,25.345 C369.213483,25.53 365.437753,27.5 361.550562,27.465 C357.49618,27.44 354.333483,24.465 349.930787,26.465 C342.421124,22.2 336.973483,28.58 332.556854,31.57 C329.631011,33.57 330.383371,33.81 325.12382,33.935 C320.247416,34.05 315.371011,32.555 313.483146,37.04 C305.353483,32.265 288.230337,30.29 286.231011,40.095 C280.741573,37.42 275.670112,39.19 268.675955,41.435 Z" id="Shape" fill="#660242"></path>
                    <path d="M0.466741573,31.42 C1.99932584,28.3 10.7420225,26.305 15.0959551,25.735 C18.0496629,25.345 21.7348315,25.735 24.7721348,25.735 C30.1292135,25.76 28.8822472,25.185 33.5496629,23.59 C39.6869663,21.495 44.5982022,24.09 50.6379775,23.915 C53.5080899,23.83 54.4833708,22.635 57.088764,22.125 C61.0386517,21.35 62.4597753,21.995 66.3678652,22.475 C73.3341573,23.33 73.5570787,20.88 79.4296629,19.185 C81.4359551,18.605 84.5986517,19.41 86.3959551,18.685 C87.2110112,18.36 86.6397753,17.445 87.6011236,17.04 C91.3350562,15.47 93.9404494,14.18 98.1411236,13.04 C97.5559551,6.8 104.584944,4.24 112.770337,5.16 C115.340899,5.45 117.221798,6.495 119.47191,6.58 C122.913258,6.71 126.194382,5.005 129.921348,5.89 C135.10427,7.11 137.674831,11.275 143.853933,12.28 C151.217303,13.49 157.089888,12.335 163.275955,16.09 C166.703371,15.41 171.579775,14.53 175.08382,15.34 C177.07618,15.795 178.950112,17.655 180.761348,17.915 C184.028539,18.415 190.075281,17.12 193.035955,16.915 C196.665393,16.695 199.925618,17.415 203.199775,17.45 C207.045169,17.485 210.270562,16.15 214.108989,16.5 C213.969663,13.62 216.32427,9.42 220.740899,9.105 C220.197528,6.24 222.315281,4.675 225.617303,3.455 C228.872049,2.43347723 232.213193,1.56008211 235.620899,0.84 C240.337079,-0.12 253.593933,0.545 256.770562,3.91 C262.761573,2.28 270.473258,2.275 272.995056,7.3 C277.808764,7.875 281.96764,8.84 281.556629,12.97 C288.620449,13.03 289.358876,14.4 293.552584,17.52 C296.624719,19.815 295.266292,19.59 300.658202,20.33 C308.321124,21.385 314.932135,20.62 322.615955,19.565 C319.627416,21.87 315.921348,22.735 311.741573,23.095 C305.862022,23.595 301.361798,24.385 295.628539,25.175 C284.482472,26.72 276.868315,16.89 263.994607,22.135 C256.477978,25.195 253.238652,26.815 243.980449,24.915 C236.777303,23.44 230.702697,24.26 223.778202,26.21 C216.421798,28.285 207.275056,31.84 199.02,31.41 C196.10809,31.255 194.143596,30.115 191.357079,30.025 C186.522472,29.865 182.300899,32.11 177.424494,31.21 C177.298049,30.6366821 177.116492,30.0703299 176.881124,29.515 C170.625393,30.94 161.617978,30.53 156.421124,27.5 C154.393933,26.33 154.979101,23.895 151.746742,23.125 C147.741124,22.17 137.814157,24.435 133.515955,24.455 C134.742022,31.495 116.566966,27.655 111.97618,29.2 C109.008539,30.2 108.548764,32.75 104.584944,33.7 C100.022022,34.8 96.4692135,33.765 92.1361798,32.64 C78.4752809,29.105 66.1310112,31.615 51.8222472,30.975 C46.1168539,30.72 40.634382,32.215 35.1449438,31.8 C31.9683146,31.565 29.2723596,30.3 25.754382,30.105 C18.4467416,29.67 8.82629213,28.815 0.466741573,31.42 Z" id="Shape" fill="#7F0453"></path>
                </g>
            </g>
            <g id="Asset-1" transform="translate(659.000000, 150.000000)">
                <g id="Layer_3" fill="#710045">
                    <path d="M23.3111485,32.266506 C29.5659397,30.7695181 36.8026914,32.4889157 43.1050928,32.6942169 C52.9246984,33.0406627 62.875232,32.6942169 72.7067401,32.6942169 C83.1512297,32.6942169 88.870406,31.0603614 97.9996636,27.4633133 C102.076288,25.8593976 106.206473,24.4051807 110.687784,23.506988 C115.883248,22.4676506 120.132459,23.6395783 124.703039,23.3230723 C128.041705,23.0878313 129.380742,21.655 132.54087,20.9877711 C137.242378,19.9912048 141.676079,22.0656024 146.133585,21.3513253 C148.906879,20.9236145 151.144559,19.6404819 154.27493,19.366747 C155.840116,19.2256024 158.208724,20.3804217 159.398979,20.1879518 C161.856856,19.7944578 163.97551,17.3308434 166.21319,16.5951807 C168.688921,15.778253 171.408654,15.739759 174.09268,15.4018675 C174.1879,11.321506 179.061995,9.60210843 183.28145,7.98108434 C184.566926,7.48493976 186.185673,8.30614458 187.447343,7.92120482 C190.030197,7.14704819 191.095476,5.02987952 194.654339,4.36692771 C200.486589,3.27626506 203.712181,5.65006024 208.056613,6.50548193 C212.276067,7.36090361 223.321636,3.76813253 222.708654,9.67909639 C230.350093,9.5336747 235.206334,11.950241 242.068155,13.2761446 C245.383016,13.921988 247.114838,13.2761446 251.453318,13.2761446 C256.458341,13.2761446 258.547239,15.029759 262.165615,15.384759 C267.640789,15.9193976 272.342297,13.1178916 278.561381,15.4574699 C278.799432,7.69879518 280.900232,10.4831928 289.029675,7.5063253 C291.100719,6.74927711 290.45203,5.7313253 292.421903,4.65349398 C297.617367,1.81349398 300.122854,2.91271084 305.580174,2.25403614 C309.008109,1.8263253 311.71594,0.243795181 315.524756,0.444819277 C319.773968,0.671506024 321.874768,3.17361446 324.999188,3.93921687 C329.760209,5.10686747 344.275371,3.34042169 342.692332,9.62777108 C350.47065,11.1204819 358.266821,12.4848795 362.182761,18.0536747 C365.90826,16.526747 370.865673,13.9989759 375.346984,14.3325904 C379.286729,14.6277108 382.899153,17.4591566 386.815093,18.181988 C390.237077,18.7936145 394.129211,18.0109036 397.426218,18.8406627 C399.413944,19.3453614 400.711323,20.9321687 402.574072,21.2572289 C407.418411,22.1126506 415.524049,20.5087349 420.933759,20.3462048 C427.242111,20.158012 432.437575,20.115241 438.787587,20.9193373 C451.404292,22.5318072 464.645882,20.9193373 477.470882,21.2016265 C489.417755,21.4945619 501.30609,22.5378744 513,24.3196386 C508.006879,24.259759 503.894548,26.231506 499.389432,27.531747 C491.914629,29.6703012 484.511241,30.6112651 476.572239,31.3811446 C469.085534,32.0783133 460.62877,31.3084337 453.439629,32.6856627 C446.042193,34.0971084 440.644385,36.3383133 432.443527,36.7360843 C436.079756,42.8010241 416.238202,43.2543976 412.209188,44.9609639 C406.722111,47.2706024 402.496705,53.0575301 396.206206,55.6537349 C389.183701,58.536506 380.673376,58.22 372.942668,57.6896386 C369.740882,57.4672289 369.258828,56.9924699 366.18797,57.116506 C361.099629,57.3175301 356.564756,59.1524096 351.381195,57.9719277 C351.238722,57.5739361 351.208371,57.159493 351.291926,56.7529518 C342.63877,57.1122289 339.883329,55.4698193 334.098689,51.8556627 C331.611056,50.2987952 328.111705,49.2380723 329.099617,45.756506 C322.154478,44.9010843 320.232216,45.5939759 314.465429,42.8651807 C313.709617,47.1422892 304.44348,48.4254217 299.527726,49.9095783 C302.735464,54.4818072 295.361833,57.1806627 290.089002,57.9206024 C294.79051,64.7939157 280.090858,66.1326506 274.663295,67.0222892 C268.212111,68.083012 249.400128,74.9606024 247.489768,66.2994578 C244.472471,66.5004819 227.39826,66.5731928 232.647285,60.8504217 C224.696381,62.0993373 214.876775,63.6433735 211.901137,56.9240361 C205.902251,58.1472892 194.422239,61.5005422 188.828039,58.6733735 C188.586116,57.9307327 188.686366,57.1517106 189.113701,56.4535542 C184.251508,57.7110241 165.469281,64.0325904 164.25522,56.6160843 C158.98239,57.4372892 144.324397,59.8110843 145.711044,52.7666867 C143.518058,52.5916516 141.309956,52.5344648 139.105128,52.5956024 C139.170592,51.9283735 138.545708,51.1456627 138.765905,50.333012 C131.624374,53.1772892 124.685186,55.0036145 116.883063,51.3637952 C114.806067,50.3971687 112.984977,47.0481928 111.598329,46.505 C109.217819,45.5640361 106.396914,47.0268072 103.736694,47.1251807 C99.8029002,47.2748795 96.2023782,46.6589759 93.0243968,44.9866265 C83.6987471,49.6016265 78.8484571,47.9036145 70.0643735,45.2475301 C64.7796404,43.6478916 61.732587,44.6145181 56.1979002,44.8968072 C50.0264269,45.2175904 47.4316705,42.8609036 41.9564965,41.8215663 C28.6434919,39.2553012 13.4736891,39.7771084 0,37.7027108 C3.57076566,36.8772289 21.3234223,32.6471687 23.3111485,32.266506 Z" id="Shape"></path>
                </g>
                <g id="Layer_4" transform="translate(103.000000, 4.000000)">
                    <path d="M12.3269663,36.9177536 C12.5711236,45.7763043 31.2580899,43.9207971 38.8210112,41.1546377 C39.4582022,43.7882609 44.1091011,42.6681159 47.0806742,42.5526812 C46.4494382,45.6865217 48.4146067,46.9819565 52.255618,47.9054348 C56.5849438,48.9443478 58.6870787,47.9396377 62.6948315,47.1273188 C68.7213483,45.9002899 64.3265169,46.5672464 68.6498876,47.8926087 C76.2366292,50.2269565 82.0130337,48.3201449 89.2662921,46.5031159 C96.1503371,44.7673188 103.796629,46.3235507 111.478652,44.3654348 C109.054944,51.2487681 122.197753,48.8673913 127.080899,49.2136957 C130.653933,49.4702174 133.220562,50.2568841 136.984157,50.6587681 C133.411124,54.5065942 138.216854,56.5715942 143.260787,57.4052899 C146.804045,57.9910145 150.031685,57.0461594 153.384382,57.3625362 C155.992697,57.6105072 157.552921,59.0384783 161.227191,58.9144928 C167.081011,58.7135507 173.065843,56.6228986 178.097865,55.1436232 C180.700225,54.3783333 181.414831,55.9388406 182.552247,52.9332609 C182.742809,52.4330435 181.140899,50.3381159 180.962247,49.6583333 C185.482135,49.0897101 186.178876,45.925942 188.078539,44.344058 C189.549438,43.1213043 192.699663,44.0063043 191.919551,40.6800725 C193.50614,40.8270522 195.11867,40.7010244 196.624045,40.3123913 C197.963933,39.9147826 198.17236,38.6749275 199.345506,38.2986957 C200.947416,37.7813768 202.650562,38.3542754 204.317978,37.9780435 C205.544719,37.6958696 215.989888,34.9168841 216.257865,34.3183333 C217.026067,32.4927536 211.273483,29.6581884 209.617978,29.1536957 C202.864944,27.1442754 195.647416,31.3341304 188.245281,30.1584058 C186.423034,34.4337681 179.169775,34.3012319 174.143708,35.0964493 C170.135955,35.7292029 167.158427,37.559058 162.900562,37.4265217 C158.970225,37.3068116 156.165393,35.6052174 152.556629,35.0323188 C146.649213,34.0874638 140.467865,34.5235507 134.500899,33.2110145 C129.409326,32.0908696 121.512921,29.5427536 116.391573,30.5517391 C114.682472,30.8852174 113.140112,32.5526087 111.675169,32.7492754 C110.210225,32.945942 109.13236,31.9155797 107.744831,32.0224638 C102.915281,32.3944203 102.706854,33.5102899 98.4311236,35.057971 C88.7303371,38.5594928 81.5842697,32.2319565 72.2407865,32.7877536 C67.9233708,33.0442754 67.2742697,33.1468841 63.5166292,32.9288406 C59.3838202,32.6894203 57.6925843,31.6462319 53.6193258,32.5611594 C50.6417978,33.2281159 51.8983146,33.8736957 49.2661798,34.1986232 C46.8841573,34.4936232 43.1801124,33.9036232 40.4705618,34.125942 C36.4925843,34.4551449 33.6282022,34.078913 29.6978652,33.9976812 C24.3025843,33.8865217 20.4973034,36.485942 14.941236,36.2037681 C15.8047191,36.0968841 16.6741573,35.9600725 12.3269663,36.9177536 Z" id="Shape" fill="#660242"></path>
                    <path d="M229.674607,35.4299275 C232.783146,37.5376812 230.55,41.1802899 234.206404,43.7155797 C239.268202,47.2299275 246.98,47.1358696 253.500787,47.4052174 C253.381685,47.931087 253.691348,48.6151449 253.572247,49.1495652 C257.460899,49.5771014 259.7,47.3111594 262.981236,47.0503623 C265.297753,46.8707971 269.031573,47.7130435 271.639888,47.7215942 C280.572472,47.7215942 287.426742,47.4864493 295.114719,43.7797101 C300.051461,41.394058 301.409213,36.7296377 306.685393,34.8997826 C313.694494,32.4671014 322.543708,34.8527536 324.181348,28.0292754 C327.706742,28.1361594 330.73191,26.3191304 334.013146,25.6564493 C337.133596,25.0023188 340.075393,24.4422464 343.201798,23.7325362 C351.914045,21.7658696 362.793933,22.3473188 370.863034,20.1583333 C364.985393,16.7807971 349.746404,18.5422464 343.041011,19.9616667 C334.781348,21.7102899 327.944944,21.2442754 319.327978,21.6718116 C315.617978,21.83 312.390337,23.5144928 309.067416,23.4845652 C305.601573,23.4631884 302.897978,20.9193478 299.134382,22.6294928 C292.714831,18.9826087 288.057978,24.437971 284.282472,26.9946377 C281.781348,28.7047826 282.424494,28.91 277.928427,29.0168841 C273.759888,29.1152174 269.591348,27.8368841 267.977528,31.6718841 C261.027978,27.588913 246.390449,25.9001449 244.681348,34.2841304 C239.988764,31.9968116 235.653483,33.5102899 229.674607,35.4299275 Z" id="Shape" fill="#660242"></path>
                    <path d="M0.398988764,26.8663768 C1.70910112,24.1985507 9.18269663,22.4926812 12.9046067,22.0052899 C15.4295506,21.6718116 18.5797753,22.0052899 21.1761798,22.0052899 C25.755618,22.0266667 24.6896629,21.535 28.6795506,20.1711594 C33.9259551,18.3797826 38.1242697,20.5986957 43.2873034,20.449058 C45.7407865,20.3763768 46.5744944,19.3545652 48.8016854,18.9184783 C52.1782022,18.2557971 53.3930337,18.8073188 56.7338202,19.2177536 C62.6888764,19.9488406 62.8794382,17.853913 67.8995506,16.4045652 C69.6146067,15.9086232 72.3182022,16.5969565 73.8546067,15.977029 C74.5513483,15.6991304 74.0630337,14.9167391 74.8848315,14.5704348 C78.0767416,13.227971 80.3039326,12.1249275 83.8948315,11.1501449 C83.3946067,5.81449275 89.4032584,3.62550725 96.4004494,4.41217391 C98.5978652,4.66014493 100.20573,5.55369565 102.129213,5.62637681 C105.071011,5.73753623 107.875843,4.27963768 111.061798,5.03637681 C115.49236,6.07956522 117.689775,9.64094203 122.97191,10.5002899 C129.266404,11.5349275 134.286517,10.5473188 139.574607,13.7581159 C142.504494,13.1766667 146.673034,12.4242029 149.668427,13.1168116 C151.371573,13.5058696 152.973483,15.0963043 154.521798,15.3186232 C157.314719,15.7461594 162.483708,14.6388406 165.014607,14.4635507 C168.117191,14.2754348 170.904157,14.891087 173.703034,14.9210145 C176.990225,14.950942 179.747416,13.8094203 183.028652,14.1086957 C182.909551,11.646087 184.92236,8.05478261 188.697865,7.78543478 C188.233371,5.33565217 190.043708,3.99746377 192.866404,2.95427536 C195.648687,2.08079937 198.504826,1.33398325 201.417865,0.71826087 C205.449438,-0.102608696 216.78191,0.466014493 219.497416,3.34333333 C224.618764,1.94956522 231.211011,1.94528986 233.366742,6.24202899 C237.481685,6.73369565 241.036854,7.55884058 240.685506,11.0902899 C246.723933,11.1415942 247.355169,12.3130435 250.940112,14.9808696 C253.566292,16.9432609 252.405056,16.7508696 257.01427,17.3836232 C263.564831,18.2857246 269.21618,17.6315942 275.784607,16.7294928 C273.229888,18.7004348 270.061798,19.4400725 266.488764,19.7478986 C261.462697,20.1754348 257.61573,20.850942 252.714719,21.5264493 C243.186629,22.8475362 236.677753,14.4421739 225.672809,18.927029 C219.247303,21.5435507 216.478202,22.9287681 208.563933,21.3041304 C202.406404,20.0428986 197.213596,20.744058 191.29427,22.4114493 C185.00573,24.1857246 177.186742,27.2255072 170.13,26.8578261 C167.640787,26.7252899 165.961461,25.7505072 163.579438,25.6735507 C159.446629,25.5367391 155.837865,27.4563768 151.669326,26.6868116 C151.561235,26.1965833 151.406033,25.7123111 151.204831,25.2374638 C145.857191,26.455942 138.157303,26.1053623 133.714831,23.5144928 C131.98191,22.514058 132.482135,20.4319565 129.718989,19.7735507 C126.294831,18.9569565 117.808876,20.8936957 114.134607,20.9107971 C115.182697,26.9305072 99.6459551,23.647029 95.721573,24.9681159 C93.1847191,25.8231884 92.7916854,28.0036232 89.4032584,28.815942 C85.5026966,29.7565217 82.465618,28.8715217 78.761573,27.9095652 C67.0837079,24.8868841 56.5313483,27.0331159 44.2996629,26.4858696 C39.4224719,26.2678261 34.7358427,27.5461594 30.0432584,27.1913043 C27.3277528,26.9903623 25.0231461,25.9086957 22.0158427,25.7419565 C15.7689888,25.37 7.54505618,24.638913 0.398988764,26.8663768 Z" id="Shape" fill="#7F0453"></path>
                </g>
            </g>
        </g>
    </g>
</svg>