<?xml version="1.0" encoding="UTF-8"?>
<svg width="2200px" height="300px" viewBox="0 0 2200 300" version="1.1" xmlns="http://www.w3.org/2000/svg" xmlns:xlink="http://www.w3.org/1999/xlink">
    <!-- Generator: Sketch 47.1 (45422) - http://www.bohemiancoding.com/sketch -->
    <title>cloud-smaller-background-01</title>
    <desc>Created with Sketch.</desc>
    <defs></defs>
    <g id="Page-1" stroke="none" stroke-width="1" fill="none" fill-rule="evenodd">
        <g id="cloud-smaller-background-01">
            <g id="Page-1" transform="translate(630.000000, 56.000000)">
                <g id="Group-3" fill="#710045">
                    <path d="M48.1985151,42.6203313 C62.4988114,43.8551024 80.3386179,36.8173554 93.9478803,32.8542108 C99.3923724,31.2687289 108.420794,20.1283373 112.041272,30.0709337 C115.015135,27.590747 118.802046,26.1867831 122.730649,26.2837048 C121.77366,22.0998253 125.158545,20.5933373 128.760468,20.860012 C124.009821,13.7303855 137.109102,11.9118434 141.805208,12.1493855 C140.946054,7.3906988 147.819283,3.47853614 151.242403,6.72289157 C157.772644,4.25503012 162.201109,3.00625301 169.633799,3.00625301 C175.968932,3.00625301 182.134259,3.31830723 188.047687,1.80005422 C196.120807,-0.272837349 203.736798,-0.647638554 211.466931,3.56201205 C216.251314,6.16881325 221.492826,10.9661566 215.974114,15.933253 C222.191169,15.4592892 226.172064,14.5399337 225.115553,22.8886446 C227.595178,21.9166265 243.288787,19.8482169 236.700631,26.3447711 C239.244356,19.8280482 250.930081,16.5993795 256.321719,21.3524639 C255.855595,15.2956988 256.976206,9.08542771 264.365039,9.98965663 C265.325401,4.07407229 273.085897,4.36595783 277.86016,4.60574096 C282.789609,4.85392771 285.657765,7.95037952 289.742681,8.99466867 C296.349954,10.6837952 312.511937,7.13298795 310.043557,20.3277831 C316.567614,20.690259 328.158316,17.5680361 331.478539,25.2399759 C336.199386,25.3167289 351.099628,23.5626145 349.970583,32.2648373 C356.455281,31.8026386 360.91467,30.6703916 367.333582,32.1892048 C370.058358,32.8340422 371.976272,33.7444337 375.363969,33.4144518 C384.100571,32.5628855 388.478993,32.2188976 397.108201,34.8604337 C418.630897,41.4511084 444.407191,36.8392048 464.808715,46.7874036 C451.69594,56.2504337 434.132771,55.1439578 418.542058,56.5961024 C401.461883,58.187747 385.42866,60.9671024 369.088999,65.4142952 C373.646224,65.3806807 378.64652,68.1090542 376.591411,73.5725241 C374.11516,80.1564759 361.081103,81.1783554 355.424634,81.7419578 C352.41366,99.1234337 327.679259,92.1293855 317.239531,88.4973434 C310.234168,86.0597349 303.69999,90.4453012 296.931345,89.2956867 C290.987554,88.2866928 294.545619,85.8305964 290.740716,82.7363855 C284.26389,77.4706807 265.498019,81.918994 257.958497,82.1884699 C243.83363,82.693247 229.928612,84.8669819 215.725027,84.9465361 C206.890027,84.9958373 197.488817,85.5801687 188.730849,84.3252289 C181.679942,83.3156747 175.117088,79.963753 167.970033,79.2208735 C163.120426,78.7172169 161.074313,79.9884036 156.394513,81.3111325 C153.352052,82.1705422 146.662125,83.9756386 143.508896,82.6501084 C141.001157,81.5957349 139.756284,78.7379458 137.009579,77.699259 C129.488612,74.8549157 117.97944,81.3251386 111.913636,76.5272349 C110.667638,75.5417711 110.560244,73.0862349 108.979132,71.9147711 C107.026919,70.4693494 103.348527,70.4396566 101.072445,70.2575783 C97.0898634,69.9388012 93.8702866,70.3925964 90.1199238,68.8155181 C86.8626747,67.4451687 83.8595732,64.3896145 80.3358065,63.3234759 C71.7065985,60.712753 60.8367316,61.2954036 51.8358609,60.540759 C48.3840653,60.2516747 44.0950447,59.2034639 40.6640532,59.3463253 C31.6806131,59.7205663 24.8399964,63.9868012 23.610867,51.7539398 C17.2583035,51.8811145 6.67800726,55.2358373 0.744899637,52.3690843 C-6.91438694,48.6686928 46.9817557,41.9301145 48.1985151,42.6203313" id="Fill-1"></path>
                </g>
                <g id="Group-10" transform="translate(31.000000, 5.000000)">
                    <path d="M0.407839488,42.8188531 C8.37467507,49.6530844 25.7684082,44.8328735 34.6586009,41.8087374 C43.5622815,38.780649 52.7008759,36.6192612 61.5365551,33.6973224 C67.6482465,31.6765265 70.8521778,27.8534449 76.7120956,28.8488803 C81.0714877,29.5891048 80.9973044,30.236166 85.4842694,28.6066558 C90.3387788,26.8438939 94.5818381,25.3086762 99.9241589,24.5486898 C99.9505726,18.4281456 108.760962,17.9154653 104.963565,12.1054653 C107.835357,10.2766422 115.462748,5.99790748 117.575286,9.77412517 C122.627055,9.65555374 127.966566,6.56479184 132.733404,5.17185986 C140.088228,3.0234585 147.866233,3.91500272 155.446978,2.31485306 C162.332536,0.860376871 188.259034,-3.9812898 179.200242,11.4764721 C188.293877,10.1812204 190.1035,22.8169823 184.672384,27.9172476 C180.640073,31.7047578 172.006149,32.892166 166.866147,32.5951728 C161.889685,32.3072136 160.470648,30.9171048 156.57153,32.7476218 C154.946803,33.5104313 154.027942,35.4939619 152.53416,36.4752816 C148.103957,39.384234 142.539648,39.9268395 137.363116,40.5812408 C133.631472,41.053268 129.329403,41.9058531 125.788837,40.0296014 C123.490279,38.8111388 122.847357,35.9055741 121.081008,34.9378054 C117.502226,32.9774245 111.393907,33.0474381 107.268866,33.6131932 C106.11172,33.7724177 106.265144,32.3873905 104.660087,32.7617374 C103.196654,33.1033361 100.214148,36.3877646 98.6135875,37.147751 C92.7620996,39.9228871 84.1118786,41.4016422 77.7731414,40.5846286 C73.7217222,40.061785 70.4222519,37.7513361 66.1421009,38.3588735 C62.4649702,38.8800231 57.2878759,41.0154381 53.8788166,42.5054857 C45.604008,46.1224789 39.3950915,48.0534993 30.3722681,48.5012476 C21.1392586,48.9602884 9.40200121,51.5033633 0.407839488,42.8188531" id="Fill-4" fill="#7F0453"></path>
                    <path d="M211.381908,32.0220211 C207.0124,28.7150075 210.751912,23.1613476 214.56336,21.2890483 C219.717974,18.757266 223.454677,20.7215993 228.26535,22.7288442 C227.836549,16.5710347 231.372057,6.91932041 239.011811,7.53024558 C239.089929,6.66128639 239.698569,5.74264014 239.761512,4.81608912 C243.388625,3.91494626 248.98834,3.33902789 252.573303,4.85787143 C256.463992,6.50544966 257.630693,9.41891905 262.72686,9.33366054 C267.377365,9.25687143 278.311532,7.46531361 274.226394,17.1616333 C283.166042,17.6940755 298.002137,14.7360007 298.492197,27.7799871 C298.998554,41.2604293 274.316313,46.995334 268.394575,35.0534973 C263.309086,37.1928646 260.180462,42.9029259 254.749908,44.4375789 C244.062457,47.4588918 236.253542,39.1758306 230.697663,31.8729599 C224.209997,34.7429531 217.717274,41.9854088 211.381908,32.0220211" id="Fill-6" fill="#7F0453"></path>
                    <path d="M83.546793,67.8161946 C89.5680032,73.9118952 101.012461,66.0816639 107.868234,67.2476163 C112.009572,67.9522694 112.742413,71.5562762 116.297029,72.8170857 C123.460774,75.357902 131.065685,67.1222694 138.318788,66.6666163 C144.971118,66.2487932 151.118777,68.7252422 157.227658,71.0848136 C163.197727,73.3913102 168.826665,73.722181 175.704355,74.0660381 C191.037254,74.8328 207.93306,76.1483782 223.138948,74.648732 C234.481685,73.5296435 250.254064,66.9822422 261.273654,71.0859429 C265.583591,72.6911741 265.932027,76.9484531 269.393914,78.9240789 C274.315301,81.7325279 280.027414,76.6627524 285.513606,77.4633918 C293.791786,78.6716912 301.466947,85.2450653 310.894968,82.0340381 C315.017761,80.629249 316.639677,76.6475075 319.944767,74.6193714 C323.863556,72.2140653 329.593091,72.688351 332.699797,68.6676503 C334.503238,66.3340517 333.505135,63.8406639 334.668464,61.5076299 C335.822801,59.1926639 339.814087,56.0042218 342.443098,54.8450449 C350.300906,51.3821946 361.920145,52.0749905 370.34051,51.3234735 C377.62677,50.6730245 385.160308,50.1580857 392.401608,49.0796503 C399.511964,48.0204122 410.678235,47.9249905 416.673594,44.6733102 C404.469319,40.3973986 390.432379,43.4520245 377.622274,41.5345551 C370.919926,40.5317796 364.690216,38.6634327 357.900197,38.1417184 C353.749867,37.823834 350.486926,38.6566571 346.564766,38.797249 C343.062978,38.9225959 339.889394,37.8560177 335.934638,37.6747728 C323.843886,37.1197456 318.954533,45.4067592 307.484785,47.3716571 C305.628517,47.6895415 303.700313,46.8928544 301.990726,47.9865347 C301.188759,48.499215 301.561924,50.4471741 300.829645,51.0614871 C298.228172,53.2426367 296.310646,54.6733986 292.94767,56.0917388 C284.077147,59.8340789 279.622216,56.0623782 272.607399,50.7125483 C257.745452,57.5219361 249.725227,55.9754259 235.242064,49.7125959 C228.965708,58.0696231 216.989603,54.6733986 208.994668,52.6271946 C201.407178,50.684317 196.111503,51.6927388 188.701604,53.7948408 C178.806565,56.6015959 171.438816,54.5345007 161.683151,53.1415687 C153.245926,51.9366571 144.654153,50.2896435 136.721599,54.1505551 C129.712402,57.5614599 124.959614,62.1479156 116.862395,61.5917592 C111.543678,61.2264463 107.792364,59.6178272 102.338769,61.6804054 C96.6564412,63.8293714 92.6280639,66.8354395 86.2848307,67.3458612 C87.6459817,66.9737728 88.9958927,66.5615959 83.546793,67.8161946" id="Fill-8" fill="#660242"></path>
                </g>
            </g>
            <g id="Page-1" transform="translate(958.000000, 150.000000)">
                <g id="Group-3" fill="#710045">
                    <path d="M37.9368958,33.5521757 C49.1926128,34.5242296 63.234267,28.9838755 73.9460735,25.8639532 C78.2314157,24.6158079 85.3376576,15.8457124 88.1873238,23.6728627 C90.5280421,21.7203753 93.5087071,20.6151271 96.6008982,20.6914272 C95.8476551,17.3977348 98.5118873,16.2117762 101.346949,16.4217116 C97.6077301,10.8090269 107.918132,9.37740861 111.614422,9.56440989 C110.938185,5.81820969 116.348081,2.73842207 119.042407,5.29248911 C124.18234,3.34970456 127.66797,2.36662471 133.518216,2.36662471 C138.504579,2.36662471 143.357288,2.61228441 148.011728,1.41706396 C154.366054,-0.21478685 160.360577,-0.509843117 166.444939,2.80413714 C170.210712,4.85629979 174.336289,8.63293181 169.992528,12.5431992 C174.885953,12.1700787 178.019302,11.4463308 177.187725,18.0187202 C179.13943,17.2535145 191.49182,15.625192 186.306303,20.7395006 C188.30846,15.6093145 197.506257,13.0675966 201.749999,16.8093864 C201.383113,12.0412948 202.265142,7.15235799 208.080869,7.86419777 C208.836768,3.2072484 214.945029,3.43703063 218.702835,3.62579608 C222.582789,3.82117713 224.840306,6.25880941 228.055529,7.08090938 C233.256093,8.41064727 245.977138,5.61533094 244.034284,16.0027229 C249.169348,16.2880763 258.292352,13.8301561 260.905689,19.8697683 C264.621452,19.9301908 276.349384,18.5492922 275.460717,25.3999783 C280.564801,25.0361197 284.074772,24.1447763 289.127077,25.3404378 C291.27174,25.8480757 292.781324,26.564767 295.447769,26.304994 C302.32432,25.634612 305.770562,25.363813 312.562584,27.4433202 C329.503029,32.6317237 349.791467,29.0010761 365.84944,36.8326369 C355.528417,44.2822563 341.704504,43.4112008 329.433104,44.5543785 C315.989353,45.8073753 303.369655,47.9953785 290.50876,51.49636 C294.095737,51.4698976 298.031454,53.6177661 296.413885,57.9187956 C294.464835,63.1019066 284.205771,63.9063649 279.753583,64.3500519 C277.383655,78.0333415 257.915288,72.5273886 249.698211,69.6681214 C244.184313,67.749153 239.041283,71.2016201 233.713704,70.2966045 C229.035365,69.5022901 231.835907,67.5687674 228.84108,65.1328993 C223.743191,60.9875572 208.972635,64.4894208 203.038301,64.7015614 C191.920664,65.0989391 180.976069,66.8101773 169.796473,66.872805 C162.842473,66.9116166 155.442811,67.3716221 148.549442,66.3836908 C142.999696,65.5889354 137.834095,62.9501885 132.208671,62.3653685 C128.391561,61.9688729 126.781072,62.9695943 123.097616,64.0108916 C120.702905,64.6874481 115.437285,66.1084814 112.955389,65.064979 C110.981556,64.2349403 110.00172,61.9851914 107.839798,61.1675018 C101.920069,58.9283379 92.8612368,64.0219176 88.0868619,60.2448445 C87.1061412,59.4690538 87.0216116,57.5359722 85.7771231,56.613756 C84.2405427,55.4758708 81.3452924,55.4524956 79.5537954,55.3091574 C76.4191183,55.0582052 73.8849998,55.4154482 70.9331013,54.1739185 C68.3693311,53.0951328 66.0055995,50.6896965 63.2320542,49.8503959 C56.4400324,47.795146 47.8843952,48.2538284 40.7998389,47.6597465 C38.0829417,47.4321694 34.7070675,46.6069822 32.0065451,46.7194476 C24.9357083,47.0140628 19.551481,50.3725882 18.5840372,40.7424632 C13.583955,40.8425795 5.25623797,43.4835315 0.586308102,41.226726 C-5.44229166,38.3136518 36.9791884,33.0088135 37.9368958,33.5521757" id="Fill-1"></path>
                </g>
                <g id="Group-10" transform="translate(24.000000, 4.000000)">
                    <path d="M0.320794609,33.5328367 C6.58727439,38.8849456 20.268676,35.1100816 27.2614415,32.7417823 C34.2648162,30.3703878 41.4529671,28.6777347 48.4028539,26.3894694 C53.2101315,24.8069184 55.7302501,21.8129388 60.33949,22.5924966 C63.7684604,23.1721905 63.71011,23.6789252 67.2394253,22.4028027 C71.0578404,21.0223265 74.3953067,19.8200476 78.5974199,19.2248776 C78.6181962,14.4316803 85.5481908,14.0301837 82.561269,9.48018367 C84.8201369,8.04797279 90.8196194,4.69715646 92.4812798,7.65443537 C96.4548539,7.56157823 100.654757,5.14110204 104.404212,4.0502517 C110.189301,2.36776871 116.307253,3.06596599 122.270045,1.81283673 C127.686024,0.673789116 148.079048,-3.11787755 140.953668,8.98759864 C148.106455,7.9732449 149.529851,17.8687211 145.257894,21.8629048 C142.086196,24.8290272 135.295005,25.7589252 131.252029,25.5263401 C127.337689,25.3008299 126.221517,24.2121905 123.154584,25.6457279 C121.876622,26.2431088 121.153873,27.7964762 119.978908,28.5649796 C116.494239,30.8430748 112.117517,31.2680068 108.045808,31.7804898 C105.110606,32.1501497 101.726725,32.8178367 98.9418189,31.348483 C97.1338404,30.3942653 96.6281369,28.1188231 95.2387784,27.360932 C92.4238135,25.8256939 87.6191881,25.8805238 84.374552,26.323585 C83.4643741,26.4482789 83.5850534,25.363619 82.3225628,25.6567823 C81.1714685,25.9242993 78.825517,28.4964422 77.5665628,29.0916122 C72.9639536,31.2649116 66.1599429,32.4229728 61.1740776,31.7831429 C57.9873499,31.3736871 55.392083,29.5642993 52.0254415,30.0400816 C49.1331181,30.4482109 45.0609671,32.1205238 42.3795008,33.2874286 C35.8707784,36.1200136 30.9870264,37.6322585 23.8899375,37.9829048 C16.6275224,38.3423946 7.39533908,40.3339592 0.320794609,33.5328367" id="Fill-4" fill="#7F0453"></path>
                    <path d="M166.266825,25.0774864 C162.829898,22.4876565 165.771288,18.1384048 168.769261,16.6721463 C172.82373,14.6894252 175.762911,16.2277585 179.546846,17.7996973 C179.209563,12.9773163 181.990491,5.4187449 187.999698,5.89718027 C188.061143,5.21667007 188.539881,4.4972483 188.589391,3.77163605 C191.442372,3.06592177 195.846943,2.61490136 198.666771,3.80435714 C201.727073,5.09462925 202.644765,7.3762619 206.653261,7.3094932 C210.311213,7.24935714 218.911709,5.84632993 215.698458,13.4398333 C222.730124,13.8568061 234.399763,11.5402415 234.785229,21.7554116 C235.183515,32.3123844 215.769186,36.8035748 211.111321,27.451534 C207.111224,29.1269422 204.65034,33.5986769 200.378825,34.8005136 C191.972388,37.166602 185.830124,30.6798673 181.460032,24.9607517 C176.357024,27.2083367 171.250038,32.8801395 166.266825,25.0774864" id="Fill-6" fill="#7F0453"></path>
                    <path d="M65.7154631,53.109068 C70.4515709,57.8828095 79.4534469,51.7507007 84.8459968,52.6637959 C88.1034523,53.2156327 88.6798836,56.0380476 91.4758404,57.0254286 C97.1106329,59.0152245 103.092433,52.5656327 108.797512,52.2087959 C114.03004,51.881585 118.865609,53.8209728 123.670676,55.6688299 C128.366557,57.4751224 132.794115,57.7342381 138.203905,58.0035238 C150.264315,58.604 163.554061,59.6342721 175.514568,58.4598503 C184.436433,57.5834558 196.842525,52.4559728 205.510212,55.6697143 C208.900282,56.9268231 209.174353,60.2608367 211.897371,61.8080136 C215.76839,64.0074014 220.261371,60.0370952 224.576649,60.664102 C231.088024,61.6103605 237.12508,66.7581837 244.540886,64.2435238 C247.783754,63.1433878 249.059506,60.0251565 251.659194,58.4368571 C254.741598,56.5531837 259.248282,56.9246122 261.691927,53.7758707 C263.11046,51.9483537 262.325382,49.9957007 263.240423,48.1686259 C264.14839,46.3557007 267.287819,43.8587279 269.355722,42.9509388 C275.536444,40.239068 284.675797,40.781619 291.29901,40.1930816 C297.030169,39.6836939 302.95583,39.2804286 308.651625,38.4358707 C314.244423,37.6063469 323.027485,37.531619 327.743258,34.9851224 C318.143733,31.636517 307.102687,34.0286939 297.026633,32.5270612 C291.754762,31.7417551 286.854654,30.2785918 281.513824,29.8700204 C278.249296,29.6210748 275.682762,30.2732857 272.597706,30.3833878 C269.843301,30.481551 267.347053,29.6462789 264.236358,29.5043401 C254.726126,29.0696803 250.880304,35.5595102 241.858536,37.0982857 C240.39845,37.3472313 238.881781,36.7233197 237.53707,37.5798163 C236.906266,37.9813129 237.199787,39.5068231 236.623797,39.9879116 C234.577555,41.6960408 233.069285,42.816517 230.424067,43.9272653 C223.446773,46.8580136 219.942654,43.9042721 214.425005,39.7146463 C202.735032,45.0472993 196.426557,43.8361769 185.034525,38.931551 C180.097727,45.4762109 170.677673,42.816517 164.389091,41.214068 C158.420994,39.6925374 154.255571,40.4822653 148.427161,42.1284898 C140.644013,44.326551 134.848757,42.7077415 127.175237,41.6168912 C120.538762,40.6732857 113.780725,39.3834558 107.54121,42.4070612 C102.027981,45.0782517 98.2895763,48.6700544 91.9205412,48.2345102 C87.7369941,47.9484218 84.7863202,46.6886599 80.4966814,48.303932 C76.0271288,49.9868571 72.8585251,52.3410068 67.8691235,52.7407347 C68.939765,52.4493401 70.0015655,52.126551 65.7154631,53.109068" id="Fill-8" fill="#660242"></path>
                </g>
            </g>
            <g id="Page-1" transform="translate(1752.000000, 76.000000)">
                <g id="Group-3" fill="#710045">
                    <path d="M37.9368958,33.5521757 C49.1926128,34.5242296 63.234267,28.9838755 73.9460735,25.8639532 C78.2314157,24.6158079 85.3376576,15.8457124 88.1873238,23.6728627 C90.5280421,21.7203753 93.5087071,20.6151271 96.6008982,20.6914272 C95.8476551,17.3977348 98.5118873,16.2117762 101.346949,16.4217116 C97.6077301,10.8090269 107.918132,9.37740861 111.614422,9.56440989 C110.938185,5.81820969 116.348081,2.73842207 119.042407,5.29248911 C124.18234,3.34970456 127.66797,2.36662471 133.518216,2.36662471 C138.504579,2.36662471 143.357288,2.61228441 148.011728,1.41706396 C154.366054,-0.21478685 160.360577,-0.509843117 166.444939,2.80413714 C170.210712,4.85629979 174.336289,8.63293181 169.992528,12.5431992 C174.885953,12.1700787 178.019302,11.4463308 177.187725,18.0187202 C179.13943,17.2535145 191.49182,15.625192 186.306303,20.7395006 C188.30846,15.6093145 197.506257,13.0675966 201.749999,16.8093864 C201.383113,12.0412948 202.265142,7.15235799 208.080869,7.86419777 C208.836768,3.2072484 214.945029,3.43703063 218.702835,3.62579608 C222.582789,3.82117713 224.840306,6.25880941 228.055529,7.08090938 C233.256093,8.41064727 245.977138,5.61533094 244.034284,16.0027229 C249.169348,16.2880763 258.292352,13.8301561 260.905689,19.8697683 C264.621452,19.9301908 276.349384,18.5492922 275.460717,25.3999783 C280.564801,25.0361197 284.074772,24.1447763 289.127077,25.3404378 C291.27174,25.8480757 292.781324,26.564767 295.447769,26.304994 C302.32432,25.634612 305.770562,25.363813 312.562584,27.4433202 C329.503029,32.6317237 349.791467,29.0010761 365.84944,36.8326369 C355.528417,44.2822563 341.704504,43.4112008 329.433104,44.5543785 C315.989353,45.8073753 303.369655,47.9953785 290.50876,51.49636 C294.095737,51.4698976 298.031454,53.6177661 296.413885,57.9187956 C294.464835,63.1019066 284.205771,63.9063649 279.753583,64.3500519 C277.383655,78.0333415 257.915288,72.5273886 249.698211,69.6681214 C244.184313,67.749153 239.041283,71.2016201 233.713704,70.2966045 C229.035365,69.5022901 231.835907,67.5687674 228.84108,65.1328993 C223.743191,60.9875572 208.972635,64.4894208 203.038301,64.7015614 C191.920664,65.0989391 180.976069,66.8101773 169.796473,66.872805 C162.842473,66.9116166 155.442811,67.3716221 148.549442,66.3836908 C142.999696,65.5889354 137.834095,62.9501885 132.208671,62.3653685 C128.391561,61.9688729 126.781072,62.9695943 123.097616,64.0108916 C120.702905,64.6874481 115.437285,66.1084814 112.955389,65.064979 C110.981556,64.2349403 110.00172,61.9851914 107.839798,61.1675018 C101.920069,58.9283379 92.8612368,64.0219176 88.0868619,60.2448445 C87.1061412,59.4690538 87.0216116,57.5359722 85.7771231,56.613756 C84.2405427,55.4758708 81.3452924,55.4524956 79.5537954,55.3091574 C76.4191183,55.0582052 73.8849998,55.4154482 70.9331013,54.1739185 C68.3693311,53.0951328 66.0055995,50.6896965 63.2320542,49.8503959 C56.4400324,47.795146 47.8843952,48.2538284 40.7998389,47.6597465 C38.0829417,47.4321694 34.7070675,46.6069822 32.0065451,46.7194476 C24.9357083,47.0140628 19.551481,50.3725882 18.5840372,40.7424632 C13.583955,40.8425795 5.25623797,43.4835315 0.586308102,41.226726 C-5.44229166,38.3136518 36.9791884,33.0088135 37.9368958,33.5521757" id="Fill-1"></path>
                </g>
                <g id="Group-10" transform="translate(24.000000, 4.000000)">
                    <path d="M0.320794609,33.5328367 C6.58727439,38.8849456 20.268676,35.1100816 27.2614415,32.7417823 C34.2648162,30.3703878 41.4529671,28.6777347 48.4028539,26.3894694 C53.2101315,24.8069184 55.7302501,21.8129388 60.33949,22.5924966 C63.7684604,23.1721905 63.71011,23.6789252 67.2394253,22.4028027 C71.0578404,21.0223265 74.3953067,19.8200476 78.5974199,19.2248776 C78.6181962,14.4316803 85.5481908,14.0301837 82.561269,9.48018367 C84.8201369,8.04797279 90.8196194,4.69715646 92.4812798,7.65443537 C96.4548539,7.56157823 100.654757,5.14110204 104.404212,4.0502517 C110.189301,2.36776871 116.307253,3.06596599 122.270045,1.81283673 C127.686024,0.673789116 148.079048,-3.11787755 140.953668,8.98759864 C148.106455,7.9732449 149.529851,17.8687211 145.257894,21.8629048 C142.086196,24.8290272 135.295005,25.7589252 131.252029,25.5263401 C127.337689,25.3008299 126.221517,24.2121905 123.154584,25.6457279 C121.876622,26.2431088 121.153873,27.7964762 119.978908,28.5649796 C116.494239,30.8430748 112.117517,31.2680068 108.045808,31.7804898 C105.110606,32.1501497 101.726725,32.8178367 98.9418189,31.348483 C97.1338404,30.3942653 96.6281369,28.1188231 95.2387784,27.360932 C92.4238135,25.8256939 87.6191881,25.8805238 84.374552,26.323585 C83.4643741,26.4482789 83.5850534,25.363619 82.3225628,25.6567823 C81.1714685,25.9242993 78.825517,28.4964422 77.5665628,29.0916122 C72.9639536,31.2649116 66.1599429,32.4229728 61.1740776,31.7831429 C57.9873499,31.3736871 55.392083,29.5642993 52.0254415,30.0400816 C49.1331181,30.4482109 45.0609671,32.1205238 42.3795008,33.2874286 C35.8707784,36.1200136 30.9870264,37.6322585 23.8899375,37.9829048 C16.6275224,38.3423946 7.39533908,40.3339592 0.320794609,33.5328367" id="Fill-4" fill="#7F0453"></path>
                    <path d="M166.266825,25.0774864 C162.829898,22.4876565 165.771288,18.1384048 168.769261,16.6721463 C172.82373,14.6894252 175.762911,16.2277585 179.546846,17.7996973 C179.209563,12.9773163 181.990491,5.4187449 187.999698,5.89718027 C188.061143,5.21667007 188.539881,4.4972483 188.589391,3.77163605 C191.442372,3.06592177 195.846943,2.61490136 198.666771,3.80435714 C201.727073,5.09462925 202.644765,7.3762619 206.653261,7.3094932 C210.311213,7.24935714 218.911709,5.84632993 215.698458,13.4398333 C222.730124,13.8568061 234.399763,11.5402415 234.785229,21.7554116 C235.183515,32.3123844 215.769186,36.8035748 211.111321,27.451534 C207.111224,29.1269422 204.65034,33.5986769 200.378825,34.8005136 C191.972388,37.166602 185.830124,30.6798673 181.460032,24.9607517 C176.357024,27.2083367 171.250038,32.8801395 166.266825,25.0774864" id="Fill-6" fill="#7F0453"></path>
                    <path d="M65.7154631,53.109068 C70.4515709,57.8828095 79.4534469,51.7507007 84.8459968,52.6637959 C88.1034523,53.2156327 88.6798836,56.0380476 91.4758404,57.0254286 C97.1106329,59.0152245 103.092433,52.5656327 108.797512,52.2087959 C114.03004,51.881585 118.865609,53.8209728 123.670676,55.6688299 C128.366557,57.4751224 132.794115,57.7342381 138.203905,58.0035238 C150.264315,58.604 163.554061,59.6342721 175.514568,58.4598503 C184.436433,57.5834558 196.842525,52.4559728 205.510212,55.6697143 C208.900282,56.9268231 209.174353,60.2608367 211.897371,61.8080136 C215.76839,64.0074014 220.261371,60.0370952 224.576649,60.664102 C231.088024,61.6103605 237.12508,66.7581837 244.540886,64.2435238 C247.783754,63.1433878 249.059506,60.0251565 251.659194,58.4368571 C254.741598,56.5531837 259.248282,56.9246122 261.691927,53.7758707 C263.11046,51.9483537 262.325382,49.9957007 263.240423,48.1686259 C264.14839,46.3557007 267.287819,43.8587279 269.355722,42.9509388 C275.536444,40.239068 284.675797,40.781619 291.29901,40.1930816 C297.030169,39.6836939 302.95583,39.2804286 308.651625,38.4358707 C314.244423,37.6063469 323.027485,37.531619 327.743258,34.9851224 C318.143733,31.636517 307.102687,34.0286939 297.026633,32.5270612 C291.754762,31.7417551 286.854654,30.2785918 281.513824,29.8700204 C278.249296,29.6210748 275.682762,30.2732857 272.597706,30.3833878 C269.843301,30.481551 267.347053,29.6462789 264.236358,29.5043401 C254.726126,29.0696803 250.880304,35.5595102 241.858536,37.0982857 C240.39845,37.3472313 238.881781,36.7233197 237.53707,37.5798163 C236.906266,37.9813129 237.199787,39.5068231 236.623797,39.9879116 C234.577555,41.6960408 233.069285,42.816517 230.424067,43.9272653 C223.446773,46.8580136 219.942654,43.9042721 214.425005,39.7146463 C202.735032,45.0472993 196.426557,43.8361769 185.034525,38.931551 C180.097727,45.4762109 170.677673,42.816517 164.389091,41.214068 C158.420994,39.6925374 154.255571,40.4822653 148.427161,42.1284898 C140.644013,44.326551 134.848757,42.7077415 127.175237,41.6168912 C120.538762,40.6732857 113.780725,39.3834558 107.54121,42.4070612 C102.027981,45.0782517 98.2895763,48.6700544 91.9205412,48.2345102 C87.7369941,47.9484218 84.7863202,46.6886599 80.4966814,48.303932 C76.0271288,49.9868571 72.8585251,52.3410068 67.8691235,52.7407347 C68.939765,52.4493401 70.0015655,52.126551 65.7154631,53.109068" id="Fill-8" fill="#660242"></path>
                </g>
            </g>
        </g>
    </g>
</svg>