<?xml version="1.0" encoding="UTF-8"?>
<svg width="700px" height="220px" viewBox="0 0 700 220" version="1.1" xmlns="http://www.w3.org/2000/svg" xmlns:xlink="http://www.w3.org/1999/xlink">
    <!-- Generator: Sketch 49.3 (51167) - http://www.bohemiancoding.com/sketch -->
    <title>cloud-big-foreground-01</title>
    <desc>Created with Sketch.</desc>
    <defs>
        <polygon id="path-1" points="699.987 0.535492746 699.987 220 0.0002 220 0.0002 0.535492746"></polygon>
    </defs>
    <g id="Page-1" stroke="none" stroke-width="1" fill="none" fill-rule="evenodd">
        <g id="cloud-big-foreground-01" transform="translate(0.000000, -1.000000)">
            <g id="Page-1">
                <g id="Group-3" transform="translate(0.000000, 0.465000)">
                    <g id="Fill-1-Clipped">
                        <mask id="mask-2" fill="white">
                            <use xlink:href="#path-1"></use>
                        </mask>
                        <g id="path-1"></g>
                        <path d="M240.1772,206.722 C299.5192,211 360.3612,230.524 417.1392,212.467 C428.7282,208.781 439.8672,203.571 451.7152,200.849 C469.8102,196.694 488.6392,198.527 507.1332,199.955 C571.3302,204.92 635.8112,204.781 699.9872,199.537 L661.0942,190.139 C652.9812,188.177 643.7272,185.282 640.5442,177.441 C639.3162,174.43 639.1712,171.008 637.5062,168.197 C632.2782,159.422 618.9872,164.434 610.6962,170.3 C610.4872,158.078 599.1522,147.29 587.1642,147.843 C589.9992,136.531 586.0932,124.576 577.1622,117.233 C568.2322,109.89 555.9132,108.505 545.6202,113.686 C550.6142,107.774 542.4552,97.006 535.5702,100.383 C532.6642,87.98 516.6962,80.924 505.7842,87.221 C506.0892,68.708 494.0942,50.625 477.0942,43.961 C471.3992,41.722 464.8422,40.744 459.1332,43.003 C453.4242,45.261 449.0062,51.552 450.2722,57.657 C441.4682,50.477 426.0062,55.804 423.3032,66.945 C422.6712,69.551 422.6072,72.394 421.1642,74.664 C418.2402,79.212 411.7722,78.852 406.4622,79.495 C401.1522,80.139 394.9302,85.234 397.7342,89.859 C391.7332,82.927 383.5322,78.35 374.5572,76.922 C376.9492,64.752 365.4302,51.97 353.2912,53.321 C356.2342,42.591 346.2842,31.803 335.5062,29.77 C324.7282,27.738 313.8542,31.842 303.6392,35.875 C301.3582,22.055 292.9992,10.047 280.9362,3.261 C277.5572,1.389 273.6642,-0.058 269.9052,0.778 C266.1452,1.614 262.8612,5.519 263.8732,9.295 C253.3162,3.969 239.0572,8.253 233.0762,18.59 C227.0942,28.928 230.2842,43.678 239.9742,50.484 C222.5702,49.474 206.3922,66.656 208.1582,84.288 C200.4642,82.761 192.6482,86.267 188.5732,93.076 C184.5002,99.884 185.0312,108.551 189.9052,114.792 C171.1792,115.909 153.9262,125.477 142.8672,140.877 C139.7022,145.334 137.0632,151.015 138.9552,156.155 C128.1962,154.971 117.0942,161.655 112.9492,171.792 C104.4872,166.749 98.6142,158.335 91.7722,151.207 C84.9302,144.08 75.8292,137.738 66.0882,138.928 C56.3482,140.117 48.3672,152.597 54.3352,160.509 C44.1452,160.182 34.6522,169.574 34.7152,179.943 C26.1772,193.082 14.1362,203.482 0.0002,209.926 C36.8612,209.772 73.9302,211.212 110.7592,210.068 C153.8732,208.691 197.0062,203.603 240.1772,206.722" id="Fill-1" fill="#710045" fill-rule="nonzero" mask="url(#mask-2)"></path>
                    </g>
                </g>
                <g id="Group-10" transform="translate(203.000000, 13.465000)" fill-rule="nonzero">
                    <path d="M2.30246001e-15,105.5335 C2.30246001e-15,93.4215 -0.075,72.8915 17.872,75.3595 C11.685,53.3895 31.099,41.5935 50.701,42.3075 C24.344,27.7835 40.511,0.8315 68.071,7.1595 C66.341,-4.8595 80.21,3.2845 84.196,7.2635 C90.693,13.7485 93.776,23.1215 97.98,31.1085 C113.919,26.1565 123.755,42.3175 125.01,56.0155 C126.814,75.7145 120.405,97.2875 105.548,110.5055 C93.22,121.4725 74.137,133.5735 57,132.5335 C41.542,131.5955 44.78,123.1475 34.498,114.9975 C25.391,107.7785 2.174,106.3865 2.30246001e-15,105.5335" id="Fill-4" fill="#7F0453"></path>
                    <path d="M205,86.5335 C202.122,74.8125 223.609,75.1915 228.5,67.5335 C231.836,62.3095 228.899,57.2455 234.474,53.0075 C239.41,49.2555 247.594,50.3495 252.856,51.3825 C257.45,24.6855 284.344,49.6855 290.752,60.5615 C304.343,83.6275 276.679,94.5305 258.973,81.9105 C254.359,93.5325 245.735,98.3615 233.223,96.5335 C224.187,95.2135 210.65,83.9195 205,86.5335" id="Fill-6" fill="#7F0453"></path>
                    <path d="M300,82.5335 C311.201,77.1685 325.317,91.3755 324.174,103.3595 C329.947,104.8195 331.562,110.9005 331.155,116.4305 C345.802,111.5515 377.254,115.2535 368.1,138.3275 C387.823,140.2735 396.998,143.9955 398.151,164.3825 C405.368,164.7005 414.439,160.4395 419.996,162.7595 C423.602,164.2635 445.864,177.4155 449,180.5335 C431.001,181.8805 398.511,182.6675 379.754,180.7795 C360.024,178.7935 339.384,177.9765 319.532,174.2875 C298.385,170.3575 267.933,168.6725 246.806,172.2635 C214.348,177.7795 191.336,200.8115 157.013,196.8045 C134.497,194.1755 115.023,184.6735 93.281,179.3105 C74.243,174.6155 54.699,177.8255 36.117,173.8275 C47.327,168.0155 61.109,168.1505 73.203,164.5565 C86.429,160.6265 97.701,154.4285 109.851,148.2825 C123.129,141.5655 133.034,135.9845 142.583,124.5355 C148.703,117.1985 153.526,109.8035 162.007,105.2595 C183.797,93.5855 199.639,106.9405 220.119,111.8045 C230.878,114.3585 256.58,111.2135 261.178,98.7075 C278.732,97.5645 286.03,97.4835 300,82.5335" id="Fill-8" fill="#660242"></path>
                </g>
            </g>
        </g>
    </g>
</svg>