<?xml version="1.0" encoding="UTF-8"?>
<svg width="1026px" height="270px" viewBox="0 0 1026 270" version="1.1" xmlns="http://www.w3.org/2000/svg" xmlns:xlink="http://www.w3.org/1999/xlink">
    <!-- Generator: Sketch 50.2 (55047) - http://www.bohemiancoding.com/sketch -->
    <title>Artboard 1</title>
    <desc>Created with Sketch.</desc>
    <defs>
        <polygon id="path-1" points="0.1031 0.192238735 164.565 0.192238735 164.565 62.3442 0.1031 62.3442"></polygon>
    </defs>
    <g id="Artboard-1" stroke="none" stroke-width="1" fill="none" fill-rule="evenodd">
        <path d="M602.4134,232.6289 C602.4134,232.6289 579.8614,213.8009 557.5744,215.9729 C535.2884,218.1459 511.6754,229.7329 495.4904,237.6979 C479.3074,245.6639 471.0824,238.9049 464.7144,235.2839 C458.3474,231.6629 447.4694,227.8009 447.4694,227.8009 C447.4694,227.8009 455.9594,240.5949 461.2654,246.1479 C461.2654,246.1479 456.4894,260.8719 454.6324,269.8039 C454.6324,269.8039 465.5104,255.8029 481.1644,252.4239 C496.8174,249.0439 507.9614,255.8029 512.7364,256.0449 C517.5124,256.2859 534.4924,262.3199 595.7804,241.8019 C595.7804,241.8019 601.8824,239.3889 604.5354,234.8019 C604.5354,234.8019 601.0864,233.8359 593.3924,236.7329 C585.6984,239.6299 602.4134,232.6289 602.4134,232.6289" id="Fill-1" fill="#125A84"></path>
        <path d="M963.3021,126.5107 C963.3021,126.5107 942.9611,107.8447 922.8601,109.9987 C902.7581,112.1527 881.4601,123.6387 866.8631,131.5357 C852.2651,139.4327 844.8471,132.7327 839.1031,129.1427 C833.3601,125.5537 823.5481,121.7247 823.5481,121.7247 C823.5481,121.7247 831.2061,134.4067 835.9921,139.9117 C835.9921,139.9117 831.6851,154.5087 830.0101,163.3637 C830.0101,163.3637 839.8221,149.4837 853.9401,146.1337 C868.0591,142.7827 878.1101,149.4837 882.4171,149.7237 C886.7251,149.9627 902.0401,155.9457 957.3201,135.6047 C957.3201,135.6047 962.8231,133.2107 965.2161,128.6637 C965.2161,128.6637 962.1061,127.7067 955.1651,130.5787 C948.2261,133.4497 963.3021,126.5107 963.3021,126.5107" id="Fill-3" fill="#125A84"></path>
        <path d="M780.388,120.6074 C780.388,120.6074 757.591,99.6894 735.064,102.1024 C712.535,104.5164 688.667,117.3894 672.308,126.2394 C655.949,135.0894 647.634,127.5804 641.198,123.5574 C634.761,119.5354 623.765,115.2444 623.765,115.2444 C623.765,115.2444 632.347,129.4584 637.711,135.6264 C637.711,135.6264 632.884,151.9854 631.006,161.9094 C631.006,161.9094 642.002,146.3534 657.825,142.5994 C673.649,138.8444 684.912,146.3534 689.74,146.6224 C694.568,146.8904 711.732,153.5944 773.683,130.7984 C773.683,130.7984 779.851,128.1174 782.534,123.0214 C782.534,123.0214 779.046,121.9484 771.269,125.1674 C763.492,128.3844 780.388,120.6074 780.388,120.6074" id="Fill-5" fill="#125A84"></path>
        <g id="Group-9" transform="translate(861.000000, 39.804000)">
            <mask id="mask-2" fill="white">
                <use xlink:href="#path-1"></use>
            </mask>
            <g id="Clip-8"></g>
            <path d="M162.3421,19.5612 C162.3421,19.5612 138.7291,-2.1078 115.3931,0.3932 C92.0571,2.8932 67.3321,16.2282 50.3861,25.3952 C33.4401,34.5632 24.8271,26.7842 18.1601,22.6172 C11.4921,18.4502 0.1031,14.0052 0.1031,14.0052 C0.1031,14.0052 8.9921,28.7292 14.5481,35.1192 C14.5481,35.1192 9.5481,52.0652 7.6041,62.3442 C7.6041,62.3442 18.9931,46.2312 35.3841,42.3412 C51.7751,38.4522 63.4431,46.2312 68.4441,46.5092 C73.4441,46.7872 91.2241,53.7312 155.3981,30.1182 C155.3981,30.1182 161.7861,27.3402 164.5651,22.0612 C164.5651,22.0612 160.9531,20.9502 152.8971,24.2842 C144.8401,27.6182 162.3421,19.5612 162.3421,19.5612" id="Fill-7" fill="#125A84" mask="url(#mask-2)"></path>
        </g>
        <path d="M537.8646,34.8505 C537.8646,34.8505 523.1026,21.3045 508.5146,22.8675 C493.9266,24.4305 478.4696,32.7665 467.8766,38.4975 C457.2826,44.2285 451.8986,39.3665 447.7306,36.7615 C443.5626,34.1565 436.4416,31.3775 436.4416,31.3775 C436.4416,31.3775 441.9996,40.5815 445.4726,44.5765 C445.4726,44.5765 442.3466,55.1695 441.1316,61.5955 C441.1316,61.5955 448.2516,51.5225 458.4986,49.0915 C468.7446,46.6605 476.0386,51.5225 479.1646,51.6965 C482.2906,51.8705 493.4056,56.2115 533.5226,41.4505 C533.5226,41.4505 537.5176,39.7135 539.2546,36.4135 C539.2546,36.4135 536.9966,35.7195 531.9606,37.8035 C526.9246,39.8875 537.8646,34.8505 537.8646,34.8505" id="Fill-10" fill="#125A84"></path>
        <path d="M728.2405,174.3847 C728.2405,174.3847 709.8045,157.4677 691.5875,159.4197 C673.3685,161.3707 654.0655,171.7817 640.8355,178.9397 C627.6055,186.0967 620.8825,180.0237 615.6775,176.7707 C610.4715,173.5167 601.5795,170.0467 601.5795,170.0467 C601.5795,170.0467 608.5195,181.5417 612.8575,186.5307 C612.8575,186.5307 608.9535,199.7597 607.4345,207.7847 C607.4345,207.7847 616.3275,195.2057 629.1235,192.1687 C641.9205,189.1327 651.0295,195.2057 654.9325,195.4227 C658.8375,195.6397 672.7185,201.0617 722.8185,182.6257 C722.8185,182.6257 727.8065,180.4567 729.9755,176.3367 C729.9755,176.3367 727.1555,175.4687 720.8665,178.0717 C714.5765,180.6737 728.2405,174.3847 728.2405,174.3847" id="Fill-12" fill="#125A84"></path>
        <path d="M222.3031,177.246 C222.3031,177.246 209.7581,165.734 197.3601,167.062 C184.9621,168.391 171.8261,175.475 162.8231,180.346 C153.8201,185.217 149.2441,181.084 145.7021,178.87 C142.1601,176.656 136.1091,174.295 136.1091,174.295 C136.1091,174.295 140.8321,182.117 143.7831,185.512 C143.7831,185.512 141.1271,194.515 140.0941,199.975 C140.0941,199.975 146.1451,191.415 154.8531,189.349 C163.5611,187.283 169.7601,191.415 172.4171,191.562 C175.0741,191.711 184.5191,195.4 218.6131,182.854 C218.6131,182.854 222.0081,181.379 223.4841,178.575 C223.4841,178.575 221.5651,177.984 217.2851,179.756 C213.0051,181.526 222.3031,177.246 222.3031,177.246" id="Fill-14" fill="#125A84"></path>
        <path d="M86.1942,189.2558 C86.1942,189.2558 73.6492,177.7438 61.2512,179.0718 C48.8532,180.4008 35.7172,187.4848 26.7142,192.3558 C17.7112,197.2258 13.1352,193.0938 9.5932,190.8798 C6.0512,188.6658 0.0002,186.3048 0.0002,186.3048 C0.0002,186.3048 4.7232,194.1268 7.6742,197.5218 C7.6742,197.5218 5.0182,206.5248 3.9852,211.9848 C3.9852,211.9848 10.0362,203.4248 18.7442,201.3588 C27.4522,199.2918 33.6512,203.4248 36.3082,203.5718 C38.9652,203.7198 48.4102,207.4098 82.5042,194.8638 C82.5042,194.8638 85.8992,193.3888 87.3752,190.5838 C87.3752,190.5838 85.4562,189.9938 81.1762,191.7648 C76.8962,193.5358 86.1942,189.2558 86.1942,189.2558" id="Fill-16" fill="#125A84"></path>
        <path d="M351.2239,85.312 C351.2239,85.312 335.2289,70.634 319.4219,72.328 C303.6149,74.021 286.8659,83.054 275.3869,89.264 C263.9079,95.474 258.0749,90.205 253.5579,87.382 C249.0419,84.559 241.3269,81.548 241.3269,81.548 C241.3269,81.548 247.3489,91.522 251.1119,95.85 C251.1119,95.85 247.7249,107.329 246.4079,114.292 C246.4079,114.292 254.1229,103.377 265.2249,100.743 C276.3279,98.108 284.2319,103.377 287.6189,103.565 C291.0059,103.754 303.0499,108.458 346.5189,92.463 C346.5189,92.463 350.8479,90.581 352.7289,87.006 C352.7289,87.006 350.2829,86.253 344.8259,88.511 C339.3689,90.769 351.2239,85.312 351.2239,85.312" id="Fill-18" fill="#125A84"></path>
        <path d="M554.2884,136.2705 C554.2884,136.2705 535.8524,119.3535 517.6344,121.3055 C499.4164,123.2575 480.1134,133.6675 466.8834,140.8255 C453.6524,147.9825 446.9304,141.9095 441.7244,138.6565 C436.5184,135.4035 427.6274,131.9325 427.6274,131.9325 C427.6274,131.9325 434.5664,143.4275 438.9044,148.4165 C438.9044,148.4165 435.0014,161.6465 433.4824,169.6705 C433.4824,169.6705 442.3754,157.0915 455.1714,154.0555 C467.9674,151.0185 477.0764,157.0915 480.9804,157.3085 C484.8854,157.5255 498.7654,162.9475 548.8654,144.5125 C548.8654,144.5125 553.8534,142.3435 556.0224,138.2225 C556.0224,138.2225 553.2034,137.3555 546.9144,139.9585 C540.6244,142.5605 554.2884,136.2705 554.2884,136.2705" id="Fill-20" fill="#125A84"></path>
        <path d="M406.1697,130.2656 C406.1697,130.2656 387.7337,113.3486 369.5157,115.3006 C351.2977,117.2526 331.9947,127.6626 318.7647,134.8206 C305.5347,141.9776 298.8117,135.9056 293.6057,132.6516 C288.4007,129.3986 279.5077,125.9276 279.5077,125.9276 C279.5077,125.9276 286.4487,137.4226 290.7867,142.4116 C290.7867,142.4116 286.8827,155.6416 285.3637,163.6656 C285.3637,163.6656 294.2567,151.0866 307.0527,148.0506 C319.8487,145.0136 328.9587,151.0866 332.8617,151.3036 C336.7657,151.5206 350.6467,156.9426 400.7477,138.5076 C400.7477,138.5076 405.7357,136.3386 407.9047,132.2176 C407.9047,132.2176 405.0857,131.3506 398.7947,133.9536 C392.5057,136.5556 406.1697,130.2656 406.1697,130.2656" id="Fill-22" fill="#125A84"></path>
        <path d="M903.7396,195.1328 C903.7396,195.1328 885.3036,178.2158 867.0856,180.1678 C848.8676,182.1188 829.5646,192.5298 816.3346,199.6878 C803.1046,206.8448 796.3816,200.7718 791.1766,197.5188 C785.9696,194.2658 777.0786,190.7948 777.0786,190.7948 C777.0786,190.7948 784.0186,202.2898 788.3556,207.2788 C788.3556,207.2788 784.4526,220.5088 782.9336,228.5328 C782.9336,228.5328 791.8266,215.9538 804.6226,212.9168 C817.4196,209.8808 826.5276,215.9538 830.4316,216.1708 C834.3366,216.3878 848.2176,221.8098 898.3176,203.3738 C898.3176,203.3738 903.3056,201.2048 905.4746,197.0848 C905.4746,197.0848 902.6546,196.2168 896.3656,198.8198 C890.0756,201.4228 903.7396,195.1328 903.7396,195.1328" id="Fill-24" fill="#125A84"></path>
        <path d="M625.7796,67.1118 C625.7796,67.1118 613.1766,55.5468 600.7226,56.8818 C588.2676,58.2158 575.0726,65.3328 566.0276,70.2258 C556.9836,75.1178 552.3866,70.9668 548.8296,68.7428 C545.2706,66.5188 539.1916,64.1468 539.1916,64.1468 C539.1916,64.1468 543.9356,72.0048 546.9016,75.4148 C546.9016,75.4148 544.2326,84.4588 543.1946,89.9448 C543.1946,89.9448 549.2736,81.3458 558.0216,79.2698 C566.7696,77.1948 572.9966,81.3458 575.6656,81.4938 C578.3346,81.6418 587.8236,85.3488 622.0736,72.7458 C622.0736,72.7458 625.4836,71.2628 626.9666,68.4458 C626.9666,68.4458 625.0386,67.8528 620.7386,69.6328 C616.4386,71.4118 625.7796,67.1118 625.7796,67.1118" id="Fill-26" fill="#125A84"></path>
        <path d="M487.3558,199.7441 C487.3558,199.7441 474.7518,188.1801 462.2978,189.5141 C449.8438,190.8481 436.6478,197.9651 427.6038,202.8581 C418.5588,207.7511 413.9628,203.5991 410.4048,201.3751 C406.8458,199.1511 400.7668,196.7791 400.7668,196.7791 C400.7668,196.7791 405.5118,204.6371 408.4768,208.0471 C408.4768,208.0471 405.8078,217.0921 404.7708,222.5771 C404.7708,222.5771 410.8488,213.9771 419.5968,211.9021 C428.3448,209.8261 434.5718,213.9771 437.2408,214.1261 C439.9098,214.2741 449.3988,217.9811 483.6488,205.3791 C483.6488,205.3791 487.0588,203.8951 488.5418,201.0791 C488.5418,201.0791 486.6138,200.4851 482.3138,202.2651 C478.0138,204.0441 487.3558,199.7441 487.3558,199.7441" id="Fill-28" fill="#125A84"></path>
        <path d="M335.9149,195.9824 C335.9149,195.9824 323.3119,184.4174 310.8569,185.7524 C298.4029,187.0864 285.2069,194.2034 276.1629,199.0954 C267.1189,203.9894 262.5219,199.8364 258.9639,197.6134 C255.4049,195.3894 249.3269,193.0164 249.3269,193.0164 C249.3269,193.0164 254.0709,200.8754 257.0369,204.2854 C257.0369,204.2854 254.3679,213.3304 253.3299,218.8154 C253.3299,218.8154 259.4089,210.2154 268.1569,208.1404 C276.9039,206.0644 283.1309,210.2154 285.7999,210.3644 C288.4689,210.5124 297.9579,214.2194 332.2079,201.6164 C332.2079,201.6164 335.6179,200.1334 337.1009,197.3164 C337.1009,197.3164 335.1729,196.7234 330.8729,198.5034 C326.5739,200.2824 335.9149,195.9824 335.9149,195.9824" id="Fill-30" fill="#125A84"></path>
        <path d="M165.7786,127.9277 C165.7786,127.9277 153.1756,116.3637 140.7216,117.6977 C128.2666,119.0317 115.0706,126.1487 106.0266,131.0417 C96.9826,135.9347 92.3856,131.7827 88.8276,129.5587 C85.2696,127.3347 79.1906,124.9627 79.1906,124.9627 C79.1906,124.9627 83.9346,132.8207 86.9006,136.2307 C86.9006,136.2307 84.2316,145.2757 83.1936,150.7607 C83.1936,150.7607 89.2726,142.1607 98.0206,140.0857 C106.7676,138.0097 112.9956,142.1607 115.6636,142.3097 C118.3326,142.4577 127.8216,146.1647 162.0716,133.5627 C162.0716,133.5627 165.4826,132.0787 166.9646,129.2627 C166.9646,129.2627 165.0376,128.6687 160.7376,130.4487 C156.4376,132.2277 165.7786,127.9277 165.7786,127.9277" id="Fill-32" fill="#125A84"></path>
        <path d="M199.806,220.0019 C199.806,220.0019 187.203,208.4369 174.748,209.7719 C162.294,211.1059 149.098,218.2229 140.054,223.1149 C131.01,228.0079 126.413,223.8559 122.855,221.6329 C119.296,219.4079 113.218,217.0359 113.218,217.0359 C113.218,217.0359 117.962,224.8949 120.928,228.3049 C120.928,228.3049 118.259,237.3489 117.221,242.8349 C117.221,242.8349 123.3,234.2349 132.048,232.1589 C140.795,230.0839 147.022,234.2349 149.691,234.3839 C152.36,234.5319 161.849,238.2379 196.099,225.6359 C196.099,225.6359 199.509,224.1529 200.992,221.3359 C200.992,221.3359 199.064,220.7429 194.764,222.5229 C190.465,224.3019 199.806,220.0019 199.806,220.0019" id="Fill-34" fill="#125A84"></path>
        <path d="M909.5325,10.3383 C909.5325,10.3383 896.9295,-1.2267 884.4745,0.1083 C872.0205,1.4423 858.8245,8.5593 849.7805,13.4513 C840.7365,18.3443 836.1395,14.1923 832.5815,11.9693 C829.0225,9.7453 822.9435,7.3723 822.9435,7.3723 C822.9435,7.3723 827.6885,15.2313 830.6535,18.6413 C830.6535,18.6413 827.9855,27.6853 826.9475,33.1713 C826.9475,33.1713 833.0265,24.5713 841.7735,22.4963 C850.5215,20.4203 856.7495,24.5713 859.4185,24.7203 C862.0875,24.8683 871.5755,28.5753 905.8255,15.9723 C905.8255,15.9723 909.2355,14.4893 910.7185,11.6723 C910.7185,11.6723 908.7915,11.0793 904.4915,12.8593 C900.1915,14.6373 909.5325,10.3383 909.5325,10.3383" id="Fill-36" fill="#125A84"></path>
        <path d="M789.7943,62.3803 C789.7943,62.3803 777.1913,50.8163 764.7373,52.1503 C752.2823,53.4843 739.0873,60.6013 730.0423,65.4943 C720.9983,70.3873 716.4013,66.2353 712.8443,64.0113 C709.2853,61.7873 703.2063,59.4153 703.2063,59.4153 C703.2063,59.4153 707.9503,67.2733 710.9163,70.6833 C710.9163,70.6833 708.2473,79.7283 707.2093,85.2133 C707.2093,85.2133 713.2883,76.6143 722.0363,74.5383 C730.7843,72.4633 737.0113,76.6143 739.6803,76.7623 C742.3493,76.9103 751.8383,80.6173 786.0883,68.0143 C786.0883,68.0143 789.4983,66.5323 790.9813,63.7143 C790.9813,63.7143 789.0533,63.1223 784.7533,64.9013 C780.4533,66.6803 789.7943,62.3803 789.7943,62.3803" id="Fill-38" fill="#125A84"></path>
    </g>
</svg>