<?xml version="1.0" encoding="UTF-8"?>
<svg width="86px" height="45px" viewBox="0 0 86 45" version="1.1" xmlns="http://www.w3.org/2000/svg" xmlns:xlink="http://www.w3.org/1999/xlink">
    <!-- Generator: Sketch 50.2 (55047) - http://www.bohemiancoding.com/sketch -->
    <title>Fill 6</title>
    <desc>Created with Sketch.</desc>
    <defs></defs>
    <g id="Page-1" stroke="none" stroke-width="1" fill="none" fill-rule="evenodd">
        <g id="Artboard-1-Copy" transform="translate(-20.000000, -148.000000)" fill="#0D2D52">
            <path d="M55.0087028,182.526272 C56.3914992,183.080075 57.7620945,183.609476 58.9686522,184.056856 C57.5865336,183.736234 56.2938901,183.105156 55.0087028,182.526272 Z M37.7610283,182.293092 C39.2556686,182.913324 41.1739598,183.14786 42.8217922,182.945183 C41.2010734,183.271229 39.1580594,183.275296 37.7610283,182.293092 Z M37.8464363,175.12958 C37.8464363,175.12958 35.9945736,176.563909 35.4211198,178.356143 C35.5926137,176.913002 36.4582171,175.654236 37.8464363,175.12958 Z M27.709996,178.201594 C27.1026501,178.085681 26.4403991,177.933165 26.1699404,177.346825 L27.7221972,178.196171 C27.7194858,178.198882 27.7140631,178.200916 27.709996,178.201594 Z M25.7625577,175.747101 L25.8228856,175.103144 C25.9421857,175.064507 26.0492846,175.010279 26.163162,174.965541 L26.171296,176.504259 C25.9794669,176.31175 25.8947368,175.922664 25.7625577,175.747101 Z M25.8750794,173.634922 C25.9726885,173.617298 26.0662306,173.582728 26.1584171,173.551547 L26.163162,174.772354 L25.996413,174.855729 C26.0086141,174.413093 25.5192126,173.983337 25.8750794,173.634922 Z M24.137094,170.552063 L24.7234268,171.307866 C24.4644914,171.116034 24.192677,170.890988 24.137094,170.552063 Z M23.5039901,169.339391 L23.9310302,170.160267 C23.9140842,170.165011 23.8957825,170.167723 23.8788364,170.17179 C23.6578601,169.931831 23.5405936,169.649846 23.5039901,169.339391 Z M22.6655003,167.743056 L23.1271103,168.626293 C23.1243989,168.626971 23.1176205,168.627649 23.1108421,168.626971 C22.8573294,168.373456 22.6987145,168.080625 22.6655003,167.743056 Z M20.9803866,164.384312 C21.0651168,164.391091 21.1512026,164.400581 21.2338993,164.407359 L21.5687529,165.648501 C21.2508453,165.265516 20.8441405,164.902867 20.9803866,164.384312 Z M20.5167431,161.762391 L21.1986515,164.279923 L20.995977,164.238575 C20.4354021,163.623765 20.2462844,162.811024 20.3513498,162.055222 L20.55538,162.074879 C20.5153874,161.977947 20.5119982,161.872202 20.5167431,161.762391 Z M24.3092657,161.312977 C25.6751161,161.48515 26.9352233,161.862713 28.1512708,162.319583 L28.2590476,162.661897 C25.2534988,161.162494 22.0595101,161.082508 20.8522746,161.117078 C21.9605453,160.629027 23.2450547,161.373305 24.3092657,161.312977 Z M35.762074,165.17604 L35.0760985,164.048099 C35.1615065,163.993871 35.2523373,163.966079 35.3465573,163.929475 C35.6143046,164.546318 35.937635,165.048605 36.2155499,165.418032 C36.1165851,165.375328 35.9999964,165.325845 35.8908639,165.278395 C35.8481599,165.245181 35.7939326,165.212644 35.762074,165.17604 Z M35.0469514,163.692906 C34.7222653,162.482267 34.3162383,161.176051 35.0401729,160.066412 C35.048307,160.069123 35.0550854,160.070479 35.0584747,160.072512 C34.655159,161.45058 34.8591893,162.703246 35.2584379,163.706463 C35.1886202,163.702396 35.1215139,163.703751 35.0469514,163.692906 Z M35.3858721,159.230623 C35.3126652,159.390596 35.2381026,159.547857 35.1818418,159.703084 C35.1357486,159.507186 35.2062441,159.30722 35.3858721,159.230623 Z M36.1599669,157.904072 C36.18098,157.909495 36.1992817,157.915596 36.2202948,157.921018 C35.9857617,158.207071 35.7613962,158.509392 35.5695671,158.85035 C35.774953,158.543962 35.8156235,158.135897 36.1599669,157.904072 Z M36.95033,157.169284 C36.8242515,157.278417 36.6995287,157.388907 36.5809064,157.510242 C36.6364894,157.367216 36.7273202,157.232324 36.8811902,157.147592 C36.9055925,157.155049 36.9279612,157.162505 36.95033,157.169284 Z M37.9942058,156.399925 C37.7162908,156.570065 37.4478656,156.755118 37.1868967,156.963895 L37.1685949,156.939493 C37.4227855,156.632427 37.7007004,156.471099 37.9942058,156.399925 Z M37.6363055,165.516321 C37.4153292,165.7434 37.2858615,165.880326 37.2858615,165.880326 C37.2858615,165.880326 37.2418018,165.861346 37.1780847,165.833554 L37.6363055,165.516321 Z M105.756655,175.861658 C105.831217,175.492907 105.835962,175.084842 106,174.766931 C105.997289,174.74185 105.994577,174.71677 105.992544,174.692367 C105.94035,174.06129 105.543813,173.38683 104.947312,173.102133 C104.619915,173.130602 104.434186,172.906912 104.108145,172.965207 C104.264048,172.538162 104.768362,172.496813 104.90393,171.978936 C105.077458,171.434623 104.421307,170.871331 104.682954,170.601546 C98.6284748,165.809151 93.1881197,159.808151 86.4883353,156.220294 C83.690206,154.657852 80.6324634,153.628198 77.7916301,152.20946 C72.518024,150.320294 67.4342135,147.712607 61.4515853,148.025774 C60.8083138,148.554496 59.5027913,147.721419 59.3048616,148.882575 C58.7849572,149.068306 57.9857822,148.492134 57.6583848,149.137446 C57.6258484,149.489928 58.0359425,149.528566 58.1538869,149.833598 C57.5824666,149.927141 56.8686996,149.386895 56.3860765,149.813262 L56.8165058,150.560252 C56.2322065,150.799533 55.6519743,150.096603 55.1842637,150.668708 L55.2595041,151.119478 C54.8704231,151.169639 54.11463,150.774453 53.8333258,151.247592 C53.7777428,151.508564 53.9363577,151.700395 54.063114,151.91934 C53.4123863,151.945099 52.6837068,151.551946 52.1373666,152.002038 C52.212607,152.15591 52.2268417,152.332828 52.2397206,152.511781 C51.8221703,152.559908 50.9172521,152.149809 50.7864287,152.873752 C49.8455848,152.25352 49.3785521,153.447891 48.4532986,152.944926 C48.0289699,153.377394 47.2955455,152.718525 46.9186656,153.27165 C46.5587319,153.324522 46.1188128,153.018812 45.844287,153.405186 C45.7751472,154.134552 44.8695511,153.428233 44.9407244,154.231484 L44.780076,154.363665 C44.459457,154.33384 43.9375192,154.578543 43.5308143,154.805623 C41.3020718,154.680221 39.3648011,155.527532 37.3773701,156.252831 C36.2704551,157.354336 35.1587952,158.19148 34.6341459,159.674615 C33.984096,161.263494 34.4816316,163.136391 35.014415,164.662908 C34.586697,164.615459 34.1840592,164.509714 33.7841328,164.379567 C33.2222023,164.141642 32.6324803,163.892871 32.0420804,163.645456 C31.1920673,163.235357 30.3420542,162.806957 29.4059552,162.564964 C27.0823149,161.312299 24.2082673,160.862207 21.3999704,160.622248 C21.0115673,160.672409 20.3181355,160.519893 20.3466049,161.140125 C20.508609,161.599029 19.9751478,161.666136 20.0009058,162.020651 C20.1520644,163.508531 20.3513498,165.120457 21.5809541,166.151465 C21.654161,166.321606 21.7212672,166.49039 21.7815951,166.657141 C22.1503409,167.639345 22.384874,168.568676 23.1867604,169.39972 C23.282336,170.23483 23.8795143,170.467332 23.9167955,171.326167 C24.4644914,172.055533 26.2011211,172.399881 25.4697302,173.596963 C25.2094391,174.131108 25.7496787,174.949272 25.2812903,175.552558 C25.9428635,176.323951 25.2873909,177.646435 26.2966967,178.185325 C26.9338676,178.628639 27.5757834,178.636095 28.2061759,178.460532 L28.3288652,178.526961 L28.9911163,178.162278 C29.5340672,177.911474 30.0614278,177.603053 30.5542185,177.412577 C32.1071532,176.784211 33.479782,175.471894 35.0774542,175.013668 L35.9864395,174.895044 C35.9864395,174.895044 36.1701346,174.878098 36.4453382,174.864541 C36.6764821,174.880809 36.9130487,174.911991 37.1550381,174.977742 C36.0772703,176.326662 34.7181983,178.177869 35.3621476,180.09686 C35.394684,180.199216 35.4319653,180.296148 35.476025,180.391725 C35.480092,180.400537 35.4821255,180.409349 35.4841591,180.418161 C35.4875483,180.42155 35.4909375,180.424939 35.492971,180.427651 C35.604137,180.656086 35.745128,180.870964 35.9220446,181.070252 C36.5714167,181.948745 37.4498991,182.624561 38.3629515,183.020425 L38.6944159,183.259028 C41.6681062,183.896884 44.3069427,182.822493 46.9857719,182.223274 C47.5429576,181.952812 48.0215136,181.58474 48.391615,181.088554 C48.5448072,180.784877 48.4932912,180.439852 48.4051718,180.121941 L48.4133059,179.703708 C49.1772332,180.065001 50.1323117,180.492047 51.1822881,180.943494 C52.9101058,181.835544 54.7972163,182.585245 56.5040209,183.482718 C59.2669025,184.485257 61.4637864,185.579306 64.6218495,185.821298 C63.0926393,187.619633 59.1869172,187.18852 59.1713268,190.459144 C58.4623047,190.774343 58.5300888,191.60742 58.6514225,192.178169 C59.1903064,193.31899 60.5507341,192.976676 61.4739541,192.860764 C62.3049876,192.497437 63.2038053,192.347632 64.0788986,192.137499 C65.4718626,191.442703 66.7204465,190.737062 67.7426313,189.567772 C69.1247499,188.372723 70.7441131,187.791128 71.6612325,186.197505 C77.0785409,187.185809 81.7631029,184.715048 86.7493042,183.746401 C90.242221,182.665232 93.5277182,180.975353 97.135868,180.227685 C98.7010038,178.910624 100.741984,179.024503 102.29763,177.853857 L105.04221,176.738117 C105.448237,176.597124 105.620409,176.330051 105.71124,176.019596 L105.896968,175.816242 C105.896968,175.816242 105.844096,175.833188 105.756655,175.861658 Z" id="Fill-6"></path>
        </g>
    </g>
</svg>