<?xml version="1.0" encoding="UTF-8"?>
<svg width="1252px" height="309px" viewBox="0 0 1252 309" version="1.1" xmlns="http://www.w3.org/2000/svg" xmlns:xlink="http://www.w3.org/1999/xlink">
    <!-- Generator: Sketch 50.2 (55047) - http://www.bohemiancoding.com/sketch -->
    <title>fish-school-01</title>
    <desc>Created with Sketch.</desc>
    <defs></defs>
    <g id="Page-1" stroke="none" stroke-width="1" fill="none" fill-rule="evenodd">
        <g id="fish-school-01" fill="#15668C" fill-rule="nonzero">
            <path d="M1063.51,94.84 C1063.57255,94.139416 1063.72721,93.4501402 1063.97,92.79 C1063.97,92.79 1063.97,92.7 1063.97,92.65 C1063.86675,91.3715054 1063.11044,90.2370353 1061.97,89.65 C1061.36,89.65 1060.97,89.28 1060.4,89.39 C1060.69,88.59 1061.63,88.52 1061.89,87.55 C1062.15,86.58 1060.99,85.48 1061.48,84.97 C1050.15,75.97 1039.98,64.79 1027.48,58.08 C1022.24,55.15 1016.48,53.23 1011.21,50.57 C1001.35,47.04 991.84,42.16 980.65,42.75 C979.45,43.75 977.01,42.18 976.65,44.35 C975.65,44.7 974.18,43.62 973.57,44.83 C973.51,45.49 974.27,45.56 974.49,46.13 C973.43,46.31 972.09,45.3 971.19,46.13 L971.99,47.53 C970.9,47.98 969.81,46.66 968.99,47.73 L969.13,48.58 C968.4,48.67 966.99,47.93 966.46,48.82 C966.36,49.3 966.66,49.66 966.89,50.07 C965.68,50.07 964.31,49.39 963.29,50.23 C963.421794,50.5466108 963.48649,50.8871151 963.48,51.23 C962.7,51.32 961.01,50.55 960.77,51.91 C959.01,50.75 958.13,52.98 956.4,52.04 C955.61,52.85 954.24,51.62 953.53,52.65 C952.86,52.75 952.04,52.18 951.53,52.9 C951.4,54.27 949.71,52.9 949.84,54.45 L949.54,54.69 C948.707441,54.7732826 947.90771,55.058165 947.21,55.52 C943.04,55.29 939.41,56.87 935.7,58.23 C933.63,60.29 931.55,61.85 930.57,64.63 C929.35,67.63 930.28,71.1 931.28,73.96 C930.49738,73.8615841 929.726766,73.6840079 928.98,73.43 L925.72,72.05 C924.145728,71.2243568 922.49455,70.5545078 920.79,70.05 C916.44,67.71 911.07,66.87 905.79,66.42 C905.06,66.51 903.79,66.23 903.79,67.42 C904.09,68.28 903.09,68.42 903.14,69.06 C903.42,71.85 903.8,74.86 906.09,76.79 C906.23,77.11 906.36,77.42 906.47,77.74 C907.16,79.57 907.6,81.31 909.1,82.86 C909.28,84.43 910.39,84.86 910.46,86.47 C911.46,87.83 914.73,88.47 913.37,90.71 C912.88,91.71 913.89,93.24 913.01,94.37 C914.25,95.81 913.01,98.29 914.91,99.3 C915.953992,100.030493 917.28355,100.219899 918.49,99.81 L918.71,99.93 L919.95,99.25 C920.95,98.78 921.95,98.25 922.88,97.85 C925.78,96.67 928.35,94.22 931.34,93.36 L933,93 L933.86,92.94 C934.309379,92.9703742 934.754777,93.0440491 935.19,93.16 C933.19,95.68 930.63,99.16 931.84,102.73 C931.899557,102.917152 931.96967,103.10078 932.05,103.28 C932.05,103.28 932.05,103.28 932.05,103.33 C932.263618,103.765295 932.53618,104.169091 932.86,104.53 C934.036899,106.122344 935.608577,107.380376 937.42,108.18 L938.04,108.62 C943.6,109.82 948.54,107.81 953.55,106.69 C954.581568,106.200599 955.482763,105.474161 956.18,104.57 C956.405107,103.987664 956.405107,103.342336 956.18,102.76 L956.18,101.97 C957.61,102.65 959.39,103.45 961.36,104.29 C964.59,105.96 968.12,107.36 971.36,109.04 C976.53,110.92 980.63,112.96 986.54,113.42 C983.68,116.78 976.38,115.97 976.35,122.09 C975.02,122.68 975.15,124.24 975.35,125.3 C976.35,127.44 978.9,126.8 980.62,126.58 C982.200334,125.987228 983.830023,125.535466 985.49,125.23 C988.077753,124.105892 990.411254,122.46972 992.35,120.42 C994.93,118.19 997.96,117.1 999.68,114.12 C1009.81,115.97 1018.57,111.35 1027.89,109.54 C1034.43,107.54 1040.57,104.35 1047.32,102.95 C1050.25,100.49 1054.06,100.7 1056.97,98.52 L1062.11,96.43 C1062.73676,96.233777 1063.2125,95.719976 1063.36,95.08 L1063.71,94.7 L1063.51,94.84 Z M936.11,75.49 L935.46,76.17 L935.25,76.08 L936.11,75.49 Z M936.78,58.49 C936.255722,58.8125151 935.751465,59.1664969 935.27,59.55 C935.631486,59.0181107 936.164478,58.6263086 936.78,58.44 L936.78,58.49 Z M934.78,59.93 C934.538081,60.1301116 934.30771,60.3437883 934.09,60.57 C934.186314,60.2819703 934.385784,60.039757 934.65,59.89 L934.78,59.93 Z M933.3,61.31 L933.41,61.31 C932.957074,61.8503431 932.552203,62.4292089 932.2,63.04 C932.63,62.45 932.71,61.69 933.35,61.26 L933.3,61.31 Z M931.85,63.79 C931.72,64.08 931.58,64.38 931.47,64.67 C931.335169,64.2945834 931.52665,63.8804513 931.9,63.74 L931.85,63.79 Z M931.22,72.13 C930.61,69.87 929.85,67.42 931.22,65.35 C930.574327,67.5936887 930.704693,69.9896146 931.59,72.15 L931.22,72.13 Z M932.56,74.9 L931.27,72.8 C931.43019,72.7032137 931.601414,72.6259952 931.78,72.57 C932.206754,73.5633805 932.754206,74.5004315 933.41,75.36 L932.8,75.1 C932.731571,75.0206649 932.668117,74.9371721 932.61,74.85 L932.56,74.9 Z M911.14,67.68 C913.598928,68.0221741 916.008912,68.6532005 918.32,69.56 L918.52,70.2 C914.191659,68.1704273 909.448807,67.1807636 904.67,67.31 C906.79,66.35 909.2,67.74 911.19,67.63 L911.14,67.68 Z M904.04,68.52 L905.32,73.23 L904.94,73.15 C903.949144,72.0380861 903.505551,70.5423354 903.73,69.07 L904.12,69.07 C904.066383,68.8745779 904.056144,68.6697957 904.09,68.47 L904.04,68.52 Z M904.91,73.42 L905.39,73.42 L906.01,75.74 C905.47,75 904.71,74.34 905,73.37 L904.91,73.42 Z M908.06,79.71 L908.93,81.36 C908.458055,80.9126173 908.166343,80.3078495 908.11,79.66 L908.06,79.71 Z M909.63,82.71 L910.43,84.25 L910.33,84.25 C909.945156,83.7976075 909.717119,83.2327781 909.68,82.64 L909.63,82.71 Z M910.81,84.98 L911.91,86.39 C911.380544,86.0523091 911.003809,85.5212923 910.86,84.91 L910.81,84.98 Z M914.06,90.74 C914.243906,90.7053093 914.42455,90.6551306 914.6,90.59 L914.6,92.87 L914.29,93.03 C914.36,92.13 913.45,91.33 914.11,90.67 L914.06,90.74 Z M913.86,94.74 L913.97,93.53 C914.19,93.46 914.39,93.36 914.6,93.27 L914.6,96.15 C914.31,95.68 914.15,95 913.91,94.63 L913.86,94.74 Z M917.5,99.33 C916.36,99.11 915.12,98.82 914.62,97.73 L917.52,99.32 L917.5,99.33 Z M936.5,93.58 C936.5,93.58 933.04,96.26 931.97,99.58 C932.193238,96.8468522 933.949659,94.4778159 936.5,93.47 L936.5,93.58 Z M936.34,106.98 C939.349169,108.155882 942.601058,108.574816 945.81,108.2 C942.78,108.7 939,108.7 936.34,106.87 L936.34,106.98 Z M968.6,107.41 C971.19,108.41 973.75,109.41 976.01,110.28 C973.447699,109.533668 970.965591,108.535466 968.6,107.3 L968.6,107.41 Z" id="Shape"></path>
            <path d="M1251.1,144.66 C1251.15019,144.030547 1251.28819,143.411211 1251.51,142.82 C1251.51,142.82 1251.51,142.73 1251.51,142.69 C1251.4191,141.560166 1250.75973,140.554159 1249.76,140.02 C1249.21,140.02 1248.9,139.69 1248.35,139.79 C1248.61,139.08 1249.46,139.01 1249.69,138.14 C1249.92,137.27 1248.88,136.28 1249.32,135.82 C1239.15,127.82 1230.02,117.7 1218.77,111.68 C1214.07,109.06 1208.94,107.33 1204.17,104.95 C1195.31,101.77 1186.78,97.4 1176.73,97.95 C1175.65,98.84 1173.46,97.44 1173.13,99.39 C1172.26,99.7 1170.91,98.73 1170.36,99.82 C1170.36,100.41 1171,100.47 1171.2,100.99 C1170.2,101.14 1169.04,100.24 1168.2,100.99 L1168.92,102.25 C1167.92,102.65 1166.92,101.47 1166.18,102.43 L1166.31,103.19 C1165.65,103.27 1164.38,102.61 1163.91,103.4 C1163.82,103.84 1164.08,104.16 1164.3,104.53 C1163.21,104.53 1161.98,103.91 1161.06,104.67 C1161.17143,104.939956 1161.23244,105.228049 1161.24,105.52 C1160.54,105.6 1159.02,104.91 1158.8,106.13 C1157.22,105.13 1156.43,107.13 1154.88,106.25 C1154.17,106.98 1152.94,105.87 1152.3,106.8 C1151.7,106.89 1150.96,106.37 1150.5,107.02 C1150.38,108.25 1148.86,107.02 1148.98,108.41 L1148.71,108.63 C1147.96058,108.703745 1147.2401,108.957627 1146.61,109.37 C1142.87,109.16 1139.61,110.59 1136.28,111.8 C1134.43,113.65 1132.56,115.06 1131.68,117.55 C1130.59,120.22 1131.42,123.36 1132.32,125.92 C1131.61553,125.835752 1130.92178,125.678232 1130.25,125.45 L1127.33,124.22 C1125.91618,123.470403 1124.43245,122.860836 1122.9,122.4 C1119,120.3 1114.17,119.54 1109.46,119.14 C1108.81,119.22 1107.64,118.97 1107.69,120.01 C1107.96,120.78 1107.07,120.89 1107.11,121.49 C1107.36,123.99 1107.7,126.69 1109.76,128.42 C1109.88,128.71 1110,128.99 1110.1,129.27 C1110.72,130.92 1111.1,132.48 1112.46,133.88 C1112.62,135.28 1113.62,135.67 1113.68,137.11 C1114.6,138.34 1117.52,138.91 1116.29,140.92 C1115.85,141.82 1116.76,143.19 1115.97,144.21 C1117.09,145.5 1115.97,147.72 1117.68,148.63 C1118.61824,149.279305 1119.80717,149.449682 1120.89,149.09 L1121.09,149.2 L1122.2,148.59 C1123.12,148.17 1124,147.65 1124.83,147.33 C1127.43,146.27 1129.74,144.07 1132.42,143.33 L1133.95,143.13 L1134.72,143.08 C1135.12177,143.105705 1135.5202,143.169321 1135.91,143.27 C1134.1,145.54 1131.82,148.64 1132.91,151.87 C1132.97,152.04 1133.03,152.2 1133.1,152.36 C1133.10472,152.376332 1133.10472,152.393668 1133.1,152.41 C1133.28923,152.801376 1133.53151,153.164797 1133.82,153.49 C1134.87525,154.921659 1136.2895,156.049608 1137.92,156.76 L1138.47,157.17 C1143.47,158.24 1147.9,156.43 1152.4,155.43 C1153.3256,154.987273 1154.13405,154.332977 1154.76,153.52 C1154.96019,152.998554 1154.96019,152.421446 1154.76,151.9 L1154.76,151.2 C1156.05,151.8 1157.65,152.52 1159.41,153.28 C1162.31,154.78 1165.48,156.03 1168.35,157.54 C1172.99,159.22 1176.67,161.06 1181.98,161.47 C1179.41,164.47 1172.85,163.76 1172.82,169.25 C1171.63,169.78 1171.75,171.18 1171.95,172.14 C1172.86,174.06 1175.14,173.48 1176.69,173.29 C1178.10759,172.754496 1179.57002,172.346219 1181.06,172.07 C1183.37991,171.05797 1185.47424,169.592622 1187.22,167.76 C1189.54,165.76 1192.22,164.76 1193.79,162.1 C1202.89,163.76 1210.79,159.61 1219.13,157.98 C1224.99,156.17 1230.51,153.33 1236.57,152.08 C1239.19,149.86 1242.57,150.08 1245.23,148.08 L1249.84,146.21 C1250.40029,146.031927 1250.82568,145.572359 1250.96,145 L1251.28,144.66 L1251.1,144.66 Z M1136.73,127.29 L1136.14,127.9 L1135.96,127.82 L1136.73,127.29 Z M1137.33,111.98 C1136.85673,112.28533 1136.40255,112.619285 1135.97,112.98 C1136.3005,112.509962 1136.77953,112.16478 1137.33,112 L1137.33,111.98 Z M1135.58,113.27 C1135.36,113.46 1135.16,113.64 1134.96,113.84 C1135.04598,113.584629 1135.22432,113.370623 1135.46,113.24 L1135.58,113.27 Z M1134.25,114.51 L1134.35,114.51 C1133.94268,114.997837 1133.578,115.519755 1133.26,116.07 C1133.6,115.58 1133.67,114.9 1134.25,114.51 Z M1132.95,116.73 C1132.83,117 1132.7,117.27 1132.61,117.53 C1132.51852,117.203037 1132.68608,116.859333 1133,116.73 L1132.95,116.73 Z M1132.38,124.23 C1131.84,122.23 1131.15,120 1132.38,118.14 C1131.79679,120.152883 1131.91671,122.304397 1132.72,124.24 L1132.38,124.23 Z M1133.58,126.71 L1132.43,124.82 C1132.57325,124.739083 1132.72394,124.672109 1132.88,124.62 C1133.26907,125.506621 1133.75897,126.345482 1134.34,127.12 L1133.8,126.89 C1133.72232,126.835518 1133.64879,126.775353 1133.58,126.71 Z M1114.35,120.23 C1116.55964,120.534416 1118.72499,121.101771 1120.8,121.92 L1120.98,122.49 C1117.09566,120.668179 1112.83871,119.781171 1108.55,119.9 C1110.41,119.08 1112.57,120.33 1114.35,120.23 Z M1108,121 L1109.14,125.23 L1108.8,125.16 C1107.91117,124.16268 1107.515,122.820091 1107.72,121.5 L1108.06,121.5 C1108.00363,121.339738 1107.98314,121.169049 1108,121 Z M1108.77,125.41 L1109.2,125.41 L1109.76,127.49 C1109.22,126.87 1108.53,126.26 1108.76,125.39 L1108.77,125.41 Z M1111.6,131.05 L1112.38,132.53 C1111.94309,132.130178 1111.663,131.58772 1111.59,131 L1111.6,131.05 Z M1113.01,133.73 L1113.73,135.1 L1113.64,135.1 C1113.28071,134.718912 1113.05595,134.230755 1113,133.71 L1113.01,133.73 Z M1114.07,135.73 L1115.07,137 C1114.581,136.728847 1114.21824,136.276287 1114.06,135.74 L1114.07,135.73 Z M1116.99,140.91 C1117.15291,140.87395 1117.31326,140.827181 1117.47,140.77 L1117.47,142.82 L1117.19,142.96 C1117.21,142.22 1116.38,141.5 1117,140.92 L1116.99,140.91 Z M1116.8,144.45 L1116.9,143.37 C1117.1,143.31 1117.28,143.22 1117.48,143.14 L1117.48,145.72 C1117.16,145.41 1117,144.76 1116.79,144.46 L1116.8,144.45 Z M1120.07,148.57 C1119.07,148.38 1117.94,148.12 1117.49,147.14 L1120.09,148.57 L1120.07,148.57 Z M1137.07,143.42 C1137.07,143.42 1133.96,145.82 1133,148.83 C1133.2328,146.404604 1134.81046,144.316527 1137.08,143.43 L1137.07,143.42 Z M1136.93,155.42 C1139.62736,156.475847 1142.54262,156.853561 1145.42,156.52 C1142.71,157.1 1139.28,157.1 1136.94,155.45 L1136.93,155.42 Z M1165.93,155.81 C1168.25,156.74 1170.55,157.63 1172.57,158.38 C1170.26639,157.761376 1168.03159,156.910341 1165.9,155.84 L1165.93,155.81 Z" id="Shape"></path>
            <path d="M818.92,275.27 C818.97955,274.542002 819.13766,273.825458 819.39,273.14 C819.39,273.09 819.39,273.04 819.39,272.99 C819.285399,271.689202 818.533889,270.528119 817.39,269.9 C816.75,269.96 816.39,269.52 815.76,269.64 C816.06,268.81 817.04,268.73 817.3,267.72 C817.56,266.71 816.37,265.57 816.87,265.05 C805.11,255.74 794.54,244.05 781.53,237.11 C776.09,234.11 770.15,232.11 764.64,229.32 C754.39,225.65 744.51,220.58 732.89,221.19 C731.64,222.19 729.11,220.6 728.72,222.86 C727.72,223.22 726.16,222.1 725.53,223.35 C725.46,224.04 726.26,224.11 726.53,224.7 C725.42,224.89 724.03,223.84 723.09,224.7 L723.93,226.16 C722.79,226.62 721.67,225.25 720.76,226.37 L720.9,227.24 C720.15,227.34 718.68,226.57 718.13,227.49 C718.104144,227.965518 718.265698,228.432229 718.58,228.79 C717.32,228.85 715.9,228.08 714.84,228.96 C714.96982,229.277531 715.037706,229.616963 715.04,229.96 C714.23,230.05 712.47,229.25 712.22,230.66 C710.39,229.46 709.48,231.78 707.68,230.8 C706.86,231.64 705.43,230.36 704.68,231.43 C703.98,231.54 703.13,230.94 702.6,231.69 C702.46,233.11 700.7,231.74 700.84,233.3 L700.53,233.55 C699.662885,233.638233 698.829579,233.933148 698.1,234.41 C693.77,234.17 690.01,235.81 686.15,237.22 C684,239.36 681.84,240.99 680.82,243.87 C679.56,246.96 680.52,250.6 681.56,253.56 C680.74648,253.459679 679.94554,253.275362 679.17,253.01 C678.08,252.55 676.93,252.06 675.78,251.59 C674.147796,250.720665 672.432554,250.017148 670.66,249.49 C666.15,247.05 660.56,246.18 655.11,245.71 C654.36,245.81 653.01,245.51 653.11,246.71 C653.43,247.6 652.39,247.71 652.44,248.42 C652.74,251.31 653.12,254.42 655.51,256.42 C655.65,256.753333 655.78,257.086667 655.9,257.42 C656.62,259.32 657.07,261.13 658.63,262.74 C658.82,264.36 659.98,264.82 660.05,266.48 C661.11,267.9 664.49,268.57 663.05,270.9 C662.54,271.9 663.59,273.52 662.68,274.7 C663.96,276.19 662.68,278.76 664.68,279.81 C665.763148,280.563727 667.139134,280.760296 668.39,280.34 L668.63,280.47 L669.92,279.76 C670.97,279.28 672,278.68 672.92,278.31 C675.92,277.09 678.61,274.54 681.71,273.65 L683.47,273.42 C683.47,273.42 683.83,273.42 684.37,273.36 C684.83623,273.386716 685.298574,273.460423 685.75,273.58 C683.65,276.2 681.01,279.79 682.26,283.52 C682.33,283.72 682.4,283.91 682.48,284.09 C682.484336,284.109765 682.484336,284.130235 682.48,284.15 C682.693907,284.605094 682.973564,285.026265 683.31,285.4 C684.534224,287.053369 686.167798,288.359539 688.05,289.19 L688.69,289.65 C694.47,290.89 699.6,288.81 704.8,287.65 C705.876504,287.151414 706.813992,286.395929 707.53,285.45 C707.765467,284.845452 707.765467,284.174548 707.53,283.57 L707.53,282.76 C709.02,283.46 710.87,284.29 712.92,285.17 C716.27,286.9 719.92,288.36 723.25,290.1 C728.62,292.05 732.89,294.17 739.02,294.64 C736.02,298.14 728.46,297.3 728.43,303.64 C727.06,304.25 727.19,305.87 727.43,306.98 C728.48,309.2 731.12,308.53 732.92,308.31 C734.561267,307.690117 736.254677,307.218238 737.98,306.9 C740.661876,305.727982 743.080022,304.027457 745.09,301.9 C747.78,299.58 750.92,298.45 752.71,295.35 C763.23,297.27 772.33,292.47 782.02,290.59 C788.8,288.49 795.18,285.21 802.19,283.76 C805.19,281.2 809.19,281.42 812.19,279.14 L817.52,276.98 C818.162621,276.76385 818.651978,276.23685 818.82,275.58 L819.18,275.19 L818.92,275.27 Z M686.59,255.17 L685.91,255.88 L685.7,255.78 L686.59,255.17 Z M687.29,237.46 C686.74429,237.789994 686.219918,238.154049 685.72,238.55 C686.107331,238.021951 686.659876,237.638337 687.29,237.46 Z M685.29,238.95 C685.04,239.17 684.8,239.38 684.57,239.62 C684.676774,239.324153 684.881405,239.073655 685.15,238.91 L685.29,238.95 Z M683.75,240.38 L683.87,240.38 C683.397075,240.944713 682.975407,241.550441 682.61,242.19 C683,241.62 683.05,240.83 683.72,240.38 L683.75,240.38 Z M682.25,242.96 C682.11,243.27 681.96,243.57 681.85,243.88 C681.754686,243.536379 681.907777,243.17227 682.22,243 L682.25,242.96 Z M681.59,251.63 C680.96,249.28 680.17,246.74 681.59,244.58 C680.920192,246.909984 681.05763,249.397969 681.98,251.64 C681.84,251.64 681.71,251.65 681.56,251.63 L681.59,251.63 Z M682.98,254.51 L681.65,252.32 C681.813693,252.223166 681.988231,252.145967 682.17,252.09 C682.620734,253.114908 683.18779,254.084606 683.86,254.98 L683.23,254.71 C683.149669,254.647668 683.072882,254.580898 683,254.51 L682.98,254.51 Z M660.7,247 C663.256659,247.371007 665.760628,248.042312 668.16,249 L668.37,249.66 C663.875784,247.553542 658.951577,246.526238 653.99,246.66 C656.14,245.67 658.63,247.12 660.7,247 Z M653.33,247.88 L654.66,252.77 L654.27,252.69 C653.242357,251.533259 652.780842,249.980225 653.01,248.45 L653.41,248.45 C653.347033,248.266887 653.319873,248.073372 653.33,247.88 Z M654.23,252.97 L654.73,252.97 L655.38,255.38 C654.76,254.68 654,254 654.23,253 L654.23,252.97 Z M657.51,259.49 L658.4,261.21 C657.905322,260.762984 657.589179,260.152012 657.51,259.49 Z M659.14,262.6 L659.97,264.19 L659.87,264.19 C659.461284,263.752782 659.20517,263.194946 659.14,262.6 Z M660.37,264.95 L661.51,266.42 C660.960308,266.112324 660.551578,265.603205 660.37,265 L660.37,264.95 Z M663.74,270.95 C663.92624,270.90722 664.109875,270.853799 664.29,270.79 L664.29,273.16 L663.97,273.32 C664,272.45 663.05,271.62 663.74,270.94 L663.74,270.95 Z M663.53,275.05 L663.64,273.8 C663.87,273.73 664.08,273.62 664.3,273.53 L664.3,276.53 C664,276.14 663.78,275.38 663.53,275 L663.53,275.05 Z M667.31,279.82 C666.13,279.6 664.84,279.3 664.31,278.16 L667.31,279.81 L667.31,279.82 Z M687,273.82 C687,273.82 683.4,276.61 682.29,280.09 C682.555737,277.285148 684.376991,274.868411 687,273.84 L687,273.82 Z M686.83,287.74 C689.953898,288.959222 693.329589,289.391914 696.66,289 C693.52,289.66 689.55,289.67 686.83,287.76 L686.83,287.74 Z M720.34,288.19 C723.02,289.27 725.69,290.29 728.03,291.19 C725.373974,290.454781 722.797893,289.456508 720.34,288.21 L720.34,288.19 Z" id="Shape"></path>
            <path d="M951,221 C951.045269,220.446065 951.166401,219.900972 951.36,219.38 C951.36,219.38 951.36,219.31 951.36,219.28 C951.283876,218.284323 950.702539,217.397217 949.82,216.93 C949.34,216.93 949.07,216.64 948.58,216.73 C948.82,216.1 949.58,216.04 949.76,215.27 C949.94,214.5 949.05,213.64 949.43,213.27 C940.5,206.2 932.48,197.35 922.59,192.05 C918.46,189.75 913.95,188.23 909.76,186.14 C901.98,183.35 894.48,179.5 885.65,179.96 C884.71,180.75 882.78,179.52 882.49,181.23 C881.72,181.5 880.49,180.65 880.06,181.6 C880.06,182.12 880.62,182.18 880.79,182.6 C879.95,182.74 878.89,181.94 878.18,182.6 L878.82,183.7 C877.95,184.06 877.1,183.02 876.41,183.86 L876.52,184.53 C875.95,184.6 874.83,184.02 874.42,184.72 C874.33,185.1 874.57,185.39 874.76,185.72 C873.76,185.72 872.76,185.18 871.91,185.84 C872.005709,186.078645 872.05656,186.332902 872.06,186.59 C871.45,186.66 870.06,186.06 869.92,187.13 C868.53,186.21 867.84,187.97 866.48,187.23 C865.85,187.87 864.77,186.9 864.22,187.71 C863.68,187.79 863.04,187.34 862.63,187.91 C862.53,188.99 861.19,187.91 861.3,189.13 L861.06,189.32 C860.402247,189.38765 859.770791,189.614151 859.22,189.98 C855.93,189.79 853.07,191.04 850.14,192.11 C848.51,193.74 846.87,194.97 846.09,197.11 C845.09,199.45 845.87,202.22 846.65,204.47 C846.03399,204.391713 845.427538,204.250989 844.84,204.05 L842.27,202.97 C841.029159,202.309926 839.72617,201.773993 838.38,201.37 C834.95,199.53 830.71,198.86 826.57,198.51 C825.99,198.58 824.97,198.36 825.01,199.27 C825.25,199.95 824.47,200.05 824.5,200.57 C824.73,202.77 825.02,205.14 826.83,206.66 C826.94,206.92 827.04,207.16 827.13,207.41 C827.524033,208.87679 828.230121,210.24121 829.2,211.41 C829.35,212.64 830.2,212.98 830.28,214.25 C831.09,215.32 833.65,215.83 832.57,217.6 C832.19,218.39 832.99,219.6 832.29,220.48 C833.29,221.62 832.29,223.57 833.79,224.37 C834.613809,224.941893 835.659647,225.090239 836.61,224.77 L836.79,224.87 L837.79,224.33 C838.59,223.96 839.37,223.51 840.09,223.23 C842.38,222.3 844.41,220.37 846.77,219.69 L848.11,219.51 L848.78,219.51 C849.118234,219.532621 849.453291,219.589581 849.78,219.68 C848.19,221.68 846.19,224.4 847.14,227.23 C847.182844,227.377021 847.236318,227.520733 847.3,227.66 C847.3,227.66 847.3,227.66 847.3,227.66 C847.465205,228.001141 847.677254,228.317531 847.93,228.6 C848.859596,229.85628 850.100303,230.848846 851.53,231.48 L852.02,231.83 C856.41,232.77 860.3,231.19 864.25,230.3 C865.070519,229.923505 865.785099,229.34978 866.33,228.63 C866.506232,228.169622 866.506232,227.660378 866.33,227.2 L866.33,226.59 C867.46,227.12 868.87,227.75 870.42,228.42 C872.96,229.73 875.75,230.84 878.27,232.16 C882.34,233.64 885.58,235.26 890.27,235.61 C888.02,238.27 882.27,237.61 882.27,242.46 C881.27,242.92 881.27,244.15 881.5,244.99 C882.3,246.67 884.31,246.17 885.67,245.99 C886.91512,245.518282 888.200356,245.160156 889.51,244.92 C891.549955,244.033513 893.390021,242.744447 894.92,241.13 C896.92,239.37 899.34,238.51 900.7,236.13 C908.7,237.59 915.6,233.94 922.96,232.51 C928.11,230.92 932.96,228.42 938.28,227.32 C940.59,225.38 943.6,225.55 945.89,223.82 L949.94,222.17 C950.43957,222.021996 950.821323,221.617337 950.94,221.11 L951.21,220.81 L951,221 Z M850.5,205.74 C850.17,206.07 849.98,206.28 849.98,206.28 L849.82,206.21 L850.5,205.74 Z M851.03,192.29 C850.614808,192.539111 850.217207,192.816429 849.84,193.12 C850.116163,192.704057 850.525031,192.393881 851,192.24 L851.03,192.29 Z M849.49,193.42 C849.3,193.59 849.12,193.75 848.94,193.93 C849.024908,193.70446 849.183469,193.514188 849.39,193.39 L849.49,193.42 Z M848.32,194.51 L848.41,194.51 C848.043427,194.941451 847.709186,195.399361 847.41,195.88 C847.71,195.4 847.77,194.8 848.28,194.46 L848.32,194.51 Z M847.18,196.46 C847.07,196.7 846.96,196.93 846.88,197.16 C846.760397,196.880355 846.872974,196.555614 847.14,196.41 L847.18,196.46 Z M846.68,203.05 C846.2,201.26 845.6,199.34 846.68,197.7 C846.186578,199.452272 846.299336,201.319824 847,203 L846.68,203.05 Z M847.74,205.24 L846.74,203.57 C846.866762,203.498971 847.000887,203.441968 847.14,203.4 C847.47938,204.179723 847.912577,204.915151 848.43,205.59 L847.95,205.39 C847.856466,205.337192 847.772051,205.26966 847.7,205.19 L847.74,205.24 Z M830.84,199.54 C832.781483,199.809355 834.684553,200.3061 836.51,201.02 L836.67,201.53 C833.256571,199.921308 829.511912,199.140172 825.74,199.25 C827.33,198.48 829.23,199.58 830.8,199.49 L830.84,199.54 Z M825.24,200.2 L826.24,203.91 L825.94,203.85 C825.159012,202.972032 824.810658,201.791295 824.99,200.63 L825.29,200.63 C825.22657,200.478112 825.195902,200.31455 825.2,200.15 L825.24,200.2 Z M825.93,204.07 L826.3,204.07 L826.8,205.9 C826.29,205.32 825.69,204.78 825.89,204 L825.93,204.07 Z M828.41,209.02 L829.1,210.33 C828.704565,209.988943 828.445379,209.516727 828.37,209 L828.41,209.02 Z M829.65,211.38 L830.28,212.59 L830.21,212.59 C829.876717,212.247524 829.665805,211.804609 829.61,211.33 L829.65,211.38 Z M830.59,213.17 L831.45,214.28 C831.002046,214.034956 830.676056,213.614792 830.55,213.12 L830.59,213.17 Z M833.15,217.71 C833.293619,217.683968 833.434306,217.643771 833.57,217.59 L833.57,219.39 L833.33,219.52 C833.31,218.81 832.58,218.18 833.11,217.66 L833.15,217.71 Z M832.98,220.83 L833.07,219.88 C833.25,219.82 833.41,219.74 833.58,219.68 L833.58,221.95 C833.26,221.61 833.14,221 832.94,220.78 L832.98,220.83 Z M835.86,224.45 C834.96,224.28 833.98,224.06 833.59,223.19 L835.88,224.44 L835.86,224.45 Z M850.81,219.92 C849.229922,221.175071 847.997462,222.81376 847.23,224.68 C847.403839,222.535636 848.774289,220.673528 850.77,219.87 L850.81,219.92 Z M850.68,230.49 C853.051053,231.428053 855.615703,231.771379 858.15,231.49 C855.72,231.88 852.71,231.89 850.64,230.44 L850.68,230.49 Z M876.13,230.83 C878.13,231.65 880.19,232.43 881.97,233.09 C879.937822,232.518156 877.968,231.744297 876.09,230.78 L876.13,230.83 Z" id="Shape"></path>
            <path d="M819.11,48.5 C819.168445,47.8513539 819.309589,47.212843 819.53,46.6 C819.53,46.6 819.53,46.51 819.53,46.47 C819.432342,45.3002982 818.746675,44.2604948 817.71,43.71 C817.14,43.76 816.82,43.37 816.25,43.47 C816.53,42.73 817.4,42.66 817.64,41.76 C817.88,40.86 816.8,39.83 817.25,39.36 C806.73,31.04 797.25,20.61 785.64,14.36 C780.78,11.64 775.46,9.85 770.53,7.36 C761.36,4.07 752.53,-0.46 742.13,0.09 C741.01,1.01 738.75,-0.44 738.4,1.58 C737.5,1.9 736.11,0.9 735.54,2.02 C735.54,2.63 736.2,2.7 736.4,3.23 C735.4,3.39 734.17,2.45 733.33,3.23 L734.08,4.53 C733.08,4.95 732.08,3.72 731.24,4.72 L731.37,5.5 C730.7,5.59 729.37,4.9 728.89,5.72 C728.8,6.18 729.07,6.51 729.29,6.89 C728.16,6.94 726.9,6.25 725.95,7.03 C726.061541,7.31387069 726.122462,7.61509495 726.13,7.92 C725.4,8.01 723.83,7.29 723.6,8.55 C721.97,7.47 721.16,9.55 719.55,8.67 C718.81,9.43 717.55,8.28 716.88,9.24 C716.25,9.33 715.49,8.8 715.01,9.47 C714.89,10.74 713.32,9.47 713.44,10.91 L713.16,11.14 C712.384818,11.2164087 711.639966,11.4807112 710.99,11.91 C707.12,11.69 703.75,13.16 700.3,14.42 C698.38,16.34 696.45,17.79 695.53,20.42 C694.4,23.18 695.27,26.42 696.2,29.09 C695.471471,28.9968071 694.754399,28.8292668 694.06,28.59 L691.06,27.32 C689.600758,26.5402324 688.066252,25.910348 686.48,25.44 C682.48,23.26 677.48,22.44 672.57,22.06 C671.89,22.15 670.69,21.89 670.74,22.96 C671.02,23.76 670.09,23.88 670.14,24.49 C670.4,27.08 670.75,29.88 672.88,31.67 C673.01,31.97 673.13,32.26 673.23,32.55 C673.87,34.26 674.23,35.87 675.67,37.32 C675.84,38.77 676.88,39.17 676.94,40.66 C677.94,41.93 680.94,42.53 679.64,44.61 C679.19,45.54 680.13,46.96 679.31,48.01 C680.46,49.35 679.31,51.65 681.08,52.58 C682.043312,53.2595539 683.273337,53.4379261 684.39,53.06 L684.61,53.18 L685.76,52.54 C686.7,52.11 687.62,51.54 688.47,51.24 C691.17,50.15 693.56,47.87 696.33,47.07 L697.91,46.86 L698.71,46.86 C699.125783,46.8842222 699.537962,46.9512431 699.94,47.06 C698.07,49.4 695.71,52.62 696.83,55.95 C696.884504,56.1245221 696.951339,56.2949512 697.03,56.46 C697.225978,56.8613934 697.474859,57.2347154 697.77,57.57 C698.866532,59.0385985 700.323511,60.1993595 702,60.94 L702.58,61.36 C707.75,62.47 712.33,60.6 716.99,59.56 C717.955017,59.1034812 718.792956,58.4166458 719.43,57.56 C719.64485,57.0206074 719.64485,56.4193926 719.43,55.88 L719.43,55.15 C720.76,55.78 722.43,56.52 724.24,57.3 C727.24,58.85 730.52,60.16 733.49,61.72 C738.29,63.46 742.1,65.36 747.59,65.78 C744.93,68.9 738.15,68.16 738.12,73.84 C736.89,74.39 737.01,75.84 737.22,76.84 C738.15,78.84 740.52,78.22 742.12,78.02 C743.591138,77.4710689 745.106708,77.0495194 746.65,76.76 C749.050362,75.7197413 751.214183,74.2023453 753.01,72.3 C755.42,70.22 758.23,69.21 759.82,66.44 C769.24,68.16 777.38,63.87 786.04,62.18 C792.11,60.31 797.82,57.37 804.04,56.07 C806.76,53.78 810.3,53.98 813.04,51.95 L817.87,50 C818.429193,49.8112877 818.85461,49.3519881 819,48.78 L819.32,48.43 L819.11,48.5 Z M700.74,30.5 L700.13,31.13 L699.94,31.05 L700.74,30.5 Z M701.36,14.66 C700.871877,14.9622235 700.404197,15.2962804 699.96,15.66 C700.302846,15.1869348 700.796644,14.8448033 701.36,14.69 L701.36,14.66 Z M699.55,16 C699.33,16.19 699.11,16.39 698.91,16.6 C698.996042,16.3310384 699.182226,16.1054686 699.43,15.97 L699.55,16 Z M698.18,17.28 L698.28,17.28 C697.848488,17.8153621 697.470042,18.3914045 697.15,19 C697.51,18.41 697.58,17.7 698.18,17.3 L698.18,17.28 Z M696.83,19.59 C696.696529,19.8558513 696.579639,20.1297081 696.48,20.41 C696.387423,20.0937544 696.53491,19.756641 696.83,19.61 L696.83,19.59 Z M696.24,27.34 C695.68,25.24 694.97,22.97 696.24,21.04 C695.639578,23.1223741 695.762961,25.3468037 696.59,27.35 C696.473742,27.3619953 696.356753,27.3653379 696.24,27.36 L696.24,27.34 Z M697.48,29.92 L696.29,27.92 C696.437823,27.8316833 696.595589,27.7611919 696.76,27.71 C697.163572,28.6277586 697.670157,29.4966695 698.27,30.3 L697.71,30.05 C697.630081,30.0205622 697.553081,29.9837361 697.48,29.94 L697.48,29.92 Z M677.58,23.2 C679.869747,23.5350118 682.111934,24.1391938 684.26,25 L684.45,25.6 C680.429599,23.7085975 676.021391,22.7872237 671.58,22.91 C673.5,22 675.73,23.33 677.58,23.22 L677.58,23.2 Z M671,24 L672.19,28.37 L671.84,28.3 C670.913696,27.2665005 670.502296,25.8706806 670.72,24.5 L671.07,24.5 C671.01634,24.3390038 670.992616,24.1695424 671,24 Z M671.81,28.55 L672.25,28.55 L672.83,30.71 C672.27,30.09 671.56,29.46 671.8,28.56 L671.81,28.55 Z M674.74,34.39 L675.54,35.92 C675.098482,35.5252706 674.811435,34.9866155 674.73,34.4 L674.74,34.39 Z M676.19,37.16 L676.94,38.59 L676.85,38.59 C676.482302,38.1993059 676.247759,37.7022146 676.18,37.17 L676.19,37.16 Z M677.29,39.27 L678.29,40.58 C677.797077,40.2945102 677.434787,39.8281954 677.28,39.28 L677.29,39.27 Z M680.29,44.62 C680.459457,44.5839443 680.626459,44.5371839 680.79,44.48 L680.79,46.6 L680.51,46.75 C680.54,46 679.69,45.24 680.3,44.63 L680.29,44.62 Z M680.1,48.3 L680.2,47.18 C680.41,47.11 680.6,47.01 680.8,46.94 L680.8,49.61 C680.49,49.29 680.34,48.61 680.11,48.31 L680.1,48.3 Z M683.48,52.56 C682.48,52.36 681.28,52.09 680.81,51.07 L683.5,52.55 L683.48,52.56 Z M701.1,47.22 C701.1,47.22 697.88,49.71 696.88,52.83 C697.116884,50.3133512 698.754025,48.1459783 701.11,47.23 L701.1,47.22 Z M701,59.68 C703.791823,60.7763928 706.811644,61.1646064 709.79,60.81 C706.94,61.38 703.39,61.39 701,59.68 Z M731,60.08 C733.4,61.08 735.78,61.97 737.88,62.74 C735.479996,62.0886327 733.151607,61.1974793 730.93,60.08 L731,60.08 Z" id="Shape"></path>
            <path d="M722,121.13 C722.072932,120.354749 722.244311,119.591944 722.51,118.86 C722.51,118.81 722.51,118.76 722.51,118.71 C722.392418,117.318719 721.579841,116.081044 720.35,115.42 C719.67,115.48 719.29,115.01 718.61,115.13 C718.93,114.25 719.98,114.13 720.26,113.13 C720.54,112.13 719.26,110.84 719.8,110.28 C707.27,100.36 696,87.93 682.13,80.5 C676.33,77.27 670,75.14 664.13,72.2 C653.21,68.29 642.68,62.89 630.3,63.53 C628.96,64.63 626.3,62.9 625.85,65.31 C624.78,65.69 623.12,64.5 622.44,65.84 C622.38,66.57 623.22,66.65 623.44,67.28 C622.26,67.47 620.78,66.35 619.78,67.28 L620.67,68.82 C619.46,69.32 618.26,67.82 617.29,69.05 L617.44,69.98 C616.64,70.09 615.07,69.27 614.44,70.25 C614.33,70.79 614.66,71.18 614.92,71.64 C613.57,71.64 612.06,70.88 610.92,71.81 C611.050527,72.1276979 611.121703,72.4666338 611.13,72.81 C610.27,72.91 608.39,72.06 608.13,73.56 C606.13,72.28 605.22,74.75 603.3,73.71 C602.42,74.61 600.9,73.24 600.13,74.39 C599.38,74.5 598.47,73.86 597.9,74.66 C597.76,76.17 595.9,74.71 596.03,76.37 L595.7,76.65 C594.775423,76.7378011 593.886305,77.0501941 593.11,77.56 C588.5,77.3 584.48,79.06 580.37,80.56 C578.08,82.84 575.77,84.56 574.69,87.64 C573.34,90.93 574.37,94.81 575.48,97.97 C574.611556,97.8692804 573.756572,97.6748135 572.93,97.39 C571.77,96.89 570.54,96.39 569.32,95.87 C567.578938,94.9437921 565.749899,94.1934169 563.86,93.63 C559.05,91.04 553.1,90.1 547.29,89.63 C546.48,89.73 545.05,89.41 545.1,90.7 C545.44,91.65 544.34,91.79 544.39,92.52 C544.7,95.6 545.11,98.94 547.66,101.08 C547.81,101.43 547.95,101.78 548.08,102.08 C548.84,104.08 549.32,106.08 550.98,107.76 C551.18,109.49 552.42,109.97 552.5,111.76 C553.63,113.27 557.23,113.98 555.71,116.46 C555.17,117.57 556.29,119.26 555.32,120.51 C556.69,122.11 555.32,124.85 557.42,125.96 C558.583388,126.783956 560.072766,126.996192 561.42,126.53 L561.67,126.67 L563.04,125.91 C564.17,125.4 565.26,124.76 566.28,124.36 C569.5,123.06 572.34,120.36 575.65,119.36 L577.53,119.11 C577.53,119.11 577.91,119.11 578.53,119.05 C579.02678,119.074225 579.519563,119.151327 580,119.28 C577.77,122.07 574.95,125.91 576.29,129.88 C576.351785,130.088638 576.428654,130.292508 576.52,130.49 C576.52,130.49 576.52,130.49 576.52,130.55 C576.755948,131.031085 577.055276,131.478396 577.41,131.88 C578.717611,133.629057 580.458012,135.007593 582.46,135.88 L583.14,136.38 C589.3,137.7 594.77,135.47 600.31,134.23 C601.459066,133.698812 602.458792,132.891473 603.22,131.88 C603.47004,131.236778 603.47004,130.523222 603.22,129.88 L603.22,129.02 C604.8,129.76 606.78,130.65 608.95,131.58 C612.53,133.43 616.44,134.98 619.95,136.84 C625.67,138.92 630.22,141.18 636.76,141.68 C633.59,145.41 625.51,144.51 625.47,151.29 C624.01,151.94 624.15,153.66 624.4,154.85 C625.51,157.21 628.33,156.5 630.24,156.26 C631.99303,155.604151 633.79986,155.102254 635.64,154.76 C638.498513,153.514088 641.07653,151.704715 643.22,149.44 C646.08,146.97 649.44,145.76 651.34,142.44 C662.55,144.49 672.25,139.37 682.58,137.37 C689.81,135.13 696.58,131.63 704.09,130.08 C707.33,127.35 711.55,127.59 714.77,125.17 L720.46,122.86 C721.148775,122.638619 721.671989,122.073699 721.84,121.37 L722.23,120.95 L722,121.13 Z M581,99.71 L580.27,100.46 L580.05,100.37 L581,99.71 Z M581.74,80.83 C581.13702,81.1846878 580.555967,81.5753962 580,82 C580.424855,81.4270572 581.031051,81.0147029 581.72,80.83 L581.74,80.83 Z M579.57,82.43 C579.31,82.65 579.06,82.88 578.81,83.13 C578.920341,82.8139085 579.140304,82.5478243 579.43,82.38 L579.57,82.43 Z M577.92,84 L578.04,84 C577.538052,84.6031366 577.089685,85.2489187 576.7,85.93 C577.12,85.27 577.2,84.43 577.92,84 Z M576.32,86.75 C576.16,87.08 576.01,87.4 575.89,87.75 C575.723311,87.3413018 575.914525,86.8743835 576.32,86.7 L576.32,86.75 Z M575.61,95.98 C574.94,93.48 574.1,90.77 575.61,88.48 C574.890024,90.9606419 575.034598,93.6123374 576.02,96 C575.882063,95.9848385 575.745153,95.9614637 575.61,95.93 L575.61,95.98 Z M577.09,99.06 L575.67,96.72 C575.849994,96.6224587 576.037211,96.5388798 576.23,96.47 C576.712649,97.5640255 577.316419,98.6004975 578.03,99.56 L577.36,99.27 C577.264656,99.1855071 577.174493,99.0953436 577.09,99 L577.09,99.06 Z M553.38,91.06 C556.12105,91.4268531 558.80739,92.1253015 561.38,93.14 L561.61,93.85 C556.815577,91.6034714 551.562744,90.5077043 546.27,90.65 C548.52,89.59 551.18,91.13 553.38,91 L553.38,91.06 Z M545.53,91.99 L546.94,97.2 L546.52,97.11 C545.425058,95.876646 544.934176,94.2208377 545.18,92.59 L545.61,92.59 C545.531177,92.382987 545.503726,92.159948 545.53,91.94 L545.53,91.99 Z M546.53,97.42 L547.05,97.42 L547.74,99.98 C547.05,99.19 546.2,98.44 546.49,97.37 L546.53,97.42 Z M550.02,104.37 L550.97,106.2 C550.423825,105.715999 550.077927,105.045597 550,104.32 L550.02,104.37 Z M551.75,107.68 L552.64,109.38 L552.53,109.38 C552.071115,108.903087 551.782816,108.287814 551.71,107.63 L551.75,107.68 Z M553.06,110.19 L554.28,111.75 C553.650173,111.412085 553.187232,110.829792 553,110.14 L553.06,110.19 Z M556.66,116.57 C556.859568,116.523937 557.056519,116.467189 557.25,116.4 L557.25,118.93 L556.9,119.1 C556.9,118.13 555.88,117.24 556.62,116.52 L556.66,116.57 Z M556.43,120.94 L556.55,119.61 C556.8,119.53 557.02,119.42 557.26,119.33 L557.26,122.51 C556.84,122.06 556.66,121.26 556.39,120.89 L556.43,120.94 Z M560.43,126.03 C559.17,125.79 557.8,125.47 557.24,124.26 L560.46,126.02 L560.43,126.03 Z M581.43,119.67 C581.43,119.67 577.6,122.67 576.43,126.35 C576.676345,123.342636 578.606054,120.734816 581.41,119.62 L581.43,119.67 Z M581.25,134.5 C584.580681,135.799038 588.178839,136.262541 591.73,135.85 C588.36,136.47 584.13,136.48 581.23,134.45 L581.25,134.5 Z M616.97,134.98 C619.83,136.13 622.67,137.22 625.16,138.15 C622.341128,137.34644 619.608006,136.267928 617,134.93 L616.97,134.98 Z" id="Shape"></path>
            <path d="M376.15,97 C376.195741,96.4600904 376.31345,95.928718 376.5,95.42 C376.5,95.42 376.5,95.35 376.5,95.31 C376.415843,94.3405925 375.84787,93.4792301 374.99,93.02 C374.52,93.02 374.25,92.74 373.78,92.82 C374.01,92.21 374.78,92.15 374.93,91.4 C375.08,90.65 374.24,89.81 374.61,89.4 C365.89,82.5 358.06,73.86 348.41,68.69 C344.41,66.44 339.97,64.96 335.88,62.91 C328.29,60.19 320.97,56.44 312.35,56.91 C311.42,57.67 309.54,56.47 309.26,58.14 C308.51,58.41 307.36,57.58 306.89,58.51 C306.84,59.02 307.43,59.07 307.6,59.51 C306.78,59.65 305.75,58.87 305.05,59.51 L305.68,60.59 C304.83,60.93 304,59.92 303.32,60.74 L303.43,61.39 C302.87,61.46 301.78,60.89 301.38,61.58 C301.3,61.95 301.53,62.23 301.71,62.58 C300.77,62.58 299.71,62.06 298.94,62.7 C299.028662,62.9368397 299.076016,63.18714 299.08,63.44 C298.48,63.51 297.18,62.92 296.99,63.96 C295.63,63.07 294.99,64.79 293.63,64.06 C293.02,64.68 291.96,63.73 291.42,64.53 C290.9,64.61 290.27,64.17 289.87,64.72 C289.77,65.72 288.47,64.72 288.57,65.91 L288.34,66.1 C287.697115,66.1648196 287.079502,66.3844155 286.54,66.74 C283.33,66.56 280.54,67.74 277.68,68.83 C276.08,70.41 274.48,71.62 273.73,73.75 C272.79,76.04 273.51,78.75 274.28,80.94 C273.674126,80.8650235 273.077623,80.7276269 272.5,80.53 L270,79.43 C268.793023,78.785029 267.523035,78.265641 266.21,77.88 C262.86,76.07 258.72,75.42 254.68,75.08 C254.12,75.15 253.12,74.93 253.16,75.82 C253.39,76.49 252.63,76.58 252.66,77.09 C252.88,79.24 253.17,81.56 254.94,83.09 C255.04,83.34 255.14,83.58 255.23,83.82 C255.594124,85.2842888 256.277043,86.6501274 257.23,87.82 C257.37,89.02 258.23,89.36 258.23,90.59 C259.02,91.59 261.52,92.14 260.47,93.86 C260.09,94.63 260.87,95.86 260.2,96.68 C261.15,97.79 260.2,99.68 261.66,100.47 C262.461616,101.031259 263.481709,101.179636 264.41,100.87 L264.59,100.96 L265.54,100.44 C266.32,100.08 267.08,99.63 267.79,99.36 C270.03,98.45 272.01,96.57 274.31,95.9 L275.61,95.73 L276.28,95.73 C276.617616,95.751831 276.952427,95.8054007 277.28,95.89 C275.73,97.84 273.77,100.5 274.7,103.27 C274.744558,103.413187 274.797995,103.553459 274.86,103.69 C275.025424,104.025597 275.233843,104.338225 275.48,104.62 C276.391359,105.844562 277.603963,106.812578 279,107.43 L279.47,107.77 C283.76,108.69 287.56,107.14 291.42,106.28 C292.210325,105.904444 292.896906,105.341448 293.42,104.64 C293.595566,104.193298 293.595566,103.696702 293.42,103.25 L293.42,102.65 C294.52,103.17 295.9,103.78 297.42,104.43 C299.91,105.72 302.63,106.8 305.08,108.09 C309.08,109.54 312.23,111.09 316.78,111.46 C314.57,114.05 308.95,113.46 308.93,118.14 C307.93,118.59 308,119.79 308.18,120.61 C308.95,122.26 310.91,121.77 312.24,121.61 C313.45693,121.163137 314.712149,120.828412 315.99,120.61 C317.980797,119.744085 319.776576,118.485679 321.27,116.91 C323.27,115.18 325.59,114.35 326.91,112.05 C334.72,113.48 341.46,109.92 348.64,108.52 C353.64,106.96 358.41,104.52 363.64,103.45 C365.9,101.56 368.84,101.72 371.08,100.04 L375.08,98.43 C375.568485,98.3000141 375.950014,97.9184852 376.08,97.43 L376.35,97.14 L376.15,97 Z M278,82.13 C277.68,82.45 277.5,82.65 277.5,82.65 L277.34,82.58 L278,82.13 Z M278.52,69 C278.113121,69.2447664 277.722323,69.5153192 277.35,69.81 C277.645053,69.405612 278.073685,69.1186764 278.56,69 L278.52,69 Z M277.01,70.11 C276.82366,70.2625492 276.646673,70.4261785 276.48,70.6 C276.556746,70.3783741 276.708949,70.1907746 276.91,70.07 L277.01,70.11 Z M275.88,71.11 L275.96,71.11 C275.608342,71.5262671 275.296948,71.9749419 275.03,72.45 C275.36,72.09 275.42,71.5 275.92,71.16 L275.88,71.11 Z M274.76,73.02 C274.65,73.25 274.55,73.48 274.47,73.7 C274.415419,73.4381373 274.553654,73.1742344 274.8,73.07 L274.76,73.02 Z M274.27,79.45 C273.8,77.71 273.22,75.83 274.27,74.23 C273.768277,75.9554917 273.870585,77.8005561 274.56,79.46 C274.52,79.51 274.42,79.52 274.31,79.5 L274.27,79.45 Z M275.27,81.59 L274.27,79.96 C274.394203,79.890867 274.524813,79.8339342 274.66,79.79 C275.014939,80.5785197 275.464944,81.3206913 276,82 L275.53,81.79 C275.462239,81.7458796 275.398642,81.6956717 275.34,81.64 L275.27,81.59 Z M258.78,76.02 C260.673966,76.2840584 262.530142,76.7707591 264.31,77.47 L264.47,77.97 C261.13656,76.4027901 257.482088,75.6390158 253.8,75.74 C255.46,75.09 257.31,76.16 258.85,76.07 L258.78,76.02 Z M253.32,76.67 L254.32,80.3 L254.03,80.24 C253.266466,79.380836 252.925543,78.2260947 253.1,77.09 L253.39,77.09 C253.366985,76.9677404 253.366985,76.8422596 253.39,76.72 L253.32,76.67 Z M253.98,80.45 L254.35,80.45 L254.83,82.24 C254.44,81.77 253.86,81.24 254.05,80.5 L253.98,80.45 Z M256.41,85.28 L257.07,86.56 C256.743188,86.2262022 256.535778,85.793806 256.48,85.33 L256.41,85.28 Z M257.62,87.58 L258.23,88.76 L258.16,88.76 C257.889105,88.4416985 257.724741,88.0465246 257.69,87.63 L257.62,87.58 Z M258.53,89.33 L259.37,90.42 C258.995241,90.1786772 258.721444,89.808873 258.6,89.38 L258.53,89.33 Z M261.03,93.77 C261.17,93.77 261.31,93.69 261.44,93.65 L261.44,95.41 L261.2,95.53 C261.29,94.94 260.59,94.32 261.1,93.82 L261.03,93.77 Z M260.87,96.77 L260.96,95.84 C261.13,95.79 261.28,95.71 261.45,95.65 L261.45,98 C261.25,97.67 261.13,97.11 260.94,96.86 L260.87,96.77 Z M263.67,100.31 C262.77497,100.282619 261.949791,99.8196227 261.46,99.07 L263.69,100.3 L263.67,100.31 Z M278.27,95.88 C276.729199,97.107056 275.527803,98.7077693 274.78,100.53 C275.028582,98.4740789 276.40112,96.7275634 278.34,96 L278.27,95.88 Z M278.15,106.2 C280.467013,107.103024 282.969705,107.425731 285.44,107.14 C283.18,107.7 280.23,107.7 278.22,106.29 L278.15,106.2 Z M302.99,106.53 C304.99,107.33 306.99,108.09 308.69,108.74 C306.748729,108.218499 304.863093,107.508455 303.06,106.62 L302.99,106.53 Z" id="Shape"></path>
            <path d="M147.47,198.82 C147.528346,198.181096 147.66953,197.552491 147.89,196.95 C147.89,196.95 147.89,196.86 147.89,196.82 C147.79239,195.666195 147.119224,194.639523 146.1,194.09 C145.53,194.09 145.22,193.76 144.66,193.86 C144.92,193.12 145.79,193.05 146.02,192.17 C146.25,191.29 145.19,190.27 145.64,189.8 C135.26,181.59 125.93,171.29 114.44,165.14 C109.64,162.46 104.44,160.7 99.53,158.26 C90.53,155.02 81.77,150.55 71.53,151.09 C70.42,152 68.19,150.57 67.85,152.56 C66.95,152.88 65.58,151.89 65.02,153 C64.97,153.6 65.67,153.67 65.87,154.19 C64.87,154.35 63.67,153.42 62.87,154.19 L63.61,155.47 C62.61,155.88 61.61,154.67 60.81,155.65 L60.94,156.43 C60.27,156.51 58.94,155.83 58.49,156.65 C58.4,157.09 58.67,157.42 58.89,157.8 C57.77,157.8 56.52,157.17 55.58,157.94 C55.6962181,158.215469 55.7573687,158.51103 55.76,158.81 C55.04,158.9 53.49,158.19 53.27,159.43 C51.65,158.37 50.85,160.43 49.27,159.56 C48.54,160.3 47.27,159.17 46.64,160.12 C46.02,160.21 45.26,159.68 44.79,160.35 C44.67,161.6 43.12,160.35 43.24,161.76 L42.97,161.99 C42.2052676,162.0646 41.4704865,162.32555 40.83,162.75 C37,162.53 33.68,163.98 30.27,165.23 C28.38,167.12 26.47,168.55 25.57,171.1 C24.45,173.82 25.31,177.03 26.22,179.65 C25.5011481,179.562703 24.7937555,179.398427 24.11,179.16 L21.11,177.91 C19.6697912,177.139417 18.1554407,176.516256 16.59,176.05 C12.59,173.9 7.68,173.13 2.86,172.72 C2.2,172.81 1.01,172.55 1.06,173.61 C1.34,174.4 0.42,174.51 0.46,175.12 C0.72,177.67 1.07,180.43 3.17,182.2 C3.3,182.49 3.41,182.78 3.52,183.07 C4.15,184.75 4.52,186.35 5.93,187.77 C6.09,189.2 7.12,189.6 7.18,191.08 C8.12,192.33 11.1,192.92 9.84,194.97 C9.4,195.89 10.32,197.29 9.52,198.32 C10.65,199.65 9.52,201.91 11.26,202.84 C12.2169667,203.507871 13.43399,203.682261 14.54,203.31 L14.75,203.43 L15.88,202.8 C16.81,202.37 17.72,201.8 18.56,201.51 C21.23,200.44 23.56,198.19 26.32,197.4 L27.88,197.2 L28.66,197.14 C29.0720285,197.168348 29.4804867,197.235309 29.88,197.34 C28.03,199.65 25.7,202.83 26.81,206.12 C26.8628714,206.290457 26.9263281,206.457448 27,206.62 C27.1922753,207.023507 27.4414841,207.39732 27.74,207.73 C28.822193,209.184976 30.2620979,210.335522 31.92,211.07 L32.49,211.48 C37.59,212.57 42.12,210.73 46.71,209.7 C47.6612099,209.262269 48.4891946,208.595759 49.12,207.76 C49.3247351,207.225605 49.3247351,206.634395 49.12,206.1 L49.12,205.38 C50.43,206 52.12,206.73 53.87,207.51 C56.87,209.04 60.07,210.32 62.99,211.86 C67.73,213.58 71.5,215.46 76.91,215.86 C74.29,218.95 67.59,218.21 67.57,223.86 C66.35,224.4 66.47,225.86 66.68,226.8 C67.6,228.8 69.93,228.17 71.52,227.97 C72.9688487,227.431048 74.4608857,227.016222 75.98,226.73 C78.3493302,225.697863 80.4880294,224.201794 82.27,222.33 C84.64,220.28 87.41,219.28 88.99,216.55 C98.27,218.24 106.31,214.01 114.86,212.35 C120.86,210.49 126.48,207.59 132.67,206.35 C135.35,204.09 138.85,204.29 141.52,202.28 L146.23,200.37 C146.803726,200.191978 147.240906,199.724385 147.38,199.14 L147.7,198.79 L147.47,198.82 Z M30.66,181.08 L30.06,181.71 L29.87,181.63 L30.66,181.08 Z M31.27,165.45 C30.786557,165.749723 30.3253606,166.083923 29.89,166.45 C30.2251493,165.971645 30.7110656,165.619532 31.27,165.45 Z M29.48,166.77 C29.26,166.96 29.05,167.15 28.85,167.35 C28.9415573,167.089652 29.1221982,166.87005 29.36,166.73 L29.48,166.77 Z M28.13,168 L28.23,168 C27.8127416,168.497656 27.4380872,169.029531 27.11,169.59 C27.47,169.13 27.53,168.43 28.13,168 Z M26.8,170.27 C26.67,170.55 26.55,170.82 26.45,171.08 C26.3681992,170.770001 26.5140425,170.444979 26.8,170.3 L26.8,170.27 Z M26.22,177.93 C25.66,175.85 24.96,173.61 26.22,171.71 C25.6215379,173.764903 25.7414671,175.962429 26.56,177.94 C26.46,178 26.34,178 26.22,178 L26.22,177.93 Z M27.44,180.47 L26.27,178.54 C26.4134046,178.450026 26.568079,178.379414 26.73,178.33 C27.12544,179.238364 27.6254856,180.097503 28.22,180.89 L27.66,180.65 C27.59,180.62 27.5,180.56 27.44,180.5 L27.44,180.47 Z M7.8,173.85 C10.0573167,174.158891 12.2696553,174.736315 14.39,175.57 L14.58,176.16 C10.6117978,174.296718 6.26221845,173.389129 1.88,173.51 C3.78,172.7 6,174 7.8,173.88 L7.8,173.85 Z M1.3,174.62 L2.47,178.93 L2.12,178.86 C1.21458247,177.8394 0.811311352,176.468278 1.02,175.12 L1.37,175.12 C1.315037,174.969701 1.29122084,174.809793 1.3,174.65 L1.3,174.62 Z M2.09,179.11 L2.53,179.11 L3.1,181.24 C2.56,180.65 1.86,180 2.09,179.14 L2.09,179.11 Z M5,184.9 L5.8,186.42 C5.36078403,186.024806 5.07708974,185.485787 5,184.9 Z M6.44,187.64 L7.17,189.05 L7.09,189.05 C6.72070695,188.664378 6.48572774,188.169869 6.42,187.64 L6.44,187.64 Z M7.53,189.72 L8.53,191.01 C8.03027541,190.734762 7.66257506,190.269729 7.51,189.72 L7.53,189.72 Z M10.53,195.01 C10.6976173,194.975248 10.8616524,194.925033 11.02,194.86 L11.02,197 L10.74,197.14 C10.72,196.34 9.88,195.6 10.49,195 L10.53,195.01 Z M10.34,198.63 L10.44,197.52 C10.64,197.46 10.83,197.36 11.02,197.29 L11.02,199.93 C10.67,199.6 10.52,198.93 10.3,198.63 L10.34,198.63 Z M13.67,202.84 C12.67,202.64 11.5,202.38 11.03,201.37 L13.7,202.83 L13.67,202.84 Z M31,197.57 C31,197.57 27.82,200.03 26.84,203.1 C27.0716818,200.619211 28.6806732,198.480336 31,197.57 Z M30.85,209.85 C33.6071272,210.931758 36.5885862,211.316463 39.53,210.97 C36.77,211.53 33.27,211.54 30.87,209.85 L30.85,209.85 Z M60.43,210.25 C62.8,211.2 65.15,212.11 67.22,212.88 C64.8821942,212.228526 62.6145042,211.347577 60.45,210.25 L60.43,210.25 Z" id="Shape"></path>
        </g>
    </g>
</svg>