<?xml version="1.0" encoding="UTF-8"?>
<svg width="1124px" height="226px" viewBox="0 0 1124 226" version="1.1" xmlns="http://www.w3.org/2000/svg" xmlns:xlink="http://www.w3.org/1999/xlink">
    <!-- Generator: Sketch 50.2 (55047) - http://www.bohemiancoding.com/sketch -->
    <title>fish-school-02</title>
    <desc>Created with Sketch.</desc>
    <defs></defs>
    <g id="Page-1" stroke="none" stroke-width="1" fill="none" fill-rule="evenodd">
        <g id="fish-school-02" fill="#276F95" fill-rule="nonzero">
            <path d="M1123,110.81 C1123.03826,110.324769 1123.14255,109.847028 1123.31,109.39 C1123.31,109.39 1123.31,109.32 1123.31,109.29 C1123.23617,108.419616 1122.72859,107.64508 1121.96,107.23 C1121.53,107.23 1121.29,106.98 1120.87,107.05 C1121.07,106.5 1121.72,106.44 1121.87,105.77 C1122.02,105.1 1121.24,104.34 1121.58,103.99 C1113.73,97.77 1106.67,89.99 1097.98,85.33 C1094.35,83.33 1090.38,81.97 1086.7,80.13 C1079.85,77.67 1073.26,74.29 1065.5,74.7 C1064.66,75.38 1062.97,74.3 1062.71,75.81 C1062.04,76.05 1061,75.3 1060.58,76.14 C1060.53,76.6 1061.07,76.65 1061.22,77.04 C1060.48,77.16 1059.55,76.46 1058.93,77.04 L1059.48,78.04 C1058.73,78.35 1057.97,77.43 1057.37,78.18 L1057.46,78.76 C1056.96,78.83 1055.98,78.31 1055.61,78.93 C1055.54,79.27 1055.75,79.51 1055.91,79.8 C1055.07,79.8 1054.12,79.32 1053.41,79.91 C1053.49762,80.1192811 1053.54511,80.34317 1053.55,80.57 C1053,80.63 1051.83,80.1 1051.66,81.04 C1050.44,80.23 1049.83,81.78 1048.66,81.13 C1048.11,81.69 1047.16,80.84 1046.66,81.55 C1046.2,81.62 1045.66,81.23 1045.27,81.73 C1045.18,82.67 1044,81.73 1044.1,82.8 L1043.89,82.97 C1043.31158,83.0249529 1042.75539,83.2206466 1042.27,83.54 C1039.38,83.38 1036.86,84.48 1034.27,85.42 C1032.84,86.85 1031.4,87.94 1030.72,89.86 C1029.87,91.92 1030.52,94.35 1031.21,96.33 C1030.66508,96.2636065 1030.12874,96.1395788 1029.61,95.96 L1027.35,95.01 C1026.2601,94.4292536 1025.11427,93.9602012 1023.93,93.61 C1020.93,91.98 1017.19,91.4 1013.55,91.09 C1013.04,91.15 1012.14,90.96 1012.18,91.76 C1012.39,92.36 1011.7,92.44 1011.73,92.9 C1011.93,94.83 1012.19,96.9 1013.73,98.26 C1013.83,98.48 1013.91,98.7 1013.99,98.92 C1014.32866,100.225622 1014.94997,101.440922 1015.81,102.48 C1015.94,103.56 1016.71,103.86 1016.76,104.98 C1017.47,105.92 1019.76,106.37 1018.76,107.92 C1018.42,108.62 1019.12,109.68 1018.51,110.46 C1019.37,111.46 1018.51,113.18 1019.83,113.87 C1020.5514,114.380008 1021.47336,114.51384 1022.31,114.23 L1022.47,114.32 L1023.32,113.84 C1024.03,113.52 1024.71,113.12 1025.32,112.84 C1027.32,112.03 1029.12,110.32 1031.19,109.73 L1032.37,109.58 C1032.37,109.58 1032.61,109.58 1032.96,109.58 C1033.27364,109.59798 1033.58496,109.644845 1033.89,109.72 C1032.49,111.47 1030.73,113.87 1031.56,116.36 C1031.59954,116.493786 1031.6497,116.624201 1031.71,116.75 C1031.85534,117.055453 1032.04394,117.338362 1032.27,117.59 C1033.08902,118.69029 1034.17719,119.561514 1035.43,120.12 L1035.86,120.43 C1039.72,121.25 1043.14,119.86 1046.62,119.08 C1047.33818,118.7469 1047.96326,118.242029 1048.44,117.61 C1048.59976,117.208646 1048.59976,116.761354 1048.44,116.36 L1048.44,115.81 C1049.44,116.28 1050.67,116.81 1052.03,117.42 C1054.28,118.58 1056.72,119.55 1058.94,120.72 C1062.52,122.02 1065.37,123.44 1069.47,123.72 C1067.47,126.05 1062.42,125.49 1062.4,129.72 C1061.48,130.13 1061.57,131.21 1061.72,131.95 C1062.42,133.43 1064.19,132.95 1065.39,132.83 C1066.48454,132.421346 1067.61197,132.106871 1068.76,131.89 C1070.55491,131.112212 1072.17402,129.979515 1073.52,128.56 C1075.31,127.01 1077.41,126.26 1078.6,124.19 C1085.6,125.47 1091.71,122.27 1098.18,121.01 C1102.71,119.61 1106.97,117.41 1111.65,116.44 C1113.65,114.74 1116.33,114.88 1118.35,113.36 L1121.91,111.92 C1122.34238,111.782997 1122.67209,111.430544 1122.78,110.99 L1123.02,110.72 L1123,110.81 Z M1034.62,97.39 C1034.33,97.68 1034.17,97.86 1034.17,97.86 L1034.03,97.8 L1034.62,97.39 Z M1035.08,85.56 C1034.7323,85.7830211 1034.39836,86.0267964 1034.08,86.29 C1034.33234,85.9386356 1034.69488,85.6816909 1035.11,85.56 L1035.08,85.56 Z M1033.73,86.56 L1033.25,87 C1033.32049,86.8022368 1033.45863,86.6357619 1033.64,86.53 L1033.73,86.56 Z M1032.73,87.51 L1032.8,87.51 C1032.48725,87.8860453 1032.20628,88.287426 1031.96,88.71 C1032.24,88.34 1032.29,87.81 1032.74,87.51 L1032.73,87.51 Z M1031.73,89.23 C1031.64,89.44 1031.54,89.65 1031.47,89.85 C1031.39345,89.6075625 1031.50342,89.3453196 1031.73,89.23 Z M1031.29,95.02 C1030.87,93.45 1030.29,91.76 1031.29,90.32 C1030.83491,91.8734686 1030.92668,93.5360613 1031.55,95.03 C1031.46255,95.0286379 1031.37546,95.0185885 1031.29,95 L1031.29,95.02 Z M1032.22,96.95 L1031.33,95.48 C1031.44205,95.4198406 1031.55916,95.3696474 1031.68,95.33 C1031.98131,96.0145873 1032.36048,96.6621887 1032.81,97.26 L1032.39,97.08 C1032.33024,97.0604673 1032.27314,97.0335954 1032.22,97 L1032.22,96.95 Z M1017.36,91.95 C1019.07251,92.1825894 1020.75108,92.6190177 1022.36,93.25 L1022.5,93.7 C1019.50016,92.2925945 1016.21229,91.6076226 1012.9,91.7 C1014.31,91.05 1016,92 1017.36,91.94 L1017.36,91.95 Z M1012.44,92.53 L1013.33,95.79 L1013.06,95.74 C1012.37248,94.9691201 1012.06775,93.930103 1012.23,92.91 L1012.49,92.91 C1012.44413,92.7854349 1012.42704,92.6521072 1012.44,92.52 L1012.44,92.53 Z M1013.04,95.93 L1013.37,95.93 L1013.8,97.54 C1013.39,97.06 1012.87,96.59 1013,95.92 L1013.04,95.93 Z M1015.23,100.29 L1015.83,101.43 C1015.49403,101.134554 1015.28013,100.724578 1015.23,100.28 L1015.23,100.29 Z M1016.32,102.36 L1016.87,103.42 L1016.8,103.42 C1016.52941,103.124028 1016.36113,102.748908 1016.32,102.35 L1016.32,102.36 Z M1017.14,103.93 L1017.9,104.93 C1017.52036,104.71013 1017.24612,104.345687 1017.14,103.92 L1017.14,103.93 Z M1019.39,107.93 C1019.51624,107.903952 1019.64003,107.867151 1019.76,107.82 L1019.76,109.41 L1019.54,109.51 C1019.56,108.93 1018.93,108.37 1019.39,107.92 L1019.39,107.93 Z M1019.25,110.67 L1019.32,109.84 C1019.48,109.79 1019.62,109.72 1019.77,109.66 L1019.77,111.66 C1019.53,111.39 1019.42,110.89 1019.25,110.66 L1019.25,110.67 Z M1021.77,113.86 C1020.96278,113.836219 1020.21722,113.422434 1019.77,112.75 L1021.77,113.85 L1021.77,113.86 Z M1034.92,109.86 C1033.52988,110.962872 1032.44827,112.406173 1031.78,114.05 C1031.95325,112.173134 1033.16725,110.553183 1034.92,109.86 Z M1034.81,119.15 C1036.89708,119.968133 1039.15343,120.260051 1041.38,120 C1039.28,120.42 1036.63,120.43 1034.81,119.15 Z M1057.19,119.46 C1058.98,120.17 1060.76,120.86 1062.33,121.46 C1060.55471,120.965047 1058.83294,120.295096 1057.19,119.46 Z" id="Shape"></path>
            <path d="M948.38,166.41 C948.429036,165.850136 948.550033,165.298928 948.74,164.77 C948.744916,164.730151 948.744916,164.689849 948.74,164.65 C948.654437,163.639119 948.063777,162.739961 947.17,162.26 C946.68,162.31 946.4,161.97 945.91,162.06 C946.14,161.41 946.91,161.35 947.11,160.57 C947.31,159.79 946.38,158.91 946.77,158.5 C937.67,151.29 929.49,142.27 919.41,136.88 C915.2,134.53 910.61,132.98 906.33,130.88 C898.4,128.04 890.76,124.12 881.76,124.59 C880.76,125.39 878.83,124.13 878.53,125.88 C877.75,126.16 876.53,125.29 876.06,126.26 C876.06,126.79 876.62,126.85 876.8,127.31 C875.94,127.45 874.87,126.64 874.14,127.31 L874.79,128.43 C873.91,128.79 873.04,127.74 872.34,128.6 L872.45,129.27 C871.86,129.35 870.73,128.76 870.3,129.47 C870.22,129.86 870.46,130.15 870.65,130.47 C869.65,130.47 868.58,129.91 867.75,130.59 C867.853769,130.833548 867.908153,131.095274 867.91,131.36 C867.28,131.43 865.91,130.81 865.72,131.9 C864.31,130.97 863.61,132.77 862.21,132.01 C861.58,132.66 860.47,131.67 859.91,132.5 C859.36,132.58 858.7,132.12 858.29,132.7 C858.19,133.8 856.83,132.7 856.93,133.94 L856.69,134.14 C856.019035,134.210938 855.3746,134.440604 854.81,134.81 C851.46,134.62 848.55,135.89 845.56,136.98 C843.89,138.64 842.22,139.9 841.43,142.13 C840.43,144.52 841.2,147.34 842,149.63 C841.371114,149.550657 840.751497,149.409987 840.15,149.21 L837.52,148 C836.246353,147.322963 834.905827,146.78005 833.52,146.38 C830.03,144.49 825.7,143.82 821.52,143.45 C820.94,143.53 819.89,143.3 819.94,144.23 C820.18,144.92 819.38,145.02 819.42,145.56 C819.64,147.8 819.94,150.22 821.79,151.77 C821.9,152.03 822,152.28 822.09,152.53 C822.484193,154.042867 823.208154,155.449809 824.21,156.65 C824.35,157.91 825.21,158.26 825.3,159.55 C826.13,160.65 828.74,161.17 827.64,162.97 C827.25,163.77 828.06,164.97 827.36,165.91 C828.36,167.07 827.36,169.06 828.88,169.91 C829.723005,170.489668 830.78872,170.641384 831.76,170.32 L831.94,170.42 L832.94,169.87 C833.75,169.49 834.55,169.03 835.29,168.74 C837.62,167.8 839.69,165.83 842.09,165.14 L843.46,164.96 C843.46,164.96 843.73,164.96 844.15,164.96 C844.50781,164.983945 844.862647,165.040853 845.21,165.13 C843.59,167.13 841.55,169.95 842.52,172.83 C842.566226,172.98049 842.623035,173.127523 842.69,173.27 C842.69,173.27 842.69,173.27 842.69,173.27 C842.858933,173.632036 843.077723,173.968637 843.34,174.27 C844.288328,175.551053 845.552879,176.564072 847.01,177.21 L847.51,177.57 C851.98,178.57 855.95,176.91 859.98,176.01 C860.811478,175.619352 861.535583,175.032518 862.09,174.3 C862.271377,173.833683 862.271377,173.316317 862.09,172.85 L862.09,172.22 C863.24,172.76 864.68,173.41 866.26,174.08 C868.86,175.43 871.69,176.55 874.26,177.9 C878.42,179.41 881.72,181.06 886.47,181.42 C884.17,184.12 878.3,183.48 878.27,188.42 C877.21,188.9 877.27,190.15 877.49,191.01 C878.3,192.72 880.35,192.21 881.74,192.01 C883.006959,191.526951 884.315862,191.162065 885.65,190.92 C887.729006,190.015048 889.603311,188.698612 891.16,187.05 C893.24,185.26 895.68,184.38 897.06,181.99 C905.2,183.47 912.25,179.76 919.74,178.3 C925,176.67 929.94,174.13 935.37,173.01 C937.72,171.01 940.79,171.2 943.13,169.44 L947.25,167.76 C947.750288,167.601258 948.130154,167.191003 948.25,166.68 L948.53,166.37 L948.38,166.41 Z M845.94,150.85 L845.41,151.4 L845.25,151.33 L845.94,150.85 Z M846.48,137.15 C846.054922,137.402271 845.647332,137.682907 845.26,137.99 C845.557933,137.577998 845.988814,137.281326 846.48,137.15 Z M844.91,138.3 C844.72,138.47 844.53,138.63 844.35,138.81 C844.42971,138.581475 844.589595,138.389613 844.8,138.27 L844.91,138.3 Z M843.72,139.41 L843.81,139.41 C843.434791,139.845289 843.100071,140.313898 842.81,140.81 C843.14,140.37 843.2,139.76 843.72,139.41 Z M842.55,141.41 C842.44,141.65 842.33,141.89 842.25,142.12 C842.154469,141.838699 842.282992,141.530244 842.55,141.4 L842.55,141.41 Z M842.04,148.12 C841.55,146.3 840.94,144.34 842.04,142.67 C841.515585,144.47109 841.621415,146.397206 842.34,148.13 C842.226291,148.133917 842.112465,148.127222 842,148.11 L842.04,148.12 Z M843.12,150.35 L842.12,148.66 C842.245543,148.584006 842.379863,148.523562 842.52,148.48 C842.870219,149.273974 843.309717,150.025483 843.83,150.72 L843.34,150.51 C843.261426,150.460461 843.187759,150.403536 843.12,150.34 L843.12,150.35 Z M825.9,144.54 C827.876668,144.816742 829.813532,145.326974 831.67,146.06 L831.84,146.57 C828.357952,144.939851 824.543319,144.145421 820.7,144.25 C822.36,143.5 824.29,144.62 825.9,144.53 L825.9,144.54 Z M820.19,145.22 L821.19,149 L820.88,148.94 C820.071169,148.052229 819.70403,146.848015 819.88,145.66 L820.19,145.66 C820.162554,145.511255 820.162554,145.358745 820.19,145.21 L820.19,145.22 Z M820.89,149.16 L821.27,149.16 L821.77,151.02 C821.3,150.48 820.68,149.93 820.89,149.15 L820.89,149.16 Z M823.42,154.21 L824.12,155.54 C823.732867,155.19224 823.484297,154.716406 823.42,154.2 L823.42,154.21 Z M824.68,156.61 L825.33,157.85 L825.25,157.85 C824.935449,157.50221 824.736327,157.06554 824.68,156.6 L824.68,156.61 Z M825.68,158.44 L826.56,159.57 C826.108763,159.333719 825.775658,158.920959 825.64,158.43 L825.68,158.44 Z M828.29,163.07 C828.437174,163.045318 828.581313,163.005093 828.72,162.95 L828.72,164.78 L828.47,164.91 C828.45,164.23 827.71,163.59 828.25,163.06 L828.29,163.07 Z M828.12,166.25 L828.21,165.25 C828.39,165.19 828.55,165.11 828.72,165.04 L828.72,167.36 C828.41,167.09 828.28,166.5 828.08,166.24 L828.12,166.25 Z M831.05,169.94 C830.1142,169.917209 829.248316,169.43948 828.73,168.66 L831.07,169.93 L831.05,169.94 Z M846.29,165.32 C844.681462,166.598382 843.42811,168.268369 842.65,170.17 C842.839055,168.001333 844.230548,166.122818 846.25,165.31 L846.29,165.32 Z M846.16,176.09 C848.578353,177.047839 851.196391,177.391413 853.78,177.09 C851.3,177.55 848.23,177.56 846.12,176.08 L846.16,176.09 Z M872.1,176.44 C874.18,177.28 876.24,178.07 878.1,178.75 C876.015531,178.176385 873.992477,177.399318 872.06,176.43 L872.1,176.44 Z" id="Shape"></path>
            <path d="M746.68,99 C746.733623,98.3506161 746.874905,97.7114796 747.1,97.1 C747.095042,97.0568085 747.095042,97.0131915 747.1,96.97 C747.002342,95.8002982 746.316675,94.7604948 745.28,94.21 C744.71,94.26 744.39,93.87 743.82,93.97 C744.09,93.23 744.97,93.16 745.21,92.26 C745.45,91.36 744.37,90.33 744.82,89.86 C734.3,81.54 724.82,71.11 713.21,64.86 C708.34,62.14 703.03,60.35 698.09,57.86 C688.93,54.57 680.09,50.04 669.7,50.59 C668.58,51.51 666.31,50.06 665.97,52.07 C665.07,52.4 663.68,51.4 663.11,52.52 C663.05,53.13 663.77,53.2 663.97,53.73 C662.97,53.89 661.74,52.95 660.9,53.73 L661.65,55.03 C660.65,55.45 659.65,54.22 658.81,55.22 L658.94,56 C658.27,56.09 656.94,55.4 656.46,56.22 C656.37,56.68 656.64,57.01 656.86,57.39 C655.73,57.44 654.47,56.75 653.52,57.53 C653.632898,57.8131128 653.690602,58.1152074 653.69,58.42 C652.97,58.5 651.4,57.79 651.17,59.05 C649.53,57.97 648.72,60.05 647.11,59.17 C646.38,59.92 645.11,58.78 644.45,59.74 C643.82,59.83 643.06,59.3 642.58,59.97 C642.46,61.24 640.89,59.97 641.01,61.41 L640.73,61.64 C639.954463,61.7148109 639.209235,61.9792465 638.56,62.41 C634.69,62.19 631.32,63.66 627.87,64.92 C625.95,66.84 624.01,68.29 623.1,70.92 C621.97,73.68 622.84,76.92 623.76,79.59 C623.034942,79.4956623 622.321301,79.328141 621.63,79.09 L618.63,77.82 C617.170758,77.0402324 615.636252,76.410348 614.05,75.94 C610.05,73.76 605.05,72.94 600.14,72.56 C599.46,72.65 598.26,72.39 598.31,73.46 C598.59,74.26 597.66,74.38 597.7,74.99 C597.97,77.58 598.31,80.38 600.45,82.17 C600.58,82.47 600.69,82.76 600.8,83.05 C601.44,84.76 601.8,86.37 603.24,87.82 C603.41,89.27 604.44,89.67 604.51,91.16 C605.46,92.43 608.51,93.03 607.21,95.16 C606.76,96.09 607.69,97.51 606.88,98.56 C608.03,99.9 606.88,102.19 608.65,103.13 C609.613312,103.809554 610.843337,103.987926 611.96,103.61 L612.18,103.73 L613.33,103.09 C614.27,102.66 615.19,102.09 616.04,101.79 C618.74,100.7 621.13,98.42 623.9,97.62 L625.48,97.41 L626.28,97.36 C626.695783,97.3842222 627.107962,97.4512431 627.51,97.56 C625.64,99.9 623.28,103.12 624.4,106.45 C624.451191,106.62428 624.514684,106.794708 624.59,106.96 C624.592464,106.976576 624.592464,106.993424 624.59,107.01 C624.789078,107.411967 625.041341,107.785317 625.34,108.12 C626.434444,109.59953 627.895885,110.767994 629.58,111.51 L630.16,111.93 C635.32,113.04 639.91,111.17 644.56,110.13 C645.526046,109.670731 646.366627,108.984543 647.01,108.13 C647.21514,107.588787 647.21514,106.991213 647.01,106.45 L647.01,105.72 C648.34,106.35 650.01,107.09 651.83,107.87 C654.83,109.42 658.11,110.73 661.07,112.29 C665.88,114.03 669.69,115.93 675.18,116.35 C672.52,119.47 665.74,118.73 665.71,124.41 C664.48,124.96 664.59,126.41 664.81,127.41 C665.74,129.41 668.11,128.79 669.71,128.59 C671.180722,128.03979 672.696404,127.618209 674.24,127.33 C676.640362,126.289741 678.804183,124.772345 680.6,122.87 C683,120.79 685.82,119.78 687.41,117.01 C696.82,118.73 704.96,114.44 713.63,112.75 C719.7,110.88 725.41,107.94 731.68,106.64 C734.4,104.35 737.94,104.55 740.68,102.52 L745.45,100.58 C746.028339,100.394361 746.468013,99.9205736 746.61,99.33 L746.93,98.98 L746.68,99 Z M628.31,81 C627.92,81.39 627.7,81.63 627.7,81.63 L627.51,81.55 L628.31,81 Z M628.93,65.16 C628.441877,65.4622235 627.974197,65.7962804 627.53,66.16 C627.869575,65.679463 628.363762,65.3300022 628.93,65.17 L628.93,65.16 Z M627.12,66.49 C626.9,66.68 626.68,66.88 626.48,67.09 C626.566042,66.8210384 626.752226,66.5954686 627,66.46 L627.12,66.49 Z M625.74,67.77 L625.85,67.77 C625.426011,68.2718452 625.047832,68.8106655 624.72,69.38 C625.07,68.89 625.14,68.18 625.74,67.78 L625.74,67.77 Z M624.4,70.08 C624.27,70.35 624.14,70.63 624.04,70.9 C623.947777,70.5784304 624.09951,70.2370309 624.4,70.09 L624.4,70.08 Z M623.81,77.83 C623.25,75.73 622.54,73.46 623.81,71.53 C623.203956,73.6117345 623.327445,75.838061 624.16,77.84 C624.043494,77.8486631 623.926506,77.8486631 623.81,77.84 L623.81,77.83 Z M625.05,80.41 L623.86,78.41 C624.007823,78.3216833 624.165589,78.2511919 624.33,78.2 C624.731766,79.1186774 625.238468,79.9877887 625.84,80.79 L625.28,80.54 C625.19971,80.5073652 625.122698,80.4671851 625.05,80.42 L625.05,80.41 Z M605.15,73.69 C607.437173,74.011433 609.679009,74.5987403 611.83,75.44 L612.01,76.04 C607.99335,74.1479957 603.588233,73.2265522 599.15,73.35 C601.07,72.52 603.3,73.81 605.15,73.7 L605.15,73.69 Z M598.56,74.47 L599.75,78.85 L599.39,78.78 C598.472524,77.7415985 598.062372,76.3500113 598.27,74.98 L598.63,74.98 C598.572901,74.8198295 598.549082,74.649693 598.56,74.48 L598.56,74.47 Z M599.37,79.03 L599.81,79.03 L600.39,81.19 C599.84,80.57 599.13,79.94 599.37,79 L599.37,79.03 Z M602.3,84.87 L603.1,86.4 C602.658642,86.0064769 602.374499,85.4666066 602.3,84.88 L602.3,84.87 Z M603.75,87.64 L604.49,89.07 L604.4,89.07 C604.042939,88.6744583 603.816034,88.178758 603.75,87.65 L603.75,87.64 Z M604.85,89.75 L605.85,91.06 C605.36086,90.7725566 605.002359,90.3065056 604.85,89.76 L604.85,89.75 Z M607.85,95.1 C608.019134,95.062642 608.186059,95.0159031 608.35,94.96 L608.35,97.08 L608.06,97.23 C608.1,96.47 607.25,95.72 607.87,95.11 L607.85,95.1 Z M607.66,98.77 L607.76,97.66 C607.97,97.59 608.16,97.49 608.35,97.42 L608.35,100.09 C608.05,99.77 607.91,99.09 607.68,98.78 L607.66,98.77 Z M611.04,103.04 C610.04,102.84 608.83,102.57 608.37,101.55 L611.06,103.03 L611.04,103.04 Z M628.65,97.7 C628.65,97.7 625.44,100.19 624.44,103.31 C624.679143,100.794229 626.315487,98.6279112 628.67,97.71 L628.65,97.7 Z M628.51,110.15 C631.301823,111.246393 634.321644,111.634606 637.3,111.28 C634.5,111.86 631,111.87 628.53,110.16 L628.51,110.15 Z M658.51,110.55 C660.91,111.55 663.29,112.44 665.39,113.21 C663.010338,112.559772 660.702067,111.671976 658.5,110.56 L658.51,110.55 Z" id="Shape"></path>
            <path d="M594.52,189.61 C594.592908,188.837997 594.764299,188.078496 595.03,187.35 C595.03,187.29 595.03,187.24 595.03,187.19 C594.910637,185.799335 594.098568,184.562433 592.87,183.9 C592.19,183.96 591.81,183.5 591.13,183.62 C591.45,182.73 592.5,182.62 592.78,181.57 C593.06,180.52 591.78,179.28 592.32,178.72 C579.78,168.8 568.52,156.37 554.65,148.95 C548.85,145.71 542.52,143.58 536.65,140.64 C525.73,136.73 515.2,131.33 502.81,131.98 C501.48,133.07 498.81,131.35 498.37,133.75 C497.29,134.14 495.64,132.94 494.96,134.28 C494.89,135.01 495.74,135.09 495.96,135.72 C494.77,135.91 493.3,134.8 492.3,135.72 L493.19,137.27 C491.98,137.76 490.78,136.27 489.81,137.49 L489.96,138.42 C489.16,138.53 487.59,137.71 486.96,138.69 C486.930298,139.198522 487.102837,139.698165 487.44,140.08 C486.09,140.08 484.58,139.32 483.44,140.25 C483.576721,140.586779 483.647993,140.946532 483.65,141.31 C482.79,141.41 480.91,140.56 480.65,142.06 C478.65,140.77 477.74,143.24 475.82,142.2 C474.94,143.1 473.42,141.73 472.64,142.88 C471.9,142.99 470.99,142.36 470.42,143.16 C470.28,144.67 468.42,143.16 468.55,144.87 L468.22,145.14 C467.293737,145.227161 466.403692,145.543316 465.63,146.06 C461.01,145.8 457,147.55 452.89,149.06 C450.6,151.34 448.29,153.06 447.21,156.15 C445.86,159.44 446.89,163.32 447.99,166.48 C447.125518,166.369971 446.27447,166.172286 445.45,165.89 L441.84,164.37 C440.098938,163.443792 438.269899,162.693417 436.38,162.13 C431.57,159.54 425.62,158.61 419.8,158.13 C419,158.23 417.57,157.92 417.62,159.2 C417.96,160.15 416.86,160.29 416.91,161.03 C417.22,164.11 417.63,167.44 420.18,169.58 C420.33,169.93 420.47,170.28 420.59,170.63 C421.36,172.63 421.84,174.58 423.5,176.3 C423.7,178.03 424.94,178.52 425.01,180.3 C426.15,181.81 429.75,182.53 428.23,185.01 C427.69,186.11 428.81,187.81 427.84,189.01 C429.21,190.61 427.84,193.35 429.94,194.46 C431.103562,195.282626 432.590709,195.498262 433.94,195.04 L434.19,195.17 L435.56,194.42 C436.69,193.9 437.78,193.26 438.8,192.86 C442.01,191.56 444.86,188.86 448.17,187.86 L450.05,187.61 L451.05,187.55 C451.546256,187.579221 452.038536,187.656244 452.52,187.78 C450.29,190.58 447.47,194.41 448.8,198.38 C448.867868,198.5879 448.948008,198.791591 449.04,198.99 L449.04,199.05 C449.272846,199.530515 449.568793,199.977799 449.92,200.38 C451.234332,202.126566 452.977209,203.504334 454.98,204.38 L455.66,204.87 C461.82,206.19 467.29,203.97 472.83,202.73 C473.976886,202.195311 474.975829,201.388604 475.74,200.38 C475.987159,199.736241 475.987159,199.023759 475.74,198.38 L475.74,197.52 C477.32,198.27 479.3,199.15 481.47,200.09 C485.05,201.93 488.96,203.49 492.47,205.34 C498.19,207.42 502.74,209.69 509.28,210.19 C506.11,213.91 498.03,213.02 497.99,219.79 C496.53,220.44 496.67,222.17 496.92,223.35 C498.03,225.71 500.85,225 502.76,224.76 C504.51004,224.105473 506.313432,223.603602 508.15,223.26 C511.014806,222.020107 513.597236,220.210025 515.74,217.94 C518.6,215.47 521.96,214.26 523.86,210.94 C535.07,212.99 544.77,207.88 555.1,205.87 C562.33,203.63 569.1,200.13 576.6,198.58 C579.84,195.86 584.07,196.09 587.29,193.67 L592.97,191.36 C593.670579,191.154297 594.203385,190.58316 594.36,189.87 L594.75,189.45 L594.52,189.61 Z M453.52,168.19 L452.8,168.95 L452.57,168.85 L453.52,168.19 Z M454.26,149.32 C453.680234,149.672304 453.122529,150.059692 452.59,150.48 L452.59,150.43 C452.997923,149.896827 453.565515,149.507921 454.21,149.32 L454.26,149.32 Z M452.1,150.91 C451.84,151.14 451.58,151.37 451.34,151.62 C451.445385,151.301142 451.666655,151.033478 451.96,150.87 L452.1,150.91 Z M450.47,152.43 L450.59,152.43 C450.082565,153.02537 449.633816,153.668355 449.25,154.35 C449.62,153.76 449.7,152.91 450.42,152.43 L450.47,152.43 Z M448.86,155.18 C448.71,155.51 448.56,155.83 448.44,156.18 C448.3002,155.801033 448.457202,155.376705 448.81,155.18 L448.86,155.18 Z M448.16,164.42 C447.49,161.91 446.65,159.21 448.16,156.91 C447.435264,159.393462 447.579905,162.049909 448.57,164.44 L448.16,164.42 Z M449.64,167.49 L448.22,165.15 C448.398038,165.051203 448.585672,164.970789 448.78,164.91 C449.264639,165.999875 449.868307,167.032819 450.58,167.99 L449.91,167.7 C449.796672,167.640719 449.689484,167.570377 449.59,167.49 L449.64,167.49 Z M425.93,159.49 C428.669156,159.866461 431.354364,160.564615 433.93,161.57 L434.16,162.28 C429.365577,160.033471 424.112744,158.937704 418.82,159.08 C421,158.07 423.67,159.61 425.88,159.49 L425.93,159.49 Z M418.08,160.42 L419.49,165.63 L419.07,165.55 C417.977535,164.315271 417.487002,162.66064 417.73,161.03 L418.15,161.03 C418.05889,160.839036 418.007841,160.63144 418,160.42 L418.08,160.42 Z M419.08,165.85 L419.6,165.85 L420.29,168.42 C419.55,167.67 418.7,166.92 419,165.85 L419.08,165.85 Z M422.56,172.8 L423.56,174.63 C422.985056,174.173862 422.59726,173.522792 422.47,172.8 L422.56,172.8 Z M424.3,176.11 L425.19,177.81 L425.08,177.81 C424.612568,177.353227 424.307084,176.756305 424.21,176.11 L424.3,176.11 Z M425.61,178.62 L426.83,180.18 C426.199323,179.859829 425.726302,179.296537 425.52,178.62 L425.61,178.62 Z M429.21,185 C429.411869,184.963258 429.60953,184.906304 429.8,184.83 L429.8,187.36 L429.45,187.53 C429.4,186.61 428.38,185.73 429.12,185 L429.21,185 Z M428.98,189.38 L429,188 C429.25,187.92 429.47,187.81 429.71,187.72 L429.71,190.9 C429.34,190.55 429.16,189.74 428.89,189.38 L428.98,189.38 Z M432.98,194.46 C431.72,194.22 430.35,193.9 429.79,192.69 L433.01,194.45 L432.98,194.46 Z M453.98,188.1 C453.98,188.1 450.14,191.1 448.98,194.78 C449.235586,191.803105 451.14071,189.221721 453.91,188.1 L453.98,188.1 Z M453.8,202.93 C457.130681,204.229038 460.728839,204.692541 464.28,204.28 C460.85,205 456.63,205 453.73,202.93 L453.8,202.93 Z M489.51,203.41 C492.38,204.56 495.21,205.66 497.71,206.58 C494.856065,205.797041 492.086063,204.735262 489.44,203.41 L489.51,203.41 Z" id="Shape"></path>
            <path d="M393.25,157.44 C393.296793,156.900251 393.414471,156.369016 393.6,155.86 C393.6,155.86 393.6,155.79 393.6,155.76 C393.517634,154.789971 392.949147,153.927829 392.09,153.47 C391.62,153.47 391.35,153.18 390.88,153.27 C391.11,152.65 391.88,152.59 392.03,151.85 C392.18,151.11 391.34,150.25 391.71,149.85 C382.99,142.95 375.16,134.31 365.51,129.14 C361.51,126.89 357.07,125.41 352.98,123.37 C345.39,120.64 338.07,116.89 329.45,117.37 C328.52,118.13 326.64,116.93 326.36,118.6 C325.61,118.87 324.46,118.04 323.99,118.97 C323.94,119.48 324.53,119.53 324.7,119.97 C323.88,120.11 322.85,119.33 322.16,119.97 L322.78,121.05 C321.93,121.4 321.1,120.38 320.42,121.21 L320.53,121.86 C319.97,121.93 318.88,121.36 318.53,122.04 C318.45,122.42 318.68,122.69 318.86,123.04 C317.92,123.04 316.86,122.51 316.09,123.16 C316.178695,123.39336 316.226069,123.640384 316.23,123.89 C315.63,123.96 314.33,123.37 314.14,124.41 C312.79,123.52 312.14,125.24 310.78,124.52 C310.17,125.14 309.11,124.19 308.57,124.99 C308.05,125.06 307.42,124.62 307.02,125.18 C306.92,126.23 305.62,125.18 305.72,126.37 L305.49,126.56 C304.847115,126.62482 304.229502,126.844415 303.69,127.2 C300.48,127.01 297.69,128.2 294.83,129.28 C293.24,130.87 291.63,132.07 290.88,134.21 C289.94,136.5 290.66,139.21 291.43,141.39 C290.824126,141.315024 290.227623,141.177627 289.65,140.98 L287.14,139.98 C285.931439,139.335786 284.661872,138.81322 283.35,138.42 C280,136.62 275.86,135.97 271.82,135.62 C271.26,135.69 270.26,135.47 270.3,136.37 C270.53,137.03 269.77,137.12 269.8,137.64 C270.02,139.78 270.31,142.1 272.08,143.58 C272.18,143.83 272.28,144.07 272.37,144.31 C272.736633,145.758264 273.419677,147.107275 274.37,148.26 C274.51,149.47 275.37,149.8 275.42,151.04 C276.21,152.04 278.71,152.58 277.66,154.31 C277.28,155.08 278.06,156.26 277.39,157.13 C278.34,158.24 277.39,160.13 278.85,160.92 C279.650854,161.484061 280.673891,161.629146 281.6,161.31 L281.78,161.41 L282.73,160.88 C283.51,160.52 284.27,160.08 284.98,159.8 C287.22,158.9 289.2,157.01 291.5,156.35 L292.8,156.18 L293.47,156.13 C293.807908,156.15534 294.142701,156.212255 294.47,156.3 C292.92,158.24 290.96,160.91 291.89,163.67 C291.931158,163.81434 291.984689,163.954861 292.05,164.09 C292.217929,164.421066 292.426177,164.73008 292.67,165.01 C293.5787,166.23713 294.792049,167.20574 296.19,167.82 L296.66,168.16 C300.95,169.08 304.75,167.53 308.61,166.67 C309.397732,166.29491 310.08369,165.735854 310.61,165.04 C310.785223,164.589781 310.785223,164.090219 310.61,163.64 L310.61,163 C311.71,163.52 313.09,164.14 314.61,164.79 C317.1,166.07 319.82,167.15 322.27,168.45 C326.27,169.89 329.42,171.45 333.97,171.81 C331.76,174.4 326.14,173.81 326.12,178.49 C325.12,178.95 325.19,180.15 325.37,180.97 C326.14,182.61 328.1,182.12 329.43,181.97 C330.64838,181.527735 331.903182,181.193121 333.18,180.97 C335.170797,180.104085 336.966576,178.845679 338.46,177.27 C340.46,175.55 342.78,174.71 344.1,172.42 C351.91,173.84 358.65,170.28 365.83,168.89 C370.83,167.33 375.6,164.89 380.83,163.82 C383.09,161.92 386.03,162.08 388.27,160.4 L392.27,158.79 C392.758485,158.660014 393.140014,158.278485 393.27,157.79 L393.54,157.49 L393.25,157.44 Z M295.14,142.54 L294.64,143.06 L294.48,143 L295.14,142.54 Z M295.66,129.41 C295.25536,129.658216 294.864763,129.928629 294.49,130.22 C294.776183,129.82444 295.18902,129.53863 295.66,129.41 Z M294.15,130.52 C293.97,130.68 293.79,130.84 293.62,131.01 C293.698759,130.792083 293.85075,130.60828 294.05,130.49 L294.15,130.52 Z M293,131.58 L293.08,131.58 C292.728342,131.996267 292.416948,132.444942 292.15,132.92 C292.46,132.5 292.52,131.91 293,131.58 Z M291.88,133.49 C291.78,133.72 291.67,133.94 291.59,134.17 C291.504857,133.897449 291.638415,133.604484 291.9,133.49 L291.88,133.49 Z M291.39,139.91 C290.92,138.17 290.34,136.29 291.39,134.69 C290.887469,136.415399 290.989791,138.260737 291.68,139.92 C291.589878,139.923965 291.499582,139.92062 291.41,139.91 L291.39,139.91 Z M292.39,142.05 L291.39,140.43 C291.516064,140.361816 291.646326,140.301695 291.78,140.25 C292.115634,141.012884 292.538448,141.734352 293.04,142.4 L292.57,142.2 C292.57,142.15 292.49,142.1 292.44,142.05 L292.39,142.05 Z M276,136.49 C277.894917,136.749287 279.751654,137.236134 281.53,137.94 L281.69,138.43 C278.350488,136.859722 274.688804,136.095872 271,136.2 C272.56,135.5 274.41,136.57 276,136.49 Z M270.54,137.13 L271.54,140.76 L271.25,140.7 C270.488114,139.843915 270.147213,138.692915 270.32,137.56 L270.61,137.56 C270.538108,137.427541 270.497086,137.280545 270.49,137.13 L270.54,137.13 Z M271.2,140.91 L271.57,140.91 L272.05,142.7 C271.54,142.18 271,141.66 271.15,140.91 L271.2,140.91 Z M273.63,145.75 L274.29,147.02 C273.909555,146.6948 273.657765,146.244415 273.58,145.75 L273.63,145.75 Z M274.84,148.05 L275.45,149.23 L275.38,149.23 C275.061093,148.910682 274.85411,148.496717 274.79,148.05 L274.84,148.05 Z M275.75,149.79 L276.59,150.88 C276.157718,150.652487 275.83647,150.259048 275.7,149.79 L275.75,149.79 Z M278.25,154.23 C278.390686,154.205295 278.528195,154.165049 278.66,154.11 L278.66,155.87 L278.42,155.99 C278.39,155.35 277.69,154.73 278.2,154.23 L278.25,154.23 Z M278.09,157.23 L278.18,156.31 L278.67,156.11 L278.67,158.32 C278.35,158.09 278.23,157.53 278,157.27 L278.09,157.23 Z M280.9,160.77 C280.02,160.6 279.07,160.38 278.68,159.54 L280.91,160.76 L280.9,160.77 Z M295.49,156.35 C293.946941,157.57486 292.745064,159.176214 292,161 C292.192178,158.940113 293.520047,157.160615 295.44,156.39 L295.49,156.35 Z M295.37,166.66 C297.685789,167.567806 300.189675,167.890667 302.66,167.6 C300.28,168.11 297.33,168.12 295.32,166.7 L295.37,166.66 Z M320.21,167 C322.21,167.8 324.21,168.56 325.91,169.2 C323.926156,168.655993 322.000311,167.919148 320.16,167 L320.21,167 Z" id="Shape"></path>
            <path d="M147.29,48.35 C147.345046,47.7082784 147.482856,47.0763706 147.7,46.47 C147.704958,46.4268085 147.704958,46.3831915 147.7,46.34 C147.60451,45.1879967 146.930253,44.1634274 145.91,43.62 C145.35,43.62 145.03,43.28 144.47,43.38 C144.74,42.65 145.6,42.58 145.84,41.69 C146.08,40.8 145.01,39.79 145.46,39.33 C135.07,31.11 125.75,20.82 114.26,14.67 C109.46,11.99 104.21,10.22 99.34,7.79 C90.34,4.55 81.58,0.08 71.34,0.61 C70.24,1.52 68,0.09 67.66,2.08 C66.77,2.4 65.4,1.41 64.84,2.52 C64.78,3.12 65.48,3.19 65.69,3.71 C64.69,3.87 63.48,2.95 62.69,3.71 L63.43,4.99 C62.43,5.4 61.43,4.19 60.63,5.18 L60.76,5.95 C60.1,6.04 58.76,5.36 58.32,6.17 C58.22,6.62 58.49,6.94 58.71,7.32 C57.59,7.32 56.35,6.69 55.41,7.46 C55.5228386,7.73963961 55.5805639,8.0384531 55.58,8.34 C54.87,8.42 53.32,7.72 53.09,8.96 C51.48,7.89 50.68,9.96 49.09,9.08 C48.36,9.82 47.09,8.69 46.46,9.64 C45.84,9.73 45.09,9.21 44.62,9.87 C44.5,11.12 42.95,9.87 43.07,11.29 L42.79,11.51 C42.025622,11.5861864 41.2912122,11.8470048 40.65,12.27 C36.83,12.06 33.51,13.51 30.1,14.75 C28.2,16.64 26.29,18.08 25.39,20.62 C24.28,23.34 25.13,26.56 26.05,29.17 C25.3319513,29.0834478 24.6248278,28.9225856 23.94,28.69 L20.94,27.43 C19.4978721,26.6661177 17.9838658,26.0464469 16.42,25.58 C12.42,23.43 7.5,22.66 2.69,22.24 C2.02,22.33 0.83,22.07 0.88,23.13 C1.16,23.92 0.25,24.03 0.29,24.64 C0.55,27.19 0.89,29.96 3,31.73 C3.12,32.02 3.24,32.31 3.34,32.59 C3.98,34.28 4.34,35.87 5.75,37.3 C5.92,38.73 6.94,39.13 7,40.6 C7.94,41.85 10.92,42.44 9.67,44.49 C9.22,45.41 10.15,46.81 9.34,47.85 C10.48,49.17 9.34,51.44 11.09,52.36 C12.0414273,53.0323223 13.2577321,53.2071429 14.36,52.83 L14.57,52.95 L15.71,52.32 C16.64,51.89 17.54,51.32 18.39,51.04 C21.05,49.96 23.39,47.71 26.14,46.92 L27.7,46.72 L28.49,46.67 C28.9016479,46.6956473 29.3100483,46.7592506 29.71,46.86 C27.86,49.18 25.53,52.35 26.63,55.64 C26.6862476,55.8139039 26.753038,55.9842194 26.83,56.15 C27.0224912,56.5479792 27.268062,56.9180173 27.56,57.25 C28.640961,58.7101967 30.0855765,59.8617518 31.75,60.59 L32.32,61 C37.42,62.1 41.94,60.25 46.53,59.23 C47.480801,58.7825609 48.3106124,58.1139112 48.95,57.28 C49.1547351,56.7456048 49.1547351,56.1543952 48.95,55.62 L48.95,54.91 C50.26,55.53 51.95,56.26 53.7,57.03 C56.7,58.56 59.9,59.85 62.83,61.39 C67.57,63.11 71.33,64.98 76.75,65.39 C74.13,68.47 67.43,67.73 67.4,73.34 C66.18,73.88 66.3,75.34 66.51,76.34 C67.43,78.29 69.77,77.71 71.35,77.51 C72.8007775,76.9664558 74.296537,76.5515247 75.82,76.27 C78.1902536,75.2402271 80.3267449,73.7399204 82.1,71.86 C84.47,69.86 87.25,68.86 88.82,66.08 C98.11,67.78 106.14,63.54 114.69,61.88 C120.69,60.03 126.32,57.13 132.51,55.88 C135.19,53.63 138.69,53.82 141.36,51.81 L146.06,49.9 C146.633726,49.7219779 147.070906,49.254385 147.21,48.67 L147.53,48.32 L147.29,48.35 Z M30.47,30.61 L29.87,31.23 L29.69,31.15 L30.47,30.61 Z M31.09,14.97 C30.6072934,15.275544 30.1431442,15.6094642 29.7,15.97 C30.0419726,15.5004759 30.531322,15.1589875 31.09,15 L31.09,14.97 Z M29.3,16.29 C29.08,16.48 28.87,16.67 28.66,16.88 C28.7500092,16.6157508 28.9354568,16.3946401 29.18,16.26 L29.3,16.29 Z M27.94,17.55 L28.04,17.55 C27.6236764,18.0496597 27.2522371,18.5850678 26.93,19.15 C27.28,18.65 27.35,18 27.94,17.55 Z M26.61,19.83 C26.49,20.1 26.36,20.37 26.26,20.64 C26.1573037,20.3204465 26.3069103,19.9742139 26.61,19.83 Z M26.03,27.48 C25.47,25.4 24.78,23.16 26.03,21.26 C25.4363373,23.315452 25.5561782,25.511361 26.37,27.49 C26.2466026,27.4969255 26.1228431,27.4935807 26,27.48 L26.03,27.48 Z M27.26,30.02 L26.08,28.09 C26.2293023,28.0072051 26.3868178,27.9401772 26.55,27.89 C26.9436465,28.7961508 27.4438374,29.6521821 28.04,30.44 L27.48,30.2 C27.3993686,30.1418314 27.3255672,30.0747392 27.26,30 L27.26,30.02 Z M7.62,23.4 C9.87816873,23.7099364 12.0907762,24.2907879 14.21,25.13 L14.39,25.71 C10.4225101,23.8445863 6.0724181,22.9368899 1.69,23.06 C3.59,22.23 5.79,23.5 7.62,23.4 Z M1.11,24.17 L2.28,28.49 L1.94,28.42 C1.0268221,27.3994515 0.61944387,26.0231737 0.83,24.67 L1.18,24.67 C1.12634016,24.5090038 1.10261556,24.3395424 1.11,24.17 Z M1.91,28.67 L2.34,28.67 L2.92,30.79 C2.37,30.18 1.68,29.56 1.91,28.67 Z M4.8,34.43 L5.59,35.94 C5.15587009,35.5463249 4.87585942,35.0111146 4.8,34.43 Z M6.24,37.16 L6.97,38.57 L6.88,38.57 C6.51862057,38.1823635 6.29387202,37.6872143 6.24,37.16 Z M7.32,39.24 L8.32,40.54 C7.83015136,40.2533601 7.47140081,39.7869844 7.32,39.24 Z M10.32,44.53 C10.4861833,44.4939562 10.6498589,44.4471918 10.81,44.39 L10.81,46.48 L10.52,46.62 C10.53,45.86 9.69,45.13 10.3,44.53 L10.32,44.53 Z M10.13,48.15 L10.23,47.05 C10.44,46.98 10.62,46.89 10.82,46.81 L10.82,49.45 C10.48,49.12 10.34,48.45 10.11,48.15 L10.13,48.15 Z M13.47,52.36 C12.47,52.16 11.29,51.9 10.83,50.89 L13.49,52.35 C13.49,52.35 13.46,52.36 13.45,52.36 L13.47,52.36 Z M30.85,47.09 C30.85,47.09 27.68,49.55 26.69,52.63 C26.9167684,50.1511116 28.5169404,48.0098188 30.83,47.09 L30.85,47.09 Z M30.7,59.38 C33.4590982,60.4539707 36.4394312,60.8350963 39.38,60.49 C36.58,61.05 33.08,61.06 30.68,59.38 L30.7,59.38 Z M60.28,59.78 C62.65,60.73 65,61.63 67.07,62.4 C64.720843,61.7482545 62.4402262,60.8708366 60.26,59.78 L60.28,59.78 Z" id="Shape"></path>
        </g>
    </g>
</svg>