<svg id="Layer_1" data-name="Layer 1" xmlns="http://www.w3.org/2000/svg" viewBox="0 0 1469 377"><defs><style>.cls-1{fill:#5ba0ce;}</style></defs><title>fish-school-03</title><path class="cls-1" d="M1324.86,50.2a4.43,4.43,0,0,1,.26-1.17V49a2.14,2.14,0,0,0-1.12-1.71c-.36,0-.56-.21-.91-.15.17-.46.71-.5.86-1.06s-.52-1.19-.24-1.48c-6.5-5.15-12.35-11.6-19.55-15.45-3-1.68-6.29-2.79-9.34-4.31-5.67-2-11.13-4.84-17.56-4.5-.69.57-2.1-.33-2.31.92-.56.2-1.42-.42-1.77.28,0,.37.41.42.53.74-.61.1-1.38-.48-1.9,0l.47.81c-.63.25-1.26-.5-1.76.11l.08.49c-.41.05-1.23-.38-1.53.13-.06.28.11.49.25.72-.7,0-1.48-.39-2.07.09a1.68,1.68,0,0,1,.11.55c-.45.05-1.42-.39-1.56.39-1-.67-1.52.62-2.51.08-.46.46-1.24-.25-1.65.35-.39.06-.86-.27-1.15.14-.08.79-1,0-1,.89l-.18.14a3,3,0,0,0-1.34.48c-2.39-.14-4.48.77-6.61,1.55-1.19,1.19-2.39,2.08-3,3.68s-.16,3.72.41,5.36a6.5,6.5,0,0,1-1.32-.31l-1.88-.78a14.66,14.66,0,0,0-2.83-1.17,22.29,22.29,0,0,0-8.6-2.08c-.42.05-1.16-.11-1.13.55.17.5-.4.57-.37.95.16,1.6.37,3.33,1.69,4.44.08.18.15.36.22.54a7.61,7.61,0,0,0,1.51,2.95c.1.9.74,1.15.78,2.07.59.78,2.46,1.15,1.67,2.44-.28.57.3,1.45-.2,2.1.71.83,0,2.25,1.09,2.83a2.28,2.28,0,0,0,2,.29l.13.08.72-.4c.58-.27,1.15-.6,1.68-.8,1.66-.68,3.14-2.09,4.86-2.58l1-.13.5,0a4.27,4.27,0,0,1,.76.12c-1.16,1.45-2.62,3.44-1.93,5.5l.12.32a0,0,0,0,1,0,0h0a3.32,3.32,0,0,0,.46.69,6.58,6.58,0,0,0,2.63,2.09l.35.26c3.2.69,6-.47,8.91-1.11a4,4,0,0,0,1.51-1.22,1.44,1.44,0,0,0,0-1v-.45c.82.39,1.84.85,3,1.33,1.86,1,3.89,1.77,5.72,2.73,3,1.08,5.33,2.25,8.72,2.51-1.64,1.94-5.84,1.47-5.85,5-.77.34-.69,1.23-.56,1.84.58,1.23,2,.86,3,.74a16.84,16.84,0,0,1,2.8-.78,12,12,0,0,0,3.94-2.76c1.48-1.28,3.22-1.91,4.21-3.62,5.82,1.06,10.85-1.59,16.21-2.64,3.75-1.16,7.28-3,11.16-3.78,1.68-1.41,3.88-1.29,5.55-2.55l2.95-1.2a1.07,1.07,0,0,0,.72-.77l.2-.22Zm-73.2-11.11-.38.39-.12,0Zm.38-9.8a7.19,7.19,0,0,0-.87.61l0,0A1.66,1.66,0,0,1,1252,29.29Zm-1.12.83a4.48,4.48,0,0,0-.4.36.76.76,0,0,1,.32-.39Zm-.85.79h.06a7.09,7.09,0,0,0-.69,1C1249.66,31.59,1249.7,31.16,1250.07,30.91Zm-.83,1.42c-.08.17-.16.34-.22.51A.42.42,0,0,1,1249.24,32.33Zm-.37,4.8c-.35-1.3-.78-2.71,0-3.9h0a5.85,5.85,0,0,0,.21,3.9Zm.77,1.59-.74-1.21a1.6,1.6,0,0,1,.3-.13,7.69,7.69,0,0,0,.93,1.6l-.35-.15Zm-12.3-4.15a17.82,17.82,0,0,1,4.12,1.08l.12.37a17.53,17.53,0,0,0-8-1.66C1234.81,33.83,1236.19,34.63,1237.34,34.57Zm-4.08.48.73,2.71-.21,0a2.85,2.85,0,0,1-.7-2.34l.22,0A1,1,0,0,1,1233.26,35.05Zm.5,2.82.27,0,.36,1.34C1234.05,38.82,1233.61,38.43,1233.76,37.87Zm1.81,3.61.49,1h0A1.58,1.58,0,0,1,1235.57,41.48Zm.9,1.71.46.89h-.06A1.61,1.61,0,0,1,1236.47,43.19Zm.68,1.31.63.81A1.37,1.37,0,0,1,1237.15,44.5Zm1.87,3.31.3-.09V49l-.18.09C1239.16,48.65,1238.64,48.18,1239,47.81Zm-.12,2.27.06-.69c.13,0,.25-.1.37-.15v1.65C1239.13,50.69,1239,50.27,1238.9,50.08Zm2.09,2.64a2.09,2.09,0,0,1-1.66-.92l1.67.91Zm10.89-3.3a8.52,8.52,0,0,0-2.6,3.46A4.11,4.11,0,0,1,1251.88,49.42Zm-.09,7.69a11.27,11.27,0,0,0,5.44.7C1255.49,58.16,1253.29,58.17,1251.79,57.11Zm18.53.25c1.49.6,3,1.17,4.26,1.65A23.18,23.18,0,0,1,1270.32,57.36Z"/><path class="cls-1" d="M918.8,226.41a3.61,3.61,0,0,1,.2-.89v-.06a1.6,1.6,0,0,0-.84-1.28c-.27,0-.42-.16-.68-.11.13-.35.53-.38.64-.8s-.39-.9-.17-1.12c-4.9-3.87-9.3-8.73-14.72-11.63-2.27-1.26-4.74-2.1-7-3.24-4.27-1.53-8.38-3.64-13.22-3.39-.52.43-1.57-.24-1.73.69-.42.15-1.07-.31-1.34.21,0,.29.31.32.4.56-.46.08-1-.36-1.42,0l.34.6c-.47.2-.94-.37-1.32.09l.06.36c-.31,0-.92-.28-1.15.11,0,.21.08.36.19.54-.53,0-1.12-.3-1.56.07a1.11,1.11,0,0,1,.08.41c-.34,0-1.07-.29-1.17.29-.77-.5-1.14.47-1.89.06-.35.35-.94-.18-1.24.26-.29.05-.65-.2-.87.11-.06.59-.79,0-.73.67l-.13.11a2.07,2.07,0,0,0-1,.36,12.13,12.13,0,0,0-5,1.17,7.46,7.46,0,0,0-2.22,2.76,5.87,5.87,0,0,0,.31,4,4.7,4.7,0,0,1-1-.23l-1.41-.59a11.37,11.37,0,0,0-2.13-.88,16.83,16.83,0,0,0-6.48-1.57c-.31,0-.87-.08-.85.42s-.3.43-.28.71a4.63,4.63,0,0,0,1.28,3.34c.06.14.11.28.16.41a5.67,5.67,0,0,0,1.14,2.22c.08.68.56.87.59,1.56.44.59,1.85.87,1.25,1.84-.21.43.23,1.09-.15,1.58.54.62,0,1.69.82,2.13a1.75,1.75,0,0,0,1.55.22l.1.06.53-.3c.44-.2.87-.45,1.27-.61,1.25-.5,2.36-1.57,3.66-1.94l.73-.09.37,0a4.09,4.09,0,0,1,.58.09c-.87,1.1-2,2.59-1.45,4.15a.92.92,0,0,0,.09.23s0,0,0,0h0a2.26,2.26,0,0,0,.35.52,5,5,0,0,0,2,1.58l.26.19c2.41.52,4.54-.35,6.71-.83a3.1,3.1,0,0,0,1.14-.92,1.1,1.1,0,0,0,0-.78v-.34c.62.29,1.4.63,2.25,1,1.39.72,2.92,1.33,4.3,2,2.24.81,4,1.7,6.57,1.9-1.24,1.45-4.4,1.1-4.41,3.75-.58.25-.52.93-.42,1.39.43.92,1.53.64,2.28.55a13.73,13.73,0,0,1,2.11-.59,9.09,9.09,0,0,0,3-2.07c1.12-1,2.43-1.44,3.17-2.73,4.38.8,8.17-1.2,12.21-2,2.82-.88,5.48-2.24,8.4-2.85,1.27-1.06,2.92-1,4.18-1.92l2.22-.9a.84.84,0,0,0,.54-.58l.15-.17ZM863.7,218l-.29.29-.08,0Zm.29-7.37a4.81,4.81,0,0,0-.66.45v0A1.14,1.14,0,0,1,864,210.67Zm-.85.62-.3.27a.58.58,0,0,1,.25-.29Zm-.64.59,0,0a4.54,4.54,0,0,0-.52.75C862.19,212.4,862.22,212.07,862.5,211.88Zm-.62,1.08c-.06.12-.12.25-.17.38A.31.31,0,0,1,861.88,213Zm-.28,3.61c-.26-1-.59-2,0-2.94h0a4.52,4.52,0,0,0,.16,2.94Zm.58,1.19-.55-.91a1.12,1.12,0,0,1,.22-.09,5.43,5.43,0,0,0,.7,1.2l-.26-.11Zm-9.26-3.12a13.58,13.58,0,0,1,3.1.81l.09.28a13.22,13.22,0,0,0-6-1.25C851,214.09,852.06,214.69,852.92,214.64Zm-3.07.36.55,2-.16,0a2.18,2.18,0,0,1-.53-1.77l.17,0A.57.57,0,0,1,849.85,215Zm.37,2.12.21,0,.27,1C850.44,217.84,850.11,217.54,850.22,217.12Zm1.37,2.72.37.72h0A1.13,1.13,0,0,1,851.59,219.84Zm.68,1.29.34.67h0A1.14,1.14,0,0,1,852.27,221.13Zm.51,1,.47.62A1,1,0,0,1,852.78,222.11Zm1.4,2.5.23-.07v1l-.14.06C854.29,225.24,853.9,224.89,854.18,224.61Zm-.09,1.71,0-.52.28-.12v1.25C854.27,226.77,854.2,226.46,854.09,226.32Zm1.58,2a1.55,1.55,0,0,1-1.25-.69l1.26.69Zm8.2-2.48a6.49,6.49,0,0,0-2,2.61A3.1,3.1,0,0,1,863.87,225.82Zm-.07,5.79a8.59,8.59,0,0,0,4.09.53A5.48,5.48,0,0,1,863.8,231.61Zm14,.19c1.12.45,2.23.88,3.2,1.24A17.8,17.8,0,0,1,877.75,231.8Z"/><path class="cls-1" d="M1250.71,279.7a3.44,3.44,0,0,1,.2-.91v-.06a1.66,1.66,0,0,0-.86-1.32c-.28,0-.43-.16-.7-.11.13-.35.55-.39.66-.82s-.4-.92-.18-1.14c-5-4-9.53-8.95-15.09-11.92-2.32-1.3-4.85-2.15-7.21-3.33-4.37-1.57-8.59-3.73-13.55-3.47-.53.44-1.61-.25-1.78.71-.43.16-1.09-.32-1.36.21,0,.3.31.33.41.58-.47.08-1.07-.37-1.47,0l.36.62c-.48.2-1-.38-1.35.09l.06.38c-.32,0-.95-.29-1.18.1-.05.22.08.38.19.56-.54,0-1.15-.3-1.6.07a1.43,1.43,0,0,1,.09.42c-.35,0-1.1-.3-1.21.3-.78-.51-1.17.48-1.93.06-.36.36-1-.19-1.28.27-.29,0-.66-.21-.89.11,0,.61-.8,0-.75.69l-.13.11a2.24,2.24,0,0,0-1,.36,12.77,12.77,0,0,0-5.11,1.2,7.86,7.86,0,0,0-2.27,2.84,6,6,0,0,0,.31,4.14,5.21,5.21,0,0,1-1-.24l-1.44-.61a12,12,0,0,0-2.19-.89,17.2,17.2,0,0,0-6.63-1.61c-.33,0-.9-.09-.88.43s-.3.43-.28.73a4.76,4.76,0,0,0,1.31,3.42c.06.14.11.28.16.42a5.87,5.87,0,0,0,1.17,2.27c.08.7.57.89.6,1.6.46.61,1.9.89,1.29,1.88-.22.45.23,1.13-.16,1.63.55.63,0,1.73.85,2.18a1.78,1.78,0,0,0,1.58.23l.1.05.55-.3c.45-.21.89-.46,1.3-.62,1.28-.52,2.42-1.61,3.75-2l.75-.1.38,0a3.17,3.17,0,0,1,.59.1c-.89,1.12-2,2.65-1.49,4.24a1.86,1.86,0,0,0,.1.25v0h0a2.26,2.26,0,0,0,.36.53,5,5,0,0,0,2,1.62l.27.19c2.47.53,4.66-.36,6.88-.85a3.25,3.25,0,0,0,1.17-.94,1.19,1.19,0,0,0,0-.81v-.34c.64.3,1.43.65,2.3,1,1.43.74,3,1.37,4.41,2.11,2.29.83,4.11,1.74,6.73,1.94-1.27,1.49-4.5,1.13-4.52,3.84-.59.27-.53,1-.43,1.43.45.95,1.58.66,2.34.57a11.75,11.75,0,0,1,2.16-.6,9.48,9.48,0,0,0,3-2.13c1.15-1,2.49-1.48,3.25-2.8,4.49.82,8.37-1.23,12.51-2,2.89-.9,5.62-2.3,8.61-2.92,1.3-1.09,3-1,4.28-2l2.27-.92a.84.84,0,0,0,.56-.6l.15-.17Zm-56.48-8.58c-.19.19-.29.31-.29.31l-.09,0Zm.29-7.55a7.25,7.25,0,0,0-.67.46v0A1.21,1.21,0,0,1,1194.52,263.57Zm-.86.63c-.11.09-.21.19-.31.29a.56.56,0,0,1,.25-.3Zm-.66.61,0,0a5,5,0,0,0-.54.77C1192.68,265.34,1192.72,265,1193,264.81Zm-.64,1.1-.17.39A.33.33,0,0,1,1192.36,265.91Zm-.28,3.7c-.27-1-.61-2.08,0-3h0a4.59,4.59,0,0,0,.17,3Zm.59,1.23-.57-.93a1.15,1.15,0,0,1,.23-.1,5.87,5.87,0,0,0,.72,1.23l-.27-.11Zm-9.49-3.2a13.63,13.63,0,0,1,3.18.83l.09.29a13.43,13.43,0,0,0-6.14-1.28C1181.23,267.07,1182.3,267.69,1183.18,267.64ZM1180,268l.57,2.09-.17,0a2.21,2.21,0,0,1-.53-1.81l.17,0A.57.57,0,0,1,1180,268Zm.39,2.18.21,0,.28,1C1180.64,270.92,1180.31,270.62,1180.42,270.19Zm1.4,2.78.38.73h0A1.13,1.13,0,0,1,1181.82,273Zm.69,1.32.35.68h0A1.18,1.18,0,0,1,1182.51,274.29Zm.53,1,.48.63A1,1,0,0,1,1183,275.3Zm1.44,2.56.23-.07v1l-.14.07C1184.59,278.5,1184.18,278.14,1184.48,277.86Zm-.1,1.75,0-.54.29-.11v1.27C1184.56,280.07,1184.49,279.75,1184.38,279.61Zm1.62,2a1.56,1.56,0,0,1-1.28-.71l1.29.71Zm8.4-2.55a6.65,6.65,0,0,0-2,2.68A3.2,3.2,0,0,1,1194.4,279.09Zm-.07,5.94a8.66,8.66,0,0,0,4.2.54A5.61,5.61,0,0,1,1194.33,285Zm14.3.2c1.15.46,2.28.9,3.28,1.27A18.69,18.69,0,0,1,1208.63,285.23Z"/><path class="cls-1" d="M1330.94,311.81a4.43,4.43,0,0,1,.26-1.17v-.08a2.12,2.12,0,0,0-1.12-1.71c-.35,0-.55-.21-.9-.15.17-.46.71-.5.85-1.06s-.52-1.19-.23-1.48c-6.51-5.15-12.36-11.6-19.56-15.45-3-1.68-6.29-2.79-9.34-4.31-5.67-2-11.13-4.83-17.56-4.5-.69.57-2.09-.33-2.31.92-.55.2-1.41-.42-1.77.28,0,.37.41.42.54.74-.62.1-1.38-.48-1.9,0l.46.81c-.63.25-1.25-.5-1.75.11l.08.49c-.42,0-1.23-.38-1.54.13-.06.28.12.49.25.73-.7,0-1.48-.4-2.07.08a1.46,1.46,0,0,1,.11.55c-.45,0-1.42-.39-1.56.39-1-.67-1.51.62-2.51.08-.45.46-1.24-.25-1.65.35-.38.06-.85-.27-1.15.14-.07.79-1,0-1,.89l-.17.14a3,3,0,0,0-1.35.48c-2.39-.14-4.47.77-6.61,1.55-1.19,1.19-2.38,2.08-3,3.68s-.16,3.72.41,5.36a6.5,6.5,0,0,1-1.32-.31l-1.87-.78a14.93,14.93,0,0,0-2.83-1.17,22.34,22.34,0,0,0-8.61-2.08c-.41.05-1.16-.11-1.13.55.18.5-.4.57-.37.95.16,1.6.38,3.33,1.7,4.44q.12.27.21.54a7.61,7.61,0,0,0,1.51,2.95c.11.9.75,1.15.79,2.07.59.78,2.45,1.15,1.67,2.44-.28.57.3,1.45-.21,2.1.71.83,0,2.25,1.1,2.83a2.31,2.31,0,0,0,2,.3l.13.07.71-.4c.58-.27,1.15-.6,1.68-.8,1.67-.68,3.14-2.09,4.86-2.58l1-.13.49,0a4.13,4.13,0,0,1,.76.12c-1.16,1.45-2.62,3.44-1.92,5.5a1.75,1.75,0,0,0,.12.32v0h0a3.32,3.32,0,0,0,.46.69,6.55,6.55,0,0,0,2.62,2.09l.36.26c3.19.69,6-.47,8.91-1.11a4.08,4.08,0,0,0,1.51-1.22,1.44,1.44,0,0,0,0-1v-.45c.82.39,1.85.85,3,1.33,1.85,1,3.88,1.77,5.71,2.73,3,1.08,5.33,2.25,8.73,2.51-1.65,1.94-5.84,1.47-5.86,5-.76.34-.69,1.23-.56,1.85.58,1.22,2,.85,3,.73a17.11,17.11,0,0,1,2.8-.78,12,12,0,0,0,3.94-2.76c1.49-1.28,3.23-1.91,4.21-3.62,5.82,1.06,10.86-1.59,16.21-2.64,3.76-1.16,7.29-3,11.17-3.78,1.68-1.41,3.87-1.29,5.54-2.55l3-1.2a1,1,0,0,0,.72-.77l.2-.22Zm-73.2-11.11-.38.39-.11,0Zm.38-9.8a8,8,0,0,0-.86.61l0,0A1.64,1.64,0,0,1,1258.12,290.9Zm-1.12.83a4.38,4.38,0,0,0-.39.36.71.71,0,0,1,.32-.39Zm-.85.79h.07a8.09,8.09,0,0,0-.7,1C1255.74,293.2,1255.78,292.77,1256.15,292.52Zm-.83,1.42c-.08.17-.16.34-.22.51A.43.43,0,0,1,1255.32,293.94Zm-.36,4.8c-.35-1.3-.79-2.71,0-3.9h0a5.91,5.91,0,0,0,.22,3.9Zm.77,1.59-.74-1.21a1.51,1.51,0,0,1,.29-.13,8.16,8.16,0,0,0,.93,1.6l-.35-.15A1.5,1.5,0,0,1,1255.73,300.33Zm-12.31-4.15a17.91,17.91,0,0,1,4.13,1.08l.11.37a17.52,17.52,0,0,0-8-1.66C1240.9,295.44,1242.28,296.24,1243.42,296.18Zm-4.08.48.74,2.71-.22-.05a2.84,2.84,0,0,1-.69-2.34l.22,0A.78.78,0,0,1,1239.34,296.66Zm.5,2.82.27,0,.36,1.34C1240.13,300.43,1239.7,300,1239.84,299.48Zm1.81,3.61.5,1h0A1.58,1.58,0,0,1,1241.65,303.09Zm.9,1.71.46.89h0A1.56,1.56,0,0,1,1242.55,304.8Zm.68,1.31.63.81A1.41,1.41,0,0,1,1243.23,306.11Zm1.87,3.31a2.8,2.8,0,0,0,.31-.09v1.31l-.18.09C1245.25,310.26,1244.72,309.79,1245.1,309.42Zm-.12,2.27.07-.69.36-.15v1.65C1245.21,312.3,1245.12,311.88,1245,311.69Zm2.09,2.64c-.65-.13-1.36-.29-1.65-.92l1.67.91ZM1258,311a8.59,8.59,0,0,0-2.61,3.46A4.1,4.1,0,0,1,1258,311Zm-.1,7.69a11.27,11.27,0,0,0,5.44.7A7.29,7.29,0,0,1,1257.87,318.72Zm18.54.25c1.48.6,3,1.17,4.25,1.65A23.37,23.37,0,0,1,1276.41,319Z"/><path class="cls-1" d="M976.8,192.29a3.21,3.21,0,0,1,.2-.89v-.06a1.6,1.6,0,0,0-.84-1.28c-.27,0-.42-.16-.68-.11.12-.35.53-.38.64-.8s-.39-.9-.18-1.12c-4.9-3.87-9.3-8.73-14.72-11.63-2.26-1.27-4.74-2.1-7-3.25-4.26-1.53-8.38-3.63-13.22-3.38-.52.43-1.57-.25-1.73.69-.42.15-1.07-.31-1.33.21,0,.28.3.31.4.56-.47.08-1-.36-1.43,0l.34.61c-.47.19-.94-.38-1.32.09l.06.36c-.31,0-.92-.28-1.15.11,0,.21.08.36.19.54-.53,0-1.12-.3-1.56.07a1.07,1.07,0,0,1,.08.41c-.34,0-1.07-.3-1.17.29-.77-.5-1.14.47-1.89.06-.35.35-.94-.18-1.24.26-.3.05-.65-.2-.87.11-.06.59-.79,0-.73.67l-.13.11a2.15,2.15,0,0,0-1,.35,12.42,12.42,0,0,0-5,1.17,7.58,7.58,0,0,0-2.22,2.77,5.87,5.87,0,0,0,.3,4,4.75,4.75,0,0,1-1-.23l-1.41-.59a11.65,11.65,0,0,0-2.13-.88,16.83,16.83,0,0,0-6.48-1.57c-.31,0-.88-.08-.85.42s-.3.42-.28.71a4.63,4.63,0,0,0,1.28,3.34c.06.14.11.28.16.41a5.78,5.78,0,0,0,1.13,2.22c.08.68.57.87.6,1.56.44.59,1.84.87,1.25,1.84-.21.43.23,1.09-.15,1.58.54.62,0,1.69.82,2.13a1.75,1.75,0,0,0,1.55.22l.1.06.53-.3c.44-.2.87-.45,1.27-.61,1.25-.5,2.36-1.57,3.66-1.94l.73-.09.37,0a4.09,4.09,0,0,1,.58.09c-.88,1.1-2,2.59-1.45,4.15a.92.92,0,0,0,.09.23v0h0a2.26,2.26,0,0,0,.35.52,5,5,0,0,0,2,1.58l.27.19c2.41.52,4.54-.35,6.71-.83a3.1,3.1,0,0,0,1.14-.92,1.1,1.1,0,0,0,0-.78v-.34c.61.29,1.39.64,2.24,1,1.39.72,2.92,1.33,4.3,2.06,2.24.81,4,1.69,6.57,1.89-1.24,1.45-4.4,1.1-4.41,3.75-.57.26-.52.93-.42,1.39.43.92,1.54.65,2.28.55a12.66,12.66,0,0,1,2.11-.58,9,9,0,0,0,3-2.08c1.12-1,2.43-1.44,3.17-2.73,4.39.8,8.18-1.2,12.21-2,2.83-.88,5.49-2.24,8.41-2.85,1.26-1.06,2.91-1,4.17-1.92l2.22-.9a.8.8,0,0,0,.54-.58l.15-.17Zm-55.11-8.37-.29.29-.08,0Zm.29-7.38a6,6,0,0,0-.66.46v0A1.21,1.21,0,0,1,922,176.54Zm-.85.63a3.65,3.65,0,0,0-.3.27.61.61,0,0,1,.24-.29Zm-.64.59h0a6,6,0,0,0-.53.76C920.18,178.28,920.21,178,920.49,177.76Zm-.62,1.07c-.06.13-.12.26-.17.39A.33.33,0,0,1,919.87,178.83Zm-.28,3.61c-.26-1-.59-2,0-2.93h0a4.45,4.45,0,0,0,.16,2.94Zm.58,1.2-.56-.91a2,2,0,0,1,.22-.09,6.13,6.13,0,0,0,.71,1.2l-.27-.11Zm-9.27-3.12a13.53,13.53,0,0,1,3.11.81l.09.28a13.24,13.24,0,0,0-6-1.25C909,180,910,180.57,910.9,180.52Zm-3.06.36.55,2-.17,0a2.2,2.2,0,0,1-.52-1.77l.17,0A.46.46,0,0,1,907.84,180.88Zm.37,2.12.21,0,.27,1C908.43,183.72,908.1,183.42,908.21,183Zm1.36,2.72.38.72h0A1.24,1.24,0,0,1,909.57,185.72Zm.68,1.29.35.67h0A1.21,1.21,0,0,1,910.25,187Zm.51,1,.48.62A1.06,1.06,0,0,1,910.76,188Zm1.41,2.5.23-.07v1l-.13.07C912.28,191.12,911.88,190.77,912.17,190.49Zm-.09,1.71,0-.52.27-.12v1.25C912.25,192.65,912.19,192.34,912.08,192.2Zm1.57,2a1.51,1.51,0,0,1-1.24-.69l1.26.69Zm8.21-2.48a6.49,6.49,0,0,0-2,2.61A3.1,3.1,0,0,1,921.86,191.7Zm-.07,5.79a8.47,8.47,0,0,0,4.09.53A5.48,5.48,0,0,1,921.79,197.49Zm14,.19c1.12.45,2.23.88,3.21,1.24A17.61,17.61,0,0,1,935.74,197.68Z"/><path class="cls-1" d="M1078.23,91.69a2.85,2.85,0,0,1,.18-.79v-.05a1.43,1.43,0,0,0-.75-1.15c-.24,0-.37-.14-.61-.1.11-.31.48-.34.58-.71s-.35-.8-.16-1c-4.37-3.45-8.29-7.78-13.13-10.37-2-1.12-4.22-1.87-6.27-2.89-3.8-1.36-7.47-3.24-11.78-3-.47.39-1.41-.22-1.55.62-.38.14-1-.28-1.19.19,0,.25.27.28.36.5-.41.06-.93-.32-1.28,0l.32.54c-.43.17-.84-.33-1.18.08l0,.32c-.28,0-.82-.24-1,.1,0,.19.08.32.17.48-.47,0-1-.26-1.39.06a1.11,1.11,0,0,1,.07.37c-.3,0-1-.26-1,.26-.68-.45-1,.41-1.69,0-.3.31-.83-.16-1.1.24-.26,0-.58-.19-.78.09,0,.53-.7,0-.65.6l-.12.09a2.09,2.09,0,0,0-.9.32,10.87,10.87,0,0,0-4.43,1,6.71,6.71,0,0,0-2,2.46,5.26,5.26,0,0,0,.27,3.6,4.42,4.42,0,0,1-.89-.2l-1.25-.53a10.12,10.12,0,0,0-1.9-.78,15,15,0,0,0-5.78-1.4c-.28,0-.78-.08-.76.37s-.26.38-.25.64a4.23,4.23,0,0,0,1.14,3c.06.12.1.24.15.36a5,5,0,0,0,1,2c.07.6.5.77.53,1.39.39.52,1.65.77,1.12,1.64-.19.38.2,1-.14,1.41.48.55,0,1.51.73,1.89a1.54,1.54,0,0,0,1.38.2l.09,0,.48-.26c.39-.18.77-.41,1.12-.54,1.12-.46,2.11-1.4,3.27-1.73l.65-.09.33,0a2.43,2.43,0,0,1,.52.08c-.78,1-1.76,2.31-1.3,3.69,0,.08,0,.15.08.22a0,0,0,0,1,0,0h0a2,2,0,0,0,.31.47,4.3,4.3,0,0,0,1.76,1.4l.24.17c2.14.46,4-.31,6-.74a2.78,2.78,0,0,0,1-.82,1,1,0,0,0,0-.7v-.3c.56.26,1.24.57,2,.89,1.25.65,2.61,1.19,3.84,1.83a20.19,20.19,0,0,0,5.85,1.69c-1.1,1.3-3.92,1-3.93,3.35-.51.22-.46.82-.37,1.24.39.82,1.37.57,2,.49a11.14,11.14,0,0,1,1.88-.52,8,8,0,0,0,2.65-1.86c1-.86,2.16-1.28,2.82-2.43,3.91.72,7.29-1.07,10.88-1.76,2.52-.78,4.89-2,7.49-2.54,1.13-1,2.6-.87,3.73-1.71l2-.81a.71.71,0,0,0,.48-.52l.13-.14Zm-49.13-7.46-.25.26-.08,0Zm.26-6.58c-.2.13-.39.26-.58.41l0,0A1.13,1.13,0,0,1,1029.36,77.65Zm-.75.56-.27.24a.5.5,0,0,1,.22-.26Zm-.57.53h0a4.71,4.71,0,0,0-.47.67C1027.76,79.2,1027.79,78.9,1028,78.74Zm-.56,1c0,.12-.11.23-.15.34A.29.29,0,0,1,1027.48,79.69Zm-.25,3.22a3.17,3.17,0,0,1,0-2.61h0a4,4,0,0,0,.15,2.62Zm.52,1.07-.49-.81a1.11,1.11,0,0,1,.19-.09,5.22,5.22,0,0,0,.63,1.08l-.24-.1A.73.73,0,0,1,1027.75,84Zm-8.26-2.78a11.87,11.87,0,0,1,2.77.72l.08.25a11.72,11.72,0,0,0-5.34-1.11C1017.8,80.7,1018.72,81.24,1019.49,81.2Zm-2.73.32.49,1.82-.15,0a1.94,1.94,0,0,1-.46-1.58l.14,0A.58.58,0,0,1,1016.76,81.52Zm.33,1.89.18,0,.24.89C1017.29,84.05,1017,83.79,1017.09,83.41Zm1.22,2.42.33.64h0A1,1,0,0,1,1018.31,85.83Zm.6,1.15.31.6h0A1.09,1.09,0,0,1,1018.91,87Zm.46.88.42.54A.87.87,0,0,1,1019.37,87.86Zm1.25,2.22a.66.66,0,0,0,.2-.06v.88l-.12.06C1020.72,90.64,1020.36,90.33,1020.62,90.08Zm-.08,1.53,0-.47.25-.1v1.11A4.85,4.85,0,0,1,1020.54,91.61Zm1.4,1.77a1.42,1.42,0,0,1-1.11-.62l1.12.61Zm7.31-2.22a5.85,5.85,0,0,0-1.75,2.33A2.8,2.8,0,0,1,1029.25,91.16Zm-.06,5.17a7.77,7.77,0,0,0,3.65.47A4.92,4.92,0,0,1,1029.19,96.33Zm12.44.16c1,.4,2,.79,2.86,1.11A15.53,15.53,0,0,1,1041.63,96.49Z"/><path class="cls-1" d="M660.71,114.79a3.91,3.91,0,0,1,.22-1v-.06a1.74,1.74,0,0,0-.92-1.41c-.29,0-.46-.18-.75-.12.14-.38.59-.42.71-.88s-.43-1-.2-1.22c-5.37-4.25-10.19-9.57-16.13-12.75-2.48-1.39-5.2-2.3-7.71-3.56-4.68-1.68-9.19-4-14.5-3.71-.57.47-1.72-.27-1.9.76-.46.16-1.17-.35-1.46.23,0,.31.34.34.44.61-.51.09-1.14-.39-1.57,0l.38.67c-.51.21-1-.41-1.44.09l.06.4c-.34.05-1-.3-1.26.12,0,.23.09.4.2.59-.58,0-1.22-.32-1.71.08a1.1,1.1,0,0,1,.09.45c-.37,0-1.17-.32-1.28.32-.84-.55-1.25.51-2.07.06-.38.39-1-.2-1.36.29-.32,0-.71-.22-1,.12-.06.65-.86,0-.8.73l-.14.12a2.44,2.44,0,0,0-1.11.39,13.42,13.42,0,0,0-5.45,1.29,8.19,8.19,0,0,0-2.44,3,6.48,6.48,0,0,0,.34,4.42,4.94,4.94,0,0,1-1.09-.25l-1.55-.65a13.27,13.27,0,0,0-2.33-1,18.4,18.4,0,0,0-7.1-1.72c-.35,0-1-.09-.94.46s-.33.47-.31.78c.14,1.32.32,2.75,1.41,3.66.06.15.12.3.17.45a6.27,6.27,0,0,0,1.25,2.43c.09.74.61,1,.65,1.71.48.65,2,1,1.37,2-.23.47.25,1.2-.16,1.73.58.68,0,1.86.9,2.34a1.88,1.88,0,0,0,1.69.24l.11.06.59-.33c.48-.22,1-.49,1.38-.66,1.38-.56,2.6-1.72,4-2.13l.8-.1.41,0a2.94,2.94,0,0,1,.63.1c-1,1.2-2.16,2.84-1.59,4.54a2,2,0,0,0,.1.26,0,0,0,0,0,0,0h0a2.46,2.46,0,0,0,.38.57,5.44,5.44,0,0,0,2.17,1.73l.29.21c2.64.57,5-.38,7.36-.91a3.38,3.38,0,0,0,1.24-1,1.16,1.16,0,0,0,0-.86v-.37c.68.32,1.53.7,2.46,1.1,1.53.79,3.2,1.46,4.72,2.25,2.45.89,4.4,1.86,7.2,2.08-1.36,1.59-4.82,1.21-4.84,4.11-.63.28-.57,1-.46,1.52.48,1,1.69.71,2.5.61a13.43,13.43,0,0,1,2.31-.64A9.85,9.85,0,0,0,627,127c1.23-1.06,2.66-1.58,3.48-3,4.8.88,9-1.31,13.38-2.17,3.1-1,6-2.46,9.21-3.12,1.39-1.17,3.2-1.07,4.58-2.11l2.43-1a.86.86,0,0,0,.59-.64l.17-.18Zm-60.41-9.17-.31.32-.09,0Zm.32-8.08a6.54,6.54,0,0,0-.71.5l0,0A1.33,1.33,0,0,1,600.62,97.54Zm-.92.68a3.18,3.18,0,0,0-.33.3.59.59,0,0,1,.26-.32Zm-.7.65h0a6.15,6.15,0,0,0-.58.83C598.65,99.44,598.69,99.08,599,98.87Zm-.69,1.18c-.07.14-.13.28-.18.41A.34.34,0,0,1,598.31,100.05Zm-.3,4c-.29-1.07-.65-2.23,0-3.21h0a4.85,4.85,0,0,0,.18,3.23Zm.63,1.32-.61-1a2.56,2.56,0,0,1,.24-.11,6.21,6.21,0,0,0,.78,1.32l-.29-.12Zm-10.15-3.43a14.91,14.91,0,0,1,3.4.9l.1.3a14.51,14.51,0,0,0-6.57-1.37C586.4,101.29,587.54,102,588.49,101.89Zm-3.37.4.61,2.23-.18,0a2.35,2.35,0,0,1-.57-1.94l.18,0A.66.66,0,0,1,585.12,102.29Zm.41,2.33.23,0,.3,1.1C585.77,105.4,585.41,105.08,585.53,104.62Zm1.5,3,.41.78h0A1.32,1.32,0,0,1,587,107.6Zm.74,1.41.38.73h0A1.29,1.29,0,0,1,587.77,109Zm.56,1.08.52.67A1.12,1.12,0,0,1,588.33,110.09Zm1.54,2.73.26-.07v1.08l-.15.07C590,113.51,589.56,113.13,589.87,112.82Zm-.09,1.87.05-.57.3-.12v1.36A4,4,0,0,1,589.78,114.69Zm1.72,2.18a1.67,1.67,0,0,1-1.36-.76l1.37.75Zm9-2.72a7.07,7.07,0,0,0-2.15,2.86A3.4,3.4,0,0,1,600.49,114.15Zm-.07,6.35a9.31,9.31,0,0,0,4.48.58A6,6,0,0,1,600.42,120.5Zm15.29.2c1.23.5,2.44,1,3.51,1.36A18.74,18.74,0,0,1,615.71,120.7Z"/><path class="cls-1" d="M746,92.83a3.72,3.72,0,0,1,.22-1v-.07a1.8,1.8,0,0,0-.93-1.42c-.29,0-.46-.17-.75-.12.14-.38.59-.41.71-.87s-.43-1-.19-1.23c-5.39-4.27-10.24-9.61-16.2-12.8-2.49-1.39-5.21-2.31-7.74-3.57-4.7-1.68-9.22-4-14.55-3.73-.57.47-1.73-.27-1.91.77-.46.16-1.17-.35-1.46.22,0,.32.33.35.44.62-.51.09-1.15-.39-1.57,0l.38.67c-.52.21-1-.41-1.45.1l.06.4c-.34,0-1-.31-1.27.11,0,.23.09.4.21.6-.58,0-1.23-.33-1.72.07a1.18,1.18,0,0,1,.09.46c-.37,0-1.17-.33-1.29.32-.84-.55-1.25.51-2.08.06-.37.39-1-.2-1.36.29-.32,0-.71-.22-1,.12-.06.65-.87,0-.8.74l-.15.12a2.44,2.44,0,0,0-1.11.39,13.47,13.47,0,0,0-5.47,1.29,8.33,8.33,0,0,0-2.45,3,6.48,6.48,0,0,0,.34,4.44,4.94,4.94,0,0,1-1.09-.25L680.41,82a12.34,12.34,0,0,0-2.35-1,18.38,18.38,0,0,0-7.13-1.73c-.34,0-1-.1-.93.46.14.41-.33.47-.31.78.13,1.33.31,2.76,1.4,3.68a4.22,4.22,0,0,1,.18.45,6.38,6.38,0,0,0,1.25,2.44c.09.74.62,1,.65,1.71.49.65,2,1,1.39,2-.24.47.24,1.2-.17,1.74.59.68,0,1.86.9,2.34a1.91,1.91,0,0,0,1.7.24l.11.06.59-.32c.48-.22.95-.5,1.39-.67,1.38-.56,2.61-1.73,4-2.13l.81-.11.41,0a5.12,5.12,0,0,1,.63.1c-1,1.2-2.17,2.85-1.6,4.56a2,2,0,0,0,.1.26,0,0,0,0,1,0,0h0a2.57,2.57,0,0,0,.38.57A5.44,5.44,0,0,0,686,99.2l.3.22c2.64.56,5-.39,7.38-.93a3.31,3.31,0,0,0,1.25-1,1.16,1.16,0,0,0,0-.86v-.37c.68.32,1.53.7,2.46,1.1,1.54.8,3.22,1.47,4.74,2.26,2.46.9,4.41,1.87,7.23,2.09-1.37,1.6-4.84,1.21-4.86,4.12-.63.28-.57,1-.46,1.53.48,1,1.69.72,2.51.61a14.23,14.23,0,0,1,2.32-.64,10,10,0,0,0,3.26-2.29c1.23-1.06,2.68-1.58,3.49-3,4.82.88,9-1.32,13.43-2.18,3.11-1,6-2.47,9.25-3.13,1.39-1.18,3.21-1.07,4.59-2.12l2.45-1A.86.86,0,0,0,746,93l.17-.18Zm-60.63-9.21-.32.33-.09,0Zm.31-8.11a6.54,6.54,0,0,0-.71.5l0,0A1.3,1.3,0,0,1,685.7,75.51Zm-.92.68a3.26,3.26,0,0,0-.33.31.64.64,0,0,1,.26-.33Zm-.71.66h0a7.14,7.14,0,0,0-.57.83C683.73,77.42,683.76,77.05,684.07,76.85ZM683.38,78c-.06.14-.13.28-.18.42A.35.35,0,0,1,683.38,78Zm-.3,4c-.29-1.08-.65-2.24,0-3.23h0a4.85,4.85,0,0,0,.18,3.23Zm.64,1.32-.61-1a.88.88,0,0,1,.24-.11,6.22,6.22,0,0,0,.77,1.32l-.29-.12Zm-10.2-3.44a14.57,14.57,0,0,1,3.42.9l.1.3a14.61,14.61,0,0,0-6.59-1.37C671.43,79.27,672.58,79.93,673.52,79.88Zm-3.37.4.6,2.24-.18,0a2.37,2.37,0,0,1-.57-1.94l.18,0A.65.65,0,0,1,670.15,80.28Zm.41,2.33.23,0,.29,1.1C670.8,83.4,670.44,83.08,670.56,82.61Zm1.5,3,.41.79h0A1.23,1.23,0,0,1,672.06,85.6Zm.75,1.43.38.73h-.05A1.28,1.28,0,0,1,672.81,87Zm.56,1.07.52.68A1.11,1.11,0,0,1,673.37,88.1Zm1.55,2.75.25-.08v1.09l-.15.08C675,91.54,674.6,91.16,674.92,90.85Zm-.1,1.88,0-.57.3-.13V93.4A4,4,0,0,1,674.82,92.73Zm1.73,2.18a1.69,1.69,0,0,1-1.37-.76l1.38.76Zm9-2.73a7.12,7.12,0,0,0-2.16,2.87A3.46,3.46,0,0,1,685.57,92.18Zm-.07,6.38a9.39,9.39,0,0,0,4.5.58A6.06,6.06,0,0,1,685.5,98.56Zm15.35.2c1.23.5,2.45,1,3.52,1.37A19.3,19.3,0,0,1,700.85,98.76Z"/><path class="cls-1" d="M585.28,247.46a3.72,3.72,0,0,1,.22-1v-.07a1.75,1.75,0,0,0-.93-1.41c-.29,0-.45-.18-.74-.12.14-.38.58-.42.71-.88s-.43-1-.2-1.23c-5.39-4.26-10.23-9.6-16.19-12.79-2.49-1.39-5.21-2.31-7.74-3.57-4.69-1.68-9.21-4-14.53-3.72-.58.47-1.74-.27-1.91.76-.46.17-1.18-.35-1.47.23,0,.31.34.34.44.62-.5.08-1.14-.4-1.57,0l.38.66c-.52.22-1-.41-1.45.1l.07.4c-.35.05-1-.31-1.27.11a.83.83,0,0,0,.2.6c-.57,0-1.22-.32-1.71.08a1.1,1.1,0,0,1,.09.45c-.37,0-1.17-.32-1.29.32-.84-.55-1.25.51-2.08.06-.37.39-1-.2-1.36.29-.32,0-.71-.22-1,.12-.06.65-.86,0-.8.74l-.14.12a2.47,2.47,0,0,0-1.12.39,13.51,13.51,0,0,0-5.47,1.29,8.41,8.41,0,0,0-2.44,3,6.43,6.43,0,0,0,.34,4.44,5.85,5.85,0,0,1-1.1-.25l-1.55-.66a13.37,13.37,0,0,0-2.34-1,18.74,18.74,0,0,0-7.12-1.73c-.35,0-1-.09-.94.47.14.4-.33.46-.31.78.14,1.32.31,2.76,1.41,3.67.06.15.12.3.17.45a6.31,6.31,0,0,0,1.25,2.44c.09.75.62.95.65,1.72.49.65,2,.95,1.39,2-.24.47.25,1.2-.17,1.74.59.68,0,1.86.9,2.34a1.91,1.91,0,0,0,1.7.24l.11.06.59-.32c.48-.22,1-.5,1.39-.67,1.38-.56,2.6-1.72,4-2.13l.81-.11.41,0a2.76,2.76,0,0,1,.63.1c-1,1.2-2.17,2.84-1.59,4.55a2,2,0,0,0,.1.26,0,0,0,0,0,0,0h0a2.76,2.76,0,0,0,.38.58,5.4,5.4,0,0,0,2.18,1.73l.29.21c2.65.57,5-.39,7.38-.92a3.41,3.41,0,0,0,1.25-1,1.21,1.21,0,0,0,0-.86v-.37c.68.32,1.53.7,2.46,1.1,1.54.8,3.22,1.46,4.74,2.26,2.45.89,4.41,1.87,7.22,2.08-1.36,1.6-4.84,1.22-4.85,4.13-.63.28-.57,1-.46,1.53.48,1,1.69.71,2.51.61a13.46,13.46,0,0,1,2.31-.65,9.89,9.89,0,0,0,3.26-2.28c1.23-1.07,2.67-1.59,3.49-3,4.82.88,9-1.32,13.42-2.18,3.11-1,6-2.47,9.24-3.13,1.4-1.18,3.21-1.07,4.6-2.12l2.44-1a.86.86,0,0,0,.59-.64l.17-.18Zm-60.6-9.2-.31.32-.1,0Zm.32-8.11a5.79,5.79,0,0,0-.72.5l0,0A1.32,1.32,0,0,1,525,230.15Zm-.93.68-.33.31a.62.62,0,0,1,.27-.33Zm-.7.66h0a5.57,5.57,0,0,0-.58.83C523,232.06,523.06,231.69,523.37,231.49Zm-.69,1.18a3.79,3.79,0,0,0-.18.42A.34.34,0,0,1,522.68,232.67Zm-.3,4c-.29-1.08-.65-2.24,0-3.23h0a4.92,4.92,0,0,0,.17,3.23ZM523,238l-.61-1a1.22,1.22,0,0,1,.24-.1,6.47,6.47,0,0,0,.78,1.32l-.29-.12Zm-10.19-3.44a15.07,15.07,0,0,1,3.42.89l.1.31a14.51,14.51,0,0,0-6.59-1.38C510.73,233.91,511.88,234.57,512.82,234.52Zm-3.37.4.61,2.24-.18,0a2.39,2.39,0,0,1-.58-1.94l.18,0A.86.86,0,0,1,509.45,234.92Zm.41,2.33.23,0,.29,1.11C510.1,238,509.74,237.71,509.86,237.25Zm1.5,3,.41.79h0A1.28,1.28,0,0,1,511.36,240.24Zm.75,1.42.38.73h0A1.23,1.23,0,0,1,512.11,241.66Zm.56,1.08.52.67A1.12,1.12,0,0,1,512.67,242.74Zm1.55,2.74a2.33,2.33,0,0,0,.25-.07v1.08l-.15.08C514.34,246.17,513.9,245.79,514.22,245.48Zm-.1,1.88,0-.57.3-.13V248A4,4,0,0,1,514.12,247.36Zm1.73,2.18c-.54-.1-1.13-.23-1.37-.76l1.38.76Zm9-2.73a7.12,7.12,0,0,0-2.16,2.87A3.42,3.42,0,0,1,524.87,246.81Zm-.08,6.37a9.28,9.28,0,0,0,4.5.58A6,6,0,0,1,524.79,253.18Zm15.35.21c1.23.49,2.44,1,3.52,1.36A18.57,18.57,0,0,1,540.14,253.39Z"/><path class="cls-1" d="M693.49,265.23a3.89,3.89,0,0,1,.22-1v-.06a1.77,1.77,0,0,0-.93-1.42c-.3,0-.46-.18-.75-.13.14-.38.59-.42.71-.88s-.43-1-.2-1.23c-5.42-4.29-10.28-9.66-16.28-12.87-2.5-1.4-5.24-2.32-7.78-3.59-4.72-1.69-9.27-4-14.62-3.74-.58.47-1.74-.27-1.92.77-.47.16-1.18-.35-1.47.22,0,.32.33.35.44.63-.51.08-1.15-.4-1.58,0l.38.67c-.52.21-1-.42-1.46.09l.07.41c-.35,0-1-.31-1.28.11,0,.24.1.41.21.6-.58,0-1.23-.33-1.72.08a1.29,1.29,0,0,1,.09.45c-.38,0-1.19-.32-1.3.33-.84-.56-1.26.51-2.09.06-.38.39-1-.2-1.37.29-.32,0-.72-.22-1,.12-.07.65-.88,0-.81.74l-.15.12a2.35,2.35,0,0,0-1.11.4,13.5,13.5,0,0,0-5.51,1.29,8.4,8.4,0,0,0-2.45,3.06c-.59,1.42-.14,3.1.34,4.46a4.9,4.9,0,0,1-1.1-.25l-1.56-.66a12.83,12.83,0,0,0-2.36-1A18.54,18.54,0,0,0,618,251.6c-.35,0-1-.09-.95.46s-.33.47-.31.79c.14,1.33.32,2.77,1.42,3.7l.18.45a6.35,6.35,0,0,0,1.25,2.45c.09.75.62,1,.66,1.73.49.65,2,1,1.39,2-.24.48.25,1.21-.17,1.75.59.69,0,1.87.91,2.35a1.9,1.9,0,0,0,1.71.25l.1.06.6-.33c.48-.22,1-.5,1.4-.67,1.39-.56,2.61-1.73,4-2.14l.82-.11.41,0a3.73,3.73,0,0,1,.63.1c-1,1.21-2.18,2.87-1.6,4.58,0,.09.06.18.1.27v0h0a2.4,2.4,0,0,0,.39.57,5.52,5.52,0,0,0,2.18,1.75l.3.21c2.66.57,5-.39,7.42-.92a3.57,3.57,0,0,0,1.26-1,1.21,1.21,0,0,0,0-.86v-.38c.69.32,1.54.71,2.48,1.11,1.55.8,3.24,1.47,4.76,2.27,2.48.9,4.44,1.88,7.27,2.09-1.37,1.61-4.87,1.23-4.88,4.15-.63.29-.57,1-.46,1.54.48,1,1.69.72,2.52.61a13.39,13.39,0,0,1,2.33-.64,10.28,10.28,0,0,0,3.28-2.3c1.24-1.07,2.68-1.59,3.51-3,4.84.89,9-1.32,13.49-2.19,3.13-1,6.07-2.48,9.3-3.15,1.4-1.18,3.22-1.08,4.62-2.12l2.45-1a.91.91,0,0,0,.6-.64l.17-.19Zm-61-9.25-.31.32-.1,0Zm.32-8.16a5.88,5.88,0,0,0-.72.51l0,0A1.38,1.38,0,0,1,632.86,247.82Zm-.93.69-.33.3a.63.63,0,0,1,.27-.32Zm-.71.66h.06a6.21,6.21,0,0,0-.59.83C630.88,249.74,630.91,249.37,631.22,249.17Zm-.69,1.18c-.07.15-.13.29-.18.43A.36.36,0,0,1,630.53,250.35Zm-.3,4c-.3-1.09-.66-2.26,0-3.25h0a4.85,4.85,0,0,0,.18,3.25Zm.64,1.32-.62-1,.24-.1a6.58,6.58,0,0,0,.78,1.33l-.29-.13A.24.24,0,0,1,630.87,255.67Zm-10.25-3.45a14.87,14.87,0,0,1,3.44.9l.09.3a14.62,14.62,0,0,0-6.62-1.38C618.52,251.61,619.67,252.27,620.62,252.22Zm-3.39.4.61,2.25-.19,0a2.36,2.36,0,0,1-.57-2l.18,0A.53.53,0,0,1,617.23,252.62Zm.41,2.35.23,0,.3,1.11C617.88,255.75,617.52,255.43,617.64,255Zm1.51,3,.41.79h0A1.28,1.28,0,0,1,619.15,258Zm.75,1.43.38.73h0A1.29,1.29,0,0,1,619.9,259.4Zm.56,1.08.53.68A1.13,1.13,0,0,1,620.46,260.48Zm1.56,2.76a1,1,0,0,0,.25-.07v1.09l-.15.07C622.14,263.94,621.7,263.55,622,263.24Zm-.1,1.89.05-.57.31-.13v1.38C622.11,265.64,622,265.29,621.92,265.13Zm1.74,2.2c-.54-.11-1.13-.24-1.38-.77l1.39.76Zm9.07-2.75a7.07,7.07,0,0,0-2.17,2.89A3.43,3.43,0,0,1,632.73,264.58Zm-.08,6.41a9.53,9.53,0,0,0,4.53.58A6.08,6.08,0,0,1,632.65,271Zm15.44.21c1.23.49,2.46,1,3.54,1.37A20.25,20.25,0,0,1,648.09,271.2Z"/><path class="cls-1" d="M616.39,308.83a4.87,4.87,0,0,1,.26-1.17v-.08a2.15,2.15,0,0,0-1.13-1.71c-.35,0-.55-.21-.9-.15.17-.46.71-.5.86-1.06s-.52-1.19-.24-1.48c-6.51-5.15-12.35-11.6-19.55-15.45-3-1.68-6.3-2.79-9.35-4.31-5.66-2-11.13-4.83-17.56-4.5-.69.57-2.09-.32-2.3.92-.56.2-1.42-.42-1.77.28,0,.38.4.42.53.75-.61.1-1.38-.48-1.9,0l.46.81c-.62.25-1.25-.5-1.75.11l.08.49c-.42.05-1.23-.37-1.53.14-.06.28.11.48.25.72-.7,0-1.49-.4-2.07.09a1.57,1.57,0,0,1,.11.54c-.45.06-1.43-.39-1.57.39-1-.66-1.51.62-2.5.08-.46.46-1.25-.24-1.65.35-.39.06-.86-.27-1.16.14-.07.79-1,0-1,.89l-.17.14a2.88,2.88,0,0,0-1.34.48c-2.4-.14-4.48.77-6.61,1.55-1.19,1.19-2.39,2.09-2.95,3.68s-.17,3.72.41,5.36a6.58,6.58,0,0,1-1.33-.3c-.6-.26-1.23-.53-1.87-.79a15.29,15.29,0,0,0-2.83-1.16,22.35,22.35,0,0,0-8.6-2.09c-.42.05-1.17-.11-1.14.56.18.49-.39.56-.37.94.17,1.6.38,3.33,1.7,4.44.08.18.15.36.22.54a7.35,7.35,0,0,0,1.51,2.95c.1.9.74,1.15.78,2.07.59.78,2.46,1.15,1.67,2.44-.28.58.3,1.45-.2,2.1.71.83,0,2.25,1.09,2.83a2.28,2.28,0,0,0,2,.3l.13.07.71-.39c.59-.27,1.15-.6,1.68-.81,1.67-.67,3.15-2.08,4.86-2.58l1-.12.49,0a4.24,4.24,0,0,1,.77.12c-1.16,1.45-2.62,3.44-1.93,5.51a2.85,2.85,0,0,0,.12.31,0,0,0,0,1,0,0h0a2.87,2.87,0,0,0,.46.69,6.58,6.58,0,0,0,2.62,2.1l.36.25c3.2.69,6-.47,8.91-1.11a4.08,4.08,0,0,0,1.51-1.22,1.44,1.44,0,0,0,0-1V313c.83.39,1.85.85,3,1.33,1.86,1,3.88,1.77,5.72,2.73,3,1.08,5.33,2.26,8.72,2.52-1.64,1.93-5.84,1.47-5.86,5-.76.34-.69,1.23-.55,1.85.57,1.22,2,.86,3,.73a16.84,16.84,0,0,1,2.8-.78,11.85,11.85,0,0,0,3.93-2.76c1.49-1.28,3.23-1.91,4.22-3.62,5.82,1.06,10.85-1.59,16.21-2.63,3.75-1.16,7.28-3,11.16-3.78,1.68-1.42,3.87-1.3,5.55-2.55l2.94-1.2a1.06,1.06,0,0,0,.72-.78l.2-.21Zm-73.2-11.11-.37.39-.12-.05Zm.39-9.8a8.52,8.52,0,0,0-.87.61l0,0A1.63,1.63,0,0,1,543.58,287.92Zm-1.12.83-.4.37a.72.72,0,0,1,.32-.39Zm-.85.79.06,0a6.82,6.82,0,0,0-.7,1C541.19,290.23,541.24,289.79,541.61,289.54Zm-.83,1.42c-.08.18-.16.34-.22.51A.42.42,0,0,1,540.78,291Zm-.37,4.8c-.35-1.3-.78-2.71,0-3.9h0a5.91,5.91,0,0,0,.22,3.9Zm.77,1.59-.74-1.21a1.51,1.51,0,0,1,.29-.13,7.59,7.59,0,0,0,.94,1.6l-.35-.15A.53.53,0,0,1,541.18,297.35Zm-12.31-4.15a18.43,18.43,0,0,1,4.13,1.08l.12.37a17.56,17.56,0,0,0-8-1.66C526.35,292.47,527.73,293.27,528.87,293.2Zm-4.07.48.73,2.71-.22,0a2.91,2.91,0,0,1-.69-2.35l.22,0A.76.76,0,0,1,524.8,293.68Zm.5,2.82.27,0,.36,1.33C525.59,297.45,525.15,297.06,525.3,296.5Zm1.81,3.61.49.95h0A1.48,1.48,0,0,1,527.11,300.11Zm.9,1.72.46.88h-.06A1.54,1.54,0,0,1,528,301.83Zm.68,1.3.63.81A1.34,1.34,0,0,1,528.69,303.13Zm1.87,3.31.3-.09v1.31l-.17.09C530.7,307.28,530.17,306.82,530.56,306.44Zm-.13,2.27.07-.69c.13,0,.24-.1.37-.15v1.65C530.67,309.32,530.58,308.9,530.43,308.71Zm2.1,2.64c-.66-.13-1.37-.29-1.66-.92l1.67.91Zm10.89-3.3a8.58,8.58,0,0,0-2.61,3.47A4.14,4.14,0,0,1,543.42,308.05Zm-.09,7.7a11.49,11.49,0,0,0,5.44.7A7.33,7.33,0,0,1,543.33,315.75Zm18.53.25c1.49.59,3,1.16,4.26,1.64A23.15,23.15,0,0,1,561.86,316Z"/><path class="cls-1" d="M365,189.67a3.86,3.86,0,0,1,.2-.92v-.06a1.68,1.68,0,0,0-.88-1.33c-.27,0-.43-.17-.7-.12.13-.35.55-.39.66-.82s-.4-.93-.18-1.16c-5.08-4-9.63-9-15.25-12-2.35-1.31-4.91-2.17-7.29-3.36-4.42-1.59-8.68-3.77-13.69-3.51-.54.44-1.64-.25-1.8.72-.44.16-1.11-.33-1.38.21,0,.3.31.33.41.59-.48.08-1.08-.38-1.48,0l.36.63c-.49.2-1-.39-1.37.09l.07.37c-.33,0-1-.29-1.2.11-.05.22.09.38.19.56-.54,0-1.15-.3-1.61.07a1.22,1.22,0,0,1,.08.43c-.34,0-1.1-.3-1.21.3-.79-.51-1.18.49-2,.06-.35.37-1-.19-1.28.28-.31,0-.68-.21-.91.11-.05.61-.81,0-.75.69l-.14.11a2.34,2.34,0,0,0-1,.37,12.81,12.81,0,0,0-5.16,1.22,7.82,7.82,0,0,0-2.3,2.86,6.06,6.06,0,0,0,.32,4.19,5,5,0,0,1-1-.24l-1.46-.62a12.49,12.49,0,0,0-2.21-.9,17.43,17.43,0,0,0-6.71-1.63c-.33,0-.91-.09-.89.43s-.31.44-.29.74a4.86,4.86,0,0,0,1.33,3.46c.06.15.12.29.17.43a6,6,0,0,0,1.17,2.3c.09.7.59.89.62,1.61.46.61,1.91.9,1.3,1.9-.22.45.23,1.14-.16,1.64.55.65,0,1.76.85,2.21a1.79,1.79,0,0,0,1.6.23l.1.06.56-.31c.45-.21.9-.47,1.31-.63,1.3-.53,2.45-1.63,3.79-2l.76-.1.39,0a3.13,3.13,0,0,1,.59.09c-.9,1.13-2,2.68-1.5,4.29l.09.25s0,0,0,0h0a2.31,2.31,0,0,0,.36.54,5.13,5.13,0,0,0,2,1.63l.28.2c2.49.54,4.71-.36,6.95-.87a3,3,0,0,0,1.18-.95,1.13,1.13,0,0,0,0-.81v-.35c.64.3,1.44.66,2.32,1,1.45.75,3,1.38,4.46,2.13,2.31.84,4.16,1.76,6.8,2-1.28,1.51-4.55,1.14-4.57,3.89-.59.26-.53,1-.43,1.44.45,1,1.59.67,2.36.57a12.7,12.7,0,0,1,2.19-.61,9.36,9.36,0,0,0,3.07-2.15c1.16-1,2.51-1.49,3.28-2.83,4.54.83,8.47-1.24,12.65-2.05,2.93-.91,5.68-2.32,8.7-2.95,1.32-1.1,3-1,4.33-2l2.3-.93a.85.85,0,0,0,.56-.61l.16-.17ZM307.92,181l-.3.31-.09,0Zm.3-7.64a6.32,6.32,0,0,0-.68.47l0,0A1.28,1.28,0,0,1,308.22,173.36Zm-.88.65-.31.28a.56.56,0,0,1,.25-.3Zm-.66.61h.05a5.46,5.46,0,0,0-.55.78C306.36,175.16,306.39,174.82,306.68,174.62Zm-.65,1.11c-.06.14-.12.27-.17.4A.33.33,0,0,1,306,175.73Zm-.29,3.74c-.27-1-.61-2.11,0-3h0a4.68,4.68,0,0,0,.17,3Zm.6,1.25-.57-.95a.94.94,0,0,1,.23-.1,5.65,5.65,0,0,0,.73,1.25l-.28-.12Zm-9.59-3.24a14.11,14.11,0,0,1,3.22.84l.09.29a13.67,13.67,0,0,0-6.21-1.3C294.78,176.9,295.85,177.53,296.75,177.48Zm-3.18.37.57,2.11-.17,0a2.24,2.24,0,0,1-.54-1.83l.17,0A.61.61,0,0,1,293.57,177.85Zm.39,2.2.21,0,.28,1C294.18,180.79,293.84,180.49,294,180.05Zm1.41,2.82.38.74h0A1.22,1.22,0,0,1,295.37,182.87Zm.7,1.34.36.68h0A1.16,1.16,0,0,1,296.07,184.21Zm.53,1,.49.63A1.07,1.07,0,0,1,296.6,185.22Zm1.46,2.58.24-.06v1l-.14.07C298.17,188.46,297.76,188.1,298.06,187.8Zm-.1,1.78L298,189l.29-.12v1.29C298.15,190.05,298.07,189.72,298,189.58Zm1.64,2a1.56,1.56,0,0,1-1.29-.71l1.3.71Zm8.49-2.57a6.67,6.67,0,0,0-2,2.7A3.22,3.22,0,0,1,308.09,189.06Zm-.07,6a8.82,8.82,0,0,0,4.24.55A5.72,5.72,0,0,1,308,195.06Zm14.46.2c1.15.46,2.3.9,3.31,1.28A18.72,18.72,0,0,1,322.48,195.26Z"/><path class="cls-1" d="M299.68,138.42a4.42,4.42,0,0,1,.26-1.18v-.08a2.15,2.15,0,0,0-1.12-1.71c-.35,0-.55-.21-.9-.15.16-.46.71-.5.85-1.06s-.52-1.19-.24-1.48c-6.5-5.15-12.35-11.59-19.55-15.45-3-1.68-6.29-2.78-9.34-4.31-5.67-2-11.13-4.83-17.56-4.49-.69.56-2.1-.33-2.31.92-.56.2-1.42-.42-1.77.27,0,.38.41.42.53.75-.61.1-1.38-.48-1.89,0l.46.8c-.63.26-1.25-.5-1.76.12l.08.48c-.41,0-1.23-.37-1.53.14-.06.28.11.48.25.72-.7,0-1.48-.4-2.07.09a1.38,1.38,0,0,1,.11.55c-.45,0-1.42-.39-1.56.38-1-.66-1.51.62-2.51.08-.45.47-1.24-.24-1.65.35-.38.06-.86-.27-1.15.15-.08.78-1.05,0-1,.88l-.18.15a2.92,2.92,0,0,0-1.34.47c-2.39-.13-4.47.78-6.61,1.56-1.19,1.18-2.38,2.08-2.95,3.67s-.16,3.72.41,5.36a6.49,6.49,0,0,1-1.32-.3l-1.87-.79a15.67,15.67,0,0,0-2.84-1.16A22.26,22.26,0,0,0,209,122c-.42,0-1.16-.11-1.13.56.17.49-.4.56-.37.94.16,1.6.37,3.33,1.7,4.44.07.18.15.37.21.55a7.64,7.64,0,0,0,1.51,2.94c.1.9.75,1.15.79,2.07.58.79,2.45,1.16,1.66,2.44-.28.58.31,1.46-.2,2.1.71.83,0,2.25,1.09,2.83a2.3,2.3,0,0,0,2.06.3l.13.07.71-.39c.58-.27,1.15-.6,1.68-.81,1.67-.67,3.14-2.08,4.86-2.57l1-.13.5,0a4.17,4.17,0,0,1,.76.13c-1.16,1.45-2.62,3.43-1.93,5.5a2.88,2.88,0,0,0,.13.31,0,0,0,0,0,0,0h0a2.91,2.91,0,0,0,.47.69,6.51,6.51,0,0,0,2.62,2.1l.35.26c3.2.68,6-.47,8.91-1.12A4,4,0,0,0,238,144a1.49,1.49,0,0,0,0-1v-.45c.82.39,1.85.85,3,1.34,1.86,1,3.89,1.76,5.72,2.73,3,1.07,5.33,2.25,8.73,2.51-1.65,1.93-5.84,1.47-5.86,5-.76.34-.69,1.24-.56,1.85.58,1.23,2,.86,3,.73a17.11,17.11,0,0,1,2.8-.78,11.89,11.89,0,0,0,3.94-2.76c1.48-1.28,3.22-1.91,4.21-3.62,5.82,1.06,10.85-1.59,16.21-2.63,3.76-1.16,7.29-3,11.16-3.78,1.69-1.42,3.88-1.3,5.55-2.55l3-1.2a1.06,1.06,0,0,0,.72-.77l.2-.22Zm-73.2-11.12-.38.39-.11,0Zm.38-9.8c-.3.19-.58.39-.87.61v0A1.64,1.64,0,0,1,226.86,117.5Zm-1.12.83-.4.37a.7.7,0,0,1,.33-.39Zm-.85.79.07,0a6,6,0,0,0-.7,1C224.48,119.81,224.52,119.37,224.89,119.12Zm-.83,1.43c-.08.17-.16.34-.22.5A.42.42,0,0,1,224.06,120.55Zm-.36,4.79c-.35-1.3-.79-2.7,0-3.9h0a5.85,5.85,0,0,0,.21,3.9Zm.76,1.59-.73-1.21a1.51,1.51,0,0,1,.29-.13,7.6,7.6,0,0,0,.93,1.6l-.35-.15Zm-12.3-4.15a18.05,18.05,0,0,1,4.13,1.09l.11.36a17.67,17.67,0,0,0-8-1.66C209.63,122.05,211,122.85,212.16,122.78Zm-4.08.49.74,2.7-.22,0a2.87,2.87,0,0,1-.7-2.35l.22,0A.91.91,0,0,1,208.08,123.27Zm.5,2.81.27,0,.36,1.33C208.87,127,208.43,126.64,208.58,126.08Zm1.81,3.61.5.95h0A1.56,1.56,0,0,1,210.39,129.69Zm.9,1.72.46.88h-.05A1.56,1.56,0,0,1,211.29,131.41Zm.68,1.3.63.81A1.34,1.34,0,0,1,212,132.71Zm1.87,3.31a1.32,1.32,0,0,0,.3-.09v1.32l-.18.08C214,136.86,213.46,136.4,213.84,136Zm-.12,2.27.06-.69c.13,0,.25-.1.37-.15v1.66C214,138.9,213.86,138.48,213.72,138.29Zm2.09,2.64a2,2,0,0,1-1.65-.92l1.67.91Zm10.89-3.3a8.5,8.5,0,0,0-2.6,3.47A4.12,4.12,0,0,1,226.7,137.63Zm-.09,7.7a11.39,11.39,0,0,0,5.44.7A7.33,7.33,0,0,1,226.61,145.33Zm18.54.25c1.48.59,2.95,1.16,4.25,1.64A23.33,23.33,0,0,1,245.15,145.58Z"/><path class="cls-1" d="M463.92,153.42a3,3,0,0,1,.17-.81v-.05a1.44,1.44,0,0,0-.77-1.16c-.24,0-.37-.15-.61-.1.11-.32.48-.35.58-.73s-.35-.81-.16-1c-4.43-3.51-8.41-7.9-13.31-10.53-2.05-1.14-4.29-1.9-6.37-2.93-3.86-1.39-7.58-3.29-12-3.07-.47.39-1.42-.22-1.57.63-.38.14-1-.28-1.2.19,0,.26.27.28.36.51-.42.07-.94-.33-1.29,0l.31.55c-.43.17-.85-.34-1.19.08l0,.33c-.28,0-.84-.25-1,.09a.66.66,0,0,0,.17.49c-.48,0-1-.27-1.41.06a1.22,1.22,0,0,1,.07.38c-.3,0-1-.27-1.06.26-.69-.45-1,.42-1.71,0-.31.32-.85-.16-1.12.24-.27,0-.59-.18-.79.1-.05.53-.71,0-.66.61l-.12.09a2,2,0,0,0-.91.33,11.08,11.08,0,0,0-4.51,1.05,6.82,6.82,0,0,0-2,2.51,5.24,5.24,0,0,0,.28,3.65,4.37,4.37,0,0,1-.9-.21l-1.28-.53a9.93,9.93,0,0,0-1.93-.8,15.4,15.4,0,0,0-5.86-1.42c-.28,0-.79-.07-.77.38s-.27.39-.25.65a4.24,4.24,0,0,0,1.15,3,2.87,2.87,0,0,1,.15.37,5.14,5.14,0,0,0,1,2c.07.61.51.78.53,1.41.4.53,1.68.78,1.14,1.66-.19.39.2,1-.14,1.43.49.56,0,1.53.75,1.93a1.56,1.56,0,0,0,1.39.2l.09.05.49-.27c.39-.19.78-.41,1.14-.55,1.14-.46,2.14-1.42,3.31-1.76l.67-.08.33,0a2.43,2.43,0,0,1,.52.08c-.79,1-1.78,2.34-1.31,3.74a1.43,1.43,0,0,0,.08.22v0h0a2.24,2.24,0,0,0,.31.47,4.44,4.44,0,0,0,1.79,1.42l.24.18c2.17.47,4.11-.32,6.07-.76a2.83,2.83,0,0,0,1-.83.92.92,0,0,0,0-.71v-.3c.56.26,1.26.57,2,.9,1.26.66,2.64,1.21,3.89,1.86a20.39,20.39,0,0,0,5.94,1.71c-1.12,1.32-4,1-4,3.4-.52.23-.47.84-.38,1.26.4.83,1.39.58,2.07.49a11.37,11.37,0,0,1,1.9-.52,8.37,8.37,0,0,0,2.69-1.88c1-.88,2.19-1.31,2.86-2.47,4,.72,7.4-1.09,11.05-1.79,2.55-.8,5-2,7.6-2.58,1.14-1,2.64-.88,3.77-1.74l2-.81a.72.72,0,0,0,.49-.53l.14-.15Zm-49.86-7.58-.25.27-.08,0Zm.27-6.67c-.21.13-.4.26-.6.41h0A1.09,1.09,0,0,1,414.33,139.17Zm-.77.57-.27.25a.49.49,0,0,1,.22-.27Zm-.58.53,0,0a4.86,4.86,0,0,0-.48.68C412.7,140.74,412.73,140.44,413,140.27Zm-.56,1a3.35,3.35,0,0,0-.15.35A.29.29,0,0,1,412.42,141.24Zm-.25,3.27a3.18,3.18,0,0,1,0-2.65h0a4,4,0,0,0,.14,2.66Zm.52,1.08-.5-.82a1.21,1.21,0,0,1,.2-.09,5.33,5.33,0,0,0,.63,1.09l-.23-.1Zm-8.38-2.82a12.21,12.21,0,0,1,2.81.73l.08.25a12.14,12.14,0,0,0-5.42-1.13C402.59,142.27,403.53,142.81,404.31,142.77Zm-2.77.33.49,1.84-.14,0a2,2,0,0,1-.48-1.6l.15,0A.45.45,0,0,1,401.54,143.1Zm.33,1.92h.19l.24.91C402.07,145.66,401.77,145.4,401.87,145Zm1.24,2.45.34.65h0A1,1,0,0,1,403.11,147.47Zm.61,1.17.31.6h0A1,1,0,0,1,403.72,148.64Zm.46.89.43.55A1,1,0,0,1,404.18,149.53Zm1.28,2.26.2-.07v.9l-.12.06C405.55,152.35,405.2,152,405.46,151.79Zm-.09,1.54.05-.47.25-.1v1.12C405.53,153.74,405.47,153.46,405.37,153.33Zm1.43,1.8c-.44-.09-.93-.2-1.13-.63l1.14.62Zm7.42-2.25a5.83,5.83,0,0,0-1.78,2.36A2.81,2.81,0,0,1,414.22,152.88Zm-.07,5.24a7.65,7.65,0,0,0,3.71.48A5,5,0,0,1,414.15,158.12Zm12.63.17c1,.41,2,.79,2.89,1.12A15.16,15.16,0,0,1,426.78,158.29Z"/></svg>