<?xml version="1.0" encoding="UTF-8"?>
<svg width="405px" height="100px" viewBox="0 0 405 100" version="1.1" xmlns="http://www.w3.org/2000/svg" xmlns:xlink="http://www.w3.org/1999/xlink">
    <!-- Generator: Sketch 50.2 (55047) - http://www.bohemiancoding.com/sketch -->
    <title>fish-school-01</title>
    <desc>Created with Sketch.</desc>
    <defs></defs>
    <g id="Page-1" stroke="none" stroke-width="1" fill="none" fill-rule="evenodd">
        <g id="fish-school-01" fill="#15668C" fill-rule="nonzero">
            <path d="M344.026797,30.6925566 C344.047031,30.4658304 344.097061,30.2427638 344.175599,30.0291262 C344.175599,30.0291262 344.175599,30 344.175599,29.9838188 C344.142199,29.5700665 343.897546,29.202924 343.528634,29.012945 C343.33131,29.012945 343.205152,28.8932039 343.020767,28.9288026 C343.114577,28.6699029 343.41865,28.6472492 343.502756,28.3333333 C343.586861,28.0194175 343.211621,27.6634304 343.370128,27.4983819 C339.705072,24.5857605 336.415256,20.9676375 332.371725,18.7961165 C330.676677,17.8478964 328.813419,17.2265372 327.108666,16.3656958 C323.919129,15.223301 320.842812,13.6440129 317.223043,13.8349515 C316.834864,14.1585761 316.045567,13.6504854 315.929113,14.3527508 C315.605631,14.4660194 315.130112,14.1165049 314.932788,14.5080906 C314.913379,14.7216828 315.159225,14.7443366 315.230391,14.9288026 C314.8875,14.987055 314.454034,14.6601942 314.162899,14.9288026 L314.421685,15.381877 C314.069089,15.5275081 313.716494,15.1003236 313.451238,15.4466019 L313.496526,15.7216828 C313.260383,15.7508091 312.804273,15.5113269 312.632827,15.7993528 C312.600479,15.9546926 312.697524,16.0711974 312.771925,16.2038835 C312.380511,16.2038835 311.93734,15.9838188 311.607388,16.2556634 C311.650021,16.3581265 311.670949,16.468322 311.66885,16.579288 C311.416534,16.6084142 310.869848,16.3592233 310.792212,16.7993528 C310.222883,16.4239482 309.938219,17.1456311 309.378594,16.8414239 C309.123043,17.1035599 308.679872,16.7055016 308.4502,17.038835 C308.233466,17.0711974 307.968211,16.8867314 307.803235,17.1197411 C307.761182,17.5631068 307.214497,17.1197411 307.25655,17.6213592 L307.159505,17.6990291 C306.890187,17.7259814 306.631488,17.8181764 306.405791,17.9676375 C305.056869,17.8932039 303.882628,18.4045307 302.682508,18.8446602 C302.012899,19.5113269 301.340056,20.0161812 301.023043,20.9158576 C300.628395,21.8867314 300.929233,23.0097087 301.252716,23.9352751 C300.999552,23.9034253 300.750272,23.8459572 300.508706,23.763754 L299.454153,23.3171521 C298.944904,23.0499537 298.410777,22.833174 297.859385,22.6699029 C296.452236,21.9126214 294.715136,21.6407767 293.007149,21.4951456 C292.771006,21.5242718 292.360184,21.433657 292.360184,21.8187702 C292.457228,22.0970874 292.133746,22.1423948 292.14992,22.3495146 C292.240495,23.2524272 292.363419,24.2265372 293.104193,24.8511327 C293.149481,24.9546926 293.191534,25.0550162 293.227117,25.1585761 C293.450319,25.7508091 293.592652,26.3139159 294.077875,26.815534 C294.136102,27.3236246 294.495168,27.4627832 294.517812,27.9838188 C294.841294,28.4239482 295.899081,28.631068 295.459145,29.3559871 C295.300639,29.6796117 295.627356,30.1747573 295.342692,30.5404531 C295.74381,31.0064725 295.342692,31.8090615 295.957308,32.1359223 C296.295021,32.3723278 296.72511,32.4336243 297.115375,32.3009709 L297.186542,32.3398058 L297.58766,32.1197411 C297.911142,31.9676375 298.234625,31.7961165 298.535463,31.6666667 C299.473562,31.2847896 300.304912,30.4919094 301.272125,30.2135922 L301.809105,30.0970874 L302.0873,30.0776699 C302.232667,30.0874997 302.376745,30.1113428 302.517532,30.1488673 C301.870567,30.9644013 301.042452,32.0906149 301.433866,33.2459547 C301.453131,33.3065217 301.475812,33.3659482 301.501797,33.4239482 C301.501797,33.4239482 301.501797,33.4239482 301.501797,33.4401294 C301.570899,33.5810016 301.659068,33.7116799 301.763818,33.828479 C302.144524,34.3438006 302.652934,34.7509307 303.238898,35.0097087 L303.439457,35.1521036 C305.238019,35.5404531 306.836022,34.8899676 308.456669,34.5275081 C308.790363,34.3691259 309.081884,34.1340327 309.307428,33.8414239 C309.380246,33.6529657 309.380246,33.4441217 309.307428,33.2556634 L309.307428,33 C309.770008,33.2200647 310.345807,33.4789644 310.983067,33.7508091 C312.027915,34.2912621 313.169808,34.7443366 314.217891,35.2880259 C315.890296,35.8964401 317.216573,36.5566343 319.128355,36.7055016 C318.203195,37.7928803 315.841773,37.5307443 315.832069,39.5113269 C315.401837,39.7022654 315.44389,40.2071197 315.508586,40.5501618 C315.832069,41.2427184 316.656949,41.0355987 317.213339,40.9644013 C317.724549,40.7725657 318.251725,40.6263644 318.788698,40.5275081 C319.625791,40.1637191 320.380637,39.6342136 321.007788,38.9708738 C321.842372,38.2491909 322.822524,37.8964401 323.378914,36.9320388 C326.655791,37.5307443 329.489497,36.0355987 332.504353,35.4498382 C334.619928,34.802589 336.60611,33.7702265 338.789617,33.3171521 C339.73742,32.5210356 340.969888,32.5889968 341.911222,31.8834951 L343.573922,31.2071197 C343.776668,31.1436172 343.930561,30.9773385 343.978275,30.7702265 L344.091494,30.6472492 L344.026797,30.6925566 Z M302.815136,24.4304207 L302.604872,24.6504854 L302.536941,24.6213592 L302.815136,24.4304207 Z M303.031869,18.9288026 C302.862274,19.0331764 302.699156,19.1477336 302.543411,19.2718447 C302.660345,19.0997122 302.832758,18.9729154 303.031869,18.9126214 L303.031869,18.9288026 Z M302.384904,19.394822 C302.306648,19.459583 302.232127,19.5287341 302.161701,19.6019417 C302.192857,19.5087283 302.257382,19.4303421 302.342851,19.381877 L302.384904,19.394822 Z M301.90615,19.8414239 L301.941733,19.8414239 C301.79522,20.0162923 301.664251,20.2036275 301.550319,20.4012945 C301.689417,20.210356 301.715296,19.9644013 301.922324,19.8252427 L301.90615,19.8414239 Z M301.437101,20.6440129 C301.395048,20.7378641 301.34976,20.8349515 301.314177,20.9288026 C301.270562,20.8073085 301.332503,20.6732852 301.453275,20.6278317 L301.437101,20.6440129 Z M301.233307,23.3430421 C301.035982,22.6116505 300.790136,21.8187702 301.233307,21.1488673 C301.024443,21.8749802 301.066614,22.6503607 301.352995,23.3495146 L301.233307,23.3430421 Z M301.666773,24.2394822 L301.249481,23.5598706 C301.301299,23.5285481 301.356687,23.5035583 301.414457,23.4854369 C301.552504,23.8069193 301.729595,24.110172 301.941733,24.3883495 L301.744409,24.3042071 C301.722273,24.2785323 301.701747,24.251512 301.682947,24.223301 L301.666773,24.2394822 Z M294.73778,21.9029126 C295.5332,22.0136486 296.312787,22.2178642 297.060383,22.5113269 L297.12508,22.7184466 C295.724938,22.061627 294.190708,21.7413474 292.644848,21.7831715 C293.330631,21.4724919 294.110224,21.9223301 294.753954,21.8867314 L294.73778,21.9029126 Z M292.441054,22.1747573 L292.855112,23.6990291 L292.732188,23.6731392 C292.411664,23.3132965 292.268169,22.8292348 292.340775,22.3527508 L292.466933,22.3527508 C292.449589,22.2895074 292.446277,22.2232349 292.457228,22.1585761 L292.441054,22.1747573 Z M292.722484,23.7605178 L292.877756,23.7605178 L293.078315,24.5113269 C292.903634,24.2718447 292.657788,24.0582524 292.751597,23.7443366 L292.722484,23.7605178 Z M293.741454,25.7961165 L294.022883,26.3300971 C293.870217,26.185313 293.775854,25.9895953 293.757628,25.7799353 L293.741454,25.7961165 Z M294.249321,26.7669903 L294.508107,27.2653722 L294.475759,27.2653722 C294.351269,27.1189668 294.277503,26.9361741 294.265495,26.7443366 L294.249321,26.7669903 Z M294.63103,27.5016181 L294.986861,27.9579288 C294.815591,27.8486437 294.693724,27.6767936 294.647204,27.4789644 L294.63103,27.5016181 Z M295.682348,29.3656958 C295.741839,29.354469 295.800274,29.33823 295.857029,29.3171521 L295.857029,30.0550162 L295.756749,30.1067961 C295.779393,29.815534 295.485024,29.5566343 295.698522,29.3430421 L295.682348,29.3656958 Z M295.617652,30.6601942 L295.653235,30.2686084 C295.724401,30.2459547 295.789097,30.2135922 295.857029,30.184466 L295.857029,31.1165049 C295.763219,30.9644013 295.711462,30.7443366 295.633826,30.6245955 L295.617652,30.6601942 Z M296.795128,32.1456311 C296.426358,32.0744337 296.02524,31.9805825 295.863498,31.6278317 L296.801597,32.1423948 L296.795128,32.1456311 Z M302.941294,30.2847896 C302.941294,30.2847896 301.822045,31.1521036 301.475919,32.2265372 C301.548132,31.3420234 302.116303,30.575345 302.941294,30.2491909 L302.941294,30.2847896 Z M302.889537,34.6213592 C303.86295,35.0019036 304.914879,35.1374809 305.952915,35.0161812 C304.972764,35.1779935 303.75,35.1779935 302.889537,34.5857605 L302.889537,34.6213592 Z M313.32508,34.7605178 C314.162899,35.0841424 314.991014,35.407767 315.722085,35.6893204 C314.893225,35.447789 314.090307,35.1247463 313.32508,34.7249191 L313.32508,34.7605178 Z" id="Shape"></path>
            <path d="M404.708866,46.815534 C404.725101,46.6118275 404.769742,46.4113951 404.841494,46.2200647 C404.841494,46.2200647 404.841494,46.1909385 404.841494,46.1779935 C404.812089,45.8123515 404.598794,45.4867828 404.275399,45.3139159 C404.097484,45.3139159 403.997204,45.2071197 403.819289,45.2394822 C403.903395,45.0097087 404.178355,44.987055 404.252756,44.7055016 C404.327157,44.4239482 403.990735,44.1035599 404.133067,43.9546926 C400.843251,41.3656958 397.889856,38.0906149 394.250679,36.1423948 C392.730312,35.2944984 391.070847,34.7346278 389.527835,33.9644013 C386.661781,32.9352751 383.902476,31.5210356 380.651478,31.6990291 C380.302117,31.987055 379.59369,31.5339806 379.486941,32.1650485 C379.205511,32.2653722 378.76881,31.9514563 378.590895,32.3042071 C378.590895,32.4951456 378.797923,32.5145631 378.86262,32.6828479 C378.539137,32.7313916 378.163898,32.4401294 377.892173,32.6828479 L378.12508,33.0906149 C377.801597,33.2200647 377.478115,32.8381877 377.238738,33.1488673 L377.280791,33.394822 C377.067292,33.420712 376.65647,33.2071197 376.504433,33.4627832 C376.475319,33.605178 376.559425,33.7087379 376.630591,33.828479 C376.277995,33.828479 375.880112,33.6278317 375.582508,33.8737864 C375.618554,33.9611508 375.638289,34.0543848 375.640735,34.1488673 C375.414297,34.1747573 374.922604,33.9514563 374.851438,34.3462783 C374.340335,34.0226537 374.084784,34.6699029 373.583387,34.3851133 C373.353714,34.6213592 372.955831,34.2621359 372.748802,34.5631068 C372.554712,34.592233 372.315335,34.4239482 372.166534,34.6343042 C372.127716,35.0323625 371.636022,34.6343042 371.67484,35.0841424 L371.5875,35.1553398 C371.345076,35.1792055 371.112013,35.261368 370.908187,35.394822 C369.698363,35.3268608 368.64381,35.789644 367.566613,36.1812298 C366.968171,36.7799353 366.363259,37.236246 366.078594,38.0420712 C365.725998,38.9061489 365.994489,39.9223301 366.285623,40.7508091 C366.057739,40.7235443 365.833323,40.672567 365.616014,40.5987055 L364.671446,40.2006472 C364.2141,39.9580592 363.734139,39.7607883 363.238419,39.6116505 C361.976837,38.9320388 360.414417,38.6860841 358.890815,38.5566343 C358.680551,38.5825243 358.302077,38.5016181 358.318251,38.8381877 C358.405591,39.0873786 358.117692,39.1229773 358.130631,39.3171521 C358.211502,40.1262136 358.321486,41 358.987859,41.5598706 C359.026677,41.6537217 359.065495,41.7443366 359.097843,41.8349515 C359.298403,42.368932 359.421326,42.8737864 359.861262,43.3268608 C359.913019,43.7799353 360.236502,43.9061489 360.255911,44.3721683 C360.553514,44.7702265 361.498083,44.9546926 361.1002,45.605178 C360.957867,45.8964401 361.252236,46.3398058 360.996685,46.6699029 C361.358986,47.0873786 360.996685,47.8058252 361.54984,48.1003236 C361.853344,48.3104547 362.237942,48.3655929 362.588219,48.2491909 L362.652915,48.2847896 L363.011981,48.0873786 C363.309585,47.9514563 363.594249,47.7831715 363.86274,47.6796117 C364.703794,47.3365696 365.451038,46.6245955 366.317971,46.3851133 L366.812899,46.3203883 L367.061981,46.3042071 C367.191946,46.3125259 367.320831,46.3331136 367.446925,46.3656958 C366.861422,47.1003236 366.123882,48.1035599 366.476478,49.1488673 C366.495887,49.2038835 366.515296,49.2556634 366.537939,49.3074434 C366.539466,49.3127288 366.539466,49.3183392 366.537939,49.3236246 C366.599152,49.4502835 366.677525,49.5678955 366.770847,49.6731392 C367.112201,50.1364592 367.569687,50.5014913 368.097125,50.7313916 L368.27504,50.8640777 C369.892452,51.210356 371.325479,50.6245955 372.78115,50.3009709 C373.080565,50.1576935 373.342085,49.9459472 373.544569,49.6828479 C373.609327,49.5140951 373.609327,49.3273288 373.544569,49.1585761 L373.544569,48.9320388 C373.961861,49.1262136 374.479433,49.3592233 375.048762,49.605178 C375.986861,50.0906149 377.0123,50.4951456 377.940695,50.9838188 C379.441653,51.5275081 380.632069,52.1229773 382.34976,52.2556634 C381.518411,53.2265372 379.396366,52.9967638 379.386661,54.7734628 C379.001717,54.9449838 379.040535,55.3980583 379.105232,55.7087379 C379.399601,56.3300971 380.137141,56.1423948 380.638538,56.0809061 C381.097104,55.9076039 381.570174,55.7754754 382.052157,55.6860841 C382.802607,55.3585663 383.480086,54.8843437 384.044808,54.2912621 C384.795288,53.6440129 385.66222,53.3203883 386.170088,52.4595469 C389.113778,52.9967638 391.669289,51.6537217 394.367133,51.1262136 C396.26274,50.5404531 398.048363,49.6213592 400.008666,49.2168285 C400.85619,48.4983819 401.949561,48.5695793 402.810024,47.9223301 L404.301278,47.3171521 C404.482522,47.2595233 404.620128,47.1107958 404.663578,46.9255663 L404.767093,46.815534 L404.708866,46.815534 Z M367.712181,41.1941748 L367.521326,41.3915858 L367.463099,41.3656958 L367.712181,41.1941748 Z M367.90627,36.2394822 C367.753175,36.3382945 367.606256,36.4463706 367.466334,36.5631068 C367.573245,36.4109909 367.728203,36.2992816 367.90627,36.2459547 L367.90627,36.2394822 Z M367.340176,36.6569579 C367.26901,36.7184466 367.204313,36.776699 367.139617,36.8414239 C367.16743,36.7587796 367.225119,36.689522 367.301358,36.6472492 L367.340176,36.6569579 Z M366.909944,37.0582524 L366.942292,37.0582524 C366.810531,37.2161285 366.692564,37.385034 366.589696,37.5631068 C366.699681,37.4045307 366.722324,37.184466 366.909944,37.0582524 Z M366.489417,37.776699 C366.450599,37.8640777 366.408546,37.9514563 366.379433,38.0355987 C366.349841,37.9297854 366.404043,37.8185544 366.505591,37.776699 L366.489417,37.776699 Z M366.305032,40.2038835 C366.130351,39.5566343 365.907149,38.8349515 366.305032,38.2330097 C366.116374,38.8844282 366.155166,39.580711 366.415016,40.2071197 L366.305032,40.2038835 Z M366.693211,41.0064725 L366.321206,40.394822 C366.367545,40.3686353 366.41629,40.3469608 366.466773,40.3300971 C366.59263,40.6170294 366.751105,40.8885055 366.939058,41.1391586 L366.764377,41.0647249 C366.739249,41.0470932 366.715463,41.0276223 366.693211,41.0064725 Z M360.472644,38.9093851 C361.187423,39.0079016 361.887876,39.1915117 362.559105,39.4563107 L362.617332,39.6407767 C361.360817,39.0511906 359.983768,38.764133 358.596446,38.802589 C359.198123,38.5372168 359.896845,38.9417476 360.472644,38.9093851 Z M358.41853,39.1585761 L358.7873,40.5275081 L358.677316,40.5048544 C358.389795,40.1820971 358.261641,39.7476023 358.327955,39.3203883 L358.437939,39.3203883 C358.419705,39.2685236 358.413076,39.2132845 358.41853,39.1585761 Z M358.667612,40.5857605 L358.806709,40.5857605 L358.987859,41.2588997 C358.813179,41.0582524 358.589976,40.8608414 358.664377,40.579288 L358.667612,40.5857605 Z M359.583067,42.4110032 L359.835383,42.8899676 C359.694051,42.7605754 359.603446,42.5850227 359.579832,42.394822 L359.583067,42.4110032 Z M360.039177,43.2783172 L360.272085,43.7216828 L360.242971,43.7216828 C360.126747,43.5983534 360.054041,43.4403738 360.035942,43.2718447 L360.039177,43.2783172 Z M360.382069,43.9255663 L360.705551,44.3365696 C360.547368,44.2488178 360.430022,44.1023583 360.378834,43.9288026 L360.382069,43.9255663 Z M361.326637,45.6019417 C361.379336,45.5902751 361.431206,45.5751395 361.481909,45.5566343 L361.481909,46.2200647 L361.391334,46.2653722 C361.397804,46.02589 361.129313,45.7928803 361.329872,45.605178 L361.326637,45.6019417 Z M361.265176,46.7475728 L361.297524,46.3980583 C361.36222,46.3786408 361.420447,46.3495146 361.485144,46.3236246 L361.485144,47.1585761 C361.381629,47.0582524 361.329872,46.8478964 361.261941,46.7508091 L361.265176,46.7475728 Z M362.322963,48.0809061 C361.999481,48.0194175 361.633946,47.9352751 361.488379,47.618123 L362.329433,48.0809061 L362.322963,48.0809061 Z M367.822165,46.4142395 C367.822165,46.4142395 366.816134,47.1909385 366.505591,48.1650485 C366.580898,47.3801307 367.091243,46.7043777 367.825399,46.4174757 L367.822165,46.4142395 Z M367.776877,50.2977346 C368.649426,50.6394327 369.592461,50.7616702 370.523243,50.6537217 C369.646605,50.8414239 368.537061,50.8414239 367.780112,50.3074434 L367.776877,50.2977346 Z M377.157867,50.4239482 C377.908347,50.7249191 378.652356,51.012945 379.305791,51.2556634 C378.560613,51.0554615 377.837695,50.7800456 377.148163,50.433657 L377.157867,50.4239482 Z" id="Shape"></path>
            <path d="M264.90623,89.0841424 C264.925493,88.8485443 264.976639,88.6166531 265.058267,88.394822 C265.058267,88.3786408 265.058267,88.3624595 265.058267,88.3462783 C265.02443,87.9253081 264.78133,87.5495531 264.411302,87.3462783 C264.204273,87.3656958 264.087819,87.223301 263.884026,87.2621359 C263.98107,86.9935275 264.298083,86.9676375 264.382188,86.6407767 C264.466294,86.3139159 264.08135,85.9449838 264.243091,85.776699 C260.438938,82.763754 257.019728,78.9805825 252.811222,76.7346278 C251.051478,75.763754 249.129992,75.1165049 247.347604,74.2135922 C244.031909,73.02589 240.835903,71.3851133 237.077037,71.5825243 C236.672684,71.9061489 235.854273,71.3915858 235.728115,72.1229773 C235.404633,72.2394822 234.9,71.8770227 234.696206,72.2815534 C234.673562,72.5048544 234.932348,72.5275081 235.019688,72.7184466 C234.660623,72.7799353 234.210982,72.4401294 233.906909,72.7184466 L234.178634,73.1909385 C233.809864,73.3398058 233.447564,72.8964401 233.153195,73.2588997 L233.198482,73.5404531 C232.955871,73.5728155 232.480351,73.3236246 232.302436,73.6213592 C232.294072,73.7752485 232.346332,73.9262877 232.448003,74.0420712 C232.040415,74.0614887 231.58107,73.8122977 231.238179,74.0970874 C231.280173,74.1998482 231.302133,74.3096968 231.302875,74.420712 C231.040855,74.4498382 230.471526,74.1909385 230.390655,74.6472492 C229.798682,74.2588997 229.504313,75.0097087 228.922045,74.6925566 C228.656789,74.9644013 228.194209,74.5501618 227.951597,74.8964401 C227.72516,74.9320388 227.4502,74.7378641 227.278754,74.9805825 C227.233466,75.4401294 226.664137,74.9967638 226.709425,75.5016181 L226.609145,75.5825243 C226.328649,75.6110786 226.059089,75.7065204 225.823083,75.8608414 C224.422404,75.7831715 223.20611,76.3139159 221.957468,76.7702265 C221.261981,77.4627832 220.563259,77.9902913 220.233307,78.9223301 C219.825719,79.9223301 220.136262,81.1003236 220.472684,82.0582524 C220.209524,82.0257861 219.950434,81.9661366 219.699561,81.8802589 C219.346965,81.7313916 218.97496,81.5728155 218.602955,81.420712 C218.074966,81.1393738 217.520115,80.9116984 216.946725,80.7411003 C215.487819,79.9514563 213.679553,79.6699029 211.916573,79.5177994 C211.673962,79.5501618 211.23726,79.4530744 211.269609,79.8414239 C211.373123,80.1294498 211.036701,80.1650485 211.052875,80.394822 C211.14992,81.3300971 211.272843,82.3365696 212.045966,82.9838188 C212.091254,83.0916935 212.133307,83.1995686 212.172125,83.3074434 C212.405032,83.9223301 212.550599,84.5080906 213.055232,85.0291262 C213.116693,85.5533981 213.491933,85.7022654 213.514577,86.2394822 C213.857468,86.6990291 214.950839,86.9158576 214.485024,87.6699029 C214.320048,87.9935275 214.659704,88.5177994 214.365335,88.8996764 C214.779393,89.381877 214.365335,90.2135922 215.0123,90.5533981 C215.36268,90.7973227 215.807787,90.8609372 216.21242,90.7249191 L216.290056,90.7669903 L216.707348,90.5372168 C217.047005,90.381877 217.380192,90.1877023 217.677796,90.0679612 C218.648243,89.6731392 219.518411,88.8478964 220.521206,88.5598706 L221.090535,88.4854369 C221.090535,88.4854369 221.206989,88.4854369 221.381669,88.4660194 C221.532487,88.4746654 221.682047,88.4985188 221.828075,88.5372168 C221.148762,89.3851133 220.294768,90.5469256 220.699121,91.7540453 C220.721765,91.8187702 220.744409,91.8802589 220.770288,91.9385113 C220.77169,91.9449078 220.77169,91.9515324 220.770288,91.9579288 C220.839483,92.1052084 220.929947,92.2415097 221.038778,92.3624595 C221.434793,92.8975304 221.963225,93.3202392 222.572085,93.5889968 L222.779113,93.7378641 C224.648842,94.1391586 226.308307,93.4660194 227.990415,93.0906149 C228.338645,92.9292602 228.641906,92.6847667 228.873522,92.3786408 C228.949692,92.1829942 228.949692,91.9658731 228.873522,91.7702265 L228.873522,91.5080906 C229.355511,91.7346278 229.953954,92.0032362 230.617093,92.2880259 C231.700759,92.8478964 232.88147,93.3203883 233.958666,93.8834951 C235.695767,94.5145631 237.077037,95.2006472 239.059984,95.3527508 C238.089537,96.4854369 235.64401,96.2135922 235.634305,98.2653722 C235.191134,98.4627832 235.233187,98.987055 235.310823,99.3462783 C235.650479,100.064725 236.504473,99.8478964 237.086741,99.776699 C237.617662,99.5760896 238.165451,99.423378 238.723562,99.3203883 C239.591102,98.9410945 240.37333,98.3907628 241.023522,97.7022654 C241.89369,96.9514563 242.909425,96.5857605 243.488458,95.5825243 C246.891494,96.2038835 249.835184,94.6504854 252.969728,94.0420712 C255.162939,93.3624595 257.226757,92.3009709 259.494369,91.8317152 C260.464816,91.0032362 261.758746,91.0744337 262.729193,90.3365696 L264.453355,89.6375405 C264.661231,89.567589 264.81953,89.3970388 264.873882,89.184466 L264.990335,89.0582524 L264.90623,89.0841424 Z M222.0998,82.579288 L221.879832,82.8090615 L221.811901,82.776699 L222.0998,82.579288 Z M222.326238,76.8478964 C222.14971,76.9546906 221.980085,77.0725078 221.818371,77.2006472 C221.943665,77.0297576 222.122404,76.9056107 222.326238,76.8478964 Z M221.679273,77.3300971 C221.598403,77.4012945 221.520767,77.4692557 221.446366,77.5469256 C221.480905,77.4511822 221.5471,77.3701149 221.633986,77.3171521 L221.679273,77.3300971 Z M221.18111,77.7928803 L221.219928,77.7928803 C221.066945,77.9756353 220.930543,78.1716638 220.81234,78.3786408 C220.938498,78.1941748 220.954673,77.9385113 221.171406,77.7928803 L221.18111,77.7928803 Z M220.695887,78.6278317 C220.650599,78.7281553 220.602077,78.8252427 220.566494,78.9255663 C220.535661,78.8143621 220.585183,78.6965275 220.686182,78.6407767 L220.695887,78.6278317 Z M220.482388,81.433657 C220.278594,80.6731392 220.023043,79.8511327 220.482388,79.1521036 C220.265717,79.9061437 220.310176,80.7113168 220.608546,81.4368932 C220.563259,81.4368932 220.521206,81.4401294 220.472684,81.433657 L220.482388,81.433657 Z M220.932029,82.3656958 L220.501797,81.6569579 C220.554749,81.6256201 220.611209,81.6006366 220.670008,81.5825243 C220.815813,81.9142097 220.999245,82.2280278 221.216693,82.5177994 L221.012899,82.4304207 C220.986914,82.4102485 220.962074,82.3886401 220.938498,82.3656958 L220.932029,82.3656958 Z M213.72484,79.9352751 C214.551875,80.0553421 215.361864,80.2725929 216.138019,80.5825243 L216.20595,80.7961165 C214.752151,80.1144149 213.159256,79.781954 211.554273,79.8252427 C212.24976,79.5048544 213.055232,79.97411 213.72484,79.9352751 Z M211.340775,80.2200647 L211.771006,81.802589 L211.644848,81.776699 C211.312424,81.4023492 211.163132,80.8997492 211.23726,80.4045307 L211.366653,80.4045307 C211.346285,80.3452709 211.337499,80.2826447 211.340775,80.2200647 Z M211.631909,81.8673139 L211.79365,81.8673139 L212.003914,82.6472492 C211.803355,82.420712 211.557508,82.2006472 211.631909,81.8770227 L211.631909,81.8673139 Z M212.692931,83.9773463 L212.980831,84.5339806 C212.820811,84.3893152 212.718544,84.1915896 212.692931,83.9773463 Z M213.220208,84.9838188 L213.488698,85.4983819 L213.45635,85.4983819 C213.324137,85.3568874 213.241289,85.1763579 213.220208,84.9838188 Z M213.618091,85.7443366 L213.986861,86.2200647 C213.809045,86.1204932 213.676828,85.9557298 213.618091,85.7605178 L213.618091,85.7443366 Z M214.708227,87.6860841 C214.768472,87.6722395 214.827875,87.6549511 214.886142,87.6343042 L214.886142,88.4012945 L214.782628,88.4530744 C214.792332,88.171521 214.485024,87.9029126 214.708227,87.6828479 L214.708227,87.6860841 Z M214.640296,89.012945 L214.675879,88.6084142 C214.75028,88.5857605 214.818211,88.5501618 214.889377,88.5210356 L214.889377,89.4919094 C214.792332,89.3656958 214.721166,89.1197411 214.640296,88.9967638 L214.640296,89.012945 Z M215.863059,90.5566343 C215.48135,90.4854369 215.064058,90.3883495 214.892612,90.0194175 L215.863059,90.5533981 L215.863059,90.5566343 Z M222.232428,88.6148867 C222.232428,88.6148867 221.067891,89.5177994 220.708826,90.6440129 C220.794787,89.7362939 221.383931,88.9541783 222.232428,88.6213592 L222.232428,88.6148867 Z M222.177436,93.1197411 C223.187962,93.5143113 224.279939,93.6543411 225.357268,93.5275081 C224.341534,93.7411003 223.057308,93.7443366 222.177436,93.1262136 L222.177436,93.1197411 Z M233.017332,93.2653722 C233.884265,93.6148867 234.747963,93.9449838 235.504912,94.236246 C234.645734,93.998311 233.812417,93.6752453 233.017332,93.2718447 L233.017332,93.2653722 Z" id="Shape"></path>
            <path d="M307.631789,71.5210356 C307.646433,71.3417686 307.685617,71.1653631 307.748243,70.9967638 C307.748243,70.9967638 307.748243,70.97411 307.748243,70.9644013 C307.723618,70.6421757 307.535566,70.3550864 307.25008,70.2038835 C307.094808,70.2038835 307.007468,70.1100324 306.848962,70.1391586 C306.926597,69.9352751 307.172444,69.9158576 307.230671,69.6666667 C307.288898,69.4174757 307.000998,69.1391586 307.123922,69.0194175 C304.235224,66.7313916 301.640895,63.8673139 298.441653,62.1521036 C297.105671,61.407767 295.646765,60.9158576 294.291374,60.2394822 C291.774681,59.3365696 289.348562,58.0906149 286.492212,58.2394822 C286.188139,58.4951456 285.563818,58.0970874 285.470008,58.6504854 C285.220927,58.7378641 284.823043,58.4627832 284.683946,58.7702265 C284.683946,58.9385113 284.865096,58.9579288 284.920088,59.0938511 C284.648363,59.1391586 284.305471,58.8802589 284.075799,59.0938511 L284.282827,59.4498382 C284.001398,59.566343 283.726438,59.2297735 283.503235,59.5016181 L283.538818,59.7184466 C283.354433,59.7411003 282.992133,59.5533981 282.859505,59.7799353 C282.830391,59.9029126 282.908027,59.9967638 282.969489,60.1035599 C282.646006,60.1035599 282.322524,59.9288026 282.047564,60.1423948 C282.078524,60.2196262 282.094973,60.30191 282.096086,60.3851133 C281.898762,60.407767 281.449121,60.2135922 281.403834,60.5598706 C280.954193,60.2621359 280.73099,60.8317152 280.291054,60.592233 C280.08726,60.7993528 279.737899,60.4854369 279.559984,60.7475728 C279.385304,60.7734628 279.178275,60.6278317 279.045647,60.8122977 C279.013299,61.1618123 278.579832,60.8122977 278.615415,61.2071197 L278.53778,61.2686084 C278.325008,61.2905016 278.120743,61.3638029 277.942572,61.4822006 C276.878315,61.420712 275.953155,61.8252427 275.005351,62.171521 C274.478075,62.6990291 273.947564,63.0970874 273.695248,63.789644 C273.371765,64.5469256 273.624081,65.4433657 273.876398,66.171521 C273.677129,66.1461854 273.480953,66.1006437 273.290895,66.0355987 L272.459545,65.6860841 C272.058154,65.472468 271.63666,65.2990269 271.201198,65.1682848 C270.091653,64.5728155 268.720088,64.3559871 267.380871,64.2427184 C267.193251,64.2653722 266.863299,64.1941748 266.876238,64.4886731 C266.953874,64.7087379 266.701558,64.7411003 266.711262,64.9093851 C266.785663,65.6213592 266.879473,66.3883495 267.464976,66.8802589 C267.500559,66.9644013 267.532907,67.0420712 267.562021,67.1229773 C267.689484,67.5976667 267.917891,68.0392265 268.231629,68.4174757 C268.280152,68.815534 268.555112,68.9255663 268.58099,69.3365696 C268.843011,69.6828479 269.671126,69.8478964 269.321765,70.420712 C269.198842,70.6763754 269.457628,71.0679612 269.23119,71.3527508 C269.554673,71.7216828 269.23119,72.3527508 269.716414,72.6116505 C269.982901,72.7967291 270.321212,72.8447375 270.628634,72.7411003 L270.686861,72.7734628 L271.010343,72.5987055 C271.269129,72.4789644 271.521446,72.3333333 271.754353,72.2427184 C272.495128,71.9417476 273.151797,71.3171521 273.915216,71.0970874 L274.348682,71.038835 L274.565415,71.038835 C274.674828,71.0461557 274.783213,71.0645893 274.888898,71.0938511 C274.374561,71.7411003 273.727596,72.6213592 274.034904,73.5372168 C274.048763,73.5847964 274.066061,73.6313052 274.086661,73.6763754 C274.086661,73.6763754 274.086661,73.6763754 274.086661,73.6763754 C274.140102,73.786777 274.208696,73.8891686 274.290455,73.9805825 C274.591163,74.3871456 274.99251,74.7083644 275.454992,74.9126214 L275.613498,75.02589 C277.033586,75.3300971 278.291933,74.8187702 279.569688,74.5307443 C279.835112,74.4089013 280.066266,74.2232298 280.242532,73.9902913 C280.29954,73.8413016 280.29954,73.6764977 280.242532,73.5275081 L280.242532,73.3300971 C280.608067,73.5016181 281.064177,73.7055016 281.565575,73.9223301 C282.38722,74.3462783 283.289736,74.7055016 284.104912,75.1326861 C285.421486,75.6116505 286.469569,76.1359223 287.986701,76.2491909 C287.258866,77.1100324 285.398842,76.8964401 285.398842,78.4660194 C285.075359,78.6148867 285.075359,79.012945 285.14976,79.2847896 C285.408546,79.828479 286.058746,79.6666667 286.498682,79.6084142 C286.901457,79.4557547 287.317208,79.3398563 287.740855,79.2621359 C288.400744,78.9752469 288.995973,78.5580735 289.490895,78.0355987 C290.137859,77.4660194 290.920687,77.1877023 291.360623,76.4174757 C293.948482,76.8899676 296.180511,75.7087379 298.561342,75.2459547 C300.227276,74.7313916 301.796166,73.9223301 303.517093,73.566343 C304.264337,72.9385113 305.238019,72.9935275 305.978794,72.433657 L307.288898,71.8996764 C307.4505,71.8517786 307.57399,71.720821 307.61238,71.5566343 L307.69972,71.4595469 L307.631789,71.5210356 Z M275.121805,66.5825243 C275.015056,66.6893204 274.953594,66.7572816 274.953594,66.7572816 L274.901837,66.7346278 L275.121805,66.5825243 Z M275.293251,62.2297735 C275.158943,62.3103919 275.030327,62.4001388 274.908307,62.4983819 C274.997641,62.3637725 275.129902,62.2633919 275.283546,62.2135922 L275.293251,62.2297735 Z M274.795088,62.5954693 C274.733626,62.6504854 274.675399,62.7022654 274.617173,62.7605178 C274.644639,62.6875275 274.69593,62.6259508 274.76274,62.5857605 L274.795088,62.5954693 Z M274.416613,62.9482201 L274.445727,62.9482201 C274.327147,63.0878482 274.219026,63.2360392 274.122244,63.3915858 C274.219289,63.236246 274.238698,63.0420712 274.403674,62.9320388 L274.416613,62.9482201 Z M274.047843,63.579288 C274.01226,63.6569579 273.976677,63.7313916 273.950799,63.8058252 C273.912109,63.7153252 273.948526,63.6102311 274.034904,63.5631068 L274.047843,63.579288 Z M273.886102,65.7119741 C273.730831,65.1326861 273.536741,64.5113269 273.886102,63.9805825 C273.726489,64.5476608 273.762964,65.1520466 273.989617,65.6957929 L273.886102,65.7119741 Z M274.228994,66.420712 L273.905511,65.8802589 C273.946516,65.8572722 273.989904,65.8388246 274.034904,65.8252427 C274.144688,66.0775803 274.284819,66.3155828 274.452196,66.5339806 L274.296925,66.4692557 C274.266668,66.4521657 274.239362,66.4303107 274.216054,66.4045307 L274.228994,66.420712 Z M268.762141,64.5760518 C269.390176,64.6632217 270.005786,64.8239806 270.596286,65.0550162 L270.648043,65.2200647 C269.543859,64.6994524 268.332527,64.4466576 267.11238,64.4822006 C267.626717,64.2330097 268.241334,64.5889968 268.749201,64.5598706 L268.762141,64.5760518 Z M266.950639,64.789644 L267.274121,65.9902913 L267.177077,65.9708738 C266.924441,65.6867417 266.811754,65.3046262 266.869768,64.9288026 L266.966813,64.9288026 C266.946295,64.8796479 266.936374,64.8267152 266.9377,64.7734628 L266.950639,64.789644 Z M267.173842,66.0420712 L267.29353,66.0420712 L267.455272,66.6343042 C267.290296,66.4466019 267.096206,66.2718447 267.160903,66.0194175 L267.173842,66.0420712 Z M267.976078,67.6440129 L268.199281,68.0679612 C268.071365,67.9575867 267.987523,67.804766 267.963139,67.6375405 L267.976078,67.6440129 Z M268.377196,68.407767 L268.58099,68.7993528 L268.558347,68.7993528 C268.450535,68.6885191 268.382309,68.5451809 268.364257,68.3915858 L268.377196,68.407767 Z M268.68127,68.987055 L268.959465,69.3462783 C268.81456,69.2669761 268.709108,69.1310006 268.668331,68.9708738 L268.68127,68.987055 Z M269.509385,70.4563107 C269.555843,70.4478861 269.601353,70.4348773 269.645248,70.4174757 L269.645248,71 L269.567612,71.0420712 C269.561142,70.8122977 269.325,70.6084142 269.496446,70.4401294 L269.509385,70.4563107 Z M269.454393,71.4660194 L269.483506,71.1585761 C269.541733,71.1391586 269.59349,71.1132686 269.648482,71.0938511 L269.648482,71.828479 C269.544968,71.7184466 269.50615,71.5210356 269.441454,71.4498382 L269.454393,71.4660194 Z M270.386022,72.6375405 C270.094888,72.5825243 269.777875,72.5113269 269.651717,72.2297735 L270.392492,72.6343042 L270.386022,72.6375405 Z M275.222085,71.171521 C274.710957,71.5776929 274.312278,72.1080129 274.064018,72.7119741 C274.120251,72.0180052 274.563568,71.4153812 275.209145,71.1553398 L275.222085,71.171521 Z M275.180032,74.592233 C275.947026,74.89581 276.776645,75.0069188 277.596446,74.9158576 C276.810383,75.0420712 275.836701,75.0453074 275.167093,74.5760518 L275.180032,74.592233 Z M283.41266,74.7022654 C284.059625,74.9676375 284.725998,75.2200647 285.301797,75.433657 C284.644423,75.2485942 284.00722,74.9981544 283.39972,74.6860841 L283.41266,74.7022654 Z" id="Shape"></path>
            <path d="M264.967692,15.6957929 C264.986598,15.485875 265.032255,15.2792372 265.103554,15.0809061 C265.103554,15.0809061 265.103554,15.0517799 265.103554,15.038835 C265.071964,14.6602907 264.850162,14.3237847 264.514816,14.1456311 C264.330431,14.1618123 264.226917,14.0355987 264.042532,14.0679612 C264.133107,13.828479 264.414537,13.8058252 264.492173,13.5145631 C264.569808,13.223301 264.220447,12.8899676 264.366014,12.7378641 C260.962979,10.0453074 257.896366,6.66990291 254.140735,4.64724919 C252.56861,3.76699029 250.847684,3.18770227 249.252915,2.38187702 C246.286581,1.3171521 243.430232,-0.148867314 240.066014,0.0291262136 C239.703714,0.326860841 238.972644,-0.142394822 238.859425,0.511326861 C238.568291,0.614886731 238.11865,0.291262136 237.934265,0.653721683 C237.934265,0.851132686 238.147764,0.873786408 238.21246,1.04530744 C237.888978,1.09708738 237.491094,0.792880259 237.219369,1.04530744 L237.461981,1.46601942 C237.138498,1.60194175 236.815016,1.2038835 236.543291,1.52750809 L236.585343,1.77993528 C236.36861,1.80906149 235.938379,1.58576052 235.783107,1.85113269 C235.753994,2 235.841334,2.10679612 235.9125,2.22977346 C235.546965,2.24595469 235.139377,2.02265372 234.832069,2.27508091 C234.86815,2.36694844 234.887857,2.46443202 234.890296,2.5631068 C234.654153,2.59223301 234.146286,2.3592233 234.071885,2.76699029 C233.544609,2.41747573 233.282588,3.09061489 232.761781,2.80582524 C232.522404,3.05177994 232.114816,2.67961165 231.898083,2.99029126 C231.694289,3.01941748 231.448442,2.84789644 231.293171,3.06472492 C231.254353,3.47572816 230.746486,3.06472492 230.785304,3.53074434 L230.694728,3.60517799 C230.443971,3.62990573 230.203024,3.71544052 229.992772,3.85436893 C228.740895,3.78317152 227.650759,4.25889968 226.534744,4.66666667 C225.913658,5.28802589 225.289337,5.75728155 224.991733,6.60841424 C224.626198,7.50161812 224.907628,8.55016181 225.208466,9.41423948 C224.9728,9.38407997 224.74084,9.32985981 224.516214,9.25242718 L223.545767,8.84142395 C223.073728,8.58907197 222.577342,8.38522589 222.064217,8.23300971 C220.770288,7.52750809 219.152875,7.26213592 217.564577,7.13915858 C217.344609,7.16828479 216.95643,7.08414239 216.972604,7.43042071 C217.063179,7.68932039 216.76234,7.72815534 216.778514,7.92556634 C216.86262,8.76375405 216.975839,9.66990291 217.664856,10.2491909 C217.706909,10.3462783 217.745727,10.4401294 217.778075,10.5339806 C217.985104,11.0873786 218.101558,11.6084142 218.567372,12.0776699 C218.622364,12.5469256 218.958786,12.6763754 218.978195,13.1585761 C219.301677,13.5695793 220.272125,13.763754 219.851597,14.4368932 C219.70603,14.7378641 220.010104,15.197411 219.744848,15.5372168 C220.116853,15.9708738 219.744848,16.7152104 220.317412,17.0161812 C220.629027,17.2361016 221.026918,17.2938272 221.388139,17.171521 L221.459305,17.210356 L221.83131,17.0032362 C222.135383,16.8640777 222.432987,16.6796117 222.707947,16.5825243 C223.58135,16.2297735 224.354473,15.4919094 225.250519,15.2330097 L225.761621,15.1650485 L226.020407,15.1650485 C226.154906,15.1728874 226.288239,15.1945771 226.418291,15.2297735 C225.813379,15.987055 225.04996,17.0291262 225.41226,18.1067961 C225.429891,18.1632758 225.451511,18.2184308 225.476957,18.2718447 C225.540352,18.4017454 225.620861,18.5225616 225.716334,18.631068 C226.071043,19.1063426 226.54235,19.4819934 227.084665,19.7216828 L227.272284,19.8576052 C228.944688,20.2168285 230.426238,19.6116505 231.933666,19.2750809 C232.245832,19.1273402 232.516891,18.9050634 232.722963,18.6278317 C232.792463,18.453271 232.792463,18.2587031 232.722963,18.0841424 L232.722963,17.8478964 C233.153195,18.0517799 233.693411,18.2912621 234.278914,18.5436893 C235.249361,19.0453074 236.310383,19.4692557 237.271126,19.97411 C238.823842,20.5372168 240.05631,21.1521036 241.832228,21.2880259 C240.971765,22.2977346 238.778554,22.0582524 238.76885,23.8964401 C238.370966,24.0744337 238.409784,24.5436893 238.477716,24.8673139 C238.778554,25.5145631 239.545208,25.3139159 240.06278,25.2491909 C240.538667,25.0715433 241.028927,24.9351195 241.528155,24.8414239 C242.30463,24.5047706 243.004588,24.013704 243.585503,23.3980583 C244.365096,22.7249191 245.274081,22.3980583 245.788419,21.5016181 C248.835623,22.0582524 251.46877,20.6699029 254.270128,20.1229773 C256.233666,19.5177994 258.080751,18.566343 260.092812,18.1456311 C260.972684,17.4045307 262.117812,17.4692557 263.004153,16.8122977 L264.566573,16.1812298 C264.747463,16.1201578 264.885078,15.9715172 264.932109,15.7864078 L265.035623,15.6731392 L264.967692,15.6957929 Z M226.677077,9.87055016 L226.479752,10.0744337 L226.418291,10.0485437 L226.677077,9.87055016 Z M226.877636,4.74433657 C226.719737,4.84214353 226.56845,4.95025256 226.42476,5.06796117 C226.535665,4.91486563 226.6954,4.80414346 226.877636,4.75404531 L226.877636,4.74433657 Z M226.292133,5.17799353 C226.220966,5.2394822 226.1498,5.30420712 226.085104,5.37216828 C226.112937,5.2851257 226.173164,5.21212576 226.253315,5.16828479 L226.292133,5.17799353 Z M225.848962,5.59223301 L225.88131,5.59223301 C225.741723,5.76548935 225.619303,5.95191084 225.515775,6.14886731 C225.632228,5.9579288 225.654872,5.72815534 225.848962,5.5987055 L225.848962,5.59223301 Z M225.41226,6.33980583 C225.369085,6.42584184 225.331273,6.51446864 225.299042,6.60517799 C225.269095,6.50283314 225.316804,6.39373495 225.41226,6.34627832 L225.41226,6.33980583 Z M225.221406,8.84789644 C225.040256,8.16828479 224.810583,7.43365696 225.221406,6.80906149 C225.02718,7.48296896 225.067092,8.20284909 225.334625,8.85113269 C225.297017,8.85501466 225.259173,8.85609641 225.221406,8.85436893 L225.221406,8.84789644 Z M225.622524,9.6828479 L225.23758,9.03559871 C225.285398,9.00701725 225.336433,8.9842045 225.389617,8.96763754 C225.520165,9.2646468 225.684036,9.54584773 225.878075,9.80582524 L225.696925,9.72491909 C225.671073,9.7153923 225.646164,9.70347447 225.622524,9.68932039 L225.622524,9.6828479 Z M219.185224,7.50809061 C219.925917,7.61650867 220.651225,7.81203683 221.346086,8.09061489 L221.407548,8.28478964 C220.107019,7.67268528 218.681041,7.37450605 217.244329,7.41423948 C217.865415,7.1197411 218.586781,7.55016181 219.185224,7.51456311 L219.185224,7.50809061 Z M217.056709,7.76699029 L217.441653,9.18122977 L217.328435,9.15857605 C217.028791,8.82411019 216.895711,8.37238854 216.966134,7.92880259 L217.079353,7.92880259 C217.061995,7.87670026 217.054321,7.82185838 217.056709,7.76699029 Z M217.31873,9.2394822 L217.461062,9.2394822 L217.648682,9.93851133 C217.467532,9.73786408 217.237859,9.53398058 217.315495,9.24271845 L217.31873,9.2394822 Z M218.266534,11.1294498 L218.525319,11.6245955 C218.382496,11.4968513 218.289642,11.3225293 218.263299,11.1326861 L218.266534,11.1294498 Z M218.735583,12.02589 L218.978195,12.4886731 L218.949081,12.4886731 C218.830138,12.3622349 218.754267,12.2013639 218.732348,12.0291262 L218.735583,12.02589 Z M219.091414,12.7087379 L219.414896,13.1326861 C219.255444,13.0402946 219.13825,12.8893836 219.088179,12.7119741 L219.091414,12.7087379 Z M220.061861,14.4401294 C220.116677,14.4284609 220.1707,14.4133281 220.223602,14.394822 L220.223602,15.0809061 L220.133027,15.1294498 C220.142732,14.8867314 219.867772,14.6407767 220.065096,14.4433657 L220.061861,14.4401294 Z M220.000399,15.631068 L220.032748,15.2686084 C220.100679,15.2459547 220.162141,15.2135922 220.226837,15.1909385 L220.226837,16.0550162 C220.126558,15.9514563 220.078035,15.7313916 220.003634,15.6343042 L220.000399,15.631068 Z M221.09377,17.0097087 C220.770288,16.9449838 220.382109,16.8576052 220.230072,16.5275081 L221.10024,17.0064725 L221.09377,17.0097087 Z M226.79353,15.2815534 C226.79353,15.2815534 225.751917,16.0873786 225.428435,17.0970874 C225.505062,16.2826379 226.034649,15.5812228 226.796765,15.2847896 L226.79353,15.2815534 Z M226.761182,19.3139159 C227.664288,19.6687355 228.641147,19.794371 229.604593,19.6796117 C228.682668,19.8640777 227.534305,19.8673139 226.761182,19.3139159 Z M236.465655,19.4433657 C237.242013,19.7669903 238.011901,20.0550162 238.691214,20.3042071 C237.914855,20.0934086 237.161662,19.8050095 236.443011,19.4433657 L236.465655,19.4433657 Z" id="Shape"></path>
            <path d="M233.554313,39.2006472 C233.577905,38.949757 233.633343,38.7028945 233.719289,38.4660194 C233.719289,38.4498382 233.719289,38.433657 233.719289,38.4174757 C233.681253,37.967223 233.418399,37.5666809 233.020567,37.3527508 C232.800599,37.3721683 232.677676,37.2200647 232.457708,37.2588997 C232.561222,36.97411 232.900879,36.9352751 232.991454,36.6116505 C233.082029,36.2880259 232.667971,35.8705502 232.842652,35.6893204 C228.789417,32.4789644 225.14377,28.4563107 220.657069,26.0517799 C218.780871,25.0064725 216.733227,24.3171521 214.834385,23.3656958 C211.301957,22.1003236 207.895687,20.3527508 203.890974,20.5598706 C203.457508,20.9158576 202.597045,20.3559871 202.451478,21.1359223 C202.105351,21.2588997 201.568371,20.8737864 201.348403,21.3074434 C201.328994,21.5436893 201.600719,21.5695793 201.671885,21.7734628 C201.290176,21.8349515 200.811422,21.4724919 200.487939,21.7734628 L200.775839,22.2718447 C200.384425,22.433657 199.996246,21.9482201 199.682468,22.3462783 L199.73099,22.6472492 C199.472204,22.6828479 198.964337,22.4174757 198.760543,22.7346278 C198.72496,22.9093851 198.831709,23.0355987 198.915815,23.184466 C198.479113,23.184466 197.990655,22.9385113 197.621885,23.2394822 C197.664108,23.3422971 197.687132,23.451985 197.689816,23.5631068 C197.411621,23.5954693 196.803474,23.3203883 196.719369,23.8058252 C196.072404,23.3915858 195.778035,24.1909385 195.156949,23.8543689 C194.872284,24.1456311 194.380591,23.7022654 194.13151,24.0744337 C193.888898,24.1100324 193.594529,23.9029126 193.410144,24.1618123 C193.364856,24.6504854 192.763179,24.1779935 192.805232,24.7152104 L192.698482,24.8058252 C192.399398,24.8342398 192.111784,24.9353379 191.860663,25.1003236 C190.369409,25.0161812 189.06901,25.5857605 187.739497,26.0711974 C186.998722,26.8090615 186.251478,27.3656958 185.902117,28.3624595 C185.465415,29.4271845 185.798602,30.6828479 186.157668,31.7055016 C185.876741,31.6729063 185.600169,31.609972 185.332788,31.5177994 C184.957548,31.3559871 184.559665,31.1941748 184.165016,31.02589 C183.601813,30.7261463 183.010151,30.4833064 182.398802,30.3009709 C180.842851,29.4627832 178.918131,29.1585761 177.038698,29.0064725 C176.776677,29.038835 176.314097,28.9352751 176.330272,29.3527508 C176.440256,29.6601942 176.084425,29.7055016 176.100599,29.9417476 C176.200879,30.9385113 176.333506,32.0194175 177.158387,32.7119741 C177.206909,32.8252427 177.252196,32.9385113 177.294249,33.0355987 C177.540096,33.6828479 177.695367,34.3300971 178.232348,34.8737864 C178.297045,35.433657 178.698163,35.5889968 178.724042,36.1682848 C179.089577,36.6569579 180.254113,36.8867314 179.76242,37.6893204 C179.58774,38.0485437 179.95004,38.5954693 179.636262,39 C180.079433,39.5177994 179.636262,40.4045307 180.315575,40.763754 C180.691911,41.0304065 181.173698,41.0990913 181.609505,40.9482201 L181.690375,40.9935275 L182.133546,40.7475728 C182.499081,40.5825243 182.851677,40.3754045 183.181629,40.2459547 C184.223243,39.8252427 185.141933,38.9514563 186.21266,38.6278317 L186.820807,38.5469256 C186.820807,38.5469256 186.94373,38.5469256 187.144289,38.5275081 C187.304989,38.5353479 187.464395,38.5603 187.619808,38.6019417 C186.898442,39.5048544 185.986222,40.7475728 186.419688,42.0323625 C186.439675,42.0998828 186.464541,42.1658602 186.494089,42.2297735 C186.494089,42.2297735 186.494089,42.2297735 186.494089,42.2491909 C186.570414,42.4048819 186.667242,42.5496427 186.781989,42.6796117 C187.204978,43.2456495 187.767967,43.6917777 188.415575,43.97411 L188.635543,44.1359223 C190.628195,44.5631068 192.397644,43.8414239 194.189736,43.4401294 C194.561439,43.2682239 194.884833,43.0069492 195.13107,42.6796117 C195.211954,42.4714492 195.211954,42.2405249 195.13107,42.0323625 L195.13107,41.7540453 C195.642173,41.9935275 196.282668,42.2815534 196.984625,42.5825243 C198.142692,43.1812298 199.407508,43.6828479 200.542931,44.2847896 C202.393251,44.9579288 203.865096,45.6893204 205.980671,45.8511327 C204.955232,47.0582524 202.341494,46.7669903 202.328554,48.961165 C201.85627,49.171521 201.901558,49.7281553 201.982428,50.1132686 C202.341494,50.8770227 203.253714,50.6472492 203.871565,50.5695793 C204.43864,50.3573304 205.023118,50.1949042 205.618371,50.0841424 C206.543049,49.6809346 207.376993,49.095377 208.070367,48.3624595 C208.995527,47.5631068 210.082428,47.171521 210.697045,46.0970874 C214.323283,46.7605178 217.461062,45.1035599 220.802636,44.4563107 C223.141414,43.7313916 225.33139,42.5987055 227.760743,42.0970874 C228.808826,41.2135922 230.173922,41.2912621 231.215535,40.5080906 L233.05615,39.7605178 C233.278957,39.6888735 233.448207,39.5060515 233.502556,39.2783172 L233.628714,39.1423948 L233.554313,39.2006472 Z M187.943291,32.2686084 L187.707149,32.5113269 L187.635982,32.4822006 L187.943291,32.2686084 Z M188.182668,26.1585761 C187.987614,26.2733617 187.799654,26.3998046 187.619808,26.5372168 C187.757241,26.3517984 187.953335,26.2183505 188.176198,26.1585761 L188.182668,26.1585761 Z M187.480711,26.6763754 C187.396605,26.7475728 187.315735,26.8220065 187.234864,26.9029126 C187.270558,26.8006176 187.341712,26.7145062 187.435423,26.6601942 L187.480711,26.6763754 Z M186.946965,27.184466 L186.985783,27.184466 C186.823411,27.3796559 186.678373,27.5886468 186.552316,27.8090615 C186.688179,27.5954693 186.714058,27.3236246 186.946965,27.184466 Z M186.429393,28.0744337 C186.377636,28.1812298 186.329113,28.2847896 186.290296,28.3980583 C186.236375,28.2657935 186.298229,28.1146872 186.429393,28.0582524 L186.429393,28.0744337 Z M186.19972,31.0614887 C185.982987,30.2524272 185.711262,29.3754045 186.19972,28.6343042 C185.966821,29.4371009 186.013588,30.2952548 186.332348,31.0679612 C186.287728,31.0630545 186.24344,31.0554899 186.19972,31.0453074 L186.19972,31.0614887 Z M186.678474,32.0582524 L186.219129,31.3009709 C186.277354,31.2694041 186.337916,31.2423559 186.40028,31.2200647 C186.556408,31.5741183 186.751717,31.9095461 186.982548,32.2200647 L186.765815,32.1262136 C186.734973,32.0988696 186.705806,32.0696905 186.678474,32.038835 L186.678474,32.0582524 Z M179.008706,29.4692557 C179.895388,29.5879783 180.764371,29.8140134 181.596565,30.1423948 L181.670966,30.3721683 C180.120055,29.6451364 178.420856,29.2905192 176.708746,29.3365696 C177.436581,28.9935275 178.297045,29.4919094 179.008706,29.4498382 L179.008706,29.4692557 Z M176.469369,29.7702265 L176.925479,31.4563107 L176.789617,31.4271845 C176.435422,31.0280408 176.27663,30.4921805 176.35615,29.9644013 L176.495248,29.9644013 C176.46975,29.8974068 176.46087,29.8252259 176.469369,29.7540453 L176.469369,29.7702265 Z M176.792851,31.5275081 L176.961062,31.5275081 L177.184265,32.3559871 C176.961062,32.1003236 176.686102,31.8576052 176.779912,31.5113269 L176.792851,31.5275081 Z M177.921805,33.776699 L178.229113,34.368932 C178.052435,34.2122974 177.940543,33.9953388 177.915335,33.7605178 L177.921805,33.776699 Z M178.48143,34.8478964 L178.769329,35.3980583 L178.733746,35.3980583 C178.585305,35.2437175 178.492045,35.0446 178.46849,34.8317152 L178.48143,34.8478964 Z M178.905192,35.6601942 L179.29984,36.1650485 C179.096102,36.0556909 178.946349,35.8672466 178.885783,35.6440129 L178.905192,35.6601942 Z M180.069728,37.7249191 C180.134285,37.710012 180.197995,37.6916469 180.260583,37.6699029 L180.260583,38.4886731 L180.147364,38.5436893 C180.147364,38.2297735 179.817412,37.9417476 180.056789,37.7087379 L180.069728,37.7249191 Z M179.995327,39.1391586 L180.034145,38.7087379 C180.115016,38.6828479 180.186182,38.6472492 180.263818,38.618123 L180.263818,39.6472492 C180.127955,39.5016181 180.069728,39.2427184 179.982388,39.1229773 L179.995327,39.1391586 Z M181.289257,40.7864078 C180.881669,40.7087379 180.438498,40.605178 180.257348,40.2135922 L181.298962,40.7831715 L181.289257,40.7864078 Z M188.082388,38.7281553 C188.082388,38.7281553 186.84345,39.6990291 186.464976,40.8899676 C186.544664,39.9167107 187.168891,39.072756 188.075919,38.7119741 L188.082388,38.7281553 Z M188.024161,43.5275081 C189.101578,43.9479087 190.265519,44.0979097 191.414257,43.9644013 C190.324121,44.1650485 188.955791,44.1682848 188.017692,43.5113269 L188.024161,43.5275081 Z M199.578954,43.6828479 C200.504113,44.0550162 201.422804,44.407767 202.228275,44.7087379 C201.316419,44.4486861 200.432302,44.0996531 199.588658,43.6666667 L199.578954,43.6828479 Z" id="Shape"></path>
            <path d="M121.677915,31.3915858 C121.692712,31.2168577 121.730789,31.0448926 121.791134,30.8802589 C121.791134,30.8802589 121.791134,30.8576052 121.791134,30.8446602 C121.763911,30.5309361 121.580182,30.252178 121.302676,30.1035599 C121.150639,30.1035599 121.063299,30.012945 120.911262,30.038835 C120.985663,29.8414239 121.234744,29.8220065 121.283267,29.579288 C121.331789,29.3365696 121.060064,29.0647249 121.179752,28.9320388 C118.358986,26.6990291 115.826118,23.9029126 112.704513,22.2297735 C111.410583,21.5016181 109.974321,21.0226537 108.651278,20.3592233 C106.196046,19.4789644 103.828155,18.2653722 101.039736,18.4174757 C100.738898,18.6634304 100.130751,18.2750809 100.040176,18.815534 C99.7975639,18.9029126 99.4255591,18.6343042 99.2735224,18.9352751 C99.2573482,19.1003236 99.4482029,19.1165049 99.5031949,19.2588997 C99.2379393,19.3042071 98.9047524,19.0517799 98.6783147,19.2588997 L98.8821086,19.6084142 C98.6071486,19.7184466 98.3386581,19.3915858 98.1186901,19.6569579 L98.1542732,19.8673139 C97.973123,19.8899676 97.6205272,19.7055016 97.4911342,19.9288026 C97.4652556,20.0485437 97.5396565,20.1391586 97.5978834,20.2524272 C97.2938099,20.2524272 96.9509185,20.0841424 96.7018371,20.2912621 C96.7305177,20.3679093 96.7458358,20.4489126 96.7471246,20.5307443 C96.5530351,20.5533981 96.132508,20.3624595 96.0710463,20.6990291 C95.6311102,20.4110032 95.4240815,20.9676375 94.9841454,20.7313916 C94.7868211,20.9320388 94.4439297,20.6245955 94.2692492,20.8834951 C94.1010383,20.9093851 93.8972444,20.7669903 93.7678514,20.9449838 C93.7355032,21.2686084 93.314976,20.9449838 93.3473243,21.3300971 L93.2729233,21.3915858 C93.0649613,21.412563 92.8651744,21.4836296 92.690655,21.5987055 C91.6522764,21.5404531 90.7497604,21.9223301 89.8246006,22.2750809 C89.3070288,22.7864078 88.7894569,23.1779935 88.546845,23.8673139 C88.2427716,24.6084142 88.4756789,25.4854369 88.7247604,26.1941748 C88.5287708,26.1699105 88.3358126,26.1254456 88.1489617,26.0614887 L87.3402556,25.7055016 C86.9498197,25.4967731 86.5390009,25.3286864 86.1142572,25.2038835 C85.0305911,24.618123 83.6913738,24.407767 82.3845048,24.2977346 C82.2033546,24.3203883 81.8798722,24.2491909 81.8928115,24.5372168 C81.9672125,24.7540453 81.7213658,24.7831715 81.7310703,24.9482201 C81.8022364,25.6440129 81.8960463,26.394822 82.4686102,26.8899676 C82.5009585,26.9708738 82.5333067,27.0485437 82.5624201,27.1262136 C82.6802078,27.6000935 82.9011201,28.0421124 83.209385,28.420712 C83.2546725,28.8090615 83.5328674,28.9190939 83.5328674,29.3171521 C83.7884185,29.6407767 84.5971246,29.8187702 84.2574681,30.3754045 C84.1345447,30.6245955 84.386861,31.0226537 84.1701278,31.2880259 C84.4774361,31.6472492 84.1701278,32.2588997 84.6424121,32.5145631 C84.9017208,32.6962003 85.231703,32.7442188 85.5319888,32.6440129 L85.5902157,32.6731392 L85.897524,32.5048544 C86.1498403,32.3883495 86.3956869,32.2427184 86.6253594,32.1553398 C87.3499601,31.8608414 87.9904553,31.2524272 88.7344649,31.0355987 L89.154992,30.9805825 L89.3717252,30.9805825 C89.4809381,30.9876476 89.5892436,31.004984 89.6952077,31.0323625 C89.1938099,31.6634304 88.5597843,32.5242718 88.860623,33.420712 C88.8750367,33.4670508 88.8923227,33.5124463 88.9123802,33.5566343 C88.9658919,33.6652417 89.0333118,33.7664159 89.1129393,33.8576052 C89.4077479,34.2539036 89.800004,34.5671773 90.2515974,34.7669903 L90.4036342,34.8770227 C91.7913738,35.1747573 93.020607,34.6731392 94.2692492,34.394822 C94.5249055,34.2732828 94.7470023,34.0910835 94.9162141,33.8640777 C94.9730066,33.7195139 94.9730066,33.5588032 94.9162141,33.4142395 L94.9162141,33.2200647 C95.2720447,33.3883495 95.7184505,33.5857605 96.2101438,33.7961165 C97.015615,34.2135922 97.8954872,34.5631068 98.6880192,34.9805825 C99.9819489,35.4498382 101.000919,35.9514563 102.472764,36.0711974 C101.757867,36.9093851 99.9398962,36.7184466 99.9334265,38.2330097 C99.6099441,38.3786408 99.6325879,38.7669903 99.6908147,39.0323625 C99.9398962,39.566343 100.573922,39.407767 101.004153,39.3559871 C101.397809,39.2113712 101.80385,39.103046 102.217212,39.0323625 C102.8612,38.7521311 103.442103,38.3448799 103.9252,37.8349515 C104.572165,37.2750809 105.322644,37.0064725 105.749641,36.2621359 C108.276038,36.7249191 110.45631,35.5728155 112.778914,35.1197411 C114.396326,34.6148867 115.939337,33.8252427 117.63115,33.4789644 C118.36222,32.8673139 119.313259,32.9190939 120.037859,32.3754045 L121.331789,31.8543689 C121.489805,31.8123023 121.613223,31.6888302 121.655272,31.5307443 L121.742612,31.4368932 L121.677915,31.3915858 Z M89.928115,26.579288 C89.8246006,26.6828479 89.7663738,26.7475728 89.7663738,26.7475728 L89.7146166,26.7249191 L89.928115,26.579288 Z M90.0963259,22.3300971 C89.9647077,22.4093095 89.8382914,22.4968671 89.7178514,22.592233 C89.8132959,22.4613631 89.9519508,22.3685037 90.1092652,22.3300971 L90.0963259,22.3300971 Z M89.6078674,22.6893204 C89.5475897,22.7386891 89.4903375,22.7916435 89.4364217,22.8478964 C89.4612477,22.7761728 89.5104827,22.715461 89.5755192,22.6763754 L89.6078674,22.6893204 Z M89.2423323,23.012945 L89.2682109,23.012945 C89.1544557,23.1476593 89.0537252,23.2928615 88.9673722,23.4466019 C89.0741214,23.3300971 89.0935304,23.1391586 89.2552716,23.0291262 L89.2423323,23.012945 Z M88.8800319,23.631068 C88.8444489,23.7055016 88.8121006,23.7799353 88.786222,23.8511327 C88.7685661,23.7663875 88.8132826,23.680982 88.8929712,23.6472492 L88.8800319,23.631068 Z M88.7215256,25.7119741 C88.5694888,25.1488673 88.381869,24.5404531 88.7215256,24.0226537 C88.559227,24.5810653 88.5923218,25.1781735 88.8153355,25.7152104 C88.8023962,25.7313916 88.7700479,25.7346278 88.7344649,25.7281553 L88.7215256,25.7119741 Z M89.045008,26.4045307 L88.7215256,25.8770227 C88.761703,25.8546495 88.8039531,25.8362247 88.8476837,25.8220065 C88.9625002,26.0771908 89.1080689,26.3173758 89.2811502,26.5372168 L89.1291134,26.4692557 C89.1071939,26.4549772 89.0866214,26.4387287 89.0676518,26.420712 L89.045008,26.4045307 Z M83.7107827,24.6019417 C84.3234475,24.6873975 84.9238878,24.8449059 85.4996406,25.0711974 L85.5513978,25.2330097 C84.4730885,24.725822 83.290931,24.4786459 82.0998403,24.5113269 C82.6368211,24.3009709 83.2352636,24.6472492 83.7334265,24.618123 L83.7107827,24.6019417 Z M81.9445687,24.8122977 L82.2680511,25.987055 L82.1742412,25.9676375 C81.9272514,25.6895909 81.8169688,25.3158883 81.8734026,24.9482201 L81.9672125,24.9482201 C81.9597675,24.9086539 81.9597675,24.8680452 81.9672125,24.828479 L81.9445687,24.8122977 Z M82.1580671,26.0355987 L82.2777556,26.0355987 L82.4330272,26.6148867 C82.306869,26.4627832 82.1192492,26.2912621 82.1807109,26.0517799 L82.1580671,26.0355987 Z M82.9441294,27.5987055 L83.1576278,28.012945 C83.0519099,27.9049198 82.9848164,27.7649858 82.9667732,27.6148867 L82.9441294,27.5987055 Z M83.3355431,28.3430421 L83.5328674,28.7249191 L83.5102236,28.7249191 C83.4225939,28.6219089 83.369425,28.4940209 83.3581869,28.3592233 L83.3355431,28.3430421 Z M83.6299121,28.9093851 L83.9016374,29.2621359 C83.7804094,29.1840379 83.6918409,29.0643602 83.6525559,28.9255663 L83.6299121,28.9093851 Z M84.4386182,30.3462783 C84.4839058,30.3462783 84.5291933,30.3203883 84.571246,30.3074434 L84.571246,30.8770227 L84.4936102,30.9158576 C84.5227236,30.7249191 84.2962859,30.5242718 84.461262,30.3624595 L84.4386182,30.3462783 Z M84.386861,31.3171521 L84.4159744,31.0161812 C84.4709665,31 84.5194888,30.97411 84.5744808,30.9546926 L84.5744808,31.7152104 C84.5097843,31.6084142 84.4709665,31.4271845 84.4095048,31.3462783 L84.386861,31.3171521 Z M85.2926118,32.4627832 C85.0030853,32.453922 84.7361544,32.304085 84.5777157,32.0614887 L85.2990815,32.4595469 L85.2926118,32.4627832 Z M90.0154553,31.0291262 C89.5170332,31.4262317 89.1284027,31.9442619 88.8865016,32.5339806 C88.9669135,31.8686339 89.4109054,31.3034186 90.038099,31.0679612 L90.0154553,31.0291262 Z M89.9766374,34.368932 C90.7261504,34.6611728 91.5357273,34.7656087 92.3348243,34.6731392 C91.603754,34.8543689 90.6494808,34.8543689 89.9992812,34.3980583 L89.9766374,34.368932 Z M98.0119409,34.4757282 C98.6589058,34.7346278 99.3058706,34.9805825 99.8557907,35.1909385 C99.2278237,35.022168 98.6178536,34.7923803 98.0345847,34.5048544 L98.0119409,34.4757282 Z" id="Shape"></path>
            <path d="M47.7039537,64.3430421 C47.7228276,64.136277 47.7684981,63.932845 47.8398163,63.7378641 C47.8398163,63.7378641 47.8398163,63.7087379 47.8398163,63.6957929 C47.8082412,63.3223932 47.5904838,62.9901369 47.2607827,62.8122977 C47.0763978,62.8122977 46.9761182,62.7055016 46.7949681,62.7378641 C46.8790735,62.4983819 47.1605032,62.4757282 47.2349042,62.1909385 C47.3093051,61.9061489 46.9664137,61.5760518 47.1119808,61.4239482 C43.7542332,58.7669903 40.7361422,55.433657 37.0193291,53.4433657 C35.4666134,52.5760518 33.7845048,52.0064725 32.1962061,51.2168285 C29.2848642,50.1682848 26.4511581,48.7216828 23.1386981,48.8964401 C22.7796326,49.1909385 22.0582668,48.7281553 21.9482827,49.3721683 C21.6571486,49.4757282 21.2139776,49.1553398 21.0328275,49.5145631 C21.0166534,49.7087379 21.2430911,49.7313916 21.3077875,49.8996764 C20.9843051,49.9514563 20.5961262,49.6504854 20.3373403,49.8996764 L20.5767173,50.3139159 C20.2532348,50.4466019 19.9297524,50.0550162 19.6709665,50.3721683 L19.7130192,50.6245955 C19.4962859,50.6504854 19.0660543,50.4304207 18.9204872,50.6957929 C18.8913738,50.8381877 18.9787141,50.9449838 19.0498802,51.0679612 C18.6875799,51.0679612 18.2832268,50.8640777 17.9791534,51.1132686 C18.0167479,51.2024172 18.036529,51.298068 18.0373802,51.394822 C17.8044728,51.4239482 17.3030751,51.1941748 17.2319089,51.5954693 C16.7078674,51.2524272 16.4490815,51.9190939 15.9379792,51.6375405 C15.7018371,51.8770227 15.2910144,51.5113269 15.0872204,51.8187702 C14.8866613,51.8478964 14.6408147,51.6763754 14.488778,51.8932039 C14.4499601,52.2977346 13.9485623,51.8932039 13.9873802,52.3495146 L13.9000399,52.4239482 C13.6526624,52.4480906 13.4149737,52.5325405 13.2077875,52.6699029 C11.9688498,52.5987055 10.8948882,53.0679612 9.7918131,53.4724919 C9.18043131,54.0841424 8.56257987,54.5469256 8.27144569,55.3721683 C7.90914537,56.2524272 8.18734026,57.2912621 8.48170927,58.1391586 C8.24917331,58.1109071 8.02034423,58.0577434 7.79916134,57.9805825 L6.82871406,57.5760518 C6.36283182,57.3266722 5.87296604,57.1250019 5.36657348,56.97411 C4.07264377,56.2783172 2.48434505,56.0291262 0.925159744,55.8964401 C0.711661342,55.9255663 0.326717252,55.8414239 0.342891374,56.184466 C0.433466454,56.4401294 0.13586262,56.4757282 0.148801917,56.6731392 C0.232907348,57.4983819 0.346126198,58.3915858 1.0254393,58.9644013 C1.06749201,59.0582524 1.10307508,59.1521036 1.13865815,59.2459547 C1.34245208,59.789644 1.46214058,60.3074434 1.9182508,60.7669903 C1.97000799,61.2297735 2.30319489,61.3592233 2.32260383,61.8381877 C2.62667732,62.2427184 3.59065495,62.433657 3.18306709,63.0970874 C3.04073482,63.394822 3.33833866,63.8478964 3.07955272,64.1812298 C3.44508786,64.6116505 3.07955272,65.3430421 3.64241214,65.6440129 C3.95197405,65.8601524 4.3456597,65.9165893 4.7034345,65.7961165 L4.77136581,65.8349515 L5.13690096,65.631068 C5.43773962,65.4919094 5.73210863,65.3074434 6.00383387,65.2135922 C6.86753195,64.8673139 7.62124601,64.1391586 8.51405751,63.8834951 L9.0186901,63.8187702 L9.27100639,63.7993528 C9.40429037,63.8085269 9.53641942,63.8301971 9.66565495,63.8640777 C9.06721246,64.6116505 8.3134984,65.6407767 8.6725639,66.7055016 C8.68966687,66.7606657 8.71019399,66.8147081 8.73402556,66.8673139 C8.79622324,66.9978987 8.87683791,67.1188738 8.97340256,67.2265372 C9.32347298,67.6974032 9.78925691,68.0697482 10.3255591,68.3074434 L10.5099441,68.4401294 C12.1597045,68.7928803 13.6250799,68.197411 15.1098642,67.8640777 C15.4175639,67.7224172 15.6854024,67.5067181 15.8894569,67.236246 C15.9556851,67.0633026 15.9556851,66.8719725 15.8894569,66.6990291 L15.8894569,66.4660194 C16.3132188,66.6666667 16.8599042,66.9029126 17.4259984,67.1553398 C18.3964457,67.6504854 19.4315895,68.0647249 20.3761581,68.5631068 C21.9094649,69.1197411 23.1289936,69.7281553 24.8790335,69.8576052 C24.0315096,70.8576052 21.8641773,70.618123 21.8577077,72.4466019 C21.4630591,72.6213592 21.501877,73.0938511 21.5698083,73.3980583 C21.8674121,74.0453074 22.6211262,73.8414239 23.1354633,73.776699 C23.6041404,73.6022809 24.0867881,73.468033 24.5781949,73.3754045 C25.3446316,73.0413796 26.0364632,72.5572149 26.6128994,71.9514563 C27.3795527,71.2880259 28.275599,70.9644013 28.7867013,70.0809061 C31.7886182,70.6278317 34.3894169,69.2588997 37.1551917,68.7216828 C39.0960863,68.1197411 40.9140575,67.1812298 42.9164137,66.7799353 C43.7833466,66.0485437 44.9155351,66.1132686 45.7792332,65.4627832 L47.3028355,64.8446602 C47.4884257,64.7870479 47.6298458,64.6357233 47.6748403,64.4466019 L47.7783546,64.3333333 L47.7039537,64.3430421 Z M9.91797125,58.6019417 L9.72388179,58.8058252 L9.66242013,58.7799353 L9.91797125,58.6019417 Z M10.1152955,53.5436893 C9.95891021,53.6406871 9.80972128,53.7488424 9.66888978,53.8673139 C9.77730469,53.7125065 9.93449007,53.598554 10.1152955,53.5436893 Z M9.53626198,53.9708738 C9.46509585,54.0323625 9.39716454,54.0938511 9.33246805,54.1585761 C9.36208523,54.074321 9.42051939,54.0032524 9.49744409,53.9579288 L9.53626198,53.9708738 Z M9.0995607,54.368932 L9.13190895,54.368932 C8.99693319,54.5299858 8.87573907,54.7021136 8.76960863,54.8834951 C8.8860623,54.7346278 8.90547125,54.5080906 9.0995607,54.368932 Z M8.66932907,55.1035599 C8.62727636,55.1941748 8.58845847,55.2815534 8.55611022,55.3656958 C8.5296491,55.2653725 8.57682685,55.1601874 8.66932907,55.1132686 L8.66932907,55.1035599 Z M8.48170927,57.5825243 C8.30055911,56.9093851 8.07412141,56.184466 8.48170927,55.5695793 C8.28811729,56.2345964 8.32691228,56.9457699 8.59169329,57.5857605 C8.55934505,57.605178 8.52052716,57.605178 8.48170927,57.605178 L8.48170927,57.5825243 Z M8.87635783,58.4045307 L8.49788339,57.7799353 C8.54427225,57.7508175 8.59430671,57.7279657 8.6466853,57.7119741 C8.77460319,58.005943 8.93635916,58.2839816 9.12867412,58.5404531 L8.94752396,58.4627832 C8.92488019,58.4530744 8.89576677,58.433657 8.87635783,58.4142395 L8.87635783,58.4045307 Z M2.52316294,56.2621359 C3.25336523,56.3621006 3.96901789,56.5489693 4.65491214,56.8187702 L4.7163738,57.0097087 C3.43273012,56.4067049 2.02571763,56.1129867 0.608146965,56.1521036 C1.22276358,55.8899676 1.94089457,56.3106796 2.52316294,56.2718447 L2.52316294,56.2621359 Z M0.420527157,56.5113269 L0.799001597,57.9061489 L0.685782748,57.8834951 C0.392896087,57.5532039 0.262444966,57.1094751 0.329952077,56.6731392 L0.443170927,56.6731392 C0.425391362,56.6244987 0.417687253,56.5727485 0.420527157,56.5210356 L0.420527157,56.5113269 Z M0.676078275,57.9644013 L0.818410543,57.9644013 L1.00279553,58.6537217 C0.828115016,58.4627832 0.601677316,58.2524272 0.676078275,57.97411 L0.676078275,57.9644013 Z M1.61741214,59.8381877 L1.87619808,60.3300971 C1.73411943,60.2022026 1.64234932,60.0277628 1.61741214,59.8381877 Z M2.08322684,60.7249191 L2.31936901,61.1812298 L2.29349042,61.1812298 C2.1740306,61.056433 2.09801896,60.8963977 2.07675719,60.7249191 L2.08322684,60.7249191 Z M2.43582268,61.3980583 L2.75930511,61.815534 C2.59765299,61.7264602 2.47870839,61.5759641 2.42935304,61.3980583 L2.43582268,61.3980583 Z M3.40626997,63.1100324 C3.46049122,63.0987858 3.51355369,63.082535 3.56477636,63.0614887 L3.56477636,63.7540453 L3.47420128,63.7993528 C3.46773163,63.5404531 3.19600639,63.3009709 3.39333067,63.1067961 L3.40626997,63.1100324 Z M3.34480831,64.2815534 L3.37715655,63.9223301 C3.44185304,63.9029126 3.5033147,63.8705502 3.56477636,63.8478964 L3.56477636,64.7022654 C3.45155751,64.5954693 3.40303514,64.3786408 3.33186901,64.2815534 L3.34480831,64.2815534 Z M4.42200479,65.6440129 C4.09852236,65.579288 3.72004792,65.4951456 3.56801118,65.1682848 L4.43170927,65.6407767 L4.42200479,65.6440129 Z M10.0279553,63.9385113 C10.0279553,63.9385113 8.99928115,64.7346278 8.68226837,65.7281553 C8.75721336,64.925311 9.27769381,64.2331184 10.0279553,63.9385113 Z M9.97943291,67.9126214 C10.8713151,68.2627049 11.8357647,68.3872049 12.7872604,68.2750809 C11.8944489,68.4563107 10.7622604,68.4595469 9.98590256,67.9126214 L9.97943291,67.9126214 Z M19.5480431,68.0420712 C20.3146965,68.3495146 21.0748802,68.6440129 21.7444888,68.8932039 C20.9882497,68.6823709 20.2546919,68.3972741 19.5545128,68.0420712 L19.5480431,68.0420712 Z" id="Shape"></path>
        </g>
    </g>
</svg>