<svg width="910" height="408" xmlns="http://www.w3.org/2000/svg"><defs><linearGradient x1="39.881%" y1="71.747%" x2="59.812%" y2="25.722%" id="a"><stop stop-color="#D4145A" offset="0%"/><stop stop-color="#E1196A" offset="29%"/><stop stop-color="#EA1D75" offset="63%"/><stop stop-color="#ED1E79" offset="100%"/></linearGradient></defs><g fill-rule="nonzero" fill="none"><path fill="#D4145A" d="M811.73 298.67l-39.41-21.44.2-107.69 39.41 21.43zM839.8 114.51l-39.41-21.44 20.96-86.21 39.41 21.44z"/><path fill="#ED1E79" d="M860.76 28.3L821.35 6.86 870.18 0l39.41 21.44z"/><path fill="#FFF" d="M909.59 21.44l-45.8 162.25-.2 107.69-51.86 7.29.2-107.7L765.8 41.65l50.94-7.16 23.06 80.02 20.96-86.21z"/><path fill="#D4145A" d="M811.93 190.97l-39.41-21.43-46.13-149.33 39.41 21.44z"/><path fill="#ED1E79" d="M765.8 41.65l-39.41-21.44 50.94-7.16 39.41 21.44z"/><g><g fill="#D4145A"><path d="M671.63 278l-39.41-21.44c7.84-1.1 13.62-3.16 17.34-6.18a19.91 19.91 0 0 0 7.1-11.74c1.02-4.8 1.533-11.757 1.54-20.87l39.41 21.44c0 9.107-.513 16.063-1.54 20.87a19.94 19.94 0 0 1-7.1 11.74c-3.72 3.04-9.5 5.1-17.34 6.18z"/><path d="M671.63 278l-39.41-21.44a53.14 53.14 0 0 0 10.12-2.34l39.41 21.44a53.14 53.14 0 0 1-10.12 2.34"/><path d="M681.75 275.69l-39.41-21.44a24.39 24.39 0 0 0 7.22-3.84 19.7 19.7 0 0 0 6.17-8.51l39.41 21.44a19.7 19.7 0 0 1-6.17 8.51 24.39 24.39 0 0 1-7.22 3.84M695.14 263.34l-39.41-21.44a23.24 23.24 0 0 0 .93-3.23c.31-1.47.58-3.15.79-5l39.41 21.44c-.21 1.88-.48 3.56-.79 5a23.24 23.24 0 0 1-.93 3.23M696.86 255.08l-39.41-21.44c.54-5.262.791-10.55.75-15.84l39.41 21.44a143.93 143.93 0 0 1-.75 15.84"/></g><path fill="#FF2A9F" d="M663.18 279.21l-39.41-21.44 8.45-1.18 39.41 21.44z"/><path fill="#D4145A" d="M697.62 239.24L658.2 217.8l.22-114.85 39.41 21.44z"/><g fill="#D4145A"><path d="M650.56 75.39L690 96.83a12.62 12.62 0 0 1 6.24 8.43c1.087 4.287 1.627 10.663 1.62 19.13L658.42 103c0-8.467-.54-14.843-1.62-19.13a12.65 12.65 0 0 0-6.24-8.48z"/><path d="M697.83 124.39L658.42 103a108.39 108.39 0 0 0-.79-14.69l39.42 21.44c.587 4.874.847 9.781.78 14.69M697.05 109.7l-39.42-21.44a38.12 38.12 0 0 0-.83-4.44 12.65 12.65 0 0 0-6.24-8.43L690 96.83a12.62 12.62 0 0 1 6.24 8.43 40.19 40.19 0 0 1 .84 4.44"/></g><g fill="#ED1E79"><path d="M688.81 38.16l39.42 21.44a46.52 46.52 0 0 0-7.36-3.18c-11.86-4-28.337-4.503-49.43-1.51L632 33.47c21.12-2.98 37.607-2.47 49.46 1.53a46 46 0 0 1 7.35 3.16z"/><path d="M671.44 54.91L632 33.47c6.173-.867 11.95-1.437 17.33-1.71l39.44 21.44c-5.38.267-11.157.837-17.33 1.71"/><path d="M688.77 53.2l-39.41-21.44c11.213-.573 20.707.143 28.48 2.15l39.41 21.44c-7.78-2-17.273-2.717-28.48-2.15M717.25 55.35l-39.41-21.44c1.25.32 2.45.68 3.62 1.07a46 46 0 0 1 7.35 3.18l39.42 21.44a46.52 46.52 0 0 0-7.36-3.18 51.28 51.28 0 0 0-3.62-1.07"/></g><path d="M746 79.4c4.893 11.333 7.323 27.09 7.29 47.27l-.18 95.67c0 20.38-2.49 36.993-7.47 49.84a61.73 61.73 0 0 1-25.08 30.52c-11.76 7.507-28.093 12.73-49 15.67l-62.4 8.77.49-263.55 61.8-8.68c21.1-2.967 37.577-2.463 49.43 1.51 11.853 3.973 20.227 11.633 25.12 22.98zm-48.39 159.84l.22-114.85c0-8.467-.54-14.843-1.62-19.13a12.55 12.55 0 0 0-7.21-8.91c-3.72-1.647-9.5-1.917-17.34-.81l-8.14 1.14-.34 182.53 8.45-1.18c7.84-1.107 13.62-3.167 17.34-6.18a19.94 19.94 0 0 0 7.1-11.74c1.02-4.8 1.533-11.757 1.54-20.87z" fill="#FFF"/><path fill="#ED1E79" d="M609.64 63.59l-39.41-21.43 61.8-8.69 39.41 21.44z"/><path fill="#D4145A" d="M609.15 327.14l-39.41-21.44.49-263.54 39.41 21.43z"/></g><g><path fill="#D4145A" d="M523.14 228.3l-39.41-21.44L498.79 52.2l39.41 21.44z"/><path fill="#D4145A" d="M506.66 341.54l-39.41-21.44-20.51-156.17 39.41 21.44z"/><path fill="#ED1E79" d="M538.2 73.64L498.79 52.2l45.22-6.36 39.41 21.44z"/><path fill="#D4145A" d="M449.59 239.63l-39.41-21.44 18.67-155.85 39.41 21.44z"/><path fill="#ED1E79" d="M468.26 83.78l-39.41-21.44 35.88-5.04 39.41 21.44z"/><path fill="#D4145A" d="M418.63 353.91l-39.41-21.43-29.05-259.4 39.41 21.44z"/><path fill="#ED1E79" d="M389.58 94.52l-39.41-21.44L396 66.64l39.41 21.44z"/><path fill="#FFF" d="M583.42 67.28l-29.73 267.65-47.03 6.61-20.51-156.17-19.88 161.85-47.64 6.69-29.05-259.39 45.83-6.44 14.18 151.55 18.67-155.85 35.88-5.04 19 149.56L538.2 73.64z"/></g><g><g fill="#D4145A"><path d="M282.05 333.06l-39.41-21.44c2.58 1.4 6.027 1.8 10.34 1.2 7.64-1.08 12.67-4.553 15.09-10.42 2.42-5.88 3.64-13.57 3.66-23.12l39.41 21.44c0 9.54-1.22 17.247-3.66 23.12-2.44 5.873-7.47 9.343-15.09 10.41-4.313.613-7.76.217-10.34-1.19z"/><path d="M282.05 333.06l-39.41-21.44c.81.436 1.67.772 2.56 1l39.42 21.44a11.25 11.25 0 0 1-2.57-1M284.62 334.05l-39.42-21.44a17.62 17.62 0 0 0 5.29.45l39.41 21.44a17.52 17.52 0 0 1-5.28-.45"/><path d="M289.9 334.5l-39.41-21.44c.8-.04 1.63-.12 2.49-.24a27 27 0 0 0 5.13-1.22l39.41 21.4a26.07 26.07 0 0 1-5.13 1.21 25 25 0 0 1-2.49.25"/><path d="M297.52 333l-39.41-21.4a16 16 0 0 0 10-9.2l.42-1.08 39.41 21.43-.42 1.09a16 16 0 0 1-10 9.2"/><path d="M307.9 322.75l-39.41-21.43a50.34 50.34 0 0 0 2.69-11.87l39.41 21.43a50.23 50.23 0 0 1-2.69 11.87"/><path d="M310.59 310.88l-39.41-21.43a91.25 91.25 0 0 0 .55-10.17l39.41 21.44a90.93 90.93 0 0 1-.55 10.16"/></g><path fill="#D4145A" d="M311.14 300.72l-39.41-21.44.23-126.9 39.42 21.43z"/><g fill="#D4145A"><path d="M264 125.34l39.41 21.44a10.25 10.25 0 0 1 4.41 4.77c2.407 5.087 3.597 12.507 3.57 22.26L272 152.38c0-9.767-1.19-17.19-3.57-22.27a10.25 10.25 0 0 0-4.43-4.77z"/><path d="M311.37 173.81L272 152.38a84.35 84.35 0 0 0-.69-11.62l39.41 21.44a84.3 84.3 0 0 1 .69 11.61"/><path d="M310.68 162.2l-39.41-21.44a36.85 36.85 0 0 0-2.88-10.65 10.25 10.25 0 0 0-4.41-4.77l39.41 21.44a10.25 10.25 0 0 1 4.41 4.77 36.54 36.54 0 0 1 2.88 10.65"/></g><g fill="#D4145A"><path d="M247.11 370.49l-39.41-21.44a39.12 39.12 0 0 1-11.13-8.95c-11.227-13.06-16.813-33.907-16.76-62.54L219.22 299c-.053 28.667 5.533 49.517 16.76 62.55a39.3 39.3 0 0 0 11.13 8.94z"/><path d="M247.11 370.49l-39.41-21.44a39.12 39.12 0 0 1-11.13-8.95c-7.887-9.18-12.99-22.213-15.31-39.1l39.41 21.44c2.32 16.86 7.423 29.88 15.31 39.06a39.3 39.3 0 0 0 11.13 8.95"/><path d="M220.67 322.48L181.26 301a171.89 171.89 0 0 1-1.45-23.48L219.22 299a171.94 171.94 0 0 0 1.45 23.49"/></g><path fill="#D4145A" d="M219.22 299l-39.41-21.44.18-97.94 39.41 21.44z"/><path d="M299.28 88.22l39.41 21.44c-11.26-6.127-26.55-7.833-45.87-5.12-26.327 3.7-45.133 13.553-56.42 29.56-11.287 16.007-16.953 38.34-17 67L180 179.62c.06-28.627 5.727-50.96 17-67s30.077-25.88 56.41-29.52c19.32-2.733 34.61-1.027 45.87 5.12z" fill="#D4145A"/><path d="M219.4 201.06L180 179.62a186.35 186.35 0 0 1 1.15-20.78l39.41 21.44a186.35 186.35 0 0 0-1.15 20.78" fill="#D4145A"/><path d="M220.55 180.28l-39.41-21.44a119.48 119.48 0 0 1 6.5-28.22l39.41 21.44a119.48 119.48 0 0 0-6.5 28.22" fill="#D4145A"/><path d="M17 31.66a79.35 79.35 0 0 0-9.35 18L47.06 71.1a79.14 79.14 0 0 1 9.35-18l.06-.09c-13.32-6.76-26.59-14-39.43-21.41l-.04.06z" fill="url(#a)" transform="translate(180 81)"/><path d="M270 109.94L230.58 88.5c-14.667 5.18-25.85 13.213-33.55 24.1 12.84 7.38 26.11 14.65 39.43 21.41 7.693-10.867 18.873-18.89 33.54-24.07z" fill="#ED1E79"/><path d="M270 109.94L230.58 88.5a118 118 0 0 1 22.83-5.4c4-.55 7.77-.93 11.39-1.11l39.41 21.44c-3.62.18-7.417.55-11.39 1.11a118 118 0 0 0-22.83 5.4" fill="#ED1E79"/><path d="M304.21 103.43L264.8 82a78.44 78.44 0 0 1 23.46 2l39.41 21.44a78.11 78.11 0 0 0-23.46-2" fill="#ED1E79"/><path d="M327.67 105.39L288.26 84a47.93 47.93 0 0 1 11 4.27l39.41 21.44a47.93 47.93 0 0 0-11-4.27" fill="#ED1E79"/><path d="M349.61 118.35c11.333 12.94 16.97 33.607 16.91 62l-.19 97.93c-.047 28.627-5.763 51.063-17.15 67.31-11.387 16.247-30.34 26.227-56.86 29.94-26.327 3.7-45.107-.967-56.34-14-11.233-13.033-16.82-33.877-16.76-62.53l.18-97.93c.06-28.627 5.727-50.96 17-67s30.08-25.893 56.42-29.56c26.52-3.707 45.45.907 56.79 13.84zm-38.47 182.37l.23-126.91c0-9.76-1.19-17.18-3.57-22.26-2.38-5.08-7.4-7.08-15.06-6-7.233 1.02-12.063 4.467-14.49 10.34-2.427 5.873-3.643 13.577-3.65 23.11l-.24 126.91c0 9.54 1.093 16.92 3.28 22.14 2.2 5.21 7.11 7.3 14.75 6.22s12.66-4.55 15.09-10.41c2.43-5.86 3.64-13.58 3.66-23.12v-.02z" fill="#FFF"/></g><g><path fill="#D4145A" d="M131.05 394.33l-39.41-21.44.21-115.18 39.41 21.44z"/><path fill="#ED1E79" d="M93.65 242.8l-39.41-21.44 37.69-5.3 39.41 21.44z"/><path fill="#D4145A" d="M131.34 237.5l-39.41-21.44.2-106.71 39.41 21.44z"/><path fill="#ED1E79" d="M131.54 130.79l-39.41-21.44 54.26-7.63 39.41 21.44zM39.9 143.67L.49 122.23l53.95-7.59 39.41 21.44z"/><path fill="#D4145A" d="M39.41 407.21L0 385.77l.49-263.54 39.41 21.44z"/><path fill="#FFF" d="M185.8 123.16l-.49 263.54-54.26 7.63.21-115.18-37.68 5.3-.22 115.18-53.95 7.58.49-263.54 53.95-7.59-.2 106.72 37.69-5.3.2-106.71z"/></g></g></svg>