<?xml version="1.0" encoding="UTF-8"?>
<svg width="910px" height="408px" viewBox="0 0 910 408" version="1.1" xmlns="http://www.w3.org/2000/svg" xmlns:xlink="http://www.w3.org/1999/xlink">
    <!-- Generator: Sketch 47.1 (45422) - http://www.bohemiancoding.com/sketch -->
    <title>howdy-top</title>
    <desc>Created with Sketch.</desc>
    <defs>
        <linearGradient x1="43.3758857%" y1="71.7468354%" x2="56.4229772%" y2="25.721519%" id="linearGradient-1">
            <stop stop-color="#D4145A" offset="0%"></stop>
            <stop stop-color="#E1196A" offset="29%"></stop>
            <stop stop-color="#EA1D75" offset="63%"></stop>
            <stop stop-color="#ED1E79" offset="100%"></stop>
        </linearGradient>
    </defs>
    <g id="Page-1" stroke="none" stroke-width="1" fill="none" fill-rule="evenodd">
        <g id="howdy-top" fill-rule="nonzero">
            <g id="Group" transform="translate(726.000000, 0.000000)">
                <polygon id="Shape" fill="#D4145A" points="85.73 298.67 46.32 277.23 46.52 169.54 85.93 190.97"></polygon>
                <polygon id="Shape" fill="#D4145A" points="113.8 114.51 74.39 93.07 95.35 6.86 134.76 28.3"></polygon>
                <polygon id="Shape" fill="#ED1E79" points="134.76 28.3 95.35 6.86 144.18 0 183.59 21.44"></polygon>
                <polygon id="Shape" fill="#FFFFFF" points="183.59 21.44 137.79 183.69 137.59 291.38 85.73 298.67 85.93 190.97 39.8 41.65 90.74 34.49 113.8 114.51 134.76 28.3"></polygon>
                <polygon id="Shape" fill="#D4145A" points="85.93 190.97 46.52 169.54 0.39 20.21 39.8 41.65"></polygon>
                <polygon id="Shape" fill="#ED1E79" points="39.8 41.65 0.39 20.21 51.33 13.05 90.74 34.49"></polygon>
            </g>
            <g id="Group" transform="translate(569.000000, 31.000000)">
                <g id="Shape" transform="translate(63.000000, 186.000000)" fill="#D4145A">
                    <path d="M39.63,61 L0.22,39.56 C8.06,38.46 13.84,36.4 17.56,33.38 C21.2428429,30.4314493 23.759002,26.2709271 24.66,21.64 C25.68,16.84 26.1933333,9.88333333 26.2,0.77 L65.61,22.21 C65.61,31.3166667 65.0966667,38.2733333 64.07,43.08 C63.1665338,47.7099749 60.6508534,51.8697056 56.97,54.82 C53.25,57.86 47.47,59.92 39.63,61 Z"></path>
                    <g id="Group">
                        <path d="M39.63,61 L0.22,39.56 C3.66165368,39.1123469 7.05117485,38.3286039 10.34,37.22 L49.75,58.66 C46.4611749,59.7686039 43.0716537,60.5523469 39.63,61" id="Shape"></path>
                        <path d="M49.75,58.69 L10.34,37.25 C12.9456283,36.3854595 15.3865977,35.0872154 17.56,33.41 C20.3494587,31.1845057 22.4820435,28.2431286 23.73,24.9 L63.14,46.34 C61.8920435,49.6831286 59.7594587,52.6245057 56.97,54.85 C54.7965977,56.5272154 52.3556283,57.8254595 49.75,58.69" id="Shape"></path>
                        <path d="M63.14,46.34 L23.73,24.9 C24.1175553,23.8471918 24.428368,22.7677025 24.66,21.67 C24.97,20.2 25.24,18.52 25.45,16.67 L64.86,38.11 C64.65,39.99 64.38,41.67 64.07,43.11 C63.838368,44.2077025 63.5275553,45.2871918 63.14,46.34" id="Shape"></path>
                        <path d="M64.86,38.08 L25.45,16.64 C25.9908978,11.3777945 26.2412777,6.08977063 26.2,0.8 L65.61,22.24 C65.6512777,27.5297706 65.4008978,32.8177945 64.86,38.08" id="Shape"></path>
                    </g>
                </g>
                <polygon id="Shape" fill="#FF2A9F" points="94.18 248.21 54.77 226.77 63.22 225.59 102.63 247.03"></polygon>
                <polygon id="Shape" fill="#D4145A" points="128.62 208.24 89.2 186.8 89.42 71.95 128.83 93.39"></polygon>
                <g id="Shape" transform="translate(81.000000, 44.000000)" fill="#D4145A">
                    <path d="M0.56,0.39 L40,21.83 C43.2044629,23.6016874 45.4814526,26.6778129 46.24,30.26 C47.3266667,34.5466667 47.8666667,40.9233333 47.86,49.39 L8.42,28 C8.42,19.5333333 7.88,13.1566667 6.8,8.87 C6.05099016,5.27091567 3.77336951,2.17568759 0.56,0.39 L0.56,0.39 Z"></path>
                    <g id="Group">
                        <path d="M47.83,49.39 L8.42,28 C8.48965393,23.091093 8.22571283,18.1831249 7.63,13.31 L47.05,34.75 C47.6366673,39.6238483 47.8972469,44.5314306 47.83,49.44" id="Shape"></path>
                        <path d="M47.05,34.7 L7.63,13.26 C7.44133766,11.7648952 7.16418457,10.2822932 6.8,8.82 C6.0377524,5.2394796 3.76178817,2.16473947 0.56,0.39 L40,21.83 C43.2044629,23.6016874 45.4814526,26.6778129 46.24,30.26 C46.6030461,31.7230754 46.8834893,33.2054179 47.08,34.7" id="Shape"></path>
                    </g>
                </g>
                <g id="Shape" transform="translate(63.000000, 0.000000)" fill="#ED1E79">
                    <path d="M56.81,7.16 L96.23,28.6 C93.8727526,27.3301683 91.4102762,26.2662179 88.87,25.42 C77.01,21.42 60.5333333,20.9166667 39.44,23.91 L0,2.47 C21.12,-0.51 37.6066667,6.66133815e-16 49.46,4 C51.9971243,4.83787304 54.4564234,5.89520437 56.81,7.16 L56.81,7.16 Z"></path>
                    <g id="Group">
                        <path d="M39.44,23.91 L0,2.47 C6.17333333,1.60333333 11.95,1.03333333 17.33,0.76 L56.77,22.2 C51.39,22.4666667 45.6133333,23.0366667 39.44,23.91" id="Shape"></path>
                        <path d="M56.77,22.2 L17.36,0.76 C28.5733333,0.186666667 38.0666667,0.903333333 45.84,2.91 L85.25,24.35 C77.47,22.35 67.9766667,21.6333333 56.77,22.2" id="Shape"></path>
                        <path d="M85.25,24.35 L45.84,2.91 C47.09,3.23 48.29,3.59 49.46,3.98 C51.9977877,4.82431092 54.4571053,5.88834222 56.81,7.16 L96.23,28.6 C93.8727526,27.3301683 91.4102762,26.2662179 88.87,25.42 C87.71,25.03 86.5,24.67 85.25,24.35" id="Shape"></path>
                    </g>
                </g>
                <path d="M177,48.4 C181.893333,59.7333333 184.323333,75.49 184.29,95.67 L184.11,191.34 C184.11,211.72 181.62,228.333333 176.64,241.18 C171.848658,253.825821 163.037304,264.54841 151.56,271.7 C139.8,279.206667 123.466667,284.43 102.56,287.37 L40.16,296.14 L40.65,32.59 L102.45,23.91 C123.55,20.9433333 140.026667,21.4466667 151.88,25.42 C163.733333,29.3933333 172.106667,37.0533333 177,48.4 Z M128.61,208.24 L128.83,93.39 C128.83,84.9233333 128.29,78.5466667 127.21,74.26 C126.382449,70.3018826 123.698419,66.985002 120,65.35 C116.28,63.7033333 110.5,63.4333333 102.66,64.54 L94.52,65.68 L94.18,248.21 L102.63,247.03 C110.47,245.923333 116.25,243.863333 119.97,240.85 C123.650853,237.899706 126.166534,233.739975 127.07,229.11 C128.09,224.31 128.603333,217.353333 128.61,208.24 L128.61,208.24 Z" id="Shape" fill="#FFFFFF"></path>
                <polygon id="Shape" fill="#ED1E79" points="40.64 32.59 1.23 11.16 63.03 2.47 102.44 23.91"></polygon>
                <polygon id="Shape" fill="#D4145A" points="40.15 296.14 0.74 274.7 1.23 11.16 40.64 32.59"></polygon>
            </g>
            <g id="Group" transform="translate(350.000000, 45.000000)">
                <polygon id="Shape" fill="#D4145A" points="173.14 183.3 133.73 161.86 148.79 7.2 188.2 28.64"></polygon>
                <polygon id="Shape" fill="#D4145A" points="156.66 296.54 117.25 275.1 96.74 118.93 136.15 140.37"></polygon>
                <polygon id="Shape" fill="#ED1E79" points="188.2 28.64 148.79 7.2 194.01 0.84 233.42 22.28"></polygon>
                <polygon id="Shape" fill="#D4145A" points="99.59 194.63 60.18 173.19 78.85 17.34 118.26 38.78"></polygon>
                <polygon id="Shape" fill="#ED1E79" points="118.26 38.78 78.85 17.34 114.73 12.3 154.14 33.74"></polygon>
                <polygon id="Shape" fill="#D4145A" points="68.63 308.91 29.22 287.48 0.17 28.08 39.58 49.52"></polygon>
                <polygon id="Shape" fill="#ED1E79" points="39.58 49.52 0.17 28.08 46 21.64 85.41 43.08"></polygon>
                <polygon id="Shape" fill="#FFFFFF" points="233.42 22.28 203.69 289.93 156.66 296.54 136.15 140.37 116.27 302.22 68.63 308.91 39.58 49.52 85.41 43.08 99.59 194.63 118.26 38.78 154.14 33.74 173.14 183.3 188.2 28.64"></polygon>
            </g>
            <g id="Group" transform="translate(179.000000, 81.000000)">
                <g id="Shape" transform="translate(63.000000, 198.000000)" fill="#D4145A">
                    <path d="M40.05,54.06 L0.64,32.62 C3.22,34.02 6.66666667,34.42 10.98,33.82 C18.62,32.74 23.65,29.2666667 26.07,23.4 C28.49,17.52 29.71,9.83 29.73,0.28 L69.14,21.72 C69.14,31.26 67.92,38.9666667 65.48,44.84 C63.04,50.7133333 58.01,54.1833333 50.39,55.25 C46.0766667,55.8633333 42.63,55.4666667 40.05,54.06 Z"></path>
                    <g id="Group">
                        <path d="M40.05,54.06 L0.64,32.62 C1.44967594,33.0558007 2.30931002,33.3915952 3.2,33.62 L42.62,55.06 C41.7255656,54.8333221 40.8624157,54.4974661 40.05,54.06" id="Shape"></path>
                        <path d="M42.62,55.05 L3.2,33.61 C4.93048444,34.02632 6.71405945,34.1780418 8.49,34.06 L47.9,55.5 C46.127364,55.6185741 44.3470042,55.4668388 42.62,55.05" id="Shape"></path>
                        <path d="M47.9,55.5 L8.49,34.06 C9.29,34.02 10.12,33.94 10.98,33.82 C12.72571,33.581688 14.4439019,33.1730732 16.11,32.6 L55.52,54 C53.8552682,54.5756033 52.1364861,54.9810081 50.39,55.21 C49.5646939,55.3348489 48.733653,55.4182868 47.9,55.46" id="Shape"></path>
                        <path d="M55.52,54 L16.11,32.6 C20.6446584,31.1713874 24.309106,27.8000957 26.11,23.4 L26.53,22.32 L65.94,43.75 L65.52,44.84 C63.719106,49.2400957 60.0546584,52.6113874 55.52,54.04" id="Shape"></path>
                        <path d="M65.9,43.75 L26.49,22.32 C27.8634399,18.4866906 28.7667068,14.5008996 29.18,10.45 L68.59,31.88 C68.1777805,35.9310753 67.2744845,39.9169949 65.9,43.75" id="Shape"></path>
                        <path d="M68.59,31.88 L29.18,10.45 C29.5525252,7.07288298 29.7361445,3.67759571 29.73,0.28 L69.14,21.72 C69.1464393,25.1142775 68.9628186,28.5062531 68.59,31.88" id="Shape"></path>
                    </g>
                </g>
                <polygon id="Shape" fill="#D4145A" points="132.14 219.72 92.73 198.28 92.96 71.38 132.38 92.81"></polygon>
                <g id="Shape" transform="translate(84.000000, 44.000000)" fill="#D4145A">
                    <path d="M1,0.34 L40.41,21.78 C42.358299,22.8497955 43.906063,24.5239075 44.82,26.55 C47.2266667,31.6366667 48.4166667,39.0566667 48.39,48.81 L9,27.38 C9,17.6133333 7.81,10.19 5.43,5.11 C4.51088644,3.08086498 2.95575804,1.40638135 1,0.34 Z"></path>
                    <g id="Group">
                        <path d="M48.37,48.81 L9,27.38 C9.03785716,23.4953989 8.80730832,19.6128228 8.31,15.76 L47.72,37.2 C48.2170072,41.0495001 48.4475557,44.92873 48.41,48.81" id="Shape"></path>
                        <path d="M47.68,37.2 L8.27,15.76 C7.84986817,12.085592 6.87898979,8.49536468 5.39,5.11 C4.47606297,3.08390753 2.92829904,1.40979552 0.98,0.34 L40.39,21.78 C42.338299,22.8497955 43.886063,24.5239075 44.8,26.55 C46.2934824,29.9337777 47.2645483,33.5246985 47.68,37.2" id="Shape"></path>
                    </g>
                </g>
                <g id="Shape" transform="translate(0.000000, 196.000000)" fill="#D4145A">
                    <path d="M68.11,93.49 L28.7,72.05 C24.4722325,69.7749129 20.6993688,66.7410288 17.57,63.1 C6.34333333,50.04 0.756666667,29.1933333 0.81,0.56 L40.22,22 C40.1666667,50.6666667 45.7533333,71.5166667 56.98,84.55 C60.1131011,88.1844962 63.885325,91.2144766 68.11,93.49 L68.11,93.49 Z"></path>
                    <g id="Group">
                        <path d="M68.11,93.49 L28.7,72.05 C24.4722325,69.7749129 20.6993688,66.7410288 17.57,63.1 C9.68333333,53.92 4.58,40.8866667 2.26,24 L41.67,45.44 C43.99,62.3 49.0933333,75.32 56.98,84.5 C60.112219,88.1380825 63.8844985,91.1714968 68.11,93.45" id="Shape"></path>
                        <path d="M41.67,45.48 L2.26,24 C1.24102966,16.2156303 0.756562037,8.37059596 0.81,0.52 L40.22,22 C40.1662618,29.8539274 40.6507297,37.7023077 41.67,45.49" id="Shape"></path>
                    </g>
                </g>
                <polygon id="Shape" fill="#D4145A" points="40.22 218 0.81 196.56 0.99 98.62 40.4 120.06"></polygon>
                <g id="Shape" transform="translate(1.000000, 0.000000)">
                    <path d="M119.28,7.22 L158.69,28.66 C147.43,22.5333333 132.14,20.8266667 112.82,23.54 C86.4933333,27.24 67.6866667,37.0933333 56.4,53.1 C45.1133333,69.1066667 39.4466667,91.44 39.4,120.1 L0,98.62 C0.06,69.9933333 5.72666667,47.66 17,31.62 C28.2733333,15.58 47.0766667,5.74 73.41,2.1 C92.73,-0.633333333 108.02,1.07333333 119.28,7.22 Z" fill="#D4145A"></path>
                    <g id="Group">
                        <path d="M39.4,120.06 L-1.33051258e-15,98.62 C-0.00405727382,91.6773191 0.379874643,84.7398363 1.15,77.84 L40.56,99.28 C39.7898746,106.179836 39.4059427,113.117319 39.41,120.06" id="Shape" fill="#D4145A"></path>
                        <path d="M40.55,99.28 L1.14,77.84 C2.15446788,68.2045831 4.33716268,58.7283297 7.64,49.62 L47.05,71.06 C43.7471627,80.1683297 41.5644679,89.6445831 40.55,99.28" id="Shape" fill="#D4145A"></path>
                        <path d="M17,31.66 C13.1261449,37.235311 9.98381188,43.2847221 7.65,49.66 L47.06,71.1 C49.3916829,64.7237843 52.5341534,58.6741084 56.41,53.1 L56.47,53.01 C43.15,46.25 29.88,39.01 17.04,31.6 L17,31.66 Z" id="Shape" fill="url(#linearGradient-1)"></path>
                        <path d="M90,28.94 L50.58,7.5 C35.9133333,12.68 24.73,20.7133333 17.03,31.6 C29.87,38.98 43.14,46.25 56.46,53.01 C64.1533333,42.1433333 75.3333333,34.12 90,28.94 Z" id="Shape" fill="#ED1E79"></path>
                        <path d="M90,28.94 L50.58,7.5 C57.9917307,4.946107 65.6395173,3.13716929 73.41,2.1 C77.41,1.55 81.18,1.17 84.8,0.99 L124.21,22.43 C120.59,22.61 116.793333,22.98 112.82,23.54 C105.049517,24.5771693 97.4017307,26.386107 89.99,28.94" id="Shape" fill="#ED1E79"></path>
                        <path d="M124.21,22.43 L84.8,1 C92.676086,0.482532102 100.585165,1.15679289 108.26,3 L147.67,24.44 C139.995977,22.5917812 132.086135,21.9174554 124.21,22.44" id="Shape" fill="#ED1E79"></path>
                        <path d="M147.67,24.39 L108.26,3 C112.088542,3.96483664 115.7832,5.39903555 119.26,7.27 L158.67,28.71 C155.1932,26.8390355 151.498542,25.4048366 147.67,24.44" id="Shape" fill="#ED1E79"></path>
                    </g>
                </g>
                <path d="M170.61,37.35 C181.943333,50.29 187.58,70.9566667 187.52,99.35 L187.33,197.28 C187.283333,225.906667 181.566667,248.343333 170.18,264.59 C158.793333,280.836667 139.84,290.816667 113.32,294.53 C86.9933333,298.23 68.2133333,293.563333 56.98,280.53 C45.7466667,267.496667 40.16,246.653333 40.22,218 L40.4,120.07 C40.46,91.4433333 46.1266667,69.11 57.4,53.07 C68.6733333,37.03 87.48,27.1766667 113.82,23.51 C140.34,19.8033333 159.27,24.4166667 170.61,37.35 Z M132.14,219.72 L132.37,92.81 C132.37,83.05 131.18,75.63 128.8,70.55 C126.42,65.47 121.4,63.47 113.74,64.55 C106.506667,65.57 101.676667,69.0166667 99.25,74.89 C96.8233333,80.7633333 95.6066667,88.4666667 95.6,98 L95.36,224.91 C95.36,234.45 96.4533333,241.83 98.64,247.05 C100.84,252.26 105.75,254.35 113.39,253.27 C121.03,252.19 126.05,248.72 128.48,242.86 C130.91,237 132.12,229.28 132.14,219.74 L132.14,219.72 Z" id="Shape" fill="#FFFFFF"></path>
            </g>
            <g id="Group" transform="translate(0.000000, 101.000000)">
                <polygon id="Shape" fill="#D4145A" points="131.05 293.33 91.64 271.89 91.85 156.71 131.26 178.15"></polygon>
                <polygon id="Shape" fill="#ED1E79" points="93.65 141.8 54.24 120.36 91.93 115.06 131.34 136.5"></polygon>
                <polygon id="Shape" fill="#D4145A" points="131.34 136.5 91.93 115.06 92.13 8.35 131.54 29.79"></polygon>
                <polygon id="Shape" fill="#ED1E79" points="131.54 29.79 92.13 8.35 146.39 0.72 185.8 22.16"></polygon>
                <polygon id="Shape" fill="#ED1E79" points="39.9 42.67 0.49 21.23 54.44 13.64 93.85 35.08"></polygon>
                <polygon id="Shape" fill="#D4145A" points="39.41 306.21 0 284.77 0.49 21.23 39.9 42.67"></polygon>
                <polygon id="Shape" fill="#FFFFFF" points="185.8 22.16 185.31 285.7 131.05 293.33 131.26 178.15 93.58 183.45 93.36 298.63 39.41 306.21 39.9 42.67 93.85 35.08 93.65 141.8 131.34 136.5 131.54 29.79"></polygon>
            </g>
        </g>
    </g>
</svg>