<svg id="Layer_1" data-name="Layer 1" xmlns="http://www.w3.org/2000/svg" viewBox="0 0 48 48">
  <defs>
    <style>
      .cls-1, .cls-2, .cls-6 {
        fill: none;
      }

      .cls-1, .cls-4, .cls-5 {
        stroke: #000;
      }

      .cls-1, .cls-2, .cls-4, .cls-5, .cls-6 {
        stroke-linecap: round;
        stroke-linejoin: round;
      }

      .cls-1 {
        stroke-width: 2px;
      }

      .cls-2 {
        stroke: #999;
      }

      .cls-3 {
        fill: #999;
      }

      .cls-4 {
        fill: #7ac943;
      }

      .cls-5 {
        fill: #3fa9f5;
      }

      .cls-6 {
        stroke: #7ac943;
        stroke-width: 1.5px;
      }
    </style>
  </defs>
  <title>icon-registration</title>
  <line class="cls-1" x1="17.88" y1="9.25" x2="21.87" y2="9.25"/>
  <path class="cls-1" d="M32.94,35.75v4.5a2,2,0,0,1-2,2h-22a2,2,0,0,1-2-2v-29a2,2,0,0,1,2-2h0"/>
  <path class="cls-1" d="M30.94,9.25h0a2,2,0,0,1,2,2v6.5"/>
  <line class="cls-2" x1="17.94" y1="19.75" x2="27.94" y2="19.75"/>
  <line class="cls-2" x1="17.94" y1="26.75" x2="25.94" y2="26.75"/>
  <circle class="cls-3" cx="13.44" cy="33.75" r="1.5"/>
  <line class="cls-2" x1="17.94" y1="33.75" x2="27.94" y2="33.75"/>
  <rect class="cls-4" x="11.94" y="5" width="3" height="6.75" rx="1.5" ry="1.5"/>
  <rect class="cls-4" x="24.94" y="5" width="3" height="6.75" rx="1.5" ry="1.5"/>
  <g>
    <rect class="cls-5" x="29.2" y="22.6" width="10.89" height="4.5" transform="translate(-7.43 31.78) rotate(-45)"/>
    <polygon class="cls-4" points="32.39 30.29 33.41 29.27 30.23 26.09 29.2 27.11 28.67 30.82 32.39 30.29"/>
    <rect class="cls-5" x="37.48" y="17.52" width="4.5" height="4.5" transform="translate(-2.34 33.88) rotate(-45)"/>
  </g>
  <g>
    <line class="cls-6" x1="12" y1="20" x2="13" y2="21"/>
    <line class="cls-6" x1="15.5" y1="18.5" x2="13" y2="21"/>
  </g>
  <g>
    <line class="cls-6" x1="12" y1="27" x2="13" y2="28"/>
    <line class="cls-6" x1="15.5" y1="25.5" x2="13" y2="28"/>
  </g>
</svg>
