<svg id="Layer_1" data-name="Layer 1" xmlns="http://www.w3.org/2000/svg" viewBox="0 0 48 48">
  <defs>
    <style>
      .cls-1, .cls-5, .cls-6, .cls-7 {
        fill: none;
      }

      .cls-1, .cls-2, .cls-3, .cls-4, .cls-5 {
        stroke: #000;
      }

      .cls-1, .cls-3, .cls-4, .cls-5, .cls-6, .cls-7 {
        stroke-linecap: round;
        stroke-linejoin: round;
      }

      .cls-1, .cls-6, .cls-7 {
        stroke-width: 2px;
      }

      .cls-2 {
        fill: #999;
        stroke-miterlimit: 10;
      }

      .cls-3 {
        fill: #7ac943;
      }

      .cls-4 {
        fill: #3fa9f5;
      }

      .cls-6 {
        stroke: #3fa9f5;
      }

      .cls-7 {
        stroke: #7ac943;
      }
    </style>
  </defs>
  <title>icon-invoice</title>
  <g>
    <path class="cls-1" d="M39,14V41a2,2,0,0,1-2,2H11a2,2,0,0,1-2-2V7a2,2,0,0,1,2-2H30"/>
    <polyline class="cls-2" points="39 14 30 5 29.99 5 30 14 39 13.95"/>
    <rect class="cls-3" x="13.5" y="19.5" width="21" height="12"/>
    <rect class="cls-4" x="13.5" y="25.5" width="21" height="6"/>
    <line class="cls-5" x1="34.5" y1="25.5" x2="13.5" y2="25.5"/>
    <line class="cls-5" x1="24.5" y1="20" x2="24.5" y2="31"/>
    <line class="cls-5" x1="29.5" y1="20" x2="29.5" y2="31"/>
    <line class="cls-6" x1="13.5" y1="15.5" x2="22.5" y2="15.5"/>
    <line class="cls-7" x1="24.5" y1="36.5" x2="34.5" y2="36.5"/>
    <line class="cls-1" x1="30" y1="5" x2="39" y2="14"/>
  </g>
</svg>
