<?xml version="1.0" encoding="UTF-8"?>
<svg width="44px" height="44px" viewBox="0 0 44 44" version="1.1" xmlns="http://www.w3.org/2000/svg" xmlns:xlink="http://www.w3.org/1999/xlink">
    <!-- Generator: Sketch 47.1 (45422) - http://www.bohemiancoding.com/sketch -->
    <title>Asset 33</title>
    <desc>Created with Sketch.</desc>
    <defs></defs>
    <g id="Page-1" stroke="none" stroke-width="1" fill="none" fill-rule="evenodd">
        <g id="Asset-33" fill-rule="nonzero" fill="#FFFFFF">
            <path d="M0,0 L0,43.69 L43.69,43.69 L43.69,0 L0,0 Z M36.29,10.35 L34,12.6 C33.7998925,12.751985 33.6999118,13.0019367 33.74,13.25 L33.74,29.76 C33.7005247,30.0108757 33.800025,30.2634532 34,30.42 L36.29,32.66 L36.29,33.16 L24.73,33.16 L24.73,32.66 L27.1,30.36 C27.33,30.13 27.33,30.06 27.33,29.7 L27.33,16.36 L20.74,33.1 L19.85,33.1 L12.18,16.36 L12.18,27.58 C12.1128525,28.0518237 12.2679362,28.5281521 12.6,28.87 L15.69,32.61 L15.69,33.1 L7,33.1 L7,32.61 L10,28.87 C10.328145,28.5267199 10.4730012,28.0475801 10.39,27.58 L10.39,14.58 C10.4404692,14.2078821 10.3060741,13.8345623 10.03,13.58 L7.29,10.28 L7.29,9.86 L15.79,9.86 L22.4,24.28 L28.18,9.86 L36.29,9.86 L36.29,10.35 Z" id="Shape"></path>
        </g>
    </g>
</svg>