<svg id="Layer_1" data-name="Layer 1" xmlns="http://www.w3.org/2000/svg" viewBox="0 0 48 48">
  <defs>
    <style>
      .cls-1 {
        fill: none;
        stroke: #000;
        stroke-linecap: round;
        stroke-linejoin: round;
        stroke-width: 2px;
      }

      .cls-2 {
        fill: #fff;
      }

      .cls-3 {
        fill: #7ac943;
      }

      .cls-4 {
        fill: #3fa9f5;
      }
    </style>
  </defs>
  <title>icon-mobile</title>
  <path d="M6.25,3.25h25a3,3,0,0,1,3,3v4a0,0,0,0,1,0,0h-31a0,0,0,0,1,0,0v-4A3,3,0,0,1,6.25,3.25Z"/>
  <path d="M3.25,34.25H26a0,0,0,0,1,0,0v7a0,0,0,0,1,0,0H6.25a3,3,0,0,1-3-3v-4a0,0,0,0,1,0,0Z"/>
  <g>
    <rect class="cls-1" x="29.5" y="20.25" width="15" height="25" rx="3" ry="3"/>
    <rect x="35" y="23.25" width="4" height="2" rx="1" ry="1"/>
    <circle cx="37" cy="40.25" r="2"/>
  </g>
  <g>
    <path class="cls-1" d="M34.25,15.43V6.25a3,3,0,0,0-3-3h-25a3,3,0,0,0-3,3v32a3,3,0,0,0,3,3H24.89"/>
    <rect class="cls-2" x="14.75" y="5.33" width="8" height="2" rx="1" ry="1"/>
    <circle class="cls-2" cx="18.75" cy="37.65" r="2"/>
  </g>
  <g>
    <rect class="cls-3" x="32" y="27" width="10" height="10" rx="3" ry="3"/>
    <path class="cls-2" d="M35.9,32.9a2,2,0,0,0,1.14.49c.24,0,.5-.09.5-.38,0-.53-2.17-.58-2.17-2a1.45,1.45,0,0,1,1.28-1.42V29h.73v.61a2.08,2.08,0,0,1,1.22.52l-.49,1a1.86,1.86,0,0,0-1.06-.42c-.24,0-.51.11-.51.38,0,.56,2.17.52,2.17,2a1.46,1.46,0,0,1-1.33,1.45v.61h-.73v-.61a2.44,2.44,0,0,1-1.36-.65Z"/>
  </g>
  <g>
    <rect class="cls-4" x="12" y="15" width="14" height="14" rx="3" ry="3"/>
    <path class="cls-2" d="M17.46,23.26a2.78,2.78,0,0,0,1.6.69c.34,0,.7-.13.7-.53,0-.75-3-.81-3-2.82a2,2,0,0,1,1.79-2v-.87h1v.84a3,3,0,0,1,1.71.73l-.69,1.34a2.58,2.58,0,0,0-1.48-.59c-.34,0-.71.15-.71.52,0,.79,3,.74,3,2.8a2,2,0,0,1-1.87,2v.85h-1v-.85a3.33,3.33,0,0,1-1.91-.91Z"/>
  </g>
</svg>
