<svg id="Layer_1" data-name="Layer 1" xmlns="http://www.w3.org/2000/svg" viewBox="0 0 48 48">
  <defs>
    <style>
      .cls-1 {
        fill: none;
        stroke: #000;
        stroke-linecap: round;
        stroke-linejoin: round;
        stroke-width: 2px;
      }

      .cls-2 {
        fill: #7ac943;
      }

      .cls-3 {
        fill: #999;
      }
    </style>
  </defs>
  <title>icon-pos</title>
  <g>
    <path class="cls-1" d="M16,35.5v8a2,2,0,0,0,2,2H30a2,2,0,0,0,2-2v-8"/>
    <path d="M26.5,34h0A1.5,1.5,0,0,1,28,35.5V45a0,0,0,0,1,0,0H25a0,0,0,0,1,0,0V35.5A1.5,1.5,0,0,1,26.5,34Z"/>
  </g>
  <polygon class="cls-1" points="38.57 35 9.43 35 7 3 41 3 38.57 35"/>
  <rect class="cls-2" x="15" y="6" width="18" height="7" rx="1" ry="1"/>
  <rect class="cls-3" x="15" y="15" width="5" height="5" rx="1" ry="1"/>
  <rect class="cls-3" x="21.5" y="15" width="5" height="5" rx="1" ry="1"/>
  <rect class="cls-3" x="28" y="15" width="5" height="5" rx="1" ry="1"/>
  <rect class="cls-3" x="15" y="21" width="5" height="5" rx="1" ry="1"/>
  <rect class="cls-3" x="21.5" y="21" width="5" height="5" rx="1" ry="1"/>
  <rect class="cls-3" x="28" y="21" width="5" height="5" rx="1" ry="1"/>
  <rect class="cls-3" x="15" y="27" width="5" height="5" rx="1" ry="1"/>
  <rect class="cls-3" x="21.5" y="27" width="5" height="5" rx="1" ry="1"/>
  <rect class="cls-3" x="28" y="27" width="5" height="5" rx="1" ry="1"/>
</svg>
