<svg width="224" height="72" xmlns="http://www.w3.org/2000/svg"><g fill-rule="nonzero" fill="none"><path fill="#ED1E79" d="M218.27 42.58l-8.86-4.82.05-24.46 8.85 4.82z"/><g fill="#ED1E79"><path d="M208.45 10.17l8.86 4.83c.2.113.368.275.49.47.4.83.576 1.75.51 2.67l-8.85-4.82a5.26 5.26 0 0 0-.52-2.67 1.27 1.27 0 0 0-.49-.48z"/><path d="M218.31 18.12l-8.85-4.82a5.26 5.26 0 0 0-.52-2.67 1.27 1.27 0 0 0-.49-.46l8.86 4.83c.2.113.368.275.49.47.4.83.576 1.75.51 2.67"/></g><g fill="#ED1E79"><path d="M212.88 5.14l8.85 4.86a3.75 3.75 0 0 0-2.37-.31l-8.85-4.82a3.75 3.75 0 0 1 2.37.27z"/><path d="M219.36 9.64l-8.85-4.82a4.36 4.36 0 0 1 1.71.06l8.86 4.82a4.41 4.41 0 0 0-1.72-.06"/><path d="M221.08 9.7l-8.86-4.82c.193.048.38.115.56.2l8.85 4.82a3.27 3.27 0 0 0-.55-.2"/><path d="M221.63 9.9l-8.85-4.82.1.06 8.85 4.86h-.1"/></g><g fill="#ED1E79"><path d="M212 14.3l-8.85-4.81c2.39-2.77 4.83-4.32 7.32-4.67l8.85 4.82c-2.45.36-4.88 1.9-7.32 4.66z"/><path d="M212 14.3l-8.85-4.81.15-.17 8.85 4.81-.15.17M212.19 14.13l-8.85-4.81a17.71 17.71 0 0 1 1.6-1.63l8.85 4.81a22.57 22.57 0 0 0-1.6 1.63"/><path d="M213.79 12.5l-8.85-4.81a13 13 0 0 1 1.48-1.18l8.85 4.82a15.13 15.13 0 0 0-1.48 1.17M215.27 11.33l-8.85-4.82a10.51 10.51 0 0 1 1.6-.93l8.85 4.82a11 11 0 0 0-1.6.93"/><path d="M216.87 10.4L208 5.58a8.6 8.6 0 0 1 2.49-.76l8.85 4.82a8.79 8.79 0 0 0-2.49.76"/></g><path d="M219.36 9.64a3.15 3.15 0 0 1 3.48 1.41 9 9 0 0 1 1 4.55l-.05 26.2-5.54.78V18.12a5.28 5.28 0 0 0-.51-2.67 1.74 1.74 0 0 0-1.87-.63c-1.1.16-2.41 1-3.89 2.56v26.08l-5.55.78.06-32.35 5.55-.78v3.19c2.4-2.76 4.83-4.3 7.32-4.66z" fill="#FFF"/><path fill="#ED1E79" d="M206.44 44.24l-8.85-4.82.06-32.35 8.85 4.82z"/><path fill="#ED1E79" d="M206.5 11.89l-8.85-4.82 5.54-.78 8.86 4.82z"/><g fill="#ED1E79"><path d="M187.91 40.45l8.85 4.82c.067.03.13.068.19.11a2.55 2.55 0 0 1 .88 2.2 3 3 0 0 1-1.41 2.63l-8.85-4.82a3 3 0 0 0 1.4-2.63 2.53 2.53 0 0 0-.87-2.19 1.22 1.22 0 0 0-.19-.12z"/><path d="M196.42 50.21l-8.85-4.82 8.86 4.82M196.45 50.19l-8.86-4.82a2.92 2.92 0 0 0 .38-.29l8.86 4.81a3.57 3.57 0 0 1-.38.3M196.83 49.89L188 45.08a3.25 3.25 0 0 0 .26-.27l8.86 4.82-.26.26"/><path d="M197.09 49.63l-8.86-4.82a1.71 1.71 0 0 0 .21-.26l8.85 4.82c-.06.09-.13.17-.2.26"/><path d="M197.29 49.37l-8.85-4.82.18-.28 8.85 4.81c-.05.102-.11.2-.18.29"/><path d="M197.47 49.08l-8.85-4.81c.06-.12.11-.24.16-.37l8.85 4.82a2.83 2.83 0 0 1-.16.36"/><path d="M197.63 48.72l-8.85-4.82a3.25 3.25 0 0 0 .19-1.14 2.53 2.53 0 0 0-.87-2.19 1.22 1.22 0 0 0-.19-.12l8.85 4.82c.067.03.13.068.19.11a2.55 2.55 0 0 1 .88 2.2 3.25 3.25 0 0 1-.2 1.14"/></g><g fill="#ED1E79"><path d="M190.44 35.83l8.86 4.82a7.89 7.89 0 0 0-4.16-.75l-8.85-4.82a7.85 7.85 0 0 1 4.15.75z"/><path d="M195.14 39.9l-8.85-4.82a9.34 9.34 0 0 1 2.84.25l8.87 4.81a9.75 9.75 0 0 0-2.85-.24"/><path d="M198 40.14l-8.86-4.81a5.6 5.6 0 0 1 1.13.41l8.85 4.81a6.17 6.17 0 0 0-1.12-.41"/><path d="M199.11 40.55l-8.85-4.81.18.09 8.86 4.82-.19-.1"/></g><g fill="#ED1E79"><path d="M187.8 51.39l-8.86-4.82.15.07a8.23 8.23 0 0 0 4.12.13 10.57 10.57 0 0 0 4.36-1.38l8.85 4.82a10.53 10.53 0 0 1-4.36 1.37 8.16 8.16 0 0 1-4.12-.12l-.14-.07z"/><path d="M187.8 51.39l-8.86-4.82h.08l8.86 4.82h-.08"/><path d="M187.88 51.43L179 46.61h.07c.143.063.29.116.44.16l8.86 4.81a2.37 2.37 0 0 1-.45-.15h-.06"/><path d="M188.39 51.61l-8.86-4.81a10.21 10.21 0 0 0 3.68 0 13 13 0 0 0 3.62-1l8.85 4.81a12.6 12.6 0 0 1-3.62 1 10.16 10.16 0 0 1-3.67 0"/><path d="M195.68 50.62l-8.85-4.81a5.74 5.74 0 0 0 .74-.42l8.85 4.82a4.32 4.32 0 0 1-.74.41"/></g><path fill="#ED1E79" d="M190.47 40.11l-8.85-4.82 4.67-.21 8.85 4.82z"/><g fill="#ED1E79"><path d="M188.49 39.85L179.64 35h.09a4.24 4.24 0 0 0 1.89.21l8.85 4.82a4.15 4.15 0 0 1-1.88-.22l-.1.04z"/><path d="M188.49 39.85L179.64 35h.06l8.85 4.82h-.06"/><path d="M188.55 39.88l-8.85-4.82c.107.046.217.082.33.11l8.88 4.83a1.33 1.33 0 0 1-.32-.12"/><path d="M188.91 40l-8.85-4.82a5.45 5.45 0 0 0 1.56.1l8.85 4.82a5.51 5.51 0 0 1-1.56-.1"/></g><g fill="#ED1E79"><path d="M184.28 55.63l-8.86-4.81a4.23 4.23 0 0 1-2.17-4 6.62 6.62 0 0 1 1.23-3.87 10.89 10.89 0 0 1 3.09-2.95l8.85 4.81a11 11 0 0 0-3.08 3 6.5 6.5 0 0 0-1.23 3.86 4.19 4.19 0 0 0 2.17 3.96z"/><path d="M184.28 55.63l-8.86-4.81a4.23 4.23 0 0 1-2.17-4 6.8 6.8 0 0 1 .41-2.31l8.85 4.82a6.51 6.51 0 0 0-.4 2.3 4.19 4.19 0 0 0 2.17 4.05M182.51 49.28l-8.85-4.82a6.3 6.3 0 0 1 .37-.84l8.86 4.82a6.35 6.35 0 0 0-.38.84"/><path d="M182.89 48.44L174 43.62c.128-.24.272-.47.43-.69l8.86 4.81a7.31 7.31 0 0 0-.43.7M183.32 47.74l-8.86-4.81c.233-.348.487-.682.76-1l8.85 4.82a8.82 8.82 0 0 0-.75 1M184.09 46.76l-8.85-4.82c.272-.31.563-.604.87-.88l8.89 4.82c-.307.276-.598.57-.87.88"/><path d="M185 45.88l-8.85-4.82c.358-.327.74-.627 1.14-.9L186.1 45a12.53 12.53 0 0 0-1.14.9"/><path d="M186.1 45l-8.85-4.82.32-.21 8.85 4.81-.32.22"/></g><path fill="#ED1E79" d="M202.09 12.28l-8.85-4.81.83-.51 8.85 4.82z"/><g fill="#ED1E79"><path d="M198 16.21l-8.85-4.82a9.92 9.92 0 0 1 1.53-1.86 13.61 13.61 0 0 1 2.52-2.06l8.85 4.81a13.61 13.61 0 0 0-2.51 2.07 10.08 10.08 0 0 0-1.54 1.86z"/><path d="M198 16.21l-8.85-4.82a2.9 2.9 0 0 1 .21-.34l8.86 4.82a3.81 3.81 0 0 0-.22.34M198.26 15.87l-8.86-4.82c.16-.22.36-.47.61-.76l8.85 4.82a7.52 7.52 0 0 0-.6.76"/><path d="M198.86 15.11L190 10.29l.71-.76c.24-.25.49-.49.74-.71l8.86 4.81c-.26.23-.5.47-.74.72s-.51.53-.72.76M200.32 13.63l-8.86-4.81a15 15 0 0 1 1.34-1.07l8.86 4.82a13.55 13.55 0 0 0-1.34 1.06M201.66 12.57l-8.86-4.82.44-.28 8.85 4.81-.43.29"/></g><g fill="#ED1E79"><path d="M185.11 44.32l-8.86-4.82a3 3 0 0 1-.83-.65 2.87 2.87 0 0 1-.75-2 5.82 5.82 0 0 1 .79-3 22.5 22.5 0 0 1 2.54-3.32l8.85 4.82a22.5 22.5 0 0 0-2.55 3.33 5.91 5.91 0 0 0-.78 3 2.82 2.82 0 0 0 .75 2c.235.267.52.484.84.64z"/><path d="M185.11 44.32l-8.86-4.82a3 3 0 0 1-.83-.65 2.87 2.87 0 0 1-.75-2 6.09 6.09 0 0 1 .36-2.12l8.86 4.81a6.19 6.19 0 0 0-.36 2.13 2.82 2.82 0 0 0 .75 2c.23.273.512.497.83.66"/><path d="M183.89 39.57L175 34.76a5.88 5.88 0 0 1 .33-.72l8.85 4.81a7.55 7.55 0 0 0-.32.72M184.21 38.85L175.36 34a1.62 1.62 0 0 1 .1-.18c.15-.26.34-.55.55-.86l8.86 4.82c-.22.31-.4.59-.56.86l-.1.17"/><path d="M184.87 37.82L176 33a30.26 30.26 0 0 1 1.9-2.36l8.85 4.82a26.25 26.25 0 0 0-1.89 2.36M186.76 35.46l-8.85-4.82.1-.11 8.85 4.82-.1.11"/></g><g fill="#ED1E79"><path d="M190 32l-8.86-4.82a2.9 2.9 0 0 0 1.85.24 3.29 3.29 0 0 0 2.9-2.08 16.52 16.52 0 0 0 .69-5.58 16.12 16.12 0 0 0-.67-5.53 2.11 2.11 0 0 0-.95-1.13l8.85 4.82c.46.242.816.644 1 1.13a15.93 15.93 0 0 1 .66 5.53 16.81 16.81 0 0 1-.68 5.57 3.33 3.33 0 0 1-2.91 2.09A2.85 2.85 0 0 1 190 32z"/><path d="M190 32l-8.86-4.82h.08l8.85 4.82H190"/><path d="M190.07 32l-8.85-4.82a2 2 0 0 0 .43.16l8.85 4.82a2.23 2.23 0 0 1-.43-.16M190.5 32.15l-8.85-4.82a3.29 3.29 0 0 0 1.34 0 4.64 4.64 0 0 0 1.32-.37l8.85 4.82a4.55 4.55 0 0 1-1.32.37 3.48 3.48 0 0 1-1.34 0"/><path d="M193.16 31.82L184.31 27c.162-.08.319-.17.47-.27l8.85 4.82a3 3 0 0 1-.47.27"/><path d="M193.63 31.55l-8.85-4.82c.108-.069.21-.15.3-.24l8.86 4.82-.31.24"/><path d="M193.94 31.31l-8.86-4.82a2.72 2.72 0 0 0 .24-.24l8.85 4.82-.23.24"/><path d="M194.17 31.07l-8.85-4.82a2.43 2.43 0 0 0 .2-.25l8.85 4.81a2.56 2.56 0 0 1-.2.26M194.37 30.81L185.52 26c.07-.103.133-.21.19-.32l8.86 4.82a3.28 3.28 0 0 1-.2.31"/><path d="M194.57 30.5l-8.86-4.82a2.32 2.32 0 0 0 .18-.39v-.08l8.89 4.79v.07l-.18.4M194.78 30l-8.86-4.82a16.92 16.92 0 0 0 .66-5.5 16.12 16.12 0 0 0-.67-5.53 2.11 2.11 0 0 0-.95-1.13l8.85 4.82c.46.242.816.644 1 1.13a15.93 15.93 0 0 1 .66 5.53 17.3 17.3 0 0 1-.65 5.5"/></g><path d="M195.14 39.9c2.36-.11 4.1.41 5.24 1.56 1.14 1.15 1.71 2.93 1.7 5.35 0 5.37-3.49 8.56-10.44 9.53-2.32.46-4.72.287-6.95-.5a4.21 4.21 0 0 1-2.58-4.26 6.5 6.5 0 0 1 1.23-3.86 11 11 0 0 1 3.08-3 3.56 3.56 0 0 1-2.14-1.1 2.82 2.82 0 0 1-.75-2 5.91 5.91 0 0 1 .78-3 22.5 22.5 0 0 1 2.55-3.33 7.2 7.2 0 0 1-2.62-3.29 16.19 16.19 0 0 1-.84-5.84c0-3.77.73-6.74 2.17-8.89a8.62 8.62 0 0 1 6.31-3.83 7.16 7.16 0 0 1 3.89.34 4.62 4.62 0 0 1 2.23 2.43 10.08 10.08 0 0 1 1.54-1.86 13.61 13.61 0 0 1 2.51-2.07l.83-.5 1.4 3.67a20.67 20.67 0 0 0-2.88 1.35 9 9 0 0 0-2.21 1.43c.298.878.512 1.782.64 2.7a19.62 19.62 0 0 1 .28 3.1 16.56 16.56 0 0 1-1.93 8.52 8.29 8.29 0 0 1-6.39 3.84c-.946.13-1.904.13-2.85 0a6 6 0 0 0-1 2.6.92.92 0 0 0 .6.89 4.15 4.15 0 0 0 1.88.22l4.72-.2zM189 19.81a16.22 16.22 0 0 0-.77 5.73 13.62 13.62 0 0 0 .75 5.21 2.41 2.41 0 0 0 2.87 1.44 3.33 3.33 0 0 0 2.91-2.09 16.81 16.81 0 0 0 .68-5.57 15.93 15.93 0 0 0-.66-5.53c-.45-1.12-1.4-1.57-2.85-1.37a3.43 3.43 0 0 0-2.93 2.18zm7.43 30.4a3 3 0 0 0 1.41-2.63 2.55 2.55 0 0 0-.88-2.2 5.52 5.52 0 0 0-3.22-.53l-4.71.22a18.75 18.75 0 0 0-1.67 2.3 4 4 0 0 0-.57 2 2 2 0 0 0 1.16 2.05 8.16 8.16 0 0 0 4.12.12 10.53 10.53 0 0 0 4.36-1.37v.04z" fill="#FFF"/><g fill="#ED1E79"><path d="M187.19 9.17l8.86 4.83-.28-.14a7.16 7.16 0 0 0-3.89-.34 8.62 8.62 0 0 0-6.31 3.83c-1.44 2.15-2.16 5.12-2.17 8.89a16.19 16.19 0 0 0 .84 5.84 7.2 7.2 0 0 0 2.62 3.29L178 30.53a7.14 7.14 0 0 1-2.62-3.29 16 16 0 0 1-.84-5.84c0-3.767.723-6.73 2.17-8.89A8.58 8.58 0 0 1 183 8.68a7 7 0 0 1 3.89.35l.3.14z"/><path d="M186.86 35.35L178 30.53a7.14 7.14 0 0 1-2.62-3.29 16 16 0 0 1-.84-5.84 19.32 19.32 0 0 1 1-6.57l8.86 4.81a19.08 19.08 0 0 0-1 6.58 16.19 16.19 0 0 0 .84 5.84 7.2 7.2 0 0 0 2.62 3.29M184.41 19.64l-8.86-4.81a12 12 0 0 1 .67-1.49l8.85 4.81a11.8 11.8 0 0 0-.66 1.49M185.07 18.15l-8.85-4.81a7.61 7.61 0 0 1 .5-.83l.13-.2 8.85 4.82-.13.2c-.18.26-.34.54-.5.82M185.7 17.13l-8.85-4.82a8.08 8.08 0 0 1 .63-.79l8.85 4.81a10.09 10.09 0 0 0-.63.8M186.33 16.33l-8.85-4.81a7.17 7.17 0 0 1 .67-.68l8.85 4.81c-.23.22-.46.44-.67.68"/><path d="M187 15.65l-8.85-4.81a6.33 6.33 0 0 1 .81-.64l8.85 4.8a9.89 9.89 0 0 0-.81.64"/><path d="M187.81 15L179 10.2a7.24 7.24 0 0 1 1.18-.68l8.82 4.81a9.19 9.19 0 0 0-1.19.68"/><path d="M189 14.33l-8.86-4.81a10.05 10.05 0 0 1 2.86-.84 8.05 8.05 0 0 1 3.14.09l8.86 4.81a8.28 8.28 0 0 0-3.14-.08 10.18 10.18 0 0 0-2.88.83"/><path d="M195 13.58l-8.86-4.81c.26.058.51.145.75.26l.12.06 8.86 4.81-.12-.06a6 6 0 0 0-.75-.26"/><path d="M195.89 13.9L187 9.09a.8.8 0 0 1 .16.08l8.89 4.83-.16-.08"/></g><g><path fill="#FFF" d="M172.37 49.03l.06-32.35 5.54-.78-.06 32.35z"/><path fill="#ED1E79" d="M172.37 49.03l-8.86-4.82.06-32.35 8.86 4.82z"/><path fill="#ED1E79" d="M172.43 16.68l-8.86-4.82 5.55-.78 8.85 4.82z"/></g><g><g fill="#ED1E79"><path d="M158.08 46.51l-8.86-4.82a3.14 3.14 0 0 0 2 .29 3.3 3.3 0 0 0 2.25-1.24 4.11 4.11 0 0 0 .82-2.61 5 5 0 0 0-.57-2.44 6.69 6.69 0 0 0-1.87-2l8.86 4.82a6.66 6.66 0 0 1 1.86 2 5 5 0 0 1 .53 2.49 4.06 4.06 0 0 1-.81 2.6 3.3 3.3 0 0 1-2.29 1.19 3 3 0 0 1-1.92-.28z"/><path d="M158.08 46.51l-8.86-4.82.1.05 8.85 4.82-.09-.05"/><path d="M158.17 46.56l-8.85-4.82c.155.08.32.141.49.18l8.86 4.82a2.7 2.7 0 0 1-.5-.18"/><path d="M158.67 46.74l-8.86-4.82a3.43 3.43 0 0 0 1.37.06 4.14 4.14 0 0 0 1.1-.32l8.86 4.81a3.5 3.5 0 0 1-1.11.32 3.39 3.39 0 0 1-1.36 0"/><path d="M161.14 46.47l-8.86-4.81a3.42 3.42 0 0 0 .46-.26l8.85 4.81a2.51 2.51 0 0 1-.45.26"/><path d="M161.59 46.21l-8.85-4.81.31-.25L161.9 46a2.34 2.34 0 0 1-.31.24"/><path d="M161.9 46l-8.85-4.82a3.07 3.07 0 0 0 .25-.26l8.86 4.82a3.19 3.19 0 0 1-.26.26M162.16 45.71l-8.86-4.82.13-.15.11-.15 8.86 4.82a1.71 1.71 0 0 1-.11.14c0 .06-.09.11-.13.16"/><path d="M162.4 45.41l-8.86-4.82a3.48 3.48 0 0 0 .22-.36l8.86 4.82c-.07.12-.14.24-.22.36"/><path d="M162.62 45.05l-8.86-4.82a2.62 2.62 0 0 0 .22-.48l8.85 4.82a5 5 0 0 1-.21.48"/><path d="M162.83 44.57L154 39.75a4.59 4.59 0 0 0 .27-1.62 5 5 0 0 0-.57-2.44 6.69 6.69 0 0 0-1.87-2l8.86 4.82a6.66 6.66 0 0 1 1.86 2 5 5 0 0 1 .55 2.49 4.59 4.59 0 0 1-.27 1.62"/></g><g fill="#ED1E79"><path d="M155 50.61l-8.86-4.82a6 6 0 0 1-1.31-1 9.27 9.27 0 0 1-2.56-6.24l8.86 4.82a9.17 9.17 0 0 0 2.55 6.23 6.4 6.4 0 0 0 1.32 1.01z"/><path d="M155 50.61l-8.86-4.82a6 6 0 0 1-1.31-1 9.27 9.27 0 0 1-2.56-6.24l8.86 4.82a9.17 9.17 0 0 0 2.55 6.23 6.4 6.4 0 0 0 1.32 1"/></g><path fill="#ED1E79" d="M151.12 43.41l-8.86-4.82 4.62-2.17 8.86 4.82zM160.67 38.48l-8.86-4.82-5.12-4.04 8.85 4.82z"/><g fill="#ED1E79"><path d="M152.58 17.84l8.86 4.82c.36.198.66.488.87.84a10.35 10.35 0 0 1 1.18 4l-8.86-4.82a10.18 10.18 0 0 0-1.18-4 2.49 2.49 0 0 0-.87-.84z"/><path d="M163.49 27.51l-8.86-4.82a10.18 10.18 0 0 0-1.18-4 2.49 2.49 0 0 0-.87-.84l8.86 4.82c.36.198.66.488.87.84a10.35 10.35 0 0 1 1.18 4"/></g><g fill="#ED1E79"><path d="M154.79 13.79l8.85 4.81a6.33 6.33 0 0 0-4-.56l-8.86-4.82a6.43 6.43 0 0 1 4.01.57z"/><path d="M159.62 18l-8.86-4.82a7.44 7.44 0 0 1 2.85.1l8.85 4.82a7.19 7.19 0 0 0-2.84-.1"/><path d="M162.46 18.14l-8.85-4.82a5.7 5.7 0 0 1 1 .37l8.85 4.82a4.78 4.78 0 0 0-1-.37"/><path d="M163.46 18.51l-8.85-4.82.18.1 8.85 4.81-.18-.09"/></g><g fill="#ED1E79"><path d="M155.54 34.44l-8.85-4.82a10.52 10.52 0 0 1-2.69-3.06 8.73 8.73 0 0 1-.95-4.31 9 9 0 0 1 2.09-6.14 8.77 8.77 0 0 1 5.65-2.89l8.83 4.78a8.7 8.7 0 0 0-5.62 2.93 9 9 0 0 0-2.09 6.13 8.53 8.53 0 0 0 1 4.32 10.34 10.34 0 0 0 2.63 3.06z"/><path d="M155.54 34.44l-8.85-4.82a10.52 10.52 0 0 1-2.69-3.06 8.73 8.73 0 0 1-.95-4.31 10.51 10.51 0 0 1 .6-3.61l8.85 4.82a10.45 10.45 0 0 0-.59 3.6 8.53 8.53 0 0 0 1 4.32 10.34 10.34 0 0 0 2.71 3.06"/><path d="M152.47 23.46l-8.85-4.82a7.76 7.76 0 0 1 .47-1.06l8.91 4.81a9.41 9.41 0 0 0-.48 1.07"/><path d="M153 22.39l-8.86-4.81a8.24 8.24 0 0 1 .5-.8l8.85 4.82a8 8 0 0 0-.49.79"/><path d="M153.44 21.6l-8.85-4.82a8 8 0 0 1 .52-.67l8.89 4.78a6.78 6.78 0 0 0-.53.67"/><path d="M154 20.89l-8.85-4.82c.21-.24.44-.47.67-.69l8.86 4.82a6.34 6.34 0 0 0-.68.69"/><path d="M154.68 20.2l-8.86-4.82a8 8 0 0 1 .81-.63l8.85 4.82c-.282.19-.55.4-.8.63"/><path d="M155.48 19.57l-8.85-4.82a8 8 0 0 1 1.18-.68l8.85 4.82a7.24 7.24 0 0 0-1.18.68"/><path d="M156.66 18.89l-8.85-4.82a10.25 10.25 0 0 1 2.95-.85l8.86 4.78a10 10 0 0 0-3 .85"/></g><path d="M159.62 18a5.7 5.7 0 0 1 5.38 1.66 9.32 9.32 0 0 1 2.24 5.81l-3.73 2a10.35 10.35 0 0 0-1.18-4 2.35 2.35 0 0 0-2.49-1.08 3.21 3.21 0 0 0-2.16 1.25 4 4 0 0 0-.8 2.48 3.77 3.77 0 0 0 1.49 3l5.28 4.52a15.19 15.19 0 0 1 3.13 3.53 8.66 8.66 0 0 1 1.11 4.6 9.21 9.21 0 0 1-2.24 6.47 9.77 9.77 0 0 1-6.07 3 6.71 6.71 0 0 1-5.89-1.64 9.17 9.17 0 0 1-2.55-6.23l4.62-2.17a9.87 9.87 0 0 0 1.41 4.45 2.83 2.83 0 0 0 2.88 1.1 3.3 3.3 0 0 0 2.26-1.24 4.06 4.06 0 0 0 .81-2.6 5 5 0 0 0-.57-2.44 6.66 6.66 0 0 0-1.86-2l-5.13-4a10.34 10.34 0 0 1-2.71-3.06 8.53 8.53 0 0 1-1-4.32 9 9 0 0 1 2.15-6.16 8.7 8.7 0 0 1 5.62-2.93z" fill="#FFF"/></g><g><path fill="#ED1E79" d="M142.15 42.03l-8.85-4.82 5.4-.76 8.85 4.82z"/><path fill="#ED1E79" d="M142.15 43.99l-8.86-4.81.01-1.97 8.85 4.82z"/><g fill="#ED1E79"><path d="M137.33 49.49l-8.85-4.81a2.82 2.82 0 0 0 1.8.23 2.79 2.79 0 0 0 2.38-1.65 10.29 10.29 0 0 0 .63-4.08l8.86 4.82a10.73 10.73 0 0 1-.63 4.09 2.81 2.81 0 0 1-2.39 1.65 2.89 2.89 0 0 1-1.8-.25z"/><path d="M137.33 49.49l-8.85-4.81h.07l8.86 4.81h-.08"/><path d="M137.41 49.53l-8.86-4.81c.14.06.283.11.43.15l8.85 4.82a1.92 1.92 0 0 1-.42-.16M137.83 49.69L129 44.87a3.27 3.27 0 0 0 1.3 0 3.49 3.49 0 0 0 1.08-.3l8.85 4.81a3.7 3.7 0 0 1-1.08.31 3.27 3.27 0 0 1-1.3 0"/><path d="M140.21 49.42l-8.85-4.81c.14-.07.27-.15.4-.23l8.85 4.82a2.56 2.56 0 0 1-.4.22"/><path d="M140.61 49.2l-8.85-4.82a2.43 2.43 0 0 0 .25-.2l8.86 4.82a2.65 2.65 0 0 1-.26.21"/><path d="M140.87 49L132 44.18a2 2 0 0 0 .2-.21l8.86 4.82-.2.2"/><path d="M141.07 48.79L132.21 44a1.24 1.24 0 0 0 .18-.22l8.86 4.81-.18.23M141.25 48.56l-8.86-4.81c.062-.09.12-.183.17-.28l8.86 4.82c-.06.09-.11.19-.17.27M141.42 48.29l-8.86-4.82a2 2 0 0 0 .1-.21l.12-.29 8.85 4.82a2.49 2.49 0 0 1-.11.29l-.1.21"/><path d="M141.63 47.79L132.78 43a11.23 11.23 0 0 0 .51-3.79l8.86 4.79a11.52 11.52 0 0 1-.52 3.8"/></g><path fill="#ED1E79" d="M142.17 33.97l-8.86-4.82.01-2.91 8.85 4.81z"/><path fill="#ED1E79" d="M135.79 34.87l-8.86-4.82 6.38-.9 8.86 4.82z"/><g fill="#ED1E79"><path d="M132 20.73l8.85 4.82c.349.191.623.494.78.86.48 1.497.676 3.07.58 4.64l-8.85-4.81a12.7 12.7 0 0 0-.59-4.65 1.76 1.76 0 0 0-.77-.86z"/><path d="M142.17 31.05l-8.85-4.81a12.7 12.7 0 0 0-.59-4.65 1.76 1.76 0 0 0-.77-.86l8.85 4.82c.349.191.623.494.78.86.48 1.497.676 3.07.58 4.64"/></g><g fill="#ED1E79"><path d="M133.84 53.59L125 48.77l-.17-.09a6.35 6.35 0 0 1-2.68-3.86 26.59 26.59 0 0 1-.77-7.16l8.86 4.82a26.24 26.24 0 0 0 .76 7.16 6.29 6.29 0 0 0 2.69 3.85l.15.1z"/><path d="M133.84 53.59L125 48.77l-.17-.09a6.35 6.35 0 0 1-2.68-3.86 26.59 26.59 0 0 1-.77-7.16l8.86 4.82a26.24 26.24 0 0 0 .76 7.16 6.29 6.29 0 0 0 2.69 3.85l.16.1"/></g><path fill="#ED1E79" d="M130.23 42.48l-8.86-4.82.02-7.39 8.85 4.82z"/><g fill="#ED1E79"><path d="M135.25 16.63l8.85 4.82a8.07 8.07 0 0 0-5-.54c-3.32.47-5.62 1.83-6.93 4.08-1.31 2.25-1.95 5.62-2 10.1l-8.85-4.82c0-4.48.667-7.843 2-10.09s3.643-3.607 6.93-4.08a8.09 8.09 0 0 1 5 .53z"/><path d="M130.24 35.09l-8.85-4.82a24.91 24.91 0 0 1 1.18-8.4l8.85 4.81a25.23 25.23 0 0 0-1.18 8.41"/><path d="M131.42 26.68l-8.85-4.81a10.6 10.6 0 0 1 .64-1.44l8.85 4.82c-.243.463-.457.94-.64 1.43M132.06 25.25l-8.85-4.82.14-.25a5.35 5.35 0 0 1 .36-.56l8.85 4.81c-.13.18-.24.37-.36.56-.12.19-.09.17-.14.26"/><path d="M132.56 24.43l-8.85-4.81c.15-.226.317-.44.5-.64l8.86 4.81c-.18.21-.35.42-.51.64"/><path d="M133.07 23.79L124.21 19a5.48 5.48 0 0 1 .59-.59l8.85 4.81a8 8 0 0 0-.58.59M133.65 23.2l-8.85-4.81c.24-.22.494-.423.76-.61l8.86 4.82a7.88 7.88 0 0 0-.77.6"/><path d="M134.42 22.6l-8.86-4.82a7.92 7.92 0 0 1 1.21-.69l8.86 4.82a7.47 7.47 0 0 0-1.21.69M135.63 21.91l-8.86-4.82a11.85 11.85 0 0 1 3.51-1 9.9 9.9 0 0 1 3.81.08L143 21a9.93 9.93 0 0 0-3.82-.09 12 12 0 0 0-3.5 1"/><path d="M143 21l-8.86-4.82a5.5 5.5 0 0 1 1 .37l8.85 4.81a5 5 0 0 0-1-.36"/><path d="M143.93 21.36l-8.85-4.81.17.08 8.85 4.82-.17-.09"/></g><path d="M147.61 36.45l-11.83 1.66v6.49a7.92 7.92 0 0 0 .79 4.17 2.4 2.4 0 0 0 2.57 1 2.81 2.81 0 0 0 2.39-1.65 10.73 10.73 0 0 0 .63-4.09V42l5.4-.76v1.26a14.15 14.15 0 0 1-2 8.06 8.8 8.8 0 0 1-6.44 3.59 8.18 8.18 0 0 1-5.39-.66 6.29 6.29 0 0 1-2.73-3.85 26.24 26.24 0 0 1-.76-7.16v-7.39c0-4.48.667-7.847 2-10.1 1.31-2.25 3.61-3.61 6.93-4.08 2.42-.34 4.243-.053 5.47.86A6.69 6.69 0 0 1 147 26a39.51 39.51 0 0 1 .58 7.84l.03 2.61zm-11.82-3.32v1.74l6.38-.9v-2.92a12.69 12.69 0 0 0-.58-4.64c-.4-.89-1.24-1.25-2.52-1.07a3.3 3.3 0 0 0-2 1 4.62 4.62 0 0 0-1 2.35 28.22 28.22 0 0 0-.27 4.48l-.01-.04z" fill="#FFF"/></g><g><path fill="#ED1E79" d="M119.63 56.44l-8.86-4.81.01-2.08 8.85 4.82z"/><g fill="#ED1E79"><path d="M114.6 52.45l-8.85-4.82a2.54 2.54 0 0 0 1.61.22 6.89 6.89 0 0 0 3.42-1.71l8.86 4.86a7 7 0 0 1-3.43 1.71 2.62 2.62 0 0 1-1.61-.26z"/><path d="M114.6 52.45l-8.85-4.82h.07l8.86 4.81h-.08"/><path d="M114.68 52.48l-8.86-4.81c.126.057.256.104.39.14l8.86 4.82a2.26 2.26 0 0 1-.39-.15"/><path d="M115.07 52.63l-8.86-4.82a2.9 2.9 0 0 0 1.15 0 5.37 5.37 0 0 0 1.56-.48l8.85 4.82a5.37 5.37 0 0 1-1.56.48 3 3 0 0 1-1.14 0"/><path d="M117.77 52.19l-8.85-4.82a7.43 7.43 0 0 0 1.1-.64l8.85 4.82a8.42 8.42 0 0 1-1.1.64"/><path d="M118.87 51.55L110 46.73c.25-.18.5-.37.76-.59l8.88 4.86c-.26.22-.52.41-.77.59"/></g><path fill="#ED1E79" d="M119.64 50.96l-8.86-4.82.04-21.21 8.85 4.81z"/><g fill="#ED1E79"><path d="M110.56 24.78l8.85 4.81.26.15-8.85-4.81z"/><path d="M119.67 29.74l-8.85-4.81-.26-.15 8.85 4.81.26.15"/></g><g fill="#ED1E79"><path d="M110.91 57l-8.86-4.81a5 5 0 0 1-1.8-1.72c-1.207-1.86-1.807-5.14-1.8-9.84l8.85 4.81c0 4.707.6 7.99 1.8 9.85a5 5 0 0 0 1.81 1.71z"/><path d="M110.91 57l-8.86-4.81a5 5 0 0 1-1.8-1.72c-1.207-1.86-1.807-5.14-1.8-9.84l8.85 4.81c0 4.707.6 7.99 1.8 9.85a5 5 0 0 0 1.81 1.71"/></g><path fill="#ED1E79" d="M107.3 45.47l-8.85-4.81.01-6.27 8.85 4.81zM119.71 11.1l-8.85-4.81 5.54-.78 8.86 4.81z"/><path fill="#ED1E79" d="M119.68 26.17l-8.85-4.82.03-15.06 8.85 4.81z"/><g fill="#ED1E79"><path d="M109.22 20.16l8.85 4.84a5.23 5.23 0 0 0-3.36-.63 6.87 6.87 0 0 0-5.79 4.5 28.15 28.15 0 0 0-1.61 10.35l-8.85-4.81A27.94 27.94 0 0 1 100.07 24a6.85 6.85 0 0 1 5.78-4.51 5.41 5.41 0 0 1 3.37.67z"/><path d="M107.31 39.2l-8.85-4.81a29.44 29.44 0 0 1 1.41-9.86l8.86 4.82a29.09 29.09 0 0 0-1.42 9.85"/><path d="M108.73 29.35l-8.86-4.82c.07-.17.13-.33.2-.49a8 8 0 0 1 .41-.89l8.85 4.85c-.15.28-.28.57-.41.88-.13.31-.13.33-.19.5"/><path d="M109.33 28l-8.85-4.82a8.3 8.3 0 0 1 .47-.77l8.86 4.82a8.36 8.36 0 0 0-.48.77M109.81 27.2L101 22.38a5.87 5.87 0 0 1 .48-.61l8.86 4.82a5.87 5.87 0 0 0-.48.61"/><path d="M110.29 26.59l-8.86-4.82a6.63 6.63 0 0 1 .53-.53l8.85 4.82a5.21 5.21 0 0 0-.52.53M110.81 26.06L102 21.24a6 6 0 0 1 .63-.5l8.86 4.82a5.23 5.23 0 0 0-.64.5"/><path d="M111.45 25.56l-8.86-4.82a7.9 7.9 0 0 1 .94-.54l8.86 4.8a5.11 5.11 0 0 0-.94.54M112.39 25l-8.86-4.82a7.94 7.94 0 0 1 2.32-.67 5.32 5.32 0 0 1 2.07.11l8.85 4.82a5.1 5.1 0 0 0-2.06-.11 7.85 7.85 0 0 0-2.32.67"/><path d="M116.77 24.46l-8.85-4.82c.37.087.732.208 1.08.36l8.85 4.82a5.32 5.32 0 0 0-1.07-.4"/><path d="M117.84 24.86L109 20l.23.12 8.84 4.88-.23-.12"/></g><path d="M119.71 11.1l5.55-.78-.09 45.34-5.55.78v-2.07a7.51 7.51 0 0 1-4.83 3.2c-2.593.36-4.493-.39-5.7-2.25-1.207-1.86-1.807-5.143-1.8-9.85V39.2a28.15 28.15 0 0 1 1.61-10.35 6.87 6.87 0 0 1 5.79-4.5 5.86 5.86 0 0 1 5 1.82l.02-15.07zm-.07 39.9V29.78a5.48 5.48 0 0 0-3.52-.9c-2.18.307-3.273 2.717-3.28 7.23v9.09a18.86 18.86 0 0 0 .65 5.83 2.25 2.25 0 0 0 2.7 1.64 7 7 0 0 0 3.45-1.67z" fill="#FFF"/></g><g><path fill="#FFF" d="M103.4 52.07l-.01 6.66-5.55.78.02-6.66z"/><path fill="#ED1E79" d="M97.84 59.51l-8.85-4.82.01-6.66 8.86 4.82z"/><path fill="#ED1E79" d="M97.86 52.85L89 48.03l5.55-.78 8.85 4.82z"/></g><g><path fill="#ED1E79" d="M87.65 49.69l-8.85-4.82 5.39-.76 8.85 4.82z"/><path fill="#ED1E79" d="M87.65 51.65l-8.86-4.81.01-1.97 8.85 4.82z"/><g fill="#ED1E79"><path d="M82.83 57.15L74 52.34a3.3 3.3 0 0 0 4.18-1.42 10.29 10.29 0 0 0 .63-4.08l8.86 4.81a10.73 10.73 0 0 1-.67 4.09 2.84 2.84 0 0 1-2.39 1.65 2.89 2.89 0 0 1-1.78-.24z"/><path d="M82.83 57.15L74 52.34h.07l8.86 4.81h-.08"/><path d="M82.91 57.19l-8.86-4.81c.14.06.283.11.43.15l8.85 4.82a1.92 1.92 0 0 1-.42-.16"/><path d="M83.33 57.35l-8.85-4.82a3.22 3.22 0 0 0 1.29 0 3.42 3.42 0 0 0 1.08-.3l8.85 4.81c-.34.156-.7.261-1.07.31a3.27 3.27 0 0 1-1.3 0"/><path d="M85.7 57.08l-8.85-4.81a3.81 3.81 0 0 0 .4-.23l8.85 4.81a1.74 1.74 0 0 1-.4.23"/><path d="M86.1 56.85L77.25 52l.26-.2 8.85 4.81-.26.2"/><path d="M86.36 56.65l-8.85-4.81.2-.21 8.86 4.82-.21.2"/><path d="M86.57 56.45l-8.86-4.82a1.3 1.3 0 0 0 .18-.23l8.86 4.82-.18.23M86.75 56.22l-8.86-4.82.18-.28 8.85 4.81c-.05.1-.107.197-.17.29"/><path d="M86.92 55.93l-8.85-4.81.09-.2.12-.29 8.85 4.82a2.49 2.49 0 0 1-.11.29c0 .07-.07.13-.1.19"/><path d="M87.13 55.45l-8.85-4.82a11.23 11.23 0 0 0 .51-3.79l8.86 4.81a11.56 11.56 0 0 1-.52 3.8"/></g><path fill="#ED1E79" d="M87.66 41.63l-8.85-4.82.01-2.91 8.85 4.82z"/><path fill="#ED1E79" d="M81.28 42.52l-8.85-4.81 6.38-.9 8.85 4.82z"/><g fill="#ED1E79"><path d="M77.45 28.39l8.86 4.82c.349.189.62.493.77.86.48 1.497.68 3.07.59 4.64l-8.85-4.81a12.83 12.83 0 0 0-.59-4.64 1.8 1.8 0 0 0-.78-.87z"/><path d="M87.67 38.71l-8.85-4.81a12.83 12.83 0 0 0-.59-4.64 1.8 1.8 0 0 0-.78-.87l8.86 4.82c.349.189.62.493.77.86.48 1.497.68 3.07.59 4.64"/></g><g fill="#ED1E79"><path d="M79.35 61.26l-8.85-4.82-.18-.1a6.36 6.36 0 0 1-2.69-3.85 27.13 27.13 0 0 1-.77-7.17l8.86 4.82a26.64 26.64 0 0 0 .76 7.16 6.33 6.33 0 0 0 2.69 3.85l.18.11z"/><path d="M79.35 61.26l-8.85-4.82-.18-.1a6.36 6.36 0 0 1-2.69-3.85 27.13 27.13 0 0 1-.77-7.17l8.86 4.82a26.64 26.64 0 0 0 .76 7.16 6.33 6.33 0 0 0 2.69 3.85l.18.11"/></g><path fill="#ED1E79" d="M75.72 50.14l-8.86-4.82.02-7.38 8.85 4.81z"/><g fill="#ED1E79"><path d="M80.75 24.29l8.85 4.82a8.1 8.1 0 0 0-5-.54c-3.333.467-5.64 1.827-6.92 4.08-1.28 2.253-1.947 5.62-2 10.1l-8.85-4.82c0-4.48.667-7.843 2-10.09 1.3-2.26 3.62-3.62 6.93-4.08a8.13 8.13 0 0 1 4.99.53z"/><path d="M75.73 42.75l-8.85-4.82a24.69 24.69 0 0 1 1.19-8.41l8.85 4.82a25.16 25.16 0 0 0-1.19 8.41"/><path d="M76.92 34.34l-8.85-4.82a10.6 10.6 0 0 1 .64-1.44l8.85 4.82a10.6 10.6 0 0 0-.64 1.44M77.56 32.9l-8.85-4.82c0-.08.08-.16.13-.24.11-.193.23-.38.36-.56l8.85 4.82a6.37 6.37 0 0 0-.35.55l-.14.25"/><path d="M78.05 32.1l-8.85-4.82a6.12 6.12 0 0 1 .5-.64l8.85 4.82a6.43 6.43 0 0 0-.5.64"/><path d="M78.55 31.46l-8.85-4.82a6.57 6.57 0 0 1 .59-.59l8.85 4.82a6.57 6.57 0 0 0-.59.59"/><path d="M79.14 30.87l-8.85-4.82c.237-.22.492-.42.76-.6l8.86 4.81a6.66 6.66 0 0 0-.77.61"/><path d="M79.91 30.26l-8.86-4.81a8.48 8.48 0 0 1 1.21-.7l8.86 4.82a7.47 7.47 0 0 0-1.21.69M81.12 29.57l-8.86-4.82a12.16 12.16 0 0 1 3.51-1 10 10 0 0 1 3.82.08l8.86 4.82a10 10 0 0 0-3.83-.09 12.09 12.09 0 0 0-3.5 1"/><path d="M88.45 28.66l-8.86-4.82a5.5 5.5 0 0 1 1 .37L89.44 29a5.29 5.29 0 0 0-1-.36"/><path d="M89.44 29l-8.86-4.81.17.08 8.85 4.82-.16-.09"/></g><path d="M93.1 44.11l-11.82 1.66v6.49a7.83 7.83 0 0 0 .79 4.17 2.4 2.4 0 0 0 2.57 1A2.84 2.84 0 0 0 87 55.74a10.73 10.73 0 0 0 .63-4.09v-2l5.37-.72v1.24a14.14 14.14 0 0 1-2 8 8.83 8.83 0 0 1-6.44 3.6 8.25 8.25 0 0 1-5.39-.67 6.33 6.33 0 0 1-2.69-3.85 26.64 26.64 0 0 1-.76-7.16v-7.34c0-4.48.667-7.847 2-10.1 1.333-2.253 3.64-3.613 6.92-4.08 2.42-.34 4.25-.06 5.48.86a6.68 6.68 0 0 1 2.42 4.21 39.38 39.38 0 0 1 .59 7.84l-.03 2.63zm-11.81-3.32v1.73l6.37-.89v-2.92a12.83 12.83 0 0 0-.59-4.64c-.4-.89-1.23-1.25-2.51-1.07a3.3 3.3 0 0 0-2.06 1 4.62 4.62 0 0 0-1 2.35 29.72 29.72 0 0 0-.26 4.48l.05-.04z" fill="#FFF"/></g><g><path fill="#ED1E79" d="M66.33 54.36l-8.85-4.81v-2.63l8.86 4.82z"/><path fill="#ED1E79" d="M66.34 51.74l-8.86-4.82 5.03-.71 8.85 4.82z"/><g fill="#ED1E79"><path d="M61.42 60.18l-8.86-4.82a3 3 0 0 0 1.84.22 2.83 2.83 0 0 0 2.49-1.73c.45-1.387.65-2.843.59-4.3l8.85 4.81a12.33 12.33 0 0 1-.58 4.31 2.85 2.85 0 0 1-2.49 1.72 2.93 2.93 0 0 1-1.84-.21z"/><path d="M61.42 60.18l-8.86-4.82h.07l8.85 4.82h-.06"/><path d="M61.48 60.22l-8.85-4.82c.125.059.256.105.39.14l8.85 4.82a3.54 3.54 0 0 1-.39-.14"/><path d="M61.87 60.36L53 55.54a3.65 3.65 0 0 0 1.38 0 4.14 4.14 0 0 0 1.17-.33l8.86 4.81a4 4 0 0 1-1.17.33 3.53 3.53 0 0 1-1.39 0"/><path d="M64.43 60.06l-8.86-4.81A2.33 2.33 0 0 0 56 55l8.86 4.82a3.3 3.3 0 0 1-.41.23"/><path d="M64.84 59.83L56 55l.26-.2 8.85 4.82a2.43 2.43 0 0 1-.25.2"/><path d="M65.09 59.63l-8.85-4.82.19-.2 8.86 4.82-.2.2M65.29 59.43l-8.86-4.82a1.2 1.2 0 0 0 .17-.21l8.85 4.82-.16.21"/><path d="M65.45 59.22L56.6 54.4c.06-.08.11-.17.16-.25L65.61 59c-.047.09-.1.177-.16.26"/><path d="M65.61 59l-8.85-4.81c.05-.1.09-.2.13-.3v-.12l8.85 4.82v.12c-.04.1-.087.196-.14.29M65.79 58.55l-8.85-4.82a13 13 0 0 0 .54-4.18l8.85 4.81a12.53 12.53 0 0 1-.54 4.19"/></g><path fill="#ED1E79" d="M66.35 43.23l-8.85-4.82v-1.96l8.86 4.82z"/><g fill="#ED1E79"><path d="M56.16 31.39L65 36.2c.294.165.533.412.69.71a10 10 0 0 1 .65 4.36l-8.84-4.82a9.9 9.9 0 0 0-.64-4.36 1.69 1.69 0 0 0-.7-.7z"/><path d="M66.36 41.27l-8.86-4.82a9.9 9.9 0 0 0-.64-4.36 1.69 1.69 0 0 0-.7-.7L65 36.2c.294.165.533.412.69.71a10 10 0 0 1 .65 4.36"/></g><g fill="#ED1E79"><path d="M58 64.26l-8.85-4.82a3.79 3.79 0 0 1-.34-.2 6.43 6.43 0 0 1-2.61-3.94 27.53 27.53 0 0 1-.69-6.93l8.85 4.82a28.61 28.61 0 0 0 .69 6.93 6.38 6.38 0 0 0 2.61 3.93c.109.077.222.147.34.21z"/><path d="M58 64.26l-8.85-4.82a3.79 3.79 0 0 1-.34-.2 6.43 6.43 0 0 1-2.61-3.94 27.53 27.53 0 0 1-.69-6.93l8.85 4.82a28.61 28.61 0 0 0 .69 6.93 6.38 6.38 0 0 0 2.61 3.93c.109.077.222.147.34.21"/></g><g fill="#ED1E79"><path d="M59.56 27.29l8.85 4.81-.2-.1a8.81 8.81 0 0 0-5-.42l-8.86-4.81a8.81 8.81 0 0 1 5 .41l.21.11z"/><path d="M63.21 31.58l-8.86-4.81a10.63 10.63 0 0 1 4.07.07l8.85 4.82a10.75 10.75 0 0 0-4.06-.08"/><path d="M67.27 31.66l-8.85-4.82c.32.081.632.195.93.34L68.24 32a5.21 5.21 0 0 0-.94-.34"/><path d="M68.24 32l-8.86-4.8.18.09 8.85 4.81-.17-.1"/></g><path fill="#ED1E79" d="M54.4 53.19l-8.85-4.82.01-7.44 8.86 4.82z"/><g fill="#ED1E79"><path d="M54.42 45.75l-8.86-4.82a31.91 31.91 0 0 1 .72-7.27A8.94 8.94 0 0 1 48.91 29a9.87 9.87 0 0 1 5.44-2.24l8.86 4.81a9.94 9.94 0 0 0-5.45 2.25 8.94 8.94 0 0 0-2.63 4.65 31.35 31.35 0 0 0-.71 7.28z"/><path d="M54.42 45.75l-8.86-4.82a31.91 31.91 0 0 1 .72-7.27c.096-.41.216-.814.36-1.21l8.86 4.81c-.147.4-.27.806-.37 1.22a31.35 31.35 0 0 0-.71 7.27"/><path d="M55.5 37.26l-8.86-4.81a9.34 9.34 0 0 1 .56-1.24L56.05 36a9.78 9.78 0 0 0-.55 1.23"/><path d="M56.05 36l-8.85-4.79a8.25 8.25 0 0 1 .53-.86l8.85 4.82a8.25 8.25 0 0 0-.53.86"/><path d="M56.58 35.17l-8.85-4.82c.172-.25.36-.491.56-.72l8.86 4.82c-.2.227-.39.467-.57.72"/><path d="M57.15 34.45l-8.86-4.82c.19-.21.4-.42.62-.62l8.85 4.82a6 6 0 0 0-.61.62M57.8 33.79L49 29c.22-.19.45-.38.69-.55l8.86 4.82a6.28 6.28 0 0 0-.7.55M58.5 33.24l-8.86-4.82a8.55 8.55 0 0 1 1.15-.65l8.86 4.81c-.4.19-.785.41-1.15.66M59.65 32.58l-8.86-4.81a12.23 12.23 0 0 1 3.56-1l8.86 4.81a12.69 12.69 0 0 0-3.56 1"/></g><path d="M63.21 31.58a8.81 8.81 0 0 1 5 .42 4.8 4.8 0 0 1 2.48 3 18.2 18.2 0 0 1 .69 5.65v1.9l-5 .71v-2a10 10 0 0 0-.65-4.36 2.17 2.17 0 0 0-2.48-.9 3.26 3.26 0 0 0-2.07 1 4.5 4.5 0 0 0-.94 2.31 30.33 30.33 0 0 0-.24 4.42v10.19a21.43 21.43 0 0 0 .31 4.24 3 3 0 0 0 1 1.93 2.72 2.72 0 0 0 2 .3 2.85 2.85 0 0 0 2.49-1.72 12.33 12.33 0 0 0 .58-4.31v-2.62l5-.71v2.23c0 3.51-.61 6.22-1.81 8.1-1.2 1.88-3.33 3-6.4 3.47-2.347.327-4.163.067-5.45-.78a6.38 6.38 0 0 1-2.61-3.93 28.61 28.61 0 0 1-.69-6.93v-7.44a31.35 31.35 0 0 1 .71-7.27 8.94 8.94 0 0 1 2.63-4.65 9.94 9.94 0 0 1 5.45-2.25z" fill="#FFF"/></g><g><path fill="#FFF" d="M43.44 67.15l.06-32.35 5.55-.78-.06 32.35z"/><path fill="#ED1E79" d="M43.44 67.15l-8.85-4.82.06-32.35 8.85 4.82zM43.5 34.8l-8.85-4.82 5.55-.78 8.85 4.82z"/></g><g><g fill="#ED1E79"><path d="M38.84 35.06L30 30.24a7 7 0 0 1 .88-.06L39.71 35a5.38 5.38 0 0 0-.87.06z"/><path d="M38.84 35.06L30 30.24a7 7 0 0 1 .88-.06L39.71 35a5.38 5.38 0 0 0-.87.06"/></g><g fill="#ED1E79"><path d="M32.18 41l-8.85-4.82a14.11 14.11 0 0 1 3.2-4.31A6.91 6.91 0 0 1 30 30.24l8.86 4.82a7 7 0 0 0-3.46 1.6A14.21 14.21 0 0 0 32.18 41z"/><path d="M32.18 41l-8.85-4.82.09-.17 8.85 4.82-.09.17M32.27 40.81L23.42 36c.385-.72.81-1.417 1.27-2.09l8.86 4.82a22.52 22.52 0 0 0-1.28 2.09M33.55 38.72l-8.86-4.82c.3-.41.59-.79.89-1.13l8.85 4.82a12 12 0 0 0-.88 1.13"/><path d="M34.43 37.59l-8.85-4.82a8.08 8.08 0 0 1 .71-.72l8.86 4.81a10 10 0 0 0-.72.73M35.15 36.86l-8.86-4.81.24-.2c.18-.16.38-.3.57-.44l8.9 4.82c-.19.13-.38.28-.57.43l-.23.2"/><path d="M36 36.23l-8.9-4.82a7.78 7.78 0 0 1 1.07-.62L37 35.61a7.33 7.33 0 0 0-1.08.62"/><path d="M37 35.61l-8.86-4.82a6.3 6.3 0 0 1 1.86-.55l8.86 4.82a6.2 6.2 0 0 0-1.81.55"/></g><path d="M38.84 35.06a5.38 5.38 0 0 1 .87-.06v6.6a7.77 7.77 0 0 0-3.05-.25 4.89 4.89 0 0 0-2.42 1 8.47 8.47 0 0 0-2 2.72v23.62l-5.55.78.06-32.35 5.55-.78V41a14.21 14.21 0 0 1 3.2-4.32 7 7 0 0 1 3.34-1.62z" fill="#FFF"/><path fill="#ED1E79" d="M26.59 69.52l-8.86-4.82.06-32.35 8.85 4.82z"/><path fill="#ED1E79" d="M26.64 37.17l-8.85-4.82 5.55-.78 8.85 4.82z"/></g><g><g fill="#ED1E79"><path d="M18.47 66.1l-8.85-4.82a2.9 2.9 0 0 0 1.79.17c.677-.1 1.346-.25 2-.45l8.85 4.82c-.655.2-1.323.35-2 .45a3 3 0 0 1-1.79-.17z"/><path d="M18.47 66.1l-8.85-4.82h.05l8.85 4.82h-.05"/><path d="M18.52 66.13l-8.85-4.82c.102.05.21.09.32.12l8.86 4.81a2.55 2.55 0 0 1-.33-.11"/><path d="M18.85 66.24L10 61.43c.47.087.95.087 1.42 0 .677-.1 1.346-.25 2-.45l8.85 4.82c-.655.2-1.323.35-2 .45a3.65 3.65 0 0 1-1.42 0"/></g><g fill="#ED1E79"><path d="M14.58 70.62l-8.86-4.81c-1.74-.953-2.607-3.06-2.6-6.32L12 64.3c0 3.27.83 5.38 2.58 6.32z"/><path d="M14.58 70.62l-8.86-4.81c-1.74-.953-2.607-3.06-2.6-6.32L12 64.3c0 3.27.86 5.38 2.61 6.32"/></g><path fill="#ED1E79" d="M17.57 38.44l-8.85-4.81 4.82-.68 8.86 4.82zM11.97 64.3l-8.85-4.81.04-21.11 8.85 4.82zM8.86 39.67L.01 34.85l3.16-.44 8.85 4.81z"/><path fill="#ED1E79" d="M8.85 43.64L0 38.82l.01-3.97 8.85 4.82zM12.04 29.76l-8.86-4.82 5.56-.78 8.85 4.82z"/><path fill="#ED1E79" d="M12.02 39.22l-8.85-4.81.01-9.47 8.86 4.82z"/><path d="M17.59 29v9.46l4.83-.68v4l-4.82.67v20.72a4.46 4.46 0 0 0 .56 2.66c.38.47 1.1.63 2.18.48.677-.1 1.345-.25 2-.45v4.42a27.39 27.39 0 0 1-3.83.87c-4.34.567-6.51-1.717-6.51-6.85V43.19l-3.16.45v-4l3.16-.42v-9.46l5.59-.76z" fill="#FFF"/></g><g><path fill="#FFF" d="M43.52 23.71l5.55-.77-.01 6.27-5.55.78z"/><path fill="#ED1E79" d="M43.52 23.71l-8.85-4.81 5.55-.78 8.85 4.82z"/><path fill="#ED1E79" d="M43.51 29.99l-8.85-4.82.01-6.27 8.85 4.81z"/></g><g><path fill="#FFF" d="M172.45 5.6l5.55-.78-.02 6.27-5.54.78z"/><path fill="#ED1E79" d="M172.45 5.6L163.59.78l5.55-.78L178 4.82zM172.44 11.87l-8.86-4.82.01-6.27 8.86 4.82z"/></g></g></svg>