<?xml version="1.0" encoding="UTF-8"?>
<svg width="224px" height="72px" viewBox="0 0 224 72" version="1.1" xmlns="http://www.w3.org/2000/svg" xmlns:xlink="http://www.w3.org/1999/xlink">
    <!-- Generator: Sketch 47.1 (45422) - http://www.bohemiancoding.com/sketch -->
    <title>logo-3d</title>
    <desc>Created with Sketch.</desc>
    <defs></defs>
    <g id="Page-1" stroke="none" stroke-width="1" fill="none" fill-rule="evenodd">
        <g id="logo-3d" fill-rule="nonzero">
            <g id="Group" transform="translate(197.000000, 4.000000)">
                <polygon id="Shape" fill="#D4145A" points="21.27 38.58 12.41 33.76 12.46 9.3 21.31 14.12"></polygon>
                <g id="Shape" transform="translate(11.000000, 6.000000)" fill="#D4145A">
                    <path d="M0.45,0.17 L9.31,5 C9.50992646,5.11341422 9.67835753,5.27497056 9.8,5.47 C10.2001095,6.30023726 10.3759364,7.22074272 10.31,8.14 L1.46,3.32 C1.5237738,2.39980098 1.34444383,1.47901057 0.94,0.65 C0.82378441,0.448085312 0.654267717,0.282028142 0.45,0.17 L0.45,0.17 Z"></path>
                    <path d="M10.31,8.12 L1.46,3.3 C1.5237738,2.37980098 1.34444383,1.45901057 0.94,0.63 C0.820938538,0.435446487 0.651678051,0.276548887 0.45,0.17 L9.31,5 C9.50992646,5.11341422 9.67835753,5.27497056 9.8,5.47 C10.2001095,6.30023726 10.3759364,7.22074272 10.31,8.14"></path>
                </g>
                <g id="Shape" transform="translate(13.000000, 0.000000)" fill="#ED1E79">
                    <path d="M2.88,1.14 L11.73,6 C10.9949603,5.64092681 10.1626658,5.53206128 9.36,5.69 L0.51,0.87 C1.30833023,0.699649411 2.14044358,0.794447135 2.88,1.14 L2.88,1.14 Z"></path>
                    <g id="Group">
                        <path d="M9.36,5.64 L0.51,0.82 C1.07836805,0.726859537 1.65955786,0.747252162 2.22,0.88 L11.08,5.7 C10.5161711,5.56723389 9.93170985,5.54684571 9.36,5.64" id="Shape"></path>
                        <path d="M11.08,5.7 L2.22,0.88 C2.41268035,0.928448976 2.60022083,0.995427718 2.78,1.08 L11.63,5.9 C11.4530128,5.81702869 11.2689425,5.75009402 11.08,5.7" id="Shape"></path>
                        <polyline id="Shape" points="11.63 5.9 2.78 1.08 2.88 1.14 11.73 6 11.63 6"></polyline>
                    </g>
                </g>
                <g id="Shape" transform="translate(6.000000, 0.000000)">
                    <path d="M9,10.3 L0.15,5.49 C2.54,2.72 4.98,1.17 7.47,0.82 L16.32,5.64 C13.87,6 11.44,7.54 9,10.3 Z" fill="#D4145A"></path>
                    <g id="Group">
                        <polyline id="Shape" fill="#D4145A" points="9 10.3 0.15 5.49 0.3 5.32 9.15 10.13 9 10.3"></polyline>
                        <path d="M9.19,10.13 L0.34,5.32 C0.83770447,4.74280493 1.37214899,4.19833957 1.94,3.69 L10.79,8.5 C10.2294986,9.01598151 9.69548161,9.56001128 9.19,10.13" id="Shape" fill="#D4145A"></path>
                        <path d="M10.79,8.5 L1.94,3.69 C2.40400479,3.2612263 2.89864893,2.86684786 3.42,2.51 L12.27,7.33 C11.7528081,7.68883262 11.2585141,8.07959209 10.79,8.5" id="Shape" fill="#ED1E79"></path>
                        <path d="M12.27,7.33 L3.42,2.51 C3.92494958,2.15355585 4.46035802,1.8423497 5.02,1.58 L13.87,6.4 C13.3114899,6.66450579 12.7762629,6.9756065 12.27,7.33" id="Shape" fill="#ED1E79"></path>
                        <path d="M13.87,6.4 L5,1.58 C5.78662408,1.20177733 6.62624223,0.945508334 7.49,0.82 L16.34,5.64 C15.4768773,5.76833387 14.6376751,6.02447592 13.85,6.4" id="Shape" fill="#ED1E79"></path>
                    </g>
                </g>
                <path d="M22.36,5.64 C23.7039738,5.29173685 25.1174841,5.86445224 25.84,7.05 C26.566889,8.45261553 26.9117765,10.0218536 26.84,11.6 L26.79,37.8 L21.25,38.58 L21.25,14.12 C21.3159364,13.2007427 21.1401095,12.2802373 20.74,11.45 C20.3075153,10.8726821 19.5636615,10.622079 18.87,10.82 C17.77,10.98 16.46,11.82 14.98,13.38 L14.98,39.46 L9.43,40.24 L9.49,7.89 L15.04,7.11 L15.04,10.3 C17.44,7.54 19.87,6 22.36,5.64 Z" id="Shape" fill="#FFFFFF"></path>
                <polygon id="Shape" fill="#D4145A" points="9.44 40.24 0.59 35.42 0.65 3.07 9.5 7.89"></polygon>
                <polygon id="Shape" fill="#ED1E79" points="9.5 7.89 0.65 3.07 6.19 2.29 15.05 7.11"></polygon>
            </g>
            <g id="Group" transform="translate(173.000000, 6.000000)">
                <g id="Shape" transform="translate(14.000000, 34.000000)" fill="#D4145A">
                    <path d="M0.91,0.45 L9.76,5.27 C9.82661414,5.30068245 9.89022271,5.33750846 9.95,5.38 C10.5869182,5.92425056 10.9158714,6.74663359 10.83,7.58 C10.8602711,8.64482588 10.3236034,9.64584448 9.42,10.21 L0.57,5.39 C1.46977722,4.82339078 2.00239818,3.82282426 1.97,2.76 C2.05842127,1.93126171 1.73301663,1.11213968 1.1,0.57 C1.04049336,0.524239813 0.976890272,0.484069444 0.91,0.45 L0.91,0.45 Z"></path>
                    <g id="Group">
                        <polyline id="Shape" points="9.42 10.21 0.57 5.39 0.57 5.39 9.43 10.21 9.43 10.21"></polyline>
                        <path d="M9.45,10.19 L0.59,5.37 C0.724379468,5.28388116 0.851471882,5.18688958 0.97,5.08 L9.83,9.89 C9.71026788,9.99848369 9.58330934,10.0987141 9.45,10.19" id="Shape"></path>
                        <path d="M9.83,9.89 L1,5.08 C1.09178882,4.99507689 1.17859983,4.90492699 1.26,4.81 L10.12,9.63 L9.86,9.89" id="Shape"></path>
                        <path d="M10.09,9.63 L1.23,4.81 C1.30832179,4.73039832 1.37865764,4.64331584 1.44,4.55 L10.29,9.37 C10.23,9.46 10.16,9.54 10.09,9.63" id="Shape"></path>
                        <path d="M10.29,9.37 L1.44,4.55 L1.62,4.27 L10.47,9.08 C10.4195928,9.18230093 10.3593061,9.27942946 10.29,9.37" id="Shape"></path>
                        <path d="M10.47,9.08 L1.62,4.27 C1.68,4.15 1.73,4.03 1.78,3.9 L10.63,8.72 C10.5850939,8.84357099 10.5316311,8.96386237 10.47,9.08" id="Shape"></path>
                        <path d="M10.63,8.72 L1.78,3.9 C1.91093278,3.53440313 1.97528337,3.14829956 1.97,2.76 C2.05842127,1.93126171 1.73301663,1.11213968 1.1,0.57 C1.04049336,0.524239813 0.976890272,0.484069444 0.91,0.45 L9.76,5.27 C9.82661414,5.30068245 9.89022271,5.33750846 9.95,5.38 C10.5869182,5.92425056 10.9158714,6.74663359 10.83,7.58 C10.8320794,7.96890566 10.7643387,8.35502734 10.63,8.72" id="Shape"></path>
                    </g>
                </g>
                <g id="Shape" transform="translate(13.000000, 29.000000)" fill="#D4145A">
                    <path d="M4.44,0.83 L13.3,5.65 C12.007359,5.02628602 10.5690715,4.76697937 9.14,4.9 L0.29,0.08 C1.71584783,-0.0532174966 3.15097296,0.206142468 4.44,0.83 L4.44,0.83 Z"></path>
                    <g id="Group">
                        <path d="M9.14,4.9 L0.29,0.08 C1.24388216,0.0175086671 2.20170475,0.101824035 3.13,0.33 L12,5.14 C11.0669624,4.9203398 10.1066326,4.83946993 9.15,4.9" id="Shape"></path>
                        <path d="M12,5.14 L3.14,0.33 C3.53028637,0.425726555 3.90913512,0.563184951 4.27,0.74 L13.12,5.55 C12.7607828,5.37748592 12.3856975,5.24017791 12,5.14" id="Shape"></path>
                        <polyline id="Shape" points="13.11 5.55 4.26 0.74 4.44 0.83 13.3 5.65 13.11 5.55"></polyline>
                    </g>
                </g>
                <g id="Shape" transform="translate(5.000000, 39.000000)" fill="#D4145A">
                    <path d="M9.8,6.39 L0.94,1.57 L1.09,1.64 C2.43007095,2.03212156 3.84787387,2.07685806 5.21,1.77 C6.74662354,1.63367576 8.23478319,1.16265275 9.57,0.39 L18.42,5.21 C17.084487,5.98034702 15.5961031,6.44802729 14.06,6.58 C12.6990252,6.89322013 11.2804373,6.85190203 9.94,6.46 L9.8,6.39 Z"></path>
                    <g id="Group">
                        <polyline id="Shape" points="9.8 6.39 0.94 1.57 1.02 1.57 9.88 6.39 9.8 6.39"></polyline>
                        <path d="M9.88,6.43 L1,1.61 L1.07,1.61 C1.21316166,1.6725191 1.36011931,1.72595824 1.51,1.77 L10.37,6.58 C10.2153612,6.54517439 10.0646064,6.49492277 9.92,6.43 L9.86,6.43" id="Shape"></path>
                        <path d="M10.39,6.61 L1.53,1.8 C2.74654177,2.02288898 3.99345823,2.02288898 5.21,1.8 C6.45870831,1.64364007 7.67809628,1.30679256 8.83,0.8 L17.68,5.61 C16.5300648,6.1223022 15.3098471,6.45937893 14.06,6.61 C12.8468091,6.83277835 11.6031909,6.83277835 10.39,6.61" id="Shape"></path>
                        <path d="M17.68,5.62 L8.83,0.81 C9.08671786,0.688500579 9.33406394,0.548114969 9.57,0.39 L18.42,5.21 C18.1873414,5.37054819 17.9394866,5.50787316 17.68,5.62" id="Shape"></path>
                    </g>
                </g>
                <polygon id="Shape" fill="#D4145A" points="17.47 34.11 8.62 29.29 13.29 29.08 22.14 33.9"></polygon>
                <g id="Shape" transform="translate(6.000000, 29.000000)" fill="#D4145A">
                    <path d="M9.49,4.85 L0.64,0 L0.73,0 C1.33597418,0.212196172 1.98222603,0.284001934 2.62,0.21 L11.47,5.03 C10.8347531,5.10246621 10.1913527,5.02717467 9.59,4.81 L9.49,4.85 Z"></path>
                    <g id="Group">
                        <polyline id="Shape" points="9.49 4.85 0.64 0 0.7 0 9.55 4.82 9.49 4.82"></polyline>
                        <path d="M9.55,4.88 L0.7,0.06 L0.7,0.06 C0.806801063,0.105644422 0.917172497,0.1424349 1.03,0.17 L9.91,5 C9.79861657,4.97392815 9.69106216,4.93359525 9.59,4.88 L9.59,4.88" id="Shape"></path>
                        <path d="M9.91,5 L1.06,0.18 C1.57249313,0.288122365 2.09789633,0.321802058 2.62,0.28 L11.47,5.1 C10.9478901,5.1409736 10.4226051,5.10730148 9.91,5" id="Shape"></path>
                    </g>
                </g>
                <g id="Shape" transform="translate(0.000000, 33.000000)" fill="#D4145A">
                    <path d="M11.28,16.63 L2.42,11.82 C0.979977293,11.0224783 0.133409407,9.46198446 0.25,7.82 C0.244458051,6.43299966 0.674705973,5.07929278 1.48,3.95 C2.30512861,2.7722987 3.35533302,1.76967636 4.57,1 L13.42,5.81 C12.2059903,6.59766386 11.1593333,7.61713504 10.34,8.81 C9.52926229,9.93277993 9.09832394,11.2851556 9.11,12.67 C8.99932997,14.3001976 9.84641193,15.8460246 11.28,16.63 L11.28,16.63 Z"></path>
                    <g id="Group">
                        <path d="M11.28,16.63 L2.42,11.82 C0.979977293,11.0224783 0.133409407,9.46198446 0.25,7.82 C0.251800442,7.03206134 0.390531463,6.25043047 0.66,5.51 L9.51,10.33 C9.23916737,11.0663012 9.10365557,11.8454941 9.11,12.63 C8.96265257,14.2915993 9.81496442,15.8823195 11.28,16.68" id="Shape"></path>
                        <path d="M9.51,10.28 L0.66,5.46 C0.762744851,5.17137599 0.886406306,4.89063107 1.03,4.62 L9.89,9.44 C9.74314725,9.71042263 9.61614594,9.99116238 9.51,10.28" id="Shape"></path>
                        <path d="M9.89,9.44 L1,4.62 C1.12788068,4.38072308 1.27153091,4.15021457 1.43,3.93 L10.29,8.74 C10.1336582,8.96508834 9.99009824,9.19879063 9.86,9.44" id="Shape"></path>
                        <path d="M10.32,8.74 L1.46,3.93 L1.46,3.93 C1.69283515,3.58157391 1.94663661,3.24762463 2.22,2.93 L11.07,7.75 C10.7966643,8.06517612 10.5460351,8.39934845 10.32,8.75 L10.32,8.75" id="Shape"></path>
                        <path d="M11.09,7.76 L2.24,2.94 C2.51211888,2.62951194 2.80264204,2.33564943 3.11,2.06 L12,6.88 C11.692642,7.15564943 11.4021189,7.44951194 11.13,7.76" id="Shape"></path>
                        <path d="M12,6.88 L3.15,2.06 C3.50828327,1.73347133 3.88923572,1.4327194 4.29,1.16 L13.1,6 C12.7029174,6.27770478 12.3222781,6.57820951 11.96,6.9" id="Shape"></path>
                        <polyline id="Shape" points="13.1 6 4.25 1.18 4.57 0.97 13.42 5.78 13.1 6"></polyline>
                    </g>
                </g>
                <polygon id="Shape" fill="#ED1E79" points="29.09 6.28 20.24 1.47 21.07 0.96 29.92 5.78"></polygon>
                <g id="Shape" transform="translate(16.000000, 1.000000)">
                    <path d="M9,9.21 L0.15,4.39 C0.582564634,3.71016125 1.09635028,3.08555909 1.68,2.53 C2.43457164,1.7450006 3.28062023,1.05338945 4.2,0.47 L13.05,5.28 C12.1335744,5.86715589 11.2908883,6.56212013 10.54,7.35 C9.95398865,7.90605024 9.43694613,8.53053017 9,9.21 Z" fill="#D4145A"></path>
                    <g id="Group">
                        <path d="M9,9.21 L0.15,4.39 C0.212098673,4.2719727 0.282265225,4.15836971 0.36,4.05 L9.22,8.87 C9.1406911,8.9793531 9.06725406,9.09284671 9,9.21" id="Shape" fill="#D4145A"></path>
                        <path d="M9.26,8.87 L0.4,4.05 C0.56,3.83 0.76,3.58 1.01,3.29 L9.86,8.11 C9.64388077,8.35018061 9.44346541,8.60404006 9.26,8.87" id="Shape" fill="#D4145A"></path>
                        <path d="M9.86,8.11 L1,3.29 L1.71,2.53 C1.95,2.28 2.2,2.04 2.45,1.82 L11.31,6.63 C11.05,6.86 10.81,7.1 10.57,7.35 C10.33,7.6 10.06,7.88 9.85,8.11" id="Shape" fill="#ED1E79"></path>
                        <path d="M11.32,6.63 L2.46,1.82 C2.88589762,1.43807295 3.33329516,1.08082268 3.8,0.75 L12.66,5.57 C12.1914794,5.8947926 11.7439232,6.24882956 11.32,6.63" id="Shape" fill="#ED1E79"></path>
                        <polyline id="Shape" fill="#ED1E79" points="12.66 5.57 3.8 0.75 4.24 0.47 13.09 5.28 12.66 5.57"></polyline>
                    </g>
                </g>
                <g id="Shape" transform="translate(1.000000, 24.000000)" fill="#D4145A">
                    <path d="M11.11,14.32 L2.25,9.5 C1.93713443,9.33402469 1.65612988,9.11396089 1.42,8.85 C0.921987641,8.30466066 0.653364503,7.58833229 0.67,6.85 C0.657056106,5.79694236 0.930089675,4.76010603 1.46,3.85 C2.20180776,2.66691115 3.05214328,1.55544898 4,0.53 L12.85,5.35 C11.8981712,6.37818202 11.0444631,7.49302442 10.3,8.68 C9.7777145,9.59279065 9.50845273,10.6284128 9.52,11.68 C9.49807862,12.4192198 9.76742159,13.1374677 10.27,13.68 C10.5049636,13.9467384 10.7904642,14.1642626 11.11,14.32 L11.11,14.32 Z"></path>
                    <g id="Group">
                        <path d="M11.11,14.32 L2.25,9.5 C1.93713443,9.33402469 1.65612988,9.11396089 1.42,8.85 C0.921987641,8.30466066 0.653364503,7.58833229 0.67,6.85 C0.663302202,6.12757398 0.785202069,5.4097192 1.03,4.73 L9.89,9.54 C9.64608077,10.2234108 9.52422557,10.9443874 9.53,11.67 C9.50807862,12.4092198 9.77742159,13.1274677 10.28,13.67 C10.5101334,13.9428932 10.7922813,14.1672519 11.11,14.33" id="Shape"></path>
                        <path d="M9.89,9.57 L1,4.76 C1.09369288,4.51285598 1.20394292,4.27231043 1.33,4.04 L10.18,8.85 C10.0608745,9.08426682 9.95406238,9.32459399 9.86,9.57" id="Shape"></path>
                        <path d="M10.21,8.85 L1.36,4 C1.38948255,3.93794012 1.42288334,3.87781871 1.46,3.82 C1.61,3.56 1.8,3.27 2.01,2.96 L10.87,7.78 C10.65,8.09 10.47,8.37 10.31,8.64 L10.21,8.81" id="Shape"></path>
                        <path d="M10.87,7.82 L2,3 C2.59352877,2.18210068 3.22765674,1.39444698 3.9,0.64 L12.75,5.46 C12.0751807,6.20970087 11.4441342,6.99767428 10.86,7.82" id="Shape"></path>
                        <polyline id="Shape" points="12.76 5.46 3.91 0.64 4.01 0.53 12.86 5.35 12.76 5.46"></polyline>
                    </g>
                </g>
                <g id="Shape" transform="translate(8.000000, 7.000000)" fill="#D4145A">
                    <path d="M9,19 L0.14,14.18 C0.713402075,14.4615737 1.36373118,14.5459407 1.99,14.42 C3.28140124,14.3567409 4.41602591,13.5429412 4.89,12.34 C5.43715647,10.5330916 5.67053583,8.64576285 5.58,6.76 C5.67926382,4.89175322 5.45254619,3.02048679 4.91,1.23 C4.73973206,0.751228391 4.40240356,0.349985022 3.96,0.1 L12.81,4.92 C13.2700551,5.16202088 13.625724,5.56392676 13.81,6.05 C14.3530145,7.84027746 14.5764281,9.71221222 14.47,11.58 C14.5570105,13.461652 14.3271419,15.3445462 13.79,17.15 C13.3093509,18.3535829 12.1740592,19.1689642 10.88,19.24 C10.2443042,19.3768113 9.58093786,19.2921263 9,19 L9,19 Z"></path>
                    <g id="Group">
                        <polyline id="Shape" points="9 19 0.14 14.18 0.22 14.18 9.07 19 9 19"></polyline>
                        <path d="M9.07,19 L0.22,14.18 C0.35672115,14.2496516 0.501003601,14.3033381 0.65,14.34 L9.5,19.16 C9.35154686,19.1215925 9.20745109,19.0679755 9.07,19" id="Shape"></path>
                        <path d="M9.5,19.15 L0.65,14.33 C1.091937,14.4219257 1.548063,14.4219257 1.99,14.33 C2.44589274,14.2727039 2.89074675,14.14801 3.31,13.96 L12.16,18.78 C11.7412113,18.96929 11.2961612,19.0940389 10.84,19.15 C10.3975511,19.2368082 9.94244894,19.2368082 9.5,19.15" id="Shape"></path>
                        <path d="M12.16,18.82 L3.31,14 C3.47207856,13.919767 3.62904434,13.8295951 3.78,13.73 L12.63,18.55 C12.4818014,18.6539977 12.3244929,18.7443665 12.16,18.82" id="Shape"></path>
                        <path d="M12.63,18.55 L3.78,13.73 C3.88845809,13.6611868 3.98905729,13.5807074 4.08,13.49 L12.94,18.31 L12.63,18.55" id="Shape"></path>
                        <path d="M12.94,18.31 L4.08,13.49 C4.1649182,13.4150742 4.24507422,13.3349182 4.32,13.25 L13.17,18.07 L12.94,18.31" id="Shape"></path>
                        <path d="M13.17,18.07 L4.32,13.25 C4.3920898,13.1711538 4.45890143,13.0876392 4.52,13 L13.37,17.81 C13.3089601,17.9008531 13.2421563,17.987698 13.17,18.07" id="Shape"></path>
                        <path d="M13.37,17.81 L4.52,13 C4.58917919,12.8969144 4.65260922,12.7900849 4.71,12.68 L13.57,17.5 C13.5092019,17.6070036 13.4424297,17.7105006 13.37,17.81" id="Shape"></path>
                        <path d="M13.57,17.5 L4.71,12.68 C4.78193117,12.555846 4.84218937,12.4252866 4.89,12.29 L4.89,12.21 L13.78,17 L13.78,17.07 L13.6,17.47" id="Shape"></path>
                        <path d="M13.78,17 L4.92,12.18 C5.44065253,10.3953732 5.66364028,8.53714193 5.58,6.68 C5.67926382,4.81175322 5.45254619,2.94048679 4.91,1.15 C4.73973206,0.671228391 4.40240356,0.269985022 3.96,0.02 L12.81,4.84 C13.2700551,5.08202088 13.625724,5.48392676 13.81,5.97 C14.3530145,7.76027746 14.5764281,9.63221222 14.47,11.5 C14.5500973,13.3563434 14.3306188,15.2134685 13.82,17" id="Shape"></path>
                    </g>
                </g>
                <path d="M22.14,33.9 C24.5,33.79 26.24,34.31 27.38,35.46 C28.52,36.61 29.09,38.39 29.08,40.81 C29.08,46.18 25.59,49.37 18.64,50.34 C16.3203965,50.799329 13.9199657,50.6266361 11.69,49.84 C9.99223489,49.1354939 8.94780091,47.4109633 9.11,45.58 C9.09832394,44.1951556 9.52926229,42.8427799 10.34,41.72 C11.1593333,40.527135 12.2059903,39.5076639 13.42,38.72 C12.6006184,38.6128192 11.8440451,38.2239264 11.28,37.62 C10.7774216,37.0774677 10.5080786,36.3592198 10.53,35.62 C10.5184527,34.5684128 10.7877145,33.5327906 11.31,32.62 C12.0544631,31.4330244 12.9081712,30.318182 13.86,29.29 C12.6786916,28.4785317 11.7664303,27.3329822 11.24,26 C10.6046587,24.1212163 10.3199316,22.1416851 10.4,20.16 C10.4,16.39 11.13,13.42 12.57,11.27 C13.9926802,9.11180513 16.3087986,7.70598366 18.88,7.44 C20.1831238,7.19073549 21.5298783,7.30844668 22.77,7.78 C23.7869872,8.28804835 24.5809544,9.15322337 25,10.21 C25.4369461,9.53053017 25.9539886,8.90605024 26.54,8.35 C27.2908883,7.56212013 28.1335744,6.86715589 29.05,6.28 L29.88,5.78 L31.28,9.45 C30.2867505,9.82535982 29.3239006,10.2766957 28.4,10.8 C27.5972307,11.1657791 26.8526015,11.6475979 26.19,12.23 C26.4875887,13.1079222 26.7018674,14.0119104 26.83,14.93 C27.0052821,15.9542876 27.09891,16.9908821 27.11,18.03 C27.2408555,20.9915543 26.5743293,23.9339394 25.18,26.55 C23.7781521,28.769557 21.4078576,30.1939593 18.79,30.39 C17.8444493,30.5200277 16.8855507,30.5200277 15.94,30.39 C15.4073088,31.1662136 15.0647435,32.0568834 14.94,32.99 C14.9282849,33.3846854 15.1697317,33.7428315 15.54,33.88 C16.1413527,34.0971747 16.7847531,34.1724662 17.42,34.1 L22.14,33.9 Z M16,13.81 C15.4022546,15.6584748 15.1414456,17.5992999 15.23,19.54 C15.1388453,21.3089133 15.393602,23.078623 15.98,24.75 C16.4310332,25.8902211 17.6663072,26.5100101 18.85,26.19 C20.1440592,26.1189642 21.2793509,25.3035829 21.76,24.1 C22.2971419,22.2945462 22.5270105,20.411652 22.44,18.53 C22.5464281,16.6622122 22.3230145,14.7902775 21.78,13 C21.33,11.88 20.38,11.43 18.93,11.63 C17.6155075,11.7331028 16.4764765,12.5805729 16,13.81 L16,13.81 Z M23.43,44.21 C24.3336034,43.6458445 24.8702711,42.6448259 24.84,41.58 C24.9258714,40.7466336 24.5969182,39.9242506 23.96,39.38 C22.9646105,38.8828523 21.8422186,38.6981108 20.74,38.85 L16.03,39.07 C15.4159414,39.7933086 14.8576711,40.5621839 14.36,41.37 C13.9969887,41.9747512 13.8003424,42.6647382 13.79,43.37 C13.6905989,44.2327048 14.1592783,45.0609744 14.95,45.42 C16.2904373,45.811902 17.7090252,45.8532201 19.07,45.54 C20.6061031,45.4080273 22.094487,44.940347 23.43,44.17 L23.43,44.21 Z" id="Shape" fill="#FFFFFF"></path>
                <g id="Shape" transform="translate(1.000000, 2.000000)">
                    <path d="M13.19,1.17 L22.05,6 L21.77,5.86 C20.5298783,5.38844668 19.1831238,5.27073549 17.88,5.52 C15.3087986,5.78598366 12.9926802,7.19180513 11.57,9.35 C10.13,11.5 9.41,14.47 9.4,18.24 C9.31993159,20.2216851 9.60465869,22.2012163 10.24,24.08 C10.7664303,25.4129822 11.6786916,26.5585317 12.86,27.37 L4,22.53 C2.81615661,21.7212558 1.90320782,20.574843 1.38,19.24 C0.740394746,17.3622373 0.455552744,15.3819072 0.54,13.4 C0.54,9.63333333 1.26333333,6.67 2.71,4.51 C4.12431657,2.35269953 6.43419226,0.946209243 9,0.68 C10.3036114,0.425233677 11.6528022,0.546626171 12.89,1.03 L13.19,1.17 Z" fill="#D4145A"></path>
                    <g id="Group">
                        <path d="M12.86,27.35 L4,22.53 C2.81615661,21.7212558 1.90320782,20.574843 1.38,19.24 C0.740394746,17.3622373 0.455552744,15.3819072 0.54,13.4 C0.491347143,11.1686792 0.829684824,8.94580059 1.54,6.83 L10.4,11.64 C9.68374343,13.7578084 9.34526157,15.9850191 9.4,18.22 C9.31993159,20.2016851 9.60465869,22.1812163 10.24,24.06 C10.7664303,25.3929822 11.6786916,26.5385317 12.86,27.35" id="Shape" fill="#D4145A"></path>
                        <path d="M10.41,11.64 L1.55,6.83 C1.73922609,6.31868981 1.96307806,5.82086977 2.22,5.34 L11.07,10.15 C10.815926,10.6308636 10.5954002,11.1287172 10.41,11.64" id="Shape" fill="#D4145A"></path>
                        <path d="M11.07,10.15 L2.22,5.34 C2.36886581,5.05299278 2.53587092,4.77576429 2.72,4.51 L2.85,4.31 L11.7,9.13 L11.57,9.33 C11.39,9.59 11.23,9.87 11.07,10.15" id="Shape" fill="#D4145A"></path>
                        <path d="M11.7,9.13 L2.85,4.31 C3.04331262,4.03378091 3.25372394,3.76993179 3.48,3.52 L12.33,8.33 C12.1066693,8.58589335 11.8964016,8.85289994 11.7,9.13" id="Shape" fill="#D4145A"></path>
                        <path d="M12.33,8.33 L3.48,3.52 C3.68797929,3.27870111 3.91180859,3.05153107 4.15,2.84 L13,7.65 C12.77,7.87 12.54,8.09 12.33,8.33" id="Shape" fill="#ED1E79"></path>
                        <path d="M13,7.65 L4.15,2.84 C4.40212495,2.60496929 4.67302558,2.39092434 4.96,2.2 L13.81,7 C13.5290426,7.19908683 13.2586743,7.4127111 13,7.64" id="Shape" fill="#ED1E79"></path>
                        <path d="M13.81,7 L5,2.2 C5.37109318,1.93675987 5.76617402,1.70908616 6.18,1.52 L15,6.33 C14.5869604,6.5267303 14.1891878,6.75402892 13.81,7.01" id="Shape" fill="#ED1E79"></path>
                        <path d="M15,6.33 L6.14,1.52 C7.04627884,1.0993925 8.01021216,0.816279216 9,0.68 C10.0424213,0.503511138 11.1093989,0.534093298 12.14,0.77 L21,5.58 C19.9680248,5.35323259 18.9021839,5.32607741 17.86,5.5 C16.8643067,5.63305469 15.8937904,5.91275212 14.98,6.33" id="Shape" fill="#ED1E79"></path>
                        <path d="M21,5.58 L12.14,0.77 C12.3990745,0.827861286 12.6507017,0.915092036 12.89,1.03 L13.01,1.09 L21.87,5.9 L21.75,5.84 C21.5060133,5.73687296 21.2554651,5.65001626 21,5.58" id="Shape" fill="#D4145A"></path>
                        <path d="M21.89,5.9 L13,1.09 C13.0561564,1.11060121 13.1098252,1.13743559 13.16,1.17 L22.05,6 L21.89,5.92" id="Shape" fill="#D4145A"></path>
                    </g>
                </g>
            </g>
            <g id="Group" transform="translate(163.000000, 11.000000)">
                <polygon id="Shape" fill="#FFFFFF" points="9.37 38.03 9.43 5.68 14.97 4.9 14.91 37.25"></polygon>
                <polygon id="Shape" fill="#D4145A" points="9.37 38.03 0.51 33.21 0.57 0.86 9.43 5.68"></polygon>
                <polygon id="Shape" fill="#ED1E79" points="9.43 5.68 0.57 0.86 6.12 0.08 14.97 4.9"></polygon>
            </g>
            <g id="Group" transform="translate(142.000000, 13.000000)">
                <g id="Shape" transform="translate(7.000000, 20.000000)" fill="#D4145A">
                    <path d="M9.08,13.51 L0.22,8.69 C0.836493744,9.00442176 1.53959132,9.10637091 2.22,8.98 C3.1067061,8.88755979 3.91828613,8.44028902 4.47,7.74 C5.03336276,6.98916687 5.32273595,6.06811318 5.29,5.13 C5.31017954,4.2814703 5.11402004,3.44176996 4.72,2.69 C4.24121654,1.90154145 3.60455108,1.22061583 2.85,0.69 L11.71,5.51 C12.4615083,6.04101369 13.0948235,6.72199772 13.57,7.51 C13.9585466,8.28036885 14.1411315,9.13817356 14.1,10 C14.1373787,10.9340733 13.8512751,11.8524303 13.29,12.6 C12.7198495,13.291075 11.8932213,13.7206328 11,13.79 C10.3466532,13.9119236 9.67131504,13.8134368 9.08,13.51 Z"></path>
                    <g id="Group">
                        <polyline id="Shape" points="9.08 13.51 0.22 8.69 0.32 8.74 9.17 13.56 9.08 13.51"></polyline>
                        <path d="M9.17,13.56 L0.32,8.74 C0.474995519,8.82063555 0.639663558,8.88112585 0.81,8.92 L9.67,13.74 C9.49781986,13.6965875 9.33034222,13.6362956 9.17,13.56" id="Shape"></path>
                        <path d="M9.67,13.74 L0.81,8.92 C1.25797232,9.03201437 1.72395017,9.05242216 2.18,8.98 C2.55972436,8.92482498 2.92993454,8.81712747 3.28,8.66 L12.14,13.47 C11.7902788,13.6374127 11.4151705,13.745552 11.03,13.79 C10.5813209,13.8818677 10.1186791,13.8818677 9.67,13.79" id="Shape"></path>
                        <path d="M12.14,13.47 L3.28,8.66 C3.43980895,8.58532583 3.59360118,8.49839979 3.74,8.4 L12.59,13.21 C12.4494007,13.3120043 12.2985925,13.3991379 12.14,13.47" id="Shape"></path>
                        <path d="M12.59,13.21 L3.74,8.4 L4.05,8.15 L12.9,13 C12.803562,13.0885307 12.6998648,13.1688124 12.59,13.24" id="Shape"></path>
                        <path d="M12.9,13 L4.05,8.18 C4.13835694,8.09830787 4.22183431,8.01149141 4.3,7.92 L13.16,12.74 C13.0784044,12.8315936 12.9915936,12.9184044 12.9,13" id="Shape"></path>
                        <path d="M13.16,12.71 L4.3,7.89 L4.43,7.74 L4.54,7.59 L13.4,12.41 C13.3657893,12.4585452 13.3290729,12.5052752 13.29,12.55 C13.29,12.61 13.2,12.66 13.16,12.71" id="Shape"></path>
                        <path d="M13.4,12.41 L4.54,7.59 C4.62054668,7.47455984 4.694015,7.35433896 4.76,7.23 L13.62,12.05 C13.55,12.17 13.48,12.29 13.4,12.41" id="Shape"></path>
                        <path d="M13.62,12.05 L4.76,7.23 C4.84930996,7.07781661 4.92301751,6.91700015 4.98,6.75 L13.83,11.57 C13.7684367,11.7335601 13.6983405,11.89378 13.62,12.05" id="Shape"></path>
                        <path d="M13.83,11.57 L5,6.75 C5.18666233,6.23062387 5.27812616,5.68184087 5.27,5.13 C5.29017954,4.2814703 5.09402004,3.44176996 4.7,2.69 C4.22121654,1.90154145 3.58455108,1.22061583 2.83,0.69 L11.69,5.51 C12.4415083,6.04101369 13.0748235,6.72199772 13.55,7.51 C13.9454609,8.27851361 14.134957,9.13641415 14.1,10 C14.1081262,10.5518409 14.0166623,11.1006239 13.83,11.62" id="Shape"></path>
                    </g>
                </g>
                <g id="Shape" transform="translate(0.000000, 25.000000)" fill="#D4145A">
                    <path d="M13,12.61 L4.14,7.79 C3.6594147,7.51851003 3.21859057,7.18200306 2.83,6.79 C1.22340638,5.10523816 0.309528332,2.87766042 0.27,0.55 L9.13,5.37 C9.1594621,7.69484536 10.070936,9.92170117 11.68,11.6 C12.0742276,11.9926122 12.5179686,12.3321413 13,12.61 L13,12.61 Z"></path>
                    <path d="M13,12.61 L4.14,7.79 C3.6594147,7.51851003 3.21859057,7.18200306 2.83,6.79 C1.22340638,5.10523816 0.309528332,2.87766042 0.27,0.55 L9.13,5.37 C9.1594621,7.69484536 10.070936,9.92170117 11.68,11.6 C12.0748357,11.9890926 12.5185493,12.3252392 13,12.6"></path>
                </g>
                <polygon id="Shape" fill="#D4145A" points="9.12 30.41 0.26 25.59 4.88 23.42 13.74 28.24"></polygon>
                <polygon id="Shape" fill="#D4145A" points="18.67 25.48 9.81 20.66 4.69 16.62 13.54 21.44"></polygon>
                <g id="Shape" transform="translate(10.000000, 4.000000)" fill="#D4145A">
                    <path d="M0.58,0.84 L9.44,5.66 C9.799161,5.85816341 10.0993603,6.14801099 10.31,6.5 C10.9706676,7.73945601 11.3721498,9.10041285 11.49,10.5 L2.63,5.68 C2.51691974,4.27952231 2.11515709,2.91761502 1.45,1.68 C1.23343436,1.332761 0.934621775,1.04425229 0.58,0.84 L0.58,0.84 Z"></path>
                    <path d="M11.49,10.51 L2.63,5.69 C2.51691974,4.28952231 2.11515709,2.92761502 1.45,1.69 C1.23343436,1.342761 0.934621775,1.05425229 0.58,0.85 L9.44,5.67 C9.799161,5.86816341 10.0993603,6.15801099 10.31,6.51 C10.9706676,7.74945601 11.3721498,9.11041285 11.49,10.51"></path>
                </g>
                <g id="Shape" transform="translate(8.000000, 0.000000)">
                    <path d="M4.79,0.79 L13.64,5.6 C12.4035913,4.98154579 10.9987115,4.78486262 9.64,5.04 L0.78,0.22 C2.14316878,-0.0269420349 3.54963877,0.172980133 4.79,0.79 L4.79,0.79 Z" fill="#D4145A"></path>
                    <g id="Group">
                        <path d="M9.62,5 L0.76,0.18 C1.7075608,0.0292506287 2.6753354,0.063207632 3.61,0.28 L12.46,5.1 C11.5294138,4.87805631 10.563892,4.84405906 9.62,5" id="Shape" fill="#ED1E79"></path>
                        <path d="M12.46,5.14 L3.61,0.32 C3.95416197,0.411816879 4.28895973,0.53569205 4.61,0.69 L13.46,5.51 C13.1415086,5.34975863 12.806089,5.22565338 12.46,5.14" id="Shape" fill="#D4145A"></path>
                        <polyline id="Shape" fill="#D4145A" points="13.46 5.51 4.61 0.69 4.79 0.79 13.64 5.6 13.46 5.51"></polyline>
                    </g>
                </g>
                <g id="Shape" transform="translate(1.000000, 0.000000)">
                    <path d="M12.54,21.44 L3.69,16.62 C2.60249633,15.7850388 1.68869525,14.7455476 1,13.56 C0.319412195,12.2284129 -0.00770795625,10.7443205 0.05,9.25 C-0.0406550911,7.01471015 0.70443706,4.82577915 2.14,3.11 C3.59652952,1.475134 5.61193237,0.444246523 7.79,0.22 L16.62,5 C14.4448991,5.23529451 12.4382933,6.2814431 11,7.93 C9.56679598,9.64319 8.82185522,11.828112 8.91,14.06 C8.85667597,15.5629759 9.20166622,17.0533338 9.91,18.38 C10.5772157,19.5628108 11.4708945,20.6026043 12.54,21.44 L12.54,21.44 Z" fill="#D4145A"></path>
                    <g id="Group">
                        <path d="M12.54,21.44 L3.69,16.62 C2.60249633,15.7850388 1.68869525,14.7455476 1,13.56 C0.319412195,12.2284129 -0.00770795625,10.7443205 0.05,9.25 C0.0373522329,8.02083838 0.240430037,6.79898693 0.65,5.64 L9.5,10.46 C9.09377832,11.616125 8.89406925,12.8346889 8.91,14.06 C8.85667597,15.5629759 9.20166622,17.0533338 9.91,18.38 C10.6007173,19.5701654 11.5220495,20.6104888 12.62,21.44" id="Shape" fill="#D4145A"></path>
                        <path d="M9.47,10.46 L0.62,5.64 C0.750012353,5.2754399 0.907117489,4.92111768 1.09,4.58 L10,9.39 C9.81790901,9.73633998 9.65759777,10.0937004 9.52,10.46" id="Shape" fill="#D4145A"></path>
                        <path d="M10,9.39 L1.14,4.58 C1.29125203,4.30400349 1.45819223,4.03689917 1.64,3.78 L10.49,8.6 C10.3114918,8.85361279 10.1478823,9.11739135 10,9.39" id="Shape" fill="#D4145A"></path>
                        <path d="M10.44,8.6 L1.59,3.78 C1.7513648,3.54762938 1.92494199,3.32398185 2.11,3.11 L2.11,3.11 L11,7.89 L11,7.89 C10.8094249,8.10197018 10.632407,8.3257476 10.47,8.56" id="Shape" fill="#ED1E79"></path>
                        <path d="M11,7.89 L2.15,3.07 C2.36,2.83 2.59,2.6 2.82,2.38 L11.68,7.2 C11.4360672,7.41232053 11.208737,7.64299376 11,7.89" id="Shape" fill="#ED1E79"></path>
                        <path d="M11.68,7.2 L2.82,2.38 C3.07623958,2.15288213 3.34679602,1.94244935 3.63,1.75 L12.48,6.57 C12.1982234,6.76006831 11.930833,6.97063825 11.68,7.2" id="Shape" fill="#ED1E79"></path>
                        <path d="M12.48,6.57 L3.63,1.75 C4.00328948,1.49020423 4.39805291,1.26271344 4.81,1.07 L13.66,5.89 C13.246174,6.07908616 12.8510932,6.30675987 12.48,6.57" id="Shape" fill="#ED1E79"></path>
                        <path d="M13.66,5.89 L4.81,1.07 C5.74508557,0.640177328 6.73957098,0.353630684 7.76,0.22 L16.62,5 C15.5817068,5.12472672 14.5694037,5.41154593 13.62,5.85" id="Shape" fill="#ED1E79"></path>
                    </g>
                </g>
                <path d="M17.62,5 C19.5805332,4.56720678 21.6241756,5.19777304 23,6.66 C24.3906783,8.28258608 25.1815077,10.3338 25.24,12.47 L21.51,14.47 C21.3921498,13.0704129 20.9906676,11.709456 20.33,10.47 C19.8127943,9.61863777 18.8150119,9.18586469 17.84,9.39 C16.9808729,9.49827282 16.2019297,9.94905011 15.68,10.64 C15.1439903,11.3541964 14.8623727,12.227211 14.88,13.12 C14.8807549,14.2978524 15.4319618,15.4076649 16.37,16.12 L21.65,20.64 C22.8708099,21.646474 23.9268778,22.8375026 24.78,24.17 C25.5698736,25.5705503 25.9542236,27.1633523 25.89,28.77 C26.002503,31.1343859 25.2003509,33.4513162 23.65,35.24 C22.0489399,36.9315588 19.8962431,37.9954947 17.58,38.24 C15.4672012,38.6715386 13.2757455,38.061354 11.69,36.6 C10.080936,34.9217012 9.1694621,32.6948454 9.14,30.37 L13.76,28.2 C13.8674198,29.7747377 14.3509421,31.3007476 15.17,32.65 C15.8285047,33.5532758 16.9570045,33.9843001 18.05,33.75 C18.9402935,33.6601674 19.7559397,33.2126447 20.31,32.51 C20.8712751,31.7624303 21.1573787,30.8440733 21.12,29.91 C21.1401795,29.0614703 20.94402,28.22177 20.55,27.47 C20.0748235,26.6819977 19.4415083,26.0010137 18.69,25.47 L13.56,21.47 C12.4620495,20.6404888 11.5407173,19.6001654 10.85,18.41 C10.1416662,17.0833338 9.79667597,15.5929759 9.85,14.09 C9.77097612,11.8400291 10.5380943,9.64214643 12,7.93 C13.4382933,6.2814431 15.4448991,5.23529451 17.62,5 Z" id="Shape" fill="#FFFFFF"></path>
            </g>
            <g id="Group" transform="translate(121.000000, 15.000000)">
                <polygon id="Shape" fill="#D4145A" points="21.15 27.03 12.3 22.21 17.7 21.45 26.55 26.27"></polygon>
                <polygon id="Shape" fill="#D4145A" points="21.15 28.99 12.29 24.18 12.3 22.21 21.15 27.03"></polygon>
                <g id="Shape" transform="translate(7.000000, 24.000000)" fill="#D4145A">
                    <path d="M9.33,10.49 L0.48,5.68 C1.03827159,5.95289159 1.67104691,6.03374621 2.28,5.91 C3.3190165,5.84704148 4.23658266,5.21091368 4.66,4.26 C5.14346133,2.95652275 5.35777379,1.56859443 5.29,0.18 L14.15,5 C14.2073781,6.39129703 13.9933993,7.78046087 13.52,9.09 C13.0913394,10.0409714 12.1711679,10.6762363 11.13,10.74 C10.5187271,10.8523872 9.8875083,10.7647179 9.33,10.49 L9.33,10.49 Z"></path>
                    <g id="Group">
                        <polyline id="Shape" points="9.33 10.49 0.48 5.68 0.55 5.68 9.41 10.49 9.33 10.49"></polyline>
                        <path d="M9.41,10.53 L0.55,5.72 C0.689487952,5.78040806 0.833204036,5.83054158 0.98,5.87 L9.83,10.69 C9.68421897,10.6532931 9.54325342,10.5995919 9.41,10.53" id="Shape"></path>
                        <path d="M9.83,10.69 L1,5.87 C1.42896613,5.95700469 1.87103387,5.95700469 2.3,5.87 C2.67381218,5.82884181 3.03851485,5.72753552 3.38,5.57 L12.23,10.38 C11.8878808,10.5377116 11.5236823,10.6422501 11.15,10.69 C10.7210339,10.7770047 10.2789661,10.7770047 9.85,10.69" id="Shape"></path>
                        <path d="M12.21,10.42 L3.36,5.61 C3.5,5.54 3.63,5.46 3.76,5.38 L12.61,10.2 C12.4834843,10.285099 12.3496189,10.358725 12.21,10.42" id="Shape"></path>
                        <path d="M12.61,10.2 L3.76,5.38 C3.84763922,5.31890143 3.93115376,5.2520898 4.01,5.18 L12.87,10 C12.7878382,10.0754009 12.7009989,10.1455403 12.61,10.21" id="Shape"></path>
                        <path d="M12.87,10 L4,5.18 C4.07166052,5.11493193 4.13850285,5.04474747 4.2,4.97 L13.06,9.79 L12.86,9.99" id="Shape"></path>
                        <path d="M13.07,9.79 L4.21,5 C4.27823477,4.93380895 4.3386315,4.85999072 4.39,4.78 L13.25,9.59 L13.07,9.82" id="Shape"></path>
                        <path d="M13.25,9.56 L4.39,4.75 C4.45247343,4.6603182 4.50925188,4.56680074 4.56,4.47 L13.42,9.29 C13.36,9.38 13.31,9.48 13.25,9.56" id="Shape"></path>
                        <path d="M13.42,9.29 L4.56,4.47 C4.59737895,4.4019992 4.63076873,4.33188065 4.66,4.26 L4.78,3.97 L13.63,8.79 C13.5993953,8.88885861 13.5626574,8.98571313 13.52,9.08 L13.42,9.29" id="Shape"></path>
                        <path d="M13.63,8.79 L4.78,4 C5.16543361,2.77511593 5.33793417,1.49320005 5.29,0.21 L14.15,5 C14.1902248,6.28682474 14.014456,7.57128947 13.63,8.8" id="Shape"></path>
                    </g>
                </g>
                <polygon id="Shape" fill="#D4145A" points="21.17 18.97 12.31 14.15 12.32 11.24 21.17 16.05"></polygon>
                <polygon id="Shape" fill="#D4145A" points="14.79 19.87 5.93 15.05 12.31 14.15 21.17 18.97"></polygon>
                <g id="Shape" transform="translate(10.000000, 5.000000)" fill="#D4145A">
                    <path d="M1,0.73 L9.85,5.55 C10.1988115,5.74143159 10.4734269,6.04421262 10.63,6.41 C11.1090883,7.90738532 11.30576,9.48075865 11.21,11.05 L2.36,6.24 C2.45354922,4.66681876 2.25347559,3.08996734 1.77,1.59 C1.61731405,1.22492102 1.34604996,0.921950736 1,0.73 L1,0.73 Z"></path>
                    <path d="M11.17,11.05 L2.32,6.24 C2.41354922,4.66681876 2.21347559,3.08996734 1.73,1.59 C1.57731405,1.22492102 1.30604996,0.921950736 0.96,0.73 L9.81,5.55 C10.1588115,5.74143159 10.4334269,6.04421262 10.59,6.41 C11.0690883,7.90738532 11.26576,9.48075865 11.17,11.05"></path>
                </g>
                <g id="Shape" transform="translate(0.000000, 22.000000)" fill="#D4145A">
                    <path d="M12.84,16.59 L4,11.77 L3.83,11.68 C2.47593647,10.7833777 1.51686796,9.40203272 1.15,7.82 C0.569838917,5.47929267 0.310797203,3.07054115 0.38,0.66 L9.24,5.48 C9.16312506,7.89025054 9.41886543,10.299594 10,12.64 C10.3659376,14.2225175 11.3298713,15.6021251 12.69,16.49 L12.84,16.59 Z"></path>
                    <path d="M12.84,16.59 L4,11.77 L3.83,11.68 C2.47593647,10.7833777 1.51686796,9.40203272 1.15,7.82 C0.569838917,5.47929267 0.310797203,3.07054115 0.38,0.66 L9.24,5.48 C9.16312506,7.89025054 9.41886543,10.299594 10,12.64 C10.3659376,14.2225175 11.3298713,15.6021251 12.69,16.49 L12.85,16.59"></path>
                </g>
                <polygon id="Shape" fill="#D4145A" points="9.23 27.48 0.37 22.66 0.39 15.27 9.24 20.09"></polygon>
                <g id="Shape">
                    <path d="M14.25,1.63 L23.1,6.45 C21.5333968,5.74202016 19.7816394,5.55283036 18.1,5.91 C14.78,6.38 12.48,7.74 11.17,9.99 C9.86,12.24 9.22,15.61 9.17,20.09 L0.32,15.27 C0.32,10.79 0.986666667,7.42666667 2.32,5.18 C3.65333333,2.93333333 5.96333333,1.57333333 9.25,1.1 C10.9306547,0.741111103 12.6819324,0.926746534 14.25,1.63 L14.25,1.63 Z" fill="#D4145A"></path>
                    <g id="Group">
                        <path d="M9.24,20.09 L0.39,15.27 C0.300199671,12.4231297 0.6993184,9.58194549 1.57,6.87 L10.42,11.68 C9.5543042,14.3965231 9.15532004,17.2401305 9.24,20.09" id="Shape" fill="#D4145A"></path>
                        <path d="M10.42,11.68 L1.57,6.87 C1.74730954,6.37478561 1.96123386,5.89345591 2.21,5.43 L11.06,10.25 C10.8171402,10.7128954 10.6033918,11.1904895 10.42,11.68" id="Shape" fill="#D4145A"></path>
                        <path d="M11.06,10.25 L2.21,5.43 L2.35,5.18 C2.45825835,4.98604093 2.57849107,4.79901227 2.71,4.62 L11.56,9.43 C11.43,9.61 11.32,9.8 11.2,9.99 C11.08,10.18 11.11,10.16 11.06,10.25" id="Shape" fill="#D4145A"></path>
                        <path d="M11.56,9.43 L2.71,4.62 C2.85982559,4.39402891 3.02699616,4.18005058 3.21,3.98 L12.07,8.79 C11.89,9 11.72,9.21 11.56,9.43" id="Shape" fill="#ED1E79"></path>
                        <path d="M12.07,8.79 L3.21,4 C3.39138687,3.78862511 3.58862511,3.59138687 3.8,3.41 L12.65,8.22 C12.4466198,8.40653125 12.2530277,8.60346119 12.07,8.81" id="Shape" fill="#ED1E79"></path>
                        <path d="M12.65,8.2 L3.8,3.39 C4.0398596,3.17042704 4.29372728,2.96666482 4.56,2.78 L13.42,7.6 C13.1511802,7.78389473 12.8940202,7.98427912 12.65,8.2" id="Shape" fill="#ED1E79"></path>
                        <path d="M13.42,7.6 L4.56,2.78 C4.94228599,2.5149099 5.34718482,2.28401717 5.77,2.09 L14.63,6.91 C14.2060565,7.10181168 13.8009625,7.33281569 13.42,7.6" id="Shape" fill="#ED1E79"></path>
                        <path d="M14.63,6.91 L5.77,2.09 C6.88134057,1.57741197 8.06538042,1.24007868 9.28,1.09 C10.5431966,0.869675795 11.8371652,0.89684574 13.09,1.17 L22,6 C20.7445003,5.72298362 19.4471525,5.69241783 18.18,5.91 C16.9692705,6.06341742 15.7890286,6.4006294 14.68,6.91" id="Shape" fill="#ED1E79"></path>
                        <path d="M22,6 L13.14,1.18 C13.4845298,1.27065524 13.8194366,1.39457072 14.14,1.55 L22.99,6.36 C22.6704035,6.20481264 22.3351768,6.08413103 21.99,6" id="Shape" fill="#D4145A"></path>
                        <polyline id="Shape" fill="#D4145A" points="22.93 6.36 14.08 1.55 14.25 1.63 23.1 6.45 22.93 6.36"></polyline>
                    </g>
                </g>
                <path d="M26.61,21.45 L14.78,23.11 L14.78,29.6 C14.6590567,31.035986 14.932198,32.4777571 15.57,33.77 C16.130538,34.6113602 17.1582184,35.0112358 18.14,34.77 C19.1811679,34.7062363 20.1013394,34.0709714 20.53,33.12 C21.0033993,31.8104609 21.2173781,30.421297 21.16,29.03 L21.16,27 L26.56,26.24 L26.56,27.5 C26.7144654,30.3262292 26.0177893,33.133834 24.56,35.56 C23.0422925,37.6416185 20.6886614,38.9536582 18.12,39.15 C16.3005954,39.5501708 14.3990979,39.3173344 12.73,38.49 C11.3547716,37.6096638 10.3757806,36.2290355 10,34.64 C9.41886543,32.299594 9.16312506,29.8902505 9.24,27.48 L9.24,20.09 C9.24,15.61 9.90666667,12.2433333 11.24,9.99 C12.55,7.74 14.85,6.38 18.17,5.91 C20.59,5.57 22.4133333,5.85666667 23.64,6.77 C24.9274163,7.83571613 25.7693151,9.34471269 26,11 C26.4534905,13.5875528 26.6477854,16.2138834 26.58,18.84 L26.61,21.45 Z M14.79,18.13 L14.79,19.87 L21.17,18.97 L21.17,16.05 C21.26576,14.4807587 21.0690883,12.9073853 20.59,11.41 C20.19,10.52 19.35,10.16 18.07,10.34 C17.3072737,10.4304282 16.5999784,10.7840759 16.07,11.34 C15.5224755,12.0138092 15.1758986,12.8282649 15.07,13.69 C14.861204,15.1737969 14.7709185,16.6718667 14.8,18.17 L14.79,18.13 Z" id="Shape" fill="#FFFFFF"></path>
            </g>
            <g id="Group" transform="translate(98.000000, 5.000000)">
                <polygon id="Shape" fill="#D4145A" points="21.63 51.44 12.77 46.63 12.78 44.55 21.63 49.37"></polygon>
                <g id="Shape" transform="translate(7.000000, 41.000000)" fill="#D4145A">
                    <path d="M9.6,6.45 L0.75,1.63 C1.24809777,1.87765211 1.81372162,1.95494232 2.36,1.85 C3.63849991,1.61407831 4.8241627,1.02124691 5.78,0.14 L14.64,5 C13.6780116,5.87799301 12.4901506,6.47019195 11.21,6.71 C10.6593394,6.79682194 10.0953398,6.70574126 9.6,6.45 L9.6,6.45 Z"></path>
                    <g id="Group">
                        <polyline id="Shape" points="9.6 6.45 0.75 1.63 0.82 1.63 9.68 6.44 9.6 6.44"></polyline>
                        <path d="M9.68,6.48 L0.82,1.67 C0.946036173,1.72704755 1.07645669,1.77386517 1.21,1.81 L10.07,6.63 C9.93564677,6.59215093 9.80508889,6.54193636 9.68,6.48" id="Shape"></path>
                        <path d="M10.07,6.63 L1.21,1.81 C1.58948988,1.88676781 1.98051012,1.88676781 2.36,1.81 C2.90141993,1.73042157 3.4274951,1.56855229 3.92,1.33 L12.77,6.15 C12.2774951,6.38855229 11.7514199,6.55042157 11.21,6.63 C10.8334928,6.70286364 10.4465072,6.70286364 10.07,6.63" id="Shape"></path>
                        <path d="M12.77,6.19 L3.92,1.37 C4.30429571,1.18851901 4.67231198,0.974400453 5.02,0.73 L13.87,5.55 C13.5200035,5.79077733 13.1522868,6.0047216 12.77,6.19" id="Shape"></path>
                        <path d="M13.87,5.55 L5,0.73 C5.25,0.55 5.5,0.36 5.76,0.14 L14.64,5 C14.38,5.22 14.12,5.41 13.87,5.59" id="Shape"></path>
                    </g>
                </g>
                <polygon id="Shape" fill="#D4145A" points="21.64 45.96 12.78 41.14 12.82 19.93 21.67 24.74"></polygon>
                <g id="Shape" transform="translate(12.000000, 19.000000)" fill="#D4145A">
                    <polygon points="0.56 0.78 9.41 5.59 9.67 5.74 0.82 0.93"></polygon>
                    <polyline points="9.67 5.74 0.82 0.93 0.56 0.78 9.41 5.59 9.67 5.74"></polyline>
                </g>
                <g id="Shape" transform="translate(0.000000, 35.000000)" fill="#D4145A">
                    <path d="M12.91,17 L4.05,12.19 C3.31457376,11.7776065 2.69537892,11.1859314 2.25,10.47 C1.04333333,8.61 0.443333333,5.33 0.45,0.63 L9.3,5.44 C9.3,10.1466667 9.9,13.43 11.1,15.29 C11.5494776,16.0035147 12.1721182,16.5917553 12.91,17 L12.91,17 Z"></path>
                    <path d="M12.91,17 L4.05,12.19 C3.31457376,11.7776065 2.69537892,11.1859314 2.25,10.47 C1.04333333,8.61 0.443333333,5.33 0.45,0.63 L9.3,5.44 C9.3,10.1466667 9.9,13.43 11.1,15.29 C11.5494776,16.0035147 12.1721182,16.5917553 12.91,17"></path>
                </g>
                <polygon id="Shape" fill="#D4145A" points="9.3 40.47 0.45 35.66 0.46 29.39 9.31 34.2"></polygon>
                <polygon id="Shape" fill="#ED1E79" points="21.71 6.1 12.86 1.29 18.4 0.51 27.26 5.32"></polygon>
                <polygon id="Shape" fill="#D4145A" points="21.68 21.17 12.83 16.35 12.86 1.29 21.71 6.1"></polygon>
                <g id="Shape" transform="translate(0.000000, 14.000000)">
                    <path d="M11.22,1.16 L20.07,6 C19.0521901,5.41955464 17.8689502,5.19769715 16.71,5.37 C14.0738851,5.62839966 11.8211264,7.37924843 10.92,9.87 C9.74054307,13.1888928 9.19442409,16.6996577 9.31,20.22 L0.46,15.41 C0.331776943,11.8693062 0.878152068,8.33653292 2.07,5 C2.96236173,2.50538533 5.21327742,0.749047993 7.85,0.49 C9.01629387,0.34120119 10.1993163,0.576401491 11.22,1.16 Z" fill="#D4145A"></path>
                    <g id="Group">
                        <path d="M9.31,20.2 L0.46,15.39 C0.366571409,12.0471052 0.843394156,8.71272765 1.87,5.53 L10.73,10.35 C9.69438917,13.5273929 9.21402803,16.8594754 9.31,20.2" id="Shape" fill="#D4145A"></path>
                        <path d="M10.73,10.35 L1.87,5.53 C1.94,5.36 2,5.2 2.07,5.04 C2.18835226,4.73523421 2.32527572,4.43801014 2.48,4.15 L11.33,9 C11.18,9.28 11.05,9.57 10.92,9.88 C10.79,10.19 10.79,10.21 10.73,10.38" id="Shape" fill="#D4145A"></path>
                        <path d="M11.33,9 L2.48,4.18 C2.62259225,3.91500294 2.77949059,3.65795671 2.95,3.41 L11.81,8.23 C11.636179,8.47778816 11.475943,8.73483332 11.33,9" id="Shape" fill="#D4145A"></path>
                        <path d="M11.81,8.2 L3,3.38 C3.14636633,3.16629913 3.30671681,2.96252039 3.48,2.77 L12.34,7.59 C12.1667168,7.78252039 12.0063663,7.98629913 11.86,8.2" id="Shape" fill="#ED1E79"></path>
                        <path d="M12.29,7.59 L3.43,2.77 C3.59653109,2.58348045 3.77348045,2.40653109 3.96,2.24 L12.81,7.06 C12.6242825,7.22407494 12.450508,7.40119127 12.29,7.59" id="Shape" fill="#ED1E79"></path>
                        <path d="M12.81,7.06 L4,2.24 C4.1985802,2.05942983 4.40905296,1.89238795 4.63,1.74 L13.49,6.56 C13.2640289,6.70982559 13.0500506,6.87699616 12.85,7.06" id="Shape" fill="#ED1E79"></path>
                        <path d="M13.45,6.56 L4.59,1.74 C4.89059901,1.53868862 5.2046716,1.35826393 5.53,1.2 L14.39,6 C14.0584059,6.14616058 13.7432998,6.32717895 13.45,6.54" id="Shape" fill="#ED1E79"></path>
                        <path d="M14.39,6 L5.53,1.18 C6.26465018,0.839687371 7.04702972,0.613741555 7.85,0.51 C8.54053791,0.410583455 9.24388735,0.447959512 9.92,0.62 L18.77,5.44 C18.0979959,5.26338887 17.3969905,5.22595654 16.71,5.33 C15.906739,5.43233869 15.1241483,5.65834548 14.39,6" id="Shape" fill="#ED1E79"></path>
                        <path d="M18.77,5.46 L9.92,0.64 C10.2901117,0.727213807 10.6515824,0.847704048 11,1 L19.85,5.82 C19.5087234,5.64865 19.1499892,5.51454378 18.78,5.42" id="Shape" fill="#D4145A"></path>
                        <polyline id="Shape" fill="#D4145A" points="19.84 5.86 11 1 11.23 1.12 20.07 6 19.84 5.88"></polyline>
                    </g>
                </g>
                <path d="M21.71,6.1 L27.26,5.32 L27.17,50.66 L21.62,51.44 L21.62,49.37 C20.502833,51.0397754 18.7632129,52.1923188 16.79,52.57 C14.1966667,52.93 12.2966667,52.18 11.09,50.32 C9.88333333,48.46 9.28333333,45.1766667 9.29,40.47 L9.29,34.2 C9.17442409,30.6796577 9.72054307,27.1688928 10.9,23.85 C11.8011264,21.3592484 14.0538851,19.6083997 16.69,19.35 C18.5519028,19.1214058 20.4107094,19.7980114 21.69,21.17 L21.71,6.1 Z M21.64,46 L21.64,24.78 C20.603148,24.0884522 19.3615387,23.7709953 18.12,23.88 C15.94,24.1866667 14.8466667,26.5966667 14.84,31.11 L14.84,40.2 C14.7512682,42.1653405 14.9705872,44.1324629 15.49,46.03 C15.7904185,47.2227903 16.9930185,47.9532585 18.19,47.67 C19.4729756,47.4451553 20.6677706,46.8668053 21.64,46 L21.64,46 Z" id="Shape" fill="#FFFFFF"></path>
            </g>
            <g id="Group" transform="translate(88.000000, 47.000000)">
                <polygon id="Shape" fill="#FFFFFF" points="15.4 5.07 15.39 11.73 9.84 12.51 9.86 5.85"></polygon>
                <polygon id="Shape" fill="#D4145A" points="9.84 12.51 0.99 7.69 1 1.03 9.86 5.85"></polygon>
                <polygon id="Shape" fill="#ED1E79" points="9.86 5.85 1 1.03 6.55 0.25 15.4 5.07"></polygon>
            </g>
            <g id="Group" transform="translate(66.000000, 23.000000)">
                <polygon id="Shape" fill="#D4145A" points="21.65 26.69 12.8 21.87 18.19 21.11 27.04 25.93"></polygon>
                <polygon id="Shape" fill="#D4145A" points="21.65 28.65 12.79 23.84 12.8 21.87 21.65 26.69"></polygon>
                <g id="Shape" transform="translate(8.000000, 23.000000)" fill="#D4145A">
                    <path d="M8.83,11.15 L0,6.34 C1.55143841,7.00550646 3.35497887,6.39282047 4.18,4.92 C4.66346133,3.61652275 4.87777379,2.22859443 4.81,0.84 L13.67,5.65 C13.714588,7.04391977 13.4870101,8.43316354 13,9.74 C12.566061,10.6865559 11.64891,11.3197354 10.61,11.39 C10.0062359,11.5010857 9.38278297,11.4170247 8.83,11.15 L8.83,11.15 Z"></path>
                    <g id="Group">
                        <polyline id="Shape" points="8.83 11.15 0 6.34 0.07 6.34 8.93 11.15 8.85 11.15"></polyline>
                        <path d="M8.91,11.19 L0.05,6.38 C0.189487952,6.44040806 0.333204036,6.49054158 0.48,6.53 L9.33,11.35 C9.18421897,11.3132931 9.04325342,11.2595919 8.91,11.19" id="Shape"></path>
                        <path d="M9.33,11.35 L0.48,6.53 C0.905597867,6.61701533 1.34440213,6.61701533 1.77,6.53 C2.14404893,6.49007634 2.50894874,6.38871529 2.85,6.23 L11.7,11.04 C11.3609151,11.1964545 11.0002048,11.3009594 10.63,11.35 C10.2010339,11.4370047 9.75896613,11.4370047 9.33,11.35" id="Shape"></path>
                        <path d="M11.7,11.08 L2.85,6.27 C2.98785752,6.20148483 3.12143574,6.12467736 3.25,6.04 L12.1,10.85 C11.9774681,10.9440837 11.8429524,11.0214302 11.7,11.08" id="Shape"></path>
                        <polyline id="Shape" points="12.1 10.85 3.25 6 3.51 5.8 12.36 10.61 12.1 10.81"></polyline>
                        <polyline id="Shape" points="12.36 10.65 3.51 5.84 3.71 5.63 12.57 10.45 12.36 10.65"></polyline>
                        <path d="M12.57,10.45 L3.71,5.63 C3.77844894,5.560338 3.83882989,5.48318456 3.89,5.4 L12.75,10.22 L12.57,10.45" id="Shape"></path>
                        <path d="M12.75,10.22 L3.89,5.4 L4.07,5.12 L12.92,9.93 C12.8693001,10.0300429 12.8125273,10.1268904 12.75,10.22" id="Shape"></path>
                        <path d="M12.92,9.93 L4.07,5.12 L4.16,4.92 L4.28,4.63 L13.13,9.45 C13.0993953,9.54885861 13.0626574,9.64571313 13.02,9.74 C13.02,9.81 12.95,9.87 12.92,9.93" id="Shape"></path>
                        <path d="M13.13,9.45 L4.28,4.63 C4.66543361,3.40511593 4.83793417,2.12320005 4.79,0.84 L13.65,5.65 C13.6894712,6.93678512 13.5137194,8.22112517 13.13,9.45" id="Shape"></path>
                    </g>
                </g>
                <polygon id="Shape" fill="#D4145A" points="21.66 18.63 12.81 13.81 12.82 10.9 21.67 15.72"></polygon>
                <polygon id="Shape" fill="#D4145A" points="15.28 19.52 6.43 14.71 12.81 13.81 21.66 18.63"></polygon>
                <g id="Shape" transform="translate(11.000000, 5.000000)" fill="#D4145A">
                    <path d="M0.45,0.39 L9.31,5.21 C9.6585903,5.39875054 9.93077447,5.70274844 10.08,6.07 C10.5593167,7.56744933 10.7593061,9.14024734 10.67,10.71 L1.82,5.9 C1.90930609,4.33024734 1.70931669,2.75744933 1.23,1.26 C1.07397873,0.891331846 0.799510921,0.585194671 0.45,0.39 L0.45,0.39 Z"></path>
                    <path d="M10.67,10.71 L1.82,5.9 C1.90930609,4.33024734 1.70931669,2.75744933 1.23,1.26 C1.07397873,0.891331846 0.799510921,0.585194671 0.45,0.39 L9.31,5.21 C9.6585903,5.39875054 9.93077447,5.70274844 10.08,6.07 C10.5593167,7.56744933 10.7593061,9.14024734 10.67,10.71"></path>
                </g>
                <g id="Shape" transform="translate(0.000000, 22.000000)" fill="#D4145A">
                    <path d="M13.35,16.26 L4.5,11.44 L4.32,11.34 C2.96496885,10.4468759 2.00261981,9.06953619 1.63,7.49 C1.05542748,5.14491107 0.796473853,2.73361557 0.86,0.32 L9.72,5.14 C9.64814736,7.55006235 9.90381533,9.95872373 10.48,12.3 C10.8497774,13.8808065 11.8127985,15.259108 13.17,16.15 L13.35,16.26 Z"></path>
                    <path d="M13.35,16.26 L4.5,11.44 L4.32,11.34 C2.96496885,10.4468759 2.00261981,9.06953619 1.63,7.49 C1.05542748,5.14491107 0.796473853,2.73361557 0.86,0.32 L9.72,5.14 C9.64814736,7.55006235 9.90381533,9.95872373 10.48,12.3 C10.8497774,13.8808065 11.8127985,15.259108 13.17,16.15 L13.35,16.26"></path>
                </g>
                <polygon id="Shape" fill="#D4145A" points="9.72 27.14 0.86 22.32 0.88 14.94 9.73 19.75"></polygon>
                <g id="Shape">
                    <path d="M14.75,1.29 L23.6,6.11 C22.0328417,5.40405965 20.2817462,5.21494132 18.6,5.57 C15.2666667,6.03666667 12.96,7.39666667 11.68,9.65 C10.4,11.9033333 9.73333333,15.27 9.68,19.75 L0.83,14.93 C0.83,10.45 1.49666667,7.08666667 2.83,4.84 C4.13,2.58 6.45,1.22 9.76,0.76 C11.4376077,0.406076778 13.184164,0.591582759 14.75,1.29 Z" fill="#D4145A"></path>
                    <g id="Group">
                        <path d="M9.73,19.75 L0.88,14.93 C0.787871127,12.0789724 1.19049431,9.23354304 2.07,6.52 L10.92,11.34 C10.0495912,14.0556364 9.64719166,16.899485 9.73,19.75" id="Shape" fill="#D4145A"></path>
                        <path d="M10.92,11.34 L2.07,6.52 C2.24730954,6.02478561 2.46123386,5.54345591 2.71,5.08 L11.56,9.9 C11.3112339,10.3634559 11.0973095,10.8447856 10.92,11.34" id="Shape" fill="#D4145A"></path>
                        <path d="M11.56,9.9 L2.71,5.08 C2.71,5 2.79,4.92 2.84,4.84 C2.95057526,4.64744003 3.07072578,4.46053922 3.2,4.28 L12.05,9.1 C11.9240223,9.27723928 11.8072027,9.46081296 11.7,9.65 L11.56,9.9" id="Shape" fill="#D4145A"></path>
                        <path d="M12.05,9.1 L3.2,4.28 C3.35231195,4.055831 3.51934632,3.84202701 3.7,3.64 L12.55,8.46 C12.3700136,8.66258405 12.2030139,8.87634366 12.05,9.1" id="Shape" fill="#ED1E79"></path>
                        <path d="M12.55,8.46 L3.7,3.64 C3.88396713,3.4310311 4.0810311,3.23396713 4.29,3.05 L13.14,7.87 C12.9310311,8.05396713 12.7339671,8.2510311 12.55,8.46" id="Shape" fill="#ED1E79"></path>
                        <path d="M13.14,7.87 L4.29,3.05 C4.52746216,2.83067777 4.78155542,2.63007783 5.05,2.45 L13.91,7.26 C13.6386671,7.44410123 13.3813005,7.64798904 13.14,7.87" id="Shape" fill="#ED1E79"></path>
                        <path d="M13.91,7.26 L5.05,2.45 C5.43338121,2.18376378 5.83808925,1.94963516 6.26,1.75 L15.12,6.57 C14.6960565,6.76181168 14.2909625,6.99281569 13.91,7.26" id="Shape" fill="#ED1E79"></path>
                        <path d="M15.12,6.57 L6.26,1.75 C7.37302972,1.24198458 8.55635476,0.904854945 9.77,0.75 C11.0366399,0.530897798 12.3336437,0.55806018 13.59,0.83 L22.45,5.65 C21.1910646,5.3734458 19.890536,5.34288508 18.62,5.56 C17.4095516,5.71478673 16.2295133,6.05194052 15.12,6.56" id="Shape" fill="#ED1E79"></path>
                        <path d="M22.45,5.66 L13.59,0.84 C13.9345298,0.930655241 14.2694366,1.05457072 14.59,1.21 L23.44,6 C23.1195972,5.84673398 22.7845734,5.72612542 22.44,5.64" id="Shape" fill="#D4145A"></path>
                        <polyline id="Shape" fill="#D4145A" points="23.44 6 14.58 1.19 14.75 1.27 23.6 6.09 23.44 6"></polyline>
                    </g>
                </g>
                <path d="M27.1,21.11 L15.28,22.77 L15.28,29.26 C15.1544098,30.6962223 15.4277867,32.1392369 16.07,33.43 C16.630538,34.2713602 17.6582184,34.6712358 18.64,34.43 C19.676882,34.3415927 20.5823745,33.6931679 21,32.74 C21.4733993,31.4304609 21.6873781,30.041297 21.63,28.65 L21.63,26.65 L27,25.93 L27,27.17 C27.1429894,29.976149 26.4467078,32.7612753 25,35.17 C23.4815446,37.2522976 21.1291596,38.5672954 18.56,38.77 C16.739211,39.1614502 14.8395402,38.925313 13.17,38.1 C11.8127985,37.209108 10.8497774,35.8308065 10.48,34.25 C9.90381533,31.9087237 9.64814736,29.5000624 9.72,27.09 L9.72,19.75 C9.72,15.27 10.3866667,11.9033333 11.72,9.65 C13.0533333,7.39666667 15.36,6.03666667 18.64,5.57 C21.06,5.23 22.89,5.51 24.12,6.43 C25.4262361,7.48006209 26.2900279,8.9827743 26.54,10.64 C26.9977018,13.227109 27.1953533,15.8535284 27.13,18.48 L27.1,21.11 Z M15.29,17.79 L15.29,19.52 L21.66,18.63 L21.66,15.71 C21.7493061,14.1402473 21.5493167,12.5674493 21.07,11.07 C20.67,10.18 19.84,9.82 18.56,10 C17.7759858,10.0767707 17.0452979,10.4314736 16.5,11 C15.9524755,11.6738092 15.6058986,12.4882649 15.5,13.35 C15.300554,14.8346469 15.2136396,16.3322483 15.24,17.83 L15.29,17.79 Z" id="Shape" fill="#FFFFFF"></path>
            </g>
            <g id="Group" transform="translate(45.000000, 26.000000)">
                <polygon id="Shape" fill="#D4145A" points="21.33 28.36 12.48 23.55 12.48 20.92 21.34 25.74"></polygon>
                <polygon id="Shape" fill="#D4145A" points="21.34 25.74 12.48 20.92 17.51 20.21 26.36 25.03"></polygon>
                <g id="Shape" transform="translate(7.000000, 23.000000)" fill="#D4145A">
                    <path d="M9.42,11.18 L0.56,6.36 C1.13474827,6.62567093 1.77881855,6.70267933 2.4,6.58 C3.49495778,6.5341046 4.46498577,5.86014941 4.89,4.85 C5.34083517,3.46316262 5.54063211,2.00701544 5.48,0.55 L14.33,5.36 C14.3935544,6.81968346 14.1971671,8.27904472 13.75,9.67 C13.3180939,10.6730483 12.3509888,11.3410888 11.26,11.39 C10.6400931,11.5207714 9.99449889,11.4470894 9.42,11.18 L9.42,11.18 Z"></path>
                    <g id="Group">
                        <polyline id="Shape" points="9.42 11.18 0.56 6.36 0.63 6.36 9.48 11.18 9.42 11.18"></polyline>
                        <path d="M9.48,11.22 L0.63,6.4 C0.755395177,6.4586163 0.885953636,6.50548344 1.02,6.54 L9.87,11.36 C9.73737794,11.3209883 9.60715491,11.2742416 9.48,11.22" id="Shape"></path>
                        <path d="M9.87,11.36 L1,6.54 C1.45581518,6.62775001 1.92418482,6.62775001 2.38,6.54 C2.78411329,6.48816996 3.1783625,6.37697146 3.55,6.21 L12.41,11.02 C12.0390905,11.1889665 11.6445351,11.3002514 11.24,11.35 C10.7812459,11.4421244 10.3087541,11.4421244 9.85,11.35" id="Shape"></path>
                        <path d="M12.43,11.06 L3.57,6.25 C3.72184296,6.18224813 3.86599746,6.09843738 4,6 L12.86,10.82 C12.7289749,10.9063161 12.5919607,10.9831777 12.45,11.05" id="Shape"></path>
                        <path d="M12.84,10.83 L4,6 L4.26,5.8 L13.11,10.62 C13.0311538,10.6920898 12.9476392,10.7589014 12.86,10.82" id="Shape"></path>
                        <polyline id="Shape" points="13.09 10.63 4.24 5.81 4.43 5.61 13.29 10.43 13.09 10.63"></polyline>
                        <path d="M13.29,10.43 L4.43,5.61 C4.4943915,5.54662292 4.55141955,5.47617651 4.6,5.4 L13.45,10.22 L13.29,10.43" id="Shape"></path>
                        <path d="M13.45,10.22 L4.6,5.4 C4.66,5.32 4.71,5.23 4.76,5.15 L13.61,10 C13.5625879,10.0901739 13.5091326,10.1770387 13.45,10.26" id="Shape"></path>
                        <path d="M13.61,10 L4.76,5.19 C4.81,5.09 4.85,4.99 4.89,4.89 L4.89,4.77 L13.74,9.59 L13.74,9.71 C13.6993938,9.80947702 13.6526368,9.90633085 13.6,10" id="Shape"></path>
                        <path d="M13.79,9.55 L4.94,4.73 C5.34617197,3.37531568 5.5285686,1.96343071 5.48,0.55 L14.33,5.36 C14.3884467,6.77716327 14.2058519,8.19396352 13.79,9.55" id="Shape"></path>
                    </g>
                </g>
                <polygon id="Shape" fill="#D4145A" points="21.35 17.23 12.5 12.41 12.5 10.45 21.36 15.27"></polygon>
                <g id="Shape" transform="translate(11.000000, 5.000000)" fill="#D4145A">
                    <path d="M0.16,0.39 L9,5.2 C9.29354712,5.36531615 9.53313666,5.61185031 9.69,5.91 C10.2282853,7.29689043 10.4503467,8.78640984 10.34,10.27 L1.5,5.45 C1.61694025,3.96704112 1.39818826,2.47679322 0.86,1.09 C0.701769164,0.792025721 0.457974279,0.548230836 0.16,0.39 L0.16,0.39 Z"></path>
                    <path d="M10.36,10.27 L1.5,5.45 C1.61694025,3.96704112 1.39818826,2.47679322 0.86,1.09 C0.701769164,0.792025721 0.457974279,0.548230836 0.16,0.39 L9,5.2 C9.29354712,5.36531615 9.53313666,5.61185031 9.69,5.91 C10.2282853,7.29689043 10.4503467,8.78640984 10.34,10.27"></path>
                </g>
                <g id="Shape" transform="translate(0.000000, 22.000000)" fill="#D4145A">
                    <path d="M13,16.26 L4.15,11.44 C4.03327183,11.3792804 3.91978483,11.3125233 3.81,11.24 C2.47139248,10.3056027 1.53830519,8.89703413 1.2,7.3 C0.677568866,5.02852262 0.445714176,2.69989509 0.51,0.37 L9.36,5.19 C9.30694198,7.51947913 9.53865826,9.84671652 10.05,12.12 C10.385909,13.7153606 11.3198217,15.1215969 12.66,16.05 C12.7687444,16.1271709 12.8823092,16.1973138 13,16.26 L13,16.26 Z"></path>
                    <path d="M13,16.26 L4.15,11.44 C4.03327183,11.3792804 3.91978483,11.3125233 3.81,11.24 C2.47139248,10.3056027 1.53830519,8.89703413 1.2,7.3 C0.677568866,5.02852262 0.445714176,2.69989509 0.51,0.37 L9.36,5.19 C9.30694198,7.51947913 9.53865826,9.84671652 10.05,12.12 C10.385909,13.7153606 11.3198217,15.1215969 12.66,16.05 C12.7687444,16.1271709 12.8823092,16.1973138 13,16.26"></path>
                </g>
                <g id="Shape" transform="translate(9.000000, 0.000000)">
                    <path d="M5.56,1.29 L14.41,6.1 L14.21,6 C12.6192759,5.37831346 10.8821447,5.23239444 9.21,5.58 L0.35,0.77 C2.02118066,0.419215908 3.75828763,0.56165868 5.35,1.18 L5.56,1.29 Z" fill="#D4145A"></path>
                    <g id="Group">
                        <path d="M9.21,5.58 L0.35,0.77 C1.69850889,0.53093238 3.0805097,0.554701435 4.42,0.84 L13.27,5.66 C11.9340387,5.375645 10.556126,5.34849401 9.21,5.58" id="Shape" fill="#ED1E79"></path>
                        <path d="M13.27,5.66 L4.42,0.84 C4.74078782,0.92130802 5.05241152,1.03523497 5.35,1.18 L5.35,1.18 L14.24,6 L14.24,6 C13.9382882,5.8568008 13.6235064,5.74294356 13.3,5.66" id="Shape" fill="#D4145A"></path>
                        <polyline id="Shape" fill="#D4145A" points="14.24 6 5.38 1.2 5.56 1.29 14.41 6.1 14.24 6"></polyline>
                    </g>
                </g>
                <polygon id="Shape" fill="#D4145A" points="9.4 27.19 0.55 22.37 0.56 14.93 9.42 19.75"></polygon>
                <g id="Shape">
                    <path d="M9.42,19.75 L0.56,14.93 C0.52089141,12.487094 0.762474242,10.0477785 1.28,7.66 C1.66033867,5.87458461 2.57812643,4.24839033 3.91,3 C5.4534695,1.71769916 7.35112343,0.936312253 9.35,0.76 L18.21,5.57 C16.2075831,5.75153505 14.3072947,6.53605775 12.76,7.82 C11.4298868,9.06571686 10.5122392,10.6881737 10.13,12.47 C9.61008097,14.8606497 9.3717928,17.3039424 9.42,19.75 L9.42,19.75 Z" fill="#D4145A"></path>
                    <g id="Group">
                        <path d="M9.42,19.75 L0.56,14.93 C0.52089141,12.487094 0.762474242,10.0477785 1.28,7.66 C1.37605893,7.24992705 1.49626848,6.84588937 1.64,6.45 L10.5,11.26 C10.3529047,11.6590777 10.2293589,12.0664448 10.13,12.48 C9.61085758,14.8673884 9.37257386,17.3072795 9.42,19.75" id="Shape" fill="#D4145A"></path>
                        <path d="M10.5,11.26 L1.64,6.45 C1.79627259,6.02360208 1.98343573,5.60916942 2.2,5.21 L11.05,10 C10.8386087,10.3968688 10.6548394,10.8078438 10.5,11.23" id="Shape" fill="#D4145A"></path>
                        <path d="M11.05,10 L2.2,5.21 C2.35893341,4.91277606 2.53593181,4.62557111 2.73,4.35 L11.58,9.17 C11.3859318,9.44557111 11.2089334,9.73277606 11.05,10.03" id="Shape" fill="#D4145A"></path>
                        <path d="M11.58,9.17 L2.73,4.35 C2.90231277,4.09917253 3.08930575,3.85875299 3.29,3.63 L12.15,8.45 C11.95,8.67666667 11.76,8.91666667 11.58,9.17" id="Shape" fill="#ED1E79"></path>
                        <path d="M12.15,8.45 L3.29,3.63 C3.48,3.42 3.69,3.21 3.91,3.01 L3.91,3.01 L12.76,7.83 L12.76,7.83 C12.5419353,8.02163734 12.3380665,8.2288483 12.15,8.45" id="Shape" fill="#ED1E79"></path>
                        <path d="M12.8,7.79 L4,3 C4.22,2.81 4.45,2.62 4.69,2.45 L13.55,7.27 C13.3039498,7.43654353 13.0700289,7.62033853 12.85,7.82" id="Shape" fill="#ED1E79"></path>
                        <path d="M13.5,7.24 L4.64,2.42 C5.00599705,2.17400052 5.39047761,1.95668543 5.79,1.77 L14.65,6.58 C14.2499519,6.76950194 13.8654323,6.99018277 13.5,7.24" id="Shape" fill="#ED1E79"></path>
                        <path d="M14.65,6.58 L5.79,1.77 C6.91912442,1.25816 8.11950857,0.920973436 9.35,0.77 L18.21,5.58 C16.9808725,5.73772449 15.7814753,6.0746338 14.65,6.58" id="Shape" fill="#ED1E79"></path>
                    </g>
                </g>
                <path d="M18.21,5.58 C19.8821447,5.23239444 21.6192759,5.37831346 23.21,6 C24.4232206,6.6049175 25.3240705,7.69465526 25.69,9 C26.2149017,10.8354889 26.4477486,12.7421343 26.38,14.65 L26.38,16.55 L21.38,17.26 L21.38,15.26 C21.4903467,13.7764098 21.2682853,12.2868904 20.73,10.9 C20.2015542,10.0742218 19.1850591,9.70533247 18.25,10 C17.4614623,10.0709155 16.7256788,10.4263665 16.18,11 C15.6552932,11.6660625 15.3294447,12.4668179 15.24,13.31 C15.0524505,14.7755211 14.9722369,16.2527877 15,17.73 L15,27.92 C14.9625417,29.3401148 15.0663859,30.7604353 15.31,32.16 C15.3903517,32.90572 15.7471248,33.5942921 16.31,34.09 C16.9133306,34.4433349 17.6295539,34.5507684 18.31,34.39 C19.4009888,34.3410888 20.3680939,33.6730483 20.8,32.67 C21.2471671,31.2790447 21.4435544,29.8196835 21.38,28.36 L21.38,25.74 L26.38,25.03 L26.38,27.26 C26.38,30.77 25.77,33.48 24.57,35.36 C23.37,37.24 21.24,38.36 18.17,38.83 C15.8233333,39.1566667 14.0066667,38.8966667 12.72,38.05 C11.3798217,37.1215969 10.445909,35.7153606 10.11,34.12 C9.59865826,31.8467165 9.36694198,29.5194791 9.42,27.19 L9.42,19.75 C9.37257386,17.3072795 9.61085758,14.8673884 10.13,12.48 C10.5122392,10.6981737 11.4298868,9.07571686 12.76,7.83 C14.3072947,6.54605775 16.2075831,5.76153505 18.21,5.58 Z" id="Shape" fill="#FFFFFF"></path>
            </g>
            <g id="Group" transform="translate(34.000000, 29.000000)">
                <polygon id="Shape" fill="#FFFFFF" points="9.44 38.15 9.5 5.8 15.05 5.02 14.99 37.37"></polygon>
                <polygon id="Shape" fill="#D4145A" points="9.44 38.15 0.59 33.33 0.65 0.98 9.5 5.8"></polygon>
                <polygon id="Shape" fill="#ED1E79" points="9.5 5.8 0.65 0.98 6.2 0.2 15.05 5.02"></polygon>
            </g>
            <g id="Group" transform="translate(17.000000, 30.000000)">
                <g id="Shape" transform="translate(13.000000, 0.000000)">
                    <path d="M8.84,5.06 L0,0.24 C0.291780351,0.201520608 0.58569702,0.181480835 0.88,0.18 L9.71,5 C9.41885418,4.99642467 9.12789859,5.01649058 8.84,5.06 L8.84,5.06 Z" fill="#D4145A"></path>
                    <path d="M8.84,5.06 L0,0.24 C0.291780351,0.201520608 0.58569702,0.181480835 0.88,0.18 L9.71,5 C9.41885418,4.99642467 9.12789859,5.01649058 8.84,5.06" fill="#ED1E79"></path>
                </g>
                <g id="Shape" transform="translate(6.000000, 0.000000)">
                    <path d="M9.18,11 L0.33,6.18 C1.11103543,4.55179729 2.19735768,3.088657 3.53,1.87 C4.50977239,1.01025172 5.71274418,0.445166991 7,0.24 L15.86,5.06 C14.5808585,5.26297746 13.3831082,5.81685042 12.4,6.66 C11.0589316,7.88737425 9.96583498,9.36067837 9.18,11 Z" fill="#D4145A"></path>
                    <g id="Group">
                        <polyline id="Shape" fill="#D4145A" points="9.18 11 0.33 6.18 0.42 6.01 9.27 10.83 9.18 11"></polyline>
                        <path d="M9.27,10.81 L0.42,6 C0.80523323,5.28088325 1.22918933,4.58319171 1.69,3.91 L10.55,8.73 C10.085713,9.40291627 9.6584137,10.1006158 9.27,10.82" id="Shape" fill="#D4145A"></path>
                        <path d="M10.55,8.72 L1.69,3.9 C1.99,3.49 2.28,3.11 2.58,2.77 L11.43,7.59 C11.1144301,7.94880999 10.8205735,8.32614857 10.55,8.72" id="Shape" fill="#ED1E79"></path>
                        <path d="M11.43,7.59 L2.58,2.77 C2.80140218,2.51541181 3.03853309,2.27494103 3.29,2.05 L12.15,6.86 C11.8976749,7.09086119 11.6573591,7.33451472 11.43,7.59" id="Shape" fill="#ED1E79"></path>
                        <path d="M12.15,6.86 L3.29,2.05 L3.53,1.85 C3.71,1.69 3.91,1.55 4.1,1.41 L13,6.23 C12.81,6.36 12.62,6.51 12.43,6.66 L12.2,6.86" id="Shape" fill="#ED1E79"></path>
                        <path d="M13,6.23 L4.1,1.41 C4.43965058,1.17526933 4.79744725,0.967947888 5.17,0.79 L14,5.61 C13.6230644,5.7856565 13.2617609,5.99307151 12.92,6.23" id="Shape" fill="#ED1E79"></path>
                        <path d="M14,5.61 L5.14,0.79 C5.72789174,0.511752326 6.35532608,0.326220663 7,0.24 L15.86,5.06 C15.232085,5.14966883 14.6216478,5.3351608 14.05,5.61" id="Shape" fill="#ED1E79"></path>
                    </g>
                </g>
                <path d="M21.84,5.06 C22.1278986,5.01649058 22.4188542,4.99642467 22.71,5 L22.71,11.6 C21.7199585,11.315303 20.683187,11.2303218 19.66,11.35 C18.7774268,11.4571449 17.9407627,11.8028738 17.24,12.35 C16.3975582,13.1132666 15.7173816,14.0383068 15.24,15.07 L15.24,38.69 L9.69,39.47 L9.75,7.12 L15.3,6.34 L15.3,11 C16.0820693,9.36950283 17.1681699,7.90326698 18.5,6.68 C19.4472533,5.84925722 20.6011631,5.28957642 21.84,5.06 Z" id="Shape" fill="#FFFFFF"></path>
                <polygon id="Shape" fill="#D4145A" points="9.59 39.52 0.73 34.7 0.79 2.35 9.64 7.17"></polygon>
                <polygon id="Shape" fill="#ED1E79" points="9.64 7.17 0.79 2.35 6.34 1.57 15.19 6.39"></polygon>
            </g>
            <g id="Group" transform="translate(0.000000, 24.000000)">
                <g id="Shape" transform="translate(9.000000, 36.000000)" fill="#D4145A">
                    <path d="M9.47,6.1 L0.62,1.28 C1.18358676,1.52487935 1.81039151,1.58440829 2.41,1.45 C3.08705242,1.35060522 3.75562352,1.20017672 4.41,1 L13.26,5.82 C12.6054786,6.01962932 11.936949,6.17004848 11.26,6.27 C10.6599859,6.39767817 10.0352521,6.33834592 9.47,6.1 Z"></path>
                    <g id="Group">
                        <polyline id="Shape" points="9.47 6.1 0.62 1.28 0.67 1.28 9.52 6.1 9.47 6.1"></polyline>
                        <path d="M9.52,6.13 L0.67,1.31 C0.772496004,1.36034469 0.879673626,1.4005363 0.99,1.43 L9.85,6.24 C9.73762443,6.21088748 9.62736797,6.17413533 9.52,6.13" id="Shape"></path>
                        <path d="M9.85,6.24 L1,1.43 C1.4693242,1.5171242 1.9506758,1.5171242 2.42,1.43 C3.09705242,1.33060522 3.76562352,1.18017672 4.42,0.98 L13.27,5.8 C12.6154786,5.99962932 11.946949,6.15004848 11.27,6.25 C10.801231,6.34296091 10.318769,6.34296091 9.85,6.25" id="Shape"></path>
                    </g>
                </g>
                <g id="Shape" transform="translate(3.000000, 35.000000)" fill="#D4145A">
                    <path d="M11.58,11.62 L2.72,6.81 C0.98,5.85666667 0.113333333,3.75 0.12,0.49 L9,5.3 C9,8.57 9.83,10.68 11.58,11.62 Z"></path>
                    <path d="M11.58,11.62 L2.72,6.81 C0.98,5.85666667 0.113333333,3.75 0.12,0.49 L9,5.3 C9,8.57 9.86,10.68 11.61,11.62"></path>
                </g>
                <polygon id="Shape" fill="#ED1E79" points="17.57 14.44 8.72 9.63 13.54 8.95 22.4 13.77"></polygon>
                <polygon id="Shape" fill="#D4145A" points="11.97 40.3 3.12 35.49 3.16 14.38 12.01 19.2"></polygon>
                <polygon id="Shape" fill="#ED1E79" points="8.86 15.67 0.01 10.85 3.17 10.41 12.02 15.22"></polygon>
                <polygon id="Shape" fill="#D4145A" points="8.85 19.64 0 14.82 0.01 10.85 8.86 15.67"></polygon>
                <polygon id="Shape" fill="#ED1E79" points="12.04 5.76 3.18 0.94 8.74 0.16 17.59 4.98"></polygon>
                <polygon id="Shape" fill="#D4145A" points="12.02 15.22 3.17 10.41 3.18 0.94 12.04 5.76"></polygon>
                <path d="M17.59,5 L17.59,14.46 L22.42,13.78 L22.42,17.78 L17.6,18.45 L17.6,39.17 C17.5053308,40.0933368 17.7010926,41.0232056 18.16,41.83 C18.54,42.3 19.26,42.46 20.34,42.31 C21.016949,42.2100485 21.6854786,42.0596293 22.34,41.86 L22.34,46.28 C21.0857972,46.6612776 19.8058407,46.9520249 18.51,47.15 C14.17,47.7166667 12,45.4333333 12,40.3 L12,19.19 L8.84,19.64 L8.84,15.64 L12,15.22 L12,5.76 L17.59,5 Z" id="Shape" fill="#FFFFFF"></path>
            </g>
            <g id="Group" transform="translate(34.000000, 18.000000)">
                <polygon id="Shape" fill="#FFFFFF" points="9.52 5.71 15.07 4.94 15.06 11.21 9.51 11.99"></polygon>
                <polygon id="Shape" fill="#ED1E79" points="9.52 5.71 0.67 0.9 6.22 0.12 15.07 4.94"></polygon>
                <polygon id="Shape" fill="#D4145A" points="9.51 11.99 0.66 7.17 0.67 0.9 9.52 5.71"></polygon>
            </g>
            <g id="Group" transform="translate(163.000000, 0.000000)">
                <polygon id="Shape" fill="#FFFFFF" points="9.45 5.6 15 4.82 14.98 11.09 9.44 11.87"></polygon>
                <polygon id="Shape" fill="#ED1E79" points="9.45 5.6 0.59 0.78 6.14 0 15 4.82"></polygon>
                <polygon id="Shape" fill="#D4145A" points="9.44 11.87 0.58 7.05 0.59 0.78 9.45 5.6"></polygon>
            </g>
        </g>
    </g>
</svg>