<?xml version="1.0" encoding="UTF-8"?>
<svg width="48px" height="26px" viewBox="0 0 48 26" version="1.1" xmlns="http://www.w3.org/2000/svg" xmlns:xlink="http://www.w3.org/1999/xlink">
    <!-- Generator: Sketch 50.2 (55047) - http://www.bohemiancoding.com/sketch -->
    <title>Shape</title>
    <desc>Created with Sketch.</desc>
    <defs></defs>
    <g id="Page-1" stroke="none" stroke-width="1" fill="none" fill-rule="evenodd">
        <g id="fish-school-01" transform="translate(0.000000, -48.000000)" fill="#15668C" fill-rule="nonzero">
            <path d="M47.7039537,64.3430421 C47.7228276,64.136277 47.7684981,63.932845 47.8398163,63.7378641 C47.8398163,63.7378641 47.8398163,63.7087379 47.8398163,63.6957929 C47.8082412,63.3223932 47.5904838,62.9901369 47.2607827,62.8122977 C47.0763978,62.8122977 46.9761182,62.7055016 46.7949681,62.7378641 C46.8790735,62.4983819 47.1605032,62.4757282 47.2349042,62.1909385 C47.3093051,61.9061489 46.9664137,61.5760518 47.1119808,61.4239482 C43.7542332,58.7669903 40.7361422,55.433657 37.0193291,53.4433657 C35.4666134,52.5760518 33.7845048,52.0064725 32.1962061,51.2168285 C29.2848642,50.1682848 26.4511581,48.7216828 23.1386981,48.8964401 C22.7796326,49.1909385 22.0582668,48.7281553 21.9482827,49.3721683 C21.6571486,49.4757282 21.2139776,49.1553398 21.0328275,49.5145631 C21.0166534,49.7087379 21.2430911,49.7313916 21.3077875,49.8996764 C20.9843051,49.9514563 20.5961262,49.6504854 20.3373403,49.8996764 L20.5767173,50.3139159 C20.2532348,50.4466019 19.9297524,50.0550162 19.6709665,50.3721683 L19.7130192,50.6245955 C19.4962859,50.6504854 19.0660543,50.4304207 18.9204872,50.6957929 C18.8913738,50.8381877 18.9787141,50.9449838 19.0498802,51.0679612 C18.6875799,51.0679612 18.2832268,50.8640777 17.9791534,51.1132686 C18.0167479,51.2024172 18.036529,51.298068 18.0373802,51.394822 C17.8044728,51.4239482 17.3030751,51.1941748 17.2319089,51.5954693 C16.7078674,51.2524272 16.4490815,51.9190939 15.9379792,51.6375405 C15.7018371,51.8770227 15.2910144,51.5113269 15.0872204,51.8187702 C14.8866613,51.8478964 14.6408147,51.6763754 14.488778,51.8932039 C14.4499601,52.2977346 13.9485623,51.8932039 13.9873802,52.3495146 L13.9000399,52.4239482 C13.6526624,52.4480906 13.4149737,52.5325405 13.2077875,52.6699029 C11.9688498,52.5987055 10.8948882,53.0679612 9.7918131,53.4724919 C9.18043131,54.0841424 8.56257987,54.5469256 8.27144569,55.3721683 C7.90914537,56.2524272 8.18734026,57.2912621 8.48170927,58.1391586 C8.24917331,58.1109071 8.02034423,58.0577434 7.79916134,57.9805825 L6.82871406,57.5760518 C6.36283182,57.3266722 5.87296604,57.1250019 5.36657348,56.97411 C4.07264377,56.2783172 2.48434505,56.0291262 0.925159744,55.8964401 C0.711661342,55.9255663 0.326717252,55.8414239 0.342891374,56.184466 C0.433466454,56.4401294 0.13586262,56.4757282 0.148801917,56.6731392 C0.232907348,57.4983819 0.346126198,58.3915858 1.0254393,58.9644013 C1.06749201,59.0582524 1.10307508,59.1521036 1.13865815,59.2459547 C1.34245208,59.789644 1.46214058,60.3074434 1.9182508,60.7669903 C1.97000799,61.2297735 2.30319489,61.3592233 2.32260383,61.8381877 C2.62667732,62.2427184 3.59065495,62.433657 3.18306709,63.0970874 C3.04073482,63.394822 3.33833866,63.8478964 3.07955272,64.1812298 C3.44508786,64.6116505 3.07955272,65.3430421 3.64241214,65.6440129 C3.95197405,65.8601524 4.3456597,65.9165893 4.7034345,65.7961165 L4.77136581,65.8349515 L5.13690096,65.631068 C5.43773962,65.4919094 5.73210863,65.3074434 6.00383387,65.2135922 C6.86753195,64.8673139 7.62124601,64.1391586 8.51405751,63.8834951 L9.0186901,63.8187702 L9.27100639,63.7993528 C9.40429037,63.8085269 9.53641942,63.8301971 9.66565495,63.8640777 C9.06721246,64.6116505 8.3134984,65.6407767 8.6725639,66.7055016 C8.68966687,66.7606657 8.71019399,66.8147081 8.73402556,66.8673139 C8.79622324,66.9978987 8.87683791,67.1188738 8.97340256,67.2265372 C9.32347298,67.6974032 9.78925691,68.0697482 10.3255591,68.3074434 L10.5099441,68.4401294 C12.1597045,68.7928803 13.6250799,68.197411 15.1098642,67.8640777 C15.4175639,67.7224172 15.6854024,67.5067181 15.8894569,67.236246 C15.9556851,67.0633026 15.9556851,66.8719725 15.8894569,66.6990291 L15.8894569,66.4660194 C16.3132188,66.6666667 16.8599042,66.9029126 17.4259984,67.1553398 C18.3964457,67.6504854 19.4315895,68.0647249 20.3761581,68.5631068 C21.9094649,69.1197411 23.1289936,69.7281553 24.8790335,69.8576052 C24.0315096,70.8576052 21.8641773,70.618123 21.8577077,72.4466019 C21.4630591,72.6213592 21.501877,73.0938511 21.5698083,73.3980583 C21.8674121,74.0453074 22.6211262,73.8414239 23.1354633,73.776699 C23.6041404,73.6022809 24.0867881,73.468033 24.5781949,73.3754045 C25.3446316,73.0413796 26.0364632,72.5572149 26.6128994,71.9514563 C27.3795527,71.2880259 28.275599,70.9644013 28.7867013,70.0809061 C31.7886182,70.6278317 34.3894169,69.2588997 37.1551917,68.7216828 C39.0960863,68.1197411 40.9140575,67.1812298 42.9164137,66.7799353 C43.7833466,66.0485437 44.9155351,66.1132686 45.7792332,65.4627832 L47.3028355,64.8446602 C47.4884257,64.7870479 47.6298458,64.6357233 47.6748403,64.4466019 L47.7783546,64.3333333 L47.7039537,64.3430421 Z M9.91797125,58.6019417 L9.72388179,58.8058252 L9.66242013,58.7799353 L9.91797125,58.6019417 Z M10.1152955,53.5436893 C9.95891021,53.6406871 9.80972128,53.7488424 9.66888978,53.8673139 C9.77730469,53.7125065 9.93449007,53.598554 10.1152955,53.5436893 Z M9.53626198,53.9708738 C9.46509585,54.0323625 9.39716454,54.0938511 9.33246805,54.1585761 C9.36208523,54.074321 9.42051939,54.0032524 9.49744409,53.9579288 L9.53626198,53.9708738 Z M9.0995607,54.368932 L9.13190895,54.368932 C8.99693319,54.5299858 8.87573907,54.7021136 8.76960863,54.8834951 C8.8860623,54.7346278 8.90547125,54.5080906 9.0995607,54.368932 Z M8.66932907,55.1035599 C8.62727636,55.1941748 8.58845847,55.2815534 8.55611022,55.3656958 C8.5296491,55.2653725 8.57682685,55.1601874 8.66932907,55.1132686 L8.66932907,55.1035599 Z M8.48170927,57.5825243 C8.30055911,56.9093851 8.07412141,56.184466 8.48170927,55.5695793 C8.28811729,56.2345964 8.32691228,56.9457699 8.59169329,57.5857605 C8.55934505,57.605178 8.52052716,57.605178 8.48170927,57.605178 L8.48170927,57.5825243 Z M8.87635783,58.4045307 L8.49788339,57.7799353 C8.54427225,57.7508175 8.59430671,57.7279657 8.6466853,57.7119741 C8.77460319,58.005943 8.93635916,58.2839816 9.12867412,58.5404531 L8.94752396,58.4627832 C8.92488019,58.4530744 8.89576677,58.433657 8.87635783,58.4142395 L8.87635783,58.4045307 Z M2.52316294,56.2621359 C3.25336523,56.3621006 3.96901789,56.5489693 4.65491214,56.8187702 L4.7163738,57.0097087 C3.43273012,56.4067049 2.02571763,56.1129867 0.608146965,56.1521036 C1.22276358,55.8899676 1.94089457,56.3106796 2.52316294,56.2718447 L2.52316294,56.2621359 Z M0.420527157,56.5113269 L0.799001597,57.9061489 L0.685782748,57.8834951 C0.392896087,57.5532039 0.262444966,57.1094751 0.329952077,56.6731392 L0.443170927,56.6731392 C0.425391362,56.6244987 0.417687253,56.5727485 0.420527157,56.5210356 L0.420527157,56.5113269 Z M0.676078275,57.9644013 L0.818410543,57.9644013 L1.00279553,58.6537217 C0.828115016,58.4627832 0.601677316,58.2524272 0.676078275,57.97411 L0.676078275,57.9644013 Z M1.61741214,59.8381877 L1.87619808,60.3300971 C1.73411943,60.2022026 1.64234932,60.0277628 1.61741214,59.8381877 Z M2.08322684,60.7249191 L2.31936901,61.1812298 L2.29349042,61.1812298 C2.1740306,61.056433 2.09801896,60.8963977 2.07675719,60.7249191 L2.08322684,60.7249191 Z M2.43582268,61.3980583 L2.75930511,61.815534 C2.59765299,61.7264602 2.47870839,61.5759641 2.42935304,61.3980583 L2.43582268,61.3980583 Z M3.40626997,63.1100324 C3.46049122,63.0987858 3.51355369,63.082535 3.56477636,63.0614887 L3.56477636,63.7540453 L3.47420128,63.7993528 C3.46773163,63.5404531 3.19600639,63.3009709 3.39333067,63.1067961 L3.40626997,63.1100324 Z M3.34480831,64.2815534 L3.37715655,63.9223301 C3.44185304,63.9029126 3.5033147,63.8705502 3.56477636,63.8478964 L3.56477636,64.7022654 C3.45155751,64.5954693 3.40303514,64.3786408 3.33186901,64.2815534 L3.34480831,64.2815534 Z M4.42200479,65.6440129 C4.09852236,65.579288 3.72004792,65.4951456 3.56801118,65.1682848 L4.43170927,65.6407767 L4.42200479,65.6440129 Z M10.0279553,63.9385113 C10.0279553,63.9385113 8.99928115,64.7346278 8.68226837,65.7281553 C8.75721336,64.925311 9.27769381,64.2331184 10.0279553,63.9385113 Z M9.97943291,67.9126214 C10.8713151,68.2627049 11.8357647,68.3872049 12.7872604,68.2750809 C11.8944489,68.4563107 10.7622604,68.4595469 9.98590256,67.9126214 L9.97943291,67.9126214 Z M19.5480431,68.0420712 C20.3146965,68.3495146 21.0748802,68.6440129 21.7444888,68.8932039 C20.9882497,68.6823709 20.2546919,68.3972741 19.5545128,68.0420712 L19.5480431,68.0420712 Z" id="Shape"></path>
        </g>
    </g>
</svg>