<svg width="160" height="177" xmlns="http://www.w3.org/2000/svg"><g fill-rule="nonzero" fill="none"><path fill="#219ECE" d="M136.4 144.72l-15.59-8.48 10.82-1.52 15.59 8.48zM136.44 122.43l-15.59-8.49 8.43-1.18 15.6 8.48z"/><path fill="#FFF" d="M147.19 100.72l-.01 6.24-10.72 1.5-.02 13.97 8.44-1.19-.01 6.18-8.44 1.18-.03 16.12 10.82-1.52-.01 6.06-18.99 2.67.09-48.55z"/><path fill="#219ECE" d="M128.22 151.93l-15.59-8.49.09-48.55 15.59 8.49z"/><path fill="#3ACFE8" d="M128.31 103.38l-15.59-8.49 18.88-2.65 15.59 8.48z"/><g><path fill="#219ECE" d="M115.45 153.72l-15.59-8.48-.6-33.65 15.59 8.48z"/><path fill="#219ECE" d="M105.87 140.14l-15.59-8.48 6.67-34.55 15.59 8.48z"/><path fill="#3ACFE8" d="M112.54 105.59l-15.59-8.48 8.27-1.16 15.59 8.48z"/><path fill="#219ECE" d="M103.45 155.41l-15.59-8.48-6.43-32.96 15.59 8.49z"/><path fill="#219ECE" d="M90.18 157.27l-15.59-8.48.87-48.66 15.59 8.48z"/><path fill="#FFF" d="M120.81 104.43l.75 48.43-6.11.86-.6-33.65-6.45 34.64-4.95.7-6.43-32.95-.67 33.95-6.17.86.87-48.66 8.49-1.19 6.33 32.72 6.67-34.55z"/><path fill="#3ACFE8" d="M91.05 108.61l-15.59-8.48 8.49-1.19 15.59 8.48z"/></g><g><g fill="#219ECE"><path d="M68.61 153.74L53 145.26c.843.392 1.79.5 2.7.31a4.39 4.39 0 0 0 3.67-2.38 13.07 13.07 0 0 0 1-5.52l15.59 8.48a13.15 13.15 0 0 1-1 5.53 4.38 4.38 0 0 1-3.67 2.37 4.31 4.31 0 0 1-2.68-.31z"/><path d="M68.61 153.74L53 145.26l.1.05 15.59 8.48h-.1M68.71 153.79l-15.59-8.48c.178.092.366.163.56.21l15.6 8.48a2.4 2.4 0 0 1-.57-.21M69.28 154l-15.6-8.48a5.45 5.45 0 0 0 2 0 6 6 0 0 0 1.76-.5l15.59 8.49a6.28 6.28 0 0 1-1.76.49 5.19 5.19 0 0 1-2-.05"/><path d="M73.07 153.56l-15.59-8.49c.215-.1.422-.218.62-.35l15.59 8.48a5.3 5.3 0 0 1-.62.36M73.69 153.2l-15.59-8.48c.13-.1.27-.2.39-.31l15.59 8.48a3 3 0 0 1-.39.31"/><path d="M74.08 152.89l-15.59-8.48.3-.3 15.59 8.48a2.83 2.83 0 0 1-.3.3"/><path d="M74.38 152.59l-15.59-8.48c.09-.11.18-.22.26-.34l15.59 8.49-.26.33M74.64 152.26l-15.59-8.49a2.55 2.55 0 0 0 .24-.39l15.6 8.48c-.08.14-.16.27-.25.4"/><path d="M74.89 151.86l-15.6-8.48c.04-.06.073-.124.1-.19.09-.19.17-.39.25-.6l15.59 8.48a6.5 6.5 0 0 1-.25.61l-.09.18M75.23 151.07l-15.59-8.48a14.34 14.34 0 0 0 .7-4.92l15.59 8.48a14.34 14.34 0 0 1-.7 4.92"/></g><path fill="#219ECE" d="M75.93 146.15l-15.59-8.48.04-22.36 15.59 8.48z"/><g fill="#219ECE"><path d="M58.51 109.13l15.59 8.48a2.35 2.35 0 0 1 1 1 11.14 11.14 0 0 1 .9 5.2l-15.59-8.48a11.14 11.14 0 0 0-.9-5.2 2.41 2.41 0 0 0-1-1z"/><path d="M76 123.79l-15.59-8.48a11.14 11.14 0 0 0-.9-5.2 2.41 2.41 0 0 0-1-1l15.59 8.48a2.35 2.35 0 0 1 1 1 11.14 11.14 0 0 1 .9 5.2"/></g><g fill="#219ECE"><path d="M63.42 159.68l-15.59-8.49a7.06 7.06 0 0 1-2.11-1.73c-2-2.42-3-6.227-3-11.42l15.59 8.48c0 5.2 1 9.007 3 11.42a7.25 7.25 0 0 0 2.11 1.74z"/><path d="M63.42 159.68l-15.59-8.49a7.06 7.06 0 0 1-2.11-1.73c-2-2.42-3-6.227-3-11.42l15.59 8.48c0 5.2 1 9.007 3 11.42a7.25 7.25 0 0 0 2.11 1.74"/></g><path fill="#219ECE" d="M58.33 146.52l-15.59-8.48.03-18.21 15.59 8.48zM63.69 103.26l15.6 8.48c-2-1.067-4.633-1.37-7.9-.91-4.667.667-8 2.453-10 5.36-2 2.907-3 6.947-3 12.12l-15.59-8.48c0-5.16 1-9.2 3-12.12s5.333-4.707 10-5.36c3.3-.46 5.93-.157 7.89.91z"/><path d="M58.36 128.31l-15.59-8.48a26 26 0 0 1 1.36-8.83l15.59 8.49a25.87 25.87 0 0 0-1.36 8.84M59.72 119.47L44.13 111a15.31 15.31 0 0 1 .9-2l15.59 8.48a17.84 17.84 0 0 0-.9 2" fill="#219ECE"/><path d="M60.62 117.45L45 109c.233-.434.49-.855.77-1.26l.06-.09 15.59 8.49-.06.08c-.27.4-.53.82-.77 1.26" fill="#219ECE"/><path d="M61.45 116.11l-15.59-8.49a9.43 9.43 0 0 1 .74-.93l15.59 8.48c-.263.3-.51.614-.74.94" fill="#3ACFE8"/><path d="M62.19 115.17l-15.59-8.48c.272-.31.563-.604.87-.88l15.59 8.48c-.307.276-.598.57-.87.88M63.06 114.29l-15.59-8.48a11.15 11.15 0 0 1 1.13-.9l15.6 8.48c-.4.273-.782.573-1.14.9" fill="#3ACFE8"/><path d="M64.2 113.39l-15.6-8.48a13.61 13.61 0 0 1 1.83-1L66 112.35a12.43 12.43 0 0 0-1.83 1" fill="#3ACFE8"/><path d="M66 112.35l-15.6-8.49a18.94 18.94 0 0 1 5.37-1.51 15.34 15.34 0 0 1 6 .16L77.36 111a15.54 15.54 0 0 0-6-.16 18.46 18.46 0 0 0-5.36 1.51" fill="#3ACFE8"/><path d="M77.36 111l-15.59-8.49a8.16 8.16 0 0 1 1.64.6L79 111.59a8.16 8.16 0 0 0-1.64-.6" fill="#219ECE"/><path d="M79 111.59l-15.59-8.48c.096.044.19.094.28.15l15.6 8.48-.29-.15" fill="#219ECE"/><path d="M81.32 113.39c2 2.36 3 6.117 3 11.27v18.22c0 5.16-1 9.237-3 12.23-2 2.993-5.307 4.817-9.92 5.47-4.667.667-8-.213-10-2.64s-3-6.233-3-11.42v-18.21c0-5.16 1-9.2 3-12.12s5.333-4.707 10-5.36c4.62-.647 7.927.207 9.92 2.56zm-5.39 32.76v-22.36a11.14 11.14 0 0 0-.9-5.2c-.61-1.12-1.84-1.54-3.69-1.28a4.49 4.49 0 0 0-3.73 2.35 12.92 12.92 0 0 0-.95 5.44v22.35a11.45 11.45 0 0 0 .93 5.26c.63 1.16 1.87 1.6 3.72 1.34a4.38 4.38 0 0 0 3.69-2.37 13.15 13.15 0 0 0 1-5.53h-.07z" fill="#FFF"/></g><g><path fill="#219ECE" d="M43.92 163.77l-15.59-8.48.04-21.93 15.59 8.48zM34.81 136.77l-15.59-8.48 9.16-1.29 15.6 8.48zM43.98 135.48L28.38 127l.04-20.26 15.59 8.48z"/><path fill="#3ACFE8" d="M44.01 115.22l-15.59-8.48 8.22-1.15 15.59 8.48zM26.68 117.66l-15.59-8.48 8.17-1.15 15.59 8.48z"/><path fill="#219ECE" d="M26.59 166.21L11 157.73l.09-48.55 15.59 8.48z"/><path fill="#FFF" d="M52.23 114.07l-.09 48.55-8.22 1.15.04-21.93-9.16 1.29-.04 21.93-8.17 1.15.09-48.55 8.17-1.15-.04 20.26 9.17-1.29.03-20.26z"/></g></g></svg>