<svg width="222" height="177" xmlns="http://www.w3.org/2000/svg"><g fill-rule="nonzero" fill="none"><path fill="#219ECE" d="M201.05 72.11l-15.76-8.57.08-41.89 15.76 8.57z"/><path fill="#FFF" d="M216.31 21.57l-.01 6.52-6.98.98-.07 41.89-8.2 1.15.08-41.89-7.14 1 .01-6.51z"/><path fill="#219ECE" d="M193.99 31.22l-15.76-8.57.01-6.51L194 24.71z"/><path fill="#3ACFE8" d="M194 24.71l-15.76-8.57L200.56 13l15.75 8.57z"/><path fill="#219ECE" d="M183.03 56.72l-15.75-8.57 7.86-1.11 15.75 8.58z"/><path fill="#219ECE" d="M183.02 61.08l-15.75-8.57.01-4.36 15.75 8.57z"/><g fill="#219ECE"><path d="M176.23 69.07l-15.76-8.57a4.13 4.13 0 0 0 2.58.31 4.19 4.19 0 0 0 2.79-1.35 5.37 5.37 0 0 0 1.17-2.7 28.35 28.35 0 0 0 .26-4.25L183 61.08a28.55 28.55 0 0 1-.25 4.25A5.41 5.41 0 0 1 181.6 68a4.25 4.25 0 0 1-2.8 1.34 4.11 4.11 0 0 1-2.57-.27z"/><path d="M176.23 69.07l-15.76-8.57a.31.31 0 0 0 .1 0l15.75 8.57h-.09"/><path d="M176.32 69.12l-15.75-8.57c.178.092.366.163.56.21l15.76 8.57a2.78 2.78 0 0 1-.57-.21M176.89 69.33l-15.76-8.57a4.85 4.85 0 0 0 1.92.05 5.34 5.34 0 0 0 1.61-.45l15.75 8.57a5.26 5.26 0 0 1-1.61.45 4.8 4.8 0 0 1-1.91-.05"/><path d="M180.41 68.93l-15.75-8.57a3.6 3.6 0 0 0 .54-.31l15.8 8.57a2.82 2.82 0 0 1-.54.31"/><path d="M181 68.62l-15.8-8.57a2.91 2.91 0 0 0 .33-.26l15.76 8.57c-.11.09-.22.18-.34.26M181.29 68.36l-15.76-8.57c.09-.09.18-.17.26-.26l15.76 8.57a3.19 3.19 0 0 1-.26.26M181.55 68.1l-15.76-8.57a.18.18 0 0 0 .05-.07 2.91 2.91 0 0 0 .26-.33l15.76 8.57c-.08.12-.17.23-.26.34l-.05.06"/><path d="M181.86 67.7l-15.76-8.57c.11-.157.21-.321.3-.49l15.76 8.57a4.94 4.94 0 0 1-.3.49"/><path d="M182.16 67.21l-15.76-8.57a5.24 5.24 0 0 0 .31-.68l15.75 8.58a5.06 5.06 0 0 1-.3.67"/><path d="M182.46 66.54L166.71 58a7 7 0 0 0 .3-1.2 28.35 28.35 0 0 0 .26-4.25L183 61.08a28.55 28.55 0 0 1-.25 4.25 6.5 6.5 0 0 1-.31 1.21"/></g><path fill="#219ECE" d="M183.06 43.69l-15.76-8.57.01-4.18 15.75 8.57z"/><g fill="#219ECE"><path d="M171.12 75l-15.76-8.57a7.14 7.14 0 0 1-2.26-1.94c-1.933-2.527-2.893-6.357-2.88-11.49L166 61.57c0 5.14.963 8.977 2.89 11.51a7 7 0 0 0 2.23 1.92z"/><path d="M171.12 75l-15.76-8.57a7.14 7.14 0 0 1-2.26-1.94c-1.933-2.527-2.893-6.357-2.88-11.49L166 61.57c0 5.14.963 8.977 2.89 11.51a7 7 0 0 0 2.23 1.92"/></g><g fill="#219ECE"><path d="M165.6 24.45L181.35 33a2 2 0 0 1 .37.25 3.6 3.6 0 0 1 1.13 2.24 26.13 26.13 0 0 1 .21 4l-15.75-8.57a27.48 27.48 0 0 0-.22-4A3.58 3.58 0 0 0 166 24.7a2.31 2.31 0 0 0-.4-.25z"/><path d="M183.06 39.51l-15.75-8.57a27.48 27.48 0 0 0-.22-4A3.58 3.58 0 0 0 166 24.7a2.31 2.31 0 0 0-.36-.25L181.35 33a2 2 0 0 1 .37.25 3.6 3.6 0 0 1 1.13 2.24 26.13 26.13 0 0 1 .21 4"/></g><path d="M170.63 18.56l15.76 8.57c-1.847-1-4.367-1.277-7.56-.83l-15.76-8.57c3.193-.447 5.713-.17 7.56.83z" fill="#3ACFE8"/><path d="M178.83 26.3l-15.76-8.57a14.92 14.92 0 0 1 5.77.14l15.76 8.57a14.92 14.92 0 0 0-5.77-.14" fill="#3ACFE8"/><path d="M184.6 26.44l-15.76-8.57a7.92 7.92 0 0 1 1.53.56L186.13 27a7.92 7.92 0 0 0-1.53-.56" fill="#219ECE"/><path fill="#219ECE" d="M186.13 27l-15.76-8.57.26.13 15.76 8.57-.26-.13M165.97 61.57L150.22 53l.03-17.28L166 44.3z"/><g><path d="M166 44.3l-15.76-8.58c0-5.28 1-9.45 2.9-12.47 1.9-3.02 5.23-4.86 9.92-5.52l15.76 8.57c-4.7.66-8 2.5-9.92 5.52-1.92 3.02-2.9 7.18-2.9 12.48z" fill="#219ECE"/><path d="M166 44.3l-15.76-8.58a28 28 0 0 1 1.44-9.49l15.76 8.57a27.57 27.57 0 0 0-1.44 9.5M167.45 34.8l-15.76-8.57c.26-.715.57-1.41.93-2.08l15.76 8.57c-.36.67-.67 1.365-.93 2.08" fill="#219ECE"/><path d="M168.38 32.72l-15.76-8.57c.17-.31.35-.61.53-.9.08-.13.17-.26.26-.38l15.75 8.57-.25.38c-.192.29-.369.591-.53.9" fill="#219ECE"/><path d="M169.16 31.44l-15.75-8.57a8.11 8.11 0 0 1 .72-.92l15.76 8.57c-.26.293-.503.6-.73.92" fill="#3ACFE8"/><path d="M169.89 30.52L154.13 22a11.5 11.5 0 0 1 .85-.86l15.76 8.57a9.85 9.85 0 0 0-.85.86M170.74 29.66L155 21.09a10.52 10.52 0 0 1 1.1-.87l15.76 8.57a10.52 10.52 0 0 0-1.1.87" fill="#3ACFE8"/><path d="M171.84 28.79l-15.76-8.57a12.42 12.42 0 0 1 1.79-1l15.75 8.57a12.31 12.31 0 0 0-1.78 1M173.62 27.77l-15.75-8.57a18.07 18.07 0 0 1 5.2-1.47l15.76 8.57a18.14 18.14 0 0 0-5.21 1.47" fill="#3ACFE8"/></g><path d="M178.83 26.3c4.38-.62 7.51.14 9.35 2.27 1.84 2.13 2.76 5.46 2.75 10v4.07l-7.86 1.1v-4.23a26.13 26.13 0 0 0-.21-4 3.6 3.6 0 0 0-1.13-2.24 3.54 3.54 0 0 0-2.85-.52 4.71 4.71 0 0 0-3 1.4 5.77 5.77 0 0 0-1.31 2.85 24.29 24.29 0 0 0-.31 4.31v21c0 2.75.32 4.69 1 5.81.68 1.12 1.86 1.56 3.59 1.31A4.25 4.25 0 0 0 181.6 68a5.41 5.41 0 0 0 1.17-2.71 28.55 28.55 0 0 0 .25-4.25v-4.32l7.87-1.1v3.88c0 4.667-.913 8.41-2.74 11.23-1.81 2.82-4.94 4.55-9.42 5.18-4.667.667-7.957-.277-9.87-2.83-1.913-2.553-2.867-6.39-2.86-11.51V44.3c0-5.29 1-9.46 2.9-12.48 1.9-3.02 5.23-4.82 9.93-5.52z" fill="#FFF"/><g><path fill="#219ECE" d="M155.04 78.58l-15.76-8.57-1.75-10.93 15.75 8.57zM146.32 63.02l-15.76-8.58 6.09-.85 15.76 8.57zM152.41 62.16l-15.76-8.57-3.01-19.89 15.76 8.57z"/><path d="M153.74 30.36l8.88 47.15-7.62 1.07-1.76-10.93-7.8 1.1-1.85 11.43-7.7 1.08L145 31.59l8.74-1.23zM146.32 63l6.09-.86-3-19.89L146.32 63z" fill="#FFF"/><path fill="#219ECE" d="M135.93 81.27l-15.75-8.58 9.06-49.67 15.75 8.57z"/><path fill="#3ACFE8" d="M144.99 31.59l-15.75-8.57 8.75-1.23 15.75 8.57z"/></g><g><path fill="#219ECE" d="M120.04 83.5l-15.76-8.57.08-41.9 15.76 8.57z"/><path fill="#FFF" d="M135.3 32.96l-.01 6.51-6.98.98-.07 41.9-8.2 1.15.08-41.9-7.14 1.01.01-6.52z"/><path fill="#219ECE" d="M112.98 42.61l-15.76-8.57.01-6.52 15.76 8.57z"/><path fill="#3ACFE8" d="M112.99 36.09l-15.76-8.57 22.32-3.14 15.75 8.58z"/></g><g><path fill="#219ECE" d="M102.03 65.24l-15.76-8.57.05-27.62 15.76 8.58z"/><path fill="#219ECE" d="M103.32 85.85l-15.76-8.57-10.91-27.39 15.76 8.57z"/><path fill="#3ACFE8" d="M102.08 37.63l-15.76-8.58 6.76-.94 15.75 8.57z"/><path fill="#FFF" d="M108.83 36.68l-.09 48.41-5.42.76-10.91-27.39-.06 28.93-6.97.98.09-48.41 5.7-.8 10.86 26.08.05-27.61z"/><path fill="#219ECE" d="M85.38 88.37L69.62 79.8l.09-48.41 15.76 8.57z"/><path fill="#3ACFE8" d="M85.47 39.96l-15.76-8.57 5.7-.8 15.76 8.57z"/></g><g><g fill="#219ECE"><path d="M63.75 84.86L48 76.29a5.27 5.27 0 0 0 6.36-2 13 13 0 0 0 .95-5.51l15.76 8.57a13.15 13.15 0 0 1-.95 5.51 5.27 5.27 0 0 1-6.36 2h-.01z"/><path d="M63.75 84.86L48 76.29l.1.05 15.76 8.57a.31.31 0 0 1-.1 0"/><path d="M63.85 84.91l-15.76-8.57a2.4 2.4 0 0 0 .57.21l15.75 8.57a2.49 2.49 0 0 1-.56-.21"/><path d="M64.41 85.12l-15.75-8.57a5.19 5.19 0 0 0 2 .05 6 6 0 0 0 1.77-.5l15.75 8.58a6.18 6.18 0 0 1-1.76.49 5.06 5.06 0 0 1-2 0M68.21 84.68L52.46 76.1a4 4 0 0 0 .61-.35l15.76 8.57a5.3 5.3 0 0 1-.62.36"/><path d="M68.83 84.32l-15.76-8.57a2.88 2.88 0 0 0 .39-.3L69.22 84a2.88 2.88 0 0 1-.39.3"/><path d="M69.22 84l-15.76-8.57c.11-.1.2-.2.3-.3l15.75 8.57-.29.3"/><path d="M69.51 83.72l-15.75-8.57a4.08 4.08 0 0 0 .25-.33l15.76 8.57a2.69 2.69 0 0 1-.26.33"/><path d="M69.77 83.39L54 74.82a2.55 2.55 0 0 0 .24-.39L70 83a2.55 2.55 0 0 1-.24.39"/><path d="M70 83l-15.76-8.57a5.39 5.39 0 0 0 .35-.79l15.76 8.57c-.08.21-.16.41-.25.6L70 83M70.36 82.21L54.6 73.64a14.48 14.48 0 0 0 .7-4.91l15.76 8.57a14.48 14.48 0 0 1-.7 4.91"/></g><path fill="#219ECE" d="M71.06 77.3L55.3 68.73l.05-22.3L71.1 55z"/><g fill="#219ECE"><path d="M53.48 40.27l15.75 8.57a2.45 2.45 0 0 1 1 1 11.28 11.28 0 0 1 .9 5.19l-15.75-8.57a11.26 11.26 0 0 0-.91-5.19 2.42 2.42 0 0 0-.99-1z"/><path d="M71.1 55l-15.75-8.57a11.26 11.26 0 0 0-.91-5.19 2.42 2.42 0 0 0-1-1l15.75 8.57a2.45 2.45 0 0 1 1 1 11.28 11.28 0 0 1 .9 5.19"/></g><g fill="#219ECE"><path d="M58.58 90.78l-15.76-8.57a7.15 7.15 0 0 1-2.1-1.73c-2-2.41-3-6.19-3-11.38l15.76 8.57c0 5.187 1 8.983 3 11.39a7 7 0 0 0 2.1 1.72z"/><path d="M58.58 90.78l-15.76-8.57a7.15 7.15 0 0 1-2.1-1.73c-2-2.41-3-6.19-3-11.38l15.76 8.57c0 5.187 1 8.983 3 11.39a7 7 0 0 0 2.1 1.72"/></g><path fill="#219ECE" d="M53.51 77.67L37.75 69.1l.04-18.17 15.75 8.57z"/><path d="M58.65 34.42L74.4 43c-1.95-1.07-4.58-1.37-7.87-.91-4.667.667-8 2.45-10 5.35-2 2.9-3 6.923-3 12.07l-15.75-8.57c0-5.14 1-9.163 3-12.07s5.333-4.69 10-5.35c3.28-.467 5.903-.167 7.87.9z" fill="#219ECE"/><path d="M53.54 59.5l-15.75-8.57a25.74 25.74 0 0 1 1.35-8.81l15.76 8.57a25.77 25.77 0 0 0-1.36 8.81" fill="#219ECE"/><path d="M54.9 50.69l-15.76-8.57a14.21 14.21 0 0 1 .9-2l15.76 8.57a14.74 14.74 0 0 0-.9 2" fill="#219ECE"/><path d="M55.8 48.68L40 40.11c.227-.432.481-.85.76-1.25l.06-.09 15.76 8.57-.06.09a10.4 10.4 0 0 0-.76 1.25" fill="#219ECE"/><path d="M56.62 47.34l-15.76-8.57c.23-.326.477-.64.74-.94l15.75 8.58c-.26.297-.503.607-.73.93M57.35 46.41L41.6 37.83c.27-.3.56-.59.86-.87l15.76 8.57c-.307.276-.598.57-.87.88" fill="#3ACFE8"/><path d="M58.22 45.53L42.46 37a12.43 12.43 0 0 1 1.14-.89l15.75 8.57c-.396.272-.773.57-1.13.89M59.35 44.64L43.6 36.07A12.9 12.9 0 0 1 45.42 35l15.76 8.57a12.47 12.47 0 0 0-1.83 1.05" fill="#3ACFE8"/><path d="M61.18 43.59L45.42 35a18.8 18.8 0 0 1 5.35-1.51 15.49 15.49 0 0 1 6 .16l15.75 8.57a15.43 15.43 0 0 0-6-.16 18.71 18.71 0 0 0-5.35 1.51" fill="#3ACFE8"/><path d="M72.48 42.24l-15.75-8.57a8.39 8.39 0 0 1 1.64.6l15.75 8.57a8.16 8.16 0 0 0-1.64-.6" fill="#219ECE"/><path fill="#219ECE" d="M74.12 42.84l-15.75-8.57.28.15L74.4 43l-.28-.15"/><path d="M76.43 44.63c2 2.347 3 6.093 3 11.24v18.17c0 5.14-1 9.207-3 12.2-2 3-5.31 4.8-9.89 5.45-4.58.65-8-.23-10-2.63s-3-6.2-3-11.39V59.5c0-5.14 1-9.163 3-12.07s5.333-4.69 10-5.35c4.6-.64 7.91.21 9.89 2.55zM71.06 77.3V55a11.28 11.28 0 0 0-.9-5.19c-.61-1.11-1.84-1.53-3.68-1.27a4.45 4.45 0 0 0-3.71 2.34 12.8 12.8 0 0 0-1 5.42v22.3a11.32 11.32 0 0 0 .93 5.24c.62 1.16 1.87 1.59 3.71 1.33a4.36 4.36 0 0 0 3.66-2.36 13.15 13.15 0 0 0 .95-5.51h.04z" fill="#FFF"/></g><g><path fill="#219ECE" d="M40.67 76.73l-15.76-8.57 7.87-1.11 15.75 8.57z"/><path fill="#219ECE" d="M40.66 81.09L24.9 72.52l.01-4.36 15.76 8.57z"/><g fill="#219ECE"><path d="M33.86 89.08l-15.75-8.57a4.11 4.11 0 0 0 2.57.31 4.26 4.26 0 0 0 2.8-1.35 5.41 5.41 0 0 0 1.17-2.7 29.86 29.86 0 0 0 .26-4.25l15.75 8.57a28.35 28.35 0 0 1-.26 4.25 5.28 5.28 0 0 1-1.16 2.7 4.22 4.22 0 0 1-2.8 1.35 4.13 4.13 0 0 1-2.58-.31z"/><path d="M33.86 89.08l-15.75-8.57h.1L34 89.13h-.1"/><path d="M34 89.13l-15.75-8.57c.18.088.367.158.56.21l15.76 8.57a2.58 2.58 0 0 1-.57-.21"/><path d="M34.53 89.34l-15.76-8.57a5 5 0 0 0 1.91 0 5.78 5.78 0 0 0 1.61-.45l15.76 8.57a5.34 5.34 0 0 1-1.61.45 4.8 4.8 0 0 1-1.91 0"/><path d="M38.05 88.94l-15.76-8.57a4.14 4.14 0 0 0 .55-.31l15.75 8.57a4.74 4.74 0 0 1-.54.31"/><path d="M38.59 88.63l-15.75-8.57a2.78 2.78 0 0 0 .33-.27l15.76 8.57a2.88 2.88 0 0 1-.34.27M38.93 88.36l-15.76-8.57a2.13 2.13 0 0 0 .26-.26l15.75 8.58a3 3 0 0 1-.25.25"/><path d="M39.18 88.11l-15.75-8.58.05-.06.26-.33 15.75 8.57a4.08 4.08 0 0 1-.25.33l-.06.07M39.49 87.71l-15.75-8.57c.11-.157.21-.321.3-.49l15.76 8.57c-.1.17-.2.33-.31.49"/><path d="M39.8 87.22L24 78.65c.12-.217.22-.445.3-.68l15.76 8.57a7 7 0 0 1-.3.68"/><path d="M40.1 86.54L24.34 78a6.2 6.2 0 0 0 .31-1.2 29.86 29.86 0 0 0 .26-4.25l15.75 8.57a28.35 28.35 0 0 1-.26 4.25 5.55 5.55 0 0 1-.3 1.2"/></g><path fill="#219ECE" d="M40.69 63.7l-15.75-8.57v-4.18l15.76 8.57z"/><g fill="#219ECE"><path d="M28.75 95L13 86.46a7 7 0 0 1-2.26-1.94C8.813 81.98 7.85 78.14 7.85 73l15.76 8.58c0 5.14.963 8.977 2.89 11.51A7 7 0 0 0 28.75 95z"/><path d="M28.75 95L13 86.46a7 7 0 0 1-2.26-1.94C8.813 81.98 7.85 78.14 7.85 73l15.76 8.58c0 5.14.963 8.977 2.89 11.51A7 7 0 0 0 28.75 95"/></g><g fill="#219ECE"><path d="M23.23 44.45L39 53c.134.075.261.162.38.26a3.58 3.58 0 0 1 1.13 2.23 27.74 27.74 0 0 1 .21 4L25 50.94a27.42 27.42 0 0 0-.22-4 3.53 3.53 0 0 0-1.13-2.23 2.45 2.45 0 0 0-.42-.26z"/><path d="M40.7 59.52L25 50.94a27.42 27.42 0 0 0-.22-4 3.53 3.53 0 0 0-1.13-2.23 2.45 2.45 0 0 0-.37-.26L39 53c.134.075.261.162.38.26a3.58 3.58 0 0 1 1.13 2.23 27.74 27.74 0 0 1 .21 4"/></g><path d="M28.26 38.57L44 47.14c-1.84-1-4.36-1.277-7.56-.83l-15.75-8.57c3.207-.447 5.73-.17 7.57.83z" fill="#3ACFE8"/><path d="M36.46 46.31l-15.75-8.57a14.92 14.92 0 0 1 5.77.14l15.75 8.57a14.9 14.9 0 0 0-5.77-.14" fill="#3ACFE8"/><path d="M42.23 46.45l-15.75-8.57a7.31 7.31 0 0 1 1.53.56L43.76 47a7.92 7.92 0 0 0-1.53-.56" fill="#219ECE"/><path d="M43.76 47L28 38.44l.25.13L44 47.14a2.1 2.1 0 0 0-.26-.13M23.61 81.58L7.85 73.01l.04-17.28 15.75 8.57z" fill="#219ECE"/><g><path d="M23.64 64.3L7.89 55.73c0-5.29 1-9.46 2.9-12.47s5.24-4.86 9.92-5.52l15.75 8.57c-4.667.667-7.973 2.507-9.92 5.52-1.91 3.01-2.89 7.17-2.9 12.47z" fill="#219ECE"/><path d="M23.64 64.3L7.89 55.73a27.59 27.59 0 0 1 1.45-9.5l15.75 8.57a28.08 28.08 0 0 0-1.45 9.5" fill="#219ECE"/><path d="M25.09 54.8L9.34 46.23c.26-.721.57-1.423.93-2.1L26 52.71a17.39 17.39 0 0 0-.94 2.09" fill="#219ECE"/><path d="M26 52.71l-15.76-8.58c.17-.3.34-.59.52-.87l.25-.38 15.76 8.57c-.09.12-.17.25-.26.38-.18.28-.35.57-.51.88" fill="#219ECE"/><path d="M26.8 51.45L11 42.88c.23-.32.47-.63.72-.92l15.76 8.57c-.26.29-.5.598-.72.92" fill="#3ACFE8"/><path d="M27.52 50.53L11.76 42a11.5 11.5 0 0 1 .85-.86l15.76 8.57a11.5 11.5 0 0 0-.85.86M28.37 49.67L12.61 41.1a11.82 11.82 0 0 1 1.11-.87l15.75 8.57a10.52 10.52 0 0 0-1.1.87M29.47 48.8l-15.75-8.57a12.42 12.42 0 0 1 1.79-1l15.75 8.57a13 13 0 0 0-1.79 1M31.26 47.78l-15.75-8.57a18.17 18.17 0 0 1 5.2-1.47l15.75 8.57a18.26 18.26 0 0 0-5.2 1.47" fill="#3ACFE8"/></g><path d="M36.46 46.31c4.413-.62 7.53.137 9.35 2.27 1.86 2.13 2.76 5.45 2.75 10v4.06l-7.87 1.11v-4.23a27.74 27.74 0 0 0-.21-4 3.58 3.58 0 0 0-1.13-2.23 3.46 3.46 0 0 0-2.85-.52 4.71 4.71 0 0 0-3 1.4 5.8 5.8 0 0 0-1.3 2.82 25.11 25.11 0 0 0-.31 4.31v21c0 2.753.333 4.69 1 5.81.67 1.13 1.87 1.56 3.6 1.31a4.22 4.22 0 0 0 2.8-1.35 5.28 5.28 0 0 0 1.16-2.7 28.35 28.35 0 0 0 .26-4.25v-4.39l7.86-1.11v3.89c0 4.667-.913 8.41-2.74 11.23-1.8 2.82-4.95 4.55-9.42 5.17-4.667.667-7.957-.273-9.87-2.82-1.913-2.547-2.877-6.383-2.89-11.51V64.3c0-5.29 1-9.46 2.9-12.47s5.23-4.83 9.91-5.52z" fill="#FFF"/></g></g></svg>