<svg width="176" height="177" xmlns="http://www.w3.org/2000/svg"><g fill-rule="nonzero" fill="none"><path fill="#219ECE" d="M153.31 125.62l-15.76-8.57.08-41.89 15.76 8.57z"/><path fill="#FFF" d="M168.57 75.08l-.01 6.51-6.98.99-.08 41.89-8.19 1.15.08-41.89-7.15 1 .01-6.51z"/><path fill="#219ECE" d="M146.24 84.73l-15.75-8.57.01-6.51 15.75 8.57z"/><path fill="#3ACFE8" d="M146.25 78.22l-15.75-8.57 22.31-3.14 15.76 8.57z"/><g fill="#219ECE"><path d="M127.3 122.7l-15.76-8.57a3.93 3.93 0 0 0 2.49.31 4.38 4.38 0 0 0 3.8-2.8 19 19 0 0 0 .92-6.58l15.76 8.57a19 19 0 0 1-.93 6.58 4.36 4.36 0 0 1-3.79 2.8 3.93 3.93 0 0 1-2.49-.31z"/><path d="M127.3 122.7l-15.76-8.57.1.05 15.76 8.57h-.1"/><path d="M127.4 122.75l-15.76-8.57c.178.092.366.163.56.21L128 123a2.49 2.49 0 0 1-.56-.21"/><path d="M128 123l-15.76-8.57a4.78 4.78 0 0 0 1.83 0 5.76 5.76 0 0 0 1.66-.47l15.76 8.57a5.55 5.55 0 0 1-1.66.47 4.78 4.78 0 0 1-1.83 0"/><path d="M131.45 122.54L115.69 114a4.19 4.19 0 0 0 .62-.36l15.76 8.58a4.14 4.14 0 0 1-.62.35M132.07 122.19l-15.76-8.58a3 3 0 0 0 .4-.31l15.76 8.57c-.13.11-.26.22-.4.32"/><path d="M132.47 121.87l-15.76-8.57c.103-.094.2-.194.29-.3l15.76 8.57-.32.32M132.79 121.55L117 113c.1-.11.19-.23.28-.35l15.75 8.57c-.08.12-.18.24-.27.35M133.06 121.2l-15.75-8.57c.09-.14.18-.29.26-.44l15.76 8.57a3.23 3.23 0 0 1-.27.44"/><path d="M133.33 120.76l-15.76-8.57a4.64 4.64 0 0 0 .26-.55v-.12l15.76 8.57-.05.12a4.6 4.6 0 0 1-.25.55M133.63 120.09l-15.76-8.57a19.34 19.34 0 0 0 .88-6.46l15.76 8.57a19.61 19.61 0 0 1-.88 6.46"/></g><g fill="#219ECE"><path d="M122.14 128.75l-15.76-8.57a8.3 8.3 0 0 1-3.87-4.9 29.12 29.12 0 0 1-1.09-8.81l15.76 8.58a28.9 28.9 0 0 0 1.09 8.81 8.27 8.27 0 0 0 3.87 4.89z"/><path d="M122.14 128.75l-15.76-8.57a8.3 8.3 0 0 1-3.87-4.9 29.12 29.12 0 0 1-1.09-8.81l15.76 8.58a28.9 28.9 0 0 0 1.09 8.81 8.27 8.27 0 0 0 3.87 4.89"/></g><path fill="#219ECE" d="M134.51 113.63l-15.76-8.57.07-33.77 15.75 8.57z"/><path fill="#3ACFE8" d="M134.57 79.86l-15.75-8.57 7.91-1.12 15.76 8.58zM117.24 82.3l-15.76-8.58 7.98-1.12 15.75 8.57z"/><path fill="#219ECE" d="M117.18 115.05l-15.76-8.58.06-32.75 15.76 8.58z"/><path d="M142.49 78.75l-.06 32.75a32.08 32.08 0 0 1-1.12 9.09 12 12 0 0 1-3.89 6 15 15 0 0 1-7.65 3c-3.24.453-5.783.173-7.63-.84a8.27 8.27 0 0 1-3.87-4.89 28.9 28.9 0 0 1-1.09-8.81l.06-32.76 8-1.12-.06 33.77a17.09 17.09 0 0 0 .9 6.33c.61 1.42 1.85 2 3.74 1.74a4.36 4.36 0 0 0 3.79-2.8 19 19 0 0 0 .93-6.58l.06-33.77 7.89-1.11z" fill="#FFF"/><g><g fill="#219ECE"><path d="M95.86 127.15l-15.75-8.57c.84.392 1.783.5 2.69.31a4.38 4.38 0 0 0 3.66-2.36 13.07 13.07 0 0 0 .95-5.52l15.75 8.57a12.89 12.89 0 0 1-.95 5.52 5.25 5.25 0 0 1-6.35 2.05z"/><path d="M95.86 127.15l-15.75-8.57h.09L96 127.2h-.1"/><path d="M96 127.2l-15.76-8.57c.182.09.373.161.57.21l15.76 8.57a2.4 2.4 0 0 1-.57-.21"/><path d="M96.53 127.41l-15.76-8.57a5.4 5.4 0 0 0 2 0 5.87 5.87 0 0 0 1.76-.5l15.79 8.66a6 6 0 0 1-1.76.5c-.66.13-1.34.13-2 0"/><path d="M100.32 127l-15.76-8.57a4.14 4.14 0 0 0 .62-.35l15.75 8.57a4 4 0 0 1-.61.35M100.93 126.61L85.18 118c.14-.09.26-.2.39-.3l15.75 8.57a2.88 2.88 0 0 1-.39.3"/><path d="M101.32 126.31l-15.75-8.57c.1-.1.2-.2.29-.31l15.76 8.57c-.087.1-.187.2-.3.3"/><path d="M101.62 126l-15.76-8.58a4 4 0 0 0 .26-.32l15.76 8.57-.26.33"/><path d="M101.88 125.68l-15.76-8.57a2.55 2.55 0 0 0 .24-.39l15.75 8.57a3.64 3.64 0 0 1-.23.39M102.11 125.29l-15.75-8.57.1-.19c.09-.2.18-.41.26-.63l15.76 8.57a6 6 0 0 1-.37.82"/><path d="M102.48 124.47l-15.76-8.57a14.42 14.42 0 0 0 .69-4.89l15.75 8.57a14.45 14.45 0 0 1-.68 4.89"/></g><path fill="#219ECE" d="M103.16 119.58l-15.75-8.57.04-22.29 15.76 8.57z"/><g fill="#219ECE"><path d="M85.58 82.56l15.76 8.57a2.36 2.36 0 0 1 1 1 11.26 11.26 0 0 1 .91 5.19l-15.76-8.57a11.41 11.41 0 0 0-.9-5.19 2.45 2.45 0 0 0-1.01-1z"/><path d="M103.21 97.29l-15.76-8.57a11.41 11.41 0 0 0-.9-5.19 2.45 2.45 0 0 0-1-1l15.76 8.57a2.36 2.36 0 0 1 1 1 11.26 11.26 0 0 1 .91 5.19"/></g><g fill="#219ECE"><path d="M90.68 133.07l-15.75-8.57a6.9 6.9 0 0 1-2.1-1.73c-2-2.407-3-6.2-3-11.38L85.62 120c0 5.18 1 8.973 3 11.38a7.15 7.15 0 0 0 2.06 1.69z"/><path d="M90.68 133.07l-15.75-8.57a6.9 6.9 0 0 1-2.1-1.73c-2-2.407-3-6.2-3-11.38L85.62 120c0 5.18 1 8.973 3 11.38a7.15 7.15 0 0 0 2.1 1.73"/></g><path fill="#219ECE" d="M85.62 119.96l-15.76-8.57.03-18.17 15.76 8.57z"/><path d="M90.75 76.7l15.76 8.57c-1.96-1.06-4.583-1.36-7.87-.9-4.667.667-8 2.45-10 5.35-2 2.9-3 6.923-3 12.07l-15.76-8.57c0-5.14 1-9.163 3-12.07s5.333-4.69 10-5.35c3.3-.46 5.923-.16 7.87.9z" fill="#219ECE"/><path d="M85.65 101.79l-15.76-8.57a25.79 25.79 0 0 1 1.36-8.82L87 93a26 26 0 0 0-1.35 8.82" fill="#219ECE"/><path d="M87 93l-15.75-8.6a15.9 15.9 0 0 1 .89-2L87.9 91a14.61 14.61 0 0 0-.9 2" fill="#219ECE"/><path d="M87.9 91l-15.76-8.6c.23-.432.488-.85.77-1.25l.06-.09 15.75 8.57-.06.09c-.276.413-.53.84-.76 1.28M88.72 89.63L73 81.06a9.45 9.45 0 0 1 .73-.94l15.76 8.57c-.263.3-.51.614-.74.94" fill="#219ECE"/><path d="M89.46 88.69L73.7 80.12a11.9 11.9 0 0 1 .87-.87l15.75 8.57c-.3.28-.59.57-.86.87" fill="#3ACFE8"/><path d="M90.32 87.82l-15.75-8.57a9.83 9.83 0 0 1 1.13-.89l15.76 8.57c-.4.271-.78.568-1.14.89" fill="#3ACFE8"/><path d="M91.46 86.93L75.7 78.36a12.47 12.47 0 0 1 1.83-1l15.75 8.57a12.9 12.9 0 0 0-1.82 1.05M93.28 85.88l-15.75-8.57a18.71 18.71 0 0 1 5.35-1.51 15.23 15.23 0 0 1 6 .16l15.76 8.57a15.43 15.43 0 0 0-6-.16 18.78 18.78 0 0 0-5.36 1.51" fill="#3ACFE8"/><path d="M104.59 84.53L88.83 76a8.81 8.81 0 0 1 1.64.59l15.76 8.58a8.39 8.39 0 0 0-1.64-.6M106.23 85.13l-15.76-8.58.28.15 15.76 8.57-.28-.14" fill="#219ECE"/><path d="M108.54 86.92c2 2.347 3 6.093 3 11.24v18.17c0 5.14-1 9.21-3 12.19-2 2.98-5.3 4.81-9.89 5.46-4.59.65-8-.23-10-2.64s-3-6.2-3-11.38v-18.17c0-5.14 1-9.163 3-12.07s5.333-4.69 10-5.35c4.61-.65 7.9.2 9.89 2.55zm-5.38 32.66l.05-22.29a11.26 11.26 0 0 0-.91-5.19c-.6-1.11-1.82-1.53-3.68-1.27a4.48 4.48 0 0 0-3.71 2.34 12.67 12.67 0 0 0-.95 5.42v22.29c-.116 1.8.203 3.6.93 5.25.63 1.15 1.86 1.59 3.71 1.33a4.35 4.35 0 0 0 3.65-2.36 12.89 12.89 0 0 0 .95-5.52h-.04z" fill="#FFF"/></g><g><g fill="#219ECE"><path d="M66.77 131.57L51 123c2.4-.34 4.07-1.18 5-2.55L71.76 129c-.92 1.39-2.58 2.23-4.99 2.57z"/><path d="M66.77 131.57L51 123a10.14 10.14 0 0 0 2.85-.79l15.76 8.57a10.22 10.22 0 0 1-2.86.79M69.63 130.78l-15.76-8.57c.305-.144.6-.311.88-.5l15.75 8.57a6 6 0 0 1-.87.5"/><path d="M70.5 130.28l-15.75-8.57a5.08 5.08 0 0 0 .51-.41L71 129.87a4.16 4.16 0 0 1-.51.41"/><path d="M71 129.87l-15.75-8.57c.134-.12.26-.246.38-.38l15.75 8.57a3.41 3.41 0 0 1-.38.38M71.39 129.49l-15.75-8.57c.11-.12.21-.26.31-.39l15.75 8.57a3 3 0 0 1-.31.39M71.7 129.1L56 120.53a.56.56 0 0 1 .05-.08L71.76 129l-.06.08"/></g><path fill="#219ECE" d="M63.62 132.01l-15.76-8.57 3.16-.44 15.75 8.57z"/><g fill="#219ECE"><path d="M54.87 107.18l15.76 8.57c.382.212.72.494 1 .83 1 1.2 1.52 3.23 1.51 6.15-.01 2.92-.46 4.92-1.39 6.29L56 120.45c.93-1.37 1.39-3.47 1.4-6.29.01-2.82-.49-5-1.51-6.15a3.72 3.72 0 0 0-1.02-.83z"/><path d="M71.76 129L56 120.45c.11-.157.21-.321.3-.49l15.76 8.57-.3.49"/><path d="M72.06 128.53L56.3 120a7.26 7.26 0 0 0 .4-.89l15.75 8.57a9.16 9.16 0 0 1-.39.89M72.45 127.64l-15.75-8.57a14.64 14.64 0 0 0 .7-4.91c0-2.92-.49-5-1.51-6.15a3.72 3.72 0 0 0-1-.83l15.76 8.57c.382.212.72.494 1 .83 1 1.2 1.52 3.23 1.51 6.15a14.39 14.39 0 0 1-.7 4.91"/></g><g fill="#219ECE"><path d="M61 103.21l15.75 8.57a8.56 8.56 0 0 0-3.54-1l-15.75-8.58a8.57 8.57 0 0 1 3.54 1.01z"/><path d="M73.23 110.83l-15.75-8.58c.61.042 1.217.14 1.81.29L75 111.11a9.15 9.15 0 0 0-1.81-.28"/><path d="M75 111.11l-15.75-8.57a7.16 7.16 0 0 1 1.47.54l15.76 8.57a7 7 0 0 0-1.48-.54M76.52 111.65l-15.76-8.57.26.13 15.75 8.57-.25-.13"/></g><path fill="#219ECE" d="M63.66 109.6l-15.76-8.57 2.83-.4 15.75 8.57z"/><g fill="#219ECE"><path d="M55 87.58l15.76 8.57.23.15c1.14.73 1.69 2.34 1.68 4.81a10.1 10.1 0 0 1-1.31 5.71c-.86 1.26-2.48 2.05-4.85 2.39l-15.75-8.58c2.36-.33 4-1.12 4.84-2.38a10.09 10.09 0 0 0 1.32-5.71c0-2.47-.55-4.08-1.68-4.81l-.24-.15z"/><path d="M66.48 109.21l-15.75-8.58a10.17 10.17 0 0 0 2.88-.79l15.76 8.57a10.14 10.14 0 0 1-2.89.8"/><path d="M69.37 108.41l-15.76-8.57c.291-.14.572-.3.84-.48l15.76 8.57a6.81 6.81 0 0 1-.84.48"/><path d="M70.21 107.93l-15.76-8.57a4.45 4.45 0 0 0 .48-.38l15.75 8.57a3.54 3.54 0 0 1-.47.38"/><path d="M70.68 107.55L54.93 99c.12-.106.234-.22.34-.34L71 107.21a3.76 3.76 0 0 1-.35.34M71 107.21l-15.76-8.57c.103-.118.2-.242.29-.37l15.76 8.57c-.09.13-.19.25-.29.37M71.32 106.84l-15.76-8.57a4.33 4.33 0 0 0 .31-.51l15.76 8.57c-.1.18-.2.35-.31.51M71.64 106.31l-15.76-8.57a6.17 6.17 0 0 0 .37-.82L72 105.49a5.64 5.64 0 0 1-.37.82"/><path d="M72 105.49l-15.76-8.57a13.16 13.16 0 0 0 .64-4.38c0-2.47-.55-4.08-1.68-4.81l-.24-.15 15.76 8.57.23.15c1.14.73 1.69 2.34 1.68 4.81a12.89 12.89 0 0 1-.63 4.38"/></g><path d="M59.89 81.83l15.75 8.57c-2.19-1.19-5.2-1.53-9-1l-15.76-8.57c3.807-.553 6.81-.22 9.01 1z" fill="#219ECE"/><path d="M66.63 89.41l-15.76-8.57a17.86 17.86 0 0 1 6.89.16l15.75 8.57a18 18 0 0 0-6.88-.16" fill="#3ACFE8"/><path d="M73.51 89.57L57.76 81a9.78 9.78 0 0 1 1.82.67l15.76 8.57a9.89 9.89 0 0 0-1.83-.67M75.34 90.24l-15.76-8.57.31.16 15.75 8.57-.3-.16" fill="#219ECE"/><path fill="#3ACFE8" d="M55.56 90.96L39.8 82.39l11.07-1.55 15.76 8.57z"/><path fill="#219ECE" d="M55.47 139.37l-15.76-8.57.09-48.41 15.76 8.57z"/><path d="M73.23 110.83c5.18.34 7.757 3.96 7.73 10.86 0 4.667-1.057 8.333-3.17 11s-5.237 4.29-9.37 4.87l-13 1.82.13-48.38 11.08-1.55c4.253-.6 7.5-.12 9.74 1.44s3.36 4.597 3.36 9.11a13.59 13.59 0 0 1-1.67 7.14 8.4 8.4 0 0 1-4.83 3.69zM71.76 129c.933-1.367 1.397-3.463 1.39-6.29 0-2.92-.48-5-1.51-6.15-1.03-1.15-2.71-1.62-5.11-1.29l-2.88.41v16.31l3.15-.44c2.41-.34 4.07-1.18 5-2.55h-.04zm-8.04-33v13.62l2.82-.39c2.37-.34 4-1.13 4.85-2.39a10.1 10.1 0 0 0 1.31-5.71c0-2.47-.54-4.08-1.68-4.81-1.14-.73-3-.93-5.62-.56l-1.66.24h-.02z" fill="#FFF"/></g><g><path fill="#219ECE" d="M43.39 141.07l-15.75-8.57-1.75-10.93 15.75 8.57zM34.68 125.51l-15.76-8.57 6.09-.86 15.76 8.57z"/><path fill="#219ECE" d="M40.77 124.65l-15.76-8.57L22 96.19l15.76 8.57z"/><path d="M42.1 92.86L51 140l-7.59 1.07-1.75-10.93-7.8 1.1L32 142.67l-7.7 1.09 9.06-49.68 8.74-1.22zm-7.42 32.65l6.09-.86-3-19.89-3.08 20.75h-.01z" fill="#FFF"/><path fill="#219ECE" d="M24.29 143.75l-15.76-8.57 9.06-49.67 15.76 8.57z"/><path fill="#3ACFE8" d="M33.35 94.08l-15.76-8.57 8.75-1.23 15.76 8.58z"/></g></g></svg>