<svg width="157" height="177" xmlns="http://www.w3.org/2000/svg"><g fill-rule="nonzero" fill="none"><path fill="#219ECE" d="M142.54 102.4l-15.76-8.57-7.43-20.94 15.76 8.57zM133.12 76.6l-15.75-8.57 8.95-22.53 15.76 8.57z"/><path fill="#3ACFE8" d="M142.08 54.07l-15.76-8.57 7.81-1.1 15.75 8.57z"/><path fill="#FFF" d="M149.88 52.97l-8.62 22.78 9.42 25.51-8.14 1.14-7.43-20.94-2 3.92-.04 18.35-8.14 1.15.09-48.41 8.14-1.15-.04 21.28 8.96-22.53z"/><path fill="#219ECE" d="M124.93 104.88l-15.75-8.57.09-48.41 15.75 8.57z"/><path fill="#3ACFE8" d="M125.02 56.47l-15.75-8.57 8.14-1.15 15.75 8.57z"/><g><path fill="#219ECE" d="M111.25 106.8L95.5 98.23l-5.33-21.42 15.75 8.57z"/><g fill="#219ECE"><path d="M104.66 80.06l-15.75-8.57c2.32-.33 4-1.14 4.95-2.43l15.76 8.57c-.97 1.29-2.62 2.1-4.96 2.43z"/><path d="M104.66 80.06l-15.75-8.57a10.2 10.2 0 0 0 2.88-.81l15.76 8.57a10.18 10.18 0 0 1-2.89.81"/><path d="M107.55 79.25l-15.76-8.57a6.16 6.16 0 0 0 .91-.52l15.76 8.57a5.38 5.38 0 0 1-.91.52M108.46 78.73L92.7 70.16a5.56 5.56 0 0 0 .54-.42L109 78.31a5.56 5.56 0 0 1-.54.42"/><path d="M109 78.31l-15.76-8.57.4-.4 15.75 8.57a4.89 4.89 0 0 1-.39.4"/><path d="M109.39 77.91l-15.75-8.57a3 3 0 0 0 .22-.28l15.76 8.57a3.11 3.11 0 0 1-.23.28"/></g><path fill="#219ECE" d="M102.06 80.43L86.3 71.85l2.6-.36 15.76 8.57z"/><g fill="#219ECE"><path d="M93.21 57.12L109 65.69a3 3 0 0 1 .84.68c.87 1 1.29 2.84 1.29 5.38s-.49 4.59-1.48 5.88l-15.76-8.57c1-1.29 1.48-3.26 1.48-5.88s-.42-4.35-1.29-5.38a2.79 2.79 0 0 0-.87-.68z"/><path d="M109.62 77.63l-15.76-8.57c.046-.05.09-.104.13-.16l15.75 8.57-.12.16M109.74 77.47L94 68.9a5.15 5.15 0 0 0 .33-.56l15.76 8.57a5.21 5.21 0 0 1-.34.56"/><path d="M110.08 76.91l-15.76-8.57c.15-.274.28-.558.39-.85l15.75 8.57a6.62 6.62 0 0 1-.38.85"/><path d="M110.46 76.06l-15.75-8.57a12.7 12.7 0 0 0 .63-4.31c0-2.54-.42-4.35-1.29-5.38a2.79 2.79 0 0 0-.84-.68L109 65.69a3 3 0 0 1 .84.68c.87 1 1.29 2.84 1.29 5.38a12.68 12.68 0 0 1-.64 4.31"/></g><path d="M98.88 51.73l15.75 8.57c-2.31-1.25-5.59-1.59-9.87-1L89 50.74c4.28-.6 7.573-.27 9.88.99z" fill="#3ACFE8"/><path d="M104.76 59.31L89 50.74a20 20 0 0 1 7.72.16l15.76 8.57a20 20 0 0 0-7.72-.16" fill="#3ACFE8"/><path d="M112.48 59.47L96.72 50.9a9.83 9.83 0 0 1 1.85.67l15.76 8.57a10.09 10.09 0 0 0-1.85-.67" fill="#219ECE"/><path fill="#219ECE" d="M114.33 60.14l-15.76-8.57.31.16 15.75 8.57-.3-.16"/><path d="M113.24 82.68l6.21 23-8.2 1.15-5.33-21.42-3.87.54v22.18l-8.14 1.14.09-48.44 10.8-1.52c4.73-.66 8.24-.18 10.57 1.42 2.33 1.6 3.47 4.77 3.47 9.46a20.7 20.7 0 0 1-1.26 7.67 9.63 9.63 0 0 1-4.34 4.82zm-3.62-5.05c1-1.29 1.47-3.25 1.48-5.88.01-2.63-.42-4.35-1.29-5.38-.87-1.03-2.42-1.39-4.68-1.07l-3 .42v14.71l2.6-.37c2.33-.33 4-1.14 5-2.43h-.11z" fill="#FFF"/><path fill="#3ACFE8" d="M93.96 60.83L78.2 52.26 89 50.74l15.75 8.57z"/><path fill="#219ECE" d="M93.87 109.24l-15.76-8.57.09-48.41 15.76 8.57z"/></g><g><g fill="#219ECE"><path d="M72.25 105.74l-15.76-8.58a5.25 5.25 0 0 0 6.35-2 12.87 12.87 0 0 0 1-5.51l15.76 8.57a12.87 12.87 0 0 1-.95 5.51 4.39 4.39 0 0 1-3.66 2.37 4.44 4.44 0 0 1-2.74-.36z"/><path d="M72.25 105.74l-15.76-8.58h.1l15.75 8.58-.09-.05"/><path d="M72.34 105.79l-15.75-8.58a2.4 2.4 0 0 0 .57.21L72.91 106a3.49 3.49 0 0 1-.57-.2"/><path d="M72.91 106l-15.75-8.57a5 5 0 0 0 2 0A6.37 6.37 0 0 0 61 97l15.75 8.57a6.18 6.18 0 0 1-1.76.5 5.18 5.18 0 0 1-2-.06"/><path d="M76.7 105.55L61 97a4.08 4.08 0 0 0 .61-.36l15.76 8.58a5.26 5.26 0 0 1-.62.35"/><path d="M77.32 105.2l-15.76-8.58a2.88 2.88 0 0 0 .39-.3l15.76 8.57a4.08 4.08 0 0 1-.39.31M77.71 104.89L62 96.32c.113-.1.213-.2.3-.3l15.7 8.57a2.76 2.76 0 0 1-.29.3"/><path d="M78 104.59L62.25 96a2.91 2.91 0 0 0 .26-.33l15.75 8.57a2.1 2.1 0 0 1-.26.33"/><path d="M78.26 104.26l-15.75-8.57a3.64 3.64 0 0 0 .23-.39l15.76 8.57a2.55 2.55 0 0 1-.24.39"/><path d="M78.5 103.87L62.74 95.3c.04-.06.073-.124.1-.19.1-.2.19-.41.27-.62l15.75 8.57c-.08.22-.17.42-.26.62a1.14 1.14 0 0 1-.1.19"/><path d="M78.86 103.06l-15.75-8.57a14.49 14.49 0 0 0 .68-4.89l15.76 8.57a14.42 14.42 0 0 1-.69 4.89"/></g><path fill="#219ECE" d="M79.55 98.17L63.79 89.6l.04-22.3 15.76 8.58z"/><g fill="#219ECE"><path d="M62 61.14l15.75 8.57a2.41 2.41 0 0 1 1 1 11.25 11.25 0 0 1 .9 5.19L63.9 67.33a11.28 11.28 0 0 0-.91-5.2 2.42 2.42 0 0 0-.99-.99z"/><path d="M79.59 75.88l-15.75-8.57a11.28 11.28 0 0 0-.91-5.2 2.42 2.42 0 0 0-1-1l15.75 8.57a2.41 2.41 0 0 1 1 1 11.25 11.25 0 0 1 .9 5.19"/></g><g fill="#219ECE"><path d="M67.07 111.66l-15.76-8.58a7.28 7.28 0 0 1-2.1-1.72c-2-2.407-3-6.203-3-11.39L62 98.54c0 5.187 1 8.983 3 11.39a7.05 7.05 0 0 0 2.07 1.73z"/><path d="M67.07 111.66l-15.76-8.58a7.28 7.28 0 0 1-2.1-1.72c-2-2.407-3-6.203-3-11.39L62 98.54c0 5.187 1 8.983 3 11.39a7.05 7.05 0 0 0 2.1 1.73"/></g><path fill="#219ECE" d="M62 98.54l-15.75-8.57.03-18.17 15.76 8.58z"/><path d="M67.14 55.28l15.75 8.57c-1.927-1.06-4.557-1.343-7.89-.85-4.667.667-8 2.447-10 5.34s-3 6.917-3 12.07L46.28 71.8c0-5.14 1-9.163 3-12.07s5.333-4.69 10-5.35c3.287-.46 5.907-.16 7.86.9z" fill="#219ECE"/><path d="M62 80.37L46.28 71.8a26 26 0 0 1 1.35-8.8l15.76 8.57a25.77 25.77 0 0 0-1.39 8.8M63.39 71.56L47.63 63a15.31 15.31 0 0 1 .9-2l15.76 8.57a15.31 15.31 0 0 0-.9 2" fill="#219ECE"/><path d="M64.29 69.55L48.53 61a13 13 0 0 1 .76-1.25l.06-.09 15.76 8.57-.06.09c-.28.4-.534.817-.76 1.25" fill="#219ECE"/><path d="M65.11 68.21l-15.76-8.57c.23-.323.477-.633.74-.93l15.75 8.57c-.26.297-.503.607-.73.93" fill="#3ACFE8"/><path d="M65.84 67.28l-15.75-8.57a11.9 11.9 0 0 1 .86-.88l15.76 8.57a12 12 0 0 0-.87.88" fill="#3ACFE8"/><path d="M66.71 66.4L51 57.83a12.43 12.43 0 0 1 1.14-.89l15.75 8.57c-.393.275-.77.572-1.13.89" fill="#3ACFE8"/><path d="M67.84 65.51l-15.75-8.57a12.9 12.9 0 0 1 1.82-1l15.76 8.58c-.638.28-1.25.614-1.83 1M69.67 64.47l-15.76-8.58a18.78 18.78 0 0 1 5.36-1.51 15.43 15.43 0 0 1 6 .16L81 63.11a15.31 15.31 0 0 0-6-.15 18.39 18.39 0 0 0-5.35 1.51" fill="#3ACFE8"/><path d="M81 63.11l-15.76-8.57a8.07 8.07 0 0 1 1.63.6l15.76 8.57a8.3 8.3 0 0 0-1.63-.6" fill="#219ECE"/><path fill="#219ECE" d="M82.61 63.71l-15.76-8.57.29.14 15.75 8.57-.28-.14"/><path d="M84.93 65.51c2 2.347 3 6.09 3 11.23v18.17c0 5.14-1 9.21-3 12.2-2 2.99-5.31 4.81-9.89 5.45-4.58.64-8-.22-10-2.63-2-2.41-3-6.2-3-11.39V80.37c0-5.14 1-9.163 3-12.07S70.36 63.627 75 63c4.667-.667 7.977.17 9.93 2.51zm-5.38 32.66V75.88a11.25 11.25 0 0 0-.9-5.19c-.61-1.11-1.83-1.54-3.68-1.28a4.47 4.47 0 0 0-3.71 2.34 12.82 12.82 0 0 0-1 5.43v22.29a11.32 11.32 0 0 0 .93 5.24c.64 1.15 1.87 1.59 3.71 1.34a4.39 4.39 0 0 0 3.66-2.37 12.87 12.87 0 0 0 .95-5.51h.04z" fill="#FFF"/></g><g><path fill="#219ECE" d="M47.44 98.74l-15.75-8.57 3.71-31.89 15.75 8.57z"/><path fill="#3ACFE8" d="M51.15 66.85L35.4 58.28l6.75-.95 15.76 8.57z"/><path fill="#219ECE" d="M44.92 116.12l-15.76-8.57-4.92-31.75L40 84.37z"/><path fill="#219ECE" d="M32.44 100.85l-15.76-8.57 4.71-31.92 15.75 8.58z"/><path fill="#3ACFE8" d="M37.14 68.94l-15.75-8.58 5.54-.77 15.75 8.57z"/><path fill="#219ECE" d="M28.2 118.47l-15.76-8.57-6.22-47.52 15.75 8.57z"/><path fill="#3ACFE8" d="M21.97 70.95L6.22 62.38l6.81-.96 15.75 8.57z"/><path fill="#FFF" d="M57.91 65.9l-6.35 49.29-6.64.93L40 84.37l-4.99 33.14-6.81.96-6.23-47.52 6.81-.96 3.66 30.86 4.7-31.91 5.54-.78 4.76 30.58 3.71-31.89z"/></g></g></svg>