<svg width="1461" height="3154" xmlns="http://www.w3.org/2000/svg"><defs><linearGradient x1="50%" y1="0%" x2="50%" y2="100%" id="a"><stop stop-color="#D8D8D8" offset="0%"/><stop offset="100%"/></linearGradient><linearGradient x1="50%" y1="0%" x2="50%" y2="100%" id="b"><stop stop-color="#C8C8C8" offset="0%"/><stop offset="100%"/></linearGradient></defs><g fill-rule="nonzero" fill="none"><path d="M478.083 769.472c-5.772.486-10.139 5.467-9.791 11.277.196 3.324-1.128 8.288-2.986 13.928-6.814 7.21-15.032 16.29-17.122 34.482-1.301 11.25.481 19.627 3.204 26.418.018.748-.022 1.483.023 2.236.7 12.476 6.22 24.6 11.867 36.358-1.649 9.281-5.713 13.67-11.208 19.475-4.05 4.273-8.668 9.179-12.242 16.25-.138-1.172-.263-2.348-.481-3.515 3.03-6.559 5.33-13.287 5.664-20.22 1.221-25.455-12.082-43.643-20.883-55.677-1.988-2.714-3.699-5.053-4.947-7.058-2.558-4.081-7.79-5.44-12.006-3.27 3.9-8.216 10.46-15.648 16.904-22.889 6.738-7.574 13.102-14.73 16.164-22.79 2.21-5.82-.731-12.315-6.538-14.548-5.825-2.21-12.34.718-14.55 6.537-1.587 4.188-6.614 9.833-11.935 15.817-6.685 7.517-14.457 16.276-19.782 26.867-.094-1.207-.187-2.41-.286-3.609-1.15-14.783-2.237-28.738-9.813-38.71-3.57-4.687-10.29-5.623-15-2.054-4.706 3.578-5.629 10.292-2.05 15.002.593.78 1.092 1.756 1.55 2.812a11.244 11.244 0 0 0-9.487 4.549c-.441.592-1.64 1.907-2.794 3.172-7.273 7.976-23.058 25.303-24.863 51.739-.17-.669-.33-1.346-.495-2.019-2.518-10.515-5.374-22.434-22.318-36.456-4.742-3.978-11.903-3.301-15.874 1.493-3.98 4.803-3.307 11.91 1.493 15.88.316.263.597.517.9.77-.895-.004-1.8.072-2.71.304-5.717 1.488-9.162 7.285-7.682 13.001.25 1.323-.04 5.614-.272 9.067-.891 13.31-2.393 35.587 9.68 56.578.565.993 1.216 1.92 1.871 2.847-7.264-2.22-13.681-5.147-21.422-13.84-9.399-10.568-10.584-18.187-12.073-27.825-1.729-11.174-3.69-23.833-17.514-39.365-4.149-4.67-11.266-5.066-15.923-.931-4.652 4.14-5.067 11.264-.931 15.92 9.399 10.568 10.584 18.183 12.072 27.82.9 5.815 1.877 12.03 4.537 18.839-4.537-2.09-9.167-4.073-13.784-5.828a374.464 374.464 0 0 1-2.963-6.982c-2.612-6.265-5.076-12.186-8.254-16.891-3.31-4.893-9.96-6.19-14.858-2.883-4.906 3.31-6.194 9.963-2.887 14.864.864 1.279 1.746 2.994 2.651 4.905-6.123-.686-11.711-.427-16.39 1.172-5.892 2.028-9.025 8.44-7.006 14.325 2.023 5.9 8.44 9.032 14.327 7.004 3.2-1.091 10.344-.21 20.634 3.15 5.624 10.516 13.494 21.236 25.981 28.837 10.74 6.554 24.243 7.432 37.305 8.287 2.576.165 5.165.34 7.737.553 16.302 11.233 32.354 23.993 46.205 37.173.958 6.024 2.205 12.498 5.427 19.614a1545.745 1545.745 0 0 0-19.358-8.408c-7.599-10.85-15.175-22.407-22.657-34.932l-.116-.2c-3.195-5.343-10.054-7-15.406-3.801-5.352 3.19-7.037 10.212-3.846 15.559 1.488 2.49 2.986 4.865 4.479 7.294-5.95-2.643-11.235-5.106-15.576-7.357-5.53-2.865-12.34-.704-15.2 4.821-2.87 5.534-.687 12.347 4.821 15.203 10.45 5.413 24.97 11.562 41.78 18.687l6.983 2.963c4.488 6.25 8.984 12.297 13.467 18.032a335.294 335.294 0 0 0-7.856-3.249c-4.724-1.875-10.072.437-11.948 5.164-1.569 3.961-.196 8.36 3.07 10.783.629.468 1.333.86 2.1 1.163 14.287 5.663 29.688 13.144 44.916 21.32a469.784 469.784 0 0 0 12.282 12.489c-5.58 4.612-12.531 12.667-15.776 11.38-4.724-1.872-4.72-15.738-9.456-17.6-2.371-.931-6.141 1.733-9.916 4.402-3.775 2.66-7.545 5.325-9.911 4.398-4.742-1.85-4.425-16.65-9.158-18.486-4.746-1.84-6.017-12.69-10.745-14.512-4.746-1.827-8.926-5.178-13.65-6.991-2.389-.91-6.872 3.685-11.346 8.274-4.479 4.585-8.949 9.17-11.31 8.27-4.774-1.818-9.711-3.07-14.444-4.866-4.782-1.81-4.287-17.484-9.02-19.266-2.402-.905-5.38-.236-8.352.423-2.959.66-5.904 1.315-8.258.428-2.41-.896-5.223-.686-8.026-.477-2.78.21-5.552.423-7.901-.459-4.809-1.795-9.207-4.54-13.926-6.291-4.818-1.791-7.523-9.112-12.242-10.858-2.42-.892-5.919 1.19-9.404 3.27-3.462 2.072-6.912 4.144-9.26 3.28-4.844-1.783-7.46-9.366-12.157-11.09-4.858-1.778-8.54-6.515-13.227-8.226-4.871-1.782-8.873-5.654-13.552-7.36-4.894-1.778-9.827-3.097-14.489-4.781-4.92-1.778-6.381-12.725-11.02-14.396-2.487-.891-6.583 2.82-10.625 6.536-4.015 3.69-7.981 7.379-10.276 6.554-4.992-1.79-9.747-3.55-14.306-5.182-5.071-1.809-4.447-18.73-8.94-20.322-2.638-.94-6.198 1.034-9.625 3.008-3.338 1.92-6.56 3.84-8.704 3.079-5.53-1.952-5.9-16.259-9.929-17.676-9.287-3.261-7.946-.427-15.143-2.927V3154h1443.78c-2.143-6.866 17.149-7.65 17.22-15.439v-.071a5.629 5.629 0 0 0-.263-1.604c-1.274-4.144-5.419-8.252-7.14-13.884-1.372-4.482-1.733-9.74-3.346-15.046-1.408-4.625-3.374-9.393-4.938-14.57-1.426-4.705-.084-10.462-1.622-15.577-1.43-4.754-25.38-2.94-26.89-8.002-1.44-4.799 15.709-15.274 14.211-20.304-1.435-4.83-21.213-4.336-22.688-9.348-1.43-4.848 14.324-14.846 12.857-19.841-1.43-4.865-1.97-10.043-3.418-15.02-1.426-4.883-19.537-4.981-20.972-9.95-1.422-4.9 9.109-13.29 7.683-18.25-1.413-4.923 5.914-12.341 4.51-17.292-1.404-4.932-23.766-3.952-25.152-8.893-1.395-4.937 10.829-13.705 9.456-18.633-1.381-4.95-11.493-7.477-12.852-12.396-1.364-4.977-7.928-8.532-9.26-13.442-1.356-4.995 11.902-13.884 10.597-18.79-1.337-5.003-11.32-7.681-12.599-12.569-1.314-5.035-.2-10.635-1.444-15.519-1.297-5.066 10.705-13.349 9.497-18.21-1.266-5.106-5.174-9.352-6.333-14.195-1.23-5.155-17.416-6.648-18.503-11.465-1.185-5.23-2.767-10.26-3.77-15.033-1.123-5.342 16.578-14.04 15.713-18.731-1.033-5.56-1.234-10.217-1.862-14.748-.856-6.189-15.772-9.74-15.772-13.692 0-4.95 13.552-10.306 13.428-15.546-.125-4.95-17.88-9.366-18.196-14.6-.303-4.951-6.636-9.126-7.184-14.357-.508-4.928 5.709-10.43 4.929-15.63-.74-4.901 3.16-10.591 2.13-15.746-.967-4.866-7.304-8.497-8.57-13.599-1.199-4.816 15.682-14.846 14.185-19.88-1.408-4.76-2.25-10.422-3.957-15.386-1.618-4.7-3.574-9.99-5.477-14.877-1.805-4.638-19.123-3.253-21.209-8.07-1.97-4.566-3.543-9.356-5.784-14.092-2.135-4.505 6.578-14.61 4.184-19.266-2.277-4.443-9.835-6.439-12.362-11.023-2.406-4.371 2.371-13.207-.272-17.72-1.252-2.14-7.496-1.315-13.793-.49-6.359.828-12.785 1.661-14.167-.57-2.633-4.251-1.453-10.815-4.3-15.186-2.736-4.197-4.581-8.96-7.518-13.268-2.826-4.135-.713-11.776-3.735-16.027-2.901-4.081-2.384-10.832-5.477-15.015-3.061-4.14-7.95-6.688-10.785-10.498-3.083-4.135-11.787-3.783-14.621-7.557-3.115-4.152-8.191-6.478-11.026-10.22-3.141-4.162-8.516-6.252-11.332-9.963-3.187-4.193-2.197-11.126-4.992-14.815-3.208-4.224 1.27-13.76-1.47-17.417-3.218-4.287-.005-12.579-2.66-16.241-1.627-2.241-7.452-1.386-13.072-.526-5.33.816-10.477 1.627-11.694-.205-2.954-4.45.963-12.903-1.26-16.953-2.443-4.438-13.223-5.294-15.086-9.865-1.77-4.358 9.666-13.79 8.16-18.852-1.301-4.348 1.328-9.802.04-15.055-1.078-4.402-12.852-6.63-14.029-11.888-.998-4.455 8.909-11.656 7.781-16.869-.976-4.513-2.919-9.138-4.042-14.302-.985-4.55-14.23-6.706-15.357-11.816-1.132-5.142-3.583-9.66-4.746-14.441-1.24-5.11 14.697-14.494 13.418-19.24-1.368-5.07-3.257-10.131-4.679-14.859-1.506-5.003-15.397-6.042-16.97-10.72-1.658-4.932.686-11.139-1.06-15.8-1.81-4.834-14.066-5.333-15.982-9.976-1.952-4.714 7.558-14.235 5.482-18.86-2.068-4.612-14.168-4.55-16.374-9.17-2.156-4.531 1.788-12.012-.512-16.646-2.22-4.46-11.8-5.28-14.163-9.931-2.246-4.412-6.497-7.905-8.881-12.565-2.251-4.398 7.076-14.873 4.692-19.556-2.241-4.389-14.71-3.783-17.077-8.479-2.215-4.402 8.36-15.38 6.025-20.095-2.188-4.415-5.103-8.608-7.398-13.33-2.157-4.439-3.235-9.514-5.49-14.245-2.121-4.465-17.22-2.995-19.435-7.744-2.09-4.487 1.658-11.87-.512-16.638-2.055-4.504 1.89-11.86-.24-16.641-2.024-4.527-19.716-2.308-21.81-7.09-1.989-4.548 8.342-14.609 6.283-19.408-2.046-4.767 6.328-13.803 4.394-18.406-2.015-4.78-18.99-3.203-20.888-7.82-1.974-4.794-10.597-6.865-12.451-11.495-1.93-4.812-1.939-10.386-3.748-15.033-1.876-4.834 13.855-16.28 12.104-20.946-1.823-4.839-24.039-2.063-25.736-6.741-1.76-4.87 13.021-15.55 11.39-20.26-1.698-4.888 2.679-11.598 1.114-16.334-1.626-4.915-20.228-4.224-21.72-8.991-1.542-4.928 12.513-14.472 11.096-19.266-1.453-4.942-19.813-4.977-21.141-9.803-1.36-4.954 15.076-14.538 13.837-19.395-1.27-4.968-24.676-4.46-25.83-9.357-1.172-4.972 16.222-14.164 15.152-19.105-1.078-4.973-1.096-10.03-2.09-15.002-.99-4.973-7.906-8.747-8.824-13.76-.909-4.967 8.352-11.669 7.496-16.712-.847-4.968-22.835-6.501-23.633-11.558-.788-4.968 14.814-12.507 14.056-17.6-.74-4.963-18.503-7.52-19.225-12.627-.709-4.964 15.094-12.31 14.394-17.426-.677-4.959-12.981-8.425-13.672-13.554-.66-4.954-8.008-9.112-8.69-14.24-.655-4.95 10.526-11.567 9.844-16.7-.66-4.945 5.802-10.938 5.116-16.07-.655-4.911-10.027-8.618-11.056-13.635-.994-4.857-1.369-9.865-2.701-14.81-1.292-4.79 9.185-13.465 7.594-18.33-1.542-4.724-4.305-9.643-6.114-14.428-1.765-4.652-10.879-6.715-12.88-11.41-1.956-4.59-15.82-3.752-17.995-8.373-2.121-4.518-3.494-9.103-5.811-13.639-2.273-4.446 2.014-12.248-.437-16.704-2.406-4.388.414-11.83-2.161-16.218-2.532-4.322-6.97-7.637-9.649-11.963-2.638-4.26-3.507-9.78-6.283-14.04-2.741-4.202-4.105-9.49-6.966-13.679-1.421-2.071-6.35-1.688-11.293-1.3-4.933.383-9.875.766-11.346-1.297-2.914-4.082-6.274-7.61-9.296-11.678-2.995-4.037 1.235-13.407-1.858-17.413-3.07-3.983-8.931-5.703-12.09-9.655-3.147-3.93-7.572-6.692-10.79-10.587-3.213-3.88-2.17-11.241-5.455-15.077-3.275-3.837-10.504-4.14-13.841-7.927-3.338-3.783 7.308-20.121 3.917-23.855-1.698-1.867-6.315-1.074-10.927-.281-4.582.789-9.172 1.582-10.883-.258-3.454-3.685 4.848-18.611 1.355-22.23-1.76-1.826-6.676-.579-11.583.669-4.88 1.243-9.76 2.482-11.524.704-2.616-2.633 1.782-12.36 2.896-18.754 4.813 6.314 10.117 11.126 17.064 13.122 5.99 1.72 12.233-1.742 13.954-7.726 1.715-5.993-1.739-12.248-7.732-13.95-3.69-1.07-10.059-11.906-14.707-19.815-6.77-11.53-14.439-24.599-25.767-34.807-5-4.509-11.066-7.695-17.51-10.319-2.241-6.327-5-12.476-8.396-18.197.2.076.375.116.575.192 12.251 4.66 16.467 10.497 21.806 17.876 5.931 8.203 13.302 18.402 31.534 25.339 5.526 2.103 11.707-.668 13.815-6.189 2.103-5.53-.678-11.71-6.2-13.817-12.241-4.66-16.461-10.493-21.8-17.876-5.927-8.198-13.307-18.401-31.534-25.334-12.697-4.839-22.514-4.99-30.643-3.903-5.954-3.77-12.465-6.474-19.533-8.043a55.89 55.89 0 0 0 5.731-1.372c7.447.325 14.867-.218 21.797-.744 10.802-.824 21.008-1.6 27.443 1.172a68.532 68.532 0 0 1 5.276 2.562c1.65 2.58 2.91 5.208 4.256 8.024 4.22 8.85 8.962 18.892 25.228 29.666 4.466 2.972 10.322 2.12 13.824-1.734 5.072 3.886 9.872 6.185 15.273 5.797 6.212-.44 10.891-5.832 10.455-12.043a11.282 11.282 0 0 0-10.402-10.449c-2.455-1.399-7.852-6.656-11.867-10.55-8.695-8.44-20.1-19.423-34.155-27.43-2.611-2.922-5.847-5.916-9.947-8.982 12.033-1.105 23.834-.686 33.714-.307 17.104.655 27.425 1.047 33.125-6.644 3.52-4.75 2.526-11.45-2.224-14.97-3.993-2.959-9.368-2.727-13.071.24-3.053.513-10.74.219-17.015-.022-13.387-.504-30.037-1.14-47.323 1.751-.45.076-.887.2-1.333.29 15.313-4.968 27.604-14.918 37.742-23.178 6.342-5.16 12.897-10.502 16.984-11.612 1.27-.338 2.393-.927 3.41-1.626 3.992 2.584 7.9 5.365 11.76 8.145 8.302 5.975 16.146 11.616 24.35 14.503 5.878 2.058 12.318-1.034 14.377-6.906 2.067-5.877-1.039-12.307-6.9-14.374-5.137-1.805-11.706-6.528-18.65-11.527a570.993 570.993 0 0 0-5.98-4.264c2.79-3.702 2.981-8.92.062-12.823-3.52-4.74-10.245-5.712-14.978-2.174-1.381 1.033-3.797 1.706-6.738 2.156-3.775-1.72-7.728-3.208-11.868-4.349 4.898-.334 9.862-.467 14.765-.592 15.673-.401 30.478-.78 40.915-8.595 5.459-4.081 6.568-11.816 2.482-17.27-4.078-5.454-11.814-6.567-17.273-2.482-3.316 2.482-11.69 3.164-20.335 3.48a85.25 85.25 0 0 0 4.13-1.52c5.491-2.196 8.16-8.42 5.96-13.91a10.695 10.695 0 0 0-13.919-5.961c-8.627 3.453-14.737 3.85-20.687 3.199 12.456-7.414 22.893-16.388 31.797-24.118 7.577-6.563 15.407-13.367 19.899-14.588 6.011-1.635 9.559-7.828 7.928-13.839-1.636-6.006-7.84-9.553-13.847-7.922-9.47 2.575-18.414 10.337-28.766 19.32-12.251 10.635-26.137 22.687-43.482 29.023-9.314 3.4-21.908 3.012-35.242 2.598-6.119-.192-12.55-.379-19.078-.205.263-1.03.526-2.063.793-3.101.13-.49.259-.994.383-1.488 3.035-5.418 4.755-10.56 6.266-15.154.214-.655.424-1.279.637-1.916 11.03 2.95 19.778 5.24 27.644 2.651 5.914-1.947 9.22-8.35 7.273-14.262-1.947-5.917-8.236-9.156-14.154-7.21-1.319.246-4.443-.342-7.892-1.158.557-.481 1.06-.944 1.671-1.43 10.139-7.989 17.233-8.568 26.217-9.308 10.032-.815 22.52-1.84 37.72-13.825 4.648-3.663 5.446-10.391 1.778-15.03-3.654-4.669-10.388-5.44-15.027-1.786-10.138 7.993-17.233 8.573-26.222 9.308-1.925.16-3.948.33-6.056.575 4.906-6.43 9.398-13.465 12.674-21.445 9.194-.816 18.423-.428 27.064-.05 10.179.446 19.791.87 28.125-.766 6.11-1.198 10.098-7.12 8.895-13.237-1.194-6.113-7.13-10.088-13.236-8.894-5.69 1.119-13.997.753-22.799.37-8.975-.396-19.011-.797-29.444.072-.945-.575-1.965-1.052-3.097-1.315-3.93-.918-7.817.495-10.34 3.288-7.107 1.48-14.269 3.698-21.306 7.259-13.86 6.995-24.14 20.059-34.083 32.695-2.38 3.03-4.795 6.077-7.255 9.054.463-2.723.762-5.298 1.038-7.735 1.03-9.04 1.836-16.183 10.22-26.244 8.382-10.06 15.263-12.15 23.975-14.801 9.675-2.941 21.716-6.595 34.195-21.579 3.788-4.545 3.168-11.295-1.377-15.078-4.52-3.796-11.289-3.163-15.077 1.377-8.378 10.065-15.259 12.15-23.967 14.802-4.621 1.403-9.777 2.98-15.259 5.863.406-.726.82-1.452 1.28-2.103 11.822-16.762 29.742-25.112 42.826-31.211 7.313-3.409 13.089-6.1 17.158-9.776 4.62-4.18 4.977-11.308.797-15.924-4.158-4.62-11.306-4.982-15.927-.802-1.547 1.399-6.868 3.876-11.556 6.064-13.842 6.451-34.435 16.076-49.578 35.77-4.1-2.304-9.377-1.908-13.067 1.425-1.475 1.337-7.103 3.65-11.622 5.503-3.775 1.55-8.107 3.342-12.661 5.511.214-.307.405-.641.628-.926 9.89-12.659 24.288-21 35.853-27.696 11.043-6.394 19.02-11.02 22.407-18.433 2.451-5.374.094-11.727-5.294-14.178-5.29-2.42-11.52-.165-14.06 5.022-1.543 1.973-8.606 6.064-13.784 9.062-6.725 3.894-14.774 8.608-22.72 14.574.308-.499.557-.957.896-1.465 7.95-12.013 15.09-15.185 24.119-19.209 10.397-4.62 22.18-9.864 33.766-27.357 3.44-5.19 2.01-12.146-3.177-15.626-5.196-3.44-12.193-2.014-15.629 3.177-7.955 12.017-15.09 15.19-24.127 19.204-.535.236-1.074.481-1.618.722 1.212-3.142 1.043-6.782-.838-9.883-3.23-5.324-10.165-7.022-15.495-3.796-9.782 5.93-21.03 9.437-32.27 12.476 1.912-4.59 3.557-9.099 4.658-13.519 3.85-4.647 7.522-10.515 10.749-18.406 2.353-5.77-.397-12.373-6.177-14.703-5.767-2.357-12.349.41-14.702 6.17-.365.896-.753 1.663-1.128 2.478-5.62.99-9.527 6.211-8.774 11.919.04.298.013.641.026.953-2.968 2.914-6.203 5.213-9.782 7.717-9.265 6.465-19.769 13.795-27.625 33.034-1.622 3.966-2.79 7.637-3.632 11.081a72.71 72.71 0 0 0-1.52 1.814c.08-.397.16-.807.24-1.199 3.107-15.528 5.794-28.935.86-40.056-2.464-5.578-8.984-8.091-14.563-5.623-5.57 2.469-8.093 8.987-5.624 14.566 2.09 4.714-.156 15.928-2.33 26.773-2.782 13.897-5.937 29.652-4.177 46.05.54 5.012 1.926 9.94 3.748 14.8-.664 3.008-1.332 5.935-2.045 8.725-1.462-3.534-3.035-6.978-4.617-10.324 1.64-17.729-4.439-28.19-9.363-36.62-1.529-2.62-2.892-4.986-3.989-7.428.883-13.443 5.424-26.35 9.564-37.966.227-.642.45-1.266.673-1.903 6.734-7.142 14.693-16.223 16.752-34.08.708-6.194-3.726-11.786-9.916-12.494a11.787 11.787 0 0 0-1.306-.076c-4.782 0-8.993 3.052-10.58 7.472m76.281 91.922c1.163-8.12 3.792-16.045 6.937-23.798 3.421-.995 6.976-1.944 10.598-2.902 8.91-2.365 18.564-4.928 28.102-8.694-3.475 3.409-6.976 7.609-10.456 12.948-6.139 9.408-9.075 17.496-10.518 24.743-.909-2.469-2.61-4.657-5.043-6.045-5.448-3.056-12.309-1.058-15.325 4.476-1.345 2.468-2.802 5.769-4.433 9.878-.316-3.775-.325-7.333.138-10.606m-207.12 10.52c-2.14-22.862 10.376-37.208 18.252-45.914.026.378.057.747.088 1.13 1.03 13.314 2.192 28.404 8.105 42.341 4.031 9.502 11.226 17.585 18.664 25.281 2.338 7.01 4.048 13.866 3.566 19.84-.088 1.113-.282 2.251-.539 3.408-4.874-3.279-10.063-6.001-15.296-8.399-3.632-22.776-7.053-36.669-11.733-43.128-3.633-5.04-10.642-6.148-15.636-2.483-4.99 3.662-6.1 10.69-2.462 15.713.415.627.84 1.628 1.264 2.776-2.342-3.817-3.978-7.385-4.274-10.566m65.953 14.23a432.877 432.877 0 0 0-2.827-8.112c-3.16-8.845-6.14-17.25-6.368-24.031 1.511 2.484 3.316 5.09 5.245 7.85 7.132 10.196 15.797 22.658 16.755 39.15-4.002-5.353-8.474-10.24-12.805-14.857m-57.33 65.742c-7.13-12.13-19.357-19.88-30.145-26.733-8.346-5.286-16.227-10.296-19.32-15.712-8.804-15.421-7.677-32.31-6.847-44.64.245-3.686.427-6.888.36-9.8 1.212 2.965 1.949 6.029 2.788 9.553 2.54 10.672 5.696 23.951 23.347 41.528 7.237 7.223 17.062 11.915 27.06 16.106 2.992 4.611 5.469 9.285 6.823 14.008 1.838 6.41.959 15.319-.058 24.805-1.017-3.158-2.3-6.217-4.009-9.115M561 916.422c1.131-3.234 2.24-6.385 3.282-9.37 5.277-15.082 9.864-28.16 12.718-34.052-.116 2.33-.156 4.588-.196 6.782-.174 10.011-.303 17.923-8.252 30.097-2.516 3.86-4.956 6.746-7.396 9.121-.054-.862-.09-1.725-.156-2.578m-45-23.7c.456-2.245.928-4.49 1.432-6.722-.216 2.167-.652 4.494-1.316 7l-.116-.278m77.284 26.288c9.326-9.624 21.808-14.837 32.185-19.112 1.595-.66 3.074-1.279 4.531-1.898-1.202 5.097-2.127 10.319-3.034 15.478-.161.915-.327 1.83-.487 2.746-.474-.319-.948-.637-1.48-.889-4.996-2.364-10.837-.735-13.974 3.59-1.837 1.058-6.466 2.808-9.93 4.122-3.124 1.176-6.538 2.472-10.095 3.953.84-2.66 1.604-5.33 2.284-7.99m-64.284.85c2.12-3.356 4.14-7.206 6.02-11.727a86.127 86.127 0 0 0 2.26-6.133c.635 3.172 1.237 6.358 1.72 9.512A2013.884 2013.884 0 0 1 532.566 929a108.064 108.064 0 0 0-3.566-9.14m-71.717 31.242c1.284-11.117 5.595-15.668 11.563-21.96 2.042-2.154 4.23-4.475 6.361-7.142.962 3.542 1.63 7.053 1.786 10.503.022.486-.014.994-.014 1.494-1.395 2.326-2.8 4.643-4.195 6.934-4.993 8.177-10.048 16.486-13.929 25.069-1.56-4.077-2.303-8.544-1.572-14.898M414 935.932c1.292-3.238 2.42-6.545 3.268-9.932.104.342.252.671.344 1.018.092.356.144.743.232 1.104l-1.316 2.707a650.85 650.85 0 0 0-2.492 5.171c-.012-.023-.024-.05-.036-.068m243 35.644c3.577-4.222 6.99-8.575 10.344-12.882C674.6 949.375 681.537 940.539 689 935c-3.524 4.529-7.356 8.872-11.156 13.148-7.012 7.916-13.653 15.44-18.16 23.852-.889-.149-1.782-.293-2.684-.424m-170.473 55.04c3.606-13.685 1.689-23.664-.05-32.67-.638-3.29-1.202-6.35-1.477-9.466 1.142-3.165 2.39-6.385 3.66-9.662 3.133-8.05 6.29-16.266 8.299-24.655 3.555-3.898 7.486-6.626 11.944-9.654 1.647-1.12 3.34-2.272 5.042-3.509 1.275 4.103 2.077 8.166 2.055 12.131-.005.701-.106 1.416-.166 2.126a89.91 89.91 0 0 0-3.5 4.764c-6.486 9.541-9.5 17.703-10.944 25.012-7.046 11.216-9.863 24.406-12.367 36.238-.702 3.313-1.4 6.545-2.156 9.626a2.205 2.205 0 0 0-.101.103c-.083-.13-.16-.255-.239-.384M384 938c.572.404 1.108.82 1.644 1.244-.392.684-.784 1.368-1.184 2.06-.004.004-.008.008-.008.02-.152-1.108-.304-2.244-.452-3.324m196.797 19.788c8.405-6.545 18.873-10.58 27.667-13.924 4.415-1.68 8.27-3.174 11.536-4.864-1.25 3.272-2.706 6.34-4.534 9.02-5.435 7.984-15.672 14.092-26.502 20.57-4.004 2.39-8.04 4.829-11.964 7.41 1.867-5.983 2.958-12.176 3.797-18.212m-181.755 41.811c-3.484-6.949-6.125-13.85-6.04-20.303.076-5.821 2.968-12.356 6.739-19.296.86 2.77 1.65 5.67 2.394 8.662-.47 10.99 2.664 21.82 5.865 32.338-2.95-.562-5.95-1.004-8.958-1.4m38.449 3.692c-1.23-2.932-2.23-5.856-2.815-8.753-1.426-7.086-.382-15.523 1.154-24.539 1.932 6.636 4.938 11.842 7.61 16.437 4.388 7.545 7.558 12.996 6.27 24.218-.177 1.582-.435 3-.732 4.345-4.44-3.721-8.455-7.594-11.487-11.708m99.584-24.523c.653-.854 1.302-1.712 1.95-2.57 2.106-1.14 4.267-2.27 6.467-3.41.503-.258 1.005-.526 1.508-.789a358.848 358.848 0 0 0-1.5 7.595 334.707 334.707 0 0 1-1.082 5.575c-3.768 3.119-8.43 5.974-13.418 8.83a992.87 992.87 0 0 0 6.075-15.231m25.61 63.883c.005-.013.005-.03.01-.044 3.403-1.958 6.534-4.28 9.482-6.802 2.615-.462 5.19-1.102 7.683-2.02 13.247-4.871 23.5-14.977 32.541-23.888 2.285-2.251 4.526-4.45 6.717-6.478 5.683-.84 11.393-1.132 16.743-1.408 4.703-.24 9.095-.47 13.139-1.012-.53 1.931-1.042 3.85-1.532 5.728-2.102 3.197-4.949 6.38-9.282 9.79-10.133 7.961-17.233 8.547-26.212 9.28-10.026.821-22.506 1.842-37.712 13.79C567.62 1044.81 563.212 1050 560 1055c.993-4.085 1.853-8.232 2.686-12.348m-197.356 23.6c-7.642-7.924-15.45-16.716-23.33-26.252 8.793 4.269 17.604 8.769 26.16 13.474.079.54.171 1.085.229 1.62.49 4.905 1.01 9.515 1.611 13.906a673.075 673.075 0 0 0-4.67-2.747m249.732 11.142c-3.176-.614-6.49-1.24-10.062-1.632 14.022-.711 28.187-3.668 40.285-13.66 6.272-5.184 10.512-11.93 13.75-19.577 6.45-.61 13.203-.596 19.965-.423-5.684 4.896-9.38 10.054-12.806 14.86-5.403 7.564-9.67 13.54-22.218 18.56-6.504 2.597-11.577 3.477-16.228 3.477-4.325 0-8.28-.76-12.686-1.605M660 1091.928c12.769-6.877 18.657-15.187 23.923-22.653 5.39-7.65 9.651-13.69 22.18-18.76 12.528-5.066 19.729-3.668 28.855-1.889.996.194 2.015.391 3.042.58-6.956 1.039-13.947 2.684-20.752 5.475-12.204 5.007-21.98 15.255-31.44 25.165-3.121 3.277-6.292 6.572-9.508 9.641-4.514 1.39-8.948 2.347-13.182 2.495a19.63 19.63 0 0 1-.894.018 41.26 41.26 0 0 1-2.224-.072m-131.555-37.263a934.63 934.63 0 0 1 2.188-4.139A190.28 190.28 0 0 0 538 1050c-.053.325-.115.65-.168.975-.826 3.47-1.759 6.688-2.846 9.6-.446.993-.937 2-1.511 3.03-4.583 1.996-9.069 4.17-13.475 6.395 2.974-4.999 5.736-10.195 8.445-15.335m62.555.269c3.235-2.35 6.17-3.899 9-4.934-.91.858-1.82 1.717-2.722 2.58-.855.814-1.701 1.615-2.552 2.42-1.235-.018-2.478-.035-3.726-.066m-209.88 57.615c-4.672-1.85-8.883-4.843-13.6-6.693-2.044-.81-2.86-4.64-3.52-8.856a407.532 407.532 0 0 0 19 16 7.166 7.166 0 0 1-1.88-.45m333.96-7.614c5.204-2.153 10.955-3.287 16.92-3.936-10.395 8.252-22.148 17.458-35.58 19.951-.135.027-.284.027-.42.049 6.634-7 12.916-13.522 19.08-16.064m-44.234 41.106c-1.282-.068-2.564-.14-3.846-.208 2.293-1.103 4.46-2.419 6.57-3.834 8.926 2.216 17.914 3.531 26.661 1.84.948-.185 1.843-.479 2.769-.705-3.641 1.248-7.225 2.934-10.746 4.865-6.962-1.194-14.245-1.592-21.408-1.958m-97.062 38.309c-2.398-5.202-4.84-10.48-7.784-15.351 3.658.245 7.678 1.089 12.544 2.962 10.469 4.038 15.009 8.954 19.456 14.98-3.328.059-6.651.068-9.97.05-.97-1.927-2.085-3.627-3.663-4.493-2.217-1.226-6.241.781-10.23 2.624-.12-.255-.234-.509-.353-.772M537 1178.608c4.078-.716 7.978-1.96 11.73-3.608.092.096.177.208.27.308-3.756 1.456-7.838 3.416-10.832 3.416-.411 0-.799-.036-1.168-.116m81.755-.26c-.566-.762-1.163-1.555-1.755-2.348 1.302.81 2.61 1.612 3.93 2.4 1.094 2.047 2.107 4.266 3.07 6.6-1.831-2.068-3.491-4.27-5.245-6.653m57.653 85.841c-3.884-3.237-5.284-9.411-9.142-12.52-3.592-2.89-9.935-2.241-13.996-4.385-3.398-5.742-7.543-11.44-12.748-16.539-7.494-7.312-18.284-10.682-28.741-13.932a308.39 308.39 0 0 1-5.834-1.857c-.597-1.367-1.346-2.514-2.405-3.189-1.058-.674-1.851-1.834-2.542-3.201 5.647-.11 11.272-.283 16.831-.565 3.907 2.704 8.526 5.266 14.347 7.471a73.32 73.32 0 0 0 3.224 1.143c2.821 5.812 6.245 11.25 10.847 15.837 10.905 10.85 26.031 15.635 39.376 19.851 1.9.605 3.765 1.2 5.603 1.8.691 2.778 1.258 5.557 1.772 8.318-4.146.362-9.877 2.576-13.669 2.58-1.213 0-2.223-.23-2.923-.812M666 1219.423c2.607-.418 5.038-.933 7.338-1.423 2.9 2.632 5.419 5.686 7.662 9-5.634-2.057-10.869-4.447-15-7.577m51.778 80.493c.052-8.5-.33-19.329-1.778-30.916 6.142 7.308 11.223 16.246 15.793 24.35 2.11 3.725 4.141 7.307 6.207 10.644-1.748-.054-3.81.223-5.867.5-3.883.523-7.757 1.05-9.51-.679-1.108-1.094-3.058-1.237-5.274-1.076.245-.903.42-1.84.43-2.823m-22.03-9.978c-1.529-1.455-.453-6.046.88-10.938.42 4.752.647 9.148.755 13-.508-.73-1.004-1.468-1.636-2.062" fill="url(#a)"/><path d="M168.247 29.737c2.653 13.259 14.857 80.804 5.57 84.517-9.288 3.718-23.22-13.927-50.157-26.001-26.932-12.08-28.793 13.931-18.575 18.575 10.218 4.643 58.518 27.866 63.162 41.797.829 2.488 1.548 5.132 2.174 7.869-2.524-1.05-5.026-2.151-7.274-3.63-5.952-3.898-8.79-12.734-14.83-16.511-6.067-3.782-14.185-4.257-20.248-7.887-6.173-3.695-12.872-6.357-18.948-9.859-6.289-3.62-12.812-6.532-18.898-9.918-6.4-3.566-9.283-13.199-15.341-16.465-6.542-3.524-15.986-1.004-21.98-4.128-6.763-3.538-8.666-15.575-14.517-18.538-7.219-3.657-13.512-7.417-18.957-10.08C7.358 53.565 9.693 54.6 0 50.132V3154h919.907c-.728-10.19 1.842-7.61.87-20.565-.433-5.763-5.79-12.254-6.39-20.035-.474-6.238-9.158-12.43-9.734-19.768-.507-6.426 14.199-14.46 13.618-21.61-.52-6.538-6.883-12.89-7.463-19.939-.54-6.61-8.048-12.848-8.629-19.828-.557-6.657 11.44-14.534 10.84-21.463-.566-6.694-10.448-12.71-11.052-19.606-.585-6.726-6.818-13.024-7.436-19.888-.603-6.75 1.687-13.798 1.06-20.634-.622-6.777 9.283-14.558 8.643-21.371-.645-6.79-9.343-12.821-10.002-19.602-.663-6.814 3.345-14.07 2.658-20.819-.686-6.836-8.361-12.908-9.062-19.63-.718-6.854-4.266-13.308-4.998-19.993-.756-6.882-.802-13.7-1.567-20.348-.797-6.924 8.523-14.894 7.722-21.5-.853-6.975 1.092-14.143.235-20.69-.917-7.043-8.813-12.885-9.74-19.334-1.036-7.284-9.103-13.259-10.038-19.934-1.014-7.288 10.462-15.958 9.555-22.629-.99-7.283-14.692-12.526-15.581-19.206-.958-7.26 8.412-15.557 7.537-22.278-.94-7.192-8.117-13.31-8.993-20.105-.917-7.09-1.598-14.041-2.501-20.942-.913-6.956-2.488-13.77-3.437-20.79-.926-6.842-3.234-13.55-4.243-20.69-.954-6.744-4.248-13.295-5.317-20.514-.986-6.69 6.584-14.894 5.464-22.15-1.036-6.661-7.873-12.682-9.039-19.957-1.069-6.652-3.939-13.267-5.141-20.532-1.106-6.653 5.782-14.922 4.552-22.168-1.134-6.666-.268-13.954-1.525-21.178-1.157-6.675-.033-14.023-1.304-21.219-1.28-7.265-7.109-13.369-8.385-19.957-1.414-7.256-10.992-12.37-12.397-18.902-1.562-7.246 2.994-15.359 1.442-21.84-1.728-7.206-9.924-12.222-11.637-18.667-1.894-7.136-4.179-13.54-6.05-19.99-2.031-6.997-1.114-14.433-3.114-20.937-2.096-6.828-.972-14.457-3.026-21.114-2.05-6.656-9.164-11.885-11.163-18.745-1.903-6.537-3.308-13.608-5.15-20.67-1.7-6.496-3.571-13.48-5.216-20.694-1.479-6.505-3.28-13.512-4.708-20.796-1.285-6.546 3.833-14.732 2.594-22.048-1.12-6.588-5.142-13.111-6.224-20.431-.977-6.639 4.818-14.544 3.874-21.86-.861-6.675-4.022-13.346-4.856-20.643-.764-6.717-.695-13.788-1.437-21.08-.682-6.74-9.394-12.992-10.053-20.261-.644-7.132.484-14.042-.216-20.593-.751-7.145 5.832-14.779 5.012-21.284-.893-7.159 4.603-14.967 3.63-21.403-1.077-7.182-3.215-14.037-4.39-20.404a470.002 470.002 0 0 0-4.22-20.495c-1.65-7.15-8.408-12.757-10.223-18.884-2.091-7.062-5.27-13.36-7.601-19.32-2.654-6.814-10.886-10.38-13.872-16.138-3.28-6.326-4.482-13.088-8.173-18.649-3.791-5.717-12.42-7.421-16.677-12.922-4.054-5.243-8.928-9.822-13.434-15.391-4.09-5.063-7.822-10.979-12.3-16.71-3.976-5.09-.917-16.086-5.206-22.002-3.806-5.228-4.86-12.691-8.92-18.754-3.607-5.39-15.423-5.947-19.243-12.139-3.418-5.542-.728-15.166-4.316-21.445-3.377-5.915-4.847-12.94-8.146-19.32-3.137-6.077-18.174-6.547-21.238-13.01-2.944-6.215-1.76-14.678-4.63-21.201-2.778-6.32 4.782-17.128 2.078-23.698-2.63-6.399-15.46-8.799-18.022-15.4-2.511-6.468-1.673-14.327-4.105-20.966-2.396-6.523-2.087-14.07-4.41-20.73-2.293-6.58-2.436-13.886-4.657-20.566-2.197-6.629-10.536-11.277-12.664-17.962-2.12-6.675-6.717-12.636-8.754-19.334-2.04-6.713 6.92-16.682 4.967-23.394-1.967-6.744-8.178-12.208-10.057-18.925-1.894-6.776-12.762-11.088-14.568-17.805-1.828-6.818-.23-14.54-1.957-21.256-1.77-6.85 8.979-16.764 7.315-23.486-1.7-6.891-6.827-12.788-8.417-19.5-1.64-6.934-15.479-10.937-16.99-17.64-1.576-6.984 6.685-16 5.247-22.684-1.51-7.04-8.509-12.742-9.859-19.395-1.437-7.117-8.486-12.963-9.734-19.574-1.364-7.228 4.017-15.41 2.888-21.952-1.271-7.394-8.02-13.525-8.979-19.92-1.16-7.748 2.677-15.538 2-21.61-.664-5.97 9.186-14.99 7.55-22.813-1.326-6.32-11.623-11.379-13.498-18.731-1.64-6.45-8.071-11.964-10.075-19.091-1.834-6.519-6.823-12.3-8.915-19.289-1.962-6.555 6.086-16.359 3.93-23.264-2.05-6.579-11.955-10.822-14.148-17.663-2.12-6.597 1.28-15.101-.949-21.887-2.17-6.625-1.396-14.323-3.653-21.072-2.212-6.638-2.912-13.862-5.183-20.578-2.244-6.648-7.523-12.32-9.8-19.004-2.27-6.67-14.497-9.941-16.773-16.593-2.29-6.69-2.53-14.051-4.8-20.68-2.304-6.708-4.34-13.462-6.602-20.063-2.313-6.735-1.99-14.304-4.234-20.878-2.308-6.777 1.612-15.553-.595-22.104-2.308-6.818-1.916-14.36-4.086-20.873-2.29-6.888-6.984-12.734-9.09-19.206-2.27-6.98-6.832-12.909-8.836-19.326-2.234-7.127-5.035-13.66-6.887-19.98-2.18-7.412-6.625-13.58-8.187-19.685-2.1-8.223-4.823-15.317-5.597-20.767-.654-4.58-3.663-11.365-4.676-20.28-.673-5.965 13.01-14.405 12.19-22.062-.677-6.302-18.594-11.319-19.363-18.648-.682-6.463 12.581-14.77 11.83-21.952-.681-6.555-8.034-12.705-8.767-19.804-.686-6.611 4.842-14.097 4.114-21.136-.69-6.657-9.942-12.61-10.67-19.602-.7-6.694-.948-13.577-1.676-20.542-.705-6.717-5.768-13.093-6.505-20.035-.705-6.74 14.313-15.249 13.576-22.168-.718-6.754-17.202-11.895-17.944-18.796-.732-6.768 8.726-14.7 7.975-21.588-.737-6.781-11.964-12.461-12.72-19.335-.75-6.79-.502-13.724-1.262-20.588-.765-6.809 4.215-14.28 3.441-21.136-.226-1.985-1.032-3.911-2.045-5.809 3.142 1.599 6.32 3.685 9.462 6.45 9.9 8.725 34.166 13.77 64.212 12.268 30.047-1.498 17.17-17.797 10.43-18.294-6.749-.493-19.137-.77-42.476-3.506-10.757-1.267-27.637-7.666-23.597-13.12 4.727-6.376 32.765-11.55 49.571-21.685 31.19-18.814 11.836-25.227-.705-21.67-25.09 7.108-49.709 30.22-57.983 17.736-2.764-4.169 10.43-18.294 28.356-32.45 1.829-1.451 3.299-3.23 4.432-5.114 3.764.806 6.98.249 9.242-2.234 12.056-13.217-45.02-37.965-38.584-51.481 2.24-4.7 13.347-2.36 25.647-.01 13.784 2.626 29.06 5.257 35.068-2.027 15.798-19.16-52.169-19.086-63.014-21.85-8.633-2.202-17.129-5.307-24.067-8.417.447-2.782 1.092-5.588 1.438-8.333 22.14-4.966 45.996-9.173 57.891-12.029 31.65-7.601 53.335-9.283 96.396-32.478 43.066-23.195 14.973-28.249-.267-25.595-15.235 2.649-46.245 16.943-72.37 26.199-17.558 6.219-72.086 18.823-60.956 10.61 11.13-8.22 80.212-56.347 117.884-98.49 37.67-42.143 16.354-59.364-15.263-24.56-11.292 12.425-69.736 74.415-80.295 67.878-10.56-6.537-3.207-33.46-11.011-69.26-7.8-35.794-35.137-18.482-32.24-4.85 2.894 13.627 15.31 78.97 4.82 93.878-5.64 8.025-13.356 16.082-21.437 23.342-.507-6.8 6.947-14.705 5.92-21.117-1.115-6.966-4.483-13.41-5.602-19.975-1.193-7.003-.64-14.12-1.834-20.611-1.299-7.076-2.778-13.876-4.077-20.275-1.451-7.168-9.665-12.457-11.112-18.69-1.704-7.366 2.686-15.654 1.005-21.564-2.263-7.933-2.35-16.032-4.557-20.994-1.534-3.455-5.768-5.809-9.95-8.384.686-.355 1.363-.7 2.012-1.014 11.68-5.56 57.339-42.908 44.5-56.364-6.695-7.012-18 5.238-29.21 17.483-10.291 11.245-20.505 22.495-26.987 18.823-10.01-5.648 15.747-50.348 2.272-63.127-15.696-14.885-21.635 32.146-25.297 54.314-3.064-.626-5.957-1.502-7.989-3.34-5.123-4.62-3.911-16.874-9.615-21.481-1.935-1.557-4.39-2.47-7.011-3.207 7.228-16.257 15.511-32.952 19.238-41.751 10.214-24.15 19.502-39.011 25.076-78.017 5.57-39.015-11.144-23.223-16.719-12.08-5.574 11.145-11.149 38.081-17.649 59.443-4.367 14.36-22.293 55.733-22.293 44.585 0-11.144 1.861-78.952-7.431-123.532C186.928 9.808 179.506 0 173.969 0c-5.796 0-9.523 10.739-5.722 29.737m153.458 526.395c-.82-6.837-6.652-13.038-7.486-19.833-.834-6.846-.41-13.797-1.258-20.574-.857-6.855.567-13.94-.3-20.703-.57-4.455 1.46-9.218 2.728-13.862 2.69 3.487 5.035 6.906 6.708 9.863 3.505 6.215 17.8 22.445 31.617 32.667-14.41 10.647-25.025 27.056-31.737 39.407.023-2.34 0-4.667-.272-6.965" fill="url(#b)"/></g></svg>