<?xml version="1.0" encoding="UTF-8"?>
<svg width="259px" height="100px" viewBox="0 0 259 100" version="1.1" xmlns="http://www.w3.org/2000/svg" xmlns:xlink="http://www.w3.org/1999/xlink">
    <!-- Generator: Sketch 50.2 (55047) - http://www.bohemiancoding.com/sketch -->
    <title>payscape-logo-white</title>
    <desc>Created with Sketch.</desc>
    <defs></defs>
    <g id="Page-1" stroke="none" stroke-width="1" fill="none" fill-rule="evenodd">
        <g id="payscape-logo-white" fill="#FFFFFF" fill-rule="nonzero">
            <path d="M42.6620777,54.0251256 C42.6620777,56.1959799 43.4918835,57.1256281 45.4331262,57.1256281 L55.4913786,57.1256281 L55.4913786,50.7889447 L45.3778058,50.7889447 C44.0350291,50.8190955 42.6620777,51.2261307 42.6620777,54.0251256 Z" id="Shape"></path>
            <path d="M25.2914757,38.3517588 L16.535767,38.3517588 L16.535767,57.0854271 L24.8187379,57.1457286 C27.6300194,57.1055276 28.8923301,55.959799 28.8923301,53.4271357 L28.8923301,42.3366834 C28.8923301,39.5829146 27.7808932,38.3517588 25.2914757,38.3517588 Z" id="Shape"></path>
            <path d="M50.2359417,0.216080402 C22.6608253,0.216080402 0.306776699,22.5523468 0.306776699,50.1055276 C0.306776699,77.6587085 22.6608253,99.9949749 50.2359417,99.9949749 C77.8110582,99.9949749 100.165107,77.6587085 100.165107,50.1055276 C100.165107,36.8740236 94.9047277,24.1844474 85.5411929,14.8283612 C76.1776581,5.47227493 63.4779796,0.216080402 50.2359417,0.216080402 Z M34.9524272,53.1708543 C34.9524272,59.7738693 31.477301,63.2613065 24.8941748,63.2613065 L16.535767,63.2613065 L16.535767,74.120603 L10.561165,74.120603 L10.561165,32.160804 L25.462466,32.160804 C31.6834951,32.201005 34.9524272,35.7336683 34.9524272,42.3768844 L34.9524272,53.1708543 Z M45.7097282,63.3165829 C42.9034757,63.3165829 40.7359223,62.5628141 39.2271845,61.0502513 C37.612835,59.4170854 36.8232621,56.9095477 36.8735534,53.6030151 C36.8735534,47.7135678 40.0720777,44.5879397 46.1221165,44.5879397 L55.4612039,44.5879397 L55.4159417,42.8190955 C55.4561748,41.2110553 55.1242524,40.0603015 54.4352621,39.3517588 C53.7462718,38.6432161 52.7505049,38.3467337 51.3524078,38.3467337 L38.5683689,38.3467337 L38.5683689,32.160804 L51.2970874,32.2311558 C58.1467573,32.4271357 61.6570874,36.2160804 61.4609515,43.1859296 L61.4609515,63.3165829 L45.7097282,63.3165829 Z M81.9194369,73.9748744 L72.5099417,74.0502513 L72.5099417,67.8040201 L82.4726408,67.5879397 C84.8212427,67.3165829 85.0978447,66.1809045 85.0475534,65.0753769 L85.0475534,63.3165829 L77.0009515,63.3165829 C73.4805631,63.3165829 70.8553592,62.2562814 69.1052233,60.160804 C67.3550874,58.0653266 66.5353398,55.0552764 66.5353398,51.0703518 L66.5353398,32.160804 L72.5954369,32.160804 L72.5954369,51.718593 C72.6507573,56.5829146 74.9038058,57.1457286 76.5935922,57.1457286 L85.0475534,57.1457286 L85.0475534,32.1005025 L91.0171262,32.1005025 L91.0171262,63.0603015 C90.9919806,72.0904523 86.0433204,73.9849246 81.8942913,73.9849246 L81.9194369,73.9748744 Z" id="Shape"></path>
            <path d="M118.848311,44.8994975 L112.370796,44.8994975 C109.921612,44.8994975 108.850408,43.8944724 108.850408,41.6482412 C108.850408,39.5125628 109.70033,38.6030151 111.696893,38.6030151 L126.935146,38.6030151 L126.935146,32.4321608 L112.204835,32.4321608 C106.30567,32.5778894 103.152408,35.7939698 103.041767,41.7487437 C103.041767,47.8442211 106.225204,51.0703518 112.250097,51.0703518 L119.004214,51.0703518 C122.232913,51.0703518 122.70565,52.6532663 122.755942,53.9748744 C122.70565,55.4824121 122.212796,57.2110553 118.808078,57.2110553 L104.032505,57.2110553 L104.032505,63.3819095 L118.943864,63.3819095 C125.174951,63.3819095 128.499204,60.0954774 128.544466,53.8944724 C128.614874,51.1105528 127.900738,48.9296482 126.422175,47.4120603 C124.802796,45.7286432 122.253029,44.8994975 118.848311,44.8994975 Z" id="Shape"></path>
            <path d="M137.295146,35.2914573 C135.434369,37.160804 134.503981,39.9447236 134.529126,43.5527638 L134.478835,52.4572864 C134.478835,59.6030151 138.396524,63.3768844 145.814485,63.3768844 L154.811592,63.3768844 L154.811592,57.2110553 L145.256252,57.2110553 C143.571495,57.2110553 142.33433,56.8241206 141.58499,56.0653266 C140.83565,55.3065327 140.543961,54.2613065 140.579165,52.7889447 L140.579165,43.361809 C140.579165,40.0703518 141.967204,38.6030151 145.080233,38.6030151 L154.831709,38.6030151 L154.831709,32.4321608 L145.779282,32.4321608 C142.022524,32.4321608 139.181068,33.3969849 137.295146,35.2914573 Z" id="Shape"></path>
            <path d="M172.03132,32.4974874 L159.247282,32.4271357 L159.247282,38.6030151 L172.096699,38.6030151 C173.509883,38.6030151 174.560971,38.9396985 175.209728,39.6080402 C175.858485,40.2763819 176.215553,41.4522613 176.18035,43.040201 L176.225612,44.7939698 L166.891553,44.7939698 C160.856602,44.7939698 157.64299,47.8894472 157.64299,53.7336683 C157.592699,56.9949749 158.377243,59.4723618 159.976505,61.0954774 C161.485243,62.6030151 163.662854,63.3768844 166.514369,63.3768844 L182.305825,63.3768844 L182.305825,43.3819095 C182.471786,36.4572864 178.936311,32.6934673 172.03132,32.4974874 Z M176.250757,50.9648241 L176.250757,57.2060302 L166.192505,57.2060302 C164.251262,57.2060302 163.421456,56.2914573 163.421456,54.1557789 C163.421456,51.3919598 164.789379,50.9899497 166.127126,50.9648241 L176.250757,50.9648241 Z" id="Shape"></path>
            <path d="M204.283107,32.4321608 L189.286252,32.4321608 L189.286252,74.1407035 L195.321204,74.1407035 L195.321204,63.3567839 L203.739961,63.3567839 C210.343204,63.3567839 213.833417,59.8894472 213.833417,53.3065327 L213.833417,42.6030151 C213.828388,35.9949749 210.529282,32.4824121 204.283107,32.4321608 Z M195.321204,38.6030151 L204.132233,38.6030151 C206.646796,38.6030151 207.753204,39.8241206 207.753204,42.5577889 L207.753204,53.5678392 C207.753204,56.080402 206.485864,57.2110553 203.654466,57.2512563 L195.326233,57.1909548 L195.321204,38.6030151 Z" id="Shape"></path>
            <path d="M244.918447,50.9698492 L244.918447,41.9698492 C244.918447,35.7738693 241.855709,32.4974874 236.077243,32.4974874 L229.93165,32.4321608 C223.650272,32.4773869 220.331049,35.8492462 220.331049,42.1809045 L220.331049,53.8291457 C220.331049,56.9246231 221.085417,59.3065327 222.649476,60.9145729 C224.213534,62.5226131 226.562136,63.3567839 229.624874,63.3819095 L243.912621,63.3819095 L243.912621,57.2110553 L229.549437,57.2110553 C227.331592,57.2110553 226.325767,56.1055276 226.290563,53.6633166 L226.340854,50.9698492 L244.918447,50.9698492 Z M239.109806,44.798995 L226.376058,44.798995 L226.42635,42.1005025 C226.371029,40.8844221 226.607398,39.9849246 227.135456,39.4321608 C227.663515,38.879397 228.538583,38.6030151 229.750602,38.6030151 L236.14765,38.6030151 C236.91931,38.5366958 237.684473,38.789126 238.264913,39.3015075 C238.813087,39.8592965 239.079631,40.8090452 239.059515,42.1557789 L239.109806,44.798995 Z" id="Shape"></path>
            <path d="M253.065631,32.3266332 L253.970874,32.3266332 C254.286257,32.3562493 254.602969,32.2859248 254.876117,32.1256281 C255.028227,32.0030074 255.116909,31.8184011 255.117515,31.6231156 C255.120431,31.48834 255.079877,31.3562023 255.001845,31.2462312 C254.921923,31.1335417 254.809705,31.0476933 254.679981,31 C254.429538,30.9317778 254.169674,30.9046241 253.910524,30.919598 L253.065631,30.919598 L253.065631,32.3266332 Z M252.301204,34.9899497 L252.301204,30.2562814 L253.925612,30.2562814 C254.332265,30.2377905 254.739346,30.2818559 255.132602,30.3869347 C255.375357,30.4700127 255.583933,30.6307355 255.726039,30.8442211 C255.869812,31.046941 255.947124,31.2892266 255.94732,31.5376884 C255.951794,31.877269 255.817379,32.2039657 255.575165,32.4422111 C255.310017,32.7131236 254.948522,32.8684429 254.56934,32.8743719 C254.717817,32.9326007 254.854225,33.0177878 254.97167,33.1256281 C255.237589,33.4130291 255.471941,33.728058 255.670718,34.0653266 L256.249068,34.9899497 L255.31365,34.9899497 L254.896233,34.2462312 C254.70476,33.8440198 254.44435,33.4783753 254.126777,33.1658291 C253.946517,33.0436711 253.730533,32.9852956 253.513223,33 L253.065631,33 L253.065631,35.0100503 L252.301204,34.9899497 Z M254.232388,28.8894472 C253.600214,28.8913354 252.978911,29.0538869 252.426932,29.361809 C251.846828,29.672583 251.36847,30.1435827 251.048951,30.718593 C250.723982,31.2774784 250.550631,31.9114384 250.546039,32.5577889 C250.550924,33.1993422 250.724346,33.8283634 251.048951,34.3819095 C251.364856,34.9544875 251.837647,35.4251588 252.411845,35.7386935 C253.542066,36.388323 254.932769,36.388323 256.06299,35.7386935 C256.635839,35.4250722 257.106983,34.9543031 257.420854,34.3819095 C258.072668,33.2476485 258.072668,31.8528541 257.420854,30.718593 C257.104069,30.1432402 256.627179,29.6719656 256.047903,29.361809 C255.497166,29.0553228 254.877859,28.8928408 254.247476,28.8894472 L254.232388,28.8894472 Z M254.247476,28.160804 C255.004815,28.1640141 255.748926,28.3594041 256.41,28.7286432 C257.10705,29.0971871 257.679278,29.6637146 258.054524,30.3567839 C258.834547,31.7170354 258.834547,33.3884923 258.054524,34.7487437 C257.678607,35.4361608 257.113052,36.0012661 256.425087,36.3768844 C255.067074,37.1485201 253.402732,37.1485201 252.044718,36.3768844 C251.355579,36.0011228 250.788435,35.4361737 250.410252,34.7487437 C249.624041,33.3901449 249.624041,31.7153827 250.410252,30.3567839 C250.788291,29.6640848 251.361969,29.0978532 252.059806,28.7286432 C252.72088,28.3594041 253.464991,28.1640141 254.22233,28.160804 L254.247476,28.160804 Z" id="Shape"></path>
        </g>
    </g>
</svg>