<?xml version="1.0" encoding="UTF-8"?>
<svg width="1585px" height="1620px" viewBox="0 0 1585 1620" version="1.1" xmlns="http://www.w3.org/2000/svg" xmlns:xlink="http://www.w3.org/1999/xlink">
    <!-- Generator: Sketch 48.2 (47327) - http://www.bohemiancoding.com/sketch -->
    <title>Page 1</title>
    <desc>Created with Sketch.</desc>
    <defs>
        <filter x="-0.4%" y="-0.3%" width="100.9%" height="100.7%" filterUnits="objectBoundingBox" id="filter-1">
            <feOffset dx="0" dy="2" in="SourceAlpha" result="shadowOffsetOuter1"></feOffset>
            <feGaussianBlur stdDeviation="2" in="shadowOffsetOuter1" result="shadowBlurOuter1"></feGaussianBlur>
            <feColorMatrix values="0 0 0 0 0   0 0 0 0 0   0 0 0 0 0  0 0 0 0.5 0" type="matrix" in="shadowBlurOuter1" result="shadowMatrixOuter1"></feColorMatrix>
            <feMerge>
                <feMergeNode in="shadowMatrixOuter1"></feMergeNode>
                <feMergeNode in="SourceGraphic"></feMergeNode>
            </feMerge>
        </filter>
        <polygon id="path-2" points="0 0.19 1312.61358 0.19 1312.61358 1396.1195 0 1396.1195"></polygon>
    </defs>
    <g id="Artboard-3" stroke="none" stroke-width="1" fill="none" fill-rule="evenodd" transform="translate(-974.000000, -1747.000000)" opacity="0.798007246">
        <g id="Page-1" filter="url(#filter-1)" transform="translate(978.000000, 1748.000000)">
            <g id="Group-29" transform="translate(106.000000, 608.810000)" fill="#000000">
                <path d="M466.3234,122.4976 C440.0654,172.1786 432.0714,231.2596 444.1824,286.1316 C456.2954,341.0046 488.4164,391.2306 533.1464,425.2426 C585.0264,464.6896 624.5464,523.7526 626.2214,588.9046 C626.3664,594.5436 628.0294,602.1106 633.6714,602.1576 C637.4224,602.1876 640.0204,598.5096 641.6874,595.1496 C657.1104,564.0676 651.4064,525.8506 635.3764,495.0776 C619.3444,464.3046 594.2034,439.4276 569.4914,415.0696 C544.7804,390.7116 519.6794,365.7796 503.7644,334.9456 C492.0874,312.3186 481.7544,265.2836 482.0794,266.7836 C482.0794,266.7836 468.3844,192.3666 510.6044,106.0866 C552.8254,19.8066 466.3234,122.4976 466.3234,122.4976" id="Fill-1"></path>
                <path d="M463.8596,121.0576 C432.0666,181.7616 426.8206,255.0686 451.0976,319.3106 C462.1356,348.5216 478.7236,375.5496 499.7956,398.6016 C510.6826,410.5126 522.8436,420.6286 535.4576,430.6206 C547.9766,440.5386 559.6476,451.5436 570.2076,463.5306 C591.2396,487.4066 607.9576,515.5066 616.7226,546.2096 C618.8386,553.6196 620.4946,561.1626 621.6326,568.7846 C622.8076,576.6486 622.6226,584.5996 623.6576,592.4436 C624.2686,597.0816 625.9796,602.7526 630.8626,604.5116 C636.9586,606.7066 641.6356,601.4536 644.1516,596.5896 C659.1926,567.5006 654.7866,531.6496 642.1296,502.6196 C628.2826,470.8596 603.7986,445.0956 579.5436,420.9936 C554.5836,396.1916 528.2456,371.8006 510.3936,341.0946 C498.0006,319.7776 491.7596,295.0816 486.0546,271.2656 C485.6336,269.5096 485.2366,267.7476 484.8236,265.9906 C483.9816,262.4046 478.5536,263.9286 479.3206,267.5076 C479.3236,267.5186 479.3256,267.5306 479.3286,267.5416 C480.1026,271.1586 485.4826,269.5986 484.8316,266.0246 C482.1936,251.5526 482.4176,235.9136 483.2216,221.1956 C485.2466,184.1356 494.5556,147.4336 510.1096,113.7516 C511.9276,109.8156 534.7406,69.9946 520.2306,68.7456 C515.6536,68.3516 510.8786,72.6746 507.6176,75.3076 C501.5596,80.2016 496.0206,85.7516 490.6076,91.3376 C481.5056,100.7276 472.7346,110.4796 464.3056,120.4796 C461.9536,123.2716 465.9696,127.3286 468.3406,124.5156 C474.8696,116.7696 481.6286,109.2066 488.5376,101.8006 C493.9626,95.9846 499.4946,90.2496 505.3376,84.8506 C509.1526,81.3256 513.7726,76.7246 518.4516,74.8206 C519.1546,74.5346 519.9426,74.5156 520.0186,74.4336 C519.6176,74.8656 519.4266,73.6436 519.2856,74.0926 C518.9246,75.2316 518.8506,78.5886 518.3076,80.4726 C514.5366,93.5456 507.3926,105.5006 502.0306,117.9306 C488.4126,149.4946 480.0496,183.2506 477.7366,217.5656 C476.6286,234.0046 476.3576,251.2426 479.3286,267.5416 C481.1626,267.0366 482.9966,266.5306 484.8316,266.0246 C484.8286,266.0136 484.8266,266.0016 484.8236,265.9906 C482.9896,266.4956 481.1556,267.0016 479.3206,267.5076 C483.5166,285.3896 488.1366,303.2596 494.5086,320.5076 C504.9746,348.8356 524.1546,372.5916 544.7866,394.2356 C588.9176,440.5346 650.7386,487.9506 647.8036,558.9636 C647.4666,567.1306 646.0806,575.2306 643.5606,583.0106 C642.3066,586.8836 640.8266,590.7556 638.8896,594.3426 C637.9196,596.1396 636.0696,599.4206 633.6716,599.3036 C631.5566,599.2006 630.6036,596.9206 630.0336,595.2336 C627.8556,588.7946 628.8106,580.8926 628.0466,574.1616 C627.2346,567.0046 626.0176,559.8956 624.3626,552.8846 C617.5966,524.2156 603.9016,497.4016 586.1206,474.0236 C577.0916,462.1546 567.0646,451.0786 556.1566,440.9106 C545.0176,430.5256 532.5426,421.8256 521.1886,411.7096 C498.4136,391.4176 479.6966,366.7596 466.0836,339.4706 C436.4406,280.0496 433.8376,209.5366 457.8946,147.7376 C461.0646,139.5966 464.7346,131.6746 468.7876,123.9376 C470.4896,120.6876 465.5656,117.7996 463.8596,121.0576" id="Fill-3"></path>
                <path d="M564.2385,36.9258 C509.0745,44.5348 425.3775,92.0908 425.3775,92.0908 C387.3325,109.2108 358.8205,147.4828 344.7265,213.5328 C337.0435,249.5448 340.3055,287.2028 348.9915,322.9858 C357.6775,358.7688 384.1545,432.4238 384.1545,432.4238 C390.7535,472.3288 390.2265,513.4018 382.6075,553.1238 C377.4415,580.0538 369.0455,606.4058 366.1235,633.6708 C363.2025,660.9368 366.3765,690.1558 382.3275,712.4608 C398.2775,734.7658 429.4135,747.5398 454.4255,736.3018 C431.6905,730.1958 414.3025,710.4498 406.4985,688.2398 C398.6935,666.0298 399.3555,641.6568 403.3375,618.4558 C407.3195,595.2538 414.4855,572.7248 419.5135,549.7268 C427.4875,513.2598 438.1065,442.1998 423.4745,407.8588 C405.2415,365.0658 400.8195,336.0648 394.9415,289.9218 C390.9505,258.5978 390.5505,224.7298 400.6475,194.8108 C410.7445,164.8918 422.0995,154.2428 447.4585,135.4268 C447.4585,135.4268 510.9765,88.2858 577.5535,74.9698 C644.1325,61.6548 598.4785,27.4148 598.4785,27.4148 L573.7505,16.0018 L564.2385,36.9258 Z" id="Fill-5"></path>
                <path d="M563.4807,34.1748 C535.4717,38.1628 508.4597,48.9988 482.7277,60.3598 C463.7837,68.7238 445.1647,77.9128 427.0247,87.9068 C420.8807,91.2918 414.5137,94.1588 408.6247,98.0188 C398.5317,104.6328 389.5197,112.8308 381.8237,122.1148 C362.3307,145.6328 350.9927,174.8988 343.8947,204.3168 C334.4247,243.5708 336.6327,283.7518 346.0177,322.8188 C352.1027,348.1468 360.6417,372.9518 369.0107,397.5958 C372.2917,407.2568 375.6317,416.8988 379.0327,426.5188 C382.3457,435.8898 383.3337,445.3828 384.2957,455.3368 C388.3677,497.4178 383.6017,538.5038 373.8617,579.4688 C365.3237,615.3758 356.0717,653.6658 367.9687,689.9728 C377.5307,719.1478 403.3307,743.8978 435.5427,743.2998 C442.6207,743.1678 449.3847,741.5588 455.8667,738.7658 C458.2247,737.7488 457.3477,734.1608 455.1847,733.5508 C416.4577,722.6138 401.9697,680.1858 403.4237,643.7408 C404.9707,604.9648 419.6187,567.9158 426.3067,529.9098 C431.7557,498.9488 435.8747,466.5498 432.6187,435.1218 C431.9237,428.4218 430.8807,421.7178 429.0507,415.2268 C426.8237,407.3298 423.1347,399.8978 420.2317,392.2368 C413.9547,375.6678 409.0737,358.6428 405.6077,341.2668 C401.8797,322.5858 399.2977,303.6018 397.1647,284.6778 C394.8617,264.2668 394.1437,243.4298 397.0087,223.0348 C399.4637,205.5618 404.5357,187.6428 413.6837,172.4248 C421.2397,159.8548 432.3707,150.3838 443.9297,141.6128 C459.0647,130.1308 475.3057,120.0988 491.9717,111.0078 C507.5017,102.5368 523.5467,94.9368 540.1387,88.7788 C548.9397,85.5118 557.8907,82.6338 566.9867,80.3088 C575.8007,78.0558 584.8437,76.7218 593.4607,73.7338 C602.1877,70.7068 612.8077,65.7598 615.8217,56.1698 C617.8807,49.6168 615.4597,42.7968 611.7557,37.3328 C608.9007,33.1188 605.2987,29.1708 601.2857,26.0208 C596.5117,22.2758 589.8897,20.3218 584.4187,17.7978 C581.3417,16.3778 578.2657,14.9578 575.1897,13.5378 C573.9047,12.9448 571.9707,13.0538 571.2867,14.5618 C568.1157,21.5358 564.9457,28.5108 561.7747,35.4858 C560.2667,38.8038 565.1837,41.7088 566.7027,38.3658 C569.8737,31.3908 573.0437,24.4168 576.2137,17.4418 C574.9127,17.7828 573.6117,18.1238 572.3097,18.4658 C579.9147,21.9748 587.5177,25.4848 595.1227,28.9938 C595.7647,29.2908 596.4507,29.5488 597.0647,29.8988 C595.9987,29.2918 597.2857,30.0838 597.6137,30.3548 C599.3857,31.8208 601.0637,33.4098 602.6407,35.0828 C606.6617,39.3498 610.9737,45.0258 610.8907,51.1838 C610.7537,61.4178 597.9947,66.3188 589.9757,68.8818 C581.1707,71.6958 571.9807,73.0538 563.0567,75.4388 C553.7347,77.9298 544.5657,80.9788 535.5567,84.4328 C519.5907,90.5538 504.0987,97.8948 489.0917,106.0808 C472.4247,115.1718 456.1867,125.2058 441.0497,136.6858 C429.9847,145.0788 419.2167,153.9758 411.3217,165.5398 C402.1637,178.9518 396.5837,195.2478 393.3237,211.0388 C385.3327,249.7298 391.1427,289.9118 397.5007,328.4148 C400.3287,345.5468 404.1377,362.4858 409.5237,379.0048 C414.5717,394.4868 422.5347,409.2168 425.5117,425.2918 C431.3427,456.7668 427.0237,490.6558 421.9017,521.9328 C419.2847,537.9138 415.8547,553.6958 411.8507,569.3858 C406.6527,589.7548 401.0337,610.0948 398.6907,631.0428 C394.7197,666.5418 401.8747,706.0258 432.1897,728.5278 C438.6647,733.3318 445.9127,736.8628 453.6677,739.0528 C453.4397,737.3148 453.2127,735.5758 452.9857,733.8378 C422.2797,747.0728 389.1907,724.7068 376.7007,696.8788 C360.9887,661.8738 369.5617,622.2038 378.0337,586.5758 C382.5397,567.6248 386.8397,548.7058 389.1567,529.3398 C391.5207,509.5778 392.1657,489.6128 391.0867,469.7388 C390.5687,460.1878 389.6447,450.6628 388.3417,441.1868 C387.8247,437.4158 387.5087,433.6038 386.3067,429.9908 C383.9327,422.8588 381.2947,415.8058 378.8387,408.7008 C359.0767,351.5248 337.2817,291.9088 344.7737,230.4028 C348.6457,198.6108 359.1847,165.4728 376.7707,138.5418 C383.6017,128.0818 391.7937,118.5138 401.3717,110.4708 C409.2597,103.8448 417.9187,99.1478 427.0047,94.4468 C465.4927,74.5388 504.1497,54.0538 546.4647,43.3818 C552.5797,41.8388 558.7527,40.5668 564.9977,39.6768 C568.6187,39.1618 567.0787,33.6618 563.4807,34.1748" id="Fill-7"></path>
                <path d="M533.1301,426.3018 C539.5811,494.6188 513.4941,565.2988 464.2071,613.0438 C442.2651,634.3008 414.4351,651.6388 383.9051,652.7548 C355.9761,653.7758 328.4621,640.6268 309.4401,620.1508 C290.4181,599.6738 279.5081,572.4628 276.0181,544.7328 C301.0651,574.3738 329.3331,605.9288 367.5801,612.4978 C408.4291,619.5128 450.0541,593.9518 471.1471,558.2748 C492.2401,522.5978 495.8321,479.0128 491.6881,437.7748 C487.5421,396.5358 476.2751,356.3668 469.6091,315.4598 C462.9451,274.5528 461.0891,231.5658 475.2991,192.6318 L525.1591,76.0458 L568.9101,64.6328 L532.7681,154.0368 L525.1591,239.6368 L525.1591,310.0188 L533.1301,426.3018 Z" id="Fill-9"></path>
                <path d="M530.2766,426.3018 C535.5096,483.9788 518.0376,543.1028 482.2846,588.7008 C464.1826,611.7868 440.9746,633.2388 413.1656,643.7458 C384.2396,654.6738 353.2076,650.1128 327.9326,632.4988 C299.2166,612.4878 283.3326,578.7458 278.8706,544.7328 C277.2476,545.4058 275.6236,546.0778 274.0006,546.7498 C294.1246,570.5438 315.8766,595.7298 345.0286,608.5418 C373.0256,620.8458 403.8666,617.9158 430.1706,602.7578 C491.4016,567.4698 501.5476,491.3538 493.3416,427.3278 C483.7506,352.4948 451.8906,274.7258 475.9846,199.4338 C479.4336,188.6568 484.4866,178.3508 488.9296,167.9598 C496.6456,149.9198 504.3606,131.8798 512.0766,113.8388 L521.9786,90.6838 C523.5416,87.0308 526.6916,82.2888 527.2646,78.3248 C527.2766,78.2408 527.6586,77.5748 527.6066,77.5248 C528.3326,78.2428 524.3396,78.8228 527.2136,78.4598 C530.3616,78.0618 533.6256,76.7868 536.6936,75.9868 C545.8696,73.5928 555.0456,71.1988 564.2216,68.8048 C566.0376,68.3318 567.8526,67.8578 569.6696,67.3848 C568.4996,66.2138 567.3296,65.0438 566.1596,63.8738 C556.0176,88.9608 545.8766,114.0478 535.7346,139.1338 C533.1626,145.4978 530.1606,151.2798 529.5526,158.1048 C528.2146,173.1648 526.8766,188.2248 525.5376,203.2848 C524.4696,215.2888 522.9236,227.3568 522.3276,239.3948 C521.7866,250.3218 522.3056,261.4028 522.3056,272.3408 C522.3056,284.8688 521.8836,297.4778 522.3056,310.0008 C522.5926,318.5168 523.4736,327.0558 524.0566,335.5558 C526.0856,365.1458 527.9316,394.7538 530.1416,424.3298 C530.1906,424.9868 530.2316,425.6448 530.2766,426.3018 C530.5266,429.9458 536.2346,429.9728 535.9836,426.3018 C534.1966,400.2348 532.4096,374.1688 530.6236,348.1018 C529.7956,336.0178 528.9176,323.9358 528.1376,311.8488 C527.5976,303.4688 528.0126,294.9688 528.0126,286.5758 C528.0126,271.5758 527.9916,256.5758 528.0126,241.5758 C528.0246,233.4018 529.3016,225.1318 530.0246,216.9998 C531.5106,200.2858 532.9966,183.5728 534.4816,166.8588 C534.8446,162.7708 534.8006,158.3788 535.5936,154.3458 C535.5516,154.5608 535.3936,154.8268 536.0116,153.5788 C536.8116,151.9628 537.3846,150.1798 538.0606,148.5098 L570.7796,67.5738 C571.0736,66.8468 571.3676,66.1188 571.6626,65.3908 C572.5136,63.2828 570.0596,61.3838 568.1516,61.8818 C554.0736,65.5538 539.8766,68.9178 525.8856,72.9068 C522.8196,73.7818 522.4146,75.2628 521.2416,78.0058 L514.2336,94.3908 C500.9676,125.4108 487.7026,156.4298 474.4356,187.4488 C464.6566,210.3158 461.5756,235.9278 461.7106,260.6308 C461.9156,298.1978 470.0866,335.0238 477.6806,371.6278 C485.2296,408.0118 492.2156,444.9328 489.8776,482.2668 C487.7756,515.8088 477.8536,550.3148 454.7946,575.6008 C434.1986,598.1868 403.8716,613.6878 372.7506,610.3568 C340.2526,606.8768 314.5326,583.6898 293.5046,560.5138 C288.2216,554.6918 283.1116,548.7168 278.0356,542.7148 C276.5336,540.9398 272.8436,542.2938 273.1646,544.7328 C277.2316,575.7388 289.8316,606.3438 313.1376,627.8658 C335.5546,648.5668 366.3996,659.5598 396.7766,654.2108 C427.6476,648.7758 454.2926,628.5698 475.0586,605.9918 C495.7616,583.4828 511.7416,556.8138 522.3216,528.1458 C534.2896,495.7208 539.1076,460.7348 535.9836,426.3018 C535.6546,422.6738 529.9446,422.6388 530.2766,426.3018" id="Fill-11"></path>
                <path d="M501.2648,65.1562 C505.4228,71.2962 500.2978,79.4512 492.9638,78.3522 C453.3008,72.4102 378.0958,67.9482 326.3828,104.8052 C293.9578,127.9162 257.0048,145.5732 230.8848,175.6282 C189.0248,223.7922 172.6828,293.0422 121.7268,331.4562 C100.0648,347.7862 73.7758,357.0742 51.9688,373.2112 C37.5938,383.8482 25.0388,399.3072 20.3208,416.0702 C17.7478,425.2082 4.4738,423.9922 3.6288,414.5372 C2.9558,406.9942 4.0778,399.1322 6.8528,392.1932 C13.9168,374.5352 28.7248,361.3632 42.6498,348.4082 C117.8628,278.4422 164.1598,204.0182 233.0228,102.9092 C233.0228,102.9092 252.1598,71.0182 329.1598,26.0182 C331.8898,24.4232 337.0558,22.1932 338.1188,22.0552 L392.9648,14.9632 C393.9018,14.8422 394.8528,14.8772 395.7778,15.0682 L441.8378,24.5722 C442.4898,24.7052 443.1208,24.9152 443.7228,25.1972 L478.7218,41.5542 C479.5798,41.9552 480.3658,42.4962 481.0458,43.1562 L497.0178,58.6502 C497.5508,59.1672 498.0138,59.7512 498.3958,60.3882 L501.0088,64.7542 C501.0898,64.8902 501.1758,65.0242 501.2648,65.1562" id="Fill-13"></path>
                <path d="M498.801,66.5962 C500.559,69.6282 500.01,73.4922 496.542,75.0622 C494.195,76.1242 491.299,75.2392 488.836,74.9032 C484.272,74.2812 479.698,73.7312 475.114,73.2732 C463.981,72.1592 452.794,71.5472 441.605,71.5142 C416.792,71.4402 391.642,74.1102 367.892,81.5372 C355.779,85.3252 343.992,90.3812 333.127,96.9642 C320.874,104.3872 309.305,113.0262 297.203,120.7212 C273.372,135.8742 248.899,151.0732 229.962,172.3652 C195.183,211.4682 179.266,263.0722 146.333,303.4432 C137.904,313.7752 128.36,323.2692 117.497,331.0392 C105.27,339.7862 91.777,346.5142 78.571,353.6172 C54.239,366.7052 30.085,382.6392 19.55,409.4552 C17.864,413.7482 16.499,421.7072 9.887,419.0422 C3.452,416.4492 6.51,403.5212 7.733,398.7362 C11.42,384.2952 21.763,372.4752 32.13,362.2602 C51.792,342.8882 71.952,324.3522 90.349,303.7102 C126.993,262.5942 158.725,217.4622 189.671,171.9942 C205.06,149.3842 220.289,126.6642 235.674,104.0522 C239.923,97.8062 245.189,92.2092 250.591,86.8722 C265.533,72.1092 282.448,59.3802 299.861,47.6932 C306.153,43.4692 312.54,39.3872 319,35.4252 C324.877,31.8202 331.002,27.3382 337.633,25.1792 C340.675,24.1882 346.529,23.8212 350.471,23.3112 C364.385,21.5122 378.31,19.3112 392.269,17.9072 C396.032,17.5282 399.869,18.8212 403.537,19.5772 C411.681,21.2572 419.825,22.9382 427.969,24.6182 C432.565,25.5662 437.583,26.0632 442.04,27.5802 C447.186,29.3322 452.159,32.2762 457.077,34.5752 C463.498,37.5752 470.09,40.3552 476.391,43.6012 C481.181,46.0692 484.943,50.9112 488.762,54.6162 C490.77,56.5642 492.977,58.4262 494.841,60.5132 C496.47,62.3362 497.438,64.5832 498.801,66.5962 C500.849,69.6202 505.796,66.7672 503.729,63.7162 C502.122,61.3442 500.976,58.7372 499.016,56.6132 C497.067,54.5012 494.859,52.5802 492.797,50.5802 C488.756,46.6612 484.667,41.3752 479.556,38.8072 C468.167,33.0842 456.363,27.0632 444.482,22.4452 C439.666,20.5742 434.071,20.0612 429.038,19.0232 C420.664,17.2952 412.29,15.5672 403.916,13.8402 C400.076,13.0472 396.088,11.8052 392.147,12.2162 C385.877,12.8682 379.623,13.8352 373.372,14.6432 C364.793,15.7532 356.215,16.8622 347.636,17.9712 C343.094,18.5592 338.342,18.7142 334.085,20.4882 C320.261,26.2502 307.322,35.7432 294.967,44.1242 C284.795,51.0242 274.868,58.3022 265.347,66.0762 C254.351,75.0542 243.565,84.7172 234.682,95.8472 C224.703,108.3512 216.407,122.3152 207.466,135.5522 C174.137,184.8892 141.072,234.6572 102.892,280.4382 C84.55,302.4312 65.007,323.4172 44.174,343.0742 C24.394,361.7352 -3.137,384.2722 0.827,414.9162 C1.923,423.3892 11.53,428.1542 18.748,423.0732 C23.468,419.7502 24.047,412.9712 26.313,408.0652 C29.452,401.2642 33.702,394.9742 38.632,389.3482 C59.535,365.4922 91.1,355.7362 116.824,338.4272 C162.873,307.4412 182.398,253.6302 210.655,208.3352 C217.928,196.6782 225.854,185.3542 235.104,175.1692 C245.48,163.7442 257.566,154.0402 270.184,145.2152 C282.68,136.4762 295.697,128.5242 308.508,120.2632 C320.486,112.5402 331.815,103.6672 344.515,97.1372 C389.588,73.9602 442.753,74.7972 491.73,81.0332 C501.671,82.2992 508.987,72.7852 503.729,63.7162 C501.887,60.5402 496.954,63.4092 498.801,66.5962" id="Fill-15"></path>
                <path d="M545.7189,47.9258 C545.7189,456.9038 754.9629,616.6898 969.9139,721.3128 C1184.8639,825.9348 1165.8429,892.5118 1165.8429,892.5118 C1236.2249,1349.0448 1481.6119,1309.0988 1481.6119,1309.0988 C1481.6119,1309.0988 1664.7249,1023.8708 1279.9759,841.1528 C787.3009,607.1788 606.5899,506.3618 583.7629,122.1128 C583.7629,122.1128 576.1549,85.9698 585.6649,32.7088 L545.7189,47.9258 Z" id="Fill-17"></path>
                <path d="M542.8654,47.9258 C542.9494,137.0178 552.6344,226.8118 579.1474,312.1348 C600.2134,379.9268 632.0984,444.2438 675.1834,500.7678 C713.5684,551.1258 760.0284,594.6308 811.2354,631.7348 C861.2514,667.9758 915.3674,697.7768 970.7594,724.8918 C1011.9134,745.0358 1052.4904,767.2448 1089.4664,794.4398 C1110.0944,809.6118 1130.3454,826.6568 1145.7844,847.2678 C1153.2764,857.2698 1160.1194,868.5838 1162.6534,880.9798 C1163.2214,883.7598 1163.4754,886.1928 1163.3934,889.2938 C1163.3424,891.2628 1163.1164,890.1788 1163.0924,891.7518 C1163.0204,896.2538 1164.3054,901.0398 1165.0374,905.4978 C1166.1064,912.0048 1167.2264,918.5028 1168.4014,924.9908 C1170.5274,936.7288 1172.8324,948.4338 1175.3374,960.0968 C1179.9994,981.8078 1185.3514,1003.3748 1191.5504,1024.6998 C1201.8204,1060.0308 1214.4254,1094.7718 1230.3284,1127.9758 C1253.0774,1175.4748 1283.0974,1220.6678 1323.3354,1255.1568 C1349.5774,1277.6518 1380.0774,1295.3248 1413.3774,1304.9408 C1432.5044,1310.4638 1452.7314,1313.5668 1472.6764,1312.7138 C1475.3954,1312.5978 1479.7844,1312.9808 1482.3614,1311.8508 C1485.9334,1310.2848 1488.3174,1303.3288 1489.9864,1300.2088 C1503.5004,1274.9318 1513.4754,1247.5688 1519.9254,1219.6648 C1529.9384,1176.3548 1530.9754,1130.9868 1520.7764,1087.6038 C1507.0424,1029.1878 1473.3084,977.9038 1430.1364,936.8748 C1400.4514,908.6628 1366.6414,884.9488 1331.1614,864.6198 C1288.5774,840.2218 1243.2434,820.6218 1199.0514,799.3568 C1123.2504,762.8798 1047.6204,725.8248 974.0304,685.0248 C915.7374,652.7038 858.3554,617.9558 805.7454,576.8848 C761.9274,542.6788 721.4474,503.7378 688.8974,458.5118 C657.3594,414.6938 633.9644,365.7078 618.1704,314.1418 C599.5714,253.4178 590.8974,190.0448 586.9034,126.8038 C586.3574,118.1468 584.7134,109.6198 584.1884,100.9338 C582.8274,78.3758 584.5364,55.7058 588.4174,33.4668 C588.7504,31.5548 587.1404,29.1058 584.9064,29.9568 C571.5914,35.0298 558.2754,40.1018 544.9604,45.1748 C541.5614,46.4688 543.0364,51.9878 546.4764,50.6768 C559.7934,45.6048 573.1084,40.5318 586.4244,35.4598 L582.9144,31.9498 C579.0654,54.0088 577.2134,76.4478 578.3644,98.8358 C578.8474,108.2308 580.6064,117.4588 581.1974,126.8038 C583.2794,159.7758 586.6614,192.6878 591.9634,225.3038 C601.1014,281.5258 616.2734,336.9598 640.8404,388.4868 C663.4714,435.9568 694.0944,479.1468 730.4424,517.0908 C770.9364,559.3618 817.7824,595.1428 866.5824,627.2558 C927.5094,667.3478 991.8124,702.1608 1056.6794,735.3868 C1095.2424,755.1378 1134.1174,774.2718 1173.1114,793.1538 C1216.7644,814.2918 1261.2844,834.0038 1304.2894,856.4328 C1372.1044,891.8018 1437.2754,938.9498 1479.0304,1004.2518 C1507.1064,1048.1608 1522.4064,1098.9578 1522.3054,1151.1198 C1522.2314,1189.4388 1514.3264,1227.5568 1500.5674,1263.2578 C1496.2784,1274.3888 1491.3944,1285.3018 1485.8384,1295.8588 C1484.2834,1298.8138 1482.6774,1301.7438 1480.9854,1304.6228 C1480.6004,1305.2788 1479.8104,1306.1528 1479.6284,1306.8888 C1479.2104,1308.5698 1480.6934,1307.0558 1480.8504,1306.3478 C1480.8314,1306.4358 1480.4684,1306.4238 1479.1334,1306.5518 C1476.9434,1306.7628 1474.7514,1306.9208 1472.5514,1307.0128 C1464.6334,1307.3428 1456.6814,1306.9928 1448.8014,1306.1668 C1421.5404,1303.3118 1394.9764,1294.3638 1370.9504,1281.2988 C1332.8884,1260.6018 1301.2694,1229.6598 1276.0644,1194.6878 C1236.3504,1139.5818 1211.1044,1075.0218 1193.3004,1009.8738 C1187.3884,988.2388 1182.3054,966.3818 1177.8944,944.3928 C1175.4924,932.4208 1173.2914,920.4088 1171.2684,908.3668 C1170.4484,903.4808 1168.6914,897.8358 1168.6604,892.9918 C1168.6264,887.5518 1169.0384,882.8328 1167.6734,877.3428 C1164.4824,864.5098 1157.2244,852.8328 1149.2454,842.4598 C1133.7054,822.2598 1113.9484,805.5058 1093.5574,790.4058 C1032.0394,744.8498 960.8284,716.4008 894.7564,678.5718 C841.0484,647.8238 789.9364,612.2178 744.8884,569.6428 C696.7774,524.1718 656.3494,471.0678 625.9904,412.2068 C589.8704,342.1778 568.4034,265.4008 557.6444,187.5398 C551.2554,141.2948 548.6164,94.5918 548.5724,47.9258 C548.5684,44.2548 542.8614,44.2478 542.8654,47.9258" id="Fill-19"></path>
                <path d="M611.7941,45.6343 C521.3981,38.4763 477.5351,50.6813 451.5471,58.1613 C400.0061,72.9943 375.6651,121.7613 361.1511,167.3213 C346.6371,212.8823 363.4071,250.0293 355.3811,296.7913 C346.9201,346.0773 328.0081,393.9873 299.8831,437.3843 C286.5181,458.0063 271.0931,477.6243 258.9141,498.7973 C235.3541,539.7583 224.5031,586.2013 227.8111,631.9253 C228.7871,645.4223 229.6051,661.6623 216.8841,669.4143 C208.2731,640.0373 215.0511,607.7663 209.2511,577.8713 C201.2811,536.7933 222.9731,495.9873 247.1831,460.0583 C271.3931,424.1303 299.3971,388.3003 305.9311,347.0303 C314.4501,293.2053 302.9091,247.9383 311.8451,194.1643 C334.4431,58.1613 387.8591,25.9493 517.2891,2.6863 L611.7941,45.6343 Z" id="Fill-21"></path>
                <path d="M611.7941,42.7583 C564.6871,39.0883 516.5401,39.0613 470.3441,50.1393 C452.3831,54.4463 434.6371,59.6283 419.3221,70.3613 C399.1381,84.5093 384.5361,105.0233 373.8781,126.9883 C361.9391,151.5943 352.8131,178.1633 352.1631,205.6973 C351.4201,237.1873 357.7031,268.0843 352.0001,299.4633 C346.2231,331.2483 336.1451,362.2413 322.2791,391.4143 C307.9681,421.5293 288.7841,448.0753 270.1841,475.5753 C252.2291,502.1213 238.1591,530.6613 230.7141,561.9583 C227.0921,577.1853 224.9821,592.8073 224.4741,608.4523 C224.2191,616.2833 224.4091,624.1083 224.9351,631.9253 C225.3491,638.0783 225.8281,644.3283 224.9601,650.4663 C224.0081,657.2073 221.2681,663.1223 215.4331,666.9303 C216.8411,667.5043 218.2491,668.0773 219.6571,668.6493 C213.7721,647.8093 215.2661,626.1293 214.6921,604.7323 C214.1331,583.8503 208.3271,563.7883 211.9471,542.8763 C219.0491,501.8513 245.6591,467.7423 268.3861,434.1333 C279.6241,417.5133 290.4801,400.4703 298.4311,381.9903 C306.2791,363.7483 309.8721,344.8463 311.2991,325.1053 C314.3871,282.3763 307.5991,239.4123 314.3041,196.8683 C322.1471,147.1013 336.5061,93.2263 375.8531,58.7793 C414.6581,24.8043 467.8411,15.6573 516.6801,5.7073 C516.6151,5.7203 515.1891,5.1313 516.5581,5.4963 C517.3671,5.7133 518.1971,6.2413 518.9601,6.5883 C521.8601,7.9063 524.7611,9.2243 527.6611,10.5433 C536.9061,14.7443 546.1511,18.9463 555.3981,23.1473 C572.6721,30.9983 589.9461,38.8483 607.2201,46.6983 C608.2611,47.1723 609.3021,47.6453 610.3431,48.1173 C613.6881,49.6383 616.6141,44.6823 613.2461,43.1513 C582.4601,29.1603 551.6741,15.1693 520.8881,1.1783 C518.7751,0.2183 517.6401,-0.2707 515.1501,0.1603 C507.2021,1.5373 499.2811,3.1183 491.3851,4.7653 C477.5471,7.6523 463.7741,10.9153 450.2161,14.9273 C427.4621,21.6593 404.9411,30.5533 385.3501,44.1443 C343.7491,73.0033 324.4091,120.0083 313.9301,167.9473 C309.8591,186.5643 306.7491,205.3833 305.7931,224.4363 C304.7221,245.7923 305.9311,267.1563 306.3021,288.5123 C306.6821,310.4173 306.4671,332.9903 301.5711,354.4483 C297.0341,374.3353 287.7271,392.7173 277.1591,410.0283 C255.4851,445.5303 227.6591,477.6413 213.0701,517.0963 C206.2171,535.6303 202.8261,555.5413 205.8821,575.2133 C207.6041,586.2993 208.8231,597.1263 209.0191,608.3633 C209.2021,618.9653 208.9891,629.5763 209.5371,640.1713 C210.0631,650.3143 211.3461,660.3873 214.1101,670.1783 C214.5951,671.8923 216.7581,672.9273 218.3361,671.8973 C228.4171,665.3173 231.1731,654.1823 231.1821,642.7293 C231.1921,628.0453 229.6361,613.6193 230.7371,598.8953 C233.1481,566.6443 242.6361,534.9893 257.9161,506.5123 C273.5431,477.3913 295.1371,452.0183 311.8021,423.5193 C327.7301,396.2813 340.3931,367.0653 349.1471,336.7433 C353.4421,321.8643 357.0951,306.5953 359.1051,291.2243 C361.1501,275.5733 360.6341,259.8423 359.5751,244.1383 C358.5621,229.0913 357.2381,214.0083 358.2081,198.9203 C359.1821,183.7693 363.1471,169.4743 368.2661,155.2583 C376.6591,131.9483 387.8661,108.9003 404.8731,90.6023 C413.4701,81.3533 423.4791,73.5273 434.7561,67.8073 C443.1701,63.5383 452.1371,60.9003 461.1991,58.4293 C502.0011,47.3023 544.2911,45.0893 586.4011,46.9363 C594.8751,47.3083 603.3381,47.8513 611.7941,48.5103 C615.4851,48.7983 615.4671,43.0443 611.7941,42.7583" id="Fill-23"></path>
                <path d="M546.3625,100.9814 C402.1755,400.9964 499.3395,591.9814 620.1365,744.5104 C740.9335,897.0414 703.5085,939.1734 703.5085,939.1734 C594.1865,1298.8874 788.2785,1356.0954 788.2785,1356.0954 C788.2785,1356.0954 1023.1645,1211.4184 805.3405,941.7354 C526.4145,596.4054 429.3925,458.7374 548.1165,168.8154 C548.1165,168.8154 555.2765,139.6204 581.0315,103.9014 L546.3625,100.9814 Z" id="Fill-25"></path>
                <path d="M544.3576,99.8096 C511.9806,167.3996 486.8316,239.0346 476.7726,313.5416 C468.8236,372.4296 470.7786,432.4336 484.1976,490.3866 C496.2386,542.3896 517.2116,591.9326 543.8246,638.1046 C556.8866,660.7696 571.2706,682.6556 586.5266,703.9006 C604.2306,728.5556 623.6846,751.8706 641.4816,776.4496 C659.2246,800.9556 675.8996,826.5456 688.9036,853.9206 C696.4426,869.7936 702.9906,886.6216 705.6516,904.0806 C706.9526,912.6156 707.3826,921.7386 705.0816,930.1506 C704.4606,932.4186 703.8766,933.9856 702.8646,935.9126 C702.5326,936.5456 701.5516,938.1676 701.8746,937.5226 C698.7856,943.7076 697.4246,951.4196 695.5376,958.1126 C692.9936,967.1356 690.5786,976.1966 688.3106,985.2926 C684.0526,1002.3686 680.3076,1019.5756 677.2106,1036.8996 C672.1116,1065.4096 668.7076,1094.2806 667.9486,1123.2466 C666.8336,1165.8196 671.3806,1209.3536 686.5686,1249.3916 C696.5986,1275.8326 711.3156,1300.5846 731.1636,1320.8456 C743.5756,1333.5166 757.9716,1344.5396 773.8536,1352.5106 C778.5486,1354.8676 786.0976,1360.2016 791.1426,1357.0076 C806.5186,1347.2746 820.4356,1334.3466 832.8966,1321.2056 C855.9206,1296.9276 874.6046,1268.4366 886.3456,1237.0376 C902.0526,1195.0286 903.8236,1149.3426 894.0906,1105.7276 C879.3056,1039.4766 841.1596,982.4586 799.1516,930.3936 C750.8926,870.5806 702.6756,810.6486 657.1516,748.7106 C621.8656,700.7036 587.9326,651.3256 559.8936,598.6696 C537.1046,555.8756 518.4666,510.6076 508.6346,462.9966 C499.2066,417.3416 498.4996,370.3526 505.2726,324.2756 C509.0116,298.8376 514.8396,273.7346 522.0876,249.0756 C526.0096,235.7306 530.3496,222.5096 535.0176,209.4076 C539.8116,195.9546 545.7626,182.8506 550.3756,169.3556 C558.2866,146.2056 568.7476,125.0926 583.0366,105.0736 C584.1516,103.5126 582.6126,101.7126 581.0316,101.5796 C569.4746,100.6056 557.9196,99.6326 546.3626,98.6596 C543.3836,98.4086 543.4006,103.0546 546.3626,103.3036 C557.9196,104.2776 569.4746,105.2506 581.0316,106.2246 C580.3626,105.0596 579.6946,103.8936 579.0266,102.7296 C564.5186,123.0546 553.9026,144.5606 545.9086,168.0746 C541.4916,181.0636 535.7356,193.6756 531.0976,206.6096 C526.4796,219.4906 522.1766,232.4856 518.2726,245.6006 C504.3876,292.2396 495.5816,340.6726 496.0866,389.4586 C496.5546,434.5806 505.2376,479.1776 520.3506,521.6406 C537.5156,569.8696 562.1166,615.1546 589.3666,658.3616 C623.6676,712.7496 662.2766,764.3476 701.6496,815.1326 C725.6056,846.0326 749.9706,876.6106 774.4576,907.0896 C799.9126,938.7746 826.0116,969.8836 847.0196,1004.8016 C876.0276,1053.0136 896.8336,1107.9446 895.5356,1164.9116 C894.6286,1204.7346 882.4356,1243.4086 861.3486,1277.1136 C846.4516,1300.9246 827.4856,1322.2326 805.8786,1340.1576 C800.6026,1344.5336 795.1606,1348.7376 789.4626,1352.5536 C789.0376,1352.8386 787.9536,1353.2776 787.6916,1353.7206 C786.9996,1354.8916 786.9186,1352.8176 788.8896,1353.8546 C788.3576,1353.5756 787.6886,1353.5306 787.1426,1353.2706 C776.8876,1348.3876 766.4666,1343.6316 756.8076,1336.7596 C737.9766,1323.3636 722.1876,1305.8716 709.9286,1286.3356 C691.1246,1256.3686 680.6306,1221.8756 675.8126,1186.9986 C668.3356,1132.8636 673.7246,1077.3636 684.3546,1024.0366 C687.8356,1006.5786 691.9356,989.2456 696.5296,972.0466 C699.0196,962.7226 701.9286,953.5096 704.4206,944.1906 C704.8916,942.4306 705.0646,941.4566 705.7426,940.0576 C707.4136,936.6126 709.0956,933.5606 709.9716,929.7296 C715.7346,904.5056 704.4176,876.3216 694.0306,853.9556 C668.4136,798.7886 628.0566,753.4006 592.7066,704.5646 C562.1066,662.2926 534.8106,617.3446 514.6186,569.1276 C493.1536,517.8746 480.1156,463.2996 477.2656,407.7616 C473.8576,341.3376 484.7096,274.9876 504.6046,211.7086 C516.4146,174.1446 531.3636,137.6516 548.3676,102.1536 C549.6526,99.4706 545.6496,97.1116 544.3576,99.8096" id="Fill-27"></path>
            </g>
            <g id="Group-242" transform="translate(1.000000, 2.810000)">
                <path d="M457.2951,1387.3525 C457.0081,1387.3525 456.7181,1387.3265 456.4281,1387.2735 C455.5071,1387.1065 433.6451,1382.9685 412.3611,1364.9405 C376.8951,1334.8985 371.4911,1290.4935 373.2031,1258.5325 C375.0691,1223.6965 381.0171,1204.1825 386.2641,1186.9655 C397.1641,1151.2015 404.3641,1127.5745 359.9021,991.5725 C331.0291,903.2545 331.7921,832.3125 362.1691,780.7155 C389.0491,735.0585 438.3071,705.0325 508.5731,691.4725 C527.1941,687.8785 581.6931,674.3655 615.5571,635.1625 C598.5651,647.4805 573.8751,658.5815 540.0871,658.5825 C510.6081,658.5845 478.1311,649.9395 443.5551,632.8895 C443.5241,632.8735 443.4931,632.8585 443.4631,632.8425 C443.3381,632.7785 429.2221,625.7035 404.6001,625.7035 C329.1821,625.7035 259.0241,686.8215 213.4491,738.0935 C213.3681,738.1845 213.2831,738.2725 213.1951,738.3575 C211.4151,740.0785 168.4421,780.4985 68.8601,780.5025 C50.7181,780.5035 31.5811,779.1235 11.9821,776.4015 C11.1711,776.2885 10.4011,775.9715 9.7471,775.4805 C7.0501,773.4575 4.8871,769.6395 6.1321,765.6675 C7.8271,760.2625 14.5001,754.5605 51.1391,753.2515 L53.8011,753.1565 C105.6781,751.3085 112.3431,751.0705 141.7371,734.5365 C154.5531,727.3275 174.3621,707.2045 195.3341,685.8995 C223.8041,656.9785 256.0721,624.1985 283.0721,610.6985 L284.1901,610.1395 C313.2361,595.6115 357.1321,573.6575 417.5561,573.6575 C456.3771,573.6575 497.6321,582.7965 540.1851,600.8255 C540.8351,601.0245 544.5961,602.1005 550.2421,602.1005 C576.6711,602.1005 595.3031,580.3445 604.6941,566.0355 C601.3411,555.7355 589.1791,513.7165 601.6161,479.9565 C605.7461,468.7485 603.1961,459.9625 600.4981,450.6625 C597.7831,441.3105 594.9781,431.6395 600.1701,420.7395 C605.4751,409.6065 618.6541,398.8645 641.6051,386.9825 L734.9291,261.2825 C736.0311,253.8975 742.5381,217.4355 768.3351,176.9605 C784.9481,150.8945 806.1531,128.6315 831.3611,110.7895 C862.7291,88.5885 900.3821,73.2345 943.2791,65.1525 C949.1131,63.2775 1040.8931,33.6755 1079.6511,15.2195 C1094.5571,8.1215 1104.1811,4.9565 1110.8571,4.9565 C1117.4271,4.9565 1120.5931,8.0455 1122.0931,10.6365 C1126.1541,17.6585 1125.7551,31.3875 1095.5851,83.8555 C1084.3691,103.3615 1078.4281,129.7955 1072.1381,157.7825 C1053.7641,239.5265 1030.9131,341.1565 862.8371,368.0545 L828.1141,452.1195 C832.2121,458.7115 842.9021,478.3945 838.6391,498.3615 C836.1801,509.8785 829.2361,519.4185 817.9841,526.7575 C818.0801,531.7765 817.5781,542.3025 812.9611,555.0455 C807.1661,571.0415 793.4821,593.8245 761.2021,611.5265 C739.5841,623.3815 731.4131,657.8065 740.8701,697.1895 C753.9011,751.4585 798.6411,807.1755 869.2191,809.3145 C870.6261,809.3575 872.0341,809.3785 873.4331,809.3785 C912.7011,809.3785 948.7871,792.9735 986.9911,775.6045 C1028.6001,756.6895 1071.6231,737.1305 1122.5291,737.1305 C1178.0231,737.1305 1234.6001,761.0935 1295.4941,810.3895 C1295.7811,810.6215 1296.0411,810.8865 1296.2691,811.1785 C1299.0201,814.7155 1307.6961,826.8705 1303.8371,834.7605 C1302.6041,837.2835 1299.7331,840.2915 1293.0711,840.2915 C1287.5571,840.2915 1279.8121,838.2665 1269.3931,834.0985 C1257.6091,829.3855 1247.3131,822.5365 1236.4121,815.2845 C1214.1081,800.4475 1191.0451,785.1045 1151.0621,785.1045 C1126.1561,785.1045 1097.6911,791.0315 1064.0431,803.2235 C1046.1351,809.7115 1028.1991,816.9605 1010.8551,823.9715 C957.5741,845.5055 907.2491,865.8455 857.3711,865.8505 L857.3551,865.8505 C791.2001,865.8525 737.7211,829.3465 689.0421,750.9645 C688.9761,750.8585 688.9141,750.7505 688.8571,750.6395 C687.9011,748.7975 668.3931,710.1505 676.1131,647.7495 C659.9171,674.5665 631.3611,710.1315 589.8991,720.2455 C488.2351,745.0405 455.0931,768.1145 432.2031,799.5885 C402.0381,841.0635 373.5461,880.2385 419.3691,1025.3465 C452.6951,1130.8785 434.8351,1203.7265 423.0171,1251.9305 C418.3481,1270.9755 414.6601,1286.0175 415.7061,1296.9985 C419.2861,1334.5955 450.1891,1372.6205 459.7781,1378.3735 C461.7811,1379.5755 462.6381,1382.0365 461.8161,1384.2215 C461.0971,1386.1305 459.2751,1387.3525 457.2951,1387.3525" id="Fill-30" fill="#000000"></path>
                <path d="M1110.8566,0.123 C1103.3256,0.123 1093.3716,3.333 1077.5736,10.855 C1039.6166,28.93 950.0566,57.894 942.0866,60.46 C898.6236,68.686 860.4346,84.29 828.5696,106.845 C802.8476,125.05 781.2116,147.766 764.2586,174.363 C739.2066,213.671 731.9576,249.452 730.3396,259.354 L638.3876,383.208 C614.7576,395.551 601.5876,406.532 595.8076,418.661 C589.8236,431.221 593.0286,442.265 595.8566,452.01 C598.4346,460.895 600.6616,468.568 597.0816,478.286 C584.9026,511.343 595.2176,551.663 599.3906,565.282 C591.3036,577.181 582.3066,585.898 572.6006,591.23 C565.3096,595.236 557.7876,597.267 550.2426,597.267 C545.7386,597.267 542.6536,596.5 541.8096,596.265 C498.7496,578.055 456.9486,568.824 417.5556,568.824 C355.9896,568.824 311.4796,591.086 282.0266,605.818 L280.9116,606.375 C253.1916,620.235 220.6236,653.32 191.8886,682.51 C171.1646,703.564 151.5876,723.45 139.3686,730.324 C110.9986,746.283 104.4656,746.515 53.6286,748.326 L50.9656,748.421 C18.5866,749.578 4.7236,754.008 1.5206,764.221 C-0.4314,770.446 2.7896,776.304 6.8466,779.347 C8.1566,780.33 9.6946,780.963 11.3166,781.188 C31.1316,783.94 50.4926,785.336 68.8616,785.336 C170.3756,785.336 214.7166,743.609 216.5546,741.833 C216.7306,741.663 216.8996,741.487 217.0616,741.304 C254.1556,699.575 291.4736,669.106 327.9816,650.745 C354.6466,637.334 380.4246,630.535 404.5986,630.537 C427.3716,630.539 440.6056,636.826 441.2666,637.148 C441.3316,637.182 441.3306,637.181 441.4176,637.224 C476.6606,654.603 509.8576,663.416 540.0866,663.416 C555.4306,663.416 569.9456,661.184 583.5046,656.756 C562.6906,670.958 537.2686,681.012 507.6586,686.727 C475.0286,693.023 446.4046,703.037 422.5816,716.489 C394.5436,732.321 372.8166,753.104 358.0036,778.264 C343.0906,803.595 335.0246,833.689 334.0286,867.709 C332.9546,904.416 340.1146,946.595 355.3086,993.074 C399.2966,1127.625 392.2726,1150.671 381.6406,1185.556 C376.3136,1203.037 370.2746,1222.85 368.3776,1258.274 C366.9736,1284.465 370.5776,1307.792 379.0856,1327.61 C386.0146,1343.75 396.1596,1357.551 409.2386,1368.629 C431.4966,1387.483 454.5906,1391.852 455.5626,1392.028 C456.1436,1392.135 456.7236,1392.186 457.2976,1392.186 C461.2586,1392.186 464.9006,1389.742 466.3376,1385.925 C467.9836,1381.555 466.2696,1376.633 462.2656,1374.229 C459.2686,1372.432 449.6786,1362.84 440.0576,1347.822 C432.2046,1335.562 422.4386,1316.714 420.5166,1296.539 C419.5486,1286.374 423.1506,1271.683 427.7106,1253.083 C439.6576,1204.354 457.7116,1130.715 423.9786,1023.891 C412.9766,989.053 405.9616,959.513 402.5346,933.585 C399.5206,910.795 399.3726,891.346 402.0776,874.126 C407.0686,842.365 421.1756,822.968 436.1106,802.432 C450.0716,783.236 468.6446,768.537 494.5606,756.173 C517.7086,745.13 546.5616,735.79 591.0436,724.941 C626.1716,716.373 652.2626,690.407 669.7256,666.176 C667.3966,718.912 683.6826,751.161 684.5666,752.865 C684.6816,753.086 684.8046,753.303 684.9366,753.515 C711.1246,795.682 738.5096,825.552 768.6566,844.832 C795.8566,862.227 824.8766,870.684 857.3716,870.684 C908.1876,870.684 958.9336,850.172 1012.6606,828.456 C1029.9656,821.46 1047.8626,814.227 1065.6896,807.768 C1098.8076,795.768 1126.7326,789.936 1151.0606,789.938 C1189.5846,789.942 1212.0286,804.872 1233.7346,819.31 C1244.8506,826.703 1255.3486,833.687 1267.5966,838.586 C1278.5966,842.986 1286.9286,845.124 1293.0706,845.124 C1302.7096,845.124 1306.6726,839.962 1308.1786,836.885 C1310.8426,831.436 1309.9776,824.805 1305.5336,816.61 C1303.1096,812.142 1300.3856,808.6 1300.0836,808.211 C1299.6286,807.627 1299.1096,807.098 1298.5346,806.632 C1265.6666,780.024 1234.7646,761.101 1204.0646,748.781 C1176.4246,737.689 1149.7546,732.297 1122.5306,732.297 C1070.5766,732.297 1027.0676,752.077 984.9916,771.205 C947.2776,788.351 911.6546,804.545 873.4336,804.545 C872.0806,804.545 870.7126,804.524 869.3666,804.483 C837.8386,803.528 809.1826,791.298 786.4936,769.115 C766.7896,749.85 752.2556,723.905 745.5696,696.06 C736.6296,658.826 743.8446,626.557 763.5256,615.764 C797.1276,597.337 811.4266,573.47 817.5046,556.692 C821.6546,545.242 822.6566,535.369 822.7976,529.331 C833.8816,521.477 840.7926,511.421 843.3656,499.371 C847.5776,479.649 838.4816,460.371 833.5046,451.732 L866.2756,372.39 C940.4746,360.062 993.0846,332.075 1027.0026,286.926 C1057.0546,246.925 1067.5736,200.129 1076.8526,158.842 C1083.0606,131.223 1088.9246,105.136 1099.7756,86.265 C1129.5166,34.54 1131.9646,18.053 1126.2736,8.216 C1124.5256,5.193 1120.1976,0.123 1110.8566,0.123 M1110.8566,9.789 C1125.1306,9.789 1122.0086,28.207 1091.3956,81.447 C1046.9306,158.776 1085.5956,328.902 859.4066,363.7 L822.6746,452.629 C822.6746,452.629 855.5406,499.027 813.0086,524.159 C813.0086,524.159 818.8086,574.423 758.8786,607.289 C698.9476,640.153 741.4786,810.279 869.0726,814.145 C870.5296,814.189 871.9866,814.211 873.4336,814.211 C957.0226,814.211 1026.2206,741.963 1122.5306,741.963 C1170.6706,741.963 1225.5746,760.005 1292.4526,814.145 C1292.4526,814.145 1309.0286,835.458 1293.0706,835.458 C1288.6376,835.458 1281.6946,833.814 1271.1866,829.611 C1236.1666,815.603 1212.2956,780.278 1151.0616,780.272 C1127.7896,780.27 1099.1316,785.37 1062.3966,798.68 C990.9286,824.574 922.7746,861.018 857.3716,861.018 C800.7006,861.018 746.0986,833.675 693.1476,748.415 C693.1476,748.415 667.1426,698.262 686.1426,619.805 C686.2116,619.521 685.9876,619.325 685.7656,619.325 C685.6346,619.325 685.5046,619.392 685.4356,619.549 C677.5826,637.281 645.5116,701.706 588.7536,715.55 C509.4896,734.882 459.2256,754.215 428.2946,796.746 C397.3616,839.277 368.3626,879.875 414.7606,1026.802 C461.1596,1173.728 407.0286,1256.857 410.8946,1297.456 C414.7606,1338.054 447.6266,1376.719 457.2926,1382.519 C457.2926,1382.519 372.2296,1367.053 378.0296,1258.791 C383.8296,1150.529 430.2266,1191.127 364.4966,990.07 C298.7666,789.013 399.2946,717.483 509.4896,696.218 C601.3476,678.491 631.4106,624.493 638.8726,607.013 C639.0856,606.512 638.6796,606.096 638.2556,606.096 C638.0656,606.096 637.8726,606.18 637.7296,606.378 C628.3836,619.367 598.1546,653.75 540.0866,653.75 C514.3096,653.75 483.0536,646.979 445.6926,628.554 C445.6926,628.554 430.9116,620.873 404.5996,620.871 C363.6066,620.868 294.6156,639.507 209.8366,734.882 C209.8366,734.882 167.6346,775.669 68.8616,775.669 C51.8266,775.669 33.1216,774.458 12.6466,771.614 C12.6466,771.614 -2.8194,760.015 51.3116,758.081 C105.4426,756.148 113.1746,756.148 144.1066,738.749 C175.0396,721.35 238.8356,638.22 285.2336,615.021 C314.7306,600.273 357.5186,578.49 417.5556,578.49 C451.9556,578.49 492.0106,585.638 538.4886,605.355 C538.4886,605.355 542.9976,606.933 550.2426,606.933 C564.2166,606.933 588.3746,601.066 610.0186,566.69 C610.0186,566.69 592.6196,518.359 606.1516,481.628 C619.6846,444.896 569.4206,429.43 644.8166,390.765 L739.5466,263.171 C739.5466,263.171 758.8786,104.645 944.4686,69.847 C944.4686,69.847 1041.1306,38.915 1081.7296,19.583 C1094.3776,13.561 1104.3976,9.789 1110.8566,9.789" id="Fill-32" fill="#000000"></path>
                <path d="M644.8166,390.7651 L739.5456,263.1711 C739.5456,263.1711 758.8786,104.6451 944.4686,69.8471 C944.4686,69.8471 1041.1306,38.9151 1081.7296,19.5831 C1122.3276,0.2501 1135.8606,4.1171 1091.3956,81.4471 C1046.9306,158.7761 1085.5956,328.9011 859.4066,363.7001 L822.6746,452.6291 C822.6746,452.6291 855.5406,499.0271 813.0086,524.1591 C813.0086,524.1591 818.8086,574.4231 758.8786,607.2881 C698.9476,640.1541 741.4786,810.2791 869.0726,814.1451 C996.6676,818.0121 1089.4616,649.8201 1292.4536,814.1451 C1292.4536,814.1451 1319.5186,848.9441 1271.1876,829.6111 C1222.8566,810.2791 1195.7916,750.3481 1062.3966,798.6791 C929.0036,847.0101 807.2096,932.0731 693.1476,748.4151 C693.1476,748.4151 667.1426,698.2621 686.1426,619.8051 C686.2526,619.3541 685.6246,619.1251 685.4356,619.5491 C677.5826,637.2811 645.5116,701.7061 588.7536,715.5501 C509.4896,734.8821 459.2256,754.2151 428.2946,796.7461 C397.3616,839.2771 368.3636,879.8751 414.7606,1026.8021 C461.1586,1173.7281 407.0276,1256.8571 410.8946,1297.4561 C414.7606,1338.0541 447.6266,1376.7191 457.2926,1382.5181 C457.2926,1382.5181 372.2296,1367.0531 378.0296,1258.7911 C383.8296,1150.5291 430.2266,1191.1271 364.4966,990.0701 C298.7666,789.0131 399.2946,717.4831 509.4896,696.2181 C601.3476,678.4911 631.4106,624.4931 638.8726,607.0131 C639.1806,606.2871 638.1896,605.7381 637.7296,606.3781 C624.2356,625.1321 567.2186,688.4841 445.6926,628.5541 C445.6926,628.5541 349.0306,578.2901 209.8366,734.8821 C209.8366,734.8821 151.8396,790.9461 12.6466,771.6141 C12.6466,771.6141 -2.8194,760.0151 51.3116,758.0811 C105.4426,756.1481 113.1746,756.1481 144.1066,738.7491 C175.0396,721.3491 238.8366,638.2201 285.2336,615.0211 C331.6316,591.8231 410.8946,551.2241 538.4886,605.3551 C538.4886,605.3551 577.1536,618.8881 610.0186,566.6901 C610.0186,566.6901 592.6196,518.3591 606.1516,481.6281 C619.6846,444.8961 569.4206,429.4301 644.8166,390.7651" id="Fill-34" fill="#990726"></path>
                <path d="M839.1281,359.269 C827.4341,385.286 816.0151,411.427 804.4941,437.52 C801.2341,444.902 802.0911,454.479 810.0421,458.681 C816.7571,462.228 827.7141,461.034 831.2031,453.132 C842.7241,427.039 854.1431,400.897 865.8371,374.881 C869.1461,367.519 868.2071,357.904 860.2881,353.721 C853.5321,350.151 842.6691,351.391 839.1281,359.269" id="Fill-36" fill="#77111D"></path>
                <path d="M688.0324,569.6582 C686.1224,567.8222 684.4514,565.5252 683.1044,562.9132 C677.7834,552.5962 664.1814,522.8432 667.6204,494.1562 C671.8714,458.6972 744.0514,473.3662 774.3714,516.9092 C804.0204,559.4902 731.1214,611.0932 688.0324,569.6582" id="Fill-38" fill="#BC0826"></path>
                <path d="M782.1594,541.731 C782.1594,564.523 763.6814,583.001 740.8894,583.001 C718.0964,583.001 699.6194,564.523 699.6194,541.731 C699.6194,518.938 718.0964,500.461 740.8894,500.461 C763.6814,500.461 782.1594,518.938 782.1594,541.731" id="Fill-40" fill="#77111D"></path>
                <path d="M771.2766,544.1636 C771.2766,560.3656 758.1416,573.4996 741.9406,573.4996 C725.7386,573.4996 712.6046,560.3656 712.6046,544.1636 C712.6046,527.9616 725.7386,514.8276 741.9406,514.8276 C758.1416,514.8276 771.2766,527.9616 771.2766,544.1636" id="Fill-42" fill="#E8EABB"></path>
                <path d="M769.551,544.1636 C769.203,559.2086 757.253,571.7736 741.941,571.7736 C726.893,571.7736 714.33,559.2106 714.33,544.1636 C714.33,529.1416 726.892,516.5196 741.941,516.5536 C757.257,516.5876 769.202,529.0906 769.551,544.1636 C769.602,546.3806 773.054,546.3896 773.002,544.1636 C772.704,531.3046 765.062,519.7296 752.908,515.1016 C740.563,510.4016 726.124,514.3396 717.829,524.5956 C709.702,534.6426 708.628,549.1276 715.341,560.2116 C722.023,571.2446 735.153,577.0696 747.819,574.6636 C762.506,571.8736 772.662,558.8646 773.002,544.1636 C773.053,541.9416 769.602,541.9426 769.551,544.1636" id="Fill-44" fill="#000000"></path>
                <path d="M762.6486,544.1636 C762.6486,554.9646 753.8916,563.7206 743.0906,563.7206 C732.2906,563.7206 723.5336,554.9646 723.5336,544.1636 C723.5336,533.3626 732.2906,524.6066 743.0906,524.6066 C753.8916,524.6066 762.6486,533.3626 762.6486,544.1636" id="Fill-46" fill="#000000"></path>
                <path d="M754.3088,560.5674 C754.3088,563.7444 751.7338,566.3194 748.5568,566.3194 C745.3798,566.3194 742.8038,563.7444 742.8038,560.5674 C742.8038,557.3904 745.3798,554.8154 748.5568,554.8154 C751.7338,554.8154 754.3088,557.3904 754.3088,560.5674" id="Fill-48" fill="#FFFFFF"></path>
                <path d="M740.7863,524.5874 C740.7863,525.8584 739.7563,526.8884 738.4853,526.8884 C737.2153,526.8884 736.1843,525.8584 736.1843,524.5874 C736.1843,523.3164 737.2153,522.2864 738.4853,522.2864 C739.7563,522.2864 740.7863,523.3164 740.7863,524.5874" id="Fill-50" fill="#FFFFFF"></path>
                <path d="M697.2863,752.2847 C719.9733,771.9237 744.6823,789.2257 770.8943,803.8297 C796.4213,818.0517 824.0833,829.8897 853.2553,831.5777 C891.3833,833.7827 928.3503,818.5147 961.8853,800.2387 C995.4203,781.9627 1027.4353,760.2517 1063.4863,747.6457 C1145.9553,718.8097 1244.8033,745.2117 1301.9093,811.3287 C1307.1653,817.4137 1312.3863,824.8997 1310.9033,832.8037 C1308.7963,844.0427 1293.9513,848.4987 1283.1713,844.6857 C1272.3903,840.8727 1264.5043,831.8177 1255.9233,824.2597 C1217.7723,790.6547 1161.6233,785.0137 1111.7053,794.6567 C1061.7873,804.2997 1015.5713,827.1147 967.9193,844.8357 C920.2663,862.5557 868.3623,875.3557 818.8203,863.9367 C768.4163,852.3187 724.7893,814.5867 706.0273,766.3837 L697.2863,752.2847 Z" id="Fill-52" fill="#DDB38A"></path>
                <path d="M411.8615,762.9146 C378.9025,791.4766 363.1435,823.6986 363.5305,867.3096 C363.7425,891.2196 371.8265,952.7606 378.9965,975.5716 C400.2615,1043.2346 425.3935,1043.2346 436.1085,1165.2606 C444.6665,1133.1336 439.2185,1098.9926 431.2145,1066.7226 C420.5285,1023.6476 405.3335,981.5176 399.5105,937.5206 C393.6895,893.5236 398.3095,846.0026 424.0615,809.8576 C444.2225,781.5616 474.8965,763.5356 506.1775,749.8866 C513.2595,746.7966 576.2555,731.7636 554.9215,722.3166 C541.9415,716.5696 486.2365,730.4436 473.5725,734.6286 C454.7595,740.8476 426.8445,749.9286 411.8615,762.9146" id="Fill-54" fill="#DDB38A"></path>
                <path d="M281.3664,646.165 C334.2224,608.577 404.5404,596.733 466.7944,614.932 C509.0214,627.277 550.4304,652.832 593.6874,644.812 C564.9564,661.756 528.6414,658.268 496.4214,649.639 C464.2004,641.011 432.6834,627.719 399.3484,626.551 C369.1134,625.492 339.0924,634.667 312.6584,649.383 C286.2244,664.1 263.1294,684.188 242.0474,705.886 C223.1174,725.367 201.0564,754.7 173.7034,762.037 C185.7444,740.626 207.2994,720.177 223.4224,701.427 C240.8504,681.159 259.5064,661.711 281.3664,646.165" id="Fill-56" fill="#DDB38A"></path>
                <path d="M967.3039,310.7231 C995.9169,289.8071 1018.8239,261.7541 1036.6649,231.1291 C1053.5559,202.1391 1064.3399,158.7191 1074.9629,126.8781 C1075.1149,126.4221 1082.7839,124.4731 1082.6969,124.9441 C1075.4349,163.8261 1062.2449,217.3221 1044.0669,252.3881 C1026.6699,285.9451 1000.0629,314.6681 967.9319,334.5751 C942.9569,350.0481 914.7029,360.1611 885.6099,364.1991 C881.1749,364.8151 865.1389,370.7801 864.2399,364.6661 C863.3579,358.6671 880.1669,354.0221 884.1089,352.5371 C897.8879,347.3441 911.5699,341.8481 924.8739,335.5251 C939.6879,328.4851 954.0489,320.4111 967.3039,310.7231" id="Fill-58" fill="#77111D"></path>
                <path d="M818.3273,120.8306 C862.7203,85.0546 918.3423,67.8226 974.4123,55.1386 C976.4983,54.6666 977.3513,57.7066 975.3213,58.3796 C946.6553,67.8886 918.8483,79.4866 891.0343,91.1896 C842.9733,111.4126 812.0423,136.5436 792.7103,167.4766 C791.7083,169.0786 782.7903,186.5886 784.1363,185.2616 C806.3633,163.3576 916.2233,119.4556 951.2353,107.5456 C942.9723,110.3566 837.5343,166.8226 830.2093,171.5216 C822.1233,176.7086 814.2103,182.1666 806.4883,187.8826 C791.0463,199.3156 776.3663,211.7806 762.5853,225.1696 C758.7033,228.9416 744.3793,250.6056 740.5123,254.4716 C739.4863,255.4976 740.3713,245.5026 740.5183,244.0596 C740.8873,240.4446 742.8233,235.9126 743.6993,232.9146 C745.0983,228.1346 746.6573,223.4026 748.3733,218.7276 C751.7203,209.6096 755.6593,200.7096 760.1493,192.0976 C769.2443,174.6506 780.5983,158.3776 793.8673,143.8476 C801.4243,135.5726 809.6003,127.8626 818.3273,120.8306" id="Fill-60" fill="#77111D"></path>
                <path d="M1085.9073,69.771 C1089.0943,56.964 1092.2933,44.08 1093.2203,30.916 C1085.2193,30.285 1077.4933,33.544 1070.0113,36.454 C1037.5093,49.095 1002.8713,56.23 968.0173,57.465 C985.1953,51.374 1002.3733,45.283 1019.5513,39.191 C1035.0643,33.69 1050.6103,28.176 1065.4773,21.114 C1081.8283,13.347 1098.6393,3.449 1116.6403,5.347 C1121.0373,5.81 1126.1563,7.798 1126.9223,12.152 C1127.8673,17.53 1121.7023,21.094 1118.6683,25.634 C1115.5793,30.254 1115.7713,36.219 1114.9493,41.716 C1113.8053,49.36 1110.5403,56.5 1107.3103,63.523 C1102.5693,73.834 1097.8273,84.146 1093.0863,94.457 C1088.4833,104.465 1083.8443,114.536 1077.5133,123.55 C1073.1223,115.965 1076.7333,106.646 1078.6623,98.895 C1081.0773,89.187 1083.4923,79.479 1085.9073,69.771" id="Fill-62" fill="#77111D"></path>
                <path d="M817.842,347.2676 C812.583,336.6846 819.776,320.2026 825.575,304.7356 C829.725,293.6706 848.774,256.4046 919.882,178.8326 C889.372,200.3406 874.446,214.3616 868.107,221.6066 C841.041,252.5386 836.757,255.2426 813.074,290.9746 C807.124,299.9516 801.325,309.3166 798.92,319.8146 C795.152,336.2576 790.079,351.1846 802.376,362.7336 C814.673,374.2826 843.88,382.0236 860.055,377.2336 C861.062,374.3566 884.805,354.5786 881.639,355.0006 C852.64,358.8666 821.166,354.5386 817.842,347.2676" id="Fill-64" fill="#77111D"></path>
                <path d="M863.0451,364.4048 C863.0451,364.4048 842.9741,368.5328 815.9081,355.0008 C788.8431,341.4678 838.1411,224.5068 1035.3311,85.3128" id="Stroke-66" stroke="#000000" stroke-width="0.967" stroke-linecap="round" stroke-linejoin="round"></path>
                <path d="M774.7209,247.8706 C852.1269,168.0646 898.0979,138.3706 1034.6759,73.2306 C1035.6899,72.7466 1036.4889,74.1926 1035.5419,74.7976 C914.1909,152.2836 880.3979,185.4596 853.2999,211.6536 C837.4539,226.9706 803.3779,270.1816 791.1589,289.0186 C767.1589,326.0186 760.1589,369.0186 760.1589,369.0186 C751.1589,356.0186 705.1589,345.0186 692.1589,352.0186 C692.1589,352.0186 760.6959,262.3306 774.7209,247.8706" id="Fill-68" fill="#BC0826"></path>
                <path d="M644.8166,390.7651 C644.8166,390.7651 735.6786,359.8331 822.6746,452.6291 C822.6746,452.6291 859.4066,506.7601 813.0086,524.1591 C813.0086,524.1591 705.9786,402.0561 604.2186,448.7631 C604.2186,448.7631 573.2876,415.8971 644.8166,390.7651" id="Fill-70" fill="#990726"></path>
                <path d="M644.8166,390.7651 C644.8166,390.7651 735.6786,359.8331 822.6746,452.6291 C822.6746,452.6291 859.4066,506.7601 813.0086,524.1591 C813.0086,524.1591 705.9786,402.0561 604.2186,448.7631 C604.2186,448.7631 573.2876,415.8971 644.8166,390.7651 Z" id="Stroke-72" stroke="#000000" stroke-width="1.933" stroke-linecap="round" stroke-linejoin="round"></path>
                <path d="M982.8693,151.7305 C998.9313,138.3665 1014.9913,125.0015 1031.0533,111.6375 C1038.3063,105.6025 1048.5963,99.3355 1056.3613,104.6955 C1060.8463,107.7915 1062.3933,113.9185 1061.5363,119.2995 C1060.6793,124.6815 1057.8593,129.5185 1055.0923,134.2115 C1035.9333,166.7065 1016.4633,199.6055 989.5793,226.0665 C983.3813,232.1685 976.5633,238.0435 968.2943,240.7405 C960.0243,243.4365 949.9673,242.2695 944.1053,235.8425 C923.2433,212.9705 967.0363,164.9045 982.8693,151.7305" id="Fill-74" fill="#BC0826"></path>
                <path d="M895.1994,99.3296 C891.8624,101.1716 888.1534,103.6646 887.8874,107.4666 C887.6064,111.4846 891.6764,114.7276 895.6894,115.0666 C899.7024,115.4056 903.5664,113.6706 907.2204,111.9756 C921.4564,105.3706 935.6924,98.7646 949.9284,92.1596 C964.5894,85.3566 979.2494,78.5546 993.9104,71.7516 C997.0964,70.2726 1000.8674,67.6936 1000.0754,64.2696 C991.8964,64.4186 983.6194,63.7046 975.7074,65.9216 C966.1924,68.5886 956.7994,71.7966 947.5464,75.2566 C929.5774,81.9746 911.9284,89.9196 895.1994,99.3296" id="Fill-76" fill="#BC0826"></path>
                <path d="M968.6349,239.0059 C968.6349,241.1409 966.9039,242.8729 964.7689,242.8729 C962.6329,242.8729 960.9019,241.1409 960.9019,239.0059 C960.9019,236.8709 962.6329,235.1389 964.7689,235.1389 C966.9039,235.1389 968.6349,236.8709 968.6349,239.0059" id="Fill-78" fill="#990726"></path>
                <path d="M947.3693,206.1406 C947.3693,208.2766 945.6383,210.0076 943.5033,210.0076 C941.3673,210.0076 939.6363,208.2766 939.6363,206.1406 C939.6363,204.0056 941.3673,202.2746 943.5033,202.2746 C945.6383,202.2746 947.3693,204.0056 947.3693,206.1406" id="Fill-80" fill="#990726"></path>
                <path d="M997.633,206.1406 C997.633,208.2766 995.903,210.0076 993.767,210.0076 C991.632,210.0076 989.901,208.2766 989.901,206.1406 C989.901,204.0056 991.632,202.2746 993.767,202.2746 C995.903,202.2746 997.633,204.0056 997.633,206.1406" id="Fill-82" fill="#990726"></path>
                <path d="M947.758,225.9565 C946.957,224.5695 947.432,222.7955 948.82,221.9955 C950.206,221.1945 951.98,221.6695 952.78,223.0565 C953.581,224.4435 953.106,226.2175 951.719,227.0185 C950.332,227.8185 948.559,227.3435 947.758,225.9565" id="Fill-84" fill="#990726"></path>
                <path d="M970.9562,220.1567 C970.1552,218.7697 970.6312,216.9957 972.0182,216.1957 C973.4052,215.3947 975.1792,215.8697 975.9792,217.2567 C976.7802,218.6437 976.3052,220.4177 974.9182,221.2187 C973.5302,222.0187 971.7572,221.5437 970.9562,220.1567" id="Fill-86" fill="#990726"></path>
                <path d="M959.3566,210.4907 C958.5566,209.1037 959.0316,207.3297 960.4186,206.5297 C961.8056,205.7287 963.5796,206.2037 964.3796,207.5907 C965.1806,208.9777 964.7056,210.7507 963.3186,211.5517 C961.9316,212.3527 960.1576,211.8777 959.3566,210.4907" id="Fill-88" fill="#990726"></path>
                <path d="M961.8273,194.2109 C961.1463,193.0329 961.5513,191.5259 962.7293,190.8449 C963.9073,190.1649 965.4143,190.5689 966.0953,191.7469 C966.7753,192.9259 966.3713,194.4329 965.1933,195.1129 C964.0153,195.7939 962.5083,195.3899 961.8273,194.2109" id="Fill-90" fill="#990726"></path>
                <path d="M976.3918,186.8491 C975.9428,186.0711 976.2088,185.0761 976.9868,184.6271 C977.7648,184.1781 978.7598,184.4441 979.2088,185.2231 C979.6588,186.0001 979.3918,186.9951 978.6138,187.4451 C977.8358,187.8941 976.8408,187.6271 976.3918,186.8491" id="Fill-92" fill="#990726"></path>
                <path d="M976.3918,208.1152 C975.9428,207.3372 976.2088,206.3422 976.9868,205.8922 C977.7648,205.4432 978.7598,205.7102 979.2088,206.4882 C979.6588,207.2662 979.3918,208.2612 978.6138,208.7102 C977.8358,209.1592 976.8408,208.8932 976.3918,208.1152" id="Fill-94" fill="#990726"></path>
                <path d="M953.1926,235.1802 C952.7436,234.4022 953.0096,233.4072 953.7886,232.9582 C954.5666,232.5092 955.5606,232.7752 956.0096,233.5542 C956.4596,234.3312 956.1926,235.3262 955.4156,235.7762 C954.6366,236.2252 953.6416,235.9582 953.1926,235.1802" id="Fill-96" fill="#990726"></path>
                <path d="M935.7932,237.1138 C935.3442,236.3358 935.6102,235.3408 936.3892,234.8918 C937.1672,234.4418 938.1622,234.7088 938.6112,235.4868 C939.0612,236.2648 938.7942,237.2598 938.0162,237.7088 C937.2372,238.1578 936.2422,237.8918 935.7932,237.1138" id="Fill-98" fill="#BC0826"></path>
                <path d="M941.593,248.7129 C941.144,247.9349 941.41,246.9399 942.189,246.4909 C942.967,246.0419 943.962,246.3079 944.411,247.0869 C944.861,247.8639 944.594,248.8589 943.816,249.3089 C943.037,249.7579 942.042,249.4909 941.593,248.7129" id="Fill-100" fill="#BC0826"></path>
                <path d="M933.8605,221.6479 C933.4115,220.8699 933.6775,219.8749 934.4555,219.4249 C935.2335,218.9759 936.2285,219.2429 936.6775,220.0209 C937.1275,220.7989 936.8605,221.7939 936.0825,222.2429 C935.3035,222.6919 934.3095,222.4259 933.8605,221.6479" id="Fill-102" fill="#BC0826"></path>
                <path d="M929.9933,250.6465 C929.5443,249.8685 929.8103,248.8735 930.5893,248.4235 C931.3673,247.9745 932.3623,248.2415 932.8113,249.0195 C933.2613,249.7975 932.9943,250.7925 932.2163,251.2415 C931.4373,251.6905 930.4423,251.4245 929.9933,250.6465" id="Fill-104" fill="#BC0826"></path>
                <path d="M924.5588,233.6895 C923.7578,232.3025 924.2338,230.5285 925.6208,229.7285 C927.0068,228.9275 928.7808,229.4025 929.5808,230.7895 C930.3818,232.1765 929.9078,233.9505 928.5198,234.7515 C927.1328,235.5515 925.3598,235.0765 924.5588,233.6895" id="Fill-106" fill="#BC0826"></path>
                <path d="M951.6242,249.1553 C950.8232,247.7683 951.2992,245.9943 952.6862,245.1943 C954.0722,244.3933 955.8462,244.8683 956.6462,246.2553 C957.4472,247.6423 956.9732,249.4163 955.5852,250.2173 C954.1982,251.0173 952.4252,250.5423 951.6242,249.1553" id="Fill-108" fill="#BC0826"></path>
                <path d="M932.2922,262.688 C931.4912,261.301 931.9662,259.527 933.3532,258.727 C934.7402,257.926 936.5142,258.401 937.3142,259.788 C938.1152,261.175 937.6402,262.949 936.2532,263.75 C934.8662,264.55 933.0932,264.075 932.2922,262.688" id="Fill-110" fill="#BC0826"></path>
                <path d="M931.9269,210.0483 C931.4779,209.2703 931.7439,208.2753 932.5229,207.8263 C933.3009,207.3773 934.2949,207.6433 934.7439,208.4213 C935.1939,209.1993 934.9269,210.1943 934.1499,210.6433 C933.3709,211.0923 932.3759,210.8263 931.9269,210.0483" id="Fill-112" fill="#BC0826"></path>
                <path d="M922.2609,219.7144 C921.8119,218.9364 922.0779,217.9414 922.8569,217.4924 C923.6339,217.0434 924.6289,217.3094 925.0779,218.0874 C925.5279,218.8654 925.2609,219.8604 924.4829,220.3104 C923.7049,220.7594 922.7099,220.4924 922.2609,219.7144" id="Fill-114" fill="#BC0826"></path>
                <path d="M916.4611,246.7798 C916.0121,246.0018 916.2781,245.0068 917.0571,244.5578 C917.8341,244.1088 918.8291,244.3748 919.2781,245.1528 C919.7281,245.9308 919.4611,246.9258 918.6831,247.3758 C917.9051,247.8248 916.9101,247.5578 916.4611,246.7798" id="Fill-116" fill="#BC0826"></path>
                <path d="M968.6584,260.3125 C968.2094,259.5345 968.4754,258.5395 969.2544,258.0905 C970.0324,257.6415 971.0274,257.9075 971.4764,258.6855 C971.9264,259.4635 971.6594,260.4585 970.8814,260.9085 C970.1024,261.3575 969.1074,261.0905 968.6584,260.3125" id="Fill-118" fill="#BC0826"></path>
                <path d="M966.7248,248.7129 C966.2758,247.9349 966.5418,246.9399 967.3208,246.4909 C968.0988,246.0419 969.0938,246.3079 969.5428,247.0869 C969.9928,247.8639 969.7258,248.8589 968.9478,249.3089 C968.1688,249.7579 967.1748,249.4909 966.7248,248.7129" id="Fill-120" fill="#BC0826"></path>
                <path d="M957.0588,258.3794 C956.6098,257.6014 956.8758,256.6064 957.6548,256.1574 C958.4328,255.7084 959.4278,255.9744 959.8768,256.7524 C960.3268,257.5304 960.0598,258.5254 959.2818,258.9744 C958.5028,259.4234 957.5078,259.1574 957.0588,258.3794" id="Fill-122" fill="#BC0826"></path>
                <path d="M841.0646,327.9761 C840.6156,327.1981 840.8816,326.2031 841.6606,325.7541 C842.4376,325.3051 843.4326,325.5711 843.8816,326.3491 C844.3316,327.1271 844.0646,328.1221 843.2876,328.5711 C842.5086,329.0201 841.5136,328.7541 841.0646,327.9761" id="Fill-124" fill="#77111D"></path>
                <path d="M846.8644,339.5757 C846.4154,338.7977 846.6814,337.8027 847.4604,337.3527 C848.2374,336.9037 849.2324,337.1707 849.6814,337.9487 C850.1314,338.7267 849.8644,339.7217 849.0864,340.1707 C848.3084,340.6197 847.3134,340.3537 846.8644,339.5757" id="Fill-126" fill="#77111D"></path>
                <path d="M839.131,312.5103 C838.682,311.7323 838.948,310.7373 839.727,310.2873 C840.505,309.8383 841.5,310.1053 841.949,310.8833 C842.399,311.6613 842.132,312.6563 841.354,313.1053 C840.575,313.5543 839.58,313.2883 839.131,312.5103" id="Fill-128" fill="#77111D"></path>
                <path d="M835.2648,341.5088 C834.8158,340.7308 835.0818,339.7358 835.8608,339.2868 C836.6388,338.8378 837.6328,339.1038 838.0818,339.8818 C838.5318,340.6598 838.2648,341.6548 837.4878,342.1038 C836.7088,342.5528 835.7138,342.2868 835.2648,341.5088" id="Fill-130" fill="#77111D"></path>
                <path d="M829.8303,324.5518 C829.0293,323.1648 829.5043,321.3908 830.8923,320.5908 C832.2783,319.7898 834.0523,320.2648 834.8523,321.6518 C835.6533,323.0388 835.1783,324.8128 833.7913,325.6138 C832.4043,326.4138 830.6313,325.9388 829.8303,324.5518" id="Fill-132" fill="#77111D"></path>
                <path d="M856.8957,340.0176 C856.0947,338.6306 856.5697,336.8576 857.9567,336.0566 C859.3437,335.2556 861.1177,335.7306 861.9177,337.1176 C862.7187,338.5046 862.2437,340.2786 860.8567,341.0796 C859.4697,341.8796 857.6967,341.4046 856.8957,340.0176" id="Fill-134" fill="#77111D"></path>
                <path d="M837.5627,353.5503 C836.7617,352.1633 837.2377,350.3903 838.6247,349.5893 C840.0107,348.7883 841.7847,349.2633 842.5847,350.6503 C843.3857,352.0373 842.9117,353.8113 841.5247,354.6123 C840.1367,355.4123 838.3637,354.9373 837.5627,353.5503" id="Fill-136" fill="#77111D"></path>
                <path d="M837.1984,300.9106 C836.7494,300.1326 837.0154,299.1376 837.7934,298.6886 C838.5714,298.2396 839.5664,298.5056 840.0154,299.2836 C840.4654,300.0616 840.1984,301.0566 839.4204,301.5066 C838.6414,301.9556 837.6474,301.6886 837.1984,300.9106" id="Fill-138" fill="#77111D"></path>
                <path d="M827.5314,310.5767 C827.0824,309.7987 827.3484,308.8037 828.1274,308.3547 C828.9054,307.9057 829.9004,308.1717 830.3494,308.9507 C830.7994,309.7277 830.5324,310.7227 829.7544,311.1727 C828.9754,311.6217 827.9804,311.3547 827.5314,310.5767" id="Fill-140" fill="#77111D"></path>
                <path d="M821.7326,337.6421 C821.2826,336.8641 821.5486,335.8691 822.3276,335.4201 C823.1056,334.9711 824.1006,335.2371 824.5496,336.0161 C824.9996,336.7931 824.7326,337.7881 823.9546,338.2381 C823.1756,338.6871 822.1816,338.4201 821.7326,337.6421" id="Fill-142" fill="#77111D"></path>
                <path d="M873.9299,351.1748 C873.4809,350.3968 873.7469,349.4018 874.5259,348.9528 C875.3029,348.5038 876.2979,348.7698 876.7469,349.5488 C877.1969,350.3258 876.9299,351.3208 876.1519,351.7708 C875.3739,352.2198 874.3789,351.9528 873.9299,351.1748" id="Fill-144" fill="#77111D"></path>
                <path d="M871.9963,339.5757 C871.5473,338.7977 871.8133,337.8027 872.5923,337.3527 C873.3703,336.9037 874.3653,337.1707 874.8143,337.9487 C875.2643,338.7267 874.9973,339.7217 874.2193,340.1707 C873.4403,340.6197 872.4453,340.3537 871.9963,339.5757" id="Fill-146" fill="#77111D"></path>
                <path d="M862.3303,349.2417 C861.8813,348.4637 862.1473,347.4687 862.9263,347.0197 C863.7033,346.5707 864.6983,346.8367 865.1473,347.6147 C865.5973,348.3927 865.3303,349.3877 864.5533,349.8377 C863.7743,350.2867 862.7793,350.0197 862.3303,349.2417" id="Fill-148" fill="#77111D"></path>
                <path d="M897.091,106.8647 C896.933,108.4587 895.513,109.6227 893.919,109.4647 C892.325,109.3067 891.161,107.8867 891.32,106.2937 C891.477,104.6987 892.897,103.5347 894.49,103.6927 C896.084,103.8507 897.249,105.2707 897.091,106.8647" id="Fill-150" fill="#990726"></path>
                <path d="M905.0969,107.7749 C904.4359,106.3159 905.0839,104.5979 906.5429,103.9379 C908.0019,103.2769 909.7199,103.9249 910.3799,105.3839 C911.0399,106.8429 910.3929,108.5609 908.9339,109.2219 C907.4749,109.8819 905.7569,109.2339 905.0969,107.7749" id="Fill-152" fill="#990726"></path>
                <path d="M911.1086,94.8511 C910.5476,93.6111 911.0976,92.1511 912.3376,91.5901 C913.5786,91.0291 915.0376,91.5801 915.5986,92.8191 C916.1596,94.0591 915.6096,95.5191 914.3696,96.0801 C913.1296,96.6411 911.6706,96.0911 911.1086,94.8511" id="Fill-154" fill="#990726"></path>
                <path d="M926.3273,88.9595 C925.9573,88.1415 926.3203,87.1775 927.1393,86.8065 C927.9573,86.4365 928.9213,86.7995 929.2923,87.6185 C929.6623,88.4375 929.2993,89.4005 928.4803,89.7715 C927.6613,90.1415 926.6973,89.7785 926.3273,88.9595" id="Fill-156" fill="#990726"></path>
                <path d="M880.5754,119.3989 C880.2044,118.5809 880.5674,117.6169 881.3874,117.2459 C882.2054,116.8759 883.1694,117.2389 883.5394,118.0579 C883.9094,118.8769 883.5464,119.8399 882.7274,120.2109 C881.9094,120.5809 880.9454,120.2179 880.5754,119.3989" id="Fill-158" fill="#BC0826"></path>
                <path d="M870.133,130.4658 C869.473,129.0068 870.12,127.2888 871.579,126.6288 C873.038,125.9678 874.756,126.6158 875.416,128.0748 C876.077,129.5338 875.429,131.2518 873.97,131.9128 C872.511,132.5728 870.793,131.9248 870.133,130.4658" id="Fill-160" fill="#BC0826"></path>
                <path d="M879.7941,107.6655 C879.4231,106.8475 879.7861,105.8835 880.6061,105.5125 C881.4241,105.1425 882.3881,105.5055 882.7581,106.3245 C883.1281,107.1425 882.7651,108.1065 881.9461,108.4775 C881.1281,108.8475 880.1641,108.4845 879.7941,107.6655" id="Fill-162" fill="#BC0826"></path>
                <path d="M869.2228,116.3325 C868.8518,115.5145 869.2148,114.5505 870.0348,114.1795 C870.8528,113.8095 871.8168,114.1725 872.1868,114.9915 C872.5568,115.8095 872.1938,116.7735 871.3748,117.1445 C870.5568,117.5145 869.5928,117.1505 869.2228,116.3325" id="Fill-164" fill="#BC0826"></path>
                <path d="M1044.0314,67.9141 C1044.0314,69.5161 1042.7324,70.8141 1041.1314,70.8141 C1039.5294,70.8141 1038.2314,69.5161 1038.2314,67.9141 C1038.2314,66.3121 1039.5294,65.0141 1041.1314,65.0141 C1042.7324,65.0141 1044.0314,66.3121 1044.0314,67.9141" id="Fill-166" fill="#BC0826"></path>
                <path d="M1053.6974,61.1475 C1053.6974,62.2155 1052.8324,63.0815 1051.7634,63.0815 C1050.6964,63.0815 1049.8314,62.2155 1049.8314,61.1475 C1049.8314,60.0805 1050.6964,59.2145 1051.7634,59.2145 C1052.8324,59.2145 1053.6974,60.0805 1053.6974,61.1475" id="Fill-168" fill="#BC0826"></path>
                <path d="M1063.3634,63.0811 C1063.3634,64.1481 1062.4984,65.0141 1061.4304,65.0141 C1060.3624,65.0141 1059.4974,64.1481 1059.4974,63.0811 C1059.4974,62.0131 1060.3624,61.1471 1061.4304,61.1471 C1062.4984,61.1471 1063.3634,62.0131 1063.3634,63.0811" id="Fill-170" fill="#BC0826"></path>
                <path d="M738.6935,353.0884 C739.4365,354.8284 738.6295,356.8414 736.8885,357.5854 C735.1485,358.3294 733.1345,357.5214 732.3915,355.7804 C731.6475,354.0404 732.4565,352.0264 734.1965,351.2834 C735.9365,350.5404 737.9495,351.3484 738.6935,353.0884" id="Fill-172" fill="#990726"></path>
                <path d="M709.9201,333.709 C710.6631,335.449 709.8561,337.463 708.1151,338.206 C706.3751,338.95 704.3611,338.142 703.6181,336.401 C702.8741,334.661 703.6831,332.648 705.4231,331.904 C707.1631,331.161 709.1771,331.969 709.9201,333.709" id="Fill-174" fill="#990726"></path>
                <path d="M750.883,316.208 C751.626,317.948 750.819,319.962 749.078,320.706 C747.338,321.449 745.324,320.641 744.581,318.9 C743.837,317.16 744.646,315.147 746.386,314.403 C748.126,313.66 750.14,314.468 750.883,316.208" id="Fill-176" fill="#990726"></path>
                <path d="M717.1359,349.7227 C715.9999,348.8707 715.7709,347.2607 716.6209,346.1247 C717.4729,344.9897 719.0839,344.7597 720.2199,345.6107 C721.3549,346.4617 721.5849,348.0727 720.7339,349.2087 C719.8819,350.3437 718.2719,350.5747 717.1359,349.7227" id="Fill-178" fill="#990726"></path>
                <path d="M734.0226,336.9189 C732.8866,336.0669 732.6566,334.4569 733.5076,333.3209 C734.3596,332.1859 735.9706,331.9549 737.1066,332.8069 C738.2416,333.6579 738.4716,335.2689 737.6206,336.4049 C736.7686,337.5399 735.1586,337.7709 734.0226,336.9189" id="Fill-180" fill="#990726"></path>
                <path d="M721.2043,333.0801 C720.0683,332.2281 719.8383,330.6181 720.6893,329.4821 C721.5413,328.3471 723.1523,328.1161 724.2873,328.9681 C725.4233,329.8191 725.6533,331.4301 724.8023,332.5661 C723.9503,333.7011 722.3403,333.9321 721.2043,333.0801" id="Fill-182" fill="#990726"></path>
                <path d="M717.549,318.9531 C716.584,318.2291 716.389,316.8611 717.112,315.8961 C717.836,314.9311 719.204,314.7351 720.169,315.4591 C721.134,316.1821 721.329,317.5511 720.607,318.5161 C719.883,319.4811 718.514,319.6761 717.549,318.9531" id="Fill-184" fill="#990726"></path>
                <path d="M726.8547,307.8828 C726.2177,307.4048 726.0887,306.5008 726.5667,305.8638 C727.0437,305.2268 727.9477,305.0978 728.5847,305.5758 C729.2217,306.0528 729.3507,306.9568 728.8737,307.5938 C728.3957,308.2308 727.4927,308.3608 726.8547,307.8828" id="Fill-186" fill="#990726"></path>
                <path d="M734.259,325.2129 C733.622,324.7349 733.493,323.8319 733.971,323.1949 C734.448,322.5579 735.352,322.4289 735.989,322.9059 C736.626,323.3839 736.755,324.2879 736.278,324.9249 C735.8,325.5619 734.897,325.6909 734.259,325.2129" id="Fill-188" fill="#990726"></path>
                <path d="M724.7766,355.3472 C724.1396,354.8692 724.0106,353.9662 724.4886,353.3292 C724.9656,352.6922 725.8696,352.5632 726.5066,353.0402 C727.1436,353.5182 727.2726,354.4222 726.7956,355.0592 C726.3176,355.6962 725.4146,355.8252 724.7766,355.3472" id="Fill-190" fill="#990726"></path>
                <path d="M711.2707,362.981 C710.6327,362.503 710.5037,361.6 710.9817,360.962 C711.4587,360.326 712.3637,360.196 712.9997,360.674 C713.6367,361.152 713.7667,362.055 713.2897,362.692 C712.8107,363.33 711.9077,363.459 711.2707,362.981" id="Fill-192" fill="#BC0826"></path>
                <path d="M720.0353,370.4146 C719.3983,369.9366 719.2693,369.0336 719.7473,368.3956 C720.2243,367.7596 721.1283,367.6296 721.7653,368.1076 C722.4023,368.5856 722.5313,369.4896 722.0543,370.1256 C721.5763,370.7636 720.6733,370.8926 720.0353,370.4146" id="Fill-194" fill="#BC0826"></path>
                <path d="M704.3098,351.0498 C703.6728,350.5718 703.5438,349.6688 704.0218,349.0318 C704.4988,348.3948 705.4028,348.2658 706.0398,348.7428 C706.6768,349.2208 706.8058,350.1248 706.3288,350.7618 C705.8508,351.3988 704.9478,351.5278 704.3098,351.0498" id="Fill-196" fill="#BC0826"></path>
                <path d="M711.256,376.0288 C710.618,375.5508 710.489,374.6478 710.967,374.0098 C711.444,373.3738 712.349,373.2438 712.985,373.7218 C713.622,374.1998 713.752,375.1028 713.274,375.7398 C712.796,376.3778 711.893,376.5068 711.256,376.0288" id="Fill-198" fill="#BC0826"></path>
                <path d="M700.9221,364.1021 C699.7871,363.2501 699.5571,361.6401 700.4081,360.5041 C701.2601,359.3691 702.8701,359.1391 704.0061,359.9901 C705.1421,360.8411 705.3721,362.4521 704.5211,363.5881 C703.6691,364.7231 702.0581,364.9541 700.9221,364.1021" id="Fill-200" fill="#BC0826"></path>
                <path d="M728.3644,367.2822 C727.2284,366.4302 726.9984,364.8202 727.8494,363.6842 C728.7014,362.5492 730.3124,362.3192 731.4474,363.1702 C732.5834,364.0222 732.8134,365.6332 731.9624,366.7682 C731.1104,367.9042 729.5004,368.1342 728.3644,367.2822" id="Fill-202" fill="#BC0826"></path>
                <path d="M717.3215,385.042 C716.1855,384.19 715.9555,382.58 716.8065,381.444 C717.6585,380.309 719.2685,380.079 720.4045,380.93 C721.5405,381.782 721.7705,383.392 720.9195,384.528 C720.0675,385.663 718.4565,385.894 717.3215,385.042" id="Fill-204" fill="#BC0826"></path>
                <path d="M698.6955,342.27 C698.0585,341.792 697.9295,340.889 698.4075,340.252 C698.8845,339.615 699.7885,339.485 700.4255,339.963 C701.0625,340.441 701.1915,341.345 700.7145,341.981 C700.2365,342.619 699.3335,342.748 698.6955,342.27" id="Fill-206" fill="#BC0826"></path>
                <path d="M694.1838,353.5132 C693.5468,353.0352 693.4178,352.1322 693.8958,351.4942 C694.3728,350.8582 695.2768,350.7282 695.9138,351.2062 C696.5508,351.6842 696.6798,352.5882 696.2028,353.2242 C695.7248,353.8622 694.8208,353.9912 694.1838,353.5132" id="Fill-208" fill="#BC0826"></path>
                <path d="M698.881,377.5894 C698.244,377.1114 698.114,376.2084 698.592,375.5714 C699.07,374.9344 699.974,374.8054 700.61,375.2824 C701.248,375.7604 701.377,376.6644 700.9,377.3014 C700.422,377.9384 699.518,378.0674 698.881,377.5894" id="Fill-210" fill="#BC0826"></path>
                <path d="M746.131,370.4438 C745.494,369.9658 745.365,369.0628 745.843,368.4258 C746.32,367.7888 747.224,367.6598 747.861,368.1368 C748.498,368.6148 748.627,369.5188 748.15,370.1558 C747.672,370.7928 746.768,370.9218 746.131,370.4438" id="Fill-212" fill="#BC0826"></path>
                <path d="M740.5168,361.6641 C739.8798,361.1861 739.7508,360.2831 740.2288,359.6451 C740.7058,359.0091 741.6098,358.8791 742.2468,359.3571 C742.8838,359.8351 743.0128,360.7391 742.5358,361.3751 C742.0578,362.0131 741.1548,362.1421 740.5168,361.6641" id="Fill-214" fill="#BC0826"></path>
                <path d="M736.0051,372.9072 C735.3681,372.4292 735.2381,371.5262 735.7171,370.8882 C736.1941,370.2522 737.0981,370.1222 737.7341,370.6002 C738.3721,371.0782 738.5011,371.9812 738.0241,372.6182 C737.5461,373.2562 736.6421,373.3852 736.0051,372.9072" id="Fill-216" fill="#BC0826"></path>
                <path d="M862.9211,152.3164 C862.9211,152.3164 742.1591,238.0184 664.1591,387.0184 C664.1591,387.0184 645.3171,388.8534 637.1591,394.0184 L736.1591,258.0184 C736.1591,258.0184 782.6821,177.6144 862.9211,152.3164" id="Fill-218" fill="#77111D"></path>
                <path d="M719.9142,453.9165 C719.9142,453.9165 783.1592,494.0185 792.1592,534.0185 C801.1592,574.0185 755.7612,608.2645 753.4602,613.1415 C751.1592,618.0185 747.1592,627.0185 747.1592,627.0185 C747.1592,627.0185 761.1592,610.0185 768.1592,608.0185 C775.1592,606.0185 815.0002,586.9525 820.0792,529.9855 C820.0792,529.9855 786.6692,488.8135 719.9142,453.9165" id="Fill-220" fill="#77111D"></path>
                <path d="M739.5461,261.2383 C739.5461,261.2383 749.2121,191.6413 1010.1991,79.5133" id="Stroke-222" stroke="#000000" stroke-width="0.967" stroke-linecap="round" stroke-linejoin="round"></path>
                <path d="M722.1594,456.0186 C722.1594,456.0186 652.1594,441.0186 624.1594,475.0186 C609.2774,493.0886 604.1594,517.0186 608.1594,566.0186 C608.1594,566.0186 586.1594,510.0186 602.1594,476.0186 C602.1594,476.0186 604.1594,465.0186 599.1594,451.0186 C599.1594,451.0186 648.1594,412.0186 722.1594,456.0186" id="Fill-224" fill="#77111D"></path>
                <path d="M814.1594,512.0186 C814.1594,512.0186 712.1594,389.0186 609.1594,440.0186 C609.1594,440.0186 596.1594,413.0186 664.1594,387.0186 C664.1594,387.0186 634.1594,383.0186 611.1594,405.0186 C588.1594,427.0186 601.1594,450.0186 601.1594,450.0186 C601.1594,450.0186 691.1594,393.0186 817.1594,529.0186 C819.1594,532.0186 858.1594,520.0186 830.1594,452.0186 L805.1984,436.0036 C805.1984,436.0036 846.1594,494.0186 814.1594,512.0186" id="Fill-226" fill="#77111D"></path>
                <path d="M644.8166,390.7651 C644.8166,390.7651 735.6786,359.8331 822.6746,452.6291 C822.6746,452.6291 859.4066,506.7601 813.0086,524.1591 C813.0086,524.1591 705.9786,402.0561 604.2186,448.7631 C604.2186,448.7631 573.2876,415.8971 644.8166,390.7651 Z" id="Stroke-228" stroke="#000000" stroke-width="1.933" stroke-linecap="round" stroke-linejoin="round"></path>
                <path d="M798.1594,476.0186 C799.1564,480.0086 711.1594,395.0186 622.0914,425.0606 C656.1594,380.0186 779.1594,400.0186 798.1594,476.0186" id="Fill-230" fill="#BC0826"></path>
                <path d="M858.1594,823.0186 C858.1594,823.0186 793.1594,835.0186 700.1594,740.0186 C700.1594,740.0186 679.1594,716.0186 694.3664,621.2596 C694.4164,620.9496 694.8474,620.9966 694.8694,621.3096 C697.1594,655.0186 668.1594,778.0186 858.1594,823.0186" id="Fill-232" fill="#BC0826"></path>
                <path d="M651.718,597.8169 C645.881,612.2169 621.507,663.7499 564.189,686.0069 C564.169,686.0149 564.151,686.0209 564.13,686.0259 C561.913,686.5679 435.554,717.5369 420.752,735.0429 C420.448,735.4019 420.856,735.9239 421.288,735.7379 C458.349,719.8389 466.102,712.8659 539.159,701.0189 C611.299,689.3199 644.474,650.0619 652.582,598.0669 C652.664,597.5379 651.919,597.3219 651.718,597.8169" id="Fill-234" fill="#BC0826"></path>
                <path d="M610.1594,576.0186 C610.1594,576.0186 578.1594,639.0186 507.1594,600.0186 C436.1594,561.0186 336.6814,591.2426 307.9204,609.1306 C279.1594,627.0186 248.7484,641.7396 231.9534,664.3786 C215.1594,687.0186 243.1594,661.0186 259.1594,653.0186 C275.1594,645.0186 331.1594,562.0186 487.1594,605.0186 C582.1594,647.0186 604.1594,598.0186 610.1594,576.0186" id="Fill-236" fill="#BC0826"></path>
                <path d="M1299.1593,837.0186 C1252.1593,821.0186 1178.1593,741.0186 1097.1593,775.0186 C1016.1593,809.0186 854.1593,894.0186 761.9293,833.5746 C761.9293,833.5746 785.3403,855.1596 811.7493,862.5886 C838.1593,870.0186 890.1593,875.0186 985.1593,834.0186 C1080.1593,793.0186 1102.9243,783.3526 1158.0413,781.6856 C1213.1593,780.0186 1252.1593,841.0186 1287.1593,841.0186 C1287.1593,841.0186 1298.1593,841.0186 1299.1593,837.0186" id="Fill-238" fill="#7C624D"></path>
                <path d="M497.6564,744.0454 C497.6564,744.0454 338.2084,767.5764 400.1834,972.2974 C400.1834,972.2974 361.1594,824.0184 497.6564,744.0454" id="Fill-240" fill="#7C624D"></path>
            </g>
            <g id="Group-245" transform="translate(0.000000, 0.810000)">
                <mask id="mask-3" fill="white">
                    <use xlink:href="#path-2"></use>
                </mask>
                <g id="Clip-244"></g>
                <path d="M1111.8566,0.1895 C1104.0186,0.1895 1093.8166,3.4565 1077.7426,11.1105 C1040.0706,29.0495 951.2626,57.7955 942.6086,60.5825 C898.9216,68.8675 860.5166,84.5715 828.4526,107.2665 C802.5266,125.6175 780.7156,148.5155 763.6296,175.3245 C738.7916,214.2945 731.3036,249.8925 729.5106,260.5755 L638.0996,383.7005 C614.3196,396.1685 600.9996,407.3685 595.0616,419.8295 C588.7616,433.0525 592.2206,444.9715 595.0006,454.5485 C597.4836,463.1065 599.6286,470.4965 596.2676,479.6175 C584.1526,512.5015 593.8906,552.3325 598.2726,566.9535 C590.4966,578.2085 581.8996,586.4655 572.6696,591.5365 C565.6676,595.3835 558.4586,597.3335 551.2426,597.3335 C547.1446,597.3335 544.3096,596.6675 543.4446,596.4345 C500.1866,578.1575 458.1716,568.8915 418.5556,568.8915 C356.5336,568.8915 311.7776,591.2755 282.1616,606.0885 L281.0456,606.6465 C253.0396,620.6495 220.3516,653.8565 191.5106,683.1535 C170.8846,704.1075 151.4026,723.8995 139.4196,730.6395 C111.4596,746.3675 106.0746,746.5595 54.5596,748.3945 L51.8976,748.4895 C36.5856,749.0365 25.3326,750.3595 17.4906,752.5365 C14.0486,753.4925 3.5746,756.3995 0.6756,765.6425 C-1.5594,772.7695 2.0856,779.4415 6.6866,782.8935 C8.2586,784.0725 10.1046,784.8335 12.0506,785.1035 C31.9536,787.8675 51.4036,789.2695 69.8616,789.2695 C172.1476,789.2695 217.0376,747.0215 218.8986,745.2235 C219.1086,745.0195 219.3116,744.8085 219.5066,744.5885 C256.4366,703.0425 293.5616,672.7225 329.8496,654.4725 C356.2436,641.1985 381.7286,634.4685 405.5986,634.4695 C427.6826,634.4715 440.5736,640.4795 441.3866,640.8695 C441.4636,640.9115 441.4506,640.9025 441.5626,640.9575 C477.0736,658.4695 510.5586,667.3495 541.0866,667.3495 C551.9306,667.3495 562.3706,666.2485 572.3576,664.0595 C554.0146,674.5145 532.5806,682.1415 508.2926,686.8285 C475.4576,693.1655 446.6356,703.2505 422.6296,716.8055 C394.2926,732.8065 372.3256,753.8265 357.3376,779.2825 C342.2576,804.8975 334.1016,835.3035 333.0956,869.6535 C332.0146,906.5835 339.2076,948.9835 354.4716,995.6745 C398.2696,1129.6455 391.3166,1152.4595 380.7926,1186.9925 C375.6976,1203.7085 369.3566,1224.5115 367.4466,1260.1705 C366.0276,1286.6605 369.6816,1310.2795 378.3086,1330.3735 C385.3576,1346.7905 395.6796,1360.8305 408.9886,1372.1035 C431.6376,1391.2885 455.2236,1395.7505 456.2166,1395.9305 C456.9146,1396.0575 457.6106,1396.1195 458.2986,1396.1195 C463.0516,1396.1195 467.4216,1393.1875 469.1476,1388.6065 C471.1226,1383.3615 469.0656,1377.4555 464.2596,1374.5725 C462.1576,1373.3105 452.7636,1364.5115 442.6856,1348.7795 C434.9466,1336.7005 425.3266,1318.1455 423.4416,1298.3565 C422.5036,1288.5165 426.0726,1273.9655 430.5886,1255.5435 C436.5776,1231.1155 444.0316,1200.7145 445.8496,1162.5815 C447.9976,1117.5565 441.7726,1072.6545 426.8216,1025.3095 C406.4996,960.9545 399.3576,912.2545 404.9876,876.4265 C409.9066,845.1255 423.8796,825.9115 438.6736,805.5685 C452.4386,786.6435 470.7786,772.1375 496.3936,759.9175 C519.4146,748.9355 548.1566,739.6355 592.5016,728.8195 C625.7766,720.7035 651.0256,697.2675 668.6106,674.2585 C667.7256,723.8845 682.9916,754.0965 683.8506,755.7545 C683.9886,756.0205 684.1356,756.2805 684.2946,756.5345 C710.6376,798.9525 738.2196,829.0225 768.6156,848.4605 C796.1356,866.0615 825.4956,874.6165 858.3716,874.6165 C909.5636,874.6165 960.4796,854.0365 1014.3836,832.2485 C1031.6746,825.2595 1049.5536,818.0325 1067.3486,811.5855 C1100.2526,799.6635 1127.9606,793.8695 1152.0606,793.8715 C1189.9996,793.8755 1212.1976,808.6405 1233.6646,822.9195 C1244.3726,830.0425 1255.4456,837.4075 1267.8786,842.3805 C1279.2676,846.9365 1287.5896,849.0585 1294.0706,849.0585 C1305.1576,849.0585 1309.5436,842.5375 1310.9156,839.7335 C1315.3126,830.7425 1309.9836,820.9175 1308.2326,817.6885 C1305.7356,813.0845 1302.9216,809.4265 1302.6096,809.0245 C1302.0646,808.3235 1301.4406,807.6885 1300.7516,807.1295 C1267.7306,780.3985 1236.6676,761.3795 1205.7846,748.9865 C1177.9126,737.8015 1151.0056,732.3645 1123.5306,732.3645 C1071.1576,732.3645 1027.4556,752.2315 985.1916,771.4455 C947.6726,788.5015 912.2356,804.6115 874.4336,804.6115 C873.0996,804.6115 871.7516,804.5915 870.4246,804.5515 C854.1946,804.0595 838.7696,800.5925 824.5776,794.2485 C811.5466,788.4225 799.5256,780.1745 788.8446,769.7325 C769.3976,750.7185 755.0516,725.1055 748.4496,697.6095 C739.7146,661.2325 746.5486,629.8265 765.4556,619.4595 C799.5856,600.7425 814.1306,576.4415 820.3236,559.3505 C824.3766,548.1635 825.5086,538.5655 825.7256,532.3255 C836.7446,524.2745 843.6396,514.0235 846.2556,501.7745 C850.4646,482.0655 841.8376,462.8525 836.6486,453.6025 L868.6526,376.1195 C942.8056,363.6155 995.4796,335.4375 1029.5486,290.0875 C1059.8506,249.7535 1070.4176,202.7425 1079.7396,161.2665 C1085.9146,133.7935 1091.7466,107.8455 1102.4516,89.2285 C1114.3606,68.5175 1122.3426,52.6955 1126.8576,40.8585 C1132.4566,26.1775 1133.1006,16.4275 1128.9476,9.2485 C1126.9906,5.8655 1122.1676,0.1895 1111.8566,0.1895 M1111.8566,11.7895 C1126.1306,11.7895 1123.0086,30.2075 1092.3956,83.4465 C1047.9306,160.7765 1086.5956,330.9015 860.4066,365.6995 L823.6746,454.6285 C823.6746,454.6285 856.5406,501.0265 814.0086,526.1595 C814.0086,526.1595 819.8086,576.4235 759.8786,609.2885 C699.9476,642.1535 742.4786,812.2785 870.0726,816.1455 C871.5296,816.1895 872.9866,816.2115 874.4336,816.2115 C958.0226,816.2115 1027.2206,743.9635 1123.5306,743.9635 C1171.6706,743.9635 1226.5746,762.0055 1293.4526,816.1455 C1293.4526,816.1455 1310.0286,837.4585 1294.0706,837.4585 C1289.6376,837.4585 1282.6946,835.8145 1272.1866,831.6115 C1237.1666,817.6035 1213.2956,782.2775 1152.0616,782.2725 C1128.7896,782.2705 1100.1316,787.3695 1063.3966,800.6795 C991.9286,826.5735 923.7746,863.0175 858.3716,863.0175 C801.7006,863.0175 747.0986,835.6755 694.1476,750.4155 C694.1476,750.4155 668.1426,700.2615 687.1426,621.8055 C687.2116,621.5215 686.9876,621.3245 686.7656,621.3245 C686.6346,621.3245 686.5046,621.3925 686.4356,621.5495 C678.5826,639.2815 646.5116,703.7065 589.7536,717.5505 C510.4896,736.8825 460.2256,756.2145 429.2946,798.7465 C398.3616,841.2775 369.3626,881.8755 415.7606,1028.8025 C462.1596,1175.7285 408.0286,1258.8575 411.8946,1299.4565 C415.7606,1340.0535 448.6266,1378.7185 458.2926,1384.5185 C458.2926,1384.5185 373.2296,1369.0525 379.0296,1260.7915 C384.8296,1152.5295 431.2266,1193.1275 365.4966,992.0705 C299.7666,791.0135 400.2946,719.4835 510.4896,698.2175 C602.3476,680.4905 632.4106,626.4925 639.8726,609.0125 C640.0856,608.5125 639.6796,608.0955 639.2556,608.0955 C639.0656,608.0955 638.8726,608.1805 638.7296,608.3785 C629.3836,621.3665 599.1546,655.7505 541.0866,655.7505 C515.3096,655.7505 484.0536,648.9795 446.6926,630.5545 C446.6926,630.5545 431.9116,622.8725 405.5996,622.8705 C364.6066,622.8675 295.6156,641.5065 210.8366,736.8825 C210.8366,736.8825 168.6346,777.6695 69.8616,777.6695 C52.8266,777.6695 34.1216,776.4585 13.6466,773.6145 C13.6466,773.6145 -1.8194,762.0145 52.3116,760.0815 C106.4426,758.1475 114.1746,758.1475 145.1066,740.7495 C176.0396,723.3495 239.8356,640.2205 286.2336,617.0215 C315.7306,602.2725 358.5186,580.4905 418.5556,580.4905 C452.9556,580.4905 493.0106,587.6375 539.4886,607.3555 C539.4886,607.3555 543.9976,608.9335 551.2426,608.9335 C565.2166,608.9335 589.3746,603.0655 611.0186,568.6905 C611.0186,568.6905 593.6196,520.3595 607.1516,483.6275 C620.6846,446.8965 570.4206,431.4305 645.8166,392.7655 L740.5466,265.1715 C740.5466,265.1715 759.8786,106.6455 945.4686,71.8475 C945.4686,71.8475 1042.1306,40.9155 1082.7296,21.5835 C1095.3776,15.5605 1105.3976,11.7895 1111.8566,11.7895" id="Fill-243" fill="#000000" mask="url(#mask-3)"></path>
            </g>
        </g>
    </g>
</svg>