<svg xmlns="http://www.w3.org/2000/svg" xmlns:xlink="http://www.w3.org/1999/xlink" viewBox="0 0 1377.95 724.97">
  <defs>
    <style>.cls-1{fill:#fff;}.cls-2{filter:url(#AI_GaussianBlur_4);}</style>
    <filter id="AI_GaussianBlur_4" name="AI_GaussianBlur_4">
      <feGaussianBlur stdDeviation="4"/>
    </filter>
  </defs>
  <title>Asset 9</title>
  <g id="Layer_2" data-name="Layer 2">
    <g id="Layer_3" data-name="Layer 3">
      <path class="cls-1" d="M270.76,237.64a1.5,1.5,0,0,0,0-3,1.5,1.5,0,0,0,0,3Z" transform="translate(-129.91 -4.13)"/>
      <path class="cls-1" d="M511.82,381.72a1.5,1.5,0,0,0,0-3,1.5,1.5,0,0,0,0,3Z" transform="translate(-129.91 -4.13)"/>
      <path class="cls-1" d="M697.47,246a1.5,1.5,0,0,0,0-3,1.5,1.5,0,0,0,0,3Z" transform="translate(-129.91 -4.13)"/>
      <path class="cls-1" d="M772.28,428.83a1.5,1.5,0,0,0,0-3,1.5,1.5,0,0,0,0,3Z" transform="translate(-129.91 -4.13)"/>
      <path class="cls-1" d="M988.41,487a1.5,1.5,0,0,0,0-3,1.5,1.5,0,0,0,0,3Z" transform="translate(-129.91 -4.13)"/>
      <path class="cls-1" d="M991.18,354a1.5,1.5,0,0,0,0-3,1.5,1.5,0,0,0,0,3Z" transform="translate(-129.91 -4.13)"/>
      <path class="cls-1" d="M514.59,628.33a1.5,1.5,0,0,0,0-3,1.5,1.5,0,0,0,0,3Z" transform="translate(-129.91 -4.13)"/>
      <path class="cls-1" d="M148.42,423.36a1.5,1.5,0,0,0,0-3,1.5,1.5,0,0,0,0,3Z" transform="translate(-129.91 -4.13)"/>
      <path class="cls-1" d="M348.42,339.36a1.5,1.5,0,0,0,0-3,1.5,1.5,0,0,0,0,3Z" transform="translate(-129.91 -4.13)"/>
      <path class="cls-1" d="M304.42,421.36a1.5,1.5,0,0,0,0-3,1.5,1.5,0,0,0,0,3Z" transform="translate(-129.91 -4.13)"/>
      <path class="cls-1" d="M436.42,467.36a1.5,1.5,0,0,0,0-3,1.5,1.5,0,0,0,0,3Z" transform="translate(-129.91 -4.13)"/>
      <path class="cls-1" d="M272.42,521.36a1.5,1.5,0,0,0,0-3,1.5,1.5,0,0,0,0,3Z" transform="translate(-129.91 -4.13)"/>
      <path class="cls-1" d="M680.42,333.36a1.5,1.5,0,0,0,0-3,1.5,1.5,0,0,0,0,3Z" transform="translate(-129.91 -4.13)"/>
      <path class="cls-1" d="M586.42,439.36a1.5,1.5,0,0,0,0-3,1.5,1.5,0,0,0,0,3Z" transform="translate(-129.91 -4.13)"/>
      <path class="cls-1" d="M732.42,505.36a1.5,1.5,0,0,0,0-3,1.5,1.5,0,0,0,0,3Z" transform="translate(-129.91 -4.13)"/>
      <path class="cls-1" d="M1198.42,551.36a1.5,1.5,0,0,0,0-3,1.5,1.5,0,0,0,0,3Z" transform="translate(-129.91 -4.13)"/>
      <path class="cls-1" d="M1506.42,367.36a1.5,1.5,0,0,0,0-3,1.5,1.5,0,0,0,0,3Z" transform="translate(-129.91 -4.13)"/>
      <path class="cls-1" d="M1466.42,499.36a1.5,1.5,0,0,0,0-3,1.5,1.5,0,0,0,0,3Z" transform="translate(-129.91 -4.13)"/>
      <path class="cls-1" d="M1220.42,391.36a1.5,1.5,0,0,0,0-3,1.5,1.5,0,0,0,0,3Z" transform="translate(-129.91 -4.13)"/>
      <path class="cls-1" d="M1290.42,447.36a1.5,1.5,0,0,0,0-3,1.5,1.5,0,0,0,0,3Z" transform="translate(-129.91 -4.13)"/>
      <path class="cls-1" d="M1378.42,307.36a1.5,1.5,0,0,0,0-3,1.5,1.5,0,0,0,0,3Z" transform="translate(-129.91 -4.13)"/>
      <path class="cls-1" d="M1090.42,397.36a1.5,1.5,0,0,0,0-3,1.5,1.5,0,0,0,0,3Z" transform="translate(-129.91 -4.13)"/>
      <path class="cls-1" d="M836.42,327.36a1.5,1.5,0,0,0,0-3,1.5,1.5,0,0,0,0,3Z" transform="translate(-129.91 -4.13)"/>
      <path class="cls-1" d="M820.42,643.36a1.5,1.5,0,0,0,0-3,1.5,1.5,0,0,0,0,3Z" transform="translate(-129.91 -4.13)"/>
      <path class="cls-1" d="M366,169.9a1.5,1.5,0,0,0,0-3,1.5,1.5,0,0,0,0,3Z" transform="translate(-129.91 -4.13)"/>
      <path class="cls-1" d="M791.29,28.13a1.5,1.5,0,0,0,0-3,1.5,1.5,0,0,0,0,3Z" transform="translate(-129.91 -4.13)"/>
      <path class="cls-1" d="M421.12,7.13a1.5,1.5,0,0,0,0-3,1.5,1.5,0,0,0,0,3Z" transform="translate(-129.91 -4.13)"/>
      <path class="cls-1" d="M1011.82,251.28a1.5,1.5,0,0,0,0-3,1.5,1.5,0,0,0,0,3Z" transform="translate(-129.91 -4.13)"/>
      <path class="cls-1" d="M1290.11,28.13a1.5,1.5,0,0,0,0-3,1.5,1.5,0,0,0,0,3Z" transform="translate(-129.91 -4.13)"/>
      <path class="cls-1" d="M1489.64,211.9a1.5,1.5,0,0,0,0-3,1.5,1.5,0,0,0,0,3Z" transform="translate(-129.91 -4.13)"/>
      <path class="cls-1" d="M1397.75,440.31a1.5,1.5,0,0,0,0-3,1.5,1.5,0,0,0,0,3Z" transform="translate(-129.91 -4.13)"/>
      <path class="cls-1" d="M1502.77,613.58a1.5,1.5,0,0,0,0-3,1.5,1.5,0,0,0,0,3Z" transform="translate(-129.91 -4.13)"/>
      <path class="cls-1" d="M1156.22,645.09a1.5,1.5,0,0,0,0-3,1.5,1.5,0,0,0,0,3Z" transform="translate(-129.91 -4.13)"/>
      <path class="cls-1" d="M408,729.1a1.5,1.5,0,0,0,0-3,1.5,1.5,0,0,0,0,3Z" transform="translate(-129.91 -4.13)"/>
    </g>
    <g class="cls-2">
      <path class="cls-1" d="M1109,110.51c3.22,0,3.23-5,0-5s-3.22,5,0,5Z" transform="translate(-129.91 -4.13)"/>
      <path class="cls-1" d="M444.75,254.91c3.21,0,3.22-5,0-5s-3.23,5,0,5Z" transform="translate(-129.91 -4.13)"/>
      <path class="cls-1" d="M192.71,68.51c3.22,0,3.22-5,0-5s-3.22,5,0,5Z" transform="translate(-129.91 -4.13)"/>
      <path class="cls-1" d="M1127.34,268c3.22,0,3.22-5,0-5s-3.22,5,0,5Z" transform="translate(-129.91 -4.13)"/>
      <path class="cls-1" d="M1426.63,76.38c3.22,0,3.22-5,0-5s-3.22,5,0,5Z" transform="translate(-129.91 -4.13)"/>
      <path class="cls-1" d="M646.9,128.89c3.22,0,3.22-5,0-5s-3.22,5,0,5Z" transform="translate(-129.91 -4.13)"/>
      <path class="cls-1" d="M410.62,346.8c3.21,0,3.22-5,0-5s-3.23,5,0,5Z" transform="translate(-129.91 -4.13)"/>
      <path class="cls-1" d="M132.33,241.78c3.22,0,3.22-5,0-5s-3.22,5,0,5Z" transform="translate(-129.91 -4.13)"/>
      <path class="cls-1" d="M229.47,344.17c3.21,0,3.22-5,0-5s-3.23,5,0,5Z" transform="translate(-129.91 -4.13)"/>
      <path class="cls-1" d="M161.21,533.2c3.21,0,3.22-5,0-5s-3.23,5,0,5Z" transform="translate(-129.91 -4.13)"/>
      <path class="cls-1" d="M135,654c3.22,0,3.23-5,0-5s-3.22,5,0,5Z" transform="translate(-129.91 -4.13)"/>
      <path class="cls-1" d="M379.11,543.7c3.22,0,3.22-5,0-5s-3.22,5,0,5Z" transform="translate(-129.91 -4.13)"/>
      <path class="cls-1" d="M654.78,585.7c3.21,0,3.22-5,0-5s-3.23,5,0,5Z" transform="translate(-129.91 -4.13)"/>
      <path class="cls-1" d="M581.26,307.42c3.22,0,3.23-5,0-5s-3.22,5,0,5Z" transform="translate(-129.91 -4.13)"/>
      <path class="cls-1" d="M528.76,512.19c3.21,0,3.22-5,0-5s-3.22,5,0,5Z" transform="translate(-129.91 -4.13)"/>
      <path class="cls-1" d="M896.31,228.66c3.22,0,3.22-5,0-5s-3.22,5,0,5Z" transform="translate(-129.91 -4.13)"/>
      <path class="cls-1" d="M1245.48,247c3.22,0,3.22-5,0-5s-3.22,5,0,5Z" transform="translate(-129.91 -4.13)"/>
      <path class="cls-1" d="M1106.34,493.82c3.21,0,3.22-5,0-5s-3.23,5,0,5Z" transform="translate(-129.91 -4.13)"/>
      <path class="cls-1" d="M896.31,425.56c3.22,0,3.22-5,0-5s-3.22,5,0,5Z" transform="translate(-129.91 -4.13)"/>
      <path class="cls-1" d="M809.67,528c3.22,0,3.22-5,0-5s-3.22,5,0,5Z" transform="translate(-129.91 -4.13)"/>
      <path class="cls-1" d="M1011.82,604.08c3.22,0,3.23-5,0-5s-3.22,5,0,5Z" transform="translate(-129.91 -4.13)"/>
      <path class="cls-1" d="M1311.12,688.09c3.21,0,3.22-5,0-5s-3.23,5,0,5Z" transform="translate(-129.91 -4.13)"/>
      <path class="cls-1" d="M1350.5,559.45c3.21,0,3.22-5,0-5s-3.23,5,0,5Z" transform="translate(-129.91 -4.13)"/>
      <path class="cls-1" d="M1006.57,698.6c3.22,0,3.23-5,0-5s-3.22,5,0,5Z" transform="translate(-129.91 -4.13)"/>
      <path class="cls-1" d="M324,643.46c3.22,0,3.22-5,0-5s-3.22,5,0,5Z" transform="translate(-129.91 -4.13)"/>
    </g>
    <g id="Layer_4_copy" data-name="Layer 4 copy">
      <path class="cls-1" d="M1109,110.51c3.22,0,3.23-5,0-5s-3.22,5,0,5Z" transform="translate(-129.91 -4.13)"/>
      <path class="cls-1" d="M444.75,254.91c3.21,0,3.22-5,0-5s-3.23,5,0,5Z" transform="translate(-129.91 -4.13)"/>
      <path class="cls-1" d="M192.71,68.51c3.22,0,3.22-5,0-5s-3.22,5,0,5Z" transform="translate(-129.91 -4.13)"/>
      <path class="cls-1" d="M1127.34,268c3.22,0,3.22-5,0-5s-3.22,5,0,5Z" transform="translate(-129.91 -4.13)"/>
      <path class="cls-1" d="M1426.63,76.38c3.22,0,3.22-5,0-5s-3.22,5,0,5Z" transform="translate(-129.91 -4.13)"/>
      <path class="cls-1" d="M646.9,128.89c3.22,0,3.22-5,0-5s-3.22,5,0,5Z" transform="translate(-129.91 -4.13)"/>
      <path class="cls-1" d="M410.62,346.8c3.21,0,3.22-5,0-5s-3.23,5,0,5Z" transform="translate(-129.91 -4.13)"/>
      <path class="cls-1" d="M132.33,241.78c3.22,0,3.22-5,0-5s-3.22,5,0,5Z" transform="translate(-129.91 -4.13)"/>
      <path class="cls-1" d="M229.47,344.17c3.21,0,3.22-5,0-5s-3.23,5,0,5Z" transform="translate(-129.91 -4.13)"/>
      <path class="cls-1" d="M161.21,533.2c3.21,0,3.22-5,0-5s-3.23,5,0,5Z" transform="translate(-129.91 -4.13)"/>
      <path class="cls-1" d="M135,654c3.22,0,3.23-5,0-5s-3.22,5,0,5Z" transform="translate(-129.91 -4.13)"/>
      <path class="cls-1" d="M379.11,543.7c3.22,0,3.22-5,0-5s-3.22,5,0,5Z" transform="translate(-129.91 -4.13)"/>
      <path class="cls-1" d="M654.78,585.7c3.21,0,3.22-5,0-5s-3.23,5,0,5Z" transform="translate(-129.91 -4.13)"/>
      <path class="cls-1" d="M581.26,307.42c3.22,0,3.23-5,0-5s-3.22,5,0,5Z" transform="translate(-129.91 -4.13)"/>
      <path class="cls-1" d="M528.76,512.19c3.21,0,3.22-5,0-5s-3.22,5,0,5Z" transform="translate(-129.91 -4.13)"/>
      <path class="cls-1" d="M896.31,228.66c3.22,0,3.22-5,0-5s-3.22,5,0,5Z" transform="translate(-129.91 -4.13)"/>
      <path class="cls-1" d="M1245.48,247c3.22,0,3.22-5,0-5s-3.22,5,0,5Z" transform="translate(-129.91 -4.13)"/>
      <path class="cls-1" d="M1106.34,493.82c3.21,0,3.22-5,0-5s-3.23,5,0,5Z" transform="translate(-129.91 -4.13)"/>
      <path class="cls-1" d="M896.31,425.56c3.22,0,3.22-5,0-5s-3.22,5,0,5Z" transform="translate(-129.91 -4.13)"/>
      <path class="cls-1" d="M809.67,528c3.22,0,3.22-5,0-5s-3.22,5,0,5Z" transform="translate(-129.91 -4.13)"/>
      <path class="cls-1" d="M1011.82,604.08c3.22,0,3.23-5,0-5s-3.22,5,0,5Z" transform="translate(-129.91 -4.13)"/>
      <path class="cls-1" d="M1311.12,688.09c3.21,0,3.22-5,0-5s-3.23,5,0,5Z" transform="translate(-129.91 -4.13)"/>
      <path class="cls-1" d="M1350.5,559.45c3.21,0,3.22-5,0-5s-3.23,5,0,5Z" transform="translate(-129.91 -4.13)"/>
      <path class="cls-1" d="M1006.57,698.6c3.22,0,3.23-5,0-5s-3.22,5,0,5Z" transform="translate(-129.91 -4.13)"/>
      <path class="cls-1" d="M324,643.46c3.22,0,3.22-5,0-5s-3.22,5,0,5Z" transform="translate(-129.91 -4.13)"/>
    </g>
  </g>
</svg>
