<?xml version="1.0" encoding="UTF-8"?>
<svg width="1314px" height="2702px" viewBox="0 0 1314 2702" version="1.1" xmlns="http://www.w3.org/2000/svg" xmlns:xlink="http://www.w3.org/1999/xlink">
    <!-- Generator: Sketch 48.2 (47327) - http://www.bohemiancoding.com/sketch -->
    <title>Group 2</title>
    <desc>Created with Sketch.</desc>
    <defs>
        <linearGradient x1="50%" y1="0%" x2="50%" y2="100%" id="linearGradient-1">
            <stop stop-color="#0B3A4C" offset="0%"></stop>
            <stop stop-color="#000000" offset="100%"></stop>
        </linearGradient>
        <linearGradient x1="50%" y1="0%" x2="50%" y2="100%" id="linearGradient-2">
            <stop stop-color="#082B38" offset="0%"></stop>
            <stop stop-color="#000000" offset="100%"></stop>
        </linearGradient>
    </defs>
    <g id="Artboard-4" stroke="none" stroke-width="1" fill="none" fill-rule="evenodd" transform="translate(-1566.000000, -8534.000000)">
        <g id="Group-2" transform="translate(1566.000000, 8533.000000)">
            <path d="M1286.59132,910.044765 C1283.08068,910.895291 1281.6399,924.231402 1277.63547,925.081929 C1275.83619,925.462428 1273.82383,924.914062 1271.76073,924.369426 C1269.70441,923.828521 1267.59735,923.280155 1265.61881,923.656924 C1261.98641,924.354505 1258.73282,928.939143 1254.80618,929.636724 C1252.96969,929.964997 1250.92689,929.129392 1248.85703,928.290056 C1246.78718,927.450721 1244.69027,926.611385 1242.7354,926.935928 C1239.03537,927.551441 1235.59575,930.983391 1231.69955,931.602634 C1229.84615,931.897334 1227.53278,928.789927 1225.2025,925.68252 C1222.87223,922.575113 1220.51827,919.460245 1218.58032,919.758676 C1214.85661,920.329424 1212.10695,929.271146 1208.2378,929.841895 C1206.37087,930.121673 1204.42616,929.89412 1202.47129,929.662836 C1200.50628,929.431553 1198.53113,929.200269 1196.60332,929.480048 C1192.85255,930.024683 1189.61586,935.411353 1185.76363,935.955989 C1183.88318,936.220846 1181.62392,933.266384 1179.34776,930.311923 C1177.07497,927.357461 1174.79204,924.403 1172.86424,924.667857 C1169.09994,925.19384 1167.65578,946.494314 1163.81031,947.024028 C1161.92309,947.281424 1159.65369,944.241164 1157.3809,941.200904 C1155.10474,938.160644 1152.82181,935.120383 1150.90077,935.37778 C1147.11618,935.896302 1144.60326,948.053613 1140.76794,948.572136 C1138.87396,948.829532 1136.68573,946.471932 1134.49073,944.110601 C1132.29574,941.75673 1130.09398,939.391669 1128.17632,939.649065 C1124.39173,940.160128 1121.60486,949.88896 1117.77292,950.407483 C1115.87894,950.661149 1113.74482,948.781037 1111.60394,946.900925 C1109.45968,945.020814 1107.31542,943.136971 1105.40452,943.398098 C1101.6064,943.90543 1099.05629,955.734467 1095.23449,956.25299 C1093.33374,956.510386 1091.20301,954.716073 1089.07228,952.92176 C1086.93478,951.127447 1084.80066,949.333134 1082.88976,949.59053 C1079.08826,950.109053 1075.51337,952.683015 1071.69496,953.208999 C1067.89346,953.731252 1064.60266,958.748614 1060.79101,959.282059 C1058.89026,959.546916 1056.93201,959.29325 1054.97038,959.043314 C1053.00876,958.785918 1051.04713,958.535983 1049.13623,958.80084 C1047.2321,959.069427 1045.16224,957.913009 1043.09239,956.760321 C1041.02253,955.603903 1038.95268,954.447485 1037.04516,954.716073 C1033.23352,955.264439 1030.23358,962.665514 1026.42531,963.21761 C1024.5178,963.497389 1022.54264,963.180307 1020.57087,962.866955 C1018.59233,962.546142 1016.61717,962.23279 1014.70966,962.508838 C1012.80214,962.792347 1010.58347,960.490702 1008.36481,958.192788 C1006.14275,955.891143 1003.92409,953.589498 1002.02334,953.873007 C998.208307,954.451216 995.475556,963.635413 991.684202,964.217352 C987.862409,964.806753 984.345007,967.507548 980.553653,968.104409 C976.735242,968.708731 972.967564,969.451076 969.186356,970.066589 C967.27546,970.376211 965.242807,969.715933 963.216919,969.055656 C961.187648,968.391648 959.158378,967.731371 957.267774,968.040993 C955.356878,968.361805 953.043509,965.784112 950.736905,963.206419 C948.426919,960.624996 946.123697,958.039842 944.239858,958.364385 C940.4113,959.020932 938.020143,969.596561 934.255847,970.26803 C932.341568,970.611225 930.166867,969.148916 927.995547,967.694067 C925.820846,966.231758 923.65629,964.769449 921.779215,965.116374 C917.950658,965.825146 915.647436,976.191874 911.903432,976.915568 C909.989154,977.284876 907.689314,975.251818 905.406384,973.218761 C903.116691,971.185703 900.843908,969.148916 898.973597,969.521954 C895.14504,970.297873 893.721168,984.887392 890.000839,985.674502 C888.086561,986.081113 885.803631,984.297991 883.537613,982.5186 C881.261447,980.735478 879.002193,978.948626 877.152175,979.358967 C873.320236,980.220685 870.993339,988.517052 867.306831,989.393691 C865.392552,989.852528 862.781557,986.808538 860.190855,983.764547 C857.600153,980.716826 855.026362,977.665375 853.193254,978.131672 C849.361315,979.109032 849.696145,998.697261 846.063751,999.700733 C844.149472,1000.23045 841.342315,996.835801 838.565596,993.441154 C835.782113,990.035317 833.02907,986.63694 831.229783,987.177845 C827.404608,988.330533 827.766495,1004.79643 824.222036,1005.98269 C822.307757,1006.62432 819.402518,1003.6997 816.548011,1000.77508 C813.683358,997.846734 810.862672,994.910924 809.124263,995.574932 C808.322701,995.880823 807.436587,995.962892 806.526797,995.962892 C806.919123,989.66974 807.331741,983.977179 807.433204,980.481812 C807.845823,966.14969 809.48615,956.734209 805.099543,935.732166 C800.709555,914.730123 795.791956,926.077941 795.203468,932.863503 C794.618361,939.649065 796.853941,954.49225 797.658885,966.675673 C798.203406,974.860128 797.303763,999.503023 795.311695,993.814193 C793.319628,988.125362 782.070705,953.164235 769.810529,932.24799 C757.550353,911.324285 748.662149,918.378435 758.737477,935.87392 C762.329285,942.118577 780.044817,974.177469 776.409041,977.904119 C772.776646,981.627039 763.178197,975.36373 748.560685,974.513203 C733.943173,973.658946 737.731145,987.293487 743.284582,987.651604 C748.841401,988.00972 775.330145,990.341208 779.97041,996.53737 C783.048137,1000.64452 785.801181,1006.1058 787.989411,1011.35817 C785.074026,1013.46584 782.93991,1016.25616 780.552135,1018.14747 C776.950179,1020.99748 780.044817,1027.38016 778.215091,1030.4055 C777.210602,1032.06925 772.539898,1031.0322 767.781259,1029.99888 C762.880571,1028.93573 757.885183,1027.86884 756.691296,1029.74522 C754.547033,1033.11002 766.898526,1048.0875 764.517515,1051.7097 C762.308993,1055.06704 759.904307,1058.56614 757.509768,1062.13611 C755.26066,1065.48973 753.261828,1069.28352 750.860525,1072.81619 C748.58436,1076.15862 741.823507,1075.94225 739.428968,1079.43762 C737.129128,1082.7875 734.464019,1085.95086 732.066098,1089.43131 C729.75273,1092.78119 723.549926,1092.96771 721.148623,1096.43323 C718.82849,1099.79804 719.653727,1105.88229 717.26257,1109.34781 C714.935673,1112.71262 708.786983,1112.95136 706.40259,1116.41315 C704.075694,1119.79288 710.58627,1130.61471 708.215405,1134.07651 C707.055339,1135.76637 703.385742,1135.37468 699.699233,1134.98672 C695.978904,1134.5913 692.241664,1134.19961 691.057923,1135.93796 C689.705076,1137.9188 691.13233,1142.21247 692.092851,1146.13683 C682.497784,1155.59334 678.814658,1166.34057 679.491081,1173.81625 C679.545195,1174.4243 679.538431,1175.12561 679.494464,1175.87169 C677.039046,1177.12137 670.941088,1175.45016 666.466547,1175.0995 C665.600725,1166.71361 664.143032,1160.11829 666.172303,1156.55578 C669.368404,1150.93783 690.296947,1127.138 697.213377,1115.03291 C699.797315,1110.51542 708.113942,1103.19268 713.471216,1100.42101 C718.82849,1097.65307 739.817911,1078.96386 733.983759,1072.13353 C730.943235,1068.57475 725.738156,1074.71496 720.573663,1080.85889 C715.835316,1086.49923 711.130791,1092.13957 708.178202,1090.27065 C703.615726,1087.38706 715.527543,1064.92271 709.395764,1058.42812 C700.879592,1049.40432 698.468143,1084.95858 696.763555,1090.52058 C694.213439,1098.86171 690.252979,1107.01632 687.800944,1109.60894 C676.633192,1121.42305 660.676362,1149.3748 658.897368,1145.4094 C657.121756,1141.44401 647.418461,1116.28259 649.880643,1104.1402 C650.540156,1100.87985 656.394601,1091.17713 668.715655,1089.29702 C675.723403,1088.2264 686.251934,1079.30706 696.14801,1065.27709 C706.040704,1051.2434 694.923684,1050.72488 692.363421,1053.55251 C689.80654,1056.38014 685.362437,1061.82276 676.095435,1071.21586 C671.817057,1075.54683 663.317795,1080.6388 662.519616,1076.7219 C661.579387,1072.15219 669.280469,1057.6037 671.042552,1046.16635 C674.306295,1024.94795 663.669536,1030.6517 661.99877,1038.13111 C657.422765,1058.55122 656.891772,1072.03654 648.930268,1070.92862 C646.271923,1070.55931 645.14906,1059.20403 645.669906,1045.71871 C645.984443,1037.56783 637.579881,1030.10707 636.145863,1044.28624 C634.708464,1058.47288 640.332925,1073.96142 643.190814,1081.22074 C646.434265,1089.48353 640.502031,1099.03331 640.502031,1099.03331 C635.273277,1109.4933 634.170707,1116.06623 647.56051,1150.37827 C651.723897,1161.0397 653.573915,1172.17115 654.1252,1182.39986 C653.357459,1183.04894 652.664125,1183.75398 652.126369,1184.58959 C649.867114,1188.0663 652.241361,1195.26594 649.985488,1198.78742 C648.700284,1200.79436 650.959538,1205.54687 652.697947,1209.90395 C652.11284,1213.55973 651.456709,1216.53657 650.871603,1218.6405 C650.306789,1218.63304 649.704773,1218.59947 649.055406,1218.52113 C649.170398,1213.93649 649.758886,1204.65158 647.973128,1186.91362 C645.446687,1161.78577 632.297014,1135.84471 624.514761,1113.89142 C620.818107,1103.465 618.081974,1076.43466 616.41459,1066.51558 C613.847563,1051.27698 613.614197,1040.9289 604.587325,1019.87836 C595.557071,998.827824 592.749914,1012.05948 593.544711,1019.37103 C594.346273,1026.67885 599.811775,1041.7757 603.210803,1054.42915 C605.497115,1062.92695 609.704469,1089.16272 606.413668,1083.6716 C603.122868,1078.17302 583.929351,1044.13703 566.61291,1025.18296 C549.293086,1006.22517 541.392459,1015.93162 555.681906,1031.8305 C560.785521,1037.50441 586.188606,1066.82893 583.134554,1071.68589 C581.409674,1074.42772 577.023067,1074.29716 570.732329,1074.17032 C565.858697,1074.0696 559.845293,1073.96888 553.033708,1075.19991 C537.428618,1078.02007 544.277406,1091.44945 550.216404,1090.40867 C556.155402,1089.37162 584.599011,1085.08915 590.791668,1090.44597 C599.460035,1097.94404 607.276108,1112.53729 610.421478,1118.24104 C630.663451,1154.96291 637.360044,1210.95219 633.494283,1217.64822 C633.494283,1217.65195 633.490901,1217.65195 633.490901,1217.65195 C633.487519,1217.65941 633.484137,1217.66314 633.480755,1217.66687 C633.399584,1217.80863 633.321795,1217.96157 633.227096,1218.05483 C628.79314,1222.59844 588.988999,1200.95104 570.962313,1150.93783 C563.86663,1131.25261 557.545453,1122.56082 548.065377,1111.70914 C543.864787,1106.90068 537.621398,1100.24568 520.10203,1097.88062 C510.750475,1096.62348 506.999707,1100.46204 507.618634,1104.30061 C508.159773,1107.65422 512.025533,1111.00783 518.39406,1110.9668 C532.057815,1110.87354 537.009235,1115.16348 534.519997,1116.97644 C532.030758,1118.78941 522.926098,1117.53227 523.724278,1124.84381 C524.214685,1129.3613 530.955245,1128.81667 537.232455,1128.2683 C541.111744,1127.92884 544.815162,1127.58937 546.75988,1128.45109 C554.061872,1131.67787 557.961453,1142.18262 561.286075,1154.70178 C567.001853,1176.1925 575.514643,1188.4095 575.514643,1188.4095 C575.514643,1188.4095 565.875608,1182.27675 565.053754,1179.79232 C564.02559,1176.69983 560.071894,1170.95505 559.290625,1167.02696 C558.505974,1163.09887 551.156633,1146.6367 546.641506,1149.57997 C542.129761,1152.52324 555.999825,1165.58703 553.033708,1169.157 C551.961577,1170.45145 548.860175,1168.47808 545.457765,1166.51216 C541.92007,1164.46046 538.061074,1162.40875 535.83564,1164.03519 C529.757975,1168.45942 548.822972,1174.88314 551.623365,1176.76698 C555.830719,1179.59088 559.442821,1183.56 560.819342,1185.29836 C564.448354,1189.89419 569.558734,1193.40448 567.908261,1192.63602 C566.251023,1191.86756 548.237865,1187.30904 541.849045,1185.96983 C527.461517,1182.94822 523.873091,1171.51834 519.425606,1165.65418 C514.981504,1159.79002 489.517541,1139.14982 484.24482,1148.47204 C478.972099,1157.80173 512.742542,1166.41517 510.574605,1175.29721 C509.850832,1178.27406 503.98624,1178.2181 497.336997,1178.16587 C489.321378,1178.10246 480.159222,1178.03904 477.514406,1183.28396 C472.66445,1192.9158 490.718193,1191.62882 503.47554,1190.34184 C508.386375,1189.84943 512.51594,1189.35329 514.247584,1189.48012 C523.572082,1190.1777 533.613589,1196.84016 537.523317,1197.6683 C563.430337,1203.17062 577.513474,1208.6207 583.01618,1210.70598 C578.818972,1210.82909 570.776296,1213.19788 564.099996,1214.66765 C555.451922,1216.56641 548.680923,1221.03914 543.529958,1217.95411 C539.944913,1215.80541 534.881883,1202.11865 530.694822,1205.0843 C526.514525,1208.05741 531.499766,1213.22026 531.736514,1215.65993 C531.976644,1218.0996 527.393875,1217.00287 520.940795,1208.31108 C514.491097,1199.62302 505.383054,1205.64386 514.947683,1215.61143 C524.508929,1225.57901 530.941716,1226.36239 535.439933,1226.73916 C545.596432,1227.58223 553.158846,1227.57104 566.74143,1222.57979 C579.924924,1217.73029 581.605837,1219.49103 592.63154,1223.9563 C603.653861,1228.41783 621.650108,1249.51313 620.124773,1251.93788 C619.292772,1253.26217 612.744992,1250.9456 605.842091,1248.63276 C600.062052,1246.6967 594.035118,1244.76063 590.893131,1244.95461 C583.990229,1245.37614 569.480945,1250.02793 558.864479,1247.24133 C550.852242,1245.1374 537.239219,1236.02781 530.525716,1233.80077 C527.627241,1232.83833 517.091945,1233.47623 509.844067,1222.32985 C505.724648,1215.9882 493.664017,1209.87038 477.798504,1206.74805 C461.929609,1203.62572 466.69163,1214.71614 470.151536,1215.89867 C473.614825,1217.07747 480.047612,1218.87552 491.905316,1223.54595 C497.370818,1225.70585 505.413493,1231.62596 502.646921,1234.23723 C499.413617,1237.28122 484.153503,1236.53887 474.159346,1240.14615 C455.615195,1246.84218 465.14262,1254.5678 471.923766,1252.72126 C490.440859,1247.67033 501.507148,1241.90689 504.324452,1250.19579 C505.26468,1252.96001 496.680866,1259.34642 485.614578,1265.12105 C478.931513,1268.61641 476.861657,1280.28504 488.905378,1275.08116 C500.95248,1269.87728 510.760621,1257.17534 515.258838,1251.00529 C520.372599,1243.98844 530.799667,1245.33138 530.799667,1245.33138 C540.668686,1248.01725 562.23645,1267.80692 579.793022,1260.27528 C588.403893,1256.58594 599.635905,1257.77593 608.294126,1260.28274 C607.986353,1260.45807 607.72593,1260.66697 607.566971,1260.94302 C606.454254,1262.88282 608.882614,1267.25856 611.084373,1271.48508 C590.15583,1277.0993 543.343941,1287.79803 532.24045,1291.87907 C527.644152,1293.57266 517.024303,1293.67338 511.271321,1292.17004 C505.514957,1290.66669 478.535806,1290.91663 479.256197,1300.26123 C479.631612,1305.15922 487.241376,1303.8797 494.780116,1302.60391 C501.635668,1301.44376 508.433724,1300.28362 509.68849,1303.75287 C511.63659,1309.13954 489.646062,1318.56621 490.782453,1327.85113 C492.368666,1340.76571 514.301698,1314.5747 518.769475,1311.38523 C525.472832,1306.59915 533.424191,1304.04011 536.552649,1302.58153 C547.368661,1297.55671 574.205763,1290.75622 597.82309,1285.15692 C595.773527,1288.71197 591.988937,1291.21506 590.074659,1294.8298 C588.099502,1298.55272 590.213326,1304.9354 588.302429,1308.66578 C586.378004,1312.41854 594.268485,1322.11007 592.40832,1325.86657 C590.531245,1329.65663 576.908075,1326.44104 575.102025,1330.23484 C573.282445,1334.05475 577.347751,1341.20962 575.60596,1345.0258 C573.850641,1348.88674 570.482052,1351.81882 568.811286,1355.67604 C567.170959,1359.45864 566.568942,1363.86049 564.891412,1367.76993 C563.261231,1371.57119 566.27808,1377.82331 564.620842,1381.73275 C563.00419,1385.54893 557.521778,1387.41785 555.884833,1391.33102 C554.278327,1395.16212 548.285215,1396.80721 546.661799,1400.72784 C545.065439,1404.56641 537.590959,1405.51765 535.977689,1409.43082 C534.394858,1413.28431 537.939318,1419.75279 536.34634,1423.67342 C534.770273,1427.53063 536.965268,1433.29034 535.382437,1437.2147 C533.82328,1441.0831 531.766953,1444.74261 530.201033,1448.66697 C528.648641,1452.54283 534.401623,1459.96629 532.845849,1463.89438 C531.300221,1467.78144 518.925053,1466.47953 517.386189,1470.41136 C515.85409,1474.30587 526.55511,1484.02724 525.026393,1487.95907 C523.50444,1491.86104 514.159649,1492.06995 512.641079,1496.00923 C511.136036,1499.91867 508.924131,1503.51102 507.422471,1507.4503 C505.924193,1511.3672 496.474557,1511.63206 494.986425,1515.57134 C493.498293,1519.49197 507.513788,1530.52271 506.035803,1534.46199 C504.564582,1538.39754 491.509608,1537.08072 490.045152,1541.03119 C488.587459,1544.9742 482.130997,1546.71256 480.676686,1550.66676 C479.22914,1554.62097 481.64059,1560.31726 480.20319,1564.27519 C478.76579,1568.24059 478.674472,1572.80657 477.250601,1576.77197 C475.82673,1580.74482 473.161621,1584.1917 471.758042,1588.16455 C470.347699,1592.14114 464.310619,1594.17046 462.920569,1598.14332 C461.527137,1602.1311 459.90372,1606.06665 458.530581,1610.04323 C457.147295,1614.03847 457.015392,1618.597 455.659163,1622.57358 C454.292787,1626.58374 452.757306,1630.55287 451.42137,1634.53691 C450.071905,1638.55453 451.566801,1643.74349 450.244393,1647.735 C448.918603,1651.76008 445.692063,1655.05774 444.393329,1659.04924 C443.08445,1663.08925 458.635426,1673.70218 457.360368,1677.70488 C456.065017,1681.75234 450.954637,1684.2517 449.69649,1688.25812 C448.424814,1692.32051 439.641454,1693.50677 438.413746,1697.51693 C437.162362,1701.5905 437.087956,1706.07442 435.890686,1710.09204 C434.66636,1714.18054 440.422724,1720.70498 439.249129,1724.72633 C438.055241,1728.82601 428.964109,1730.1018 427.827718,1734.12688 C426.660887,1738.25269 423.096136,1741.54288 421.990183,1745.57915 C420.860556,1749.71615 414.278955,1752.10732 413.21697,1756.15105 C412.121164,1760.3067 424.26973,1768.57695 423.251713,1772.62068 C422.203257,1776.79498 414.698338,1778.96606 413.731052,1783.01725 C412.729945,1787.21393 413.764873,1791.93286 412.855084,1795.98779 C411.914855,1800.20685 406.757126,1803.30679 405.921743,1807.35799 C405.055921,1811.55094 403.172081,1815.27759 402.214942,1819.40712 C401.254421,1823.57395 409.124608,1830.28118 408.079534,1834.3846 C407.020931,1838.52159 404.582424,1842.24451 403.449415,1846.32181 C402.306259,1850.42896 405.542946,1856.1551 404.332148,1860.19883 C403.107821,1864.2836 397.591587,1866.81652 396.306383,1870.83788 C395.011032,1874.88907 390.93558,1877.81742 389.579351,1881.81265 C388.21974,1885.83774 390.976166,1891.60117 389.572587,1895.56657 C388.145333,1899.573 382.649392,1901.77019 381.1917,1905.71693 C379.717096,1909.69725 370.862713,1910.20085 369.361053,1914.12894 C367.842482,1918.08688 373.412829,1925.31262 371.877348,1929.21833 C370.328338,1933.16508 372.986683,1939.12995 371.424144,1943.02074 C369.844695,1946.95256 373.355333,1953.40239 371.775885,1957.28572 C370.179525,1961.21008 363.476168,1962.59032 361.889955,1966.46991 C360.283449,1970.39054 364.007161,1976.94482 362.420948,1980.82069 C360.81106,1984.74505 344.401025,1981.28699 342.821577,1985.17031 C341.221835,1989.09467 339.273735,1992.88101 337.717961,1996.7718 C336.141895,2000.71481 350.857488,2012.43566 349.335535,2016.34137 C347.796671,2020.29931 332.245695,2017.66193 330.76771,2021.59002 C329.276196,2025.57033 331.004458,2031.02042 329.590733,2034.97462 C328.156715,2038.97732 334.29864,2046.09116 332.962704,2050.0752 C331.606475,2054.11521 315.872864,2052.52233 314.631627,2056.53995 C313.370097,2060.62472 327.686601,2070.26402 326.553591,2074.32268 C325.410436,2078.44102 322.396969,2081.67153 321.402626,2085.77122 C320.394755,2089.93059 314.837936,2092.6948 313.995789,2096.83926 C313.146878,2101.03593 308.395002,2104.44177 307.742254,2108.63472 C307.079359,2112.86124 307.691522,2117.4608 307.238318,2121.69105 C306.849375,2125.33563 301.958833,2129.03617 301.485336,2133.78495 C301.096393,2137.65335 315.852572,2143.68165 315.416278,2148.22525 C315.030717,2152.19438 309.801963,2155.83896 309.382581,2160.28184 C309.000402,2164.30692 307.630644,2168.40661 307.22479,2172.79354 C306.845993,2176.85965 299.303871,2180.27668 298.898017,2184.6263 C298.529366,2188.72226 311.560664,2194.42601 311.164957,2198.75699 C311.036436,2200.19691 308.827914,2201.42421 306.020756,2202.59182 C303.098606,2200.01786 300.233953,2201.1407 298.454959,2205.54628 C295.603834,2206.74373 293.351344,2208.02325 293.216059,2209.54898 C293.053717,2211.35075 294.748158,2213.38008 296.679347,2215.44298 C296.557591,2218.58023 296.696258,2222.20243 297.173137,2226.2872 C297.535023,2229.42818 298.231739,2236.07944 298.901399,2244.12961 C297.403121,2245.39047 296.23629,2246.69611 296.10777,2248.12111 C295.90146,2250.47871 297.981463,2253.09744 299.760457,2255.70871 C299.936327,2258.44681 300.095286,2261.22594 300.223807,2263.99388 C296.128062,2266.88493 286.84415,2269.24999 286.546523,2272.61106 C286.181255,2276.78163 298.143804,2282.31751 297.768389,2286.57015 C297.467381,2289.99464 290.818138,2292.77004 288.217289,2295.99682 C281.632307,2291.1324 272.811744,2281.5304 259.445616,2273.63692 C239.223935,2261.6997 236.37281,2283.82086 244.040071,2288.40549 C250.682549,2292.37462 278.716921,2309.97829 287.936574,2322.53848 C287.862167,2322.96001 287.733647,2323.36662 287.696443,2323.78815 C287.331175,2327.9811 292.27583,2332.75599 291.90718,2336.98997 C291.541911,2341.18665 289.668218,2345.2453 289.302949,2349.47556 C288.991794,2353.05299 292.505814,2357.04823 293.334433,2360.76742 C293.067246,2368.45573 292.252156,2375.12565 291.085325,2378.99779 C286.583727,2393.98646 272.990996,2378.44196 254.013935,2360.28247 C235.036874,2342.11925 234.012092,2318.59173 223.909707,2293.23634 C222.036014,2288.53979 216.360821,2272.04778 226.395564,2254.1121 C232.101196,2243.91697 232.821587,2221.4377 227.430492,2194.78413 C222.04616,2168.13429 210.614603,2182.1456 211.145596,2188.25596 C211.683352,2194.36633 213.178248,2205.49032 214.199648,2226.78707 C214.669762,2236.61289 211.818637,2252.69456 206.833396,2249.90797 C201.006008,2246.6588 192.915982,2222.3703 182.363776,2208.88497 C162.774551,2183.85785 160.254874,2202.16282 164.878228,2212.83544 C174.131702,2234.19187 196.2981,2252.67218 187.318578,2261.99067 C184.322022,2265.10181 171.033682,2255.45877 157.058773,2241.58922 C148.610243,2233.20705 132.386225,2236.88148 146.20894,2252.63114 C160.031654,2268.37708 182.167613,2276.18477 192.757023,2279.55703 C204.804125,2283.39932 209.248228,2300.49193 209.248228,2300.49193 C217.527652,2330.11115 238.902634,2372.88742 261.430919,2387.98801 C270.207514,2393.87082 279.444077,2408.10222 286.976052,2423.00136 C286.84415,2423.94141 286.715629,2424.88147 286.631076,2425.82526 C286.272572,2430.04805 289.975991,2434.6961 289.614104,2438.90397 C289.522787,2440.00816 288.670493,2441.03402 287.459695,2442.01884 C284.534164,2436.54637 281.371884,2431.13732 278.148726,2426.83246 C267.559316,2412.69432 240.783091,2397.4296 231.235374,2391.1924 C221.691038,2384.9664 232.605131,2367.38138 208.368877,2343.63378 C184.132623,2319.88991 115.286239,2288.70019 97.4929192,2273.23777 C79.6928347,2257.76415 81.6713735,2242.85755 69.8779298,2236.68004 C58.0912503,2230.49506 22.6737157,2209.47437 18.0199221,2225.42921 C13.3661284,2241.38405 48.9426224,2246.55062 60.2591876,2251.25463 C71.5757527,2255.96237 70.0267429,2269.87296 58.7609095,2267.63847 C47.8299057,2265.47857 0.125138348,2261.32666 0,2278.17679 L0,2278.30735 C0.0033821175,2278.79603 0.0473496451,2279.29964 0.131902583,2279.82189 C2.29307567,2293.19157 33.8347035,2292.08365 55.5445158,2290.97573 C64.3042001,2290.53181 71.4641429,2290.08044 74.4437884,2290.58404 C84.8099785,2292.34105 138.842688,2324.34771 177.452941,2348.2781 C216.073341,2372.20477 203.19762,2380.45264 165.67979,2367.85887 C81.167438,2339.48933 58.3584375,2320.17342 51.117324,2342.12671 C46.771303,2355.29868 99.7082061,2371.28709 126.396495,2381.60159 C153.088167,2391.91983 217.737343,2409.88907 229.480055,2418.48014 C247.23279,2431.47305 264.129849,2446.46172 266.683347,2463.74458 C269.240228,2481.03116 254.342001,2476.8979 224.931107,2465.15466 C214.246998,2460.89457 200.826755,2448.83797 178.765203,2445.8574 C156.700268,2442.8731 127.81022,2435.08033 125.016591,2454.47085 C122.222962,2473.85018 164.786911,2467.96364 173.766433,2467.76593 C182.749337,2467.56822 205.724061,2471.02628 167.824053,2486.72372 C156.348528,2491.47623 100.09715,2517.43968 108.91433,2533.10354 C117.728128,2548.76741 162.960568,2516.06316 170.512836,2511.44122 C178.065104,2506.81182 211.341759,2483.78418 207.032941,2493.79279 C202.717359,2503.79767 148.911252,2558.98119 166.095791,2565.5392 C174.983995,2568.93385 188.279099,2550.37148 201.290105,2531.80537 C213.438671,2514.47029 225.333579,2497.13521 233.153034,2497.67985 C249.346613,2498.81015 261.292252,2504.28635 260.199828,2527.80267 C259.871763,2534.98739 238.723382,2544.71622 207.354242,2574.10789 C201.553911,2579.54678 185.498999,2585.18712 176.235379,2586.12344 C166.975141,2587.05977 126.88352,2602.32076 132.193445,2615.85831 C134.970163,2622.92738 145.677947,2616.8767 156.307943,2610.82602 C166.028148,2605.2976 175.67733,2599.76545 179.140618,2604.26055 C184.480981,2611.21025 155.986641,2637.40126 161.901965,2650.61053 C170.12051,2668.9752 190.923915,2617.83914 196.135758,2610.61712 C203.951832,2599.7841 214.128623,2590.83491 218.640368,2587.67901 C224.90405,2583.29955 262.171603,2542.23552 273.826379,2548.52121 C273.650509,2549.75596 273.488168,2550.99445 273.383322,2552.22547 C273.021436,2556.50422 275.402446,2561.01425 275.050706,2565.18109 C274.935714,2566.5576 275.307747,2567.97887 275.825211,2569.40761 C275.493763,2570.97437 275.131877,2572.60454 274.682055,2574.38021 C273.755355,2578.03598 272.990996,2581.64326 272.297662,2585.17593 C270.332652,2586.74642 268.631447,2588.32437 268.482634,2590.05153 C268.120747,2594.35639 261.904415,2597.97486 261.556057,2602.10439 C261.380187,2604.21206 264.51541,2606.63681 267.728422,2609.04663 C265.526663,2618.40243 262.486139,2625.96391 256.340832,2630.43664 C247.486448,2636.879 212.826508,2632.93226 213.878347,2647.15247 C214.61903,2657.14989 223.162259,2657.00814 230.034722,2656.87011 C232.936579,2656.81416 235.547574,2656.75447 237.143933,2657.45951 C242.514736,2659.8395 234.620873,2670.09804 208.649593,2675.78314 C182.681695,2681.46451 184.071745,2711.87831 216.496106,2699.88886 C239.795513,2691.26795 251.240599,2680.94226 258.177322,2671.75806 C259.706039,2674.21638 261.380187,2676.58517 261.204317,2678.65181 C260.798463,2683.51995 267.45447,2688.4739 267.156844,2692.01403 C266.473656,2700.17237 250.466094,2696.6882 249.938484,2703 L1314,2703 L1314,918.438121 C1313.79369,918.587336 1313.584,918.736551 1313.33034,918.848463 C1310.33378,920.139175 1305.79837,922.228188 1301.5166,923.500248 C1299.83231,924.000119 1297.11985,920.38911 1294.31946,916.778102 C1291.69494,913.387186 1288.98924,910 1286.98026,910 C1286.84836,910 1286.71984,910.014922 1286.59132,910.044765" id="Fill-1" fill="url(#linearGradient-1)"></path>
            <path d="M1302.26028,14.4560623 C1299.43798,19.0075788 1295.63046,23.4499192 1292.19702,28.3590818 C1289.08212,32.816481 1281.52264,34.2131829 1277.96327,38.9265814 C1274.64836,43.3086867 1278.867,54.0230094 1275.22616,58.6046435 C1271.77791,62.9302783 1258.67752,59.3688766 1254.97001,63.848864 C1251.43287,68.1293225 1253.24033,77.153297 1249.49948,81.5542257 C1245.88826,85.8083314 1245.39565,92.9951346 1241.62888,97.3471223 C1237.9584,101.57864 1229.12851,101.277464 1225.33581,105.58804 C1221.62829,109.812028 1221.77274,117.6313 1217.97633,121.911759 C1214.23548,126.131982 1202.58699,123.127755 1198.79058,127.38939 C1195.02751,131.605849 1197.94611,142.018996 1194.15711,146.261808 C1190.38293,150.48956 1181.46045,149.985091 1177.68256,154.224138 C1173.90096,158.46695 1172.69352,165.077755 1168.93045,169.316801 C1165.15256,173.578436 1160.28575,176.842427 1156.55601,181.092768 C1152.78553,185.384521 1151.95217,192.292737 1148.25206,196.558136 C1144.5001,200.883771 1139.95923,204.448938 1136.31097,208.736925 C1132.58494,213.107737 1131.89233,220.004658 1128.29592,224.318999 C1124.60693,228.742516 1122.79947,234.55897 1119.28455,238.899664 C1115.64741,243.402239 1108.1657,244.531648 1104.74709,248.925047 C1101.17661,253.517975 1100.08399,259.797487 1096.7913,264.254886 C1093.30971,268.96452 1089.59849,273.135802 1086.47988,277.668496 C1083.13164,282.536246 1079.65005,286.861881 1076.76849,291.492456 C1073.60914,296.57103 1073.4795,302.756425 1070.95721,307.511235 C1068.10157,312.894749 1058.42721,314.355451 1056.49012,319.268378 C1054.58265,324.117306 1050.51587,328.503175 1048.13061,334.165277 C1046.05277,339.097028 1044.06012,344.38266 1041.65635,349.890409 C1039.48591,354.874866 1046.5602,364.346839 1044.15642,369.764235 C1041.92673,374.786339 1034.87096,377.813154 1032.46719,383.177845 C1030.20786,388.222536 1024.53733,391.870526 1022.14096,397.193805 C1019.86682,402.26485 1026.0596,411.413059 1023.68175,416.717515 C1021.3965,421.803618 1014.36666,424.815374 1011.99992,430.104771 C1009.72208,435.209698 1007.0183,440.216742 1004.67378,445.487316 C1002.39594,450.611066 1001.92926,456.642108 999.606968,461.908916 C997.343939,467.055255 998.106924,473.620883 995.810561,478.891457 C993.558643,484.056619 985.28803,486.571435 983.017593,491.842008 C980.787898,497.025994 974.602532,500.530925 972.365429,505.809028 C970.157957,511.011837 977.32113,520.329457 975.113658,525.611325 C972.932112,530.836722 966.950456,534.447065 964.776318,539.736461 C962.628107,544.984447 957.953896,549.193376 955.824204,554.497831 C953.709327,559.760875 952.487069,565.419212 950.401823,570.734962 C948.32028,576.024359 942.008984,579.64976 939.968183,584.969275 C937.931087,590.285025 940.30523,597.347593 938.316283,602.689695 C936.319928,608.024269 939.182975,615.173425 937.245881,620.526821 C935.305084,625.891512 922.249146,627.171509 920.371313,632.543729 C918.486072,637.931008 920.204641,644.647224 918.393477,650.034503 C916.574905,655.451899 914.048905,660.662238 912.311817,666.064575 C910.55621,671.512089 918.178656,679.952536 916.519348,685.377462 C914.845225,690.858858 912.715533,696.069196 911.141413,701.520475 C909.552477,707.035754 896.83729,709.30963 895.363173,714.775967 C893.870536,720.325128 904.341214,729.017809 902.978211,734.50297 C901.589281,740.086013 890.188947,743.142946 888.951874,748.650695 C887.68517,754.271385 895.385396,761.781952 894.285363,767.308525 C893.163108,772.966862 886.162903,777.37532 885.222135,782.924481 C884.281366,788.503759 890.485252,795.227505 889.637079,800.833136 C888.788906,806.427473 881.099792,810.97146 880.34051,816.588386 C879.584933,822.201546 878.370082,827.76953 877.688581,833.39775 C877.014487,839.01844 883.262818,845.437245 882.655393,851.072994 C882.044264,856.704978 875.310733,861.659317 874.758865,867.302595 C874.210701,872.938344 875.77371,878.777386 875.273695,884.420665 C874.77368,890.067707 878.588607,896.061102 878.129334,901.708145 C877.673765,907.358953 865.421555,912.049763 864.991912,917.700571 C864.565974,923.351378 864.143739,929.028539 863.73632,934.679346 C863.325197,940.337683 866.595663,946.270843 866.203059,951.925415 C865.803047,957.587517 870.903197,963.641147 870.510593,969.295719 C870.117988,974.954056 866.299358,980.363923 865.899346,986.007201 C865.495631,991.665538 872.09212,997.854697 871.677293,1003.50174 C871.251355,1009.16008 870.077247,1014.78077 869.625381,1020.42405 C869.180924,1026.07862 870.006874,1031.88001 869.521675,1037.51953 C869.032771,1043.1741 856.891675,1047.74067 856.358326,1053.37642 C855.821273,1059.02347 858.265789,1064.94533 857.673179,1070.56602 C857.080569,1076.21306 852.57303,1081.35564 851.913751,1086.97256 C851.250769,1092.61208 848.93959,1097.93536 848.195124,1103.53722 C847.454361,1109.16544 846.380256,1114.61672 845.543194,1120.20729 C844.706133,1125.81669 855.402742,1133.28584 854.465678,1138.86136 C853.521206,1144.4557 845.420968,1148.73615 844.369086,1154.28908 C843.313499,1159.86083 850.191479,1167.11163 849.01737,1172.6382 C847.828446,1178.1836 847.90993,1184.18076 846.591373,1189.67721 C845.265408,1195.18873 842.409769,1200.47436 840.943059,1205.9294 C839.468942,1211.39951 839.498573,1217.50584 837.868895,1222.91571 C836.235514,1228.33687 828.413063,1231.84933 826.61301,1237.21026 C824.809253,1242.57118 822.761045,1247.86434 820.775802,1253.15751 C818.797966,1258.45067 816.627532,1263.69489 814.457098,1268.91276 C812.186661,1274.3678 812.53482,1280.7866 810.353274,1285.95553 C808.060614,1291.39552 800.204829,1294.2228 798.004764,1299.3729 C795.682474,1304.8016 792.086072,1309.47358 789.863785,1314.60486 C787.519272,1320.02602 792.449046,1328.53423 790.215647,1333.65798 C787.845207,1339.06785 776.31524,1340.13702 774.059618,1345.25325 C771.681771,1350.65558 772.300307,1357.23627 770.037278,1362.35626 C767.648319,1367.74354 774.759639,1377.30586 772.489202,1382.43338 C770.111354,1387.81313 768.014996,1393.14017 765.751967,1398.29027 C763.396343,1403.65873 751.147836,1404.42296 748.899621,1409.61448 C746.588443,1414.96411 752.981223,1424.03326 750.77375,1429.27371 C748.525536,1434.60076 746.399548,1439.84121 744.251337,1445.13814 C742.084607,1450.45765 729.339789,1451.42142 727.258247,1456.78987 C725.202631,1462.10562 725.947097,1468.62231 723.950742,1474.06982 C721.998833,1479.38557 724.587798,1486.44438 722.684038,1491.96342 C720.846948,1497.2867 712.042986,1500.34363 710.228118,1505.92667 C708.498438,1511.26501 707.650265,1517.11158 705.927992,1522.74357 C704.298315,1528.10073 700.046338,1532.89695 698.416661,1538.57411 C696.868467,1543.9501 700.157452,1550.94114 698.609259,1556.64465 C697.146253,1562.04699 700.183379,1568.83097 698.712966,1574.5646 C697.316628,1579.98199 686.431124,1583.11799 685.016268,1588.86291 C683.712526,1594.15231 684.564403,1600.20217 683.2014,1605.84545 C682.01618,1610.75085 686.605203,1617.22612 686.308898,1622.6134 C682.108775,1626.09575 678.108658,1627.88398 676.693802,1625.00775 C673.615934,1618.76212 680.601324,1594.69819 679.349435,1577.47847 C677.979025,1558.53829 673.015916,1555.25924 668.756532,1558.07147 C666.486095,1553.28654 663.541565,1548.05738 659.645154,1542.27481 C642.389093,1516.6937 626.577518,1535.90118 642.311313,1553.81736 C658.041403,1571.73355 658.667348,1582.77916 653.682016,1581.41258 C648.696685,1580.04223 639.766794,1566.70768 632.085087,1575.47189 C631.936935,1575.64507 631.881378,1575.8333 631.755448,1576.01777 C627.077533,1573.65354 622.351469,1576.17965 623.944108,1588.48268 C624.78117,1594.96172 626.710856,1601.34664 629.177595,1607.36639 C628.855363,1609.12827 628.503501,1610.9805 628.096082,1613.00214 C627.633105,1615.31366 626.681225,1618.08071 625.496005,1620.58423 C623.736695,1614.73013 621.481073,1608.54474 618.599507,1602.10334 C611.658563,1586.57021 605.528754,1589.1942 603.073126,1593.90384 C593.043202,1580.01964 588.657889,1590.56832 590.450534,1597.61206 C594.306202,1612.71226 609.132563,1627.59033 600.250821,1632.51455 C598.672997,1633.38796 595.324751,1631.48679 591.209815,1627.93292 C590.072745,1620.88164 587.213402,1618.94283 584.450358,1619.32306 C581.176188,1609.65532 559.027391,1573.22813 548.130775,1581.24693 C540.271286,1587.0295 557.668092,1602.77346 565.812775,1614.68119 C565.805367,1615.04637 565.823886,1615.43037 565.909074,1615.85578 C558.294036,1613.67602 558.0644,1620.5767 560.834851,1626.59269 C551.345684,1623.65622 536.430432,1614.9899 527.382019,1616.60119 C517.296538,1603.40216 502.651665,1588.8215 495.355155,1595.27419 C484.436316,1604.93439 528.011667,1630.57197 521.574442,1641.00394 C519.411415,1644.5164 511.200063,1641.85853 501.922014,1638.89948 C500.877539,1638.39124 499.933067,1638.0976 499.092301,1637.99595 C488.769777,1634.75455 477.76575,1631.84067 472.573006,1636.91925 C463.25051,1646.03357 482.569595,1651.92156 499.777506,1655.8406 C507.059201,1664.17187 512.92604,1672.04762 515.940943,1677.65325 C509.470383,1676.43725 507.703665,1680.71395 508.62221,1686.05981 C498.996002,1682.009 485.57709,1667.49987 470.676654,1659.67683 C460.483762,1654.3272 443.009176,1655.51308 466.898765,1676.73843 C479.773217,1688.17557 502.966489,1697.93366 506.070283,1703.94588 C507.377729,1706.47952 504.307269,1708.17363 499.740468,1709.09975 C491.240219,1706.5134 478.136132,1697.7379 471.687794,1691.25886 C464.528325,1684.06829 425.127171,1660.1173 418.667722,1673.28244 C412.208274,1686.45134 462.117144,1693.20897 460.094862,1705.35388 C460.050416,1705.60988 459.968933,1705.85082 459.86893,1706.08046 C454.109502,1705.09411 450.068642,1704.30353 447.201892,1703.82917 C443.679566,1703.24941 437.471977,1706.7807 438.638678,1711.26445 C427.742062,1712.28092 416.208391,1713.81691 413.274972,1720.61219 C409.145221,1730.20839 421.034458,1730.84839 434.820047,1729.16557 C439.827602,1733.22015 447.664868,1739.54484 459.624478,1750.52645 C466.591349,1756.91514 475.295308,1770.10663 469.706255,1771.95886 C463.176434,1774.13109 440.798,1763.5523 423.849356,1762.26477 C408.315567,1761.08266 403.0043,1764.01159 402.889482,1767.74241 L402.889482,1767.9984 C403.008004,1771.77063 408.222972,1776.27321 413.486089,1778.17061 C434.760786,1785.85435 463.717191,1781.81107 463.302364,1794.98374 C463.165323,1799.3809 446.77225,1802.79548 427.019819,1803.81948 C415.082432,1804.44065 405.471039,1819.21332 426.371652,1819.59355 C429.038397,1819.63873 431.716253,1819.49191 434.382998,1819.1945 C418.075112,1829.56623 431.445874,1836.10927 436.168235,1834.26081 C439.86464,1832.80763 445.753701,1830.19494 455.713252,1826.48671 C453.094657,1830.50364 450.43532,1835.16433 447.779686,1840.67208 C438.109033,1860.71155 447.93895,1868.61365 457.050329,1863.0419 C448.246367,1880.28421 461.776393,1878.11198 468.743264,1871.91905 C476.413859,1865.10872 482.680709,1855.50875 488.280873,1848.27677 C488.747554,1848.44994 489.214234,1848.62312 489.762398,1848.74359 C494.447721,1849.77888 497.336694,1844.91113 499.566389,1838.37185 C501.107175,1838.01797 502.640553,1838.1648 504.181339,1839.10973 C506.988829,1840.83396 504.266527,1851.28852 498.69229,1864.17507 C486.677123,1867.36377 452.105739,1883.16796 457.976282,1894.68416 C462.491229,1903.53496 480.743615,1887.92277 493.555102,1881.6282 C494.57365,1887.75336 499.484905,1891.16794 505.611011,1882.11761 C505.944354,1884.19196 504.766542,1887.23383 502.873894,1890.81406 C499.329345,1892.28982 495.832946,1893.96887 492.56248,1896.05828 C479.758401,1904.26531 484.747436,1910.13447 492.206914,1909.95 C489.529058,1915.72881 488.125313,1921.16503 490.351304,1925.0502 C497.010759,1936.64922 507.733295,1916.0074 515.229811,1900.10909 C524.093034,1896.31051 530.611743,1894.76699 531.793259,1896.95428 C537.230456,1907.03237 512.377876,1918.25492 498.244128,1934.81205 C491.180958,1943.09062 488.380876,1959.57622 512.744553,1942.09297 C525.863456,1932.6737 539.767567,1913.30435 545.860338,1911.75706 C551.071602,1910.43189 549.178954,1925.05773 546.05664,1933.5057 C539.278664,1951.82094 534.874831,1961.17998 532.715509,1966.38279 C530.55989,1971.58559 536.893409,1986.29802 549.038209,1964.27832 C561.18301,1942.25862 566.738728,1922.52785 564.45718,1912.40082 C562.579347,1904.02814 563.868273,1896.82251 565.986854,1891.08512 C569.042499,1886.98913 571.50183,1883.13784 573.20188,1880.37456 C578.479813,1871.80611 589.972742,1872.84893 589.972742,1872.84893 C603.658328,1868.49694 616.184621,1843.82313 629.4739,1833.49657 C631.110985,1832.22787 632.755477,1831.18881 634.392562,1830.33423 C633.640688,1832.57799 632.914741,1834.83304 632.429542,1837.1295 C631.255433,1842.6749 633.044375,1848.83771 631.888785,1854.33793 C630.725788,1859.88709 623.85892,1864.1826 622.714442,1869.67153 C621.562557,1875.23198 632.851776,1883.41267 631.722114,1888.89406 C630.573932,1894.46958 630.155401,1900.13544 629.040554,1905.60931 C627.903483,1911.19612 615.37719,1914.33964 614.277158,1919.81351 C613.147495,1925.41161 611.477076,1930.8403 610.391859,1936.29534 C609.277012,1941.92356 608.295501,1947.51037 607.228803,1952.96165 C606.125067,1958.60116 603.484249,1963.85668 602.443478,1969.2816 C601.354557,1974.95123 611.251143,1982.65003 610.236299,1988.0599 C609.162193,1993.76341 608.421431,1999.34646 607.439921,2004.73374 C606.384334,2010.48243 599.173012,2014.87206 598.232243,2020.22169 C597.206287,2026.03815 597.061839,2031.75295 596.176628,2037.03482 C595.180302,2042.96422 590.313493,2047.92232 589.513469,2053.11007 C588.568997,2059.24276 588.098613,2064.99145 587.446742,2069.97214 C586.868947,2074.37307 591.746868,2080.7354 590.828323,2087.38386 C590.143117,2092.35702 581.331748,2096.75795 580.476168,2102.86052 C579.746517,2108.03321 592.357997,2115.54001 591.524639,2121.44305 C590.780173,2126.71363 590.561648,2132.36067 589.731994,2138.16583 C588.976417,2143.50417 583.420698,2148.36063 582.602156,2154.10555 C581.831763,2159.48153 574.050053,2164.00293 573.231511,2169.71021 C572.45371,2175.11631 575.379722,2181.21889 574.568587,2186.89605 C573.783379,2192.32474 570.764772,2197.5426 569.949933,2203.19718 C569.168429,2208.64469 571.59813,2214.67197 570.783291,2220.30772 C569.994379,2225.77029 573.246326,2231.91804 572.435191,2237.54249 C571.646279,2243.02012 569.483253,2248.36599 568.679526,2253.97539 C567.883206,2259.46431 557.482901,2263.57912 556.67547,2269.18099 C555.87915,2274.67744 556.516206,2280.43743 555.708775,2286.028 C554.916159,2291.53575 554.023541,2297.06985 553.216109,2302.6529 C552.416086,2308.16817 556.8014,2314.4891 555.993969,2320.06461 C555.197649,2325.58742 558.627379,2331.76528 557.823652,2337.33327 C557.023628,2342.86361 548.860426,2347.31724 548.056699,2352.87393 C547.256676,2358.40427 553.890203,2365.05648 553.093884,2370.60941 C552.29386,2376.15481 551.045676,2381.6362 550.245652,2387.1816 C549.445629,2392.74205 538.452714,2396.77781 537.656394,2402.3232 C536.856371,2407.88366 549.412294,2415.42058 548.615975,2420.95468 C547.815951,2426.5189 545.452919,2431.83841 544.656599,2437.36875 C543.86028,2442.9405 534.900758,2447.28496 534.108142,2452.80777 C533.304415,2458.39081 532.548837,2463.9475 531.759925,2469.46278 C530.956198,2475.05335 531.708072,2480.83969 530.915456,2486.34744 C530.115433,2491.94554 536.337837,2498.53375 535.548925,2504.03397 C534.748902,2509.64713 525.078248,2513.88995 524.296744,2519.37511 C523.500424,2524.99956 523.918955,2530.72566 523.141154,2536.19953 C522.341131,2541.83528 525.078248,2547.89644 524.307855,2553.35148 C523.507832,2559.00605 523.018928,2564.60039 522.252239,2570.04038 C521.459623,2575.71754 514.574236,2580.38952 513.814955,2585.81068 C513.014931,2591.50667 516.829858,2597.72594 516.07428,2603.12075 C515.277961,2608.85438 507.333283,2613.38708 506.592521,2618.74424 C505.796201,2624.52681 518.952142,2632.05244 518.233603,2637.35313 C517.433579,2643.22229 503.229459,2646.90039 502.533143,2652.1145 C501.725712,2658.13424 504.622093,2664.21423 503.962814,2669.28151 C503.136864,2675.6589 497.844117,2680.70359 497.277433,2685.40946 C496.199624,2694.35814 503.38502,2701.03295 503.38502,2702.99812 L1313.87914,2702.99812 L1313.87914,0.970923867 C1311.57167,5.66173415 1305.4863,9.23819464 1302.26028,14.4560623 Z M643.652093,1604.32828 C643.896545,1602.14099 644.06692,1599.87841 644.170627,1597.54053 C648.75965,1602.05817 653.033849,1606.33486 654.185735,1609.64026 C655.493181,1613.36731 655.685779,1617.32777 655.100577,1621.49152 C654.552412,1621.70235 653.993137,1621.89435 653.348673,1621.96964 C653.278301,1621.98093 653.211632,1621.9847 653.144964,1621.9847 C650.270805,1621.9847 646.79663,1614.8619 643.652093,1604.32828 Z M629.118334,1637.17148 C630.244293,1635.56396 631.603592,1633.95643 633.318457,1632.36773 C635.174067,1630.6435 636.837078,1628.11362 638.311196,1625.04916 C641.877967,1630.84679 645.389181,1635.70325 647.944811,1639.11406 C648.21519,1639.47171 648.426307,1639.85194 648.663351,1640.22088 C647.278125,1643.07452 645.722524,1646.00346 644.089143,1649.00015 C641.677961,1640.67265 638.044521,1634.54749 632.818442,1635.32301 C631.085058,1635.58278 629.944284,1636.52772 629.229448,1637.96583 C629.203521,1637.70983 629.14426,1637.43124 629.118334,1637.17148 Z M560.812628,1656.79307 C560.494101,1656.60107 560.15335,1656.46178 559.820007,1656.29613 C557.479197,1650.80721 554.81986,1644.56158 551.490133,1639.65994 C558.534784,1641.85853 564.634963,1643.60158 566.912807,1644.73475 C567.257262,1644.90793 567.594309,1645.09993 567.938763,1645.2731 C565.142385,1648.05521 563.838643,1653.03591 564.757188,1655.87072 C565.120162,1656.99637 565.575731,1658.33283 566.072042,1659.78224 C564.346065,1658.83354 562.590458,1657.83966 560.812628,1656.79307 Z M609.106636,1654.00343 C606.213959,1653.22038 601.973094,1648.37521 596.99517,1642.50229 C598.713739,1643.32299 600.332305,1644.07217 601.654566,1644.65946 C606.228774,1646.68863 608.680698,1650.64156 609.988143,1654.08626 C609.917771,1654.09002 609.843695,1654.09379 609.769619,1654.09379 C609.558501,1654.09379 609.336273,1654.06743 609.106636,1654.00343 Z M666.482392,1669.61186 C666.182383,1665.13564 671.082526,1651.39826 685.77555,1643.19876 C684.419954,1647.94227 682.308781,1652.56908 681.156896,1657.52342 C679.901303,1662.93329 679.623517,1668.64433 678.341998,1674.21608 C677.093814,1679.63724 671.815881,1684.1737 670.549177,1689.73039 C670.167685,1691.40568 669.852861,1693.09979 669.552852,1694.8052 C668.112069,1685.43111 666.93796,1676.40337 666.482392,1669.61186 Z M626.451589,1661.18647 C626.777524,1658.80718 627.329392,1656.32625 628.251642,1653.71732 C628.570169,1652.82885 628.762768,1651.77097 628.970181,1650.73191 C629.825762,1656.04013 631.277656,1662.02223 632.325835,1667.51116 C630.418372,1664.84952 628.44424,1662.6547 626.451589,1661.18647 Z M648.822615,1707.60516 C648.615201,1705.71905 647.896662,1702.66588 646.781814,1698.99154 C646.763295,1694.38355 647.048489,1689.94874 647.629987,1686.54922 C648.355934,1682.27629 648.148521,1671.03868 646.478102,1660.17 L650.911565,1662.68858 C650.422662,1664.67258 649.970797,1665.91869 649.970797,1665.91869 C646.770703,1674.45326 652.281975,1701.72847 656.719142,1721.12042 C656.715439,1721.15054 656.693216,1721.17313 656.685808,1721.20324 C655.956157,1724.4597 656.226535,1727.9684 656.304316,1731.44321 C649.670788,1717.69078 649.755975,1716.04185 648.822615,1707.60516 Z M528.59687,1663.94976 C537.171195,1667.98551 544.68623,1672.68762 548.571529,1676.07961 C548.538195,1676.10972 548.515972,1676.13984 548.478934,1676.16243 C548.152998,1676.38455 547.734467,1676.49372 547.234453,1676.49372 C543.786204,1676.49372 536.489693,1671.34362 528.59687,1663.94976 Z M575.046379,1727.53923 C566.997995,1725.47994 550.812335,1700.02683 534.304444,1687.62593 C533.704427,1687.17416 533.13404,1686.76758 532.559949,1686.35346 C531.911781,1684.39205 531.156204,1682.26876 530.308031,1680.01371 C538.097148,1684.30546 546.012195,1687.17416 550.986415,1688.86075 C548.930799,1691.46215 550.675294,1696.71014 553.708717,1699.85742 C562.045998,1708.50493 575.676027,1713.8922 580.272458,1719.80278 C579.787258,1724.36935 578.442775,1727.6484 575.894552,1727.6484 C575.627877,1727.6484 575.342684,1727.61452 575.046379,1727.53923 Z M612.214135,1703.06494 C612.373399,1699.32283 611.877088,1694.98214 610.680756,1690.17086 C615.284595,1694.77132 619.188413,1698.56237 620.547712,1700.44095 C623.244087,1704.14541 625.692307,1708.07199 627.810888,1711.84421 C624.01448,1711.20045 618.362463,1707.25881 612.214135,1703.06494 Z M576.305675,1697.93743 C576.016778,1696.0212 575.687138,1693.42732 575.857514,1690.37792 C576.646426,1693.08097 577.461264,1695.95343 578.313141,1699.02542 C578.387217,1699.28519 578.446478,1699.56001 578.516851,1699.83107 C577.790904,1699.19107 577.050141,1698.56237 576.305675,1697.93743 Z M513.889031,1733.67568 C510.648195,1731.4018 507.277726,1729.27475 503.959111,1727.86675 C502.629442,1727.30581 501.410888,1726.83899 500.26641,1726.45876 L500.288633,1726.29688 C504.244304,1725.81123 507.559216,1724.93406 510.074105,1723.65782 C516.452069,1720.42772 522.585582,1719.46772 528.030186,1719.59948 C529.09318,1721.89971 530.237658,1724.43712 531.496955,1727.34723 C533.563682,1732.13968 534.952611,1740.11707 533.308119,1743.29071 C527.474614,1740.82107 520.822568,1737.5232 513.889031,1733.67568 Z M457.554047,1725.26158 C461.668982,1724.471 464.972783,1723.87241 466.828393,1723.76324 C474.806404,1725.431 482.169583,1726.38346 488.640143,1726.65452 C486.895648,1729.00369 488.503102,1733.26909 491.206885,1736.08132 C491.080955,1739.19472 493.606955,1743.24177 500.581234,1747.88364 C504.899879,1750.75987 509.57409,1753.13539 514.377934,1755.13444 C508.329609,1755.22479 503.588729,1756.59891 501.836826,1760.02855 C499.007114,1759.48643 495.99221,1758.79749 492.89212,1757.97302 C490.814281,1757.42338 488.551252,1757.56267 486.554897,1758.1462 C483.447398,1748.82481 473.013759,1736.8079 457.554047,1725.26158 Z M640.103841,1756.38432 C636.822263,1754.99891 626.092319,1749.21258 624.4219,1732.8738 C624.292266,1731.60133 623.973738,1730.24228 623.529281,1728.83804 C624.229302,1729.27475 624.8108,1729.66251 625.233035,1729.99004 C636.029647,1738.36649 645.185471,1749.28787 648.233709,1754.27986 C649.811533,1756.86997 648.359638,1757.67938 646.174389,1757.67938 C644.170627,1757.67938 641.552031,1756.99797 640.103841,1756.38432 Z M546.05664,1747.62387 C545.975157,1745.34623 546.167755,1742.84648 546.756661,1740.09448 C547.145561,1738.28743 547.182599,1736.18297 547.00852,1733.90532 C549.01969,1734.74862 551.119752,1735.43003 553.282778,1735.9872 C555.64581,1739.79707 556.23842,1743.40365 553.919834,1746.88599 C553.338335,1747.76693 552.104966,1748.17352 550.349359,1748.17352 C549.149324,1748.17352 547.704837,1747.98152 546.05664,1747.62387 Z M597.824824,1740.33542 C597.843343,1739.9439 597.828528,1739.56743 597.858158,1739.16837 C599.098935,1739.84225 600.221191,1740.61778 601.195293,1741.41966 C600.121188,1741.08836 598.991525,1740.72319 597.824824,1740.33542 Z M611.91783,1740.90013 C611.732639,1741.7886 611.262255,1742.44742 610.425193,1742.74483 C610.225187,1742.81636 609.980736,1742.84648 609.747396,1742.88789 L611.91783,1740.90013 Z M599.665619,1755.31891 C602.461997,1756.64032 604.054636,1758.56031 603.624994,1761.72642 C603.550918,1762.25348 603.195352,1762.76924 602.63978,1763.26242 C601.573082,1760.94713 600.524903,1758.28926 599.665619,1755.31891 Z M601.943463,1776.19038 L606.50656,1772.70804 C609.751099,1771.04781 612.58822,1769.44405 614.743838,1768.18287 C623.910774,1762.81065 634.19626,1769.62475 634.19626,1769.62475 C640.700155,1772.22616 627.810888,1775.57297 621.295882,1773.76592 C621.295882,1773.76592 614.403088,1776.57438 606.665824,1776.57438 C605.110223,1776.57438 603.521287,1776.46144 601.943463,1776.19038 Z M511.600075,1788.81717 C508.274052,1786.60729 497.221876,1782.14613 490.729093,1769.88075 C498.199682,1771.77063 506.473999,1771.72545 513.748286,1770.97628 C527.789438,1773.97298 548.58264,1774.27415 549.245623,1782.14989 C549.293772,1782.73342 549.167843,1783.28307 548.904872,1783.81765 C533.471086,1783.79507 521.807782,1786.11788 511.263028,1789.71693 L511.600075,1788.81717 Z M567.509121,1848.89794 C567.857279,1845.80336 568.068397,1842.74643 568.116546,1839.76103 C583.120689,1830.68058 593.36173,1821.15967 596.517378,1813.5211 C603.93241,1795.58609 620.110662,1789.58517 625.04414,1789.00164 C644.248407,1786.70518 603.66944,1847.5163 588.71715,1853.99534 C587.365258,1854.58263 584.417024,1855.73086 580.820622,1855.73086 C576.75754,1855.73086 571.872212,1854.27016 567.509121,1848.89794 Z M566.54613,1816.94697 C565.675734,1810.78793 568.527669,1805.17101 571.327751,1801.29713 C575.605654,1800.68725 578.998346,1800.49902 580.831734,1801.2369 C586.146704,1803.37525 575.587135,1814.82745 567.73135,1820.16579 C567.483194,1820.33143 567.275781,1820.47073 567.035033,1820.63261 C566.872065,1819.30367 566.705394,1818.03873 566.54613,1816.94697 Z M479.180607,1802.93854 C481.236222,1801.79784 483.388137,1801.13902 485.543756,1800.79643 C485.069668,1801.02231 484.602988,1801.24066 484.121492,1801.46655 C482.873307,1802.05384 481.55475,1802.68254 480.18434,1803.39783 C479.554692,1803.40536 478.92134,1803.40913 478.262061,1803.45054 C478.569478,1803.28113 478.899117,1803.10419 479.180607,1802.93854 Z M517.518767,1829.81094 C517.574324,1823.65189 520.944793,1818.50179 524.274521,1814.90274 C531.226576,1812.39922 539.371259,1811.27734 539.19718,1815.33568 C539.063843,1818.37003 535.115579,1823.74601 530.456183,1830.05564 C530.315438,1830.02929 530.189509,1829.99541 530.052468,1829.97282 C512.507509,1827.11541 518.248418,1839.99067 522.100383,1841.20667 C522.218905,1841.24432 522.370761,1841.28573 522.492987,1841.32337 C520.648488,1844.17325 518.966958,1847.04948 517.685439,1849.8617 C516.652075,1852.12429 515.900201,1854.06687 515.270553,1855.87392 C517.18172,1845.5436 517.470618,1835.81939 517.518767,1829.81094 Z M482.73997,1825.05613 C481.128812,1828.11306 481.776979,1830.31164 483.365914,1831.69705 C478.76578,1836.60621 472.187809,1842.63725 466.683944,1848.94312 C472.754492,1831.53893 479.658398,1824.48389 482.73997,1825.05613 Z M544.830679,1833.59822 C548.11596,1828.65517 551.423464,1825.82412 555.46062,1827.51824 C555.668033,1827.60482 555.84952,1827.74035 556.012488,1827.92106 C552.21608,1830.36811 549.012283,1832.36716 546.227016,1834.07257 C545.775151,1833.90692 545.297359,1833.75257 544.830679,1833.59822 Z M548.393746,1850.00853 C549.601189,1850.58076 550.841966,1851.26217 552.042001,1852.02264 C546.482579,1853.92004 538.900875,1855.87392 531.141389,1857.64709 C532.408092,1855.72333 533.597016,1853.7431 534.734086,1851.73652 C535.615594,1852.24476 536.800814,1852.54217 538.334192,1852.54217 C540.749077,1852.54217 544.038063,1851.80805 548.393746,1850.00853 Z M554.879121,1876.45928 C551.353092,1879.61033 546.730734,1882.53926 541.478728,1882.84796 C538.589755,1883.01737 534.745198,1883.31855 530.430257,1883.8569 C539.656453,1881.73738 548.841907,1876.90351 554.879121,1876.45928 Z M522.978186,1884.65125 C523.470793,1884.70396 523.9634,1884.73784 524.4486,1884.7416 C523.848582,1884.83949 523.226342,1884.96372 522.611509,1885.08043 C522.711512,1884.93737 522.870776,1884.79055 522.978186,1884.65125 Z" id="Fill-1" fill="url(#linearGradient-2)"></path>
        </g>
    </g>
</svg>