<?xml version="1.0" encoding="UTF-8"?>
<svg width="1461px" height="3154px" viewBox="0 0 1461 3154" version="1.1" xmlns="http://www.w3.org/2000/svg" xmlns:xlink="http://www.w3.org/1999/xlink">
    <!-- Generator: Sketch 48.2 (47327) - http://www.bohemiancoding.com/sketch -->
    <title>Group</title>
    <desc>Created with Sketch.</desc>
    <defs>
        <linearGradient x1="50%" y1="0%" x2="50%" y2="100%" id="linearGradient-1">
            <stop stop-color="#0B3A4C" offset="0%"></stop>
            <stop stop-color="#000000" offset="100%"></stop>
        </linearGradient>
        <linearGradient x1="50%" y1="0%" x2="50%" y2="100%" id="linearGradient-2">
            <stop stop-color="#082B38" offset="0%"></stop>
            <stop stop-color="#000000" offset="100%"></stop>
        </linearGradient>
    </defs>
    <g id="Artboard-4" stroke="none" stroke-width="1" fill="none" fill-rule="evenodd" transform="translate(0.000000, -8082.000000)">
        <g id="Group" transform="translate(0.000000, 8082.000000)">
            <path d="M478.082578,769.472048 C472.311432,769.957709 467.944079,774.939074 468.291685,780.749182 C468.48777,784.073063 467.164194,789.036606 465.305841,794.677401 C458.491879,801.886568 450.274124,810.96709 448.184034,829.159321 C446.882741,840.409722 448.665334,848.786258 451.388245,855.576598 C451.406071,856.32514 451.365962,857.060315 451.410527,857.813312 C452.110195,870.289003 457.631777,882.412702 463.278141,894.171042 C461.629243,903.452065 457.56493,907.840835 452.070087,913.646487 C448.019144,917.919412 443.402227,922.825032 439.828128,929.896076 C439.689977,928.724252 439.565196,927.547972 439.346828,926.380604 C442.377236,919.821955 444.676781,913.093992 445.011018,906.161072 C446.232094,880.706206 432.929492,862.51843 424.127939,850.483843 C422.140347,847.77038 420.429058,845.431188 419.181243,843.426166 C416.623221,839.344832 411.39131,837.985873 407.175477,840.155752 C411.0749,831.939618 417.634843,824.507671 424.078917,817.267314 C430.817119,809.692787 437.180977,802.537087 440.242581,794.476899 C442.452996,788.65788 439.511718,782.161609 433.70492,779.929351 C427.880297,777.719371 421.364919,780.646703 419.154504,786.465722 C417.567996,790.65399 412.541083,796.299241 407.220042,802.283117 C400.535318,809.799721 392.763212,818.559439 387.437714,829.15041 C387.344128,827.942941 387.250542,826.739928 387.1525,825.541371 C386.002727,810.757676 384.915345,796.802724 377.339324,786.831082 C373.769681,782.143786 367.049305,781.208109 362.338803,784.777048 C357.632757,788.354899 356.710265,795.069494 360.28882,799.779068 C360.881533,800.558798 361.380659,801.534576 361.839676,802.590554 C358.252208,802.45243 354.655826,804.029714 352.351824,807.139726 C351.910632,807.732321 350.711839,809.046724 349.557609,810.312116 C342.284629,818.287647 326.499767,835.615492 324.694891,862.050591 C324.525545,861.382251 324.365111,860.704999 324.200221,860.032203 C321.682309,849.516977 318.825703,837.598236 301.882155,823.576449 C297.140457,819.597595 289.978889,820.274847 286.008163,825.069077 C282.028523,829.872218 282.701452,836.978907 287.501084,840.94885 C287.817495,841.211731 288.098253,841.4657 288.401294,841.719669 C287.505541,841.715214 286.600875,841.790959 285.691752,842.022651 C279.974085,843.510822 276.529223,849.307563 278.008776,855.024103 C278.258339,856.347418 277.968667,860.638165 277.73693,864.091258 C276.845634,877.400148 275.343799,899.678168 287.416411,920.668519 C287.982385,921.662119 288.633031,922.588885 289.288134,923.51565 C282.024067,921.29676 275.606731,918.369428 267.865821,909.676544 C258.467098,899.107851 257.281674,891.488768 255.793208,881.851296 C254.064093,870.676641 252.10324,858.018269 238.27923,842.486033 C234.130245,837.81656 227.013241,837.420011 222.356217,841.554812 C217.703648,845.694068 217.289196,852.818579 221.424812,857.474686 C230.823534,868.043379 232.008959,875.658006 233.497424,885.295478 C234.397634,891.110042 235.373603,897.325609 238.034124,904.133772 C233.497424,902.044094 228.867138,900.06135 224.250222,898.305842 C223.216318,895.957739 222.240348,893.614091 221.286661,891.323911 C218.675162,885.059331 216.210727,879.137833 213.033254,874.432715 C209.722088,869.540462 203.073015,868.243881 198.17534,871.549939 C193.268752,874.860453 191.980829,881.51267 195.287539,886.413835 C196.152097,887.692593 197.034481,889.408001 197.939147,891.319455 C191.815939,890.633292 186.227509,890.891717 181.548202,892.491279 C175.656732,894.518579 172.523824,900.930193 174.542611,906.816046 C176.565854,912.715266 182.98319,915.847556 188.870204,913.820256 C192.069959,912.728633 199.213701,913.610842 209.50372,916.970368 C215.127801,927.485594 222.99795,938.205777 235.485015,945.807038 C246.225139,952.361232 259.728283,953.238986 272.790234,954.094462 C275.366081,954.259319 277.955298,954.433088 280.526689,954.646957 C296.828503,965.879535 312.880755,978.640385 326.731504,991.820062 C327.689648,997.844039 328.937463,1004.31803 332.1595,1011.43363 C325.586188,1008.51967 319.102005,1005.71709 312.800538,1003.02591 C305.202235,992.17651 297.626214,980.618673 290.143779,968.09397 L290.02791,967.893468 C286.832612,962.551198 279.974085,960.893714 274.621849,964.092838 C269.269613,967.28305 267.585062,974.305082 270.775904,979.651807 C272.264369,982.14249 273.761747,984.517327 275.254669,986.945631 C269.305265,984.303458 264.019876,981.839509 259.679261,979.589429 C254.148766,976.724475 247.33926,978.885443 244.478198,984.410392 C241.608223,989.944253 243.7919,996.756872 249.300113,999.612914 C259.750565,1005.02647 274.269787,1011.17521 291.07964,1018.29972 C293.34799,1019.26213 295.687644,1020.25573 298.062949,1021.26269 C302.550627,1027.51391 307.047219,1033.56016 311.53044,1039.29452 C308.892203,1038.16726 306.262878,1037.07563 303.673661,1036.04639 C298.949789,1034.17058 293.60201,1036.48304 291.72583,1041.21043 C290.157148,1045.17147 291.529745,1049.56915 294.796347,1051.993 C295.424711,1052.46083 296.128835,1052.85293 296.89535,1053.15591 C311.182835,1058.81898 326.58444,1066.29994 341.812242,1074.47597 C345.947858,1078.84692 350.043366,1082.99063 354.094309,1086.96503 C348.514792,1091.57658 341.562679,1099.63232 338.318359,1098.34465 C333.594488,1096.47329 333.598944,1082.60745 328.861703,1080.74501 C326.490854,1079.81379 322.720669,1082.47824 318.946028,1085.14715 C315.171387,1087.80714 311.401202,1090.47159 309.03481,1089.54483 C304.293112,1087.69575 304.609522,1072.89424 299.876738,1071.05853 C295.130583,1069.21836 293.860486,1058.36897 289.132157,1056.54662 C284.386003,1054.71983 280.205822,1051.36921 275.48195,1049.55578 C273.093275,1048.64684 268.610053,1053.24057 264.135744,1057.82984 C259.656979,1062.41465 255.187127,1066.99947 252.825191,1066.09944 C248.052297,1064.28155 243.114514,1063.02953 238.381729,1061.23392 C233.599923,1059.42494 234.094593,1043.75013 229.361808,1041.96789 C226.959764,1041.0634 223.982833,1041.73174 221.010359,1042.39117 C218.051254,1043.0506 215.105519,1043.70557 212.752496,1042.81891 C210.341539,1041.92333 207.529498,1042.13274 204.72637,1042.34216 C201.945525,1042.55157 199.173592,1042.76544 196.825026,1041.88323 C192.016481,1040.08762 187.617932,1037.34297 182.898517,1035.59192 C178.081059,1033.80076 175.375973,1026.48021 170.656558,1024.73361 C168.236688,1023.84249 164.738349,1025.92326 161.253379,1028.00402 C157.790692,1030.07588 154.341374,1032.14774 151.992807,1031.28335 C147.14861,1029.50111 144.532655,1021.91767 139.835522,1020.19335 C134.977956,1018.41556 131.296901,1013.67926 126.608681,1011.9683 C121.737745,1010.18606 117.735823,1006.31414 113.056516,1004.60765 C108.163298,1002.82986 103.229971,1001.511 98.5684898,999.826783 C93.6485327,998.048997 92.1868062,987.101577 87.5476075,985.430726 C85.06089,984.539605 80.9653822,988.251123 76.9233522,991.967097 C72.908061,995.656337 68.9417912,999.345578 66.6467025,998.521291 C61.6554416,996.730138 56.9003743,994.970174 52.3413922,993.339423 C47.2699146,991.530448 47.8938222,974.608063 43.4016874,973.017413 C40.7634495,972.07728 37.2027196,974.051113 33.7756843,976.024945 C30.4377785,977.945311 27.2157414,979.865676 25.0721731,979.103768 C19.5416777,977.152213 19.1717896,962.845268 15.1431291,961.428386 C5.85581859,958.166884 7.19721996,961.000648 0,958.501054 L0,3154 L1443.78015,3154 C1441.63658,3147.13391 1460.9287,3146.34973 1461,3138.56133 L1461,3138.49004 C1460.99554,3137.98656 1460.91087,3137.45189 1460.73707,3136.88602 C1459.46251,3132.74231 1455.31798,3128.63425 1453.59778,3123.00236 C1452.22519,3118.52002 1451.86421,3113.26241 1450.25096,3107.95579 C1448.84271,3103.33087 1446.87741,3098.56337 1445.31318,3093.38596 C1443.88711,3088.68084 1445.22851,3082.9242 1443.69102,3077.80917 C1442.26049,3073.05504 1418.31135,3074.86847 1416.8006,3069.8069 C1415.36116,3065.00822 1432.5097,3054.53309 1431.01233,3049.50272 C1429.57734,3044.67284 1409.79947,3045.16741 1408.32437,3040.15486 C1406.89384,3035.30716 1422.64751,3025.30879 1421.18132,3020.31405 C1419.75079,3015.44853 1419.21156,3010.27112 1417.7632,3005.29421 C1416.33713,3000.41087 1398.22598,3000.31285 1396.79099,2995.34485 C1395.36938,2990.44368 1405.90004,2982.05378 1404.47397,2977.09469 C1403.06127,2972.17125 1410.38772,2964.75267 1408.98393,2959.80249 C1407.58014,2954.87014 1385.21751,2955.85037 1383.83154,2950.90911 C1382.43666,2945.9723 1394.66079,2937.20367 1393.2882,2932.27577 C1391.90669,2927.32559 1381.79493,2924.79927 1380.4357,2919.88028 C1379.07202,2914.90337 1372.50762,2911.3478 1371.17513,2906.43772 C1369.82036,2901.44299 1383.0784,2892.55406 1381.77265,2887.64844 C1380.4357,2882.6448 1370.45318,2879.96698 1369.17417,2875.07918 C1367.85951,2870.04435 1368.97363,2864.44365 1367.73027,2859.56031 C1366.43343,2854.49429 1378.43474,2846.21132 1377.22703,2841.35026 C1375.96139,2836.24413 1372.05306,2831.99794 1370.89437,2827.1547 C1369.66438,2821.99957 1353.47844,2820.50694 1352.39105,2815.69043 C1351.20563,2810.45955 1349.62358,2805.42918 1348.62087,2800.65722 C1347.49784,2795.31495 1365.19899,2786.61762 1364.33443,2781.92586 C1363.30052,2776.36527 1363.09998,2771.70916 1362.47162,2767.17781 C1361.61597,2760.98898 1346.70013,2757.43786 1346.70013,2753.48574 C1346.70013,2748.53557 1360.25229,2743.17993 1360.12751,2737.94014 C1360.00273,2732.98996 1342.2481,2728.57446 1341.93169,2723.33913 C1341.62865,2718.38895 1335.29599,2714.21405 1334.74784,2708.98317 C1334.2398,2704.05527 1340.45659,2698.5526 1339.67671,2693.35291 C1338.93693,2688.45174 1342.83635,2682.76194 1341.80691,2677.6068 C1340.83985,2672.74128 1334.50273,2669.10997 1333.23709,2664.0083 C1332.0383,2659.19179 1348.91945,2649.16223 1347.42208,2644.12739 C1346.01383,2639.36881 1345.17155,2633.70574 1343.46472,2628.74219 C1341.84702,2624.04153 1339.89062,2618.75273 1337.9877,2613.86493 C1336.18283,2609.22665 1318.86493,2610.61234 1316.7793,2605.79583 C1314.80953,2601.22884 1313.23639,2596.43906 1310.99478,2591.70276 C1308.86013,2587.19814 1317.57255,2577.09283 1315.17942,2572.43672 C1312.90216,2567.99449 1305.34396,2565.99838 1302.81714,2561.41356 C1300.41064,2557.04261 1305.18799,2548.20715 1302.54529,2543.69362 C1301.29302,2541.55493 1295.04949,2542.37922 1288.75248,2543.2035 C1282.39308,2544.03225 1275.96683,2544.86545 1274.58532,2542.63319 C1271.95154,2538.38254 1273.1325,2531.81944 1270.28481,2527.44849 C1267.54853,2523.25131 1265.70355,2518.48827 1262.76673,2514.1797 C1259.94132,2510.0449 1262.05369,2502.40354 1259.03219,2498.15289 C1256.13102,2494.07156 1256.64797,2487.32132 1253.55518,2483.13751 C1250.49357,2478.99825 1245.60481,2476.44964 1242.77049,2472.6401 C1239.6866,2468.5053 1230.98309,2468.85729 1228.14877,2465.0834 C1225.03368,2460.93077 1219.95775,2458.60495 1217.12343,2454.86224 C1213.98161,2450.70071 1208.60709,2448.61103 1205.79059,2444.89951 C1202.60421,2440.70679 1203.59354,2433.77387 1200.79933,2430.08463 C1197.59066,2425.86071 1202.06943,2416.32572 1199.32869,2412.66767 C1196.11111,2408.38138 1199.32423,2400.0895 1196.66817,2396.42699 C1195.04155,2394.18582 1189.21693,2395.0413 1183.59731,2395.90123 C1178.26735,2396.71661 1173.12011,2397.52753 1171.90349,2395.69627 C1168.94885,2391.24513 1172.8661,2382.79284 1170.64231,2378.7427 C1168.20016,2374.30492 1157.41993,2373.44944 1155.55712,2368.87799 C1153.78789,2364.52041 1165.22323,2355.0879 1163.71694,2350.02633 C1162.41564,2345.67766 1165.04497,2340.224 1163.75704,2334.97084 C1162.67858,2330.56871 1150.90455,2328.34091 1149.72804,2323.08329 C1148.72978,2318.62769 1158.63654,2311.42743 1157.50905,2306.21438 C1156.53309,2301.70085 1154.59006,2297.07593 1153.46702,2291.91189 C1152.48214,2287.36271 1139.23747,2285.2062 1138.10998,2280.09562 C1136.97804,2274.95386 1134.52697,2270.43587 1133.36383,2265.65501 C1132.12493,2260.54443 1148.06131,2251.16093 1146.7823,2246.41571 C1145.41416,2241.34523 1143.52461,2236.28367 1142.10299,2231.55627 C1140.5967,2226.55263 1126.70584,2225.51447 1125.13271,2220.83609 C1123.47489,2215.90374 1125.819,2209.69708 1124.07206,2205.03652 C1122.26273,2200.20219 1110.0074,2199.70316 1108.09112,2195.06042 C1106.13918,2190.34639 1115.64931,2180.82476 1113.57259,2176.19985 C1111.50478,2171.5883 1099.40543,2171.65067 1097.19947,2167.03021 C1095.04253,2162.49886 1098.98652,2155.0179 1096.68698,2150.38408 C1094.46765,2145.92402 1084.88621,2145.10419 1082.52427,2140.45253 C1080.27821,2136.04149 1076.02672,2132.54829 1073.6425,2127.88773 C1071.39198,2123.49005 1080.7194,2113.01492 1078.33518,2108.33208 C1076.09357,2103.94331 1063.62433,2104.54928 1061.25794,2099.85307 C1059.04306,2095.45093 1069.6183,2084.47232 1067.2831,2079.75829 C1065.09497,2075.34279 1062.18043,2071.15007 1059.88534,2066.42713 C1057.7284,2061.98935 1056.64993,2056.91441 1054.39495,2052.18256 C1052.27367,2047.71805 1037.1751,2049.18839 1034.96023,2044.43872 C1032.87014,2039.95193 1036.61804,2032.56899 1034.44773,2027.80149 C1032.3933,2023.29688 1036.33728,2015.94068 1034.20708,2011.15981 C1032.18384,2006.63292 1014.4916,2008.85181 1012.39706,2004.07095 C1010.40947,1999.52178 1020.73959,1989.46102 1018.6807,1984.66234 C1016.63517,1979.89484 1025.0089,1970.85887 1023.07479,1966.25623 C1021.06046,1961.47537 1004.08572,1963.05266 1002.18725,1958.43665 C1000.21303,1953.64242 991.589738,1951.57056 989.735841,1946.94119 C987.806184,1942.12914 987.797271,1936.55518 985.987939,1931.90798 C984.11176,1927.07365 999.843145,1915.6272 998.091747,1910.96219 C996.269045,1906.1234 974.053478,1908.89924 972.355558,1904.22086 C970.595247,1899.35088 985.377401,1888.6708 983.746328,1883.96123 C982.048408,1879.07343 986.424674,1872.36329 984.860449,1867.62698 C983.233833,1862.71245 964.632473,1863.40307 963.139551,1858.63557 C961.597608,1853.70767 975.653355,1844.16377 974.236194,1839.36954 C972.78338,1834.42827 954.42267,1834.39263 953.094638,1829.56721 C951.735411,1824.61258 968.17092,1815.02857 966.932018,1810.17197 C965.66192,1805.20397 942.256472,1805.71191 941.102243,1800.8152 C939.930188,1795.84274 957.323841,1786.65083 956.254285,1781.70957 C955.175816,1776.73711 955.15799,1771.68 954.164194,1766.70755 C953.174855,1761.73509 946.258394,1757.9612 945.340358,1752.94864 C944.431236,1747.98064 953.691807,1741.27941 952.836162,1736.23567 C951.989431,1731.26767 930.001144,1729.73494 929.203433,1724.67783 C928.414636,1719.70983 944.016783,1712.17095 943.259181,1707.0782 C942.519404,1702.11465 924.755863,1699.55714 924.033913,1694.45101 C923.325332,1689.48747 939.128021,1682.14018 938.428353,1677.02515 C937.750968,1672.06606 925.446618,1668.5996 924.755863,1663.4712 C924.096304,1658.51657 916.747564,1654.35949 916.065722,1649.23109 C915.410619,1644.28091 926.591934,1637.66434 925.910093,1632.53148 C925.250533,1627.58576 931.712433,1621.59298 931.026135,1616.46012 C930.371032,1611.55004 920.999048,1607.84298 919.969601,1602.82597 C918.975805,1597.96936 918.60146,1592.96126 917.268972,1588.01554 C915.976592,1583.22577 926.453783,1574.55071 924.862819,1569.68519 C923.320876,1564.96225 920.557856,1560.04326 918.748524,1555.25794 C916.983757,1550.60629 907.87025,1548.54335 905.869289,1543.84714 C903.912893,1539.25787 890.048774,1540.09552 887.874011,1535.47506 C885.752725,1530.95708 884.380128,1526.37226 882.062757,1521.83645 C879.78995,1517.38976 884.077087,1509.588 881.626021,1505.13239 C879.219521,1500.74362 882.040474,1493.30277 879.464627,1488.91399 C876.933345,1484.59206 872.494688,1481.27709 869.816342,1476.9507 C867.178104,1472.69114 866.30909,1467.17065 863.532701,1462.91109 C860.791964,1458.70945 859.42828,1453.42065 856.567218,1449.23238 C855.1456,1447.16053 850.21673,1447.54371 845.27449,1447.93135 C840.341163,1448.31453 835.398924,1448.69771 833.928284,1446.63477 C831.013745,1442.55343 827.653556,1439.0246 824.632061,1434.95663 C821.637305,1430.91985 825.866507,1421.54972 822.773708,1417.54413 C819.703191,1413.56082 813.842916,1411.84095 810.683269,1407.88883 C807.536992,1403.95899 803.111705,1401.19652 799.894124,1397.30232 C796.681,1393.42149 797.723817,1386.06083 794.439389,1382.22455 C791.163874,1378.38828 783.935459,1378.0853 780.597553,1374.29803 C777.259647,1370.51523 787.906185,1354.17653 784.514802,1350.44273 C782.816882,1348.57583 778.199965,1349.36893 773.587505,1350.16203 C769.006241,1350.95067 764.416063,1351.74377 762.704774,1349.9036 C759.251,1346.21882 767.553427,1331.29254 764.059545,1327.67459 C762.299234,1325.84779 757.383733,1327.09536 752.477146,1328.34293 C747.597297,1329.58605 742.717448,1330.8247 740.952681,1329.04692 C738.336725,1326.41366 742.735274,1316.68707 743.849395,1310.29328 C748.662396,1316.60687 753.965611,1321.41892 760.913268,1323.41503 C766.902781,1325.1349 773.146314,1321.67289 774.866516,1315.68902 C776.582262,1309.69623 773.128488,1303.44056 767.134518,1301.73852 C763.44455,1300.66918 757.076236,1289.83315 752.428124,1281.92445 C745.658727,1270.39334 737.98912,1257.32506 726.66074,1247.11727 C721.660566,1242.6082 715.595293,1239.42244 709.151218,1236.79809 C706.909608,1230.47113 704.151045,1224.3224 700.755205,1218.6014 C700.955746,1218.67715 701.129549,1218.71725 701.330091,1218.79299 C713.580962,1223.45356 717.796795,1229.2904 723.135662,1236.66888 C729.067241,1244.87164 736.438264,1255.07052 754.669735,1262.0079 C760.195774,1264.11094 766.376916,1261.33956 768.484832,1255.81906 C770.588292,1250.28966 767.807447,1244.10974 762.285865,1242.00224 C750.043906,1237.34167 745.823617,1231.50929 740.48475,1224.12635 C734.557628,1215.92804 727.177692,1205.72471 708.950677,1198.79179 C696.254157,1193.953 686.436525,1193.80151 678.3079,1194.88868 C672.354039,1191.11924 665.843117,1188.41468 658.775135,1186.84631 C660.722618,1186.48541 662.629993,1186.03094 664.506172,1185.47399 C671.952955,1185.79924 679.372999,1185.25566 686.30283,1184.7299 C697.105345,1183.90561 707.310691,1183.13034 713.745852,1185.90172 C715.541815,1186.677 717.297669,1187.53693 719.022328,1188.4637 C720.671227,1191.04349 721.932412,1193.6723 723.278269,1196.48824 C727.498559,1205.33707 732.240257,1215.38 748.506419,1226.15365 C752.971815,1229.12554 758.827634,1228.27452 762.330429,1224.42042 C767.401907,1228.30571 772.201539,1230.6048 777.602797,1230.21716 C783.815134,1229.77606 788.494441,1224.38478 788.057706,1218.17366 C787.652166,1212.5195 783.151118,1208.13073 777.656274,1207.72527 C775.200752,1206.32621 769.803951,1201.0686 765.78866,1197.1744 C757.094062,1188.73549 745.689922,1177.75242 731.634175,1169.7457 C729.022676,1166.82283 725.787269,1163.82866 721.687305,1160.7632 C733.719809,1159.65821 745.520576,1160.07704 755.400598,1160.45577 C772.50458,1161.11074 782.825795,1161.50284 788.525636,1153.81246 C792.046258,1149.06279 791.052462,1142.36156 786.301851,1138.84163 C782.308843,1135.88311 776.934324,1136.1148 773.230987,1139.08223 C770.178296,1139.59463 762.490863,1139.30056 756.216135,1139.05996 C742.82886,1138.55647 726.17944,1137.91932 708.892742,1140.81101 C708.442638,1140.88675 708.005902,1141.01151 707.560254,1141.10062 C722.872729,1136.13263 735.163709,1126.18326 745.302208,1117.92257 C751.643783,1112.76298 758.19927,1107.42071 762.285865,1106.31127 C763.555962,1105.97264 764.678996,1105.3845 765.695074,1104.68497 C769.688083,1107.26922 773.596418,1110.04952 777.455733,1112.82982 C785.75816,1118.80478 793.60157,1124.44558 801.805955,1127.33281 C807.684056,1129.3913 814.123674,1126.29911 816.182569,1120.42662 C818.250377,1114.54968 815.144209,1108.12024 809.283934,1106.05284 C804.145609,1104.24832 797.576753,1099.52538 790.633553,1094.52619 C788.708352,1093.13604 786.707391,1091.7058 784.652953,1090.26218 C787.442711,1086.55957 787.63434,1081.34206 784.715343,1077.43895 C781.194722,1072.69819 774.469889,1071.72687 769.737104,1075.26462 C768.355594,1076.29832 765.940181,1076.97111 762.998902,1077.42113 C759.224261,1075.70127 755.27136,1074.21309 751.131288,1073.07246 C756.028963,1072.73829 760.993485,1072.60462 765.895616,1072.47986 C781.569066,1072.07886 796.373503,1071.70013 806.810586,1063.885 C812.269777,1059.80367 813.379442,1052.06874 809.292847,1046.61508 C805.215165,1041.16142 797.47871,1040.04752 792.019519,1044.13331 C788.703896,1046.61508 780.330164,1047.29679 771.684587,1047.61314 C773.030445,1047.15421 774.398585,1046.65964 775.815747,1046.09378 C781.306134,1043.89716 783.975567,1037.67268 781.774065,1032.18338 C779.577018,1026.68516 773.346855,1024.02071 767.856468,1026.22178 C759.228717,1029.67488 753.118879,1030.07142 747.169474,1029.42091 C759.625344,1022.00678 770.062427,1013.03319 778.96648,1005.30272 C786.542501,998.739615 794.372542,991.935908 798.864677,990.715072 C804.876472,989.079866 808.423833,982.886576 806.79276,976.875966 C805.157231,970.869811 798.953806,967.323151 792.946467,968.953902 C783.476441,971.529241 774.53228,979.290903 764.17987,988.273401 C751.928998,998.908928 738.042597,1010.96134 720.697966,1017.29721 C711.383916,1020.69683 698.789896,1020.3092 685.456099,1019.89482 C679.337348,1019.70323 672.906643,1019.5161 666.377895,1019.68987 C666.640828,1018.66062 666.90376,1017.62692 667.171149,1016.58877 C667.300387,1016.09865 667.429625,1015.59517 667.554407,1015.10059 C670.589271,1009.68258 672.309474,1004.54081 673.820222,999.947084 C674.034133,999.29211 674.243588,998.668326 674.457499,998.031174 C685.487294,1000.98078 694.23537,1003.27096 702.101062,1000.68226 C708.014815,998.73516 711.321526,992.332457 709.374043,986.41987 C707.42656,980.502828 701.138462,977.263603 695.220253,979.210702 C693.901134,979.455761 690.777139,978.867621 687.327821,978.052245 C687.884882,977.57104 688.388464,977.107657 688.999003,976.621996 C699.137501,968.633098 706.232222,968.05387 715.216492,967.314239 C725.248035,966.498864 737.7351,965.474075 752.936163,953.4885 C757.584275,949.825993 758.381986,943.098031 754.7143,938.459747 C751.059984,933.790274 744.326238,933.019454 739.68704,936.67305 C729.548541,944.666403 722.45382,945.245632 713.465094,945.980807 C711.539893,946.141208 709.51665,946.310521 707.408734,946.55558 C712.315321,940.126143 716.807456,933.090744 720.082971,925.110757 C729.276695,924.295381 738.506072,924.683019 747.147192,925.061745 C757.325799,925.507306 766.938433,925.930588 775.272056,924.295381 C781.381894,923.096824 785.370446,917.175326 784.167196,911.057781 C782.972858,904.944692 777.036823,900.970293 770.931442,902.164395 C765.240513,903.282752 756.933629,902.917393 748.132075,902.534211 C739.156718,902.137662 729.120719,901.736657 718.688092,902.6055 C717.743318,902.030727 716.722783,901.553978 715.590836,901.291097 C711.660218,900.373243 707.774165,901.785669 705.251796,904.579333 C698.143706,906.058593 690.982137,908.277484 683.945351,911.837512 C670.085689,918.832811 659.804583,931.896642 649.862169,944.532735 C647.482407,947.562546 645.066994,950.610179 642.607015,953.586523 C643.070489,950.864149 643.369074,948.28881 643.645376,945.851594 C644.674823,936.811173 645.481447,929.66884 653.864091,919.608086 C662.246735,909.547331 669.127545,907.457653 677.839969,904.806569 C687.514994,901.86587 699.556411,898.212275 712.034563,883.228078 C715.822573,878.683362 715.203122,871.933121 710.65751,868.150313 C706.138636,864.354139 699.369238,864.986834 695.581228,869.527095 C687.20304,879.592305 680.32223,881.677528 671.614263,884.328612 C666.99289,885.732127 661.836739,887.309411 656.355265,890.192187 C656.760805,889.465924 657.175258,888.73966 657.634276,888.089142 C669.457325,871.327159 687.376843,862.977357 700.461077,856.877635 C707.774165,853.469098 713.549767,850.777913 717.618536,847.102039 C722.239909,842.922683 722.596427,835.793716 718.416246,831.17771 C714.258348,826.557249 707.110149,826.196345 702.488776,830.375701 C700.942377,831.774761 695.621336,834.252077 690.933116,836.439779 C677.09128,842.891493 656.497872,852.515598 641.354743,872.209369 C637.254779,869.905821 631.978303,870.30237 628.288335,873.635162 C626.81324,874.971843 621.184702,877.284302 616.665828,879.137833 C612.891187,880.688383 608.559485,882.479536 604.00496,884.649415 C604.218871,884.341979 604.4105,884.007808 604.633324,883.72265 C614.52226,871.064278 628.921156,862.723387 640.485729,856.026614 C651.528894,849.632822 659.505998,845.007905 662.892925,837.59378 C665.343991,832.220321 662.986512,825.86663 657.598624,823.416048 C652.308778,820.996655 646.078615,823.25119 643.53842,828.437514 C641.996477,830.411346 634.932951,834.501591 629.754518,837.500212 C623.029685,841.39441 614.981277,846.10844 607.035368,852.074494 C607.342866,851.575466 607.592429,851.116539 607.931121,850.6086 C615.881487,838.596291 623.020773,835.423901 632.049607,831.40049 C642.446582,826.780029 654.229523,821.535783 665.816378,804.043081 C669.256783,798.852302 667.826252,791.897104 662.638906,788.417277 C657.442647,784.977551 650.445969,786.403344 647.01002,791.594123 C639.055198,803.610887 631.920369,806.783277 622.882622,810.797777 C622.347844,811.033924 621.808609,811.278982 621.264918,811.519585 C622.477082,808.378384 622.307735,804.738155 620.427099,801.637055 C617.196149,796.312608 610.261862,794.615022 604.931908,797.84088 C595.149928,803.771289 583.901765,807.277849 572.662515,810.316571 C574.574346,805.727299 576.218789,801.218228 577.31954,796.798268 C581.169941,792.151073 584.842083,786.283043 588.068577,778.392168 C590.4216,772.62216 587.67195,766.018955 581.891891,763.688674 C576.125202,761.331659 569.542977,764.09859 567.189954,769.859686 C566.824523,770.755262 566.436809,771.521626 566.062464,772.337002 C560.442839,773.326146 556.534503,778.548114 557.287649,784.255743 C557.327757,784.554268 557.301018,784.89735 557.314388,785.209242 C554.34637,788.123207 551.110964,790.422299 547.532408,792.926348 C538.26738,799.39143 527.76345,806.720899 519.90667,825.960198 C518.28451,829.925685 517.116912,833.597103 516.274636,837.041285 C515.757684,837.638336 515.249645,838.244298 514.754976,838.854716 C514.835192,838.458167 514.915409,838.048252 514.995626,837.656158 C518.101794,822.128378 520.789054,808.721465 515.855727,797.600277 C513.391292,792.021861 506.871457,789.5089 501.291941,791.977305 C495.721337,794.445709 493.198968,800.964258 495.667859,806.542675 C497.75795,811.256704 495.511882,822.47146 493.337119,833.3164 C490.556273,847.213429 487.401083,862.968446 489.161394,879.365069 C489.700629,884.377624 491.086595,889.305522 492.909296,894.166586 C492.24528,897.174119 491.576808,900.101451 490.863771,902.890659 C489.402044,899.357365 487.828906,895.913183 486.246854,892.567024 C487.88684,874.838175 481.808197,864.376417 476.883784,855.946414 C475.35521,853.326518 473.991526,850.960592 472.895231,848.518921 C473.777615,835.076364 478.318771,822.168478 482.458844,810.552718 C482.686125,809.911111 482.908949,809.287327 483.131773,808.650175 C489.865519,801.507842 497.824797,792.427321 499.883692,774.569259 C500.592273,768.37597 496.158072,762.784186 489.968018,762.075745 C489.526826,762.026734 489.094547,762 488.662268,762 C483.880462,762 479.669086,765.052089 478.082578,769.472048 M554.363427,861.394005 C555.526171,853.274496 558.154595,845.349386 561.299794,837.596069 C564.721201,836.601474 568.276256,835.652088 571.898135,834.693661 C580.808048,832.329238 590.461938,829.765897 600,826 C596.525134,829.408747 593.023538,833.608649 589.544217,838.947813 C583.405288,848.355774 580.469471,856.443636 579.026066,863.690614 C578.117254,861.222211 576.415461,859.034103 573.983055,857.646192 C568.534643,854.590074 561.674011,856.588305 558.658005,862.121867 C557.312608,864.59027 555.855838,867.890516 554.225324,872 C553.909022,868.225061 553.900112,864.667125 554.363427,861.394005 M347.242257,871.913254 C345.103229,849.05227 357.619193,834.705769 365.494704,826 C365.521221,826.378125 365.552157,826.747353 365.583093,827.129926 C366.612832,840.444369 367.775155,855.533775 373.688417,869.471012 C377.718982,878.973067 384.913893,887.056042 392.351876,894.751995 C394.68978,901.762874 396.400118,908.618055 395.918395,914.592428 C395.830005,915.70456 395.635548,916.843383 395.379219,918 C390.504534,914.721435 385.316066,911.998936 380.083403,909.60118 C376.450591,886.824718 373.029915,872.931967 368.349687,866.472704 C364.716875,861.432523 357.707582,860.324839 352.713571,863.990426 C347.72398,867.651564 346.614691,874.680238 350.251922,879.702626 C350.667353,880.329868 351.091623,881.330787 351.515893,882.478507 C349.173569,878.66167 347.538362,875.093951 347.242257,871.913254 M413.195447,886.143393 C412.267268,883.378952 411.30887,880.659683 410.367739,878.030754 C407.207614,869.186353 404.228807,860.780106 404,854 C405.510989,856.484383 407.315542,859.090726 409.24529,861.850649 C416.377159,872.045651 425.041601,884.508217 426,901 C421.998038,895.647285 417.52551,890.759827 413.195447,886.143393 M355.864245,951.884895 C348.734375,939.755274 336.507936,932.004304 325.719902,925.152321 C317.373604,919.865738 309.493455,914.856456 306.399109,909.440169 C297.59554,894.018734 298.723179,877.130295 299.553369,864.799409 C299.797542,861.114008 299.979563,857.911646 299.91297,855 C301.124959,857.965316 301.861919,861.02903 302.700989,864.553418 C305.240394,875.224979 308.396893,888.504051 326.048426,906.081266 C333.284844,913.304473 343.109503,917.996203 353.107303,922.187004 C356.099539,926.798228 358.576792,931.472068 359.930846,936.195105 C361.768807,942.604304 360.889782,951.513671 359.873132,961 C358.856482,957.842363 357.57346,954.783122 355.864245,951.884895 M561,916.421616 C562.131088,913.188476 563.239911,910.036615 564.281937,907.051831 C569.558864,891.969864 574.145561,878.892805 577,873 C576.884219,875.330028 576.844141,877.587808 576.804063,879.78237 C576.630392,889.793364 576.501252,897.704624 568.552463,909.878571 C566.03646,913.739374 563.596159,916.624816 561.155859,919 C561.102421,918.137528 561.066797,917.275056 561,916.421616 M516,892.722084 C516.456,890.477047 516.928,888.23201 517.432,886 C517.216,888.166873 516.78,890.494417 516.116,893 C516.076,892.904467 516.04,892.817618 516,892.722084 M593.283603,919.009746 C602.610175,909.386448 615.091784,904.173267 625.468546,899.897741 C627.063939,899.238243 628.543142,898.619121 630,898 C628.797869,903.096535 627.872809,908.318688 626.965624,913.478032 C626.804744,914.393255 626.639395,915.308478 626.478515,916.2237 C626.004813,915.905167 625.53111,915.586634 624.999312,915.335396 C620.003094,912.971071 614.162255,914.599629 611.025095,918.924505 C609.188381,919.983292 604.558611,921.732983 601.095222,923.047494 C597.971468,924.222927 594.557236,925.519493 591,927 C591.840151,924.339573 592.604331,921.670173 593.283603,919.009746 M529,919.860709 C531.120383,916.504244 533.140447,912.65352 535.019152,908.1333 C535.899225,906.007988 536.633379,903.972541 537.280894,902 C537.914729,905.172242 538.516644,908.357963 539,911.512232 C536.993616,917.029955 534.854993,922.88018 532.565891,929 C531.50798,925.890664 530.322389,922.830754 529,919.860709 M457.28263,951.10191 C458.567396,939.984724 462.878008,935.434372 468.845526,929.141709 C470.887862,926.988141 473.076395,924.666533 475.207335,922 C476.168694,925.542111 476.837659,929.053266 476.992717,932.502513 C477.014868,932.988945 476.979426,933.497487 476.979426,933.997186 C475.583904,936.323216 474.179522,938.640402 472.784,940.931055 C467.791132,949.107538 462.736241,957.416683 458.855361,966 C457.29592,961.922814 456.551642,957.456482 457.28263,951.10191 M414,935.932432 C415.292,932.693694 416.42,929.387387 417.268,926 C417.372,926.342342 417.52,926.671171 417.612,927.018018 C417.704,927.373874 417.756,927.761261 417.844,928.121622 C417.408,929.018018 416.972,929.914414 416.528,930.828829 C415.708,932.509009 414.872,934.247748 414.036,936 C414.024,935.977477 414.012,935.95045 414,935.932432 M657,971.576009 C660.57739,967.354139 663.989532,963.001463 667.343615,958.693892 C674.601117,949.375107 681.537055,940.538949 689,935 C685.476204,939.528587 681.644243,943.872242 677.843545,948.148238 C670.831682,956.064245 664.190509,963.587834 659.684159,972 C658.795394,971.851152 657.902163,971.706815 657,971.576009 M486.527499,1026.61601 C490.132948,1012.93094 488.215547,1002.95178 486.477041,993.945974 C485.839437,990.655306 485.275225,987.596815 485,984.48028 C486.142184,981.31463 487.389871,978.095401 488.660494,974.818128 C491.793473,966.767823 494.949388,958.552314 496.958531,950.162673 C500.513522,946.264772 504.444654,943.536687 508.903301,940.509451 C510.550064,939.388748 512.242699,938.236791 513.944507,937 C515.219717,941.103289 516.022457,945.166394 515.999521,949.13127 C515.994934,949.832267 515.894018,950.546659 515.834386,951.256586 C514.669267,952.747879 513.49956,954.310612 512.33444,956.020688 C505.848302,965.562286 502.834587,973.724215 501.389655,981.033338 C494.343892,992.249293 491.527422,1005.43876 489.022874,1017.27087 C488.32105,1020.58387 487.623813,1023.81649 486.866944,1026.89731 C486.834834,1026.92856 486.798137,1026.96428 486.766028,1027 C486.68346,1026.87052 486.60548,1026.7455 486.527499,1026.61601 M384,938 C384.572,938.404 385.108,938.82 385.644,939.244 C385.252,939.928 384.86,940.612 384.46,941.304 C384.456,941.308 384.452,941.312 384.452,941.324 C384.3,940.216 384.148,939.08 384,938 M580.796715,957.787565 C589.202464,951.24268 599.669918,947.207856 608.464168,943.86408 C612.878953,942.183275 616.73306,940.689722 620,939 C618.750616,942.272442 617.293737,945.3398 615.466016,948.019279 C610.031417,956.004217 599.793532,962.112182 588.964066,968.590192 C584.959856,970.979877 580.924743,973.418605 577,976 C578.867454,970.01687 579.957906,963.824196 580.796715,957.787565 M399.041556,999.599434 C395.557716,992.650131 392.916813,985.749891 393.002004,979.295692 C393.078227,973.474869 395.970217,966.940383 399.741014,960 C400.601885,962.769909 401.391018,965.669169 402.135313,968.662097 C401.664524,979.652524 404.798634,990.482376 408,1001 C405.049722,1000.43799 402.050122,999.99641 399.041556,999.599434 M437.490729,1003.29207 C436.260768,1000.35951 435.261702,997.435872 434.675583,994.538972 C433.250249,987.452709 434.293718,979.016044 435.830059,970 C437.761587,976.63613 440.767666,981.841636 443.440724,986.436565 C447.827734,993.981876 450.998104,999.432505 449.710419,1010.65465 C449.532807,1012.2368 449.27527,1013.65406 448.97777,1015 C444.537476,1011.2786 440.52345,1007.40567 437.490729,1003.29207 M537.075188,978.768882 C537.728249,977.915394 538.377014,977.057367 539.025779,976.19934 C541.131042,975.059843 543.292159,973.929426 545.491944,972.78993 C545.994629,972.53116 546.497315,972.26331 547,972 C546.46724,974.524144 545.977444,977.066447 545.500537,979.59513 C545.152524,981.456459 544.795918,983.322328 544.41783,985.170037 C540.649839,988.288898 535.988185,991.144449 531,994 C533.09667,988.860916 535.124597,983.78539 537.075188,978.768882 M562.685767,1042.6522 C562.690221,1042.63888 562.690221,1042.62111 562.694675,1042.60779 C566.097538,1040.64973 569.228706,1038.32758 572.17726,1035.80562 C574.791763,1035.34386 577.36618,1034.70449 579.860424,1033.7854 C593.106646,1028.91465 603.359774,1018.80908 612.401411,1009.89788 C614.686318,1007.64677 616.926684,1005.44894 619.118056,1003.41983 C624.801371,1002.58066 630.51141,1002.28762 635.860675,1002.01233 C640.564108,1001.77257 644.95576,1001.54169 649,1001 C648.469973,1002.93143 647.957762,1004.84953 647.467821,1006.72768 C645.365529,1009.92452 642.519417,1013.10804 638.185667,1016.51801 C628.052798,1024.47903 620.953108,1025.06512 611.973826,1025.79773 C601.947853,1026.61914 589.467721,1027.64036 574.261736,1039.58855 C567.620809,1044.81006 563.21134,1050.00049 560,1055 C560.993244,1050.91515 561.852868,1046.76813 562.685767,1042.6522 M365.329655,1066.25258 C357.688475,1058.32822 349.879552,1049.53649 342,1040 C350.793315,1044.26871 359.604288,1048.76903 368.159231,1053.47369 C368.238688,1054.01409 368.331389,1054.55904 368.388775,1055.0949 C368.878764,1059.99937 369.399653,1064.60868 370,1069 C368.450575,1068.07814 366.892322,1067.16536 365.329655,1066.25258 M615.062361,1077.39484 C611.886414,1076.78123 608.572383,1076.15428 605,1075.763 C619.022272,1075.05157 633.187082,1072.09469 645.285078,1062.10355 C651.556793,1056.919 655.797327,1050.17376 659.035635,1042.52589 C665.485523,1041.91673 672.238307,1041.93007 679,1042.10348 C673.316258,1046.99901 669.619154,1052.15687 666.193764,1056.96347 C660.790646,1064.52685 656.523385,1070.50286 643.975501,1075.52289 C637.47216,1078.11961 632.398664,1079 627.74833,1079 C623.423163,1079 619.467706,1078.23966 615.062361,1077.39484 M660,1091.92809 C672.768731,1085.05124 678.657202,1076.7406 683.923024,1069.27496 C689.313377,1061.62504 693.574068,1055.5842 706.102634,1050.51422 C718.631201,1045.44873 725.83168,1046.84657 734.95792,1048.62646 C735.954157,1048.81973 736.972631,1049.0175 738,1049.20627 C731.044133,1050.24454 724.052686,1051.88959 717.248033,1054.68078 C705.044133,1059.68784 695.26856,1069.93568 685.808758,1079.84642 C682.686623,1083.12303 679.515566,1086.41762 676.300034,1089.48748 C671.785836,1090.87633 667.351693,1091.8337 663.117687,1091.98202 C662.819706,1091.99551 662.526172,1092 662.223743,1092 C661.489908,1092 660.747178,1091.96854 660,1091.92809 M528.445372,1054.66468 C529.170145,1053.28679 529.899337,1051.90433 530.632949,1050.52644 C533.085686,1050.39368 535.542843,1050.22889 538,1050 C537.946968,1050.32502 537.885097,1050.65003 537.832065,1050.97505 C537.005647,1054.44495 536.073165,1057.66308 534.986005,1060.5745 C534.539651,1061.56786 534.049104,1062.57496 533.474589,1063.60494 C528.891726,1065.60082 524.406089,1067.77523 520,1070 C522.97422,1065.00114 525.736312,1059.80545 528.445372,1054.66468 M591,1054.93363 C594.235043,1052.58407 597.17094,1051.0354 600,1050 C599.089744,1050.85841 598.179487,1051.71681 597.277778,1052.57965 C596.423077,1053.39381 595.576923,1054.19469 594.726496,1055 C593.491453,1054.9823 592.247863,1054.9646 591,1054.93363 M381.120392,1112.54942 C376.44797,1110.69943 372.236584,1107.70566 367.519832,1105.85567 C365.476202,1105.04549 364.660523,1101.21554 364,1097 C370.507699,1102.82724 376.851377,1108.13458 383,1113 C382.34391,1112.92635 381.714419,1112.78771 381.120392,1112.54942 M715.079321,1104.93645 C720.283595,1102.78288 726.035449,1101.64872 732,1101 C721.605028,1109.25243 709.85242,1118.45808 696.420867,1120.95146 C696.285104,1120.97793 696.135764,1120.97793 696,1121 C702.634318,1114.00088 708.915651,1107.47838 715.079321,1104.93645 M670.846173,1146.0422 C669.564115,1145.97438 668.282058,1145.90203 667,1145.83421 C669.292568,1144.73097 671.460492,1143.41522 673.570545,1142 C682.495981,1144.21552 691.483739,1145.53127 700.231112,1143.84024 C701.1793,1143.65486 702.074069,1143.36096 703,1143.13489 C699.3586,1144.38282 695.775071,1146.06933 692.253864,1148 C685.291579,1146.80633 678.00878,1146.40844 670.846173,1146.0422 M573.784022,1184.35077 C571.386226,1179.14909 568.944353,1173.87156 566,1169 C569.658402,1169.24536 573.678237,1170.08852 578.544353,1171.9622 C589.012672,1175.99952 593.552617,1180.9157 598,1186.9427 C594.672176,1187.00069 591.34876,1187.00961 588.029752,1186.99177 C587.060055,1185.06456 585.944904,1183.36486 584.366942,1182.4994 C582.149862,1181.27259 578.12562,1183.2801 574.136639,1185.12255 C574.017631,1184.86827 573.90303,1184.61398 573.784022,1184.35077 M537,1178.608 C541.077851,1177.892 544.978202,1176.648 548.729077,1175 C548.822499,1175.096 548.906578,1175.208 549,1175.308 C545.244453,1176.764 541.161931,1178.724 538.16777,1178.724 C537.756715,1178.724 537.369015,1178.688 537,1178.608 M618.754522,1178.34744 C618.189276,1177.58563 617.592377,1176.79281 617,1176 C618.302326,1176.81053 619.609173,1177.6122 620.929587,1178.40059 C622.023902,1180.44685 623.036822,1182.66585 624,1185 C622.168605,1182.93159 620.509044,1180.73031 618.754522,1178.34744 M676.408021,1264.18849 C672.523567,1260.95125 671.123923,1254.77669 667.266044,1251.66736 C663.67392,1248.77855 657.331231,1249.42688 653.269607,1247.28343 C649.87237,1241.54109 645.72659,1235.84285 640.522218,1230.74443 C633.027924,1223.43199 622.238265,1220.06244 611.7808,1216.81198 C609.836358,1216.21216 607.883058,1215.59471 605.947475,1214.9552 C605.349526,1213.58798 604.600982,1212.44127 603.542391,1211.76648 C602.4838,1211.09169 601.690963,1209.93175 601,1208.56453 C606.647297,1208.45427 612.272447,1208.28227 617.831159,1208 C621.737759,1210.70357 626.35747,1213.26602 632.177507,1215.47122 C633.271532,1215.8902 634.347841,1216.26509 635.402003,1216.61351 C638.223437,1222.42642 641.647249,1227.86444 646.249242,1232.45125 C657.154061,1243.30084 672.279958,1248.08612 685.625295,1252.30246 C687.525444,1252.90669 689.390159,1253.50209 691.228299,1254.1019 C691.919262,1256.88045 692.486207,1259.65901 693,1262.41992 C688.85422,1262.78157 683.122767,1264.99559 679.331327,1265 C678.117712,1265 677.107843,1264.77066 676.408021,1264.18849 M666,1219.42262 C668.6066,1219.00521 671.037967,1218.48982 673.337909,1218 C676.238026,1220.63228 678.757009,1223.68623 681,1227 C675.366238,1224.94274 670.131133,1222.55324 666,1219.42262 M717.778212,1299.91566 C717.829754,1291.41508 717.447481,1280.58723 716,1269 C722.142132,1276.30791 727.22335,1285.24624 731.79344,1293.34926 C733.902382,1297.07469 735.93401,1300.65717 738,1303.99397 C736.251855,1303.94036 734.19016,1304.21731 732.132761,1304.49426 C728.249902,1305.0169 724.375635,1305.54399 722.623194,1303.81529 C721.515033,1302.72089 719.565014,1302.57795 717.348692,1302.73876 C717.593518,1301.83644 717.769621,1300.89838 717.778212,1299.91566 M695.748122,1289.93799 C694.220122,1288.4827 695.296122,1283.89197 696.628122,1279 C697.048122,1283.75196 697.276122,1288.14752 697.384122,1292 C696.876122,1291.27023 696.380122,1290.53198 695.748122,1289.93799" id="Clip-2" fill="url(#linearGradient-1)"></path>
            <path d="M168.246681,29.737072 C170.900297,42.9955217 183.104171,110.540828 173.816512,114.253931 C164.528853,117.97164 150.597364,100.327491 123.660389,88.2529958 C96.7280204,76.1738939 94.866803,102.184042 105.085071,106.827725 C115.303339,111.471407 163.602851,134.694424 168.246681,148.625471 C169.075936,151.113158 169.794624,153.757477 170.421172,156.493933 C167.896551,155.443576 165.394964,154.342544 163.146761,152.863752 C157.194551,148.966376 154.356655,140.130481 148.316912,136.352882 C142.249528,132.570677 134.13204,132.096174 128.069263,128.465994 C121.895918,124.771318 115.197378,122.108572 109.12078,118.607383 C102.832261,114.986416 96.3087858,112.074901 90.2229735,108.688883 C83.823887,105.123198 80.9399215,95.4903219 74.881751,92.2240811 C68.3398483,88.699858 58.8955522,91.2197927 52.9018793,88.0963636 C46.1388419,84.55832 44.2361618,72.5206796 38.3853051,69.5584895 C31.1661773,65.9006684 24.8730512,62.1414971 19.4276082,59.4787508 C7.35733705,53.5635842 9.69307273,54.6001204 0,50.1314976 L0,3154 L919.906693,3154 C919.178792,3143.8097 921.749483,3146.38952 920.777411,3133.43512 C920.344356,3127.67198 914.986446,3121.18096 914.387539,3113.40003 C913.913021,3107.16238 905.228875,3100.97081 904.653003,3093.63213 C904.146236,3087.20561 918.851696,3079.1713 918.271218,3072.0215 C917.75063,3065.48442 911.388399,3059.1316 910.80792,3052.08315 C910.268904,3045.47236 902.759537,3039.23471 902.179059,3032.25537 C901.621615,3025.5985 913.618174,3017.72083 913.019268,3010.79216 C912.45261,3004.09844 902.570651,2998.08192 901.967138,2991.1855 C901.382052,2984.45953 895.148817,2978.162 894.531482,2971.29783 C893.927969,2964.54882 896.217635,2957.50038 895.591086,2950.66384 C894.969145,2943.8872 904.874138,2936.10627 904.233769,2929.29277 C903.588793,2922.50231 894.890826,2916.47197 894.232029,2909.69072 C893.568625,2902.87722 897.576692,2895.62147 896.890253,2888.87247 C896.203814,2882.03593 888.528595,2875.96414 887.828335,2869.24277 C887.109647,2862.38781 883.562278,2855.93365 882.829769,2849.24914 C882.074225,2842.36654 882.028155,2835.54844 881.263398,2828.90079 C880.466391,2821.97672 889.786299,2814.00691 888.984686,2807.40072 C888.132396,2800.42598 890.076539,2793.25776 889.219641,2786.71146 C888.302854,2779.66762 880.406501,2773.82616 879.480499,2767.3766 C878.44393,2760.09321 870.377119,2754.11815 869.441903,2747.44286 C868.428369,2740.15486 879.904341,2731.48481 878.996767,2724.81412 C878.006267,2717.53073 864.305128,2712.28816 863.415982,2705.60826 C862.457731,2698.3479 871.828316,2690.051 870.952991,2683.32964 C870.013168,2676.13838 862.835503,2670.02052 861.960178,2663.22545 C861.04339,2656.13554 860.361558,2649.18383 859.458591,2642.28281 C858.54641,2635.3265 856.970825,2628.513 856.021789,2621.49219 C855.095787,2614.65106 852.787693,2607.94351 851.778766,2600.80293 C850.825122,2594.05854 847.531136,2587.50763 846.462318,2580.28873 C845.476426,2573.59961 853.045684,2565.39486 851.926189,2558.1391 C850.88962,2551.47763 844.052871,2545.45651 842.887307,2538.18232 C841.818489,2531.53007 838.948344,2524.91466 837.745924,2517.64969 C836.64025,2510.99744 843.527676,2502.72818 842.297614,2495.48164 C841.164298,2488.81556 842.03041,2481.52756 840.772706,2474.30405 C839.616355,2467.62876 840.740457,2460.28087 839.468932,2453.08501 C838.188193,2445.82004 832.360372,2439.71599 831.08424,2433.12823 C829.669899,2425.87248 820.092001,2420.7589 818.686874,2414.22642 C817.12511,2406.97988 821.681407,2398.86725 820.128856,2392.38545 C818.401241,2385.18037 810.205435,2380.16353 808.491641,2373.71858 C806.598175,2366.5826 804.313116,2360.17911 802.442684,2353.72956 C800.411009,2346.73178 801.327797,2339.29636 799.32837,2332.79152 C797.232197,2325.96421 798.356299,2318.3353 796.301588,2311.67843 C794.251485,2305.02157 787.138318,2299.79282 785.138891,2292.93325 C783.236211,2286.39616 781.831084,2279.32468 779.988294,2272.26242 C778.288321,2265.76679 776.41789,2258.78284 774.7732,2251.56855 C773.294361,2245.06371 771.493035,2238.05672 770.064873,2230.77333 C768.779527,2224.22703 773.897875,2216.04069 772.658599,2208.72505 C771.539104,2202.13729 767.517216,2195.61402 766.434578,2188.29377 C765.457899,2181.65533 771.253472,2173.75002 770.309043,2166.43437 C769.447538,2159.75908 766.287154,2153.08839 765.453292,2145.79118 C764.688535,2139.07442 764.757639,2132.00294 764.015916,2124.71034 C763.334084,2117.97055 754.622297,2111.71908 753.9635,2104.44951 C753.318523,2097.31814 754.447232,2090.4079 753.746972,2083.85699 C752.996035,2076.7118 759.579401,2069.07829 758.759359,2062.57345 C757.865606,2055.41444 763.361726,2047.60586 762.389655,2041.17013 C761.311623,2033.98808 759.173987,2027.13312 757.999209,2020.76649 C756.681614,2013.57984 755.225811,2006.54521 753.779221,2000.27071 C752.129924,1993.12091 745.371494,1987.5144 743.556346,1981.38732 C741.46478,1974.32506 738.285968,1968.02752 735.954839,1962.06629 C733.301223,1955.25279 725.06856,1951.68711 722.083241,1945.92857 C718.803076,1939.6034 717.600656,1932.84058 713.91047,1927.28013 C710.118931,1921.56306 701.490069,1919.85854 697.233225,1914.35798 C693.179088,1909.11541 688.30491,1904.53623 683.79929,1898.96657 C679.708297,1893.90367 675.976648,1887.9885 671.49867,1882.25761 C667.522852,1877.16706 670.581882,1866.17057 666.29279,1860.2554 C662.487429,1855.02665 661.432432,1847.56359 657.373688,1841.501 C653.766428,1836.11102 641.94954,1835.55359 638.130359,1829.36201 C634.711985,1823.82 637.402457,1814.19634 633.813625,1807.91723 C630.436713,1802.00207 628.967088,1794.97665 625.668495,1788.5962 C622.531146,1782.51979 607.493984,1782.0499 604.430346,1775.58652 C601.48649,1769.37191 602.670482,1760.90916 599.800338,1754.3859 C597.022333,1748.06533 604.582377,1737.25771 601.878083,1730.68837 C599.247501,1724.28949 586.417079,1721.88933 583.855602,1715.28775 C581.344801,1708.81976 582.18327,1700.96052 579.750788,1694.32208 C577.355162,1687.79881 577.663829,1680.25283 575.341914,1673.59135 C573.047641,1667.0128 572.904825,1659.70638 570.684264,1653.02648 C568.486737,1646.39725 560.148115,1641.74896 558.019693,1635.06445 C555.900485,1628.38916 551.302725,1622.42793 549.266443,1615.7296 C547.225554,1609.01745 556.186117,1599.04828 554.232761,1592.33613 C552.265583,1585.59173 546.055382,1580.12804 544.175737,1573.41128 C542.282271,1566.63464 531.41442,1562.32265 529.608486,1555.60589 C527.779517,1548.78779 529.378137,1541.06674 527.650522,1534.34999 C525.881444,1527.49964 536.629514,1517.58574 534.966396,1510.86438 C533.266423,1503.97257 528.138861,1498.07583 526.549455,1491.36368 C524.909373,1484.43041 511.070024,1480.42707 509.558936,1473.72414 C507.983351,1466.74019 516.243655,1457.72463 514.806279,1451.04012 C513.295192,1444.00089 506.297199,1438.29764 504.947356,1431.64538 C503.50998,1424.52783 496.46131,1418.68176 495.21282,1412.07097 C493.849156,1404.84285 499.230101,1396.66113 498.101393,1390.11943 C496.829868,1382.72547 490.080651,1376.59379 489.122401,1370.19951 C487.961444,1362.45083 491.799053,1354.66068 491.121827,1348.58888 C490.458423,1342.61843 500.308133,1333.59827 498.672657,1325.77587 C497.345849,1319.4553 487.049263,1314.39701 485.174224,1307.04451 C483.534142,1300.59495 477.102806,1295.08058 475.098773,1287.95382 C473.265197,1281.43516 468.275845,1275.65359 466.184279,1268.66503 C464.221708,1262.10952 472.270091,1252.30619 470.114027,1245.40055 C468.063924,1238.822 458.15893,1234.57911 455.966011,1227.73797 C453.846803,1221.141 457.24675,1212.63679 455.016974,1205.85094 C452.84709,1199.22632 453.621061,1191.52831 451.363644,1184.77931 C449.152297,1178.14087 448.452037,1170.91736 446.180799,1164.20061 C443.937203,1157.55296 438.657611,1151.88195 436.381766,1145.19745 C434.110528,1138.52676 421.883619,1135.25591 419.607774,1128.60365 C417.318108,1121.91454 417.078546,1114.55283 414.807308,1107.9236 C412.503821,1101.21606 410.467538,1094.46245 408.205514,1087.86087 C405.892813,1081.12569 406.215302,1073.55667 403.971705,1066.98273 C401.663612,1060.20608 405.584146,1051.43008 403.377406,1044.87917 C401.069312,1038.06106 401.460905,1030.51969 399.29102,1024.00563 C397.001354,1017.11842 392.306848,1011.27236 390.201461,1004.79977 C387.930223,997.820424 383.369319,991.891437 381.365285,985.474126 C379.130903,978.347364 376.329863,971.814883 374.47786,965.494315 C372.298761,958.08193 367.853031,951.913388 366.291267,945.809341 C364.190487,937.586154 361.467766,930.491639 360.693794,925.041762 C360.039604,920.462576 357.03125,913.676719 356.017716,904.762507 C355.345098,898.796666 369.02781,890.356958 368.207768,882.70041 C367.530543,876.39827 349.614022,871.381435 348.844658,864.051972 C348.162826,857.588593 361.426303,849.282483 360.675366,842.100439 C359.993534,835.544923 352.640804,829.394808 351.908295,822.295687 C351.221856,815.684889 356.750225,808.198795 356.022323,801.159562 C355.331277,794.502696 346.080474,788.550675 345.352572,781.557511 C344.652312,774.86379 344.403535,767.98119 343.675633,761.015667 C342.970766,754.298912 337.907702,747.923063 337.170586,740.980574 C336.465719,734.240785 351.484454,725.731974 350.747338,718.812519 C350.02865,712.05891 333.544898,706.917691 332.803175,700.016663 C332.070666,693.249233 341.528784,685.316276 340.777847,678.429069 C340.040731,671.647819 328.813536,665.9676 328.057992,659.094214 C327.307056,652.30375 327.555832,645.370474 326.795682,638.506301 C326.030924,631.69741 331.011062,624.225136 330.237091,617.370176 C330.011349,615.384634 329.205129,613.45898 328.191595,611.560967 C331.333551,613.159536 334.512363,615.246429 337.654319,618.010525 C347.554705,626.735857 371.819636,631.780333 401.866318,630.278507 C431.913001,628.781288 419.03651,612.482332 412.296507,611.984795 C405.54729,611.491864 393.159138,611.215455 369.820209,608.478999 C359.062926,607.212121 342.182974,600.813238 346.22329,595.358754 C350.950045,588.982905 378.988087,583.809437 395.794327,573.674417 C426.983539,554.860133 407.629643,548.447429 395.08946,552.0039 C369.999881,559.112235 345.380214,582.224689 337.106089,569.740186 C334.341904,565.571007 347.536277,551.446474 365.462012,537.289693 C367.290981,535.838542 368.760605,534.060306 369.893921,532.176114 C373.657818,532.982309 376.873486,532.424883 379.13551,529.941803 C391.19196,516.724814 334.116163,491.976937 340.552105,478.460505 C342.791094,473.76154 353.898508,476.101809 366.199128,478.451291 C379.983193,481.077183 395.259918,483.707681 401.267412,476.424287 C417.064725,457.264491 349.098041,457.3382 338.253225,454.574104 C329.619756,452.37204 321.124497,449.267038 314.186394,446.15743 C314.633271,443.374906 315.278247,440.569348 315.62377,437.823679 C337.764886,432.857518 361.619796,428.651485 373.515002,425.795252 C405.164912,418.193986 426.849937,416.512494 469.91132,393.317117 C512.977311,370.121741 484.883985,365.068051 469.644116,367.721583 C454.408854,370.370509 423.399314,384.665495 397.273166,393.920612 C379.715989,400.139829 325.187848,412.744109 336.318296,404.530136 C347.448745,396.311555 416.530316,348.184028 454.20154,306.040769 C491.872764,263.897511 470.556297,246.677189 438.938636,281.481771 C427.646943,293.906385 369.202875,355.895857 358.643691,349.358769 C348.084507,342.82168 355.437237,315.89938 347.633024,280.099723 C339.833417,244.304673 312.495635,261.617131 315.393422,275.248734 C318.286601,288.87573 330.702395,354.218972 320.212316,369.126666 C314.57338,377.151759 306.856699,385.209101 298.776067,392.469461 C298.2693,385.669784 305.723384,377.764468 304.696029,371.351764 C303.581141,364.38624 300.213443,357.941289 299.093948,351.376559 C297.900742,344.374181 298.453579,337.256633 297.260373,330.765613 C295.961206,323.689526 294.482368,316.889848 293.183201,310.490965 C291.732004,303.322741 283.51777,298.034103 282.071181,291.801065 C280.3666,284.434748 284.757046,276.147065 283.075501,270.236505 C280.813477,262.303548 280.725944,254.204745 278.519204,249.243192 C276.985082,245.788071 272.751273,243.433982 268.568141,240.858766 C269.25458,240.50404 269.931805,240.158528 270.581388,239.845264 C282.260066,234.284823 327.919783,196.937272 315.080147,183.480728 C308.386215,176.469137 297.080701,188.718691 285.871934,200.963639 C275.579955,212.208905 265.366294,223.458778 258.884282,219.787137 C248.873328,214.139166 274.630918,169.439118 261.15552,156.659778 C245.45956,141.775118 239.521171,188.806221 235.858627,210.974275 C232.79499,210.347747 229.90181,209.47245 227.870135,207.634325 C222.74718,203.013677 223.958814,190.759516 218.25538,186.152688 C216.320451,184.595581 213.864934,183.683429 211.243566,182.946336 C218.471908,166.688842 226.755247,149.993699 230.482289,141.194658 C240.695949,117.045668 249.983609,102.184042 255.558047,63.1780333 C261.127878,24.1628106 244.413777,39.9550155 238.839339,51.0989314 C233.264901,62.2428473 227.690463,89.1789681 221.190023,110.540828 C216.822612,124.900309 198.896877,166.274227 198.896877,155.125705 C198.896877,143.981789 200.758094,76.1738939 191.465828,31.5936235 C186.927959,9.8079359 179.506124,0 173.968542,0 C168.172969,0 164.445927,10.7385151 168.246681,29.737072 M321.704976,556.131617 C320.884934,549.295085 315.052505,543.094295 314.218643,536.299225 C313.384781,529.453479 313.808623,522.501776 312.960939,515.725133 C312.104042,508.870173 313.527597,501.784873 312.661486,495.02205 C312.090221,490.567247 314.121897,485.803788 315.388815,481.160106 C318.079287,484.647474 320.424237,488.06574 322.096568,491.023323 C325.602475,497.237934 339.897915,513.467787 353.714229,523.690338 C339.303615,534.336716 328.689148,550.746236 321.976787,563.097141 C321.999822,560.756872 321.976787,558.430424 321.704976,556.131617" id="Fill-15" fill="url(#linearGradient-2)"></path>
        </g>
    </g>
</svg>